<svg xmlns="http://www.w3.org/2000/svg" xmlns:xlink="http://www.w3.org/1999/xlink" width="295" height="314" viewBox="0 0 295 314">
  <defs>
    <clipPath id="clip-path">
      <rect id="Rectángulo_424293" data-name="Rectángulo 424293" width="295" height="314" transform="translate(1125 281)" fill="#fff" stroke="#707070" stroke-width="1"/>
    </clipPath>
  </defs>
  <g id="Grupo_1241744" data-name="Grupo 1241744" transform="translate(-1125 -281)">
    <g id="BACKGROUND" transform="translate(1161.594 281.035)">
      <rect id="Rectángulo_424295" data-name="Rectángulo 424295" width="224.375" height="314" transform="translate(0 -0.035)" fill="#d8ecea"/>
    </g>
    <g id="Enmascarar_grupo_1211489" data-name="Enmascarar grupo 1211489" clip-path="url(#clip-path)">
      <g id="OBJECTS" transform="translate(1098 234.566)">
        <g id="Grupo_1241743" data-name="Grupo 1241743" transform="translate(27.367 63.45)">
          <rect id="Rectángulo_424296" data-name="Rectángulo 424296" width="108.321" height="67.838" transform="translate(116.872 228.783)" fill="#4d748c"/>
          <g id="Grupo_1241678" data-name="Grupo 1241678" transform="translate(24.968 177.11)">
            <g id="Grupo_1241663" data-name="Grupo 1241663" transform="translate(10.367)">
              <path id="Trazado_1296619" data-name="Trazado 1296619" d="M80.8,341.592c-1.02-1.757-1.1-3.645-.185-4.217s2.489.387,3.51,2.144c.007.014.014.027.022.041.966,1.689,1.065,3.484.246,4.114-.028.021-.053.045-.083.063C83.392,344.309,81.821,343.349,80.8,341.592Z" transform="translate(-79.563 -328.294)" fill="#df7660"/>
              <g id="Grupo_1241662" data-name="Grupo 1241662" transform="translate(4.973 15.608)">
                <path id="Trazado_1296620" data-name="Trazado 1296620" d="M87.448,348.03c-.264-.849,6.949-2.611,6,2.721a.021.021,0,0,0,0,.007,4.906,4.906,0,0,0-.572,1.08,5.628,5.628,0,0,0-.364,2.711c.259,2.228-6.648,1.789-5.75-1.648.154-.587.28-1.086.387-1.522a14.127,14.127,0,0,0,.426-2.249A2.776,2.776,0,0,0,87.448,348.03Z" transform="translate(-86.685 -347.058)" fill="#d79081"/>
                <path id="Trazado_1296621" data-name="Trazado 1296621" d="M87.859,349.754h0a6.268,6.268,0,0,0,.076-.624,2.778,2.778,0,0,0-.131-1.1c-.264-.849,6.949-2.611,6,2.721C93.809,350.751,91.527,351.987,87.859,349.754Z" transform="translate(-87.041 -347.058)" fill="#af695d"/>
              </g>
              <path id="Trazado_1296622" data-name="Trazado 1296622" d="M95.789,335.805a13.488,13.488,0,0,0-.059,3.924c.315,1.74-1.426,4.643-3.042,5.576s-5.158-.633-6.493-1.852-2.406-4.468-2.554-5.955,1.74-7.548,6.034-7.108S96.3,332.085,95.789,335.805Z" transform="translate(-80.734 -326.101)" fill="#eab8b5"/>
              <path id="Trazado_1296623" data-name="Trazado 1296623" d="M92.423,332.01s-5.495,4.717-5.313,2.747c0,0-3.136,1.089-3.733-.881,0,0-.881,3.277-.325,4.545a10.4,10.4,0,0,1-1.252-5.228s-1.408-.686-2,1.191c0,0-1.268-3.929.546-6.469s7.136-5.65,11.525-2.488,6.877,5.184,5.011,7.361S94.3,334.81,94.3,334.81,92.112,333.773,92.423,332.01Z" transform="translate(-79.367 -324.09)" fill="#4c1813"/>
              <path id="Trazado_1296624" data-name="Trazado 1296624" d="M98.082,334.745a6.347,6.347,0,0,0-2.957-1.248c-.077-1.432-.787-2.558-1.659-2.558s-1.565,1.1-1.657,2.507c-1.675.039-6.04.279-9.135,1.657a.311.311,0,0,0,.126.6.322.322,0,0,0,.126-.027c2.953-1.316,7.244-1.557,8.883-1.6.1,1.4.8,2.49,1.655,2.49s1.542-1.062,1.653-2.435a5.709,5.709,0,0,1,2.564,1.093.311.311,0,0,0,.4-.476Z" transform="translate(-80.368 -326.285)" fill="#abdfd3"/>
            </g>
            <path id="Trazado_1296625" data-name="Trazado 1296625" d="M65.372,377.008c1.587-6.428,3.563-18.9,6.381-20.206V356.8l.143-.052c.016-.005.031-.015.047-.019l.019,0,7.664-2.76c-.111.438,1.4,2.522,3.555,2.64a2.572,2.572,0,0,0,2.715-1.558l3.809,1.738c1.279.548,2.469,2.832,3.067,5.762.83,4.064-.352,14.9-.352,14.9l7.215-5,2.076,1.481a.825.825,0,0,1,.2,1.138c-1.5,2.185-6.29,9-8.137,9.513a2.525,2.525,0,0,1-2.843-.635l.076,4.753c-7.748,4.259-19.756-.69-19.756-.69l.178-3.784h0a7.584,7.584,0,0,1-2.328.58C65.859,384.8,63.749,383.58,65.372,377.008Z" transform="translate(-64.336 -333.662)" fill="#e5fcff"/>
            <g id="Grupo_1241673" data-name="Grupo 1241673" transform="translate(0 20.063)">
              <g id="Grupo_1241665" data-name="Grupo 1241665" transform="translate(21.099 79.502)">
                <path id="Trazado_1296626" data-name="Trazado 1296626" d="M96.663,479.247l-.3-8.634,5.524.7.23,7.936S99.75,483.461,96.663,479.247Z" transform="translate(-95.547 -470.613)" fill="#d79081"/>
                <g id="Grupo_1241664" data-name="Grupo 1241664" transform="translate(0 8.634)">
                  <path id="Trazado_1296627" data-name="Trazado 1296627" d="M96.276,483.319l-1.116,4.59h15.135a5.68,5.68,0,0,0-4.218-3.1,11.125,11.125,0,0,1-4.342-1.489S99.75,485.676,96.276,483.319Z" transform="translate(-95.16 -483.319)" fill="#26597f"/>
                  <rect id="Rectángulo_424297" data-name="Rectángulo 424297" width="15.135" height="0.993" transform="translate(0 4.59)" fill="#22374c"/>
                </g>
              </g>
              <g id="Grupo_1241667" data-name="Grupo 1241667" transform="translate(5.306 79.502)">
                <path id="Trazado_1296628" data-name="Trazado 1296628" d="M73.422,479.247l-.3-8.634,5.524.7.23,7.936S76.51,483.461,73.422,479.247Z" transform="translate(-72.306 -470.613)" fill="#d79081"/>
                <g id="Grupo_1241666" data-name="Grupo 1241666" transform="translate(0 8.634)">
                  <path id="Trazado_1296629" data-name="Trazado 1296629" d="M73.035,483.319l-1.116,4.59H87.055a5.682,5.682,0,0,0-4.218-3.1,11.125,11.125,0,0,1-4.342-1.489S76.509,485.676,73.035,483.319Z" transform="translate(-71.919 -483.319)" fill="#26597f"/>
                  <rect id="Rectángulo_424298" data-name="Rectángulo 424298" width="15.136" height="0.993" transform="translate(0 4.59)" fill="#22374c"/>
                </g>
              </g>
              <path id="Trazado_1296630" data-name="Trazado 1296630" d="M65.217,433.456s21.7-1.052,27.018-6.981l-2.636-21-21.559,2.15Z" transform="translate(-64.465 -370.236)" fill="#93bcb7"/>
              <g id="Grupo_1241669" data-name="Grupo 1241669" transform="translate(5.307 34.041)">
                <path id="Trazado_1296631" data-name="Trazado 1296631" d="M73.055,403.711l19.756.69L96.4,453.513a1.789,1.789,0,0,1-1.784,1.92H88.8a1.789,1.789,0,0,1-1.785-1.668l-2.806-40.994L80.623,453.8a1.79,1.79,0,0,1-1.782,1.634h-5.13a1.79,1.79,0,0,1-1.789-1.83Z" transform="translate(-71.921 -403.711)" fill="#68bb9f"/>
                <g id="Grupo_1241668" data-name="Grupo 1241668" transform="translate(1.143 3.01)">
                  <path id="Trazado_1296632" data-name="Trazado 1296632" d="M91.047,408.143a.175.175,0,0,0-.2.14l-1.091,5.876a.175.175,0,0,0,.14.2.168.168,0,0,0,.032,0,.174.174,0,0,0,.171-.143l1.091-5.876A.175.175,0,0,0,91.047,408.143Z" transform="translate(-78.778 -408.14)" fill="#407f68"/>
                  <path id="Trazado_1296633" data-name="Trazado 1296633" d="M101.216,457.782H95.733L91.7,416.944a.175.175,0,0,0-.348.034l4.026,40.8h-.621a.175.175,0,1,0,0,.349h6.455a.175.175,0,0,0,0-.349Z" transform="translate(-79.292 -410.911)" fill="#407f68"/>
                  <path id="Trazado_1296634" data-name="Trazado 1296634" d="M79.535,466.054H74.359l.025-23.282a.175.175,0,0,0-.174-.175h0a.174.174,0,0,0-.175.175l-.025,23.282h-.233a.175.175,0,1,0,0,.349h5.757a.175.175,0,1,0,0-.349Z" transform="translate(-73.603 -419.183)" fill="#407f68"/>
                </g>
              </g>
              <g id="Grupo_1241672" data-name="Grupo 1241672">
                <g id="Grupo_1241670" data-name="Grupo 1241670">
                  <path id="Trazado_1296635" data-name="Trazado 1296635" d="M110.483,374.087l-2.076-1.481-5.029,3.218s-1-9.053-1.834-13.117c-.6-2.929-1.788-5.213-3.067-5.762l-3.809-1.738a2.455,2.455,0,0,1-1,1.169s2.808,17.433,5.047,32.99c1.256,8.724,2.333,16.859,2.636,21l.663-11.744L99.706,384.1a2.525,2.525,0,0,0,2.843.635c1.848-.512,6.64-7.328,8.137-9.513A.825.825,0,0,0,110.483,374.087Z" transform="translate(-73.584 -354.125)" fill="#b1e4df"/>
                  <path id="Trazado_1296636" data-name="Trazado 1296636" d="M82.853,369.738l.12.689-1.958.27c-.223-7.173-.675-15.244-.675-15.244h0c-.934-.674-1.483-1.567-1.415-1.837l-7.664,2.76-.019,0c-.016,0-.031.014-.047.02l-.143.052v.007c-2.819,1.3-4.794,13.778-6.381,20.2-1.623,6.572.487,7.789,3.732,7.789l-3.54,32.383L77.656,411.6s1.466-11.883,2.5-21.646c.533-5.043.951-9.52.99-11.5.007-.384.01-.832.008-1.307l2.536-1.453.181,1.4,1.839-1.928-1.091-5.1Z" transform="translate(-64.111 -353.615)" fill="#b1e4df"/>
                </g>
                <g id="Grupo_1241671" data-name="Grupo 1241671" transform="translate(3.311 6.133)">
                  <path id="Trazado_1296637" data-name="Trazado 1296637" d="M82.983,388.029a47.937,47.937,0,0,1-12.7,7.275.175.175,0,0,0,.06.338.184.184,0,0,0,.06-.01,47.506,47.506,0,0,0,11.307-6.185l-3.624,32.219a.174.174,0,0,0,.154.193h.02a.175.175,0,0,0,.173-.155l3.661-32.543c.7-.523,1.1-.855,1.114-.867a.175.175,0,1,0-.225-.267Z" transform="translate(-69.363 -370.764)" fill="#6ab79d"/>
                  <path id="Trazado_1296638" data-name="Trazado 1296638" d="M91.764,378.1a.175.175,0,0,0-.149.2l.716,5.267a.175.175,0,0,0,.173.151h.024a.175.175,0,0,0,.149-.2l-.716-5.267A.179.179,0,0,0,91.764,378.1Z" transform="translate(-76.235 -367.595)" fill="#6ab79d"/>
                  <path id="Trazado_1296639" data-name="Trazado 1296639" d="M72.58,376.745l10.047-2.989a.174.174,0,0,0,.118-.217.171.171,0,0,0-.217-.117l-8.4,2.5L75.5,362.835a.175.175,0,0,0-.156-.192.173.173,0,0,0-.192.156L73.765,376.03l-1.288.383a5.4,5.4,0,0,0-3.493,4.57.175.175,0,0,0,.159.189h.015a.174.174,0,0,0,.173-.16A4.954,4.954,0,0,1,72.58,376.745Z" transform="translate(-68.983 -362.641)" fill="#6ab79d"/>
                  <path id="Trazado_1296640" data-name="Trazado 1296640" d="M99.581,365.472a.175.175,0,0,0-.128.211c.858,3.512,1.918,21.537,1.929,21.719a.175.175,0,0,0,.174.164h.01a.175.175,0,0,0,.164-.185c-.043-.743-1.072-18.238-1.939-21.781A.174.174,0,0,0,99.581,365.472Z" transform="translate(-78.747 -363.547)" fill="#6ab79d"/>
                  <path id="Trazado_1296641" data-name="Trazado 1296641" d="M106.678,385.392a.174.174,0,0,0-.23-.088c-.114.051-2.8,1.3-2.977,5.639a.175.175,0,0,0,.167.181h.007a.175.175,0,0,0,.175-.168c.167-4.115,2.744-5.322,2.77-5.334A.175.175,0,0,0,106.678,385.392Z" transform="translate(-80.036 -369.899)" fill="#6ab79d"/>
                  <path id="Trazado_1296642" data-name="Trazado 1296642" d="M79.227,404.259a.171.171,0,0,0-.179-.047l-6.135,1.91a.173.173,0,0,0-.121.188c.367,3.007,1.04,4.469,2.059,4.469,1.935,0,4.165-5.689,4.412-6.338A.174.174,0,0,0,79.227,404.259Zm-4.377,6.17c-.542,0-1.271-.7-1.695-4.017l5.648-1.759C78.047,406.534,76.2,410.429,74.851,410.429Z" transform="translate(-70.203 -375.961)" fill="#6ab79d"/>
                  <path id="Trazado_1296643" data-name="Trazado 1296643" d="M80.8,366.683h3.983a.175.175,0,1,0,0-.349H80.8a.175.175,0,1,0,0,.349Z" transform="translate(-72.713 -363.825)" fill="#6ab79d"/>
                </g>
              </g>
            </g>
            <g id="Grupo_1241675" data-name="Grupo 1241675" transform="translate(13.246 18.939)">
              <g id="Grupo_1241674" data-name="Grupo 1241674">
                <path id="Trazado_1296644" data-name="Trazado 1296644" d="M85.462,351.96,83.6,353.191l3.105,4.966.4,8.88.613-10.622.071-1.24Z" transform="translate(-83.604 -351.96)" fill="#68bb9f"/>
                <path id="Trazado_1296645" data-name="Trazado 1296645" d="M94.893,366.115l-2.264-10.077,1.952-1.513.738.7-1.424,2.444Z" transform="translate(-86.496 -352.782)" fill="#68bb9f"/>
              </g>
            </g>
            <g id="Grupo_1241677" data-name="Grupo 1241677" transform="translate(21.103 27.653)">
              <g id="Grupo_1241676" data-name="Grupo 1241676" transform="translate(2.185)">
                <path id="Trazado_1296646" data-name="Trazado 1296646" d="M112.6,366.068H103.42a.99.99,0,0,0-.947.7l-4.048,13.274a.99.99,0,0,0,.947,1.278h8.616a.988.988,0,0,0,.934-.665l4.613-13.274A.989.989,0,0,0,112.6,366.068Z" transform="translate(-98.382 -365.195)" fill="#936c4c"/>
                <path id="Trazado_1296647" data-name="Trazado 1296647" d="M114.3,366.53h-5.583l.7-1.746H115Z" transform="translate(-101.695 -364.784)" fill="#ad9f95"/>
              </g>
              <path id="Trazado_1296648" data-name="Trazado 1296648" d="M117.671,372.583a9.884,9.884,0,0,1,.682,6.279c-.847,3.257-3.606,1.668-2.916.15a3.267,3.267,0,0,0,.041-2.686c-.568-1.752-.43-2.215-.151-1.738s.411.69.411.69-1.126-2.637-.527-1.977.984,1.126.984,1.126-1.74-2.607-1.159-2.485,1.767,1.6,1.767,1.6-1.3-1.734-.873-1.693S117.513,373,117.513,373Z" transform="translate(-101.497 -367.048)" fill="#ecc1ba"/>
              <path id="Trazado_1296649" data-name="Trazado 1296649" d="M104.265,373.061c.775-1.332-2.745,1.459-3.311,1.912a9.068,9.068,0,0,0,1.939-2.293c.834-1.415-2.115,1.244-3.389,2.438h0l.334-1.1a2,2,0,0,0-1.615,1.661,14.992,14.992,0,0,1-3.056,1.143l.8,3.735a.893.893,0,0,0,.283-.037c1.054-.328,2.329-.744,2.329-.744v-.014c1.317-.12,4.27-2.325,4.933-3.2.794-1.054-1.541.067-1.541.067a5.553,5.553,0,0,0,1.878-1.689c.4-.849-2.292.819-2.292.819A10.281,10.281,0,0,0,104.265,373.061Z" transform="translate(-95.167 -367.185)" fill="#ecc1ba"/>
            </g>
          </g>
          <rect id="Rectángulo_424299" data-name="Rectángulo 424299" width="110.866" height="6.224" transform="translate(0 290.396)" fill="#81aac9"/>
          <rect id="Rectángulo_424300" data-name="Rectángulo 424300" width="92.719" height="38.616" transform="translate(201.914 258.019)" fill="#81aac9"/>
          <g id="Grupo_1241715" data-name="Grupo 1241715" transform="translate(55.326)">
            <path id="Trazado_1296650" data-name="Trazado 1296650" d="M149.121,317.011s-.839-1.319-4.138-2.385c-.643-.208-8.506-.016-10.594-.288s-5.468-2.3-6.636-.764,2.7,3.5,5.714,5.038,4.915,5.345,8.908,5.775S149.121,317.011,149.121,317.011Z" transform="translate(-114.797 -143.427)" fill="#c1695d"/>
            <g id="Grupo_1241696" data-name="Grupo 1241696" transform="translate(0.865 60.11)">
              <g id="Grupo_1241681" data-name="Grupo 1241681" transform="translate(24.183)">
                <g id="Grupo_1241679" data-name="Grupo 1241679" transform="translate(0.469 20.076)">
                  <path id="Trazado_1296651" data-name="Trazado 1296651" d="M159.027,184.856v-2.53l-4.533-.872s-.376,1.169-6.779,7.256,11.6,6.264,11.6,6.264Z" transform="translate(-146.338 -181.454)" fill="#d79081"/>
                  <path id="Trazado_1296652" data-name="Trazado 1296652" d="M157.682,181.454a8.032,8.032,0,0,1-1.4,1.816,20.081,20.081,0,0,0,5.931.291v-1.235Z" transform="translate(-149.526 -181.454)" fill="#af695d"/>
                </g>
                <g id="Grupo_1241680" data-name="Grupo 1241680">
                  <path id="Trazado_1296653" data-name="Trazado 1296653" d="M168.546,169.025a7.449,7.449,0,1,1-8.427-6.321A7.449,7.449,0,0,1,168.546,169.025Z" transform="translate(-148.236 -155.345)" fill="#f2c3ba"/>
                  <path id="Trazado_1296654" data-name="Trazado 1296654" d="M161.772,172.828c.14,2.043-.658,3.762-1.782,3.839s-2.149-1.517-2.289-3.56.658-3.762,1.782-3.839S161.633,170.785,161.772,172.828Z" transform="translate(-149.506 -157.472)" fill="#ea9495"/>
                  <path id="Trazado_1296655" data-name="Trazado 1296655" d="M166.911,168.675a3.934,3.934,0,0,0-1-3.429,17.45,17.45,0,0,1-5.522,1.515l1.015-.712a11.845,11.845,0,0,1-3.313.027,4.177,4.177,0,0,1-.356,3.2s.33-3.938-.952-5.041-3.383,3.6-2.521,5.181.175,2.8,1,3.638-2.239-.5-3.078-1.242a8.006,8.006,0,0,1-2.521-4.329c-.659-2.7,1.514-6.732,1.514-6.732s-4.782,1.8-5.475-.813,6.352-9.487,8.01-7.747.5,4.809.5,4.809,6.569-3.553,10.647.872S168.389,167.188,166.911,168.675Z" transform="translate(-145.648 -151.91)" fill="#4c1813"/>
                </g>
              </g>
              <g id="Grupo_1241686" data-name="Grupo 1241686" transform="translate(51.659 17.94)">
                <g id="Grupo_1241682" data-name="Grupo 1241682" transform="translate(0 17.043)">
                  <path id="Trazado_1296656" data-name="Trazado 1296656" d="M189.322,208.777c.976.192,2.608.245,3.207-.445a3.854,3.854,0,0,0,.751-1.159s.933-.685.538-1.249c0,0,.459-.8.015-1.093,0,0-.34-1.085-1.091-1.34a5.267,5.267,0,0,0-3.166.417c-.653.4-3.282,1.581-3.282,1.581a3.193,3.193,0,0,0,.35,2.942Z" transform="translate(-186.081 -203.392)" fill="#ecc1ba"/>
                  <path id="Trazado_1296657" data-name="Trazado 1296657" d="M191.939,206.354a2.314,2.314,0,0,0,1.247.355,2.918,2.918,0,0,0,1.676-.575.047.047,0,1,0-.054-.077,2.451,2.451,0,0,1-2.819.219c.037-.062.073-.126.107-.2,0,0,.169-.378.987-.454a2.523,2.523,0,0,0,1.392-.546.047.047,0,0,0-.063-.069,1.684,1.684,0,0,1-.194.14.534.534,0,0,0-.166-.4,2.013,2.013,0,0,0-1.294-.322,1.94,1.94,0,0,1,.928-.41.047.047,0,0,0,.016-.092c-.334-.059-1.019.437-1.108.5a7.613,7.613,0,0,0-.958.088.046.046,0,0,0-.038.054.047.047,0,0,0,.054.039c.018,0,1.809-.3,2.336.207a.451.451,0,0,1,.137.389,2.611,2.611,0,0,1-1.049.326c-.882.082-1.059.494-1.064.508a1.371,1.371,0,0,1-.934.831,2.471,2.471,0,0,1-1.739-.618.047.047,0,0,0-.061.071,2.773,2.773,0,0,0,1.554.665,1.313,1.313,0,0,0,.218-.019,1.606,1.606,0,0,0,.381.366.76.76,0,0,0-.184.569.882.882,0,0,0,.516.607,1.958,1.958,0,0,0,.953.258,1.624,1.624,0,0,0,.858-.231.047.047,0,0,0,.012-.065.047.047,0,0,0-.065-.012,1.67,1.67,0,0,1-1.712-.033.8.8,0,0,1-.469-.538.683.683,0,0,1,.17-.5,2.278,2.278,0,0,0,1.248.337,4.212,4.212,0,0,0,1.559-.338.047.047,0,0,0,.026-.06.046.046,0,0,0-.06-.026c-2.055.82-2.946-.113-3.131-.351A1.346,1.346,0,0,0,191.939,206.354Z" transform="translate(-187.1 -203.562)" fill="#af6c66"/>
                </g>
                <g id="Grupo_1241685" data-name="Grupo 1241685" transform="translate(3.536)">
                  <g id="Grupo_1241684" data-name="Grupo 1241684">
                    <g id="Grupo_1241683" data-name="Grupo 1241683">
                      <path id="Trazado_1296658" data-name="Trazado 1296658" d="M192.606,210.451h0v0Z" transform="translate(-191.708 -188.611)" fill="#4e7498"/>
                      <path id="Trazado_1296659" data-name="Trazado 1296659" d="M192.183,210.452l-.872,3.137a.7.7,0,0,0,.485.86.689.689,0,0,0,.188.026.7.7,0,0,0,.672-.511l.863-3.1A1.391,1.391,0,0,1,192.183,210.452Z" transform="translate(-191.285 -188.612)" fill="#4e7498"/>
                      <path id="Trazado_1296660" data-name="Trazado 1296660" d="M200.09,178.374c-1.795-.534-4.247,2.381-5.476,6.511-1.074,3.609-.86,6.951.409,8.094l-.9,3.241a1.822,1.822,0,0,1,1.371.277l.87-3.129c1.683-.279,3.68-2.952,4.751-6.548C202.343,182.691,201.885,178.909,200.09,178.374Z" transform="translate(-192.131 -178.311)" fill="#4e7498"/>
                    </g>
                  </g>
                  <path id="Trazado_1296661" data-name="Trazado 1296661" d="M200.8,186.9c-1.076,3.6-3.112,6.17-4.547,5.741s-1.725-3.7-.649-7.295,3.112-6.17,4.547-5.741S201.877,183.3,200.8,186.9Z" transform="translate(-192.461 -178.71)" fill="#d7ebec"/>
                </g>
              </g>
              <path id="Trazado_1296662" data-name="Trazado 1296662" d="M178.046,222.725s-.143-1.912,2.771-3.682,1.928-.559,1.271.248-1.154,2.049.7,1.716,7.163-1.185,5.3-.269a10.678,10.678,0,0,1-3.573,1.036s6.5-.649,4.7.249a12.345,12.345,0,0,1-4.5.926s4.958-.26,4,.328a19.6,19.6,0,0,1-4.036,1.193s3.081.34,1.591.876S178.179,226.731,178.046,222.725Z" transform="translate(-131.847 -173.132)" fill="#ecc1ba"/>
              <g id="Grupo_1241688" data-name="Grupo 1241688" transform="translate(10.691 96.574)">
                <path id="Trazado_1296663" data-name="Trazado 1296663" d="M127.435,302.483l1.143-8.452,5.308.7-.993,7.751S130.522,306.7,127.435,302.483Z" transform="translate(-126.319 -294.031)" fill="#d79081"/>
                <g id="Grupo_1241687" data-name="Grupo 1241687" transform="translate(0 8.452)">
                  <path id="Trazado_1296664" data-name="Trazado 1296664" d="M126.908,306.469l-1.116,4.59h15.135a5.682,5.682,0,0,0-4.218-3.1,11.125,11.125,0,0,1-4.342-1.489S130.382,308.826,126.908,306.469Z" transform="translate(-125.792 -306.469)" fill="#26597f"/>
                  <rect id="Rectángulo_424301" data-name="Rectángulo 424301" width="15.135" height="0.993" transform="translate(0 4.59)" fill="#22374c"/>
                </g>
              </g>
              <g id="Grupo_1241690" data-name="Grupo 1241690" transform="translate(16.934 101.033)">
                <path id="Trazado_1296665" data-name="Trazado 1296665" d="M136.483,309.226l-.3-8.634,5.524.7.23,7.936S139.571,313.44,136.483,309.226Z" transform="translate(-135.367 -300.592)" fill="#d79081"/>
                <g id="Grupo_1241689" data-name="Grupo 1241689" transform="translate(0 8.634)">
                  <path id="Trazado_1296666" data-name="Trazado 1296666" d="M136.1,313.3l-1.116,4.59h15.136a5.682,5.682,0,0,0-4.218-3.1,11.125,11.125,0,0,1-4.342-1.489S139.57,315.655,136.1,313.3Z" transform="translate(-134.98 -313.298)" fill="#26597f"/>
                  <rect id="Rectángulo_424302" data-name="Rectángulo 424302" width="15.136" height="0.993" transform="translate(0 4.59)" fill="#22374c"/>
                </g>
              </g>
              <g id="Grupo_1241692" data-name="Grupo 1241692" transform="translate(11.171 59.301)">
                <path id="Trazado_1296667" data-name="Trazado 1296667" d="M141.177,239.842l.853,6.078,1.784,16.127-3.8,24.455h-7.832V282.49l-5.684-.879,2.776-28.288-.661-14.145Z" transform="translate(-126.498 -239.178)" fill="#68bb9f"/>
                <g id="Grupo_1241691" data-name="Grupo 1241691" transform="translate(1.048 4.894)">
                  <path id="Trazado_1296668" data-name="Trazado 1296668" d="M132.676,257.192a.175.175,0,0,0-.175.175v28.577l-4.042-.719,2.4-23.131a.175.175,0,1,0-.347-.035l-2.474,23.814a.175.175,0,0,0,.156.192h.018a.174.174,0,0,0,.173-.157l.035-.335,4.078.725v1.965a.175.175,0,0,0,.349,0v-30.9A.175.175,0,0,0,132.676,257.192Z" transform="translate(-128.041 -249.845)" fill="#407f68"/>
                  <path id="Trazado_1296669" data-name="Trazado 1296669" d="M144.414,264.7l-2.422-18.164a.174.174,0,1,0-.346.046l2.419,18.14-3.27,22.767h-4.7a.175.175,0,1,0,0,.349h5.764a.175.175,0,1,0,0-.349h-.709l3.266-22.742A.223.223,0,0,0,144.414,264.7Z" transform="translate(-130.565 -246.38)" fill="#407f68"/>
                </g>
              </g>
              <path id="Trazado_1296670" data-name="Trazado 1296670" d="M159.647,185.834s-1.75,11.523-5.935-1.757L148.165,222.5l.809,5.758,10.113-26.967Z" transform="translate(-122.271 -162.219)" fill="#e5fcff"/>
              <g id="Grupo_1241695" data-name="Grupo 1241695" transform="translate(0 21.858)">
                <path id="Trazado_1296671" data-name="Trazado 1296671" d="M128.191,197.059a1.345,1.345,0,0,0-.114.143c-.429.728-3.788,6.457-7.369,13.247-3.834,7.27-10.649,23.629-10.649,23.629,1.784,2.049,15.07,11.633,15.07,11.633,1.222-4.278,13.236-28.555,15.041-32.195a.666.666,0,0,1,.729-.357h0a.67.67,0,0,1,.506.864l-4.644,14.238,1.784,16.127,6.818-30.341,11.37,1.918,2.7-8.59-12.161-1.815.528-2.349,4.032,2.644s12.161-1.454,11.963-1.52-1.216-7.385-1.216-7.385l-8.061.959-5.131-4.348L147.4,185.7l-1.712,15.193h0L141.5,184.077l-2.125.878S129.076,195.937,128.191,197.059Z" transform="translate(-110.059 -184.077)" fill="#b1e4df"/>
                <g id="Grupo_1241693" data-name="Grupo 1241693" transform="translate(1.664 10.052)">
                  <path id="Trazado_1296672" data-name="Trazado 1296672" d="M146.179,218.973l-4.793-.817c-.456-1.168-5.074-13.137-4.8-17.989a.174.174,0,0,0-.164-.184.169.169,0,0,0-.184.164c-.215,3.837,2.465,11.763,3.938,15.787l-14.938,32.047-12.447-9.407a.174.174,0,1,0-.211.278l12.619,9.536a.175.175,0,0,0,.105.035.15.15,0,0,0,.042-.005.171.171,0,0,0,.116-.1L140.342,216.4c.416,1.123.706,1.861.754,1.981a.174.174,0,0,0,.133.107l4.891.834a.147.147,0,0,0,.03,0,.175.175,0,0,0,.03-.347Z" transform="translate(-112.508 -199.227)" fill="#6ab79d"/>
                  <path id="Trazado_1296673" data-name="Trazado 1296673" d="M162.354,208.573a.174.174,0,0,0-.109.221l1.583,4.67a.174.174,0,0,0,.165.118.16.16,0,0,0,.056-.01.174.174,0,0,0,.109-.221l-1.583-4.67A.175.175,0,0,0,162.354,208.573Z" transform="translate(-128.445 -201.977)" fill="#6ab79d"/>
                  <path id="Trazado_1296674" data-name="Trazado 1296674" d="M166,198.871a.174.174,0,0,0-.159.188,88.649,88.649,0,0,1-.5,8.875.175.175,0,0,0,.156.191h.018a.175.175,0,0,0,.173-.157,86.313,86.313,0,0,0,.5-8.939A.179.179,0,0,0,166,198.871Z" transform="translate(-129.44 -198.87)" fill="#6ab79d"/>
                  <path id="Trazado_1296675" data-name="Trazado 1296675" d="M174.091,204.213c-.092.073-2.256,1.8-2.614,3.414a.175.175,0,0,0,.133.208.186.186,0,0,0,.038,0,.175.175,0,0,0,.171-.137c.331-1.491,2.469-3.2,2.49-3.216a.174.174,0,1,0-.217-.273Z" transform="translate(-131.405 -200.57)" fill="#6ab79d"/>
                  <path id="Trazado_1296676" data-name="Trazado 1296676" d="M186.172,203.812a.178.178,0,0,0-.2-.145.175.175,0,0,0-.145.2l.889,5.663a.174.174,0,0,0,.172.147l.027,0a.174.174,0,0,0,.145-.2Z" transform="translate(-136.005 -200.407)" fill="#6ab79d"/>
                  <path id="Trazado_1296677" data-name="Trazado 1296677" d="M179.586,219.332a.174.174,0,0,0-.219.112l-2.152,6.692a.174.174,0,0,0,.112.219.184.184,0,0,0,.054.008.173.173,0,0,0,.166-.121l2.152-6.692A.173.173,0,0,0,179.586,219.332Z" transform="translate(-133.242 -205.425)" fill="#6ab79d"/>
                  <path id="Trazado_1296678" data-name="Trazado 1296678" d="M130.746,240.507a2.56,2.56,0,0,0,.817.135c4,0,7.846-9.316,8.007-9.713a.173.173,0,0,0-.1-.228l-7.211-2.761a.177.177,0,0,0-.215.079c-.17.311-4.149,7.645-2.835,11.013A2.422,2.422,0,0,0,130.746,240.507Zm1.533-12.187,6.9,2.641c-.539,1.262-4.123,9.331-7.615,9.331a2.2,2.2,0,0,1-.705-.116,2.057,2.057,0,0,1-1.323-1.272C128.373,235.926,131.739,229.343,132.279,228.319Z" transform="translate(-117.775 -208.183)" fill="#6ab79d"/>
                </g>
                <g id="Grupo_1241694" data-name="Grupo 1241694" transform="translate(30.101)">
                  <path id="Trazado_1296679" data-name="Trazado 1296679" d="M155.7,184.077h-1.339l1.039,7.944,2-1.11,1.076,4.321.2-5.025Z" transform="translate(-154.357 -184.077)" fill="#68bb9f"/>
                  <path id="Trazado_1296680" data-name="Trazado 1296680" d="M164.4,186.461l-1.308,4.8.434.436s-.17,4.039-.16,3.954.381-3.78.381-3.78l.785.567.534-5.016Z" transform="translate(-157.155 -184.841)" fill="#68bb9f"/>
                </g>
              </g>
            </g>
            <g id="Grupo_1241714" data-name="Grupo 1241714">
              <g id="Grupo_1241705" data-name="Grupo 1241705" transform="translate(66.608)">
                <path id="Trazado_1296681" data-name="Trazado 1296681" d="M285.356,143.964c3.319,1.723,8.59-1.848,11.773-7.978s3.071-12.5-.248-14.22c-2.558-1.328-6.271.5-9.3,4.2a22.021,22.021,0,0,0-2.475,3.775c-.024.048-.045.094-.069.141-2.828,5.537-2.965,11.224-.486,13.493a3.8,3.8,0,0,0,.5.391A3.451,3.451,0,0,0,285.356,143.964Z" transform="translate(-231.162 -82)" fill="#de9595"/>
                <g id="Grupo_1241698" data-name="Grupo 1241698" transform="translate(27.824 62.45)">
                  <path id="Trazado_1296682" data-name="Trazado 1296682" d="M273.475,179.416a6.941,6.941,0,0,0-.177-5.172c-.789-1.969-1.447-3.644-2.007-5.11a49.294,49.294,0,0,1-2.461-7.615,9.681,9.681,0,0,1-.026-3.873c.546-3.059-25.245-6.014-19.638,12.069,0,.007,0,.014.006.022a17.1,17.1,0,0,1,2.456,3.495,20.644,20.644,0,0,1,1.023,2.179c-.057.164-6.946,20.047-4.284,28.5,2.673,8.491,13.693,10.467,22.256,2.094C275.815,200.929,274.955,188.452,273.475,179.416Z" transform="translate(-247.755 -155.353)" fill="#d79081"/>
                  <path id="Trazado_1296683" data-name="Trazado 1296683" d="M269.091,157.647c.546-3.059-25.245-6.014-19.637,12.069,0,.007,0,.014.006.022s6.6,3.394,21.452-2.387a39.7,39.7,0,0,1-1.794-5.831A9.67,9.67,0,0,1,269.091,157.647Z" transform="translate(-248.044 -155.353)" fill="#c1695d"/>
                  <g id="Grupo_1241697" data-name="Grupo 1241697" transform="translate(4.544 13.434)">
                    <path id="Trazado_1296684" data-name="Trazado 1296684" d="M255.047,184.462a.349.349,0,1,0-.511.475l5.283,5.679a.348.348,0,0,0,.255.111.349.349,0,0,0,.255-.586Z" transform="translate(-254.442 -178.08)" fill="#c1695d"/>
                    <path id="Trazado_1296685" data-name="Trazado 1296685" d="M279.169,175.176a.35.35,0,0,0-.481.109L271.813,186.2a.349.349,0,0,0,.109.481.349.349,0,0,0,.481-.109l6.875-10.912A.347.347,0,0,0,279.169,175.176Z" transform="translate(-259.992 -175.123)" fill="#c1695d"/>
                  </g>
                </g>
                <g id="Grupo_1241699" data-name="Grupo 1241699" transform="translate(12.727 23.054)">
                  <path id="Trazado_1296686" data-name="Trazado 1296686" d="M226.347,119.3s2.253,7.413,1.922,13.585,6.979,15.481,12.991,18.011,17.612-4.454,21.711-9.267,6.472-16.553,6.253-21.775c-.381-9.065-9.339-25.42-24.042-22.016S222.944,106.618,226.347,119.3Z" transform="translate(-225.538 -97.377)" fill="#eab8b5"/>
                  <path id="Trazado_1296687" data-name="Trazado 1296687" d="M262.971,141.628c4.1-4.812,6.472-16.553,6.253-21.775-.381-9.065-9.339-25.42-24.042-22.016s-22.238,8.783-18.836,21.461c0,0,.295.972.655,2.5h0a23.174,23.174,0,0,0,7.542-9.348,13.806,13.806,0,0,0,15.283,9.362s-4.377-3.14-4.668-5.641a7.246,7.246,0,0,0,7.5.291s3.2,8.374,9.508,6.92a4.759,4.759,0,0,1-1.8-2.326s2.12,2.326,5.9.639c0,0,2.6,5.788-1.519,6.006l2.329.644s-1.807,10.432-5.638,14.859A19.243,19.243,0,0,0,262.971,141.628Z" transform="translate(-225.538 -97.377)" fill="#d18282"/>
                </g>
                <g id="Grupo_1241704" data-name="Grupo 1241704" transform="translate(13.799 40.224)">
                  <g id="Grupo_1241700" data-name="Grupo 1241700" transform="translate(8.527 16.218)">
                    <path id="Trazado_1296688" data-name="Trazado 1296688" d="M239.818,148.761s3.876-3.767,5.717-1.553l.557,1.657a2.622,2.622,0,0,1-2.312,2.141c-2.17.457-3.645,1.122-3.9-.744Z" transform="translate(-239.713 -146.511)" fill="#d38d7a"/>
                    <path id="Trazado_1296689" data-name="Trazado 1296689" d="M242.171,148.2l.484-.133,2.3-.631.152-.041a.4.4,0,0,1,.5.271l.432,1.576a.4.4,0,0,1-.289.487l-.152.041s-.79.363-.767.921c0,0,.094.267-.833.521l-.444.122-1.783.368a1.016,1.016,0,0,1-1.257-.538l-.152.041h0a.4.4,0,0,1-.5-.272l-.2-1.668s.053-.4.617-.549Z" transform="translate(-239.664 -146.788)" fill="#ea344f"/>
                  </g>
                  <g id="Grupo_1241701" data-name="Grupo 1241701">
                    <path id="Trazado_1296690" data-name="Trazado 1296690" d="M249.788,127.687s7.511-3.856,11.734-1.812c1.81.876,1.09-.679-.6-2.049-3.363-2.727-8.082.2-10-.372-.566-.167-3.306,1.615-3.2,3.046S248.027,128.531,249.788,127.687Z" transform="translate(-233.716 -122.644)" fill="#8e2119"/>
                    <path id="Trazado_1296691" data-name="Trazado 1296691" d="M232.873,132.122c-.629-1.012-3.344-.875-3.644-.487a4.568,4.568,0,0,1-1.723,1.048h0c-.892,1.617-.034,2.147.343,2.293a1.027,1.027,0,0,0,.158.05,22.812,22.812,0,0,1,4.049-1.092C233.654,133.644,233.5,133.135,232.873,132.122Z" transform="translate(-227.116 -125.432)" fill="#8e2119"/>
                  </g>
                  <g id="Grupo_1241702" data-name="Grupo 1241702" transform="translate(3.528 17.13)">
                    <path id="Trazado_1296692" data-name="Trazado 1296692" d="M272.1,156.978c-2.083,3.542-5.529,5.381-7.695,4.107s-2.234-5.179-.152-8.721,5.529-5.381,7.695-4.107S274.179,153.436,272.1,156.978Z" transform="translate(-242.057 -147.853)" fill="#df7660"/>
                    <path id="Trazado_1296693" data-name="Trazado 1296693" d="M237.143,162.026a8.5,8.5,0,0,0-4.836-2.372,29.092,29.092,0,0,0,7.414,8.929C240.4,166.826,239.4,164.12,237.143,162.026Z" transform="translate(-232.307 -151.635)" fill="#df7660"/>
                  </g>
                  <g id="Grupo_1241703" data-name="Grupo 1241703" transform="translate(3.303 7.696)">
                    <path id="Trazado_1296694" data-name="Trazado 1296694" d="M258.856,139.08l-2.329.35-.625-4.165a1.11,1.11,0,0,1,.933-1.263l.133-.02a1.11,1.11,0,0,1,1.263.933Z" transform="translate(-239.64 -133.97)" fill="#17072b"/>
                    <path id="Trazado_1296695" data-name="Trazado 1296695" d="M235.073,145.269l-2.316.425L232,141.552a1.11,1.11,0,0,1,.892-1.292l.133-.024a1.11,1.11,0,0,1,1.292.892Z" transform="translate(-231.977 -135.972)" fill="#17072b"/>
                  </g>
                  <path id="Trazado_1296696" data-name="Trazado 1296696" d="M244.434,163.729s3.6,3.3,7.062-1.813C251.5,161.916,247.834,163.95,244.434,163.729Z" transform="translate(-232.666 -135.23)" fill="#d83a21"/>
                </g>
                <path id="Trazado_1296697" data-name="Trazado 1296697" d="M219.89,181.264c3.315-8.025,5.575-25.82,5.575-25.82l14.061-9.491q-.241-.6-.5-1.139l0-.007c-.171-.364-.346-.707-.521-1.028q-.229-.42-.457-.792c-.032-.053-.063-.1-.094-.148-.118-.191-.236-.38-.35-.551l-.049-.071c-.126-.188-.249-.367-.366-.528-.018-.026-.035-.046-.053-.071-.111-.153-.221-.3-.32-.427l-.019-.024c-.107-.138-.208-.262-.3-.369l-.01-.011c-.089-.107-.169-.2-.233-.272l0-.005c-.064-.072-.116-.129-.151-.166l-.03-.031-.023-.024a6.22,6.22,0,0,1-.794-.267c-6.012-2.531-13.321-11.839-12.991-18.011A42.149,42.149,0,0,0,221,110.926h0s4.636-3.474,6.948-11.586c0,0,3.972,10.555,15.877,11.6a11.967,11.967,0,0,1-7.2-9.508s1.464,6.414,10.24,2.815c0,0,3.891,8,9.3,8.264a6.263,6.263,0,0,1-3.489-3.838s3.782,2.827,7.658,1.065l0,0s2.259,2.713,1.619,4.922-3.555,3.14-4.452.872c0,0,.872,3.723,4.93,1.309,3.7-2.2,2.289-9.489,2.009-10.768,2.762-2.783,5.863-4.016,8.089-2.86,3.319,1.723,3.43,8.09.248,14.22s-8.454,9.7-11.773,7.978c-.107-.056-.2-.129-.3-.194a3.86,3.86,0,0,1-.5-.391,20.775,20.775,0,0,1-3.232,5.926c-.361.424-.793.866-1.261,1.316.016.08.037.169.054.251.028.134.054.264.087.406.016.068.037.144.054.213.041.166.081.332.129.51.008.031.019.065.027.1.062.225.126.456.2.7.027.09.06.192.089.285.06.194.118.386.186.595s.135.406.2.612c.041.123.077.236.122.364.352,1.025.784,2.2,1.309,3.579h0s24.353,6.517,30.284,11.576c4.833,4.122,6.191,11.682,8.039,24.452a45.468,45.468,0,0,0-1.159-21.329,28.048,28.048,0,0,1,5.234,20.237s5.059-14.871-4.361-33.343-19.888-35.045-26.518-51.793c0,0,6.629,8.525,11.863-2.978,0,0,11.427-3.565,3.664-12.986,0,0,4.013,1.57,4.71,7.414,0,0,1.309-13.7-15.614-16.487s-21.982.873-22.68,3.576,4.013,5.845,4.013,5.845-16.835-1.744-27.7,5.06a36.124,36.124,0,0,0-16.792,23.855c-1.832,8.071-.175,20.759,1.744,24.839,0,0-.262-8.918,1.57-12.843a62.676,62.676,0,0,1-.175,26.5c-3.315,13.542-9.944,28.2-6.542,41.281a24.122,24.122,0,0,0,10.056,13.663C217.647,190.767,218.2,185.357,219.89,181.264Z" transform="translate(-206.809 -63.45)" fill="#281a19"/>
                <path id="Trazado_1296698" data-name="Trazado 1296698" d="M278.674,78.675S286.3,80.1,292.718,94.289C292.718,94.289,291.747,76.245,278.674,78.675Z" transform="translate(-229.84 -68.257)" fill="#ff4401"/>
              </g>
              <g id="Grupo_1241707" data-name="Grupo 1241707" transform="translate(20.337 186.61)">
                <path id="Trazado_1296699" data-name="Trazado 1296699" d="M280.1,354.353c-3.568-5.815-8.628-13.887-8.628-13.887l-60.851-2.4s3.264,8.839,2.1,10-55.594,14.19-65.363,16.748-9.072,15.585-8.141,24.889,9.072,58.386,9.072,58.386h96.3L252.5,423.9s18.212-22.413,27.449-31.994C292.453,378.936,283.669,360.168,280.1,354.353ZM195.741,427.16c-7.677-16.05-4.5-28.379-4.5-28.379l31.251-9.985Z" transform="translate(-138.715 -338.07)" fill="#ff4401"/>
                <g id="Grupo_1241706" data-name="Grupo 1241706" transform="translate(5.037 9.638)">
                  <path id="Trazado_1296700" data-name="Trazado 1296700" d="M277.13,370.635c-8.456-5.5-31.648,2.026-35.828,3.451a20.456,20.456,0,0,0,.629-6.376.34.34,0,0,0-.375-.321.349.349,0,0,0-.321.375c.352,4.651-1.49,9.826-3.884,14.434l-3.059-4.472A47.111,47.111,0,0,0,236,359.9a.357.357,0,0,0-.385-.309.348.348,0,0,0-.309.385,46.168,46.168,0,0,1-1.729,17.7.349.349,0,0,0,.042.309l3.365,4.919L197.608,405.5a.355.355,0,0,0-.082-.1c-.064-.052-6.43-5.331-11.456-15.655a.349.349,0,0,0-.627.305,54.364,54.364,0,0,0,10.126,14.476c-6.634-2.957-29.022-13.307-37.329-21.888a.349.349,0,0,0-.5.485c9.85,10.174,39.136,22.742,39.431,22.868a.349.349,0,0,0,.436-.141.344.344,0,0,0,.03-.282l30.923-9.535a.347.347,0,0,0,.26-.117,71.683,71.683,0,0,0,5.054-6.554l0,0v0A51.048,51.048,0,0,0,241.1,374.9c2.314-.8,27.2-9.179,35.654-3.677a.348.348,0,1,0,.379-.584Z" transform="translate(-149.817 -354.605)" fill="#2c1815"/>
                  <path id="Trazado_1296701" data-name="Trazado 1296701" d="M298.97,442.652c-.366.082-36.886,8.236-53.7,15.609a.349.349,0,0,0,.141.669.354.354,0,0,0,.14-.029c16.755-7.345,53.209-15.486,53.575-15.566a.349.349,0,0,0-.152-.682Z" transform="translate(-177.833 -381.222)" fill="#2c1815"/>
                  <path id="Trazado_1296702" data-name="Trazado 1296702" d="M300.8,448.551,263.313,483.2a.349.349,0,0,0,.474.512l37.488-34.651a.349.349,0,0,0-.474-.512Z" transform="translate(-183.647 -383.085)" fill="#2c1815"/>
                  <path id="Trazado_1296703" data-name="Trazado 1296703" d="M214.2,468.753c-.01.009-.123.113-.311.3-9.687,3.606-16.843,20.9-16.843,20.9h7.458a.349.349,0,0,0,.7,0c0-12.024,9.371-20.59,9.465-20.676a.349.349,0,0,0-.467-.519Z" transform="translate(-162.447 -389.561)" fill="#2c1815"/>
                  <path id="Trazado_1296704" data-name="Trazado 1296704" d="M339.64,363.4a.351.351,0,0,0-.444-.215c-13.5,4.695-22.561-10.6-22.65-10.753a.349.349,0,0,0-.6.351c.08.139,7.1,12,18.106,12a16.284,16.284,0,0,0,5.377-.937A.35.35,0,0,0,339.64,363.4Z" transform="translate(-200.535 -352.254)" fill="#2c1815"/>
                  <path id="Trazado_1296705" data-name="Trazado 1296705" d="M146.421,403.2a.35.35,0,0,0-.289.4l10,62.294a.349.349,0,0,0,.345.294.4.4,0,0,0,.056,0,.349.349,0,0,0,.289-.4l-10-62.294A.353.353,0,0,0,146.421,403.2Z" transform="translate(-146.127 -368.58)" fill="#2c1815"/>
                </g>
                <path id="Trazado_1296706" data-name="Trazado 1296706" d="M244.533,338.07s3.264,8.839,2.1,10c0,0,24.506,3.878,63.249-.4-2.427-3.9-4.5-7.208-4.5-7.208Z" transform="translate(-172.628 -338.07)" fill="#292422"/>
              </g>
              <g id="Grupo_1241709" data-name="Grupo 1241709" transform="translate(0 140.422)">
                <path id="Trazado_1296707" data-name="Trazado 1296707" d="M204.526,299.654c-1.046-3.489-16.05-29.556-16.05-29.556l2.63,30.3s-15.762,3.329-23.1,3.648c0,0-18.492.2-22.732-.656s-9.031,2.273-9.031,2.273l-3.44-2.732s-1.9-5.071-2.765-6.852-2.765-2.7-2.642-1.29.921,5.038,1.229,7.424a10.885,10.885,0,0,0,2.212,4.679l-3.133-2.58-1.229-5.959c.43-1.721-.491-5.775-1.106-5.959s-3.133,6.513-3.133,6.513l.491,6.82-3.5-4.485s-.676-3.379-1.106-4.854-1.659-2.212-2.273-2.028-.43,6.082-.246,6.513,2.4,6.512,2.4,6.512l-3.2-.737c-2.458-3.317-4.915-3.072-5.714-3.072s.123,1.536,1.352,3.072,3.625,3.994,5.468,4.117,9.523,1.29,10.015,1.352,1.966,1.475,2.335,1.351,2.151-.368,3.379-.614,18.656,3.382,20.6,2.478a5.5,5.5,0,0,1,2.849-.087c.5.122,34.573,6.406,40.635,7.618,6.106,1.221,8.985,1.221,11.688-.523S205.573,303.144,204.526,299.654Z" transform="translate(-108.786 -270.098)" fill="#eaaaa0"/>
                <g id="Grupo_1241708" data-name="Grupo 1241708" transform="translate(9.034 35.45)">
                  <path id="Trazado_1296708" data-name="Trazado 1296708" d="M152.491,331.349a15.975,15.975,0,0,1-4.65-1.267c-1.966-.981-6.513-5.989-6.559-6.04a.175.175,0,0,0-.259.234c.188.208,4.638,5.108,6.662,6.118a16.042,16.042,0,0,0,4.771,1.3h.018a.174.174,0,0,0,.173-.157A.177.177,0,0,0,152.491,331.349Z" transform="translate(-128.138 -322.818)" fill="#cc662e"/>
                  <path id="Trazado_1296709" data-name="Trazado 1296709" d="M129.387,322.4a.175.175,0,1,0-.338.088c.056.215,1.4,5.3,3.27,6.493a.174.174,0,1,0,.188-.294C130.754,327.565,129.4,322.449,129.387,322.4Z" transform="translate(-124.313 -322.267)" fill="#cc662e"/>
                  <path id="Trazado_1296710" data-name="Trazado 1296710" d="M122.413,324.807a.174.174,0,1,0-.315.15l1.833,3.854a.175.175,0,0,0,.158.1.171.171,0,0,0,.075-.017.174.174,0,0,0,.082-.232Z" transform="translate(-122.081 -323.049)" fill="#cc662e"/>
                  <path id="Trazado_1296711" data-name="Trazado 1296711" d="M173.558,332.217c-.047-.019-4.671-1.976-4.165-8.043a.174.174,0,1,0-.347-.029c-.528,6.33,4.332,8.376,4.382,8.395a.172.172,0,0,0,.065.013.174.174,0,0,0,.065-.336Z" transform="translate(-137.12 -322.817)" fill="#cc662e"/>
                </g>
              </g>
              <g id="Grupo_1241711" data-name="Grupo 1241711" transform="translate(77.58 76.232)">
                <path id="Trazado_1296712" data-name="Trazado 1296712" d="M306.3,248.381c-.654-6.926-1.723-16.913-3.256-27.179-.517-3.464-.962-6.635-1.382-9.539-1.847-12.77-3.206-20.331-8.039-24.452-5.932-5.059-30.283-11.576-30.284-11.576h0s-2.165,23.788-10.161,33.383S244.7,181.9,244.7,181.9l0,0L230.638,191.4s-2.259,17.795-5.575,25.82c-1.691,4.093-2.242,9.5-2.081,14.954.156,5.238,2.365,14.941,3.476,19.13,2.268,8.548,5.583,40.236,5.583,40.236,15.527,6.106,68.155-3.431,68.155-3.431a45.854,45.854,0,0,0-3.954-11.572,91.705,91.705,0,0,1-5.234-14.48l15.643-5.966.28,3.52.164-1.915,2.427-10.41Z" transform="translate(-222.955 -175.635)" fill="#018b87"/>
                <g id="Grupo_1241710" data-name="Grupo 1241710" transform="translate(10.832 27.045)">
                  <path id="Trazado_1296713" data-name="Trazado 1296713" d="M326.685,260.793l-26.68,5.186-4.6-50.227a.349.349,0,1,0-.7.063l-2.644,51.707-5.024.977a.349.349,0,0,0-.114.641l15.045,9.165a.349.349,0,0,0,.362-.6l-14.275-8.7,38.758-7.534a.35.35,0,0,0,.276-.41A.353.353,0,0,0,326.685,260.793Z" transform="translate(-254.236 -215.434)" fill="#2c1815"/>
                  <path id="Trazado_1296714" data-name="Trazado 1296714" d="M282.534,313.5a.4.4,0,0,0,.073.007.349.349,0,0,0,.073-.69c-24.269-5.228-41.987-22.565-42.163-22.739a.349.349,0,0,0-.491.5C240.2,290.747,258.06,308.225,282.534,313.5Z" transform="translate(-239.225 -239.323)" fill="#2c1815"/>
                  <path id="Trazado_1296715" data-name="Trazado 1296715" d="M255.069,332.548A155.3,155.3,0,0,1,239.283,332a.355.355,0,0,0-.385.308.349.349,0,0,0,.309.385c.1.011,5.219.554,14.392.554a296.061,296.061,0,0,0,38.037-2.617.349.349,0,1,0-.09-.692,298.24,298.24,0,0,1-36.271,2.606l36.392-15.263-4.555-9.5,1.331,8.833Z" transform="translate(-238.896 -245.031)" fill="#2c1815"/>
                </g>
                <path id="Trazado_1296716" data-name="Trazado 1296716" d="M257.632,212.363c6.232,3.633,11.332-8.221,14.184-17.334,2.562-8.186,4.433-16.6,4.788-18.232-2.5-.728-4.12-1.162-4.12-1.162h0s-2.165,23.788-10.161,33.383-8.478-27.114-8.478-27.114l0,0-2.362,1.594C251.508,187.086,251.912,209.028,257.632,212.363Z" transform="translate(-232.097 -175.635)" fill="#13a59d"/>
              </g>
              <g id="Grupo_1241713" data-name="Grupo 1241713" transform="translate(58.417 156.685)">
                <path id="Trazado_1296717" data-name="Trazado 1296717" d="M298.941,315.931v-.014a12.685,12.685,0,0,0-.107-1.769l-1.218-20.116-24.65,9.345s2.967,5.54,4.63,9.657L234.647,330.7a10.652,10.652,0,0,1-8.665-.465c-2.849-.465-3.315-9.014-3.315-9.014-3.9-.93-9.712-6.975-9.712-6.975-1.453.934-6.979.811-6.979.811-1.512,1.977-5.99,2.094-5.234,3.838s7.036.116,7.036.116c1.221.814,4.3.407,4.3.407l2.617,3.14-3.587.291c-3.063-1.628-8.742-3.257-8.8-1.337s2.617,3.14,2.617,3.14a22.1,22.1,0,0,1-4.71,1.977c-2.966,3.954-6.979,4.478-4.885,6.165,1.45,1.168,6.185-1.236,8.958-2.824-2.572,1.585-6.614,4.218-6.574,5.092.058,1.28,3.954.175,3.954.175s-1.221.756,0,1.977,8.258-.582,8.839-.582,6.862,3.78,9.072,5.873a10.172,10.172,0,0,0,5.757,2.268s45.825-6.746,61.061-13.143c10.906-4.579,12.507-11.9,12.536-15.694Z" transform="translate(-194.755 -294.031)" fill="#eab8b5"/>
                <g id="Grupo_1241712" data-name="Grupo 1241712" transform="translate(5.293 17.689)">
                  <path id="Trazado_1296718" data-name="Trazado 1296718" d="M208.8,345.25l4.2-2.518,7.206-1.129a.175.175,0,0,0-.054-.345l-7.24,1.134a.169.169,0,0,0-.063.022l-4.231,2.535a.174.174,0,0,0,.09.324A.173.173,0,0,0,208.8,345.25Z" transform="translate(-204.465 -326.855)" fill="#cc662e"/>
                  <path id="Trazado_1296719" data-name="Trazado 1296719" d="M219.89,347.569c-.222.022-5.44.529-7.233.94s-7.636,3.591-7.883,3.726a.175.175,0,0,0,.167.306c.06-.033,6.035-3.289,7.795-3.692s7.135-.929,7.189-.934a.174.174,0,1,0-.034-.347Z" transform="translate(-203.229 -328.878)" fill="#cc662e"/>
                  <path id="Trazado_1296720" data-name="Trazado 1296720" d="M239.191,346.4a.175.175,0,0,0-.016.247c.039.045,3.953,4.606,2.709,10.206a.175.175,0,0,0,.133.209.181.181,0,0,0,.038,0,.175.175,0,0,0,.171-.137c1.284-5.777-2.746-10.466-2.787-10.514A.176.176,0,0,0,239.191,346.4Z" transform="translate(-214.27 -328.49)" fill="#cc662e"/>
                  <path id="Trazado_1296721" data-name="Trazado 1296721" d="M225.205,330.5c-3.8-.908-9.568-6.866-9.626-6.926a.173.173,0,0,0-.22-.026c-1.392.894-6.823.784-6.88.783a.2.2,0,0,0-.143.068,7.155,7.155,0,0,1-3.023,1.8c-1.078.431-2.008.8-2.264,1.426a.983.983,0,0,0,.032.787c.769,1.773,6.236.47,7.167.234,1.184.716,3.724.467,4.26.4l2.343,2.811-3.2.257c-2.62-1.381-7.1-2.785-8.534-1.954a.909.909,0,0,0-.477.789c-.05,1.653,1.74,2.785,2.444,3.165a24.316,24.316,0,0,1-4.413,1.791.175.175,0,0,0,.05.342.157.157,0,0,0,.05-.007,21.99,21.99,0,0,0,4.748-1.992l2.514-1.429,3.6-.351h0l7.526-.6a.175.175,0,0,0-.028-.348l-3.85.309-2.561-3.073a.184.184,0,0,0-.157-.061c-.03,0-3.031.389-4.184-.38a.183.183,0,0,0-.141-.024c-1.707.442-6.262,1.3-6.833-.016a.636.636,0,0,1-.029-.515c.2-.485,1.109-.849,2.071-1.235a7.638,7.638,0,0,0,3.115-1.843c.718.013,5.326.056,6.865-.767.8.815,6.027,6.048,9.7,6.925a.175.175,0,0,0,.08-.34Zm-15.248,1.98a.188.188,0,0,0-.069.022l-2.467,1.4c-.419-.209-2.485-1.327-2.436-2.938a.555.555,0,0,1,.3-.5c1.12-.648,4.963.376,7.71,1.714Z" transform="translate(-202.544 -321.17)" fill="#cc662e"/>
                  <path id="Trazado_1296722" data-name="Trazado 1296722" d="M330.361,322.439a15.063,15.063,0,0,0-13.853-1.22.175.175,0,1,0,.149.316,14.7,14.7,0,0,1,13.51,1.194.174.174,0,0,0,.194-.29Z" transform="translate(-239.036 -320.063)" fill="#cc662e"/>
                </g>
              </g>
            </g>
          </g>
          <g id="Grupo_1241726" data-name="Grupo 1241726" transform="translate(189.196 117.617)">
            <path id="Trazado_1296723" data-name="Trazado 1296723" d="M366.295,374.548l-13.081-52.84v-2.2h-.546L332.491,238a1.93,1.93,0,0,0-3.747.926l3.843,15.563H313.679L309.6,238a1.93,1.93,0,0,0-3.747.926l33.712,136.545a1.93,1.93,0,0,0,1.873,1.467h.091a1.93,1.93,0,0,0,1.873-2.393l-1.844-7.446H360.39l2.067,8.372a1.93,1.93,0,0,0,1.873,1.467h.091A1.931,1.931,0,0,0,366.295,374.548Zm-35.64-51.483h18.863l4.551,18.435H335.218Zm-.881-3.561-4.782-19.317h18.878l4.77,19.317Zm13.216-22.879h-18.88l-4.674-18.878h18.893Zm-9.523-38.571,3.983,16.132h-18.9l-3.994-16.132Zm7.208,105.487L336.1,345.062h18.848l4.562,18.479Z" transform="translate(-305.793 -236.538)" fill="#2c4355"/>
            <g id="Grupo_1241725" data-name="Grupo 1241725" transform="translate(13.115 13.751)">
              <g id="Grupo_1241717" data-name="Grupo 1241717" transform="translate(23.44 99.051)">
                <path id="Trazado_1296724" data-name="Trazado 1296724" d="M377.644,411.175l.3-8.634-5.525.7-.23,7.936S374.557,415.389,377.644,411.175Z" transform="translate(-363.625 -402.541)" fill="#d79081"/>
                <g id="Grupo_1241716" data-name="Grupo 1241716" transform="translate(0 8.634)">
                  <path id="Trazado_1296725" data-name="Trazado 1296725" d="M373.607,415.247l1.116,4.59H359.588a5.682,5.682,0,0,1,4.218-3.1,11.124,11.124,0,0,0,4.342-1.489S370.133,417.6,373.607,415.247Z" transform="translate(-359.588 -415.247)" fill="#26597f"/>
                  <rect id="Rectángulo_424303" data-name="Rectángulo 424303" width="15.136" height="0.993" transform="translate(15.136 5.583) rotate(180)" fill="#22374c"/>
                </g>
              </g>
              <g id="Grupo_1241718" data-name="Grupo 1241718" transform="translate(23.144)">
                <path id="Trazado_1296726" data-name="Trazado 1296726" d="M360.033,267.085c-1.673,3.969-.892,8.089,1.747,9.2s6.133-1.2,7.806-5.174.892-8.088-1.746-9.2S361.706,263.115,360.033,267.085Z" transform="translate(-359.152 -258.331)" fill="#efcdca"/>
                <path id="Trazado_1296727" data-name="Trazado 1296727" d="M380.377,261.066c-1.911-3.224-4.84-5.019-6.54-4.011-1.088.646-1.405,2.284-.995,4.223a4.633,4.633,0,0,0-1.4-.825c-3.376-1.181-4.867-.463-5.531-.84s-6.149-.326-4.1,5.363a3.847,3.847,0,0,0,2.4,2.687l-.666,3.3s-.035,3.194-1.407,3.833,7.568,3.721,10.944-.037a9.918,9.918,0,0,0,2.724-6.724h0c2.32,2.6,2.638.714,2.638.714a2.605,2.605,0,0,0,2.312-.024C382.46,267.72,382.288,264.289,380.377,261.066Z" transform="translate(-359.859 -256.775)" fill="#4c1813"/>
                <path id="Trazado_1296728" data-name="Trazado 1296728" d="M365.654,270.547c.824.455.81,2.056-.029,3.576s-2.187,2.384-3.011,1.929c-.026-.015-.05-.034-.075-.051a.984.984,0,0,1-.133-.11c-.6-.592-.524-2.013.219-3.379.006-.012.012-.024.018-.035a4.582,4.582,0,0,1,1.673-1.8A1.383,1.383,0,0,1,365.654,270.547Z" transform="translate(-360.067 -261.15)" fill="#de9595"/>
              </g>
              <g id="Grupo_1241720" data-name="Grupo 1241720" transform="translate(8.386 47.913)">
                <path id="Trazado_1296729" data-name="Trazado 1296729" d="M359.595,384.946l8.454.171h0l3.332-55-10.4-2.83L347.1,330.541l-9.581,17.133s-1.253,3.759,5.923,9.454,12.415,10.479,12.415,10.479h0l1.352,1.257,2.386,16.083m-3.51-33.172-4.784-3.759,4.784-3.758Z" transform="translate(-337.434 -327.285)" fill="#68bb9f"/>
                <g id="Grupo_1241719" data-name="Grupo 1241719" transform="translate(0.848 5.526)">
                  <path id="Trazado_1296730" data-name="Trazado 1296730" d="M355.831,356.7a.175.175,0,1,0,.211-.278L353,354.109a.175.175,0,1,0-.211.278Z" transform="translate(-343.18 -341.396)" fill="#407f68"/>
                  <path id="Trazado_1296731" data-name="Trazado 1296731" d="M377.3,335.476a.174.174,0,0,0-.246-.016L364.3,346.688a.174.174,0,0,0-.016.246.174.174,0,0,0,.246.016l12.757-11.228A.172.172,0,0,0,377.3,335.476Z" transform="translate(-346.873 -335.417)" fill="#407f68"/>
                  <path id="Trazado_1296732" data-name="Trazado 1296732" d="M377.116,409.951h-6.51a.175.175,0,1,0,0,.349h6.51a.175.175,0,1,0,0-.349Z" transform="translate(-348.857 -359.303)" fill="#407f68"/>
                  <path id="Trazado_1296733" data-name="Trazado 1296733" d="M339.014,359.135a.174.174,0,1,0-.313.153c2.2,4.521,17.431,16.2,18.078,16.694a.174.174,0,0,0,.106.036.174.174,0,0,0,.107-.313C356.832,375.584,341.18,363.582,339.014,359.135Z" transform="translate(-338.683 -342.986)" fill="#407f68"/>
                  <path id="Trazado_1296734" data-name="Trazado 1296734" d="M371.323,372.711l-6.768-9.634a.174.174,0,0,0-.285.2l6.694,9.529-5.566,7.355a.174.174,0,0,0,.034.244.172.172,0,0,0,.105.035.175.175,0,0,0,.139-.069l5.643-7.456A.173.173,0,0,0,371.323,372.711Z" transform="translate(-346.873 -344.258)" fill="#407f68"/>
                </g>
              </g>
              <path id="Trazado_1296735" data-name="Trazado 1296735" d="M394.05,369.444l-9.352,2.343.528-8.72Z" transform="translate(-344.195 -290.839)" fill="#93bcb7"/>
              <path id="Trazado_1296736" data-name="Trazado 1296736" d="M334.718,318.565s-.659-2.047-4.434-2.654c-.535-.086-.953-.141-1.291-.173l.267,1.079c.95.582,1.743,1.556-.2,1.968a22.889,22.889,0,0,0-3.11.883l-.056-.229a1.53,1.53,0,0,0-.749.654h0c-.163.174,0,.309.709.359.6.043.935.062,1.133.064-.236.092-.5.206-.749.33l-.063-.252a1.525,1.525,0,0,0-.963,1.01h0c-.063.188.125.335.759.384.485.037.72.064.837.075-.086.046-.164.09-.236.133l-.024-.076a.82.82,0,0,0-.58.693s0,0,0,.007h0c-.038.249.244.4.529.442a3.6,3.6,0,0,0,1.865-.209,11.688,11.688,0,0,0-1.392.77l-.054-.217a1.367,1.367,0,0,0-.309.589h0c-.017.109.124.175.535.158C328.927,324.28,336.272,322.781,334.718,318.565Z" transform="translate(-325.093 -275.671)" fill="#efcdca"/>
              <g id="Grupo_1241722" data-name="Grupo 1241722" transform="translate(6.77 18.776)">
                <path id="Trazado_1296737" data-name="Trazado 1296737" d="M371.938,311.116l1.538-1.082s-7.176-20.844-7.859-22.553-3.3-3.076-4.841-3.076-5.672.328-5.672.328l-3.383,1.153s-1.595.456-3.417,4.727-2.791,6.094-2.791,6.094l-10.456,9.544,2.195,5.947,8.944-4.614,1.239,37.871s24.773-6.281,30.7-1.221C378.14,344.234,376.028,324.752,371.938,311.116Z" transform="translate(-335.056 -284.406)" fill="#b1e4df"/>
                <g id="Grupo_1241721" data-name="Grupo 1241721" transform="translate(0.952 8.362)">
                  <path id="Trazado_1296738" data-name="Trazado 1296738" d="M359.932,305.467l1.57-8.548a.175.175,0,1,0-.344-.062l-1.557,8.48-8.336,6.052a.174.174,0,0,0,.1.315.172.172,0,0,0,.1-.033l8.393-6.093A.174.174,0,0,0,359.932,305.467Z" transform="translate(-341.18 -296.712)" fill="#6ab79d"/>
                  <path id="Trazado_1296739" data-name="Trazado 1296739" d="M386.045,315.235a.174.174,0,0,0,.163-.236l-6.8-18.172a.175.175,0,1,0-.328.122l6.8,18.172A.177.177,0,0,0,386.045,315.235Z" transform="translate(-350.115 -296.712)" fill="#6ab79d"/>
                  <path id="Trazado_1296740" data-name="Trazado 1296740" d="M383.69,368.39c-7.136-4.623-27.36.8-28.218,1.036a.175.175,0,0,0,.046.343.175.175,0,0,0,.046-.006c.209-.056,20.932-5.618,27.936-1.08a.174.174,0,0,0,.19-.293Z" transform="translate(-342.51 -319.088)" fill="#6ab79d"/>
                  <path id="Trazado_1296741" data-name="Trazado 1296741" d="M361.08,339.129a3.056,3.056,0,0,0,2.484-1.178c2.868-3.55.682-13.917.586-14.357a.174.174,0,0,0-.26-.113l-8.472,5.054a.176.176,0,0,0-.085.14c-.015.251-.34,6.175,2.323,9A4.522,4.522,0,0,0,361.08,339.129Zm-5.4-10.342,8.181-4.88c.314,1.6,1.964,10.693-.566,13.825a2.72,2.72,0,0,1-2.212,1.048,4.185,4.185,0,0,1-3.169-1.339C355.525,334.907,355.648,329.552,355.678,328.787Z" transform="translate(-342.501 -305.283)" fill="#6ab79d"/>
                  <path id="Trazado_1296742" data-name="Trazado 1296742" d="M336.575,316.363a.173.173,0,0,0-.108.221l1.6,4.664a.174.174,0,0,0,.165.118.161.161,0,0,0,.056-.01.173.173,0,0,0,.108-.221l-1.6-4.664A.175.175,0,0,0,336.575,316.363Z" transform="translate(-336.458 -303.007)" fill="#6ab79d"/>
                </g>
              </g>
              <g id="Grupo_1241724" data-name="Grupo 1241724" transform="translate(29.202 84.002)">
                <path id="Trazado_1296743" data-name="Trazado 1296743" d="M374.511,383.352l-3.107-2.958-3.336,4.394,2.844,2.668S375.645,388.452,374.511,383.352Z" transform="translate(-368.068 -380.394)" fill="#d79081"/>
                <g id="Grupo_1241723" data-name="Grupo 1241723" transform="translate(0.226 2.958)">
                  <path id="Trazado_1296744" data-name="Trazado 1296744" d="M374.618,384.747l4.188,2.187-9.978,11.381a5.68,5.68,0,0,1,.448-5.216,11.122,11.122,0,0,0,1.743-4.246S374.1,388.913,374.618,384.747Z" transform="translate(-368.401 -384.747)" fill="#26597f"/>
                  <rect id="Rectángulo_424304" data-name="Rectángulo 424304" width="15.136" height="0.993" transform="translate(11.17 2.842) rotate(131.241)" fill="#22374c"/>
                </g>
              </g>
            </g>
          </g>
          <g id="Grupo_1241729" data-name="Grupo 1241729" transform="translate(248.028 203.674)">
            <g id="Grupo_1241728" data-name="Grupo 1241728">
              <g id="Grupo_1241727" data-name="Grupo 1241727" transform="translate(0 14.092)">
                <path id="Trazado_1296745" data-name="Trazado 1296745" d="M453.219,388.806l-6.8,1.339c1.113.293,9.379,6.733,9.379,6.733C455.833,394.087,453.219,388.806,453.219,388.806Z" transform="translate(-409.693 -385.486)" fill="#2d543d"/>
                <path id="Trazado_1296746" data-name="Trazado 1296746" d="M405.583,390.56s6.8-5.3,7.715-5.539l-5.594-1.1S405.554,388.264,405.583,390.56Z" transform="translate(-396.606 -383.92)" fill="#2d543d"/>
                <path id="Trazado_1296747" data-name="Trazado 1296747" d="M392.372,409.435s9.432-2.456,12.686-1.886l-5.892-1.641A13.99,13.99,0,0,0,392.372,409.435Z" transform="translate(-392.372 -390.967)" fill="#2d543d"/>
                <path id="Trazado_1296748" data-name="Trazado 1296748" d="M411.041,408.323l.577.16A2.6,2.6,0,0,0,411.041,408.323Z" transform="translate(-398.355 -391.741)" fill="#2d543d"/>
              </g>
              <path id="Trazado_1296749" data-name="Trazado 1296749" d="M439.1,380.594l-6.8,1.339c-3.095,1.916-5.075,8.479-6.021,10.45s-3.466,4.814-3.1,6.55a31.213,31.213,0,0,1-.057,6.062,38.95,38.95,0,0,0-1.728,4.785,121.156,121.156,0,0,1,.714-14.42h0v-.016a69.219,69.219,0,0,1,1.455-8.518c1.261-1.182,5.5-5.183,6.793-6.761a9.113,9.113,0,0,0,2.481-5.976c.113-2.594.451-6.766.282-6.71a17.389,17.389,0,0,0-4,3.383c-.846,1.3-3.439,3.1-4.341,4.68s-2.03,5.356-1.579,6.118c.308.52.2,2.946.093,4.432a59.424,59.424,0,0,0-1.3,6.663,40.5,40.5,0,0,0-2.007-9.734c.213.2.341.32.341.32s-.622-7.674-1.139-10.022a9.112,9.112,0,0,0-3.154-5.65c-1.966-1.7-5.031-4.547-5.091-4.379a17.392,17.392,0,0,0,.175,5.238c.494,1.467.3,4.621.983,6.307s2.946,4.912,3.823,5.03c.565.076,2.229,1.5,3.343,2.5a39.589,39.589,0,0,1,2.378,13.1h.01c-.3,2.768-.479,5.48-.574,7.877-.3-1.847-.777-3.941-1.267-5.884a25.7,25.7,0,0,1-.048-5c.3-1.428-1.769-3.767-2.547-5.388s-2.407-7.02-4.953-8.6l-5.594-1.1s-.245,4.343,1.787,7.051,6.008,6.723,6.369,7.981c.291,1.015,3.4,4.219,4.593,5.421a44.328,44.328,0,0,1,1.515,8.658H421c-.005.338-.009.665-.012.978-.444-.385-1.117-.909-1.9-1.492-.921-1.6-3.773-6.491-4.993-8.077a9.109,9.109,0,0,0-5.255-3.776c-2.5-.7-6.485-1.979-6.469-1.8a17.4,17.4,0,0,0,2.383,4.668c1.07,1.118,2.237,4.055,3.568,5.293s4.754,3.2,5.6,2.93c.641-.2,3.461.64,4.778,1.056a25.97,25.97,0,0,1,2.286,1.83c-.005,1.706.027,2.943.052,3.464,0,.031-.009.063-.014.094l.019,0a1.281,1.281,0,0,0,.016.177l.093.13.312-.088.022-.157a26.941,26.941,0,0,1,1.844-5.877c1.153-1.152,5.482-5.544,5.862-6.869.438-1.53,5.272-6.411,7.742-9.7S439.1,380.594,439.1,380.594Z" transform="translate(-395.576 -363.181)" fill="#42aa6f"/>
            </g>
            <path id="Trazado_1296750" data-name="Trazado 1296750" d="M428.491,439.706h-5.739a6.9,6.9,0,0,1-6.9-6.9v-.419h19.54v.419A6.9,6.9,0,0,1,428.491,439.706Z" transform="translate(-399.897 -385.361)" fill="#2c1815"/>
          </g>
          <g id="Grupo_1241732" data-name="Grupo 1241732" transform="translate(1.037 258.055)">
            <g id="Grupo_1241731" data-name="Grupo 1241731" transform="translate(0)">
              <g id="Grupo_1241730" data-name="Grupo 1241730" transform="translate(0 8.388)">
                <path id="Trazado_1296751" data-name="Trazado 1296751" d="M58.1,458.461l-4.047.8a64.094,64.094,0,0,1,5.582,4.006C59.657,461.6,58.1,458.461,58.1,458.461Z" transform="translate(-32.2 -456.486)" fill="#2d543d"/>
                <path id="Trazado_1296752" data-name="Trazado 1296752" d="M29.754,459.506a52.673,52.673,0,0,1,4.592-3.3l-3.329-.655A12.623,12.623,0,0,0,29.754,459.506Z" transform="translate(-24.412 -455.555)" fill="#2d543d"/>
                <path id="Trazado_1296753" data-name="Trazado 1296753" d="M21.893,470.736s5.612-1.462,7.549-1.122l-3.506-.977A8.326,8.326,0,0,0,21.893,470.736Z" transform="translate(-21.893 -459.748)" fill="#2d543d"/>
                <path id="Trazado_1296754" data-name="Trazado 1296754" d="M33,470.075l.343.1A1.527,1.527,0,0,0,33,470.075Z" transform="translate(-25.453 -460.208)" fill="#2d543d"/>
              </g>
              <path id="Trazado_1296755" data-name="Trazado 1296755" d="M49.7,453.574l-4.047.8c-1.841,1.14-3.02,5.045-3.583,6.218s-2.063,2.865-1.843,3.9a18.571,18.571,0,0,1-.034,3.608,23.375,23.375,0,0,0-1.029,2.848,72.018,72.018,0,0,1,.425-8.581h0v-.009a41.243,41.243,0,0,1,.866-5.069c.75-.7,3.274-3.084,4.042-4.023a5.423,5.423,0,0,0,1.477-3.557c.067-1.543.268-4.026.168-3.993a10.359,10.359,0,0,0-2.382,2.013c-.5.772-2.047,1.846-2.584,2.785s-1.208,3.187-.939,3.64a8.853,8.853,0,0,1,.055,2.637,35.181,35.181,0,0,0-.772,3.965,24.088,24.088,0,0,0-1.195-5.792l.2.19s-.37-4.567-.677-5.964a5.422,5.422,0,0,0-1.877-3.362c-1.169-1.009-2.993-2.706-3.029-2.606a10.36,10.36,0,0,0,.1,3.117c.294.873.18,2.75.585,3.753s1.753,2.923,2.275,2.993a8.123,8.123,0,0,1,1.989,1.487,23.568,23.568,0,0,1,1.415,7.795h.005c-.181,1.647-.285,3.261-.342,4.687-.179-1.1-.462-2.346-.754-3.5a15.3,15.3,0,0,1-.029-2.973c.181-.849-1.053-2.242-1.516-3.206s-1.432-4.177-2.947-5.115L30.4,451.6a7.391,7.391,0,0,0,1.063,4.2c1.209,1.611,3.576,4,3.79,4.749a17.589,17.589,0,0,0,2.733,3.226,26.39,26.39,0,0,1,.9,5.152h.034c0,.2-.005.4-.007.582-.264-.23-.665-.541-1.129-.887-.548-.95-2.245-3.862-2.971-4.807a5.423,5.423,0,0,0-3.127-2.247c-1.487-.417-3.859-1.178-3.849-1.072a10.337,10.337,0,0,0,1.418,2.778c.637.666,1.331,2.413,2.123,3.15s2.829,1.9,3.331,1.744a10.26,10.26,0,0,1,2.843.629,15.487,15.487,0,0,1,1.36,1.089c0,1.015.016,1.751.031,2.061l-.008.056.011,0a.7.7,0,0,0,.01.105l.055.077.186-.053.013-.094a15.983,15.983,0,0,1,1.1-3.5c.686-.686,3.262-3.3,3.488-4.088.26-.911,3.137-3.815,4.607-5.773S49.7,453.574,49.7,453.574Z" transform="translate(-23.8 -443.211)" fill="#42aa6f"/>
            </g>
            <path id="Trazado_1296756" data-name="Trazado 1296756" d="M43.386,488.75H39.97a4.106,4.106,0,0,1-4.106-4.106v-.249H47.491v.249A4.105,4.105,0,0,1,43.386,488.75Z" transform="translate(-26.37 -456.409)" fill="#2c1815"/>
          </g>
          <g id="Grupo_1241742" data-name="Grupo 1241742" transform="translate(14.718 13.069)">
            <g id="Grupo_1241733" data-name="Grupo 1241733" transform="translate(0 112.345)">
              <path id="Trazado_1296757" data-name="Trazado 1296757" d="M76.586,262.531a1.22,1.22,0,0,0-1.713-.215L63.24,271.354,57.2,265.842a1.221,1.221,0,1,0-1.645,1.8l6.8,6.2a1.221,1.221,0,0,0,1.572.062l12.444-9.668A1.222,1.222,0,0,0,76.586,262.531Z" transform="translate(-50.99 -252.515)" fill="#42aa6f"/>
              <path id="Trazado_1296758" data-name="Trazado 1296758" d="M64.034,248.013A15.007,15.007,0,1,0,79.041,263.02,15.024,15.024,0,0,0,64.034,248.013Zm0,28.643A13.636,13.636,0,1,1,77.67,263.02,13.651,13.651,0,0,1,64.034,276.656Z" transform="translate(-49.027 -248.013)" fill="#42aa6f"/>
            </g>
            <g id="Grupo_1241737" data-name="Grupo 1241737" transform="translate(205.114 4.994)">
              <g id="Grupo_1241736" data-name="Grupo 1241736" transform="translate(2.817 0.484)">
                <rect id="Rectángulo_424305" data-name="Rectángulo 424305" width="54.211" height="76.121" transform="translate(0 8.765)" fill="#68bb9f"/>
                <g id="Grupo_1241734" data-name="Grupo 1241734" transform="translate(3.489 14.419)">
                  <path id="Trazado_1296759" data-name="Trazado 1296759" d="M407.392,111.964H360.159v66.963h38.587l8.646-8.022Z" transform="translate(-360.159 -111.964)" fill="#fff"/>
                  <path id="Trazado_1296760" data-name="Trazado 1296760" d="M424.809,198.7h-10.3l1.657,8.022Z" transform="translate(-377.576 -139.762)" fill="#7d9ab7"/>
                  <path id="Trazado_1296761" data-name="Trazado 1296761" d="M416.945,205.985l8.646-8.022-8.646-1.57Z" transform="translate(-378.358 -139.022)" fill="#bfd8ef"/>
                </g>
                <path id="Trazado_1296762" data-name="Trazado 1296762" d="M396.24,92.838V90.744H379.088v2.094h-6.8v10h30.745v-10Zm-4.334,3.952h-8.493a2.325,2.325,0,1,1,0-4.649h8.493a2.325,2.325,0,0,1,0,4.649Z" transform="translate(-360.558 -90.744)" fill="#ff4200"/>
                <g id="Grupo_1241735" data-name="Grupo 1241735" transform="translate(7.446 19.217)">
                  <circle id="Elipse_12519" data-name="Elipse 12519" cx="7.647" cy="7.647" r="7.647" transform="translate(0 0.322)" fill="#b1e4df"/>
                  <rect id="Rectángulo_424306" data-name="Rectángulo 424306" width="40.3" height="2.017" transform="translate(0 19.589)" fill="#b1e4df"/>
                  <rect id="Rectángulo_424307" data-name="Rectángulo 424307" width="22.331" height="4.917" transform="translate(17.43 10.31)" fill="#b1e4df"/>
                  <rect id="Rectángulo_424308" data-name="Rectángulo 424308" width="22.331" height="4.917" transform="translate(17.43)" fill="#b1e4df"/>
                  <rect id="Rectángulo_424309" data-name="Rectángulo 424309" width="40.3" height="2.017" transform="translate(0 22.669)" fill="#b1e4df"/>
                  <rect id="Rectángulo_424310" data-name="Rectángulo 424310" width="26.169" height="2.017" transform="translate(14.131 28.835)" fill="#b1e4df"/>
                  <rect id="Rectángulo_424311" data-name="Rectángulo 424311" width="26.169" height="2.017" transform="translate(14.131 32.751)" fill="#b1e4df"/>
                  <rect id="Rectángulo_424312" data-name="Rectángulo 424312" width="26.169" height="2.017" transform="translate(14.131 42.302)" fill="#b1e4df"/>
                  <rect id="Rectángulo_424313" data-name="Rectángulo 424313" width="26.169" height="2.017" transform="translate(14.131 46.5)" fill="#b1e4df"/>
                  <rect id="Rectángulo_424314" data-name="Rectángulo 424314" width="12.387" height="9.5" transform="translate(0 28.619)" fill="#b1e4df"/>
                  <rect id="Rectángulo_424315" data-name="Rectángulo 424315" width="12.387" height="9.5" transform="translate(0 42.448)" fill="#b1e4df"/>
                </g>
                <path id="Trazado_1296763" data-name="Trazado 1296763" d="M378.591,162.025a.833.833,0,0,0-1.169-.147l-7.943,6.171-4.127-3.764a.834.834,0,0,0-1.123,1.232l4.647,4.237a.834.834,0,0,0,1.073.042l8.5-6.6A.834.834,0,0,0,378.591,162.025Z" transform="translate(-357.887 -113.485)" fill="#42aa6f"/>
                <path id="Trazado_1296764" data-name="Trazado 1296764" d="M378.591,181.693a.833.833,0,0,0-1.169-.147l-7.943,6.171-4.127-3.764a.834.834,0,0,0-1.123,1.232l4.647,4.237a.834.834,0,0,0,1.073.042l8.5-6.6A.834.834,0,0,0,378.591,181.693Z" transform="translate(-357.887 -119.788)" fill="#42aa6f"/>
              </g>
              <path id="Trazado_1296765" data-name="Trazado 1296765" d="M398.423,100.4l.453-6.656-6.78-.461.142-2.089-17.113-1.164-.142,2.089-6.78-.461-.453,6.656-11.706-.8-5.166,75.946,54.086,3.679,5.166-75.946Zm-19.077-8.684,8.474.576a2.325,2.325,0,0,1-.315,4.639l-8.474-.576a2.325,2.325,0,0,1,.315-4.639Z" transform="translate(-350.878 -90.032)" fill="none" stroke="#247f49" stroke-miterlimit="10" stroke-width="0.5"/>
            </g>
            <g id="Grupo_1241738" data-name="Grupo 1241738" transform="translate(51.661)">
              <path id="Trazado_1296766" data-name="Trazado 1296766" d="M155.945,96.564V87.6a4.916,4.916,0,0,0-4.916-4.916h-21.06a4.916,4.916,0,0,0-4.916,4.916v14.473a4.916,4.916,0,0,0,4.916,4.916H147.2l17.678,10.832Z" transform="translate(-125.053 -82.683)" fill="#b1e4df"/>
              <path id="Trazado_1296767" data-name="Trazado 1296767" d="M150.409,93.787h-5.583V88.2a1.657,1.657,0,1,0-3.315,0v5.583h-5.583a1.657,1.657,0,0,0,0,3.315h5.583v5.583a1.657,1.657,0,1,0,3.315,0V97.1h5.583a1.657,1.657,0,0,0,0-3.315Z" transform="translate(-128.007 -83.921)" fill="#42aa6f"/>
            </g>
            <g id="Grupo_1241740" data-name="Grupo 1241740" transform="translate(246.651 111.748)">
              <path id="Trazado_1296768" data-name="Trazado 1296768" d="M432.777,263.39l-.423-.073,2.768-16.1-.508-.087-2.768,16.1-.424-.073-2.1,6.617,1.355.233.508.088,1.356.233Z" transform="translate(-417.555 -247.134)" fill="#4e7191"/>
              <path id="Trazado_1296769" data-name="Trazado 1296769" d="M424.6,333.859l-5.083-.874,1.45-8.429-.678-.117-.677-.116-1.449,8.429-5.083-.875-1.068,1.648,6.523,1.122,6.523,1.122Z" transform="translate(-412.005 -271.872)" fill="#5ec8a4"/>
              <path id="Trazado_1296770" data-name="Trazado 1296770" d="M430.821,283.63a2.305,2.305,0,0,0-1.881-2.662L426.2,280.5a2.305,2.305,0,0,0-2.662,1.881l-4.708,27.379.868.149-.088.508,5.337.918.088-.508,1.08.186Z" transform="translate(-414.191 -257.815)" fill="#a5d6d6"/>
              <g id="Grupo_1241739" data-name="Grupo 1241739" transform="translate(8.521 27.235)">
                <path id="Trazado_1296771" data-name="Trazado 1296771" d="M429.631,287.726l4.13.71a.258.258,0,1,0,.087-.508l-4.13-.71a.258.258,0,0,0-.087.508Z" transform="translate(-426.106 -287.214)" fill="#5ec8a4"/>
                <path id="Trazado_1296772" data-name="Trazado 1296772" d="M432.353,296.623l-4.13-.71a.258.258,0,0,0-.087.508l4.13.71a.258.258,0,0,0,.087-.508Z" transform="translate(-425.627 -290)" fill="#5ec8a4"/>
                <path id="Trazado_1296773" data-name="Trazado 1296773" d="M430.729,306.067l-4.13-.71a.258.258,0,0,0-.087.508l4.13.71a.258.258,0,0,0,.087-.508Z" transform="translate(-425.106 -293.027)" fill="#5ec8a4"/>
                <path id="Trazado_1296774" data-name="Trazado 1296774" d="M428.976,316.259l-4.13-.71a.258.258,0,0,0-.087.508l4.13.71a.258.258,0,0,0,.087-.508Z" transform="translate(-424.544 -296.293)" fill="#5ec8a4"/>
              </g>
            </g>
            <g id="Grupo_1241741" data-name="Grupo 1241741" transform="translate(19.607 49.183)">
              <path id="Trazado_1296775" data-name="Trazado 1296775" d="M101.642,155.6c-7.628-2.622-10.062,5.143-10.062,5.143s-2.434-7.766-10.062-5.143S78.74,177.077,91.58,182.325C104.42,177.077,109.269,158.226,101.642,155.6Z" transform="translate(-77.881 -155.063)" fill="#42aa6f"/>
              <path id="Trazado_1296776" data-name="Trazado 1296776" d="M103.2,169.376a.36.36,0,0,0-.5.118l-1.254,2.036-2.691-8.386a.36.36,0,0,0-.672-.037l-3.746,8.438-2-3.945a.355.355,0,0,0-.342-.2.361.361,0,0,0-.317.234l-1.453,3.924-3.667-6.03a.369.369,0,0,0-.337-.172.361.361,0,0,0-.305.224l-2.7,6.667a.361.361,0,0,0,.2.47.365.365,0,0,0,.135.026.361.361,0,0,0,.334-.225l2.433-6L90,172.573a.355.355,0,0,0,.342.171.359.359,0,0,0,.3-.233l1.426-3.848,1.97,3.886a.36.36,0,0,0,.65-.016l3.671-8.268L101,172.5a.362.362,0,0,0,.3.248.356.356,0,0,0,.35-.169l1.664-2.7A.362.362,0,0,0,103.2,169.376Z" transform="translate(-79.583 -157.572)" fill="#fff"/>
            </g>
          </g>
        </g>
      </g>
    </g>
  </g>
</svg>
