<svg xmlns="http://www.w3.org/2000/svg" xmlns:xlink="http://www.w3.org/1999/xlink" width="113" height="113" viewBox="0 0 113 113">
  <defs>
    <filter id="Trazado_982547" x="0" y="0" width="113" height="113" filterUnits="userSpaceOnUse">
      <feOffset dy="3" input="SourceAlpha"/>
      <feGaussianBlur stdDeviation="3" result="blur"/>
      <feFlood flood-opacity="0.161"/>
      <feComposite operator="in" in2="blur"/>
      <feComposite in="SourceGraphic"/>
    </filter>
  </defs>
  <g id="Grupo_1241767" data-name="Grupo 1241767" transform="translate(-270.8 -3579.168)">
    <g id="Grupo_1241177" data-name="Grupo 1241177" transform="translate(-84.544 -9104)">
      <g id="Grupo_1240425" data-name="Grupo 1240425" transform="translate(364.344 12689.168)">
        <g id="Grupo_1239772" data-name="Grupo 1239772" transform="translate(0 0)">
          <g id="Grupo_1236602" data-name="Grupo 1236602">
            <g id="Grupo_1236144" data-name="Grupo 1236144">
              <g id="Grupo_1235105" data-name="Grupo 1235105">
                <g id="Grupo_1223793" data-name="Grupo 1223793">
                  <g id="Grupo_1208028" data-name="Grupo 1208028">
                    <g id="Grupo_1177675" data-name="Grupo 1177675">
                      <g id="Grupo_1176928" data-name="Grupo 1176928" transform="translate(0)">
                        <g id="Grupo_1172322" data-name="Grupo 1172322">
                          <g id="Grupo_1164700" data-name="Grupo 1164700">
                            <g id="Grupo_1160931" data-name="Grupo 1160931">
                              <g id="Grupo_1160749" data-name="Grupo 1160749">
                                <g id="Grupo_1158891" data-name="Grupo 1158891">
                                  <g id="Grupo_1157406" data-name="Grupo 1157406">
                                    <g id="Grupo_1155793" data-name="Grupo 1155793">
                                      <g id="Grupo_1154704" data-name="Grupo 1154704">
                                        <g id="Grupo_1150790" data-name="Grupo 1150790">
                                          <g id="Grupo_1154214" data-name="Grupo 1154214" transform="translate(0)">
                                            <g id="Grupo_1152583" data-name="Grupo 1152583">
                                              <g id="Grupo_1146973" data-name="Grupo 1146973">
                                                <g id="Grupo_1146954" data-name="Grupo 1146954">
                                                  <g transform="matrix(1, 0, 0, 1, -9, -6)" filter="url(#Trazado_982547)">
                                                    <g id="Trazado_982547-2" data-name="Trazado 982547" transform="translate(9 6)" fill="#c4e3df">
                                                      <path d="M 47.50000762939453 93.49986267089844 C 41.28937911987305 93.49986267089844 35.26534271240234 92.28383636474609 29.59519386291504 89.88558197021484 C 24.11772727966309 87.56880950927734 19.19814109802246 84.25183868408203 14.97310066223145 80.02679443359375 C 10.74804782867432 75.8017578125 7.431074142456055 70.88218688964844 5.114300727844238 65.40471649169922 C 2.716034412384033 59.73458480834961 1.500007629394531 53.71054458618164 1.500007629394531 47.49993133544922 C 1.500007629394531 41.2893180847168 2.716034412384033 35.26527786254883 5.114300727844238 29.59514427185059 C 7.431074142456055 24.11767768859863 10.74804782867432 19.19810485839844 14.97310066223145 14.97306442260742 C 19.19814109802246 10.74802494049072 24.11772727966309 7.431051254272461 29.59519386291504 5.114277839660645 C 35.26534271240234 2.71602463722229 41.28937911987305 1.499997973442078 47.50000762939453 1.499997973442078 C 53.71063613891602 1.499997973442078 59.73467254638672 2.71602463722229 65.40482330322266 5.114277839660645 C 70.88228607177734 7.431051254272461 75.80187225341797 10.74802494049072 80.02691650390625 14.97306442260742 C 84.25196838378906 19.19810485839844 87.56893920898438 24.11767768859863 89.88571166992188 29.59514427185059 C 92.28398132324219 35.26527786254883 93.50000762939453 41.2893180847168 93.50000762939453 47.49993133544922 C 93.50000762939453 53.71054458618164 92.28398132324219 59.73458480834961 89.88571166992188 65.40471649169922 C 87.56893920898438 70.88218688964844 84.25196838378906 75.8017578125 80.02691650390625 80.02679443359375 C 75.80187225341797 84.25183868408203 70.88228607177734 87.56880950927734 65.40482330322266 89.88558197021484 C 59.73467254638672 92.28383636474609 53.71063613891602 93.49986267089844 47.50000762939453 93.49986267089844 Z" stroke="none"/>
                                                      <path d="M 47.50000762939453 2.999992370605469 C 41.4912223815918 2.999992370605469 35.66377639770508 4.1761474609375 30.17951202392578 6.495796203613281 C 24.88085174560547 8.736930847167969 20.12152862548828 11.94596099853516 16.03376007080078 16.03372955322266 C 11.94597625732422 20.12148284912109 8.736961364746094 24.88080596923828 6.495803833007812 30.17946624755859 C 4.176162719726562 35.66371536254883 3.000007629394531 41.49116134643555 3.000007629394531 47.49993133544922 C 3.000007629394531 53.50870132446289 4.176162719726562 59.33614730834961 6.495803833007812 64.82038879394531 C 8.736961364746094 70.11905670166016 11.94597625732422 74.87836456298828 16.03376007080078 78.96613311767578 C 20.12152862548828 83.05390167236328 24.88085174560547 86.26291656494141 30.17951202392578 88.50406646728516 C 35.66377639770508 90.82369995117188 41.4912223815918 91.99985504150391 47.50000762939453 91.99985504150391 C 53.50879287719727 91.99985504150391 59.33623886108398 90.82369995117188 64.82049560546875 88.50406646728516 C 70.11916351318359 86.26291656494141 74.87848663330078 83.05390167236328 78.96625518798828 78.96613311767578 C 83.05403900146484 74.87836456298828 86.26305389404297 70.11905670166016 88.50421142578125 64.82038879394531 C 90.8238525390625 59.33614730834961 92.00000762939453 53.50870132446289 92.00000762939453 47.49993133544922 C 92.00000762939453 41.49116134643555 90.8238525390625 35.66371536254883 88.50421142578125 30.17946624755859 C 86.26305389404297 24.88080596923828 83.05403900146484 20.12148284912109 78.96625518798828 16.03372955322266 C 74.87848663330078 11.94596099853516 70.11916351318359 8.736930847167969 64.82049560546875 6.495796203613281 C 59.33623886108398 4.1761474609375 53.50879287719727 2.999992370605469 47.50000762939453 2.999992370605469 M 47.50000762939453 -7.62939453125e-06 C 73.73352813720703 -7.62939453125e-06 95.00000762939453 21.26644134521484 95.00000762939453 47.49993133544922 C 95.00000762939453 73.73342132568359 73.73352813720703 94.99985504150391 47.50000762939453 94.99985504150391 C 21.26648712158203 94.99985504150391 7.62939453125e-06 73.73342132568359 7.62939453125e-06 47.49993133544922 C 7.62939453125e-06 21.26644134521484 21.26648712158203 -7.62939453125e-06 47.50000762939453 -7.62939453125e-06 Z" stroke="none" fill="#41a599"/>
                                                    </g>
                                                  </g>
                                                </g>
                                              </g>
                                            </g>
                                          </g>
                                        </g>
                                      </g>
                                    </g>
                                  </g>
                                </g>
                              </g>
                            </g>
                          </g>
                        </g>
                      </g>
                    </g>
                  </g>
                </g>
              </g>
            </g>
          </g>
        </g>
      </g>
    </g>
    <g id="Artboard21" transform="translate(250.304 3588)">
      <g id="Grupo_1241766" data-name="Grupo 1241766" transform="translate(52.613 7)">
        <g id="Grupo_1241765" data-name="Grupo 1241765" transform="translate(1.103 1.055)">
          <g id="Grupo_1241762" data-name="Grupo 1241762" transform="translate(0 12.34)">
            <g id="Grupo_1241758" data-name="Grupo 1241758" transform="translate(0 0)">
              <g id="CorelEMF">
                <path id="Trazado_1297105" data-name="Trazado 1297105" d="M61.84,104.23H93.958a1.183,1.183,0,0,1,.866.359l5.828,5.828a1.184,1.184,0,0,1,.359.866v44.079a1.224,1.224,0,0,1-1.221,1.221H61.84a1.224,1.224,0,0,1-1.224-1.221V105.454A1.227,1.227,0,0,1,61.84,104.23Z" transform="translate(-60.616 -104.23)" fill="#eceff1" fill-rule="evenodd"/>
                <path id="Trazado_1297106" data-name="Trazado 1297106" d="M306.3,104.993v5.828a.614.614,0,0,0,.612.612h5.828a1.228,1.228,0,0,0-.254-.359l-5.828-5.828A1.285,1.285,0,0,0,306.3,104.993Z" transform="translate(-272.455 -104.888)" fill="#a79ba7" fill-rule="evenodd"/>
                <path id="Trazado_1297107" data-name="Trazado 1297107" d="M61.84,104.23h1.221v52.353H61.84a1.224,1.224,0,0,1-1.224-1.221V105.454a1.227,1.227,0,0,1,1.224-1.224Z" transform="translate(-60.616 -104.23)" fill="#d1d1d6" fill-rule="evenodd"/>
              </g>
            </g>
            <g id="Grupo_1241759" data-name="Grupo 1241759" transform="translate(7.27 13.401)">
              <path id="Trazado_1297108" data-name="Trazado 1297108" d="M114.28,201.5h6.834a.894.894,0,0,1,.892.892v6.834a.894.894,0,0,1-.892.892H114.28a.894.894,0,0,1-.892-.892v-6.834A.894.894,0,0,1,114.28,201.5Z" transform="translate(-113.388 -201.5)" fill="#8ac9fe" fill-rule="evenodd"/>
              <path id="Trazado_1297109" data-name="Trazado 1297109" d="M161.462,201.5h1.1a.894.894,0,0,1,.892.892v6.834a.894.894,0,0,1-.892.892h-1.1a.894.894,0,0,0,.892-.892v-6.834A.894.894,0,0,0,161.462,201.5Z" transform="translate(-154.839 -201.5)" fill="#60b7ff" fill-rule="evenodd"/>
            </g>
            <g id="Grupo_1241760" data-name="Grupo 1241760" transform="translate(7.27 25.701)">
              <path id="Trazado_1297110" data-name="Trazado 1297110" d="M114.28,290.779h6.834a.894.894,0,0,1,.892.892V298.5a.894.894,0,0,1-.892.892H114.28a.894.894,0,0,1-.892-.892v-6.834A.894.894,0,0,1,114.28,290.779Z" transform="translate(-113.388 -290.779)" fill="#6cf5c2" fill-rule="evenodd"/>
              <path id="Trazado_1297111" data-name="Trazado 1297111" d="M161.462,290.779h1.1a.894.894,0,0,1,.892.892V298.5a.894.894,0,0,1-.892.892h-1.1a.894.894,0,0,0,.892-.892v-6.834A.894.894,0,0,0,161.462,290.779Z" transform="translate(-154.839 -290.779)" fill="#00e499" fill-rule="evenodd"/>
            </g>
            <g id="Grupo_1241761" data-name="Grupo 1241761" transform="translate(7.27 38.001)">
              <path id="Trazado_1297112" data-name="Trazado 1297112" d="M114.28,380.058h6.834a.9.9,0,0,1,.892.895v6.834a.894.894,0,0,1-.892.892H114.28a.894.894,0,0,1-.892-.892v-6.834A.9.9,0,0,1,114.28,380.058Z" transform="translate(-113.388 -380.058)" fill="#ffe177" fill-rule="evenodd"/>
              <path id="Trazado_1297113" data-name="Trazado 1297113" d="M161.462,380.058h1.1a.9.9,0,0,1,.892.895v6.834a.894.894,0,0,1-.892.892h-1.1a.894.894,0,0,0,.892-.892v-6.834A.9.9,0,0,0,161.462,380.058Z" transform="translate(-154.839 -380.058)" fill="#ffd064" fill-rule="evenodd"/>
            </g>
          </g>
          <g id="Grupo_1241763" data-name="Grupo 1241763" transform="translate(23.95 36.644)">
            <path id="Trazado_1297114" data-name="Trazado 1297114" d="M247.792,328.427a13.335,13.335,0,1,0-13.336-13.336A13.362,13.362,0,0,0,247.792,328.427Z" transform="translate(-234.456 -298.848)" fill="#fe646f" fill-rule="evenodd"/>
            <path id="Trazado_1297115" data-name="Trazado 1297115" d="M325.594,301.757a13.335,13.335,0,1,1,0,26.67c-.3,0-.605-.01-.9-.031a13.335,13.335,0,0,0,0-26.608C324.989,301.767,325.29,301.757,325.594,301.757Z" transform="translate(-312.258 -298.848)" fill="#fd4755" fill-rule="evenodd"/>
            <path id="Trazado_1297116" data-name="Trazado 1297116" d="M277.621,353.49a8.569,8.569,0,1,0-8.57-8.57A8.587,8.587,0,0,0,277.621,353.49Z" transform="translate(-264.285 -328.677)" fill="#eceff1" fill-rule="evenodd"/>
            <path id="Trazado_1297117" data-name="Trazado 1297117" d="M277.621,336.352c.2,0,.4.007.6.021a8.57,8.57,0,0,0,0,17.1c-.2.014-.4.021-.6.021a8.569,8.569,0,1,1,0-17.138Z" transform="translate(-264.285 -328.677)" fill="#d1d1d6" fill-rule="evenodd"/>
            <path id="Trazado_1297118" data-name="Trazado 1297118" d="M307.449,378.552a3.8,3.8,0,1,0-3.8-3.8A3.811,3.811,0,0,0,307.449,378.552Z" transform="translate(-294.113 -358.505)" fill="#fe646f" fill-rule="evenodd"/>
            <path id="Trazado_1297119" data-name="Trazado 1297119" d="M307.449,370.946a3.8,3.8,0,1,0,0,7.606,3.7,3.7,0,0,0,.6-.048,3.8,3.8,0,0,1,0-7.51A3.7,3.7,0,0,0,307.449,370.946Z" transform="translate(-294.113 -358.505)" fill="#fd4755" fill-rule="evenodd"/>
            <path id="Trazado_1297120" data-name="Trazado 1297120" d="M387.073,285.724l-4.679,4.681a.589.589,0,0,1-.554.162l-3.788-.817-.817-3.788a.586.586,0,0,1,.164-.554l4.679-4.679a.3.3,0,0,1,.508.15l.769,3.568,3.568.769a.3.3,0,0,1,.15.508Z" transform="translate(-357.551 -280.64)" fill="#e3a76f" fill-rule="evenodd"/>
            <path id="Trazado_1297121" data-name="Trazado 1297121" d="M390.941,313.529l-4.679,4.681a.589.589,0,0,1-.554.162l-3.788-.817-.214-.992,3.623.781a.591.591,0,0,0,.554-.164l4.291-4.293.617.133a.3.3,0,0,1,.15.508Z" transform="translate(-361.419 -308.445)" fill="#c48958" fill-rule="evenodd"/>
          </g>
          <g id="Grupo_1241764" data-name="Grupo 1241764" transform="translate(6.034)">
            <path id="Trazado_1297122" data-name="Trazado 1297122" d="M117.982,16.535a9.647,9.647,0,0,1,2.829,1.172l1.838-.815,2.166,2.166L124,20.9a9.647,9.647,0,0,1,1.172,2.829l1.876.722V27.51l-1.876.722A9.655,9.655,0,0,1,124,31.06l.815,1.838-2.166,2.167-1.838-.817a9.65,9.65,0,0,1-2.829,1.174L117.26,37.3H114.2l-.722-1.876a9.655,9.655,0,0,1-2.827-1.172l-1.838.817L106.642,32.9l.817-1.837a9.682,9.682,0,0,1-1.174-2.829l-1.874-.722V24.447l1.874-.722a9.651,9.651,0,0,1,1.174-2.829l-.817-1.838,2.167-2.166,1.837.815a9.679,9.679,0,0,1,2.829-1.172l.722-1.875h3.064Z" transform="translate(-104.411 -14.66)" fill="#ffe177" fill-rule="evenodd"/>
            <path id="Trazado_1297123" data-name="Trazado 1297123" d="M147.84,17.166l.618-.274,2.166,2.166-.815,1.838a9.647,9.647,0,0,1,1.172,2.829l1.876.722V27.51l-1.876.722a9.654,9.654,0,0,1-1.172,2.827l.815,1.838-2.166,2.167-.618-.274,1.893-1.893-.817-1.838a9.655,9.655,0,0,0,1.172-2.827l1.876-.722V24.447l-1.876-.722a9.648,9.648,0,0,0-1.172-2.829l.817-1.838Zm-13.5,0,.274-.274,1.837.815c-.13.072-.258.147-.384.226Zm9.447-.631a9.647,9.647,0,0,1,2.829,1.172l-.507.226a12.623,12.623,0,0,0-3.214-1.4l-.722-1.875h.892Zm-7.335,17.712-1.838.817-.274-.274,1.727-.767Q136.26,34.139,136.456,34.248Zm10.163,0a9.651,9.651,0,0,1-2.829,1.174l-.722,1.874h-.892l.722-1.874a12.654,12.654,0,0,0,3.215-1.4Z" transform="translate(-130.22 -14.66)" fill="#ffd064" fill-rule="evenodd"/>
            <path id="Trazado_1297124" data-name="Trazado 1297124" d="M151.842,56.544a5.547,5.547,0,1,1-5.547,5.548A5.548,5.548,0,0,1,151.842,56.544Z" transform="translate(-140.525 -50.774)" fill="#eceff1" fill-rule="evenodd"/>
            <path id="Trazado_1297125" data-name="Trazado 1297125" d="M151.842,56.544c.126,0,.251,0,.376.014a5.547,5.547,0,0,0,0,11.069c-.125.008-.25.012-.376.012a5.547,5.547,0,0,1,0-11.095Z" transform="translate(-140.525 -50.774)" fill="#d1d1d6" fill-rule="evenodd"/>
          </g>
        </g>
        <path id="Trazado_1297126" data-name="Trazado 1297126" d="M84.569,73.865H53.679A1.066,1.066,0,0,1,52.613,72.8V20.446a1.066,1.066,0,0,1,1.066-1.066h4.928V17.892a1.1,1.1,0,0,1,.706-1.029l1.353-.521a10.8,10.8,0,0,1,.858-2.069l-.589-1.325a1.1,1.1,0,0,1,.228-1.227l2.165-2.165a1.1,1.1,0,0,1,1.227-.228l1.325.589a10.732,10.732,0,0,1,2.067-.857l.523-1.355A1.1,1.1,0,0,1,69.5,7h3.063a1.1,1.1,0,0,1,1.029.707l.52,1.354a10.731,10.731,0,0,1,2.066.856L77.5,9.328a1.1,1.1,0,0,1,1.227.228l2.165,2.165a1.1,1.1,0,0,1,.228,1.226l-.587,1.326a10.712,10.712,0,0,1,.857,2.071l1.351.52a1.1,1.1,0,0,1,.706,1.029V19.38h4.077a1.066,1.066,0,0,1,.754.312l6.546,6.546a1.065,1.065,0,0,1,.312.754v20.4a14.206,14.206,0,0,1,2.071.834l4.341-4.343a1.1,1.1,0,0,1,1.857.547l.452,2.1a1.1,1.1,0,0,1,1.552,1.552l2.1.452a1.1,1.1,0,0,1,.547,1.857L103.7,54.737A14.29,14.29,0,0,1,84.569,73.865ZM58.758,21.512H54.745V71.734H81.4a14.367,14.367,0,0,1-4.083-6.141H75.012a1.066,1.066,0,1,1,0-2.132h1.767q-.119-.692-.17-1.4h-1.6a1.066,1.066,0,1,1,0-2.131h1.6a14.2,14.2,0,0,1,2.247-6.635h-3.85a1.066,1.066,0,1,1,0-2.131h5.537a14.448,14.448,0,0,1,1.556-1.4H75.012a1.066,1.066,0,1,1,0-2.132H85.925a14.3,14.3,0,0,1,7.083-.725V28.058H87.527a1.066,1.066,0,0,1-1.066-1.066V21.512H83.3a1.1,1.1,0,0,1-.555.472l-1.352.52a10.822,10.822,0,0,1-.857,2.066l.588,1.327a1.1,1.1,0,0,1-.228,1.226l-2.165,2.165a1.1,1.1,0,0,1-1.226.228l-1.325-.587a10.7,10.7,0,0,1-2.068.857l-.52,1.352a1.1,1.1,0,0,1-1.029.706H69.5a1.1,1.1,0,0,1-1.029-.706l-.52-1.351a10.8,10.8,0,0,1-2.07-.858l-1.327.588a1.1,1.1,0,0,1-1.226-.228l-2.165-2.165a1.1,1.1,0,0,1-.228-1.227l.589-1.325a10.791,10.791,0,0,1-.858-2.067l-1.353-.521a1.1,1.1,0,0,1-.555-.472ZM91.5,25.927l-2.908-2.908v2.908ZM96,50.085a12.1,12.1,0,1,0,5.838,5.852l-.037-.007-3.324-.717a9.6,9.6,0,1,1-1.752-1.758l-.715-3.313C96,50.123,96,50.1,96,50.085ZM102,48.373l-.324-1.5-3.392,3.394.324,1.5Zm-1.833,4.951,1.5.324,3.392-3.392-1.5-.324Zm-4.907,1.79a7.39,7.39,0,1,0,1.554,1.563l-1.8,1.8a4.865,4.865,0,1,1-1.552-1.565ZM91.827,58.55a2.659,2.659,0,1,0,1.545,1.572L91.665,61.83a1.1,1.1,0,0,1-1.559-1.559ZM72.254,10.376,71.8,9.2H70.255L69.8,10.377a1.1,1.1,0,0,1-.773.675,8.532,8.532,0,0,0-2.505,1.038,1.1,1.1,0,0,1-1.026.069l-1.147-.51-1.094,1.095.51,1.147a1.1,1.1,0,0,1-.069,1.026,8.606,8.606,0,0,0-1.042,2.51,1.1,1.1,0,0,1-.676.771l-1.169.45V20.2l1.169.45a1.1,1.1,0,0,1,.676.771A8.584,8.584,0,0,0,63.7,23.925a1.1,1.1,0,0,1,.07,1.027l-.51,1.146,1.1,1.1,1.147-.508a1.1,1.1,0,0,1,1.022.068,8.6,8.6,0,0,0,2.51,1.039,1.1,1.1,0,0,1,.775.677l.45,1.169H71.8l.45-1.169a1.1,1.1,0,0,1,.774-.676,8.49,8.49,0,0,0,2.5-1.037,1.1,1.1,0,0,1,1.026-.07l1.147.508,1.1-1.1-.508-1.147a1.1,1.1,0,0,1,.068-1.022,8.615,8.615,0,0,0,1.04-2.507,1.1,1.1,0,0,1,.676-.774l1.169-.45V18.649l-1.169-.45a1.1,1.1,0,0,1-.677-.775,8.517,8.517,0,0,0-1.038-2.507,1.1,1.1,0,0,1-.069-1.025l.508-1.147-1.1-1.1-1.147.51a1.1,1.1,0,0,1-1.026-.069,8.53,8.53,0,0,0-2.505-1.038,1.1,1.1,0,0,1-.774-.677Zm-1.226,2.6a6.446,6.446,0,1,1-6.444,6.444,6.445,6.445,0,0,1,6.444-6.444Zm0,2.2a4.241,4.241,0,1,0,4.243,4.24A4.239,4.239,0,0,0,71.029,15.182Zm-9.188,17.6h6.834a1.962,1.962,0,0,1,1.957,1.957v6.834a1.962,1.962,0,0,1-1.957,1.957H61.841a1.962,1.962,0,0,1-1.957-1.957V34.739A1.962,1.962,0,0,1,61.841,32.781Zm.174,2.131V41.4H68.5V34.913Zm.671,3.821a1.066,1.066,0,0,1,1.506-1.509l.661.66,1.392-1.722A1.066,1.066,0,0,1,67.9,37.5l-2.136,2.642a1.066,1.066,0,0,1-1.582.084Zm-.845,18.648h6.834a1.966,1.966,0,0,1,1.957,1.96v6.834a1.962,1.962,0,0,1-1.957,1.957H61.841a1.962,1.962,0,0,1-1.957-1.957V59.342A1.966,1.966,0,0,1,61.841,57.381Zm.174,2.132V66H68.5V59.513Zm.671,3.823a1.066,1.066,0,1,1,1.506-1.509l.661.66,1.392-1.722a1.066,1.066,0,0,1,1.658,1.34l-2.136,2.642a1.066,1.066,0,0,1-1.582.084ZM75.012,40.989a1.066,1.066,0,1,1,0-2.131h7.282a1.066,1.066,0,1,1,0,2.131ZM61.841,45.081h6.834a1.962,1.962,0,0,1,1.957,1.957v6.834a1.962,1.962,0,0,1-1.957,1.957H61.841a1.962,1.962,0,0,1-1.957-1.957V47.039A1.962,1.962,0,0,1,61.841,45.081Zm.174,2.132V53.7H68.5V47.213Zm.67,3.82a1.066,1.066,0,0,1,1.507-1.507l.661.661,1.391-1.721a1.066,1.066,0,0,1,1.658,1.34l-2.136,2.642a1.066,1.066,0,0,1-1.582.083Zm12.327-13.58a1.066,1.066,0,1,1,0-2.132H86.2a1.066,1.066,0,0,1,0,2.132Z" transform="translate(-52.613 -7)" fill-rule="evenodd"/>
      </g>
    </g>
  </g>
</svg>
