<svg xmlns="http://www.w3.org/2000/svg" xmlns:xlink="http://www.w3.org/1999/xlink" width="113" height="113" viewBox="0 0 113 113">
  <defs>
    <filter id="Trazado_982547" x="0" y="0" width="113" height="113" filterUnits="userSpaceOnUse">
      <feOffset dy="3" input="SourceAlpha"/>
      <feGaussianBlur stdDeviation="3" result="blur"/>
      <feFlood flood-opacity="0.161"/>
      <feComposite operator="in" in2="blur"/>
      <feComposite in="SourceGraphic"/>
    </filter>
  </defs>
  <g id="Grupo_1241795" data-name="Grupo 1241795" transform="translate(-585.8 -3579.167)">
    <g id="Grupo_1241178" data-name="Grupo 1241178" transform="translate(-84.69 -9104)">
      <g id="Grupo_1240427" data-name="Grupo 1240427" transform="translate(679.49 12689.167)">
        <g id="Grupo_1239780" data-name="Grupo 1239780" transform="translate(0 0)">
          <g id="Grupo_1236603" data-name="Grupo 1236603">
            <g id="Grupo_1236145" data-name="Grupo 1236145">
              <g id="Grupo_1235107" data-name="Grupo 1235107">
                <g id="Grupo_1223796" data-name="Grupo 1223796">
                  <g id="Grupo_1208038" data-name="Grupo 1208038">
                    <g id="Grupo_1202104" data-name="Grupo 1202104">
                      <g id="Grupo_1201923" data-name="Grupo 1201923">
                        <g id="Grupo_1176928" data-name="Grupo 1176928" transform="translate(0)">
                          <g id="Grupo_1172322" data-name="Grupo 1172322">
                            <g id="Grupo_1164700" data-name="Grupo 1164700">
                              <g id="Grupo_1160931" data-name="Grupo 1160931">
                                <g id="Grupo_1160749" data-name="Grupo 1160749">
                                  <g id="Grupo_1158891" data-name="Grupo 1158891">
                                    <g id="Grupo_1157406" data-name="Grupo 1157406">
                                      <g id="Grupo_1155793" data-name="Grupo 1155793">
                                        <g id="Grupo_1154704" data-name="Grupo 1154704">
                                          <g id="Grupo_1150790" data-name="Grupo 1150790">
                                            <g id="Grupo_1154214" data-name="Grupo 1154214" transform="translate(0)">
                                              <g id="Grupo_1152583" data-name="Grupo 1152583">
                                                <g id="Grupo_1146973" data-name="Grupo 1146973">
                                                  <g id="Grupo_1146954" data-name="Grupo 1146954">
                                                    <g transform="matrix(1, 0, 0, 1, -9, -6)" filter="url(#Trazado_982547)">
                                                      <g id="Trazado_982547-2" data-name="Trazado 982547" transform="translate(9 6)" fill="#c4e3df">
                                                        <path d="M 47.50000762939453 93.49986267089844 C 41.28937911987305 93.49986267089844 35.26534271240234 92.28383636474609 29.59519386291504 89.88558197021484 C 24.11772727966309 87.56880950927734 19.19814109802246 84.25183868408203 14.97310066223145 80.02679443359375 C 10.74804782867432 75.8017578125 7.431074142456055 70.88218688964844 5.114300727844238 65.40471649169922 C 2.716034412384033 59.73458480834961 1.500007629394531 53.71054458618164 1.500007629394531 47.49993133544922 C 1.500007629394531 41.2893180847168 2.716034412384033 35.26527786254883 5.114300727844238 29.59514427185059 C 7.431074142456055 24.11767768859863 10.74804782867432 19.19810485839844 14.97310066223145 14.97306442260742 C 19.19814109802246 10.74802494049072 24.11772727966309 7.431051254272461 29.59519386291504 5.114277839660645 C 35.26534271240234 2.71602463722229 41.28937911987305 1.499997973442078 47.50000762939453 1.499997973442078 C 53.71063613891602 1.499997973442078 59.73467254638672 2.71602463722229 65.40482330322266 5.114277839660645 C 70.88228607177734 7.431051254272461 75.80187225341797 10.74802494049072 80.02691650390625 14.97306442260742 C 84.25196838378906 19.19810485839844 87.56893920898438 24.11767768859863 89.88571166992188 29.59514427185059 C 92.28398132324219 35.26527786254883 93.50000762939453 41.2893180847168 93.50000762939453 47.49993133544922 C 93.50000762939453 53.71054458618164 92.28398132324219 59.73458480834961 89.88571166992188 65.40471649169922 C 87.56893920898438 70.88218688964844 84.25196838378906 75.8017578125 80.02691650390625 80.02679443359375 C 75.80187225341797 84.25183868408203 70.88228607177734 87.56880950927734 65.40482330322266 89.88558197021484 C 59.73467254638672 92.28383636474609 53.71063613891602 93.49986267089844 47.50000762939453 93.49986267089844 Z" stroke="none"/>
                                                        <path d="M 47.50000762939453 2.999992370605469 C 41.4912223815918 2.999992370605469 35.66377639770508 4.1761474609375 30.17951202392578 6.495796203613281 C 24.88085174560547 8.736930847167969 20.12152862548828 11.94596099853516 16.03376007080078 16.03372955322266 C 11.94597625732422 20.12148284912109 8.736961364746094 24.88080596923828 6.495803833007812 30.17946624755859 C 4.176162719726562 35.66371536254883 3.000007629394531 41.49116134643555 3.000007629394531 47.49993133544922 C 3.000007629394531 53.50870132446289 4.176162719726562 59.33614730834961 6.495803833007812 64.82038879394531 C 8.736961364746094 70.11905670166016 11.94597625732422 74.87836456298828 16.03376007080078 78.96613311767578 C 20.12152862548828 83.05390167236328 24.88085174560547 86.26291656494141 30.17951202392578 88.50406646728516 C 35.66377639770508 90.82369995117188 41.4912223815918 91.99985504150391 47.50000762939453 91.99985504150391 C 53.50879287719727 91.99985504150391 59.33623886108398 90.82369995117188 64.82049560546875 88.50406646728516 C 70.11916351318359 86.26291656494141 74.87848663330078 83.05390167236328 78.96625518798828 78.96613311767578 C 83.05403900146484 74.87836456298828 86.26305389404297 70.11905670166016 88.50421142578125 64.82038879394531 C 90.8238525390625 59.33614730834961 92.00000762939453 53.50870132446289 92.00000762939453 47.49993133544922 C 92.00000762939453 41.49116134643555 90.8238525390625 35.66371536254883 88.50421142578125 30.17946624755859 C 86.26305389404297 24.88080596923828 83.05403900146484 20.12148284912109 78.96625518798828 16.03372955322266 C 74.87848663330078 11.94596099853516 70.11916351318359 8.736930847167969 64.82049560546875 6.495796203613281 C 59.33623886108398 4.1761474609375 53.50879287719727 2.999992370605469 47.50000762939453 2.999992370605469 M 47.50000762939453 -7.62939453125e-06 C 73.73352813720703 -7.62939453125e-06 95.00000762939453 21.26644134521484 95.00000762939453 47.49993133544922 C 95.00000762939453 73.73342132568359 73.73352813720703 94.99985504150391 47.50000762939453 94.99985504150391 C 21.26648712158203 94.99985504150391 7.62939453125e-06 73.73342132568359 7.62939453125e-06 47.49993133544922 C 7.62939453125e-06 21.26644134521484 21.26648712158203 -7.62939453125e-06 47.50000762939453 -7.62939453125e-06 Z" stroke="none" fill="#41a599"/>
                                                      </g>
                                                    </g>
                                                  </g>
                                                </g>
                                              </g>
                                            </g>
                                          </g>
                                        </g>
                                      </g>
                                    </g>
                                  </g>
                                </g>
                              </g>
                            </g>
                          </g>
                        </g>
                      </g>
                    </g>
                  </g>
                </g>
              </g>
            </g>
          </g>
        </g>
      </g>
    </g>
    <g id="lista-de-verificacion_8_" data-name="lista-de-verificacion (8)" transform="translate(578.01 3602.128)">
      <g id="Grupo_1241768" data-name="Grupo 1241768" transform="translate(39.785 0.895)">
        <path id="Trazado_1297127" data-name="Trazado 1297127" d="M88.809,66.789H48.319a1.928,1.928,0,0,1-1.928-1.928V9.428A1.928,1.928,0,0,1,48.319,7.5h40.49a1.928,1.928,0,0,1,1.928,1.928V64.861a1.928,1.928,0,0,1-1.928,1.928Z" transform="translate(-46.391 -7.5)" fill="#ecf4ff"/>
      </g>
      <g id="Grupo_1241769" data-name="Grupo 1241769" transform="translate(79.793 0.895)">
        <path id="Trazado_1297128" data-name="Trazado 1297128" d="M384.175,7.5h-2.41a1.928,1.928,0,0,1,1.928,1.928V64.861a1.928,1.928,0,0,1-1.928,1.928h2.41a1.928,1.928,0,0,0,1.928-1.928V9.428A1.928,1.928,0,0,0,384.175,7.5Z" transform="translate(-381.765 -7.5)" fill="#ddeafb"/>
      </g>
      <g id="Grupo_1241788" data-name="Grupo 1241788" transform="translate(44.485 8.607)">
        <g id="Grupo_1241775" data-name="Grupo 1241775" transform="translate(0)">
          <g id="Grupo_1241774" data-name="Grupo 1241774">
            <g id="Grupo_1241773" data-name="Grupo 1241773">
              <g id="Grupo_1241772" data-name="Grupo 1241772">
                <g id="Grupo_1241770" data-name="Grupo 1241770" transform="translate(0)">
                  <path id="Trazado_1297129" data-name="Trazado 1297129" d="M96.117,84.2H87.51a1.722,1.722,0,0,1-1.722-1.722V73.872A1.722,1.722,0,0,1,87.51,72.15h8.608a1.722,1.722,0,0,1,1.722,1.722v8.608A1.722,1.722,0,0,1,96.117,84.2Z" transform="translate(-85.788 -72.15)" fill="#b3e59f"/>
                </g>
                <g id="Grupo_1241771" data-name="Grupo 1241771" transform="translate(0 0.007)">
                  <path id="Trazado_1297130" data-name="Trazado 1297130" d="M96.262,72.212q.027.359.027.724a9.425,9.425,0,0,1-9.425,9.425,9.533,9.533,0,0,1-1.076-.061v.234a1.722,1.722,0,0,0,1.722,1.722h8.608a1.722,1.722,0,0,0,1.722-1.722V73.926A1.721,1.721,0,0,0,96.262,72.212Z" transform="translate(-85.788 -72.212)" fill="#95d6a4"/>
                </g>
              </g>
            </g>
          </g>
        </g>
        <g id="Grupo_1241781" data-name="Grupo 1241781" transform="translate(0 15.907)">
          <g id="Grupo_1241780" data-name="Grupo 1241780">
            <g id="Grupo_1241779" data-name="Grupo 1241779">
              <g id="Grupo_1241778" data-name="Grupo 1241778">
                <g id="Grupo_1241776" data-name="Grupo 1241776" transform="translate(0)">
                  <path id="Trazado_1297131" data-name="Trazado 1297131" d="M96.117,217.543H87.51a1.722,1.722,0,0,1-1.722-1.722v-8.608a1.722,1.722,0,0,1,1.722-1.722h8.608a1.722,1.722,0,0,1,1.722,1.722v8.608A1.722,1.722,0,0,1,96.117,217.543Z" transform="translate(-85.788 -205.492)" fill="#b3e59f"/>
                </g>
                <g id="Grupo_1241777" data-name="Grupo 1241777" transform="translate(0 0.007)">
                  <path id="Trazado_1297132" data-name="Trazado 1297132" d="M96.262,205.553q.027.359.027.724a9.426,9.426,0,0,1-10.5,9.364v.234A1.722,1.722,0,0,0,87.51,217.6h8.608a1.722,1.722,0,0,0,1.722-1.722v-8.608A1.721,1.721,0,0,0,96.262,205.553Z" transform="translate(-85.788 -205.553)" fill="#95d6a4"/>
                </g>
              </g>
            </g>
          </g>
        </g>
        <g id="Grupo_1241787" data-name="Grupo 1241787" transform="translate(0 31.814)">
          <g id="Grupo_1241786" data-name="Grupo 1241786">
            <g id="Grupo_1241785" data-name="Grupo 1241785">
              <g id="Grupo_1241784" data-name="Grupo 1241784">
                <g id="Grupo_1241782" data-name="Grupo 1241782" transform="translate(0)">
                  <path id="Trazado_1297133" data-name="Trazado 1297133" d="M96.117,350.885H87.51a1.722,1.722,0,0,1-1.722-1.722v-8.608a1.722,1.722,0,0,1,1.722-1.722h8.608a1.722,1.722,0,0,1,1.722,1.722v8.608A1.722,1.722,0,0,1,96.117,350.885Z" transform="translate(-85.788 -338.834)" fill="#b3e59f"/>
                </g>
                <g id="Grupo_1241783" data-name="Grupo 1241783" transform="translate(0 0.007)">
                  <path id="Trazado_1297134" data-name="Trazado 1297134" d="M96.262,338.895q.027.359.027.724a9.426,9.426,0,0,1-10.5,9.364v.234a1.722,1.722,0,0,0,1.722,1.722h8.608a1.722,1.722,0,0,0,1.722-1.722v-8.608a1.721,1.721,0,0,0-1.577-1.714Z" transform="translate(-85.788 -338.895)" fill="#95d6a4"/>
                </g>
              </g>
            </g>
          </g>
        </g>
      </g>
      <g id="Grupo_1241793" data-name="Grupo 1241793" transform="translate(70.285 29.34)">
        <g id="Grupo_1241789" data-name="Grupo 1241789" transform="translate(0)">
          <path id="Trazado_1297135" data-name="Trazado 1297135" d="M304.63,275.812l-2.255.979-.28-2.442a4.821,4.821,0,0,1,.615-2.958l14.69-25.443,4.174,2.41L306.884,273.8A4.82,4.82,0,0,1,304.63,275.812Z" transform="translate(-302.064 -245.947)" fill="#4a80aa"/>
        </g>
        <g id="Grupo_1241790" data-name="Grupo 1241790" transform="translate(0.104 1.326)">
          <path id="Trazado_1297136" data-name="Trazado 1297136" d="M320.46,257.059,305.77,282.5a4.82,4.82,0,0,1-2.255,2.011l-.584.253.207,1.81,2.255-.979a4.82,4.82,0,0,0,2.255-2.011l14.69-25.443Z" transform="translate(-302.932 -257.059)" fill="#407093"/>
        </g>
        <g id="Grupo_1241791" data-name="Grupo 1241791" transform="translate(11.237 3.758)">
          <path id="Trazado_1297137" data-name="Trazado 1297137" d="M0,0H3.856V4.82H0Z" transform="matrix(0.5, -0.866, 0.866, 0.5, 0, 3.339)" fill="#ffe07d"/>
        </g>
        <g id="Grupo_1241792" data-name="Grupo 1241792" transform="translate(13.533 5.084)">
          <path id="Trazado_1297138" data-name="Trazado 1297138" d="M0,0H3.856V2.169H0Z" transform="matrix(0.5, -0.866, 0.866, 0.5, 0, 3.339)" fill="#ffd064"/>
        </g>
      </g>
      <g id="Grupo_1241794" data-name="Grupo 1241794" transform="translate(38.89 0)">
        <path id="Trazado_1297139" data-name="Trazado 1297139" d="M39.785,49.191a.9.9,0,0,0,.895-.895V2.823a1.034,1.034,0,0,1,1.033-1.033H82.2a1.034,1.034,0,0,1,1.033,1.033V12.3a.895.895,0,1,0,1.789,0V2.823A2.826,2.826,0,0,0,82.2,0H41.712A2.826,2.826,0,0,0,38.89,2.823V48.3A.9.9,0,0,0,39.785,49.191Z" transform="translate(-38.89 0)"/>
        <path id="Trazado_1297140" data-name="Trazado 1297140" d="M92.127,67.266a2.619,2.619,0,0,0-2.616-2.616H80.9a2.619,2.619,0,0,0-2.616,2.616v8.608A2.619,2.619,0,0,0,80.9,78.49h8.608a2.619,2.619,0,0,0,2.616-2.616Zm-1.789,8.608a.828.828,0,0,1-.827.827H80.9a.828.828,0,0,1-.827-.827V67.266a.828.828,0,0,1,.827-.827h8.608a.828.828,0,0,1,.827.827Z" transform="translate(-73.587 -56.938)"/>
        <path id="Trazado_1297141" data-name="Trazado 1297141" d="M115.455,102.626l-2.42,2.42-.894-.894a.895.895,0,1,0-1.265,1.265l1.526,1.526a.895.895,0,0,0,1.265,0l3.053-3.053a.895.895,0,1,0-1.265-1.265Z" transform="translate(-102.057 -90.153)"/>
        <path id="Trazado_1297142" data-name="Trazado 1297142" d="M226.666,114.928h14.1a.895.895,0,1,0,0-1.789h-14.1a.895.895,0,0,0,0,1.789Z" transform="translate(-203.477 -99.642)"/>
        <path id="Trazado_1297143" data-name="Trazado 1297143" d="M308.964,80.813h-8.556a.895.895,0,1,0,0,1.789h8.556a.895.895,0,0,0,0-1.789Z" transform="translate(-268.422 -71.172)"/>
        <path id="Trazado_1297144" data-name="Trazado 1297144" d="M226.666,82.6h4.579a.895.895,0,1,0,0-1.789h-4.579a.895.895,0,1,0,0,1.789Z" transform="translate(-203.477 -71.172)"/>
        <path id="Trazado_1297145" data-name="Trazado 1297145" d="M272.123,145.464a.895.895,0,1,0,0,1.789h4.7a.895.895,0,1,0,0-1.789Z" transform="translate(-243.511 -128.111)"/>
        <path id="Trazado_1297146" data-name="Trazado 1297146" d="M226.666,147.253h1.205a.895.895,0,1,0,0-1.789h-1.205a.895.895,0,0,0,0,1.789Z" transform="translate(-203.477 -128.111)"/>
        <path id="Trazado_1297147" data-name="Trazado 1297147" d="M92.127,200.608a2.619,2.619,0,0,0-2.616-2.616H80.9a2.619,2.619,0,0,0-2.616,2.616v8.608a2.619,2.619,0,0,0,2.616,2.616h8.608a2.619,2.619,0,0,0,2.616-2.616Zm-1.789,8.608a.828.828,0,0,1-.827.827H80.9a.828.828,0,0,1-.827-.827v-8.608a.828.828,0,0,1,.827-.827h8.608a.828.828,0,0,1,.827.827Z" transform="translate(-73.587 -174.373)"/>
        <path id="Trazado_1297148" data-name="Trazado 1297148" d="M115.455,235.967l-2.42,2.42-.894-.894a.895.895,0,0,0-1.265,1.265l1.526,1.526a.895.895,0,0,0,1.265,0l3.053-3.053a.895.895,0,0,0-1.265-1.265Z" transform="translate(-102.057 -207.587)"/>
        <path id="Trazado_1297149" data-name="Trazado 1297149" d="M241.66,247.374a.9.9,0,0,0-.895-.895h-14.1a.895.895,0,0,0,0,1.789h14.1A.9.9,0,0,0,241.66,247.374Z" transform="translate(-203.477 -217.075)"/>
        <path id="Trazado_1297150" data-name="Trazado 1297150" d="M309.858,215.049a.9.9,0,0,0-.895-.895h-8.556a.895.895,0,1,0,0,1.789h8.556A.9.9,0,0,0,309.858,215.049Z" transform="translate(-268.422 -188.607)"/>
        <path id="Trazado_1297151" data-name="Trazado 1297151" d="M226.666,215.943h4.579a.895.895,0,1,0,0-1.789h-4.579a.895.895,0,1,0,0,1.789Z" transform="translate(-203.477 -188.607)"/>
        <path id="Trazado_1297152" data-name="Trazado 1297152" d="M277.718,279.7a.9.9,0,0,0-.895-.895h-4.7a.895.895,0,1,0,0,1.789h4.7A.9.9,0,0,0,277.718,279.7Z" transform="translate(-243.512 -245.545)"/>
        <path id="Trazado_1297153" data-name="Trazado 1297153" d="M226.666,280.594h1.205a.895.895,0,1,0,0-1.789h-1.205a.895.895,0,0,0,0,1.789Z" transform="translate(-203.477 -245.545)"/>
        <path id="Trazado_1297154" data-name="Trazado 1297154" d="M89.511,331.333H80.9a2.619,2.619,0,0,0-2.616,2.616v8.608a2.619,2.619,0,0,0,2.616,2.616h8.608a2.619,2.619,0,0,0,2.616-2.616v-8.608A2.619,2.619,0,0,0,89.511,331.333Zm.827,11.224a.828.828,0,0,1-.827.827H80.9a.828.828,0,0,1-.827-.827v-8.608a.828.828,0,0,1,.827-.827h8.608a.828.828,0,0,1,.827.827Z" transform="translate(-73.587 -291.807)"/>
        <path id="Trazado_1297155" data-name="Trazado 1297155" d="M115.455,369.308l-2.42,2.42-.894-.894a.895.895,0,0,0-1.265,1.265l1.526,1.526a.895.895,0,0,0,1.265,0l3.053-3.053a.895.895,0,0,0-1.265-1.265Z" transform="translate(-102.057 -325.021)"/>
        <path id="Trazado_1297156" data-name="Trazado 1297156" d="M226.666,349.285h4.579a.895.895,0,0,0,0-1.789h-4.579a.895.895,0,0,0,0,1.789Z" transform="translate(-203.477 -306.042)"/>
        <path id="Trazado_1297157" data-name="Trazado 1297157" d="M227.871,413.935a.895.895,0,0,0,0-1.789h-1.205a.895.895,0,0,0,0,1.789Z" transform="translate(-203.477 -362.979)"/>
        <path id="Trazado_1297158" data-name="Trazado 1297158" d="M90.659,146.574a.9.9,0,0,0-.417-.543l-4.174-2.41a.9.9,0,0,0-1.043.107V131.535a.895.895,0,0,0-1.789,0v15.2l-5.643,9.773H70.875a.895.895,0,1,0,0,1.789h5.685l-1.193,2.066H62.078a.895.895,0,1,0,0,1.789H74.334l-1.193,2.067H67.5a.895.895,0,1,0,0,1.789h4.607l-1.952,3.38a5.671,5.671,0,0,0-.728,3.507l.165,1.446H41.713a1.034,1.034,0,0,1-1.033-1.033v-5.785a.895.895,0,1,0-1.789,0v5.785a2.826,2.826,0,0,0,2.823,2.822H82.2a2.826,2.826,0,0,0,2.822-2.822V156.856l5.544-9.6a.894.894,0,0,0,.089-.679Zm-5.289,6.106-2.624-1.515,1.033-1.79L86.4,150.89Zm-2.134,20.631a1.034,1.034,0,0,1-1.033,1.033H74.441A5.74,5.74,0,0,0,75.88,172.7l3.5-6.061a.895.895,0,0,0-1.55-.895l-3.5,6.061a3.954,3.954,0,0,1-1.836,1.638l-1.146.5-.142-1.242a3.9,3.9,0,0,1,.5-2.409l10.145-17.572,2.624,1.515-4.558,7.894a.895.895,0,0,0,1.55.895l1.769-3.063v13.356ZM87.3,149.341l-2.624-1.515,1.274-2.207,2.624,1.515Z" transform="translate(-38.89 -115.055)"/>
      </g>
    </g>
  </g>
</svg>
