<svg xmlns="http://www.w3.org/2000/svg" xmlns:xlink="http://www.w3.org/1999/xlink" width="113" height="113" viewBox="0 0 113 113">
  <defs>
    <filter id="Trazado_982547" x="0" y="0" width="113" height="113" filterUnits="userSpaceOnUse">
      <feOffset dy="3" input="SourceAlpha"/>
      <feGaussianBlur stdDeviation="3" result="blur"/>
      <feFlood flood-opacity="0.161"/>
      <feComposite operator="in" in2="blur"/>
      <feComposite in="SourceGraphic"/>
    </filter>
  </defs>
  <g id="Grupo_1241797" data-name="Grupo 1241797" transform="translate(-900.8 -3579.168)">
    <g id="Grupo_1241179" data-name="Grupo 1241179" transform="translate(545.456 -9104)">
      <g id="Grupo_1240425" data-name="Grupo 1240425" transform="translate(364.344 12689.168)">
        <g id="Grupo_1239772" data-name="Grupo 1239772" transform="translate(0 0)">
          <g id="Grupo_1236602" data-name="Grupo 1236602">
            <g id="Grupo_1236144" data-name="Grupo 1236144">
              <g id="Grupo_1235105" data-name="Grupo 1235105">
                <g id="Grupo_1223793" data-name="Grupo 1223793">
                  <g id="Grupo_1208028" data-name="Grupo 1208028">
                    <g id="Grupo_1177675" data-name="Grupo 1177675">
                      <g id="Grupo_1176928" data-name="Grupo 1176928" transform="translate(0)">
                        <g id="Grupo_1172322" data-name="Grupo 1172322">
                          <g id="Grupo_1164700" data-name="Grupo 1164700">
                            <g id="Grupo_1160931" data-name="Grupo 1160931">
                              <g id="Grupo_1160749" data-name="Grupo 1160749">
                                <g id="Grupo_1158891" data-name="Grupo 1158891">
                                  <g id="Grupo_1157406" data-name="Grupo 1157406">
                                    <g id="Grupo_1155793" data-name="Grupo 1155793">
                                      <g id="Grupo_1154704" data-name="Grupo 1154704">
                                        <g id="Grupo_1150790" data-name="Grupo 1150790">
                                          <g id="Grupo_1154214" data-name="Grupo 1154214" transform="translate(0)">
                                            <g id="Grupo_1152583" data-name="Grupo 1152583">
                                              <g id="Grupo_1146973" data-name="Grupo 1146973">
                                                <g id="Grupo_1146954" data-name="Grupo 1146954">
                                                  <g transform="matrix(1, 0, 0, 1, -9, -6)" filter="url(#Trazado_982547)">
                                                    <g id="Trazado_982547-2" data-name="Trazado 982547" transform="translate(9 6)" fill="#c4e3df">
                                                      <path d="M 47.50000762939453 93.49986267089844 C 41.28937911987305 93.49986267089844 35.26534271240234 92.28383636474609 29.59519386291504 89.88558197021484 C 24.11772727966309 87.56880950927734 19.19814109802246 84.25183868408203 14.97310066223145 80.02679443359375 C 10.74804782867432 75.8017578125 7.431074142456055 70.88218688964844 5.114300727844238 65.40471649169922 C 2.716034412384033 59.73458480834961 1.500007629394531 53.71054458618164 1.500007629394531 47.49993133544922 C 1.500007629394531 41.2893180847168 2.716034412384033 35.26527786254883 5.114300727844238 29.59514427185059 C 7.431074142456055 24.11767768859863 10.74804782867432 19.19810485839844 14.97310066223145 14.97306442260742 C 19.19814109802246 10.74802494049072 24.11772727966309 7.431051254272461 29.59519386291504 5.114277839660645 C 35.26534271240234 2.71602463722229 41.28937911987305 1.499997973442078 47.50000762939453 1.499997973442078 C 53.71063613891602 1.499997973442078 59.73467254638672 2.71602463722229 65.40482330322266 5.114277839660645 C 70.88228607177734 7.431051254272461 75.80187225341797 10.74802494049072 80.02691650390625 14.97306442260742 C 84.25196838378906 19.19810485839844 87.56893920898438 24.11767768859863 89.88571166992188 29.59514427185059 C 92.28398132324219 35.26527786254883 93.50000762939453 41.2893180847168 93.50000762939453 47.49993133544922 C 93.50000762939453 53.71054458618164 92.28398132324219 59.73458480834961 89.88571166992188 65.40471649169922 C 87.56893920898438 70.88218688964844 84.25196838378906 75.8017578125 80.02691650390625 80.02679443359375 C 75.80187225341797 84.25183868408203 70.88228607177734 87.56880950927734 65.40482330322266 89.88558197021484 C 59.73467254638672 92.28383636474609 53.71063613891602 93.49986267089844 47.50000762939453 93.49986267089844 Z" stroke="none"/>
                                                      <path d="M 47.50000762939453 2.999992370605469 C 41.4912223815918 2.999992370605469 35.66377639770508 4.1761474609375 30.17951202392578 6.495796203613281 C 24.88085174560547 8.736930847167969 20.12152862548828 11.94596099853516 16.03376007080078 16.03372955322266 C 11.94597625732422 20.12148284912109 8.736961364746094 24.88080596923828 6.495803833007812 30.17946624755859 C 4.176162719726562 35.66371536254883 3.000007629394531 41.49116134643555 3.000007629394531 47.49993133544922 C 3.000007629394531 53.50870132446289 4.176162719726562 59.33614730834961 6.495803833007812 64.82038879394531 C 8.736961364746094 70.11905670166016 11.94597625732422 74.87836456298828 16.03376007080078 78.96613311767578 C 20.12152862548828 83.05390167236328 24.88085174560547 86.26291656494141 30.17951202392578 88.50406646728516 C 35.66377639770508 90.82369995117188 41.4912223815918 91.99985504150391 47.50000762939453 91.99985504150391 C 53.50879287719727 91.99985504150391 59.33623886108398 90.82369995117188 64.82049560546875 88.50406646728516 C 70.11916351318359 86.26291656494141 74.87848663330078 83.05390167236328 78.96625518798828 78.96613311767578 C 83.05403900146484 74.87836456298828 86.26305389404297 70.11905670166016 88.50421142578125 64.82038879394531 C 90.8238525390625 59.33614730834961 92.00000762939453 53.50870132446289 92.00000762939453 47.49993133544922 C 92.00000762939453 41.49116134643555 90.8238525390625 35.66371536254883 88.50421142578125 30.17946624755859 C 86.26305389404297 24.88080596923828 83.05403900146484 20.12148284912109 78.96625518798828 16.03372955322266 C 74.87848663330078 11.94596099853516 70.11916351318359 8.736930847167969 64.82049560546875 6.495796203613281 C 59.33623886108398 4.1761474609375 53.50879287719727 2.999992370605469 47.50000762939453 2.999992370605469 M 47.50000762939453 -7.62939453125e-06 C 73.73352813720703 -7.62939453125e-06 95.00000762939453 21.26644134521484 95.00000762939453 47.49993133544922 C 95.00000762939453 73.73342132568359 73.73352813720703 94.99985504150391 47.50000762939453 94.99985504150391 C 21.26648712158203 94.99985504150391 7.62939453125e-06 73.73342132568359 7.62939453125e-06 47.49993133544922 C 7.62939453125e-06 21.26644134521484 21.26648712158203 -7.62939453125e-06 47.50000762939453 -7.62939453125e-06 Z" stroke="none" fill="#41a599"/>
                                                    </g>
                                                  </g>
                                                </g>
                                              </g>
                                            </g>
                                          </g>
                                        </g>
                                      </g>
                                    </g>
                                  </g>
                                </g>
                              </g>
                            </g>
                          </g>
                        </g>
                      </g>
                    </g>
                  </g>
                </g>
              </g>
            </g>
          </g>
        </g>
      </g>
    </g>
    <g id="verificado_1_" data-name="verificado (1)" transform="translate(925 3601)">
      <path id="Trazado_1297159" data-name="Trazado 1297159" d="M10,2H54V62H10Z" fill="#c8cded"/>
      <path id="Trazado_1297160" data-name="Trazado 1297160" d="M51,58V2H10V60H49A2,2,0,0,0,51,58Z" fill="#e2e7f6"/>
      <path id="Trazado_1297161" data-name="Trazado 1297161" d="M15,33H49v2H15Z" fill="#c8cded"/>
      <path id="Trazado_1297162" data-name="Trazado 1297162" d="M15,37H49v2H15Z" fill="#c8cded"/>
      <path id="Trazado_1297163" data-name="Trazado 1297163" d="M23,42h3l4-4V32h1a3,3,0,0,1,3,3v7h8a2,2,0,0,1,2,2V56a2,2,0,0,1-2,2H30l-4-2H23Z" fill="#f2b9a1"/>
      <path id="Trazado_1297164" data-name="Trazado 1297164" d="M10,57H23V41H10" fill="#3b5892"/>
      <path id="Trazado_1297165" data-name="Trazado 1297165" d="M20,52V41H10V54h8A2,2,0,0,0,20,52Z" fill="#4c6cb5"/>
      <g id="Grupo_1241796" data-name="Grupo 1241796">
        <path id="Trazado_1297166" data-name="Trazado 1297166" d="M35,53h9v2H35Z" fill="#e29f88"/>
        <path id="Trazado_1297167" data-name="Trazado 1297167" d="M35,49h9v2H35Z" fill="#e29f88"/>
        <path id="Trazado_1297168" data-name="Trazado 1297168" d="M35,45h9v2H35Z" fill="#e29f88"/>
      </g>
      <circle id="Elipse_12520" data-name="Elipse 12520" cx="11" cy="11" r="11" transform="translate(21 6)" fill="#559b2d"/>
      <path id="Trazado_1297169" data-name="Trazado 1297169" d="M25,19l4,4L39,13l-2-2-8,8-2-2Z" fill="#f2f2f2"/>
      <path id="Trazado_1297170" data-name="Trazado 1297170" d="M54,1H10A1,1,0,0,0,9,2V62a1,1,0,0,0,1,1H54a1,1,0,0,0,1-1V2A1,1,0,0,0,54,1ZM11,42H22V56H11ZM53,61H11V58H23a1,1,0,0,0,1-1h1.764l3.789,1.9A1,1,0,0,0,30,59H42a3,3,0,0,0,3-3V44a3,3,0,0,0-3-3H35V39H49V37H35V35H49V33H34.444A3.987,3.987,0,0,0,31,31H30a1,1,0,0,0-1,1v1H15v2H29v2H15v2H27.586l-2,2H24a1,1,0,0,0-1-1H11V3H53ZM24,43h2a1,1,0,0,0,.707-.293l4-4A1,1,0,0,0,31,38V33a2,2,0,0,1,2,2v7a1,1,0,0,0,1,1h8a1,1,0,0,1,1,1v1H35v2h8v2H35v2h8v2H35v2h8v1a1,1,0,0,1-1,1H30.236l-3.789-1.9A1,1,0,0,0,26,55H24Z"/>
      <path id="Trazado_1297171" data-name="Trazado 1297171" d="M32,29A12,12,0,1,0,20,17,12,12,0,0,0,32,29ZM32,7A10,10,0,1,1,22,17,10,10,0,0,1,32,7Z"/>
      <path id="Trazado_1297172" data-name="Trazado 1297172" d="M29,24a1,1,0,0,0,.707-.293l10-10a1,1,0,0,0,0-1.414l-2-2a1,1,0,0,0-1.414,0L29,17.586l-1.293-1.293a1,1,0,0,0-1.414,0l-2,2a1,1,0,0,0,0,1.414l4,4A1,1,0,0,0,29,24Zm-2-5.586,1.293,1.293a1,1,0,0,0,1.414,0L37,12.414l.586.586L29,21.586,26.414,19Z"/>
    </g>
  </g>
</svg>
