<svg xmlns="http://www.w3.org/2000/svg" xmlns:xlink="http://www.w3.org/1999/xlink" width="113" height="113" viewBox="0 0 113 113">
  <defs>
    <filter id="Trazado_982547" x="0" y="0" width="113" height="113" filterUnits="userSpaceOnUse">
      <feOffset dy="3" input="SourceAlpha"/>
      <feGaussianBlur stdDeviation="3" result="blur"/>
      <feFlood flood-opacity="0.161"/>
      <feComposite operator="in" in2="blur"/>
      <feComposite in="SourceGraphic"/>
    </filter>
  </defs>
  <g id="Grupo_1241801" data-name="Grupo 1241801" transform="translate(-1215.8 -3579.167)">
    <g id="Grupo_1241180" data-name="Grupo 1241180" transform="translate(545.31 -9104)">
      <g id="Grupo_1240427" data-name="Grupo 1240427" transform="translate(679.49 12689.167)">
        <g id="Grupo_1239780" data-name="Grupo 1239780" transform="translate(0 0)">
          <g id="Grupo_1236603" data-name="Grupo 1236603">
            <g id="Grupo_1236145" data-name="Grupo 1236145">
              <g id="Grupo_1235107" data-name="Grupo 1235107">
                <g id="Grupo_1223796" data-name="Grupo 1223796">
                  <g id="Grupo_1208038" data-name="Grupo 1208038">
                    <g id="Grupo_1202104" data-name="Grupo 1202104">
                      <g id="Grupo_1201923" data-name="Grupo 1201923">
                        <g id="Grupo_1176928" data-name="Grupo 1176928" transform="translate(0)">
                          <g id="Grupo_1172322" data-name="Grupo 1172322">
                            <g id="Grupo_1164700" data-name="Grupo 1164700">
                              <g id="Grupo_1160931" data-name="Grupo 1160931">
                                <g id="Grupo_1160749" data-name="Grupo 1160749">
                                  <g id="Grupo_1158891" data-name="Grupo 1158891">
                                    <g id="Grupo_1157406" data-name="Grupo 1157406">
                                      <g id="Grupo_1155793" data-name="Grupo 1155793">
                                        <g id="Grupo_1154704" data-name="Grupo 1154704">
                                          <g id="Grupo_1150790" data-name="Grupo 1150790">
                                            <g id="Grupo_1154214" data-name="Grupo 1154214" transform="translate(0)">
                                              <g id="Grupo_1152583" data-name="Grupo 1152583">
                                                <g id="Grupo_1146973" data-name="Grupo 1146973">
                                                  <g id="Grupo_1146954" data-name="Grupo 1146954">
                                                    <g transform="matrix(1, 0, 0, 1, -9, -6)" filter="url(#Trazado_982547)">
                                                      <g id="Trazado_982547-2" data-name="Trazado 982547" transform="translate(9 6)" fill="#c4e3df">
                                                        <path d="M 47.50000762939453 93.49986267089844 C 41.28937911987305 93.49986267089844 35.26534271240234 92.28383636474609 29.59519386291504 89.88558197021484 C 24.11772727966309 87.56880950927734 19.19814109802246 84.25183868408203 14.97310066223145 80.02679443359375 C 10.74804782867432 75.8017578125 7.431074142456055 70.88218688964844 5.114300727844238 65.40471649169922 C 2.716034412384033 59.73458480834961 1.500007629394531 53.71054458618164 1.500007629394531 47.49993133544922 C 1.500007629394531 41.2893180847168 2.716034412384033 35.26527786254883 5.114300727844238 29.59514427185059 C 7.431074142456055 24.11767768859863 10.74804782867432 19.19810485839844 14.97310066223145 14.97306442260742 C 19.19814109802246 10.74802494049072 24.11772727966309 7.431051254272461 29.59519386291504 5.114277839660645 C 35.26534271240234 2.71602463722229 41.28937911987305 1.499997973442078 47.50000762939453 1.499997973442078 C 53.71063613891602 1.499997973442078 59.73467254638672 2.71602463722229 65.40482330322266 5.114277839660645 C 70.88228607177734 7.431051254272461 75.80187225341797 10.74802494049072 80.02691650390625 14.97306442260742 C 84.25196838378906 19.19810485839844 87.56893920898438 24.11767768859863 89.88571166992188 29.59514427185059 C 92.28398132324219 35.26527786254883 93.50000762939453 41.2893180847168 93.50000762939453 47.49993133544922 C 93.50000762939453 53.71054458618164 92.28398132324219 59.73458480834961 89.88571166992188 65.40471649169922 C 87.56893920898438 70.88218688964844 84.25196838378906 75.8017578125 80.02691650390625 80.02679443359375 C 75.80187225341797 84.25183868408203 70.88228607177734 87.56880950927734 65.40482330322266 89.88558197021484 C 59.73467254638672 92.28383636474609 53.71063613891602 93.49986267089844 47.50000762939453 93.49986267089844 Z" stroke="none"/>
                                                        <path d="M 47.50000762939453 2.999992370605469 C 41.4912223815918 2.999992370605469 35.66377639770508 4.1761474609375 30.17951202392578 6.495796203613281 C 24.88085174560547 8.736930847167969 20.12152862548828 11.94596099853516 16.03376007080078 16.03372955322266 C 11.94597625732422 20.12148284912109 8.736961364746094 24.88080596923828 6.495803833007812 30.17946624755859 C 4.176162719726562 35.66371536254883 3.000007629394531 41.49116134643555 3.000007629394531 47.49993133544922 C 3.000007629394531 53.50870132446289 4.176162719726562 59.33614730834961 6.495803833007812 64.82038879394531 C 8.736961364746094 70.11905670166016 11.94597625732422 74.87836456298828 16.03376007080078 78.96613311767578 C 20.12152862548828 83.05390167236328 24.88085174560547 86.26291656494141 30.17951202392578 88.50406646728516 C 35.66377639770508 90.82369995117188 41.4912223815918 91.99985504150391 47.50000762939453 91.99985504150391 C 53.50879287719727 91.99985504150391 59.33623886108398 90.82369995117188 64.82049560546875 88.50406646728516 C 70.11916351318359 86.26291656494141 74.87848663330078 83.05390167236328 78.96625518798828 78.96613311767578 C 83.05403900146484 74.87836456298828 86.26305389404297 70.11905670166016 88.50421142578125 64.82038879394531 C 90.8238525390625 59.33614730834961 92.00000762939453 53.50870132446289 92.00000762939453 47.49993133544922 C 92.00000762939453 41.49116134643555 90.8238525390625 35.66371536254883 88.50421142578125 30.17946624755859 C 86.26305389404297 24.88080596923828 83.05403900146484 20.12148284912109 78.96625518798828 16.03372955322266 C 74.87848663330078 11.94596099853516 70.11916351318359 8.736930847167969 64.82049560546875 6.495796203613281 C 59.33623886108398 4.1761474609375 53.50879287719727 2.999992370605469 47.50000762939453 2.999992370605469 M 47.50000762939453 -7.62939453125e-06 C 73.73352813720703 -7.62939453125e-06 95.00000762939453 21.26644134521484 95.00000762939453 47.49993133544922 C 95.00000762939453 73.73342132568359 73.73352813720703 94.99985504150391 47.50000762939453 94.99985504150391 C 21.26648712158203 94.99985504150391 7.62939453125e-06 73.73342132568359 7.62939453125e-06 47.49993133544922 C 7.62939453125e-06 21.26644134521484 21.26648712158203 -7.62939453125e-06 47.50000762939453 -7.62939453125e-06 Z" stroke="none" fill="#41a599"/>
                                                      </g>
                                                    </g>
                                                  </g>
                                                </g>
                                              </g>
                                            </g>
                                          </g>
                                        </g>
                                      </g>
                                    </g>
                                  </g>
                                </g>
                              </g>
                            </g>
                          </g>
                        </g>
                      </g>
                    </g>
                  </g>
                </g>
              </g>
            </g>
          </g>
        </g>
      </g>
    </g>
    <g id="ejecutar" transform="translate(1215.606 3594.741)">
      <g id="Grupo_1241800" data-name="Grupo 1241800" transform="translate(33.144 8.965)">
        <g id="Grupo_1241798" data-name="Grupo 1241798" transform="translate(0 0)">
          <path id="Trazado_1297173" data-name="Trazado 1297173" d="M41.258,16H74.209a1.039,1.039,0,0,1,.76.315L81,22.349a1.038,1.038,0,0,1,.315.76v45.13a1.077,1.077,0,0,1-1.075,1.075H41.258a1.077,1.077,0,0,1-1.075-1.075V17.074A1.077,1.077,0,0,1,41.258,16Z" transform="translate(-40.183 -15.999)" fill="#eceff1" fill-rule="evenodd"/>
          <path id="Trazado_1297174" data-name="Trazado 1297174" d="M41.258,16h1.966V69.314H41.258a1.077,1.077,0,0,1-1.075-1.075V17.074A1.077,1.077,0,0,1,41.258,16Z" transform="translate(-40.183 -15.999)" fill="#d1d1d6" fill-rule="evenodd"/>
          <path id="Trazado_1297175" data-name="Trazado 1297175" d="M325.849,16.771a1.077,1.077,0,0,1,.315.222l6.035,6.035a1.077,1.077,0,0,1,.222.315h-6.034a.539.539,0,0,1-.537-.537V16.771Z" transform="translate(-291.378 -16.678)" fill="#a79ba7" fill-rule="evenodd"/>
          <path id="Trazado_1297176" data-name="Trazado 1297176" d="M78,285.67h4.455a1.046,1.046,0,0,1,1.043,1.043v4.455a1.046,1.046,0,0,1-1.043,1.043H78a1.046,1.046,0,0,1-1.043-1.043v-4.455A1.046,1.046,0,0,1,78,285.67Z" transform="translate(-72.522 -253.13)" fill="#fe646f" fill-rule="evenodd"/>
          <path id="Trazado_1297177" data-name="Trazado 1297177" d="M82.2,285.67h.261a1.046,1.046,0,0,1,1.043,1.043v4.455a1.046,1.046,0,0,1-1.043,1.043H78a1.046,1.046,0,0,1-1.043-1.043v-.261h4.194a1.046,1.046,0,0,0,1.043-1.043V285.67Z" transform="translate(-72.521 -253.13)" fill="#fd4755" fill-rule="evenodd"/>
          <path id="Trazado_1297178" data-name="Trazado 1297178" d="M78,191.4h4.455a1.046,1.046,0,0,1,1.043,1.043V196.9a1.046,1.046,0,0,1-1.043,1.043H78A1.046,1.046,0,0,1,76.96,196.9v-4.455A1.046,1.046,0,0,1,78,191.4Z" transform="translate(-72.522 -170.237)" fill="#ffe177" fill-rule="evenodd"/>
          <path id="Trazado_1297179" data-name="Trazado 1297179" d="M82.2,191.4h.261a1.046,1.046,0,0,1,1.043,1.043V196.9a1.046,1.046,0,0,1-1.043,1.043H78a1.046,1.046,0,0,1-1.043-1.043v-.261h4.194A1.046,1.046,0,0,0,82.2,195.6V191.4Z" transform="translate(-72.521 -170.237)" fill="#ffd064" fill-rule="evenodd"/>
          <path id="Trazado_1297180" data-name="Trazado 1297180" d="M78,97.134h4.455A1.046,1.046,0,0,1,83.5,98.177v4.455a1.046,1.046,0,0,1-1.043,1.043H78a1.046,1.046,0,0,1-1.043-1.043V98.177A1.047,1.047,0,0,1,78,97.134Z" transform="translate(-72.52 -87.344)" fill="#6cf5c2" fill-rule="evenodd"/>
          <path id="Trazado_1297181" data-name="Trazado 1297181" d="M82.195,97.134h.261A1.046,1.046,0,0,1,83.5,98.177v4.455a1.046,1.046,0,0,1-1.043,1.043H78a1.046,1.046,0,0,1-1.043-1.043v-.261h4.194a1.046,1.046,0,0,0,1.043-1.043V97.134Z" transform="translate(-72.52 -87.344)" fill="#00e499" fill-rule="evenodd"/>
        </g>
        <g id="Grupo_1241799" data-name="Grupo 1241799" transform="translate(16.294 22.131)">
          <path id="Trazado_1297182" data-name="Trazado 1297182" d="M196.676,202.367a15.271,15.271,0,0,1,4.472,1.854l2.906-1.291,3.425,3.425-1.29,2.905a15.266,15.266,0,0,1,1.854,4.473l2.965,1.141v4.844l-2.965,1.141a15.277,15.277,0,0,1-1.854,4.472l1.291,2.906-3.425,3.425-2.905-1.29a15.268,15.268,0,0,1-4.473,1.854l-1.141,2.965h-4.844l-1.142-2.965a15.272,15.272,0,0,1-4.472-1.854l-2.906,1.291-3.425-3.425,1.29-2.905a15.272,15.272,0,0,1-1.854-4.473l-2.965-1.141v-4.844l2.965-1.141a15.267,15.267,0,0,1,1.854-4.472l-1.291-2.906,3.425-3.425,2.906,1.291a15.274,15.274,0,0,1,4.472-1.854l1.142-2.965h4.843Z" transform="translate(-175.218 -199.401)" fill="#ffe177" fill-rule="evenodd"/>
          <path id="Trazado_1297183" data-name="Trazado 1297183" d="M232.49,230.371l-2.906,1.291-.447-.447,2.725-1.21Q232.172,230.2,232.49,230.371Zm11.6-28a15.27,15.27,0,0,1,4.472,1.854l-.826.367a20.14,20.14,0,0,0-5.1-2.221l-1.142-2.966h1.455Zm4.473,28.005a15.27,15.27,0,0,1-4.473,1.854l-1.141,2.965h-1.455l1.141-2.965a20.143,20.143,0,0,0,5.1-2.221Zm-19.425-26.995.447-.447,2.906,1.291q-.319.176-.629.367Zm21.322,0,1.007-.447,3.425,3.425-1.29,2.905a15.267,15.267,0,0,1,1.854,4.473l2.965,1.141v4.844l-2.965,1.141a15.277,15.277,0,0,1-1.854,4.472l1.291,2.906-3.425,3.425-1.007-.447,2.977-2.978-1.291-2.906A15.271,15.271,0,0,0,254,220.859l2.965-1.141v-4.844L254,213.733a15.273,15.273,0,0,0-1.854-4.473l1.29-2.905Z" transform="translate(-222.631 -199.401)" fill="#ffd064" fill-rule="evenodd"/>
          <circle id="Elipse_12521" data-name="Elipse 12521" cx="8.447" cy="8.447" r="8.447" transform="translate(7.734 11.599) rotate(-13.3)" fill="#eceff1"/>
          <path id="Trazado_1297184" data-name="Trazado 1297184" d="M261.965,277.7a8.447,8.447,0,0,0,0,16.893q.339,0,.672-.027a8.447,8.447,0,0,1,0-16.84Q262.3,277.7,261.965,277.7Z" transform="translate(-244.07 -268.254)" fill="#d1d1d6" fill-rule="evenodd"/>
        </g>
        <path id="Trazado_1297185" data-name="Trazado 1297185" d="M284.969,320.973l4.109-4.15a1.251,1.251,0,1,1,1.775,1.763c-1.666,1.682-3.321,3.374-5,5.048a1.254,1.254,0,0,1-1.773,0l-2.777-2.777a1.253,1.253,0,1,1,1.772-1.772Z" transform="translate(-251.889 -280.198)" fill="#8ac9fe" fill-rule="evenodd"/>
      </g>
      <path id="Trazado_1297186" data-name="Trazado 1297186" d="M71.422,46.268a.289.289,0,0,1,0,.406c-.623.627-1.244,1.259-1.866,1.888-1.022,1.037-2.08,2.109-3.126,3.156a.289.289,0,0,1-.408,0l-2.776-2.777a.283.283,0,0,1-.085-.2.279.279,0,0,1,.085-.2.287.287,0,0,1,.407,0l1.888,1.887a.967.967,0,0,0,.683.284h0a.965.965,0,0,0,.683-.286l4.109-4.151a.287.287,0,0,1,.4,0Zm-1.775-1.357L66.22,48.37l-1.2-1.2a2.219,2.219,0,0,0-3.139,3.139l2.778,2.776a2.219,2.219,0,0,0,3.137,0c1.051-1.051,2.112-2.126,3.136-3.166q.93-.944,1.862-1.885a2.217,2.217,0,0,0-1.582-3.778,2.192,2.192,0,0,0-1.563.656ZM67.333,56.472a7.482,7.482,0,1,0-7.483-7.481A7.489,7.489,0,0,0,67.333,56.472Zm0-16.894a9.412,9.412,0,1,0,9.412,9.412,9.423,9.423,0,0,0-9.412-9.412ZM84.263,50.75V47.231l-2.347-.9a.965.965,0,0,1-.592-.678,14.314,14.314,0,0,0-1.736-4.19.963.963,0,0,1-.061-.9l1.021-2.3-2.487-2.488L75.76,36.8a.967.967,0,0,1-.9-.06A14.3,14.3,0,0,0,70.673,35,.963.963,0,0,1,70,34.408l-.9-2.347H65.574l-.9,2.347a.965.965,0,0,1-.677.592A14.292,14.292,0,0,0,59.8,36.737a.968.968,0,0,1-.9.06l-.452-.2-.006,0-1.842-.818-2.488,2.488,1.022,2.3a.966.966,0,0,1-.06.9,14.245,14.245,0,0,0-1.737,4.189.966.966,0,0,1-.592.678l-2.346.9V50.75l2.346.9a.968.968,0,0,1,.592.678,14.266,14.266,0,0,0,1.736,4.189.965.965,0,0,1,.06.9l-1.021,2.3L56.606,62.2l2.3-1.021a.964.964,0,0,1,.9.06,14.273,14.273,0,0,0,4.189,1.737.963.963,0,0,1,.677.592l.9,2.347h3.517l.9-2.346a.964.964,0,0,1,.677-.592,14.289,14.289,0,0,0,4.19-1.738.97.97,0,0,1,.9-.06l2.3,1.021,2.487-2.487-1.022-2.3a.966.966,0,0,1,.061-.9,14.307,14.307,0,0,0,1.737-4.189.963.963,0,0,1,.592-.678ZM34.219,61.314H52.985l-.7-.7a.965.965,0,0,1-.2-1.074l1.087-2.45a16.27,16.27,0,0,1-1.582-3.816l-2.5-.962a.965.965,0,0,1-.618-.9V46.569a.965.965,0,0,1,.618-.9l2.5-.962c.117-.43.252-.852.4-1.269H49.438a.966.966,0,1,1,0-1.931h3.4c.106-.207.216-.412.333-.615l-1.088-2.45a.966.966,0,0,1,.2-1.075l.7-.695h-3.54a.965.965,0,1,1,0-1.931h5.471l.8-.8a.964.964,0,0,1,1.074-.2l2.25,1h.361a16.216,16.216,0,0,1,3.653-1.493L63.5,32.06H49.439a.965.965,0,1,1,0-1.931H69.755a.965.965,0,0,1,.9.619l.963,2.5a16.25,16.25,0,0,1,1.7.565V16.6H68.151a1.5,1.5,0,0,1-1.5-1.5V9.93H34.219a.113.113,0,0,0-.11.11V61.206a.111.111,0,0,0,.11.108Zm37.73-46.65H68.58V11.3Zm13.625,31-2.5-.962a16.21,16.21,0,0,0-1.582-3.816l1.088-2.449a.965.965,0,0,0-.2-1.075l-3.426-3.425a.963.963,0,0,0-1.073-.2l-2.45,1.088-.188-.1V16.075a2,2,0,0,0-.6-1.443L68.611,8.6A2,2,0,0,0,67.169,8H34.219a2.043,2.043,0,0,0-2.041,2.04V61.206a2.042,2.042,0,0,0,2.041,2.039h20.7l.794.794a.966.966,0,0,0,1.074.2l2.451-1.088a16.246,16.246,0,0,0,3.814,1.582l.962,2.5a.966.966,0,0,0,.9.619h4.844a.966.966,0,0,0,.9-.619l.962-2.5a16.227,16.227,0,0,0,3.817-1.582l2.449,1.088a.969.969,0,0,0,1.075-.2l3.424-3.424a.965.965,0,0,0,.2-1.074L81.494,57.09a16.226,16.226,0,0,0,1.581-3.814l2.5-.962a.967.967,0,0,0,.62-.9V46.569a.966.966,0,0,0-.62-.9ZM42.913,46.837H38.791V42.715h4.122v4.122Zm.966-6.053a.965.965,0,0,1,.965.966V47.8a.965.965,0,0,1-.965.966H37.825a.966.966,0,0,1-.966-.966V41.75a.966.966,0,0,1,.966-.966Zm-.966-5.322H38.791V31.34h4.122v4.122Zm.966-6.053a.965.965,0,0,1,.965.966v6.052a.965.965,0,0,1-.965.966H37.825a.966.966,0,0,1-.966-.966V30.375a.966.966,0,0,1,.966-.966Zm4.595-5.078a.966.966,0,0,1,.966-.966H69.6a.966.966,0,0,1,0,1.931H49.439a.966.966,0,0,1-.966-.966Zm0-4.611a.965.965,0,0,1,.966-.966H69.6a.965.965,0,0,1,0,1.931H49.439a.965.965,0,0,1-.966-.965Zm-5.56,4.366H38.791V19.965h4.122v4.122Zm.966-6.052a.965.965,0,0,1,.965.965v6.053a.965.965,0,0,1-.965.966H37.825a.966.966,0,0,1-.966-.966V19a.966.966,0,0,1,.966-.965Z" fill-rule="evenodd"/>
    </g>
  </g>
</svg>
