<svg xmlns="http://www.w3.org/2000/svg" xmlns:xlink="http://www.w3.org/1999/xlink" width="93" height="93" viewBox="0 0 93 93">
  <defs>
    <filter id="Trazado_982547" x="0" y="0" width="93" height="93" filterUnits="userSpaceOnUse">
      <feOffset dy="3" input="SourceAlpha"/>
      <feGaussianBlur stdDeviation="3" result="blur"/>
      <feFlood flood-opacity="0.161"/>
      <feComposite operator="in" in2="blur"/>
      <feComposite in="SourceGraphic"/>
    </filter>
  </defs>
  <g id="Grupo_1241756" data-name="Grupo 1241756" transform="translate(-195 -2019)">
    <g id="Grupo_1241145" data-name="Grupo 1241145" transform="translate(204 2025)">
      <g id="Grupo_1233829" data-name="Grupo 1233829" transform="translate(0 0)">
        <g id="Grupo_1209736" data-name="Grupo 1209736">
          <g id="Grupo_1209036" data-name="Grupo 1209036" transform="translate(0 0)">
            <g id="Grupo_1208891" data-name="Grupo 1208891" transform="translate(0)">
              <g id="Grupo_1177675" data-name="Grupo 1177675" transform="translate(0 0)">
                <g id="Grupo_1176928" data-name="Grupo 1176928" transform="translate(0 0)">
                  <g id="Grupo_1172322" data-name="Grupo 1172322">
                    <g id="Grupo_1164700" data-name="Grupo 1164700">
                      <g id="Grupo_1160931" data-name="Grupo 1160931">
                        <g id="Grupo_1160749" data-name="Grupo 1160749">
                          <g id="Grupo_1158891" data-name="Grupo 1158891">
                            <g id="Grupo_1157406" data-name="Grupo 1157406">
                              <g id="Grupo_1155793" data-name="Grupo 1155793">
                                <g id="Grupo_1154704" data-name="Grupo 1154704">
                                  <g id="Grupo_1150790" data-name="Grupo 1150790">
                                    <g id="Grupo_1154214" data-name="Grupo 1154214">
                                      <g id="Grupo_1152583" data-name="Grupo 1152583">
                                        <g id="Grupo_1146973" data-name="Grupo 1146973">
                                          <g id="Grupo_1146954" data-name="Grupo 1146954">
                                            <g transform="matrix(1, 0, 0, 1, -9, -6)" filter="url(#Trazado_982547)">
                                              <g id="Trazado_982547-2" data-name="Trazado 982547" transform="translate(9 6)" fill="#fef7ea">
                                                <path d="M 37.49999237060547 73.49986267089844 C 32.63936996459961 73.49986267089844 27.92492485046387 72.54824066162109 23.48763656616211 70.67143249511719 C 19.20095825195312 68.85832214355469 15.35081481933594 66.26239013671875 12.04415893554688 62.95573043823242 C 8.737492561340332 59.64907455444336 6.14155912399292 55.79894256591797 4.328447818756104 51.51226425170898 C 2.45162558555603 47.07498550415039 1.500003457069397 42.36055374145508 1.500003457069397 37.49993133544922 C 1.500003457069397 32.63930892944336 2.45162558555603 27.92487525939941 4.328447818756104 23.48759841918945 C 6.14155912399292 19.20092010498047 8.737492561340332 15.35078716278076 12.04415893554688 12.0441312789917 C 15.35081481933594 8.737475395202637 19.20095825195312 6.141542434692383 23.48763656616211 4.328431129455566 C 27.92492485046387 2.45162034034729 32.63936996459961 1.499997973442078 37.49999237060547 1.499997973442078 C 42.36061477661133 1.499997973442078 47.07505798339844 2.45162034034729 51.51234817504883 4.328431129455566 C 55.79902648925781 6.141542434692383 59.649169921875 8.737475395202637 62.95582580566406 12.0441312789917 C 66.26248931884766 15.35078716278076 68.85842895507812 19.20092010498047 70.67153930664062 23.48759841918945 C 72.54836273193359 27.92487525939941 73.49998474121094 32.63930892944336 73.49998474121094 37.49993133544922 C 73.49998474121094 42.36055374145508 72.54836273193359 47.07498550415039 70.67153930664062 51.51226425170898 C 68.85842895507812 55.79894256591797 66.26248931884766 59.64907455444336 62.95582580566406 62.95573043823242 C 59.649169921875 66.26239013671875 55.79902648925781 68.85832214355469 51.51234817504883 70.67143249511719 C 47.07505798339844 72.54824066162109 42.36061477661133 73.49986267089844 37.49999237060547 73.49986267089844 Z" stroke="none"/>
                                                <path d="M 37.49999237060547 2.999992370605469 C 32.84120559692383 2.999992370605469 28.32336807250977 3.911758422851562 24.07196807861328 5.709945678710938 C 19.96409225463867 7.447418212890625 16.27420425415039 9.935409545898438 13.10481643676758 13.10479354858398 C 9.935432434082031 16.2741813659668 7.447441101074219 19.96405792236328 5.709953308105469 24.07191848754883 C 3.911766052246094 28.32331848144531 3.000007629394531 32.84114456176758 3.000007629394531 37.49993133544922 C 3.000007629394531 42.15870666503906 3.911766052246094 46.67654418945312 5.709953308105469 50.92793273925781 C 7.447441101074219 55.03580474853516 9.935432434082031 58.72568130493164 13.10481643676758 61.89505767822266 C 16.27420425415039 65.06444549560547 19.96409225463867 67.55242919921875 24.07196807861328 69.28990936279297 C 28.32336807250977 71.08809661865234 32.84120559692383 71.99985504150391 37.49999237060547 71.99985504150391 C 42.15877914428711 71.99985504150391 46.67661666870117 71.08809661865234 50.92801666259766 69.28990936279297 C 55.03589248657227 67.55242919921875 58.72578048706055 65.06444549560547 61.89516830444336 61.89505767822266 C 65.06455230712891 58.72568130493164 67.55254364013672 55.03580474853516 69.29003143310547 50.92793273925781 C 71.08821868896484 46.67654418945312 71.99997711181641 42.15870666503906 71.99997711181641 37.49993133544922 C 71.99997711181641 32.84114456176758 71.08821868896484 28.32331848144531 69.29003143310547 24.07191848754883 C 67.55254364013672 19.96405792236328 65.06455230712891 16.2741813659668 61.89516830444336 13.10479354858398 C 58.72578048706055 9.935409545898438 55.03589248657227 7.447418212890625 50.92801666259766 5.709945678710938 C 46.67661666870117 3.911758422851562 42.15877914428711 2.999992370605469 37.49999237060547 2.999992370605469 M 37.49999237060547 -7.62939453125e-06 C 58.21065521240234 -7.62939453125e-06 74.99997711181641 16.7892951965332 74.99997711181641 37.49993133544922 C 74.99997711181641 58.2105712890625 58.21065521240234 74.99985504150391 37.49999237060547 74.99985504150391 C 16.78932952880859 74.99985504150391 7.62939453125e-06 58.2105712890625 7.62939453125e-06 37.49993133544922 C 7.62939453125e-06 16.7892951965332 16.78932952880859 -7.62939453125e-06 37.49999237060547 -7.62939453125e-06 Z" stroke="none" fill="#896521"/>
                                              </g>
                                            </g>
                                          </g>
                                        </g>
                                      </g>
                                    </g>
                                  </g>
                                </g>
                              </g>
                            </g>
                          </g>
                        </g>
                      </g>
                    </g>
                  </g>
                </g>
              </g>
            </g>
          </g>
        </g>
      </g>
    </g>
    <g id="agil_2_" data-name="agil (2)" transform="translate(217.97 2036.176)">
      <g id="Grupo_1241754" data-name="Grupo 1241754" transform="translate(0.688 1.014)">
        <path id="Trazado_1297072" data-name="Trazado 1297072" d="M265.212,389.69l-3.873,5.515H240.993v-11.03h20.346Z" transform="translate(-219.531 -349.583)" fill="#9dc6fb"/>
        <path id="Trazado_1297073" data-name="Trazado 1297073" d="M34.18,88.5A9,9,0,0,0,43.173,97.5l-11.03,3.088L25.272,97.5a20.032,20.032,0,0,1,17.9-29.017v11.03A9,9,0,0,0,34.18,88.5Z" transform="translate(-21.711 -62.904)" fill="#ffe07d"/>
        <path id="Trazado_1297074" data-name="Trazado 1297074" d="M177.415,88.5a20.024,20.024,0,0,1-20.023,20.023H148.93V97.5h8.462a8.994,8.994,0,0,0,0-17.988l-3.872-5.515,3.872-5.515A20.024,20.024,0,0,1,177.415,88.5Z" transform="translate(-135.93 -62.903)" fill="#a2e19f"/>
        <path id="Trazado_1297075" data-name="Trazado 1297075" d="M29.107,97.5A20.042,20.042,0,0,1,43.173,68.845v-.366A20.041,20.041,0,0,0,25.273,97.5l6.871,3.088,2.362-.662Z" transform="translate(-21.712 -62.904)" fill="#f1cb86"/>
        <g id="Grupo_1241751" data-name="Grupo 1241751" transform="translate(21.462 16.604)">
          <path id="Trazado_1297076" data-name="Trazado 1297076" d="M240.988,188.477a8.994,8.994,0,1,1,0,17.988h3.834a8.994,8.994,0,1,0,0-17.988Z" transform="translate(-240.988 -188.477)" fill="#97cf92"/>
        </g>
        <path id="Trazado_1297077" data-name="Trazado 1297077" d="M24.364,389.689,20.49,395.2H9.236a1.746,1.746,0,0,1-1.746-1.746V385.92a1.746,1.746,0,0,1,1.746-1.746H20.49Z" transform="translate(-7.49 -349.582)" fill="#e28086"/>
        <path id="Trazado_1297078" data-name="Trazado 1297078" d="M11.51,395.206H9.236A1.746,1.746,0,0,1,7.49,393.46v-7.539a1.747,1.747,0,0,1,1.746-1.745H11.51a1.747,1.747,0,0,0-1.746,1.745v7.539A1.746,1.746,0,0,0,11.51,395.206Z" transform="translate(-7.49 -349.584)" fill="#dd636e"/>
        <g id="Grupo_1241753" data-name="Grupo 1241753" transform="translate(25.393 0)">
          <path id="Trazado_1297079" data-name="Trazado 1297079" d="M302.711,19.293l-1.078-.447a7.72,7.72,0,0,0,0-1.742l1.077-.446a2.156,2.156,0,1,0-1.65-3.983l-1.077.446a7.724,7.724,0,0,0-1.232-1.231l.446-1.077a2.156,2.156,0,1,0-3.983-1.65l-.446,1.078a7.719,7.719,0,0,0-1.742,0l-.446-1.077a2.156,2.156,0,1,0-3.983,1.65l.446,1.077a7.73,7.73,0,0,0-1.231,1.232l-1.078-.446a2.156,2.156,0,1,0-1.65,3.983l1.077.446a7.745,7.745,0,0,0,0,1.742l-1.077.446a2.156,2.156,0,1,0,1.65,3.983l1.077-.446.016.019,0,0a7.682,7.682,0,0,0,1.215,1.21l-.447,1.078a2.155,2.155,0,0,0,2.885,2.786h0a2.145,2.145,0,0,0,1.1-1.137l.447-1.077a7.747,7.747,0,0,0,1.742,0l.446,1.077a2.156,2.156,0,1,0,3.983-1.65l-.446-1.077a7.741,7.741,0,0,0,1.231-1.232l1.077.446a2.156,2.156,0,1,0,1.65-3.983ZM293.9,21.6a3.621,3.621,0,1,1,3.621-3.621A3.621,3.621,0,0,1,293.9,21.6Z" transform="translate(-283.753 -7.831)" fill="#4a80aa"/>
          <g id="Grupo_1241752" data-name="Grupo 1241752">
            <path id="Trazado_1297080" data-name="Trazado 1297080" d="M403.864,10.237a7.714,7.714,0,0,1,1.742,0l.446-1.078a2.148,2.148,0,0,1,1.1-1.136l-.068-.03a2.155,2.155,0,0,0-2.817,1.167l-.424,1.023Z" transform="translate(-392.804 -7.829)" fill="#407093"/>
            <path id="Trazado_1297081" data-name="Trazado 1297081" d="M285.7,68.339a2.155,2.155,0,0,1,1.167-2.816l1.077-.446a7.748,7.748,0,0,1,0-1.742l-1.077-.446a2.155,2.155,0,0,1-.067-3.954l-.071-.029a2.156,2.156,0,1,0-1.65,3.983l1.077.446a7.748,7.748,0,0,0,0,1.742l-1.077.446a2.156,2.156,0,1,0,1.65,3.983l.071-.029A2.148,2.148,0,0,1,285.7,68.339Z" transform="translate(-283.753 -54.061)" fill="#407093"/>
            <path id="Trazado_1297082" data-name="Trazado 1297082" d="M406.054,203.436l-.446-1.077a7.742,7.742,0,0,1-1.742,0l-.023.055.424,1.023a2.156,2.156,0,0,0,2.817,1.167l.069-.03A2.147,2.147,0,0,1,406.054,203.436Z" transform="translate(-392.806 -184.479)" fill="#407093"/>
            <path id="Trazado_1297083" data-name="Trazado 1297083" d="M331.575,176.106a2.155,2.155,0,0,1-2.885-2.786l.447-1.078a7.682,7.682,0,0,1-1.215-1.21l0,0a.164.164,0,0,0-.016-.019h1.787a7.711,7.711,0,0,0,1.232,1.231l-.447,1.078A2.156,2.156,0,0,0,331.575,176.106Z" transform="translate(-323.846 -156.012)" fill="#407093"/>
            <path id="Trazado_1297084" data-name="Trazado 1297084" d="M331.575,8.028a2.155,2.155,0,0,0-2.885,2.786l.447,1.078a7.682,7.682,0,0,0-1.215,1.21l0,0a.165.165,0,0,1-.016.019h1.787a7.711,7.711,0,0,1,1.232-1.231l-.447-1.078A2.156,2.156,0,0,1,331.575,8.028Z" transform="translate(-323.846 -7.833)" fill="#407093"/>
          </g>
        </g>
      </g>
      <g id="Grupo_1241755" data-name="Grupo 1241755" transform="translate(0 0.324)">
        <path id="Trazado_1297085" data-name="Trazado 1297085" d="M43.06,35.209a.689.689,0,0,0-.564-.293h-1.36A20.875,20.875,0,0,0,41.98,20.6a2.842,2.842,0,0,0,.182-2.539l-.254-.613a8.477,8.477,0,0,0,.6-.6l.614.254A2.845,2.845,0,0,0,45.3,11.839l-.614-.254a8.454,8.454,0,0,0,0-.853l.613-.254a2.845,2.845,0,1,0-2.177-5.257l-.613.254a8.458,8.458,0,0,0-.6-.6l.254-.614a2.845,2.845,0,0,0-5.257-2.177l-.254.614a8.426,8.426,0,0,0-.853,0l-.254-.613a2.845,2.845,0,0,0-5.257,2.177l.254.613a8.477,8.477,0,0,0-.6.6l-.614-.254a2.85,2.85,0,0,0-3.432,1.015,21.135,21.135,0,0,0-7.79.056.689.689,0,1,0,.266,1.353,19.4,19.4,0,0,1,2.42-.318l-3.077,4.381a.69.69,0,0,0,0,.792l3.169,4.512a9.681,9.681,0,0,0-3.706,17.9H4.681A19.372,19.372,0,0,1,15.8,8.338a.689.689,0,0,0-.452-1.3,20.757,20.757,0,0,0-12.19,27.88H2.434A2.437,2.437,0,0,0,0,37.351v7.538a2.438,2.438,0,0,0,2.434,2.436H42.5a.69.69,0,0,0,.564-.293l.872-1.243A.689.689,0,0,0,42.8,45l-.666.949H29.611A20.878,20.878,0,0,0,40.47,36.294h1.668l3.389,4.825-1.138,1.62a.689.689,0,1,0,1.128.792l1.416-2.017a.689.689,0,0,0,0-.792ZM26.882,7.289A1.468,1.468,0,0,1,28.8,6.5l1.078.446a.69.69,0,0,0,.8-.208A7.06,7.06,0,0,1,31.8,5.611a.689.689,0,0,0,.207-.8l-.446-1.077a1.466,1.466,0,0,1,2.709-1.122l.446,1.077a.69.69,0,0,0,.714.421,7.058,7.058,0,0,1,1.587,0,.689.689,0,0,0,.715-.421l.446-1.078a1.466,1.466,0,0,1,2.709,1.122l-.446,1.078a.689.689,0,0,0,.208.8,7.059,7.059,0,0,1,1.123,1.121.689.689,0,0,0,.8.207L43.652,6.5A1.466,1.466,0,0,1,44.774,9.2L43.7,9.65a.689.689,0,0,0-.421.714,7.057,7.057,0,0,1,0,1.587.689.689,0,0,0,.421.715l1.078.446a1.466,1.466,0,0,1-1.122,2.709l-1.078-.446a.689.689,0,0,0-.8.208,7.068,7.068,0,0,1-1.121,1.123.689.689,0,0,0-.207.8l.446,1.077a1.466,1.466,0,0,1-2.709,1.122l-.446-1.077a.689.689,0,0,0-.714-.421,7.058,7.058,0,0,1-1.587,0,.69.69,0,0,0-.715.421l-.446,1.078a1.466,1.466,0,0,1-2.709-1.122l.446-1.078a.689.689,0,0,0-.208-.8,7.063,7.063,0,0,1-1.123-1.121.689.689,0,0,0-.8-.207l-1.077.446a1.466,1.466,0,1,1-1.122-2.709l1.077-.446a.689.689,0,0,0,.421-.714,7.057,7.057,0,0,1,0-1.587.689.689,0,0,0-.421-.715L27.676,9.2a1.468,1.468,0,0,1-.794-1.916ZM13.847,26.612a8.3,8.3,0,1,1,8.3,8.3,8.313,8.313,0,0,1-8.3-8.3ZM1.379,44.888V37.35a1.057,1.057,0,0,1,1.055-1.056h10.9l3.389,4.825L13.33,45.945H2.434a1.057,1.057,0,0,1-1.055-1.057Zm34.442-4.606A19.207,19.207,0,0,1,22.15,45.945H15.015l3.111-4.429a.69.69,0,0,0,0-.792l-3.111-4.429H22.15a9.682,9.682,0,0,0,.364-19.357L19.12,12.1,22.5,7.285a19.588,19.588,0,0,1,2.9.267,2.85,2.85,0,0,0,1.74,2.926l.614.254a8.426,8.426,0,0,0,0,.853l-.613.254A2.845,2.845,0,0,0,29.326,17.1l.613-.254a8.477,8.477,0,0,0,.6.6l-.254.614a2.845,2.845,0,1,0,5.257,2.177l.254-.614a8.453,8.453,0,0,0,.853,0l.254.613a2.848,2.848,0,0,0,3.717,1.54c.078-.032.154-.068.227-.107a19.459,19.459,0,0,1,.634,4.943A19.208,19.208,0,0,1,35.821,40.282Z" transform="translate(0 -0.324)"/>
        <path id="Trazado_1297086" data-name="Trazado 1297086" d="M351.533,79.929a4.31,4.31,0,1,0-4.31-4.31A4.315,4.315,0,0,0,351.533,79.929Zm-2.931-4.31a2.925,2.925,0,0,1,.02-.337,19.653,19.653,0,0,1,2.508,2.119c.348.348.683.713,1,1.087a2.932,2.932,0,0,1-3.532-2.869Zm2.931-2.931a2.93,2.93,0,0,1,1.882,5.177c-.414-.5-.853-.98-1.311-1.438a21,21,0,0,0-2.98-2.475A2.93,2.93,0,0,1,351.533,72.688Z" transform="translate(-315.308 -64.784)"/>
      </g>
    </g>
  </g>
</svg>
