<svg xmlns="http://www.w3.org/2000/svg" xmlns:xlink="http://www.w3.org/1999/xlink" width="93" height="93" viewBox="0 0 93 93">
  <defs>
    <filter id="Trazado_982547" x="0" y="0" width="93" height="93" filterUnits="userSpaceOnUse">
      <feOffset dy="3" input="SourceAlpha"/>
      <feGaussianBlur stdDeviation="3" result="blur"/>
      <feFlood flood-opacity="0.161"/>
      <feComposite operator="in" in2="blur"/>
      <feComposite in="SourceGraphic"/>
    </filter>
  </defs>
  <g id="Grupo_1241757" data-name="Grupo 1241757" transform="translate(-825 -2019)">
    <g id="Grupo_1241146" data-name="Grupo 1241146" transform="translate(834 2025)">
      <g id="Grupo_1233829" data-name="Grupo 1233829" transform="translate(0 0)">
        <g id="Grupo_1209736" data-name="Grupo 1209736">
          <g id="Grupo_1209036" data-name="Grupo 1209036" transform="translate(0 0)">
            <g id="Grupo_1208891" data-name="Grupo 1208891" transform="translate(0)">
              <g id="Grupo_1177675" data-name="Grupo 1177675" transform="translate(0 0)">
                <g id="Grupo_1176928" data-name="Grupo 1176928" transform="translate(0 0)">
                  <g id="Grupo_1172322" data-name="Grupo 1172322">
                    <g id="Grupo_1164700" data-name="Grupo 1164700">
                      <g id="Grupo_1160931" data-name="Grupo 1160931">
                        <g id="Grupo_1160749" data-name="Grupo 1160749">
                          <g id="Grupo_1158891" data-name="Grupo 1158891">
                            <g id="Grupo_1157406" data-name="Grupo 1157406">
                              <g id="Grupo_1155793" data-name="Grupo 1155793">
                                <g id="Grupo_1154704" data-name="Grupo 1154704">
                                  <g id="Grupo_1150790" data-name="Grupo 1150790">
                                    <g id="Grupo_1154214" data-name="Grupo 1154214">
                                      <g id="Grupo_1152583" data-name="Grupo 1152583">
                                        <g id="Grupo_1146973" data-name="Grupo 1146973">
                                          <g id="Grupo_1146954" data-name="Grupo 1146954">
                                            <g transform="matrix(1, 0, 0, 1, -9, -6)" filter="url(#Trazado_982547)">
                                              <g id="Trazado_982547-2" data-name="Trazado 982547" transform="translate(9 6)" fill="#fef7ea">
                                                <path d="M 37.49999237060547 73.49986267089844 C 32.63936996459961 73.49986267089844 27.92492485046387 72.54824066162109 23.48763656616211 70.67143249511719 C 19.20095825195312 68.85832214355469 15.35081481933594 66.26239013671875 12.04415893554688 62.95573043823242 C 8.737492561340332 59.64907455444336 6.14155912399292 55.79894256591797 4.328447818756104 51.51226425170898 C 2.45162558555603 47.07498550415039 1.500003457069397 42.36055374145508 1.500003457069397 37.49993133544922 C 1.500003457069397 32.63930892944336 2.45162558555603 27.92487525939941 4.328447818756104 23.48759841918945 C 6.14155912399292 19.20092010498047 8.737492561340332 15.35078716278076 12.04415893554688 12.0441312789917 C 15.35081481933594 8.737475395202637 19.20095825195312 6.141542434692383 23.48763656616211 4.328431129455566 C 27.92492485046387 2.45162034034729 32.63936996459961 1.499997973442078 37.49999237060547 1.499997973442078 C 42.36061477661133 1.499997973442078 47.07505798339844 2.45162034034729 51.51234817504883 4.328431129455566 C 55.79902648925781 6.141542434692383 59.649169921875 8.737475395202637 62.95582580566406 12.0441312789917 C 66.26248931884766 15.35078716278076 68.85842895507812 19.20092010498047 70.67153930664062 23.48759841918945 C 72.54836273193359 27.92487525939941 73.49998474121094 32.63930892944336 73.49998474121094 37.49993133544922 C 73.49998474121094 42.36055374145508 72.54836273193359 47.07498550415039 70.67153930664062 51.51226425170898 C 68.85842895507812 55.79894256591797 66.26248931884766 59.64907455444336 62.95582580566406 62.95573043823242 C 59.649169921875 66.26239013671875 55.79902648925781 68.85832214355469 51.51234817504883 70.67143249511719 C 47.07505798339844 72.54824066162109 42.36061477661133 73.49986267089844 37.49999237060547 73.49986267089844 Z" stroke="none"/>
                                                <path d="M 37.49999237060547 2.999992370605469 C 32.84120559692383 2.999992370605469 28.32336807250977 3.911758422851562 24.07196807861328 5.709945678710938 C 19.96409225463867 7.447418212890625 16.27420425415039 9.935409545898438 13.10481643676758 13.10479354858398 C 9.935432434082031 16.2741813659668 7.447441101074219 19.96405792236328 5.709953308105469 24.07191848754883 C 3.911766052246094 28.32331848144531 3.000007629394531 32.84114456176758 3.000007629394531 37.49993133544922 C 3.000007629394531 42.15870666503906 3.911766052246094 46.67654418945312 5.709953308105469 50.92793273925781 C 7.447441101074219 55.03580474853516 9.935432434082031 58.72568130493164 13.10481643676758 61.89505767822266 C 16.27420425415039 65.06444549560547 19.96409225463867 67.55242919921875 24.07196807861328 69.28990936279297 C 28.32336807250977 71.08809661865234 32.84120559692383 71.99985504150391 37.49999237060547 71.99985504150391 C 42.15877914428711 71.99985504150391 46.67661666870117 71.08809661865234 50.92801666259766 69.28990936279297 C 55.03589248657227 67.55242919921875 58.72578048706055 65.06444549560547 61.89516830444336 61.89505767822266 C 65.06455230712891 58.72568130493164 67.55254364013672 55.03580474853516 69.29003143310547 50.92793273925781 C 71.08821868896484 46.67654418945312 71.99997711181641 42.15870666503906 71.99997711181641 37.49993133544922 C 71.99997711181641 32.84114456176758 71.08821868896484 28.32331848144531 69.29003143310547 24.07191848754883 C 67.55254364013672 19.96405792236328 65.06455230712891 16.2741813659668 61.89516830444336 13.10479354858398 C 58.72578048706055 9.935409545898438 55.03589248657227 7.447418212890625 50.92801666259766 5.709945678710938 C 46.67661666870117 3.911758422851562 42.15877914428711 2.999992370605469 37.49999237060547 2.999992370605469 M 37.49999237060547 -7.62939453125e-06 C 58.21065521240234 -7.62939453125e-06 74.99997711181641 16.7892951965332 74.99997711181641 37.49993133544922 C 74.99997711181641 58.2105712890625 58.21065521240234 74.99985504150391 37.49999237060547 74.99985504150391 C 16.78932952880859 74.99985504150391 7.62939453125e-06 58.2105712890625 7.62939453125e-06 37.49993133544922 C 7.62939453125e-06 16.7892951965332 16.78932952880859 -7.62939453125e-06 37.49999237060547 -7.62939453125e-06 Z" stroke="none" fill="#896521"/>
                                              </g>
                                            </g>
                                          </g>
                                        </g>
                                      </g>
                                    </g>
                                  </g>
                                </g>
                              </g>
                            </g>
                          </g>
                        </g>
                      </g>
                    </g>
                  </g>
                </g>
              </g>
            </g>
          </g>
        </g>
      </g>
    </g>
    <g id="votacion_1_" data-name="votacion (1)" transform="translate(851.834 2039.884)">
      <path id="Trazado_1297087" data-name="Trazado 1297087" d="M42.578,51.657H10.985a2.679,2.679,0,0,1-2.68-2.68V10.484a2.68,2.68,0,0,1,2.68-2.68H42.578a2.68,2.68,0,0,1,2.68,2.68V48.977A2.68,2.68,0,0,1,42.578,51.657Zm0,0" transform="translate(-7.115 -7.115)" fill="#eff2fa"/>
      <path id="Trazado_1297088" data-name="Trazado 1297088" d="M66.777,62.711a4.543,4.543,0,1,1-4.543-4.543,4.543,4.543,0,0,1,4.543,4.543Zm0,0" transform="translate(-52.139 -53.03)" fill="#c7cfe2"/>
      <path id="Trazado_1297089" data-name="Trazado 1297089" d="M66.777,209.238a4.543,4.543,0,1,1-4.543-4.543A4.543,4.543,0,0,1,66.777,209.238Zm0,0" transform="translate(-52.139 -186.612)" fill="#87dbff"/>
      <path id="Trazado_1297090" data-name="Trazado 1297090" d="M66.777,355.766a4.543,4.543,0,1,1-4.543-4.543A4.543,4.543,0,0,1,66.777,355.766Zm0,0" transform="translate(-52.139 -320.195)" fill="#c7cfe2"/>
      <path id="Trazado_1297091" data-name="Trazado 1297091" d="M108.158,0H81.048a.689.689,0,0,0,0,1.379h27.11a2.1,2.1,0,0,1,2.1,2.1v32.89a.689.689,0,1,0,1.379,0V3.478A3.482,3.482,0,0,0,108.158,0Zm0,0" transform="translate(-72.804 0)"/>
      <path id="Trazado_1297092" data-name="Trazado 1297092" d="M38.142,38.573a.689.689,0,0,0-.689.689v2.491a2.1,2.1,0,0,1-2.1,2.1H3.978a2.1,2.1,0,0,1-2.1-2.1V3.478a2.1,2.1,0,0,1,2.1-2.1h1.3A.689.689,0,0,0,5.28,0h-1.3A3.482,3.482,0,0,0,.5,3.478V41.754a3.482,3.482,0,0,0,3.477,3.477H35.354a3.481,3.481,0,0,0,3.477-3.477V39.263a.689.689,0,0,0-.689-.689Zm0,0"/>
      <path id="Trazado_1297093" data-name="Trazado 1297093" d="M55.119,50.363A5.232,5.232,0,1,0,60.351,55.6,5.238,5.238,0,0,0,55.119,50.363Zm0,9.086A3.853,3.853,0,1,1,58.972,55.6,3.858,3.858,0,0,1,55.119,59.449Zm0,0" transform="translate(-45.023 -45.914)"/>
      <path id="Trazado_1297094" data-name="Trazado 1297094" d="M197.615,66.3h15.028a.689.689,0,1,0,0-1.379H197.615a.689.689,0,0,0,0,1.379Zm0,0" transform="translate(-179.073 -59.183)"/>
      <path id="Trazado_1297095" data-name="Trazado 1297095" d="M197.615,103.165h10.878a.689.689,0,1,0,0-1.379H197.615a.689.689,0,0,0,0,1.379Zm0,0" transform="translate(-179.073 -92.794)"/>
      <path id="Trazado_1297096" data-name="Trazado 1297096" d="M197.615,140.036h13.118a.689.689,0,0,0,0-1.379H197.615a.689.689,0,0,0,0,1.379Zm0,0" transform="translate(-179.073 -126.408)"/>
      <path id="Trazado_1297097" data-name="Trazado 1297097" d="M197.615,212.825h15.028a.689.689,0,1,0,0-1.379H197.615a.689.689,0,0,0,0,1.379Zm0,0" transform="translate(-179.073 -192.766)"/>
      <path id="Trazado_1297098" data-name="Trazado 1297098" d="M197.615,249.692h10.878a.689.689,0,1,0,0-1.379H197.615a.689.689,0,0,0,0,1.379Zm0,0" transform="translate(-179.073 -226.376)"/>
      <path id="Trazado_1297099" data-name="Trazado 1297099" d="M197.615,286.563h13.118a.689.689,0,0,0,0-1.379H197.615a.689.689,0,0,0,0,1.379Zm0,0" transform="translate(-179.073 -259.99)"/>
      <path id="Trazado_1297100" data-name="Trazado 1297100" d="M55.119,343.418a5.232,5.232,0,1,0,5.233,5.232A5.238,5.238,0,0,0,55.119,343.418Zm0,9.086a3.853,3.853,0,1,1,3.854-3.854A3.858,3.858,0,0,1,55.119,352.5Zm0,0" transform="translate(-45.023 -313.08)"/>
      <path id="Trazado_1297101" data-name="Trazado 1297101" d="M197.615,359.352h15.028a.689.689,0,1,0,0-1.379H197.615a.689.689,0,0,0,0,1.379Zm0,0" transform="translate(-179.073 -326.348)"/>
      <path id="Trazado_1297102" data-name="Trazado 1297102" d="M197.615,396.222h10.878a.689.689,0,1,0,0-1.379H197.615a.689.689,0,0,0,0,1.379Zm0,0" transform="translate(-179.073 -359.962)"/>
      <path id="Trazado_1297103" data-name="Trazado 1297103" d="M197.615,433.09h13.118a.689.689,0,0,0,0-1.379H197.615a.689.689,0,0,0,0,1.379Zm0,0" transform="translate(-179.073 -393.572)"/>
      <path id="Trazado_1297104" data-name="Trazado 1297104" d="M54.169,198.364a.689.689,0,0,0-.975.975l1.7,1.7a.69.69,0,0,0,.975,0l3.557-3.557.01-.01L61.8,195.11a.689.689,0,0,0-.975-.975l-1.8,1.8a5.233,5.233,0,1,0,1.331,3.488.689.689,0,1,0-1.379,0,3.856,3.856,0,1,1-.931-2.51l-2.66,2.66Zm0,0" transform="translate(-45.023 -176.801)"/>
    </g>
  </g>
</svg>
