<svg xmlns="http://www.w3.org/2000/svg" xmlns:xlink="http://www.w3.org/1999/xlink" width="113" height="113" viewBox="0 0 113 113">
  <defs>
    <filter id="Trazado_982547" x="0" y="0" width="113" height="113" filterUnits="userSpaceOnUse">
      <feOffset dy="3" input="SourceAlpha"/>
      <feGaussianBlur stdDeviation="3" result="blur"/>
      <feFlood flood-opacity="0.161"/>
      <feComposite operator="in" in2="blur"/>
      <feComposite in="SourceGraphic"/>
    </filter>
  </defs>
  <g id="Grupo_1241370" data-name="Grupo 1241370" transform="translate(745.5 -1895.168)">
    <g id="Grupo_1241035" data-name="Grupo 1241035" transform="translate(-1100.844 -10788)">
      <g id="Grupo_1240425" data-name="Grupo 1240425" transform="translate(364.344 12689.168)">
        <g id="Grupo_1239772" data-name="Grupo 1239772" transform="translate(0 0)">
          <g id="Grupo_1236602" data-name="Grupo 1236602">
            <g id="Grupo_1236144" data-name="Grupo 1236144">
              <g id="Grupo_1235105" data-name="Grupo 1235105">
                <g id="Grupo_1223793" data-name="Grupo 1223793">
                  <g id="Grupo_1208028" data-name="Grupo 1208028">
                    <g id="Grupo_1177675" data-name="Grupo 1177675">
                      <g id="Grupo_1176928" data-name="Grupo 1176928" transform="translate(0)">
                        <g id="Grupo_1172322" data-name="Grupo 1172322">
                          <g id="Grupo_1164700" data-name="Grupo 1164700">
                            <g id="Grupo_1160931" data-name="Grupo 1160931">
                              <g id="Grupo_1160749" data-name="Grupo 1160749">
                                <g id="Grupo_1158891" data-name="Grupo 1158891">
                                  <g id="Grupo_1157406" data-name="Grupo 1157406">
                                    <g id="Grupo_1155793" data-name="Grupo 1155793">
                                      <g id="Grupo_1154704" data-name="Grupo 1154704">
                                        <g id="Grupo_1150790" data-name="Grupo 1150790">
                                          <g id="Grupo_1154214" data-name="Grupo 1154214" transform="translate(0)">
                                            <g id="Grupo_1152583" data-name="Grupo 1152583">
                                              <g id="Grupo_1146973" data-name="Grupo 1146973">
                                                <g id="Grupo_1146954" data-name="Grupo 1146954">
                                                  <g transform="matrix(1, 0, 0, 1, -9, -6)" filter="url(#Trazado_982547)">
                                                    <g id="Trazado_982547-2" data-name="Trazado 982547" transform="translate(9 6)" fill="#c4e3df">
                                                      <path d="M 47.50000762939453 93.49986267089844 C 41.28937911987305 93.49986267089844 35.26534271240234 92.28383636474609 29.59519386291504 89.88558197021484 C 24.11772727966309 87.56880950927734 19.19814109802246 84.25183868408203 14.97310066223145 80.02679443359375 C 10.74804782867432 75.8017578125 7.431074142456055 70.88218688964844 5.114300727844238 65.40471649169922 C 2.716034412384033 59.73458480834961 1.500007629394531 53.71054458618164 1.500007629394531 47.49993133544922 C 1.500007629394531 41.2893180847168 2.716034412384033 35.26527786254883 5.114300727844238 29.59514427185059 C 7.431074142456055 24.11767768859863 10.74804782867432 19.19810485839844 14.97310066223145 14.97306442260742 C 19.19814109802246 10.74802494049072 24.11772727966309 7.431051254272461 29.59519386291504 5.114277839660645 C 35.26534271240234 2.71602463722229 41.28937911987305 1.499997973442078 47.50000762939453 1.499997973442078 C 53.71063613891602 1.499997973442078 59.73467254638672 2.71602463722229 65.40482330322266 5.114277839660645 C 70.88228607177734 7.431051254272461 75.80187225341797 10.74802494049072 80.02691650390625 14.97306442260742 C 84.25196838378906 19.19810485839844 87.56893920898438 24.11767768859863 89.88571166992188 29.59514427185059 C 92.28398132324219 35.26527786254883 93.50000762939453 41.2893180847168 93.50000762939453 47.49993133544922 C 93.50000762939453 53.71054458618164 92.28398132324219 59.73458480834961 89.88571166992188 65.40471649169922 C 87.56893920898438 70.88218688964844 84.25196838378906 75.8017578125 80.02691650390625 80.02679443359375 C 75.80187225341797 84.25183868408203 70.88228607177734 87.56880950927734 65.40482330322266 89.88558197021484 C 59.73467254638672 92.28383636474609 53.71063613891602 93.49986267089844 47.50000762939453 93.49986267089844 Z" stroke="none"/>
                                                      <path d="M 47.50000762939453 2.999992370605469 C 41.4912223815918 2.999992370605469 35.66377639770508 4.1761474609375 30.17951202392578 6.495796203613281 C 24.88085174560547 8.736930847167969 20.12152862548828 11.94596099853516 16.03376007080078 16.03372955322266 C 11.94597625732422 20.12148284912109 8.736961364746094 24.88080596923828 6.495803833007812 30.17946624755859 C 4.176162719726562 35.66371536254883 3.000007629394531 41.49116134643555 3.000007629394531 47.49993133544922 C 3.000007629394531 53.50870132446289 4.176162719726562 59.33614730834961 6.495803833007812 64.82038879394531 C 8.736961364746094 70.11905670166016 11.94597625732422 74.87836456298828 16.03376007080078 78.96613311767578 C 20.12152862548828 83.05390167236328 24.88085174560547 86.26291656494141 30.17951202392578 88.50406646728516 C 35.66377639770508 90.82369995117188 41.4912223815918 91.99985504150391 47.50000762939453 91.99985504150391 C 53.50879287719727 91.99985504150391 59.33623886108398 90.82369995117188 64.82049560546875 88.50406646728516 C 70.11916351318359 86.26291656494141 74.87848663330078 83.05390167236328 78.96625518798828 78.96613311767578 C 83.05403900146484 74.87836456298828 86.26305389404297 70.11905670166016 88.50421142578125 64.82038879394531 C 90.8238525390625 59.33614730834961 92.00000762939453 53.50870132446289 92.00000762939453 47.49993133544922 C 92.00000762939453 41.49116134643555 90.8238525390625 35.66371536254883 88.50421142578125 30.17946624755859 C 86.26305389404297 24.88080596923828 83.05403900146484 20.12148284912109 78.96625518798828 16.03372955322266 C 74.87848663330078 11.94596099853516 70.11916351318359 8.736930847167969 64.82049560546875 6.495796203613281 C 59.33623886108398 4.1761474609375 53.50879287719727 2.999992370605469 47.50000762939453 2.999992370605469 M 47.50000762939453 -7.62939453125e-06 C 73.73352813720703 -7.62939453125e-06 95.00000762939453 21.26644134521484 95.00000762939453 47.49993133544922 C 95.00000762939453 73.73342132568359 73.73352813720703 94.99985504150391 47.50000762939453 94.99985504150391 C 21.26648712158203 94.99985504150391 7.62939453125e-06 73.73342132568359 7.62939453125e-06 47.49993133544922 C 7.62939453125e-06 21.26644134521484 21.26648712158203 -7.62939453125e-06 47.50000762939453 -7.62939453125e-06 Z" stroke="none" fill="#41a599"/>
                                                    </g>
                                                  </g>
                                                </g>
                                              </g>
                                            </g>
                                          </g>
                                        </g>
                                      </g>
                                    </g>
                                  </g>
                                </g>
                              </g>
                            </g>
                          </g>
                        </g>
                      </g>
                    </g>
                  </g>
                </g>
              </g>
            </g>
          </g>
        </g>
      </g>
    </g>
    <g id="terapia-ocupacional" transform="translate(-724.708 1890.307)">
      <circle id="Elipse_12504" data-name="Elipse 12504" cx="11.923" cy="11.923" r="11.923" transform="translate(36.763 66.143) rotate(-82.996)" fill="#c9f550"/>
      <g id="Grupo_1241369" data-name="Grupo 1241369" transform="translate(3.981 29.896)">
        <path id="Trazado_1295289" data-name="Trazado 1295289" d="M286.39,164.84a11.922,11.922,0,1,1,11.167-11.9A11.923,11.923,0,0,1,286.39,164.84Z" transform="translate(-241.076 -127.051)" fill="#dbff78" fill-rule="evenodd"/>
        <path id="Trazado_1295290" data-name="Trazado 1295290" d="M323.817,184.855h3.589a.555.555,0,0,1,.554.554v3.481h3.48a.555.555,0,0,1,.554.554v3.589a.555.555,0,0,1-.554.554h-3.48v3.48a.555.555,0,0,1-.554.554h-3.589a.555.555,0,0,1-.554-.554v-3.48h-3.481a.555.555,0,0,1-.554-.554v-3.589a.555.555,0,0,1,.554-.554h3.481v-3.481A.555.555,0,0,1,323.817,184.855Z" transform="translate(-279.542 -165.347)" fill="#4eb1fc" fill-rule="evenodd"/>
        <path id="Trazado_1295291" data-name="Trazado 1295291" d="M332.526,184.855h2.493a.555.555,0,0,1,.554.554v3.481h3.48a.555.555,0,0,1,.554.554v3.589a.555.555,0,0,1-.554.554h-3.48v3.48a.555.555,0,0,1-.554.554h-2.493a.555.555,0,0,1-.554-.554v-3.48h-3.48a.555.555,0,0,1-.554-.554v-3.589a.555.555,0,0,1,.554-.554h3.48v-3.481A.555.555,0,0,1,332.526,184.855Z" transform="translate(-287.155 -165.347)" fill="#85caff" fill-rule="evenodd"/>
        <path id="Trazado_1295292" data-name="Trazado 1295292" d="M98.691,66.492c12.6-7.31,17.289-14.658,16.618-20.9-.856-7.961-9.9-12.441-16.618-3.7-6.716-8.742-15.763-4.261-16.618,3.7C81.4,51.833,86.088,59.182,98.691,66.492Z" transform="translate(-72.187 -36.212)" fill="#f23353" fill-rule="evenodd"/>
        <path id="Trazado_1295293" data-name="Trazado 1295293" d="M107.9,37.191c-2.935-.4-6.293.906-9.212,4.7-6.716-8.742-15.763-4.261-16.618,3.7-.648,6.027,3.7,13.09,15.365,20.154,12.228-7.213,16.782-14.45,16.121-20.606a9.419,9.419,0,0,0-5.656-7.952Z" transform="translate(-72.187 -36.212)" fill="#ff5471" fill-rule="evenodd"/>
        <path id="Trazado_1295294" data-name="Trazado 1295294" d="M51.875,321.17a2.966,2.966,0,0,0-3.132-3.672c-13.277,0-17.885-7.606-25.173-4.319a120.172,120.172,0,0,1-12.591,4.86l5.732,14.8c10.532-3.422,18.391-1.424,25.093-.892A20.138,20.138,0,0,0,53,329.806c4.575-2.424,17.369-9.47,18.756-11.293,2.508-3.3-.591-6.628-4.189-4.551a121.78,121.78,0,0,1-15.6,7.181l-.092.028Z" transform="translate(-10.098 -276.797)" fill="#fdb0a0" fill-rule="evenodd"/>
        <path id="Trazado_1295295" data-name="Trazado 1295295" d="M51.875,321.17a2.966,2.966,0,0,0-3.132-3.672c-13.277,0-17.885-7.606-25.173-4.319a120.172,120.172,0,0,1-12.591,4.86L16,330.994c10.426-3.328,18.225-1.354,24.883-.825a20.138,20.138,0,0,0,11.2-2.146c4.575-2.423,17.369-9.47,18.756-11.293s.564-3.255-1.016-3.412a4.4,4.4,0,0,0-2.247.644,121.775,121.775,0,0,1-15.6,7.181l-.092.028Z" transform="translate(-10.098 -276.797)" fill="#ffcec0" fill-rule="evenodd"/>
        <path id="Trazado_1295296" data-name="Trazado 1295296" d="M196.135,358.565a1.006,1.006,0,1,1,.928-1.786,23.175,23.175,0,0,0,9.153,1.573c2.321-.057,4.332-.491,4.973-1.57.592-1,.664-2.634-.479-3.269a2.933,2.933,0,0,1,2.538,3.633,4.984,4.984,0,0,1-.327.659c-1.058,1.781-3.7,2.481-6.657,2.554-3.825.094-8.31-.847-10.129-1.794Z" transform="translate(-171.471 -312.773)" fill="#fdb0a0" fill-rule="evenodd"/>
        <path id="Trazado_1295297" data-name="Trazado 1295297" d="M21.342,39.171a.881.881,0,0,1,.881-.881,4.2,4.2,0,0,1,4.194,4.194v2.643A4.076,4.076,0,0,0,29.6,49.1V39.468a.881.881,0,1,1,1.762,0V49.1a4.077,4.077,0,0,0,3.187-3.973V42.484a4.2,4.2,0,0,1,4.194-4.194.881.881,0,0,1,0,1.763,2.434,2.434,0,0,0-2.432,2.431v2.643a5.839,5.839,0,0,1-4.949,5.764v4.992a.881.881,0,0,1-1.762,0V50.89a5.839,5.839,0,0,1-4.95-5.764V42.484a2.434,2.434,0,0,0-2.431-2.431.881.881,0,0,1-.881-.882Zm-6.623.192c-.327,3.045.738,6.22,3.164,9.437,2.661,3.528,6.9,7.018,12.6,10.376,5.7-3.358,9.941-6.847,12.6-10.376,2.426-3.217,3.491-6.392,3.163-9.437a8.382,8.382,0,0,0-5.737-7.447c-3.195-.9-6.6.627-9.33,4.184a.881.881,0,0,1-1.4,0c-2.218-2.888-4.877-4.436-7.51-4.436a6.721,6.721,0,0,0-1.82.252,8.382,8.382,0,0,0-5.737,7.447Zm35.333,5.382a11.093,11.093,0,0,0-2.873.377,19.153,19.153,0,0,1-2.685,4.739,33.272,33.272,0,0,1-5.479,5.576c0,.117,0,.234,0,.35A11.041,11.041,0,1,0,50.051,44.745ZM30.042,60.958a.879.879,0,0,0,.885,0,65.2,65.2,0,0,0,6.358-4.167,12.806,12.806,0,1,0,10.477-13.6A12.252,12.252,0,0,0,48,39.175a10.132,10.132,0,0,0-7.012-8.956c-3.644-1.024-7.426.413-10.505,3.953-3.081-3.54-6.862-4.976-10.507-3.953a10.132,10.132,0,0,0-7.012,8.956c-.376,3.5.8,7.1,3.51,10.685,2.872,3.808,7.436,7.542,13.566,11.1Zm36.3,11.186c-1.826,2.4-18.873,11.449-19.044,11.54l-.019.01A21.026,21.026,0,0,1,35.618,85.93c-1.279-.1-2.578-.254-3.954-.414-5.828-.681-12.431-1.453-20.8,1.265a.881.881,0,0,1-.545-1.675c8.732-2.837,15.54-2.042,21.547-1.34,1.359.158,2.641.308,3.888.408A19.351,19.351,0,0,0,46.48,82.121c7.066-3.744,17.405-9.661,18.458-11.043,1.036-1.362.823-2.509.278-3.128s-1.754-1.035-3.326-.127a123.461,123.461,0,0,1-15.377,7.115,4.945,4.945,0,0,1-.506,1.181c-1.194,2.008-4.313,2.5-7.079,2.5-.376,0-.746-.008-1.1-.024a23.845,23.845,0,0,1-8.437-1.766.882.882,0,0,1,.814-1.564,22.009,22.009,0,0,0,7.7,1.569c3.437.15,5.9-.453,6.592-1.615a2.892,2.892,0,0,0,.154-2.763,2.129,2.129,0,0,0-2.019-.977A36.667,36.667,0,0,1,27.9,68.2c-3.855-1.549-6.64-2.666-10.081-1.114A89.614,89.614,0,0,1,8.5,70.8c-.943.326-2.011.695-3.335,1.172a.881.881,0,0,1-.6-1.658c1.335-.481,2.409-.852,3.356-1.18a88.423,88.423,0,0,0,9.172-3.654c4.125-1.861,7.525-.5,11.462,1.085a34.67,34.67,0,0,0,14.073,3.155,3.865,3.865,0,0,1,3.55,1.867,3.983,3.983,0,0,1,.474,1.422A122.96,122.96,0,0,0,61.009,66.3c2.335-1.348,4.46-.727,5.528.487,1.266,1.435,1.188,3.539-.2,5.359ZM44.549,54.32H47.7a.882.882,0,0,0,.882-.881V50.285h2.935v3.154a.881.881,0,0,0,.881.881h3.154v2.935H52.4a.88.88,0,0,0-.881.881v3.152H48.583V58.135a.881.881,0,0,0-.882-.881H44.549Zm-1.763-.881a.882.882,0,0,1,.881-.882h3.154V49.4a.882.882,0,0,1,.881-.881h4.7a.881.881,0,0,1,.881.881v3.154h3.154a.882.882,0,0,1,.882.882v4.7a.883.883,0,0,1-.882.882H53.28v3.152a.88.88,0,0,1-.881.882H47.7a.882.882,0,0,1-.881-.882V59.017H43.667a.882.882,0,0,1-.881-.882Z" transform="translate(-3.981 -29.896)" fill-rule="evenodd"/>
      </g>
    </g>
  </g>
</svg>
