<svg xmlns="http://www.w3.org/2000/svg" xmlns:xlink="http://www.w3.org/1999/xlink" width="295" height="323.178" viewBox="0 0 295 323.178">
  <defs>
    <clipPath id="clip-path">
      <path id="Trazado_1295500" data-name="Trazado 1295500" d="M0,0H295V323.178H0Z" transform="translate(1125 2622.822)" fill="#fff" stroke="#707070" stroke-width="1"/>
    </clipPath>
  </defs>
  <g id="Enmascarar_grupo_1211483" data-name="Enmascarar grupo 1211483" transform="translate(-1125 -2622.822)" clip-path="url(#clip-path)">
    <g id="OBJECTS" transform="translate(1093.917 2578.601)">
      <g id="Grupo_1241452" data-name="Grupo 1241452" transform="translate(19.5 53.837)">
        <g id="Grupo_1241379" data-name="Grupo 1241379" transform="translate(11.309)">
          <g id="Grupo_1241374" data-name="Grupo 1241374" transform="translate(222.944 149.245)">
            <rect id="Rectángulo_424094" data-name="Rectángulo 424094" width="55.461" height="77.877" transform="translate(0 17.367) rotate(-13.704)" fill="#eaa93f"/>
            <g id="Grupo_1241372" data-name="Grupo 1241372" transform="translate(4.852 10.685)">
              <path id="Trazado_1295301" data-name="Trazado 1295301" d="M424.348,279.888,377.4,291.338l16.233,66.557,38.353-9.354,6.648-10.069Z" transform="translate(-377.402 -279.888)" fill="#fff"/>
              <path id="Trazado_1295302" data-name="Trazado 1295302" d="M460.994,364.158l-10.24,2.5,3.592,7.572Z" transform="translate(-399.76 -305.574)" fill="#7d9ab7"/>
              <path id="Trazado_1295303" data-name="Trazado 1295303" d="M454.9,374.227l6.648-10.069-8.974.535Z" transform="translate(-400.316 -305.574)" fill="#bfd8ef"/>
            </g>
            <path id="Trazado_1295304" data-name="Trazado 1295304" d="M408.694,266.6l-.508-2.081-17.049,4.158.508,2.081L384.89,272.4l2.423,9.936,30.559-7.453-2.423-9.936Zm-3.349,4.978-8.442,2.058a2.378,2.378,0,1,1-1.127-4.621l8.442-2.058a2.378,2.378,0,0,1,1.127,4.621Z" transform="translate(-374.832 -264.518)" fill="#ff4200"/>
            <g id="Grupo_1241373" data-name="Grupo 1241373" transform="translate(11.656 16.314)">
              <path id="Trazado_1295305" data-name="Trazado 1295305" d="M402.613,305.281a7.823,7.823,0,1,1-9.453-5.746A7.823,7.823,0,0,1,402.613,305.281Z" transform="translate(-387.189 -291.437)" fill="#b1e4df"/>
              <rect id="Rectángulo_424095" data-name="Rectángulo 424095" width="41.23" height="2.064" transform="translate(3.025 29.107) rotate(-13.704)" fill="#b1e4df"/>
              <rect id="Rectángulo_424096" data-name="Rectángulo 424096" width="22.846" height="5.03" transform="translate(18.101 15.66) rotate(-13.704)" fill="#b1e4df"/>
              <rect id="Rectángulo_424097" data-name="Rectángulo 424097" width="22.846" height="5.031" transform="translate(15.601 5.412) rotate(-13.704)" fill="#b1e4df"/>
              <rect id="Rectángulo_424098" data-name="Rectángulo 424098" width="41.23" height="2.064" transform="translate(3.771 32.168) rotate(-13.704)" fill="#b1e4df"/>
              <rect id="Rectángulo_424099" data-name="Rectángulo 424099" width="26.773" height="2.064" transform="translate(19.311 34.872) rotate(-13.704)" fill="#b1e4df"/>
              <rect id="Rectángulo_424100" data-name="Rectángulo 424100" width="26.773" height="2.064" transform="translate(20.261 38.764) rotate(-13.704)" fill="#b1e4df"/>
              <rect id="Rectángulo_424101" data-name="Rectángulo 424101" width="26.773" height="2.064" transform="translate(22.575 48.257) rotate(-13.704)" fill="#b1e4df"/>
              <rect id="Rectángulo_424102" data-name="Rectángulo 424102" width="26.773" height="2.064" transform="translate(23.593 52.429) rotate(-13.704)" fill="#b1e4df"/>
              <rect id="Rectángulo_424103" data-name="Rectángulo 424103" width="12.672" height="9.719" transform="translate(5.214 38.082) rotate(-13.704)" fill="#b1e4df"/>
              <rect id="Rectángulo_424104" data-name="Rectángulo 424104" width="12.673" height="9.719" transform="translate(8.565 51.827) rotate(-13.704)" fill="#b1e4df"/>
            </g>
            <path id="Trazado_1295306" data-name="Trazado 1295306" d="M407.83,339.058a.852.852,0,0,0-1.2.138l-6.4,8.059-5.015-2.74a.852.852,0,1,0-.818,1.5l5.645,3.085a.853.853,0,0,0,1.077-.218l6.846-8.621A.853.853,0,0,0,407.83,339.058Z" transform="translate(-377.596 -287.182)" fill="#42aa6f"/>
            <path id="Trazado_1295307" data-name="Trazado 1295307" d="M412.49,358.165a.852.852,0,0,0-1.2.138l-6.4,8.059-5.015-2.74a.852.852,0,1,0-.818,1.5l5.645,3.085a.853.853,0,0,0,1.077-.218l6.846-8.621A.853.853,0,0,0,412.49,358.165Z" transform="translate(-379.016 -293.006)" fill="#42aa6f"/>
          </g>
          <g id="Grupo_1241375" data-name="Grupo 1241375" transform="translate(29.539 121.177)">
            <path id="Trazado_1295308" data-name="Trazado 1295308" d="M107.616,252.547H83.089a3.831,3.831,0,0,1-3.831-3.831v-20.74a3.831,3.831,0,0,1,3.831-3.831h24.527a3.831,3.831,0,0,1,3.831,3.831v20.74A3.832,3.832,0,0,1,107.616,252.547Z" transform="translate(-79.258 -224.144)" fill="#00769e"/>
            <path id="Trazado_1295309" data-name="Trazado 1295309" d="M106.235,238.387h-6.42v-6.42a1.8,1.8,0,0,0-3.591,0v6.42H89.8a1.8,1.8,0,1,0,0,3.591h6.42v6.42a1.8,1.8,0,1,0,3.591,0v-6.42h6.42a1.8,1.8,0,1,0,0-3.591Z" transform="translate(-81.925 -225.981)" fill="#fff"/>
          </g>
          <path id="Trazado_1295310" data-name="Trazado 1295310" d="M296.764,58.053h-6.42v-6.42a1.8,1.8,0,0,0-3.591,0v6.42h-6.42a1.8,1.8,0,1,0,0,3.591h6.42v6.42a1.8,1.8,0,0,0,3.591,0v-6.42h6.42a1.8,1.8,0,1,0,0-3.591Z" transform="translate(-110.461 -49.837)" fill="#ff4200"/>
          <g id="Grupo_1241376" data-name="Grupo 1241376" transform="translate(10 195.213)">
            <path id="Trazado_1295311" data-name="Trazado 1295311" d="M66.884,345.614a1.313,1.313,0,0,0-1.843-.232l-12.518,9.725-6.5-5.932a1.313,1.313,0,1,0-1.77,1.941l7.322,6.677a1.315,1.315,0,0,0,1.691.067l13.392-10.4A1.315,1.315,0,0,0,66.884,345.614Z" transform="translate(-38.917 -335.05)" fill="#42aa6f"/>
            <path id="Trazado_1295312" data-name="Trazado 1295312" d="M53.34,330.641a16.572,16.572,0,1,0,16.572,16.572A16.591,16.591,0,0,0,53.34,330.641Zm0,31.168a14.6,14.6,0,1,1,14.6-14.6A14.613,14.613,0,0,1,53.34,361.809Z" transform="translate(-36.768 -330.641)" fill="#42aa6f"/>
          </g>
          <g id="Grupo_1241377" data-name="Grupo 1241377" transform="translate(23.717 37.455)">
            <path id="Trazado_1295313" data-name="Trazado 1295313" d="M92.356,119.219l-13.211-14a4.782,4.782,0,0,0-6.957,6.563l13.211,14a4.782,4.782,0,0,0,6.957-6.563Z" transform="translate(-70.883 -103.714)" fill="#66e6e1"/>
            <path id="Trazado_1295314" data-name="Trazado 1295314" d="M72.384,105.018a4.782,4.782,0,0,0-.2,6.76l6.606,7,6.958-6.563-6.606-7A4.783,4.783,0,0,0,72.384,105.018Z" transform="translate(-70.883 -103.715)" fill="#416d6a"/>
          </g>
          <g id="Grupo_1241378" data-name="Grupo 1241378" transform="translate(33.549 16.402)">
            <path id="Trazado_1295315" data-name="Trazado 1295315" d="M100.407,94.985,94.349,76.71a4.782,4.782,0,1,0-9.079,3.009l6.057,18.275a4.782,4.782,0,1,0,9.079-3.009Z" transform="translate(-85.027 -73.431)" fill="#66e6e1"/>
            <path id="Trazado_1295316" data-name="Trazado 1295316" d="M88.305,73.676a4.782,4.782,0,0,0-3.035,6.044L88.3,88.857l9.079-3.009L94.35,76.71A4.783,4.783,0,0,0,88.305,73.676Z" transform="translate(-85.027 -73.431)" fill="#416d6a"/>
          </g>
        </g>
        <path id="Trazado_1295317" data-name="Trazado 1295317" d="M151.836,264.919l32.084-32.187H307.443c4.449,0,8.057-3.891,8.057-8.69s-3.608-8.69-8.057-8.69H180.752a7.746,7.746,0,0,0-5.488,2.327l-32.083,32.187H57.442A8.1,8.1,0,0,0,49.9,255.51a9.149,9.149,0,0,0,2.254,9.6L180.869,386.019a7.726,7.726,0,0,0,5.292,2.137H294.23v8.049H28.557c-4.45,0-8.057,3.891-8.057,8.69a10.1,10.1,0,0,0,.233,2.081,8.131,8.131,0,0,0,7.825,6.609H302.286c4.449,0,8.057-3.891,8.057-8.69V379.466c0-4.8-3.608-8.69-8.057-8.69H189.178L78.961,267.247h67.388A7.746,7.746,0,0,0,151.836,264.919Z" transform="translate(-8.917 -100.287)" fill="#eaa93f"/>
        <g id="Grupo_1241380" data-name="Grupo 1241380" transform="translate(84.905 115.065)">
          <path id="Trazado_1295318" data-name="Trazado 1295318" d="M149.5,325.981l-6.868,17.066,88.058,76.693a8.691,8.691,0,0,0,5.708,2.137H287.6l-.721-17.332.04-.048H239.651Z" transform="translate(-142.631 -249.072)" fill="#825411"/>
          <path id="Trazado_1295319" data-name="Trazado 1295319" d="M296.771,475.5H171.6l.006.023,9.307,17.357H303.545l-6.773-17.357Z" transform="translate(-151.462 -294.647)" fill="#825411"/>
          <path id="Trazado_1295320" data-name="Trazado 1295320" d="M237.411,215.352a8.689,8.689,0,0,0-5.919,2.327l-34.6,32.187H170.8l-5.7,17.38h35.21a8.689,8.689,0,0,0,5.919-2.328l34.6-32.187h51.159l-4.615-17.38Z" transform="translate(-149.478 -215.352)" fill="#825411"/>
        </g>
        <g id="Grupo_1241396" data-name="Grupo 1241396" transform="translate(89.235 29.485)">
          <g id="Grupo_1241388" data-name="Grupo 1241388" transform="translate(15.38)">
            <g id="Grupo_1241381" data-name="Grupo 1241381" transform="translate(45.321 64.87)">
              <path id="Trazado_1295321" data-name="Trazado 1295321" d="M264.033,193.5s1.614,16.2,8.966,21.4-15.421,21.159-26.9,9.5-9.848-13.369-9.848-13.369,6.954-8.1,5.978-17.535S261.381,181.831,264.033,193.5Z" transform="translate(-236.175 -185.561)" fill="#ec9282"/>
              <path id="Trazado_1295322" data-name="Trazado 1295322" d="M244.85,193.5a18.653,18.653,0,0,1-.087,4.436s3.135,6.005,23.46,3.748a57.123,57.123,0,0,1-1.572-8.183C264,181.831,243.874,184.059,244.85,193.5Z" transform="translate(-238.792 -185.561)" fill="#171028"/>
            </g>
            <g id="Grupo_1241382" data-name="Grupo 1241382" transform="translate(23.455 37.876)">
              <path id="Trazado_1295323" data-name="Trazado 1295323" d="M296.852,160.616c2.28-6.19,1.189-12.29-2.435-13.624-2.272-.836-5,.4-7.28,2.959a18.341,18.341,0,0,0-3.41,5.831c-2.28,6.19-1.189,12.29,2.435,13.624a4.176,4.176,0,0,0,.425.116C290.153,170.422,294.66,166.569,296.852,160.616Z" transform="translate(-228.44 -146.732)" fill="#f39596"/>
              <path id="Trazado_1295324" data-name="Trazado 1295324" d="M206.864,156.332c-3.192,2.175-2.769,8.357.945,13.808,3.52,5.166,8.728,7.815,11.98,6.228a4.213,4.213,0,0,0,.523-.294c3.192-2.175,2.769-8.356-.945-13.808a17.935,17.935,0,0,0-5.224-5.146C211.467,155.458,208.747,155.049,206.864,156.332Z" transform="translate(-204.721 -149.428)" fill="#f39596"/>
            </g>
            <g id="Grupo_1241383" data-name="Grupo 1241383" transform="translate(27.472 40.571)">
              <path id="Trazado_1295325" data-name="Trazado 1295325" d="M296.619,151.391a2.4,2.4,0,0,0-2.33-.7c-1.951.606-2.469,4.225-2.484,4.469.009-.035.923-3.493,2.623-4.02a1.967,1.967,0,0,1,1.881.6c1.28,1.116,1.807,3.525,1.378,6.287-.405,2.6-1.828,6-4.542,7.849a.236.236,0,0,1-.346-.293c.843-1.852,1.933-4.631,1.2-5.244-.4-.336-1.057.018-1.579.387a.235.235,0,1,0,.273.382c.786-.553.984-.427,1-.409.457.381-.656,3.406-1.948,5.992a.235.235,0,0,0,.3.321c.095-.041.188-.083.279-.128,3.544-1.7,5.35-5.762,5.821-8.787C298.607,155.185,298.02,152.612,296.619,151.391Z" transform="translate(-235.257 -150.608)" fill="#da3131"/>
              <path id="Trazado_1295326" data-name="Trazado 1295326" d="M211.236,160.8a2.324,2.324,0,0,1,2.027-1.2c1.976.111,3.315,3.391,3.387,3.618-.017-.031-1.69-3.068-3.412-3.163a1.906,1.906,0,0,0-1.627,1.008c-.941,1.351-.87,3.739.184,6.235a11.593,11.593,0,0,0,6.118,6.311.229.229,0,0,0,.257-.357c-1.229-1.543-2.907-3.9-2.361-4.649.3-.41,1-.231,1.576-.007a.228.228,0,1,1-.168.425c-.87-.335-1.025-.17-1.041-.148-.34.465,1.418,3.049,3.242,5.176a.228.228,0,0,1-.21.373c-.1-.016-.2-.034-.293-.054-3.732-.763-6.386-4.159-7.54-6.892C210.259,164.838,210.206,162.281,211.236,160.8Z" transform="translate(-210.499 -153.348)" fill="#da3131"/>
            </g>
            <path id="Trazado_1295327" data-name="Trazado 1295327" d="M218.258,144.135c-.939-15.883,7.054-29.585,19.256-31.759,13.348-2.378,26.734,9.931,30.128,27.578.039.2.078.4.113.6a41.225,41.225,0,0,1-.7,18.109c-2.719,9.852-9.27,17.236-17.952,18.783-9.993,1.78-20.007-4.672-25.834-15.433a42.425,42.425,0,0,1-4.407-12.749A44.118,44.118,0,0,1,218.258,144.135Z" transform="translate(-185.37 -98.294)" fill="#fac4bb"/>
            <g id="Grupo_1241384" data-name="Grupo 1241384" transform="translate(40.801 49.686)">
              <path id="Trazado_1295328" data-name="Trazado 1295328" d="M271.467,163.949c3.021-.984,6.111,1.508,6.255,1.589-.031-.017-3.368-1.144-5.847-.336a3.936,3.936,0,0,0-2.193,1.837.659.659,0,0,1-1.137-.667A5.2,5.2,0,0,1,271.467,163.949Z" transform="translate(-241.494 -163.719)" fill="#2b2132"/>
              <path id="Trazado_1295329" data-name="Trazado 1295329" d="M235.115,167.985a5.2,5.2,0,0,1,3.534,1.384.659.659,0,0,1-.87.99,3.938,3.938,0,0,0-2.658-1.057c-2.608.01-5.423,2.128-5.447,2.154C229.786,171.334,231.937,168,235.115,167.985Z" transform="translate(-229.673 -165.02)" fill="#2b2132"/>
            </g>
            <g id="Grupo_1241385" data-name="Grupo 1241385" transform="translate(37.655 39.526)">
              <path id="Trazado_1295330" data-name="Trazado 1295330" d="M271.188,149.916a6.765,6.765,0,0,0-6.317,1.578,6.515,6.515,0,0,1,3.076-2.341c-3.322-.567-4.827,4.029-4.417,5.359s2.182-.645,6.823-1.773,7.075.945,7.075.945C277.764,152.362,275.758,151,271.188,149.916Z" transform="translate(-236.827 -149.105)" fill="#e14838"/>
              <path id="Trazado_1295331" data-name="Trazado 1295331" d="M230.224,157.031a6.765,6.765,0,0,1,6.5-.28,6.514,6.514,0,0,0-3.614-1.372c3.025-1.486,5.773,2.494,5.756,3.885s-2.275,0-7.045.236-6.516,2.914-6.516,2.914C224.613,161.243,226.151,159.372,230.224,157.031Z" transform="translate(-225.148 -150.918)" fill="#e14838"/>
            </g>
            <g id="Grupo_1241386" data-name="Grupo 1241386" transform="translate(41.869 57.756)">
              <path id="Trazado_1295332" data-name="Trazado 1295332" d="M233.249,178.988c1.837-.975,4.369-.01,6.4,2.2a6.709,6.709,0,0,0-3.511-1.611c5.271,1.556,6.692,8.653,6.709,8.735.174,2.264-.511,4.17-2.011,4.967-2.447,1.3-6.13-.845-8.227-4.792S230.8,180.288,233.249,178.988Z" transform="translate(-231.209 -176.328)" fill="#f9765d"/>
              <path id="Trazado_1295333" data-name="Trazado 1295333" d="M278.745,175.708c-1.837-.975-4.369-.01-6.4,2.2a6.709,6.709,0,0,1,3.511-1.611c-5.271,1.556-6.692,8.653-6.709,8.735-.174,2.264.511,4.17,2.011,4.967,2.447,1.3,6.13-.845,8.227-4.791S281.192,177.008,278.745,175.708Z" transform="translate(-242.764 -175.328)" fill="#f9765d"/>
            </g>
            <g id="Grupo_1241387" data-name="Grupo 1241387" transform="translate(56.548 57.772)">
              <path id="Trazado_1295334" data-name="Trazado 1295334" d="M255.578,175.357c2.454-.151,3.422,2.52,3.422,2.52s-6.821,1.726-6.672.463A3.41,3.41,0,0,1,255.578,175.357Z" transform="translate(-252.325 -175.351)" fill="#f6a48d"/>
              <path id="Trazado_1295335" data-name="Trazado 1295335" d="M252.731,178.976l.163-.011,2.486-.172.523-.036,2.486-.172.163-.011a.384.384,0,0,1,.447.288l.092,1.317c.012.175-.168.33-.4.347l-.163.011s-.886.176-.986.624c0,0,.038.226-.966.3l-.48.033-.523.036-.48.033c-1,.07-1-.16-1-.16-.161-.43-1.063-.482-1.063-.482l-.163.011a.384.384,0,0,1-.447-.288l-.092-1.317C252.316,179.147,252.5,178.992,252.731,178.976Z" transform="translate(-252.326 -176.333)" fill="#ea344f"/>
            </g>
            <path id="Trazado_1295336" data-name="Trazado 1295336" d="M186.463,188.6c5.523-3.107,34.655-15.525,35.057-15.7a22.366,22.366,0,0,0,.754-3.41,31.006,31.006,0,0,1-12.769-12.426c-3.252,1.587-8.461-1.061-11.98-6.228-3.714-5.451-4.137-11.633-.945-13.808a5.167,5.167,0,0,1,4.247-.539c.305,4.072,8.059,19.482,8.059,19.482-1.566-4.063-.247-12.216-.247-12.216,4.522-1.934,7.745-8.346,7.745-8.346l-.884,6.183c5.407-1.946,11.329-7.737,11.329-7.737l-.957,5.012c12.552-.845,12.873-16.966,12.873-16.966a16.245,16.245,0,0,0,12.507,11.6c2.547,4.423,1.85,17.393,1.85,17.393,2.233-3.506,2.545-19.6,2.547-19.707a5.436,5.436,0,0,1,4.766-.8c3.624,1.335,4.714,7.434,2.435,13.624-2.192,5.952-6.7,9.806-10.265,8.907a28.668,28.668,0,0,1-8.218,13.715,59.415,59.415,0,0,0,1.367,6.608h0l41.155,19.531s.124.259.349.8c1.37-10.68.386-26.507-9.364-38.311-15.3-18.524-20.322-40.051-28.6-53.2s-27.723-10.726-37.49-6.216c-11,5.08-15.2,16.975-17.347,28.839s-5.982,24.476-16.5,38.575-5.977,21.525-5.977,21.525c-1.912-9.8,7.651-19.726,7.651-19.726-7.89,17.571,0,30.963,0,30.963l1.248,2.357C182.76,193.312,184.648,189.618,186.463,188.6Z" transform="translate(-170.983 -92.249)" fill="#492320"/>
            <path id="Trazado_1295337" data-name="Trazado 1295337" d="M252.325,192.831s4.9,2.172,8.812-.956C261.137,191.875,258.286,200.913,252.325,192.831Z" transform="translate(-195.777 -122.616)" fill="#e14838"/>
          </g>
          <g id="Grupo_1241390" data-name="Grupo 1241390" transform="translate(16.934 206.426)">
            <path id="Trazado_1295338" data-name="Trazado 1295338" d="M175.88,407.619s-13.169,45.434,25.515,58.6h84.889l-3.021-5.048s12.977-16.3,7.479-40.385c0,0-36.67-31.606-63.009-31.606S175.88,407.619,175.88,407.619Z" transform="translate(-173.371 -389.182)" fill="#1a2b76"/>
            <g id="Grupo_1241389" data-name="Grupo 1241389" transform="translate(0 11.752)">
              <path id="Trazado_1295339" data-name="Trazado 1295339" d="M288.959,421.951c-.364-.594-9.046-14.561-20.446-15.862a.348.348,0,0,0-.079.692c11.062,1.26,19.845,15.392,19.921,15.514l23.377,44.193a.348.348,0,1,0,.615-.325Z" transform="translate(-202.147 -406.087)" fill="#171028"/>
              <path id="Trazado_1295340" data-name="Trazado 1295340" d="M337.3,451.249c-13-.635-12.554-25.741-12.548-26a.348.348,0,0,0-.339-.356.361.361,0,0,0-.356.339c-.025,1.062-.469,26.037,13.209,26.705h.017a.347.347,0,0,0,.017-.694Z" transform="translate(-219.193 -411.821)" fill="#171028"/>
              <path id="Trazado_1295341" data-name="Trazado 1295341" d="M220.572,427.768c-11.869-10.641-27.5-5.972-31.135-4.674a32.8,32.8,0,0,0,2.02-14.468.348.348,0,1,0-.69.081c.013.115,1.274,11.6-4.752,18.764-2.934,3.491-7.129,5.414-12.469,5.718a.348.348,0,0,0,.019.694h.02c5.538-.314,9.9-2.321,12.961-5.964a18.2,18.2,0,0,0,2.493-3.933c1.506-.6,18.48-6.985,31.068,4.3,13.246,11.875,31.885,43.626,32.072,43.945a.348.348,0,0,0,.6-.35C252.592,471.559,233.9,439.715,220.572,427.768Z" transform="translate(-173.218 -406.767)" fill="#171028"/>
              <path id="Trazado_1295342" data-name="Trazado 1295342" d="M220.752,479.63a.345.345,0,0,0-.149-.113c-7.012-5.3-15.727-10.961-22.518-12.394a.348.348,0,0,0-.143.681c6.344,1.338,14.426,6.454,21.171,11.462-2.907-.41-9.738-1.1-15.51.411a.347.347,0,1,0,.176.672c5.568-1.457,12.169-.82,15.1-.414-9.22,3-10.513,9.911-10.527,9.983a.348.348,0,0,0,.284.4.339.339,0,0,0,.059,0,.347.347,0,0,0,.342-.289c.013-.072,1.351-7.195,11.349-9.816,6.784,5.147,11.932,9.915,12.036,10.011a.348.348,0,1,0,.474-.509C232.791,489.625,227.6,484.818,220.752,479.63Z" transform="translate(-180.67 -424.689)" fill="#171028"/>
            </g>
          </g>
          <g id="Grupo_1241392" data-name="Grupo 1241392" transform="translate(0 80.647)">
            <path id="Trazado_1295343" data-name="Trazado 1295343" d="M170.856,336.4c-14.947,2.781-18.944-7.126-21.03-10.254s-.521-15.468,2.086-20.334,5.562-18.249,10.775-34.412c3.513-10.89,7.5-27.213,11.427-37.669,1.9-5.063,3.791-8.757,5.605-9.778,5.523-3.107,34.655-15.525,35.057-15.7l.01,0s2.126,12.92,11.847,12.92,12.352-12.548,12.358-12.577h0l41.155,19.531s.124.259.349.8c.969,2.34,3.81,9.965,6.632,24.921,3.476,18.423,14.135,65.638,14.309,81.28s-12.919,18.828-15.7,19.176l-2.781.348c-1.043,7.126.277,11.288.277,11.288-13.987-8.043-26.156-14.192-39.034-17.371-45.564-11.244-76.24,4.4-76.24,4.4Z" transform="translate(-148.86 -208.256)" fill="#ed4b37"/>
            <g id="Grupo_1241391" data-name="Grupo 1241391" transform="translate(8.614 2.256)">
              <path id="Trazado_1295344" data-name="Trazado 1295344" d="M287.157,294.8c1.662-2.781,8.534-18.423,7.607-25.722s-6.51-8.935-6.51-8.935S285.5,297.586,287.157,294.8Z" transform="translate(-199.466 -226.329)" fill="#171028"/>
              <path id="Trazado_1295345" data-name="Trazado 1295345" d="M274.351,364.852l-6.778-9.07,1.415-10.28-2.9-4.7L254.7,311.366l-9.272-3.374-14.491,10.484-5.963-13.939-1.719,10.55L204.7,338.967l1.636,7.024-6.72,5.677-.7-3.476L180.5,365.751l16.685-13.04,1.043,3.476,10.2-7.068-1.506-10.153,19.465-24.259,4.171,8.458,18.075-11.01a20.292,20.292,0,0,1,3.8,4.732c-10.523,15.77-36.37,24.834-36.634,24.925a.348.348,0,0,0,.113.676.358.358,0,0,0,.113-.019c.264-.091,26.057-9.134,36.817-24.948,3.023,4.738,6.7,11.637,9.748,17.625l0,0L266.53,347.5l-1.042,10.891,10.254,10.258,1.564-5.265L292.6,384,276.784,357.08Z" transform="translate(-167.118 -239.859)" fill="#171028"/>
              <path id="Trazado_1295346" data-name="Trazado 1295346" d="M187.32,301.828V295.7l7.025-4.388,1.016,7.763a.348.348,0,1,0,.69-.09l-1.087-8.3a.347.347,0,0,0-.528-.25l-1.969,1.23,6.668-41.636-.686-.11-6.764,42.234-4.9,3.057a.347.347,0,0,0-.163.295V296c-1.824-3.989-6.805-15.947-6.431-26.891a.348.348,0,0,0-.335-.359.355.355,0,0,0-.359.336c-.445,13.011,6.559,27.4,7.126,28.539v4.013l-18.968,11.586a16.589,16.589,0,0,0-6.4,11.012.348.348,0,0,0,.3.388.3.3,0,0,0,.043,0,.348.348,0,0,0,.345-.305,16.191,16.191,0,0,1,6.093-10.515l19.118-11.677A.347.347,0,0,0,187.32,301.828Z" transform="translate(-161.251 -223.211)" fill="#171028"/>
              <path id="Trazado_1295347" data-name="Trazado 1295347" d="M333.559,330.188,320.313,315.68l1.675-5.2a.347.347,0,0,0-.056-.319l-2.1-2.717a126.122,126.122,0,0,0,3.849-28.827.348.348,0,0,0-.343-.352.363.363,0,0,0-.352.343,126.479,126.479,0,0,1-3.689,28.143l-3.434-4.451L305.031,248.8a.348.348,0,0,0-.682.138l10.556,52.12L312.547,298a.348.348,0,0,0-.612.128l-2.086,8.342a.348.348,0,1,0,.674.169l1.911-7.646,8.835,11.453-1.682,5.214a.344.344,0,0,0,.074.341l13.386,14.661c.074.079,7.4,7.917,7.9,13.465a.347.347,0,0,0,.346.316h.032a.348.348,0,0,0,.315-.377C341.117,338.276,333.864,330.512,333.559,330.188Z" transform="translate(-204.866 -222.784)" fill="#171028"/>
              <path id="Trazado_1295348" data-name="Trazado 1295348" d="M244.754,391.405c-16.571-5.089-33.345-2.879-45.644.418,9.165-4.451,36.259-16.817,55.445-17.381a.348.348,0,0,0-.021-.7c-23.457.689-58.567,18.854-58.918,19.038a.332.332,0,0,0-.07.057,95.967,95.967,0,0,0-15.364,6.018.348.348,0,0,0,.327.614c.322-.172,32.564-17.068,64.04-7.405,31.535,9.684,44.091,18.766,44.214,18.856a.347.347,0,0,0,.413-.559C289.053,410.275,276.423,401.13,244.754,391.405Z" transform="translate(-166.965 -260.955)" fill="#171028"/>
              <path id="Trazado_1295349" data-name="Trazado 1295349" d="M254.279,225.173c11.806,0,14.521-13.125,14.547-13.257a.347.347,0,1,0-.681-.133c-.025.127-2.624,12.7-13.865,12.7s-14-12.573-14.03-12.7a.348.348,0,1,0-.681.143C239.6,212.052,242.476,225.173,254.279,225.173Z" transform="translate(-185.121 -211.501)" fill="#171028"/>
            </g>
          </g>
          <g id="Grupo_1241395" data-name="Grupo 1241395" transform="translate(43.069 110.216)">
            <path id="Trazado_1295350" data-name="Trazado 1295350" d="M278.6,268.906c2.159-17.1-17.023-12.178-17.023-12.178s-13.736-14.264-20.882,1.42,8.005,43.945,8.005,43.945S276.44,286.005,278.6,268.906Z" transform="translate(-219.337 -250.789)" fill="#00ae68"/>
            <path id="Trazado_1295351" data-name="Trazado 1295351" d="M276.66,274.413a.35.35,0,0,0-.491-.036l-8.678,7.491-1.835-6.619a.347.347,0,0,0-.6-.133l-9.072,10.609-2.837-13.366a.348.348,0,0,0-.564-.193l-6.706,5.679-1.56-10.548a.348.348,0,0,0-.688.1l1.651,11.167a.347.347,0,0,0,.568.215l6.739-5.708,2.863,13.487a.349.349,0,0,0,.254.265.329.329,0,0,0,.086.011.348.348,0,0,0,.264-.122l9.106-10.648,1.807,6.519a.348.348,0,0,0,.562.17l9.094-7.85A.351.351,0,0,0,276.66,274.413Z" transform="translate(-220.815 -255.73)" fill="#fff"/>
            <g id="Grupo_1241394" data-name="Grupo 1241394" transform="translate(0 6.836)">
              <path id="Trazado_1295352" data-name="Trazado 1295352" d="M230.974,268.793s5.822-3.954,7.126-5.345.826-2.738,0-2.825c-.692-.073-8.384,3.094-10.847,4.118a1.721,1.721,0,0,0-.986,1.085,49.363,49.363,0,0,1-4.5,9.788,52.59,52.59,0,0,0,0,8.951c.434,4.562,1.651,8.255.434,10.385s-11.384,7.343-11.384,7.343l3.128,23.289s10.254-12.9,12.6-15.729,6.648-8.69,7.734-11.384S233.8,289,233.8,289s7.17-1.477,8.169-2.259,2.39-2.086.913-2.346-10.559-.7-10.559-.7v-1.608s7.343-3.694,8.516-5,1.564-3.128,1.217-3.259-10.341,2.868-10.341,2.868l-.174-1.217s8.6-3.867,9.3-6.474-.913-2.086-5.258-.652-4.866,1.651-4.866,1.651Z" transform="translate(-210.813 -260.622)" fill="#fac4bb"/>
              <path id="Trazado_1295353" data-name="Trazado 1295353" d="M283.768,276.714s-4.3-6.474-5.3-7.865-3.259-4.693-3.78-4.128-1.434,2.52-.261,5.127,3.65,8.125,3.65,8.125-8.3-6.3-8.908-6.3-1.738,1.738-.435,3.824,7.216,7.256,7.216,7.256l-11.43-3.563a3.321,3.321,0,0,0,.608,3.91c1.782,2,10.515,7.6,10.515,7.6s-13.3-2.086-13.69-1.912-.562,3,1.567,4.171,8.3,3.3,9.863,4.476,6.2,6.5,8.516,12.123,11.528,25.78,11.528,25.78l3.766-23.869S285.665,291.544,285.028,281A10.386,10.386,0,0,0,283.768,276.714Z" transform="translate(-226.328 -261.852)" fill="#fac4bb"/>
              <g id="Grupo_1241393" data-name="Grupo 1241393" transform="translate(11.13 7.996)">
                <path id="Trazado_1295354" data-name="Trazado 1295354" d="M238.5,293.2a.172.172,0,0,0,.188-.159.174.174,0,0,0-.159-.188c-.021,0-1.1-.085-2.59-.059l2.649-1.217a.174.174,0,1,0-.145-.316l-3.215,1.477a.162.162,0,0,0-.073.079,22.179,22.179,0,0,0-3.89.474.174.174,0,0,0,.039.343.19.19,0,0,0,.039,0A27.865,27.865,0,0,1,238.5,293.2Z" transform="translate(-228.134 -277.954)" fill="#c43408"/>
                <path id="Trazado_1295355" data-name="Trazado 1295355" d="M234.136,284.3a17.827,17.827,0,0,0-2.617,1.3.174.174,0,0,0-.054.24.172.172,0,0,0,.147.081.178.178,0,0,0,.092-.026,30.183,30.183,0,0,1,6.342-2.587.174.174,0,0,0-.094-.336c-.024.007-1.367.387-2.95.986a15.6,15.6,0,0,1,2.9-1.878.174.174,0,0,0-.151-.314A14.149,14.149,0,0,0,234.136,284.3Z" transform="translate(-228.229 -275.058)" fill="#c43408"/>
                <path id="Trazado_1295356" data-name="Trazado 1295356" d="M236.857,273.682a.174.174,0,0,0-.1-.334c-.091.027-1.285.381-2.633.85,1.668-1.027,3.007-1.737,3.024-1.746a.174.174,0,0,0-.163-.307c-.022.011-2.16,1.146-4.412,2.626a14.432,14.432,0,0,0-1.675.765.174.174,0,0,0,.086.325.18.18,0,0,0,.086-.022A40.307,40.307,0,0,1,236.857,273.682Z" transform="translate(-228.038 -272.125)" fill="#c43408"/>
                <path id="Trazado_1295357" data-name="Trazado 1295357" d="M241.326,301.188c-.183.016-4.483.4-5.674,1.064a.174.174,0,0,0,.085.326.177.177,0,0,0,.085-.022,5.8,5.8,0,0,1,1.424-.442,18.451,18.451,0,0,0-.768,2.916.174.174,0,0,0,.148.2h.024a.174.174,0,0,0,.172-.15,19.508,19.508,0,0,1,.82-3.044c1.651-.314,3.687-.5,3.717-.5a.173.173,0,1,0-.031-.346Z" transform="translate(-229.487 -280.983)" fill="#c43408"/>
                <path id="Trazado_1295358" data-name="Trazado 1295358" d="M287.077,306.465a.175.175,0,0,0,.158.1.177.177,0,0,0,.072-.015.174.174,0,0,0,.086-.23c-1.057-2.335-5.461-4.347-5.648-4.431a.173.173,0,0,0-.143.316C281.646,302.227,286.073,304.247,287.077,306.465Z" transform="translate(-243.489 -281.193)" fill="#c43408"/>
                <path id="Trazado_1295359" data-name="Trazado 1295359" d="M288.29,296.7a.173.173,0,0,0,.166.124.156.156,0,0,0,.049-.008.173.173,0,0,0,.117-.216c-.922-3.117-6.2-6.02-6.424-6.143a.174.174,0,0,0-.166.306C282.087,290.793,287.408,293.718,288.29,296.7Z" transform="translate(-243.624 -277.706)" fill="#c43408"/>
                <path id="Trazado_1295360" data-name="Trazado 1295360" d="M290.181,289.185a.174.174,0,0,0,.224.1.175.175,0,0,0,.1-.224c-1.052-2.8-5.07-5.366-5.24-5.473a.174.174,0,0,0-.186.293C285.122,283.908,289.172,286.492,290.181,289.185Z" transform="translate(-244.556 -275.611)" fill="#c43408"/>
                <path id="Trazado_1295361" data-name="Trazado 1295361" d="M289.831,323.9a23.322,23.322,0,0,0-8.479-9.514.174.174,0,1,0-.168.3,22.937,22.937,0,0,1,8.335,9.364.176.176,0,0,0,.156.1.178.178,0,0,0,.076-.017A.176.176,0,0,0,289.831,323.9Z" transform="translate(-243.365 -284.998)" fill="#c43408"/>
                <path id="Trazado_1295362" data-name="Trazado 1295362" d="M227.768,305.937a.174.174,0,0,0-.167-.181.194.194,0,0,0-.181.167,10.437,10.437,0,0,1-.182,1.216c-.314,1.718-.838,4.593.193,7.307a.174.174,0,0,0,.163.112.161.161,0,0,0,.062-.012.174.174,0,0,0,.1-.224c-1-2.624-.484-5.438-.177-7.121A10.567,10.567,0,0,0,227.768,305.937Z" transform="translate(-226.823 -282.376)" fill="#c43408"/>
              </g>
            </g>
          </g>
        </g>
        <g id="Grupo_1241406" data-name="Grupo 1241406" transform="translate(76.535 38.715)">
          <g id="Grupo_1241397" data-name="Grupo 1241397" transform="translate(7.503)">
            <path id="Trazado_1295363" data-name="Trazado 1295363" d="M142.937,127.937c-.987-1.437-1.157-3.036-.378-3.571s2.209.2,3.2,1.634l.022.033c.936,1.382,1.115,2.9.426,3.479a.78.78,0,0,1-.07.058C145.355,130.106,143.924,129.374,142.937,127.937Z" transform="translate(-141.594 -111.215)" fill="#de9595"/>
            <path id="Trazado_1295364" data-name="Trazado 1295364" d="M148.661,132.11c-.181-.812,6.686-1.894,5.391,3.007,0,0,0,0,0,.006a4.566,4.566,0,0,0-.618.963,5.265,5.265,0,0,0-.551,2.5c.067,2.1-6.342,1.151-5.236-1.986.189-.536.346-.991.48-1.39a13.229,13.229,0,0,0,.573-2.065A2.582,2.582,0,0,0,148.661,132.11Z" transform="translate(-143.254 -113.414)" fill="#dd7f72"/>
            <path id="Trazado_1295365" data-name="Trazado 1295365" d="M154.512,135.887s-1.61,1.052-5.482-1.449l.129-.528Z" transform="translate(-143.715 -114.178)" fill="#171028"/>
            <path id="Trazado_1295366" data-name="Trazado 1295366" d="M157.414,121.783a12.628,12.628,0,0,0-.362,3.657c.158,1.648-1.693,4.221-3.273,4.966s-4.763-.993-5.913-2.234-1.9-4.356-1.919-5.756,2.212-6.907,6.184-6.161S158.182,118.352,157.414,121.783Z" transform="translate(-142.776 -108.775)" fill="#efcdca"/>
            <path id="Trazado_1295367" data-name="Trazado 1295367" d="M154.71,117.471s-5.716,3.824-6.131,1.912c0,0-2.956,2.056-2.931.535,0,0-.569,2.519,0,3.6,0,0-1.251-.923-1.772-4.759,0,0-1.622-.62-1.969.64,0,0-.521-5.982,3.418-7.662,0,0-3.881,1.159-3.94-.753s3.442-6.257,9.542-5.33S150.37,110,150.37,110s7.3.464,7.18,7.242-1.952,6.083-1.642,6.083.947-2.781.194-5.214C156.1,118.108,155.116,118.8,154.71,117.471Z" transform="translate(-141.385 -105.526)" fill="#24163f"/>
            <path id="Trazado_1295368" data-name="Trazado 1295368" d="M158.779,119.554a2.379,2.379,0,0,0-1.326-.912c-.082-1.379-.748-2.458-1.567-2.458s-1.468,1.052-1.563,2.405c-2.084.08-7.391.546-9.764,3.185a.348.348,0,1,0,.517.464c2.163-2.406,7.24-2.861,9.25-2.948.106,1.335.761,2.367,1.561,2.367.785,0,1.432-.991,1.557-2.286a1.609,1.609,0,0,1,.761.572.347.347,0,1,0,.574-.389Z" transform="translate(-142.325 -108.775)" fill="#5be1d5"/>
            <path id="Trazado_1295369" data-name="Trazado 1295369" d="M147.053,113.7a8.669,8.669,0,0,1,5.044-1.738Z" transform="translate(-143.113 -107.487)" fill="#66e6e1"/>
          </g>
          <g id="Grupo_1241398" data-name="Grupo 1241398" transform="translate(3.942 100.814)">
            <path id="Trazado_1295370" data-name="Trazado 1295370" d="M139.271,258.337l.37-7.8,4.49.145-.927,7.966Z" transform="translate(-137.179 -250.542)" fill="#dd7f72"/>
            <path id="Trazado_1295371" data-name="Trazado 1295371" d="M145.024,262.365H136.55S141.328,253.618,145.024,262.365Z" transform="translate(-136.35 -252.961)" fill="#24163f"/>
            <rect id="Rectángulo_424105" data-name="Rectángulo 424105" width="9.002" height="0.647" transform="translate(0 9.405)" fill="#482996"/>
            <path id="Trazado_1295372" data-name="Trazado 1295372" d="M139.558,254.14l4.1,1.182.562-4.635-4.49-.145Z" transform="translate(-137.267 -250.542)" fill="#171028"/>
          </g>
          <g id="Grupo_1241400" data-name="Grupo 1241400" transform="translate(20.741 98.786)">
            <g id="Grupo_1241399" data-name="Grupo 1241399" transform="translate(0 7.182)">
              <path id="Trazado_1295373" data-name="Trazado 1295373" d="M160.427,262.206H174.1a7.928,7.928,0,0,0-7.392-4.25s-2.864,2.4-4.435,0A6.175,6.175,0,0,0,160.427,262.206Z" transform="translate(-160.427 -257.956)" fill="#24163f"/>
              <rect id="Rectángulo_424106" data-name="Rectángulo 424106" width="13.706" height="0.647" transform="translate(0 4.25)" fill="#482996"/>
            </g>
            <line id="Línea_884" data-name="Línea 884" x1="13.706" transform="translate(0 12.079)" fill="#482996"/>
            <path id="Trazado_1295374" data-name="Trazado 1295374" d="M162.644,254.807l-1.007-6.428,4.924-.753.518,7.181S164.925,259.806,162.644,254.807Z" transform="translate(-160.796 -247.625)" fill="#dd7f72"/>
            <path id="Trazado_1295375" data-name="Trazado 1295375" d="M167.057,253.333l-4.413,1.474-1.007-6.429,5.14-.753Z" transform="translate(-160.796 -247.625)" fill="#171028"/>
          </g>
          <path id="Trazado_1295376" data-name="Trazado 1295376" d="M130.592,210.067s18.158,4.345,28.876-1.506l-3.019-23.538H135.066Z" transform="translate(-130.592 -129.757)" fill="#416d6a"/>
          <g id="Grupo_1241402" data-name="Grupo 1241402" transform="translate(4.41 53.65)">
            <path id="Trazado_1295377" data-name="Trazado 1295377" d="M149.014,195.5l4.117,37.2a1.85,1.85,0,0,0,2.173,1.616l4.224-.777a1.85,1.85,0,0,0,1.509-1.971L157.1,183.514,138.91,182.7l-1.973,48.807a1.85,1.85,0,0,0,1.5,1.891l4.645.9a1.85,1.85,0,0,0,2.191-1.631Z" transform="translate(-136.936 -182.699)" fill="#00bd9f"/>
            <g id="Grupo_1241401" data-name="Grupo 1241401" transform="translate(0.986 9.881)">
              <path id="Trazado_1295378" data-name="Trazado 1295378" d="M165.006,236.172l-4.862.89-5.772-40a.176.176,0,0,0-.2-.147.174.174,0,0,0-.147.2l5.774,40.014-.7.129a.174.174,0,0,0,.031.345.159.159,0,0,0,.031,0l5.909-1.082a.174.174,0,0,0-.063-.342Z" transform="translate(-143.131 -196.912)" fill="#008a70"/>
              <path id="Trazado_1295379" data-name="Trazado 1295379" d="M148.072,200.689a.173.173,0,0,0-.194.151l-4.618,36.793-4.7-.836a.171.171,0,0,0-.2.14.173.173,0,0,0,.14.2l5.917,1.053a.155.155,0,0,0,.031,0,.174.174,0,0,0,.031-.345l-.872-.155,4.621-36.811A.175.175,0,0,0,148.072,200.689Z" transform="translate(-138.354 -198.063)" fill="#008a70"/>
            </g>
          </g>
          <g id="Grupo_1241404" data-name="Grupo 1241404" transform="translate(0 21.323)">
            <path id="Trazado_1295380" data-name="Trazado 1295380" d="M159.432,160.629c.359-.423.932-1.212,1.591-2.175h0l.008-.011c.133-.194.269-.4.408-.6l5.213-7.7-4.287-3.192-4.3,4.387c-.192-.048-3.523-10.448-4.05-11.024s-5.708-2.437-5.708-2.437a3.129,3.129,0,0,1-2.646,1.155,3.271,3.271,0,0,1-2.759-1.612s-4.657,2.511-5.663,3.014-5.176,13.408-5.967,16-1.02,4.4,0,5.428c1.189,1.2,3.654,1.253,5.131,1.162h0l-5.813,32.541s10.536.564,16.635-2.151l.836-22.893c.862.032,1.657.019,2.383-.02l2.326,22.913s4.494-1.325,6.7.644l-3.908-30.468-.026,0C157.084,163.36,158.1,162.2,159.432,160.629Z" transform="translate(-130.593 -136.568)" fill="#66e6e1"/>
            <g id="Grupo_1241403" data-name="Grupo 1241403" transform="translate(0.421 6.423)">
              <path id="Trazado_1295381" data-name="Trazado 1295381" d="M148.621,162.557l-.991.277-1.228-5.385.847-.181a.174.174,0,0,0,.133-.206.176.176,0,0,0-.206-.133l-1,.215c-.007,0-.012,0-.019,0s-.008.008-.015.01l-7.6,1.627,1.315-1.567a.174.174,0,1,0-.266-.223L138.4,158.4l2.447-11.316a.174.174,0,1,0-.339-.074L137.936,158.9l-1.475.316c-.1.026-2.451.677-2.9,2.483a.174.174,0,0,0,.127.211.176.176,0,0,0,.211-.127c.4-1.607,2.635-2.225,2.648-2.229l9.519-2.038,1.233,5.406-10.034,2.8a.174.174,0,0,0,.047.341.178.178,0,0,0,.047-.006l11.361-3.174a.174.174,0,0,0-.094-.335Z" transform="translate(-131.915 -145.875)" fill="#08b59c"/>
              <path id="Trazado_1295382" data-name="Trazado 1295382" d="M165.141,166.2l.024,0a.173.173,0,0,0,.149-.2c-.1-.745-2.447-18.277-2.945-20.432a.174.174,0,0,0-.339.078c.494,2.14,2.915,20.218,2.94,20.4A.173.173,0,0,0,165.141,166.2Z" transform="translate(-140.594 -145.437)" fill="#08b59c"/>
              <path id="Trazado_1295383" data-name="Trazado 1295383" d="M166.4,161.89a.16.16,0,0,0,.036,0,.173.173,0,0,0,.17-.138c.375-1.789,2.448-4.262,2.469-4.286a.174.174,0,0,0-.266-.224c-.088.1-2.15,2.564-2.543,4.439A.173.173,0,0,0,166.4,161.89Z" transform="translate(-141.884 -149.017)" fill="#08b59c"/>
              <path id="Trazado_1295384" data-name="Trazado 1295384" d="M179.456,154.749l-3.65-2.591a.174.174,0,0,0-.2.283l3.65,2.592a.174.174,0,1,0,.2-.284Z" transform="translate(-144.711 -147.476)" fill="#08b59c"/>
              <path id="Trazado_1295385" data-name="Trazado 1295385" d="M160.178,147.875h-3.1a.174.174,0,0,0-.163.234c.521,1.428,1.078,2.122,1.7,2.122,1.016,0,1.66-1.91,1.73-2.129a.174.174,0,0,0-.165-.227Zm-1.565,2.008c-.3,0-.753-.3-1.286-1.661h2.606C159.7,148.834,159.183,149.883,158.614,149.883Z" transform="translate(-139.033 -146.18)" fill="#08b59c"/>
              <path id="Trazado_1295386" data-name="Trazado 1295386" d="M140.894,189.653a2,2,0,0,0,1.505-.694c1.987-2.162,1.484-8.729,1.462-9.007a.172.172,0,0,0-.07-.126.177.177,0,0,0-.14-.031l-4.841,1.043a.175.175,0,0,0-.137.157c-.019.261-.465,6.415,1.165,8.173a1.4,1.4,0,0,0,1.048.485Zm-1.882-8.5,4.516-.973c.069,1.124.316,6.7-1.385,8.546a1.645,1.645,0,0,1-1.251.581l0,.174V189.3a1.048,1.048,0,0,1-.794-.373C138.689,187.417,138.956,182.054,139.012,181.15Z" transform="translate(-133.455 -155.908)" fill="#08b59c"/>
              <path id="Trazado_1295387" data-name="Trazado 1295387" d="M163.082,215.424a.175.175,0,0,0-.129.209.173.173,0,0,0,.209.129c.034-.008,3.375-.781,5.319.33a.176.176,0,0,0,.086.023.174.174,0,0,0,.086-.325C166.59,214.61,163.224,215.39,163.082,215.424Z" transform="translate(-140.876 -166.683)" fill="#08b59c"/>
              <path id="Trazado_1295388" data-name="Trazado 1295388" d="M147.437,180.027c-.133-1.252-.477-5.831-.48-5.877a.178.178,0,0,0-.186-.161.174.174,0,0,0-.161.186c0,.046.348,4.631.482,5.888.128,1.2-1.288,22.3-1.4,24.015-4.765,1.691-12.444,1.783-14.025,1.783h-.291a.174.174,0,0,0,0,.348h.289c1.716,0,10.606-.107,15.254-2.248a.174.174,0,0,0-.145-.316c-.229.106-.472.205-.722.3C146.224,201.3,147.566,181.238,147.437,180.027Z" transform="translate(-131.198 -154.139)" fill="#08b59c"/>
            </g>
            <path id="Trazado_1295389" data-name="Trazado 1295389" d="M153.757,137.364l-.773-.321-1.039,1.158-3.958-2-1.433,1.108,4.3,2.9.925-1.528.241,2.85-.064-2.791.316,2.737v-2.656l1,1.265Z" transform="translate(-135.457 -136.198)" fill="#118e76"/>
          </g>
          <path id="Trazado_1295390" data-name="Trazado 1295390" d="M177.753,151.105s-1.233-.886-.825-3.555.642-1.455.8-.645.656,1.743,1.4.446,2.924-4.95,2.535-3.355a8.455,8.455,0,0,1-1.189,2.7s2.91-4.272,2.542-2.725a9.775,9.775,0,0,1-1.725,3.2s2.364-3.141,2.232-2.259a15.54,15.54,0,0,1-1.33,3.056s1.774-1.7,1.34-.52S180.251,153.062,177.753,151.105Z" transform="translate(-144.69 -117.131)" fill="#efcdca"/>
          <path id="Trazado_1295391" data-name="Trazado 1295391" d="M155.293,171.106l-.984-31.74,3.366,31.72Z" transform="translate(-137.821 -115.841)" fill="#cffcff"/>
          <g id="Grupo_1241405" data-name="Grupo 1241405" transform="translate(8.768 31.628)">
            <path id="Trazado_1295392" data-name="Trazado 1295392" d="M156.44,164.259l-3.007-12.346a.744.744,0,0,0-.9-.546l-8.764,2.135a.744.744,0,0,0-.546.9l1.274,5.23,5.655-1.17.289,1.192.838,3.235.328,1.2-5.642,1.576.264,1.083a.744.744,0,0,0,.9.546l8.764-2.135A.744.744,0,0,0,156.44,164.259Z" transform="translate(-143.204 -151.12)" fill="#b36c45"/>
            <rect id="Rectángulo_424107" data-name="Rectángulo 424107" width="6.17" height="1.695" transform="matrix(0.974, -0.225, 0.225, 0.974, 1.888, 1.388)" fill="#e5b298"/>
          </g>
          <path id="Trazado_1295393" data-name="Trazado 1295393" d="M153.617,161.642s.371-.227.755-.431a4.8,4.8,0,0,0,1.2-2.013c.192-1.007.467-1.941.887-.791a3.023,3.023,0,0,1,.144,1.917l1.3-.838.034-.121h.154s1.354,0,1.666,1.845a3.849,3.849,0,0,1-2.013,3.66,6.685,6.685,0,0,1-3.283.006Z" transform="translate(-137.61 -121.483)" fill="#efcdca"/>
          <path id="Trazado_1295394" data-name="Trazado 1295394" d="M154.824,167.947" transform="translate(-137.978 -124.552)" fill="#efcdca"/>
        </g>
        <g id="Grupo_1241419" data-name="Grupo 1241419" transform="translate(227.412 4.928)">
          <g id="Grupo_1241407" data-name="Grupo 1241407" transform="translate(7.848)">
            <path id="Trazado_1295395" data-name="Trazado 1295395" d="M378.4,72.667c.987-1.437,1.157-3.036.378-3.571s-2.209.2-3.2,1.634l-.022.033c-.936,1.382-1.115,2.9-.426,3.479a.776.776,0,0,0,.07.058C375.986,74.836,377.417,74.1,378.4,72.667Z" transform="translate(-363.729 -60.582)" fill="#de9595"/>
            <path id="Trazado_1295396" data-name="Trazado 1295396" d="M371.737,76.839c.181-.812-6.686-1.894-5.391,3.007,0,0,0,0,0,.006a4.566,4.566,0,0,1,.618.963,5.266,5.266,0,0,1,.551,2.5c-.067,2.1,6.342,1.151,5.236-1.986-.189-.536-.346-.991-.48-1.39a13.244,13.244,0,0,1-.573-2.065A2.61,2.61,0,0,1,371.737,76.839Z" transform="translate(-361.127 -62.781)" fill="#dd7f72"/>
            <path id="Trazado_1295397" data-name="Trazado 1295397" d="M366.421,80.616s1.61,1.052,5.482-1.449l-.129-.528Z" transform="translate(-361.199 -63.544)" fill="#171028"/>
            <path id="Trazado_1295398" data-name="Trazado 1295398" d="M360.824,66.513a12.627,12.627,0,0,1,.361,3.657c-.158,1.648,1.693,4.221,3.273,4.966s4.762-.993,5.913-2.234,1.9-4.356,1.919-5.756-2.212-6.907-6.184-6.161S360.057,63.082,360.824,66.513Z" transform="translate(-359.445 -58.142)" fill="#efcdca"/>
            <path id="Trazado_1295399" data-name="Trazado 1295399" d="M361.565,63.762s3.865,2.451,7.01,2.115l-.782-1.041a6.323,6.323,0,0,0,3.447,1.737,15.385,15.385,0,0,1-.576,3.709s1.789-3.431,1.892-4.816c0,0,1.577-.32,1.825.6,0,0,.393-7.919-4.966-7.8,0,0,1.844-.405,2.761.318,0,0-2.708-2.838-8.21-1.072s-5.5,6.4-4.632,8.285S361.565,63.762,361.565,63.762Z" transform="translate(-358.91 -56.926)" fill="#24163f"/>
          </g>
          <g id="Grupo_1241409" data-name="Grupo 1241409" transform="translate(0 98.058)">
            <g id="Grupo_1241408" data-name="Grupo 1241408" transform="translate(0 7.182)">
              <path id="Trazado_1295400" data-name="Trazado 1295400" d="M361.341,212.558H347.666a7.928,7.928,0,0,1,7.392-4.25s2.864,2.4,4.435,0A6.175,6.175,0,0,1,361.341,212.558Z" transform="translate(-347.635 -208.308)" fill="#24163f"/>
              <rect id="Rectángulo_424108" data-name="Rectángulo 424108" width="13.706" height="0.647" transform="translate(13.706 4.897) rotate(180)" fill="#482996"/>
            </g>
            <line id="Línea_885" data-name="Línea 885" x2="13.706" transform="translate(0.001 12.079)" fill="#482996"/>
            <path id="Trazado_1295401" data-name="Trazado 1295401" d="M362.734,205.159l1.007-6.428-4.924-.753-.518,7.182S360.453,210.158,362.734,205.159Z" transform="translate(-350.876 -197.977)" fill="#dd7f72"/>
            <path id="Trazado_1295402" data-name="Trazado 1295402" d="M358.331,203.685l4.413,1.475,1.007-6.429-5.14-.753Z" transform="translate(-350.885 -197.977)" fill="#171028"/>
          </g>
          <g id="Grupo_1241411" data-name="Grupo 1241411" transform="translate(25.131 98.058)">
            <g id="Grupo_1241410" data-name="Grupo 1241410" transform="translate(0 7.182)">
              <path id="Trazado_1295403" data-name="Trazado 1295403" d="M383.77,212.558h13.675a7.928,7.928,0,0,0-7.392-4.25s-2.864,2.4-4.435,0A6.175,6.175,0,0,0,383.77,212.558Z" transform="translate(-383.77 -208.308)" fill="#24163f"/>
              <rect id="Rectángulo_424109" data-name="Rectángulo 424109" width="13.706" height="0.647" transform="translate(0 4.25)" fill="#482996"/>
            </g>
            <line id="Línea_886" data-name="Línea 886" x1="13.706" transform="translate(0 12.079)" fill="#482996"/>
            <path id="Trazado_1295404" data-name="Trazado 1295404" d="M385.987,205.159l-1.007-6.428,4.924-.753.518,7.182S388.268,210.158,385.987,205.159Z" transform="translate(-384.139 -197.977)" fill="#dd7f72"/>
            <path id="Trazado_1295405" data-name="Trazado 1295405" d="M390.4,203.685l-4.413,1.475-1.007-6.429,5.14-.753Z" transform="translate(-384.139 -197.977)" fill="#171028"/>
          </g>
          <path id="Trazado_1295406" data-name="Trazado 1295406" d="M380.605,152.192s-18.017,3.794-28.792-3.766l1.909-16.058h24.366Z" transform="translate(-348.899 -79.921)" fill="#416d6a"/>
          <g id="Grupo_1241413" data-name="Grupo 1241413" transform="translate(5.758 52.447)">
            <path id="Trazado_1295407" data-name="Trazado 1295407" d="M358.274,132.369l-2.368,48.958a1.63,1.63,0,0,0,1.254,1.666l5.461,1.29a1.631,1.631,0,0,0,2-1.465l2.776-37,6.637,37.293a1.631,1.631,0,0,0,1.894,1.319l6.306-1.134a1.631,1.631,0,0,0,1.319-1.876l-8.248-49.054Z" transform="translate(-355.904 -132.369)" fill="#00bd9f"/>
            <g id="Grupo_1241412" data-name="Grupo 1241412" transform="translate(0.936 3.023)">
              <path id="Trazado_1295408" data-name="Trazado 1295408" d="M363.465,183.214l-4.983-1.285,3.069-45.026a.174.174,0,0,0-.161-.186.179.179,0,0,0-.185.161l-3.065,44.962-.672-.173a.174.174,0,0,0-.087.337l6,1.546a.193.193,0,0,0,.044.006.174.174,0,0,0,.043-.343Z" transform="translate(-357.251 -136.718)" fill="#008a70"/>
              <path id="Trazado_1295409" data-name="Trazado 1295409" d="M387.065,182.238l-5.349,1.21-9.1-44.716a.174.174,0,0,0-.341.07l9.1,44.724-1.149.26a.174.174,0,0,0,.038.343.184.184,0,0,0,.038,0l1.309-.3h0l5.525-1.249a.174.174,0,0,0,.132-.208A.172.172,0,0,0,387.065,182.238Z" transform="translate(-361.829 -137.289)" fill="#008a70"/>
            </g>
          </g>
          <path id="Trazado_1295410" data-name="Trazado 1295410" d="M360.313,118.3H373.7L369.64,86.218l-1.9.985s-2.252.508-3.185-.985Z" transform="translate(-351.49 -65.854)" fill="#cffcff"/>
          <g id="Grupo_1241417" data-name="Grupo 1241417" transform="translate(2.914 16.39)">
            <g id="Grupo_1241414" data-name="Grupo 1241414" transform="translate(0 0.77)">
              <path id="Trazado_1295411" data-name="Trazado 1295411" d="M373.191,81.61l6.571,2.914,7.3,10.138L381.1,98.94l4.8,37.781-14.541-1.226s-2.433-19.4-2.143-24.727.788-25.317.788-25.317S372.439,85.671,373.191,81.61Z" transform="translate(-357.111 -81.61)" fill="#66e6e1"/>
              <path id="Trazado_1295412" data-name="Trazado 1295412" d="M362.586,82.868l-6.255,3.371-3.881,10.6,3.3,3.36-3.939,33.138a47.317,47.317,0,0,0,9.154,1.969l3.055-49.526s-.7-.1-.912-1.115C363.111,84.669,363,83.212,362.586,82.868Z" transform="translate(-351.813 -81.993)" fill="#66e6e1"/>
            </g>
            <g id="Grupo_1241415" data-name="Grupo 1241415" transform="translate(10.155)">
              <path id="Trazado_1295413" data-name="Trazado 1295413" d="M373.3,80.5l-2.936,4.611,1.855,2.144,1.673-6.148Z" transform="translate(-367.623 -80.502)" fill="#118e76"/>
              <path id="Trazado_1295414" data-name="Trazado 1295414" d="M367.02,82.551l-.6.464.251,4.41,1.8-1.738Z" transform="translate(-366.421 -81.127)" fill="#118e76"/>
            </g>
            <g id="Grupo_1241416" data-name="Grupo 1241416" transform="translate(0.174 5.827)">
              <path id="Trazado_1295415" data-name="Trazado 1295415" d="M380.835,132.236a2.179,2.179,0,0,0,.249-.015c3.49-.407,3.014-8.417,2.991-8.758a.174.174,0,0,0-.176-.163l-6.749.115a.173.173,0,0,0-.171.182C377,123.952,377.442,132.236,380.835,132.236Zm2.9-8.585c.049,1.15.215,7.886-2.694,8.225-2.993.358-3.619-6.875-3.705-8.114Z" transform="translate(-359.658 -99.375)" fill="#08b59c"/>
              <path id="Trazado_1295416" data-name="Trazado 1295416" d="M384.056,101.732l-2.452-1.638a.174.174,0,0,0-.193.289l2.936,1.961a.174.174,0,0,0,.257-.213l-4.124-9.724a.174.174,0,0,0-.32.136Z" transform="translate(-360.623 -89.926)" fill="#08b59c"/>
              <path id="Trazado_1295417" data-name="Trazado 1295417" d="M384.99,137.67l-12.607-1.48c-.17-1.646-1.788-17.324-1.9-19.665-.114-2.457.416-26.79.421-27.035a.174.174,0,1,0-.348-.007c-.006.245-.535,24.59-.421,27.059s1.9,19.65,1.912,19.823a.176.176,0,0,0,.153.155l12.746,1.5h.02a.174.174,0,0,0,.02-.346Z" transform="translate(-357.568 -89.015)" fill="#08b59c"/>
              <path id="Trazado_1295418" data-name="Trazado 1295418" d="M363.371,88.885a.162.162,0,0,0-.185.162l-3.061,47.01c-1.874.137-7.779-1.555-7.84-1.573a.174.174,0,1,0-.1.334c.243.07,5.619,1.591,7.74,1.591a2.853,2.853,0,0,0,.383-.022.173.173,0,0,0,.15-.161l3.071-47.157A.173.173,0,0,0,363.371,88.885Z" transform="translate(-352.063 -88.884)" fill="#08b59c"/>
              <path id="Trazado_1295419" data-name="Trazado 1295419" d="M357.365,102.789a.179.179,0,0,0,.038,0,.174.174,0,0,0,.17-.136l2.607-11.644a.174.174,0,0,0-.34-.076l-2.607,11.644A.174.174,0,0,0,357.365,102.789Z" transform="translate(-353.638 -89.468)" fill="#08b59c"/>
              <path id="Trazado_1295420" data-name="Trazado 1295420" d="M361.017,100.345a.175.175,0,0,0-.034.146c.424,1.911.925,2.8,1.577,2.8,1.03,0,1.816-2.5,1.9-2.788a.173.173,0,0,0-.166-.224h-3.143A.174.174,0,0,0,361.017,100.345Zm3.041.282c-.326.978-.957,2.318-1.5,2.318-.244,0-.715-.307-1.189-2.318Z" transform="translate(-354.781 -92.358)" fill="#08b59c"/>
            </g>
          </g>
          <g id="Grupo_1241418" data-name="Grupo 1241418" transform="translate(3.263 30.739)">
            <path id="Trazado_1295421" data-name="Trazado 1295421" d="M353.981,104.985s-.277,13.892-1.262,16.788.081,7.33.533,7.489l2.654-22.319Z" transform="translate(-352.314 -102.313)" fill="#efcdca"/>
            <path id="Trazado_1295422" data-name="Trazado 1295422" d="M389.442,101.142l.757.995a3.725,3.725,0,0,1,.549,3.542A17.844,17.844,0,0,1,388.9,109.3c-2.028,3.071-4.7,7.249-4.7,7.249l-4.791.082,4.811-11.743Z" transform="translate(-360.572 -101.142)" fill="#efcdca"/>
          </g>
        </g>
        <g id="Grupo_1241431" data-name="Grupo 1241431" transform="translate(196.504 136.835)">
          <path id="Trazado_1295423" data-name="Trazado 1295423" d="M400.516,394.574l-63.293-88.66a2.263,2.263,0,0,0-3.685,2.63l11.654,16.324H320.8l-13.531-18.954a2.263,2.263,0,0,0-3.685,2.63L366.88,397.2a2.263,2.263,0,0,0,3.685-2.63l-12.3-17.232h24.389L396.832,397.2a2.264,2.264,0,0,0,3.685-2.631ZM335.674,345.7h24.389l8.81,12.341H344.484ZM347.9,328.667l9.447,13.233H332.962l-9.447-13.233Zm7.646,44.876-8.355-11.7h24.389l8.355,11.7Z" transform="translate(-303.161 -264.437)" fill="#003f55"/>
          <g id="Grupo_1241430" data-name="Grupo 1241430" transform="translate(1.284)">
            <g id="Grupo_1241421" data-name="Grupo 1241421" transform="translate(39.553 82.056)">
              <path id="Trazado_1295424" data-name="Trazado 1295424" d="M371.358,371.35l-2.79-5.247,5.243-1.4,1.983,6.65S374.283,376,371.358,371.35Z" transform="translate(-363.935 -364.7)" fill="#dd7f72"/>
              <path id="Trazado_1295425" data-name="Trazado 1295425" d="M375.487,370.41l-4.684-.1-2.236-4.2,5.243-1.4Z" transform="translate(-363.935 -364.7)" fill="#171028"/>
              <g id="Grupo_1241420" data-name="Grupo 1241420" transform="translate(0 6.65)">
                <path id="Trazado_1295426" data-name="Trazado 1295426" d="M375.624,378.516H361.949a7.928,7.928,0,0,1,7.392-4.25s2.864,2.4,4.435,0A6.178,6.178,0,0,1,375.624,378.516Z" transform="translate(-361.918 -374.266)" fill="#24163f"/>
                <rect id="Rectángulo_424110" data-name="Rectángulo 424110" width="13.706" height="0.647" transform="translate(13.706 4.897) rotate(180)" fill="#482996"/>
              </g>
              <line id="Línea_887" data-name="Línea 887" x2="13.706" transform="translate(0 11.547)" fill="#482996"/>
            </g>
            <g id="Grupo_1241423" data-name="Grupo 1241423" transform="translate(39.199 66.803)">
              <path id="Trazado_1295427" data-name="Trazado 1295427" d="M370.849,348.522l-2.79-5.247,2.44-.516,4.785,5.762S373.773,353.175,370.849,348.522Z" transform="translate(-363.426 -342.76)" fill="#dd7f72"/>
              <path id="Trazado_1295428" data-name="Trazado 1295428" d="M373.543,346.427l-2.695,2.1-2.79-5.247,2.44-.516Z" transform="translate(-363.425 -342.76)" fill="#171028"/>
              <g id="Grupo_1241422" data-name="Grupo 1241422" transform="translate(0 5.762)">
                <path id="Trazado_1295429" data-name="Trazado 1295429" d="M375.114,355.3H361.439a7.928,7.928,0,0,1,7.392-4.25s2.864,2.4,4.435,0A6.177,6.177,0,0,1,375.114,355.3Z" transform="translate(-361.408 -351.049)" fill="#24163f"/>
                <rect id="Rectángulo_424111" data-name="Rectángulo 424111" width="13.706" height="0.647" transform="translate(13.706 4.897) rotate(180)" fill="#482996"/>
              </g>
              <line id="Línea_888" data-name="Línea 888" x2="13.706" transform="translate(0 10.66)" fill="#482996"/>
            </g>
            <g id="Grupo_1241424" data-name="Grupo 1241424" transform="translate(34.45)">
              <path id="Trazado_1295430" data-name="Trazado 1295430" d="M355.363,255.925c-1.519,3.6-.809,7.341,1.585,8.351s5.566-1.093,7.085-4.7.809-7.341-1.585-8.351S356.882,252.322,355.363,255.925Z" transform="translate(-354.564 -247.98)" fill="#efcdca"/>
              <path id="Trazado_1295431" data-name="Trazado 1295431" d="M373.782,250.561c-1.735-2.925-4.392-4.555-5.935-3.64-.987.585-1.276,2.072-.9,3.833a4.2,4.2,0,0,0-1.269-.749c-3.064-1.072-4.417-.42-5.02-.762s-5.581-.3-3.718,4.867a3.49,3.49,0,0,0,2.177,2.438l-.6,3s-.031,2.9-1.277,3.479,6.868,3.377,9.933-.034a9,9,0,0,0,2.473-6.1h0c2.106,2.364,2.394.648,2.394.648a2.365,2.365,0,0,0,2.1-.022C375.673,256.6,375.517,253.487,373.782,250.561Z" transform="translate(-355.161 -246.667)" fill="#24163f"/>
              <path id="Trazado_1295432" data-name="Trazado 1295432" d="M360.407,258.887c.747.412.735,1.866-.026,3.245s-1.985,2.163-2.733,1.751a.759.759,0,0,1-.067-.046.827.827,0,0,1-.12-.1c-.543-.537-.476-1.827.2-3.067.006-.01.01-.022.017-.032a4.154,4.154,0,0,1,1.518-1.633A1.253,1.253,0,0,1,360.407,258.887Z" transform="translate(-355.336 -250.358)" fill="#de9595"/>
            </g>
            <g id="Grupo_1241426" data-name="Grupo 1241426" transform="translate(27.506 44.921)">
              <path id="Trazado_1295433" data-name="Trazado 1295433" d="M369.14,351.2l-5.365-12.99,2.272-1.549a1.631,1.631,0,0,0,.286-2.446L358.854,326c-1.362-8.993-3.915-18.494-8.375-13.194-7.734,9.19-5.648,11.753-5.648,11.753l2.365,2.209a10.294,10.294,0,0,0-.019,3.44c.685,2.13,10.229,18.937,12.594,23.089a1.629,1.629,0,0,0,1.586.814l6.444-.673A1.631,1.631,0,0,0,369.14,351.2Z" transform="translate(-344.575 -311.283)" fill="#00bd9f"/>
              <g id="Grupo_1241425" data-name="Grupo 1241425" transform="translate(2.447 1.113)">
                <path id="Trazado_1295434" data-name="Trazado 1295434" d="M369.314,344.908a.173.173,0,1,0,.308-.16l-.4-.781,2.635-1.746a.174.174,0,0,0-.192-.289l-2.6,1.725L363.582,333.1a.172.172,0,0,0-.234-.074.175.175,0,0,0-.074.234Z" transform="translate(-352.715 -319.019)" fill="#008a70"/>
                <path id="Trazado_1295435" data-name="Trazado 1295435" d="M352.391,312.917a.174.174,0,0,0-.243.042c-1.912,2.694-3.965,13.8-4.052,14.27a.174.174,0,0,0,.14.2.16.16,0,0,0,.031,0,.174.174,0,0,0,.171-.142c.021-.115,2.126-11.5,3.993-14.131A.173.173,0,0,0,352.391,312.917Z" transform="translate(-348.094 -312.885)" fill="#008a70"/>
                <path id="Trazado_1295436" data-name="Trazado 1295436" d="M369.8,359.763l-6.752.955-12.586-23.242a.174.174,0,1,0-.306.165l12.525,23.129-.252.035a.174.174,0,0,0,.024.346l.024,0,7.371-1.043a.173.173,0,0,0-.048-.343Z" transform="translate(-348.715 -320.353)" fill="#008a70"/>
              </g>
            </g>
            <g id="Grupo_1241428" data-name="Grupo 1241428" transform="translate(18.348 16.909)">
              <path id="Trazado_1295437" data-name="Trazado 1295437" d="M352.126,271.77l-6.472,3.492L331.4,301.824l6.257,5.793,7.995-10.776-1.043,19a12.565,12.565,0,0,0,13.788,3.94,96.336,96.336,0,0,1,15.178-3.592L370.332,300.9l3.244-5.605-11.123-21.739-3.6-2.562S356.528,272.486,352.126,271.77Z" transform="translate(-331.402 -270.989)" fill="#66e6e1"/>
              <g id="Grupo_1241427" data-name="Grupo 1241427" transform="translate(0.869 5.054)">
                <path id="Trazado_1295438" data-name="Trazado 1295438" d="M351.825,303.65a.175.175,0,0,0,.154-.093l5.543-10.547a.174.174,0,0,0-.308-.162l-5.543,10.547a.175.175,0,0,0,.073.235A.169.169,0,0,0,351.825,303.65Z" transform="translate(-338.443 -282.677)" fill="#08b59c"/>
                <path id="Trazado_1295439" data-name="Trazado 1295439" d="M357.541,313.479h-4.584a.174.174,0,0,0-.173.157c-.02.215-.491,5.28,1.118,7.053a1.77,1.77,0,0,0,1.353.616l.1,0a1.921,1.921,0,0,0,1.421-.723c1.565-1.867.964-6.741.938-6.948A.172.172,0,0,0,357.541,313.479Zm-1.031,6.876a1.562,1.562,0,0,1-1.171.6l-.083,0a1.417,1.417,0,0,1-1.1-.5c-1.356-1.493-1.109-5.755-1.042-6.628h4.268C357.475,314.668,357.831,318.781,356.51,320.355Z" transform="translate(-338.764 -288.994)" fill="#08b59c"/>
                <path id="Trazado_1295440" data-name="Trazado 1295440" d="M384.213,303.287a.166.166,0,0,0,.048-.007.174.174,0,0,0,.119-.215l-7.1-24.679a.174.174,0,1,0-.334.1l7.1,24.679A.175.175,0,0,0,384.213,303.287Z" transform="translate(-346.152 -278.259)" fill="#08b59c"/>
                <path id="Trazado_1295441" data-name="Trazado 1295441" d="M377.823,334.619a62.269,62.269,0,0,0-9.966,1.963,46.64,46.64,0,0,1-8.1,1.6c-4.629.263-7.755-4.054-7.786-4.1a.174.174,0,0,0-.283.2c.031.044,3.086,4.255,7.678,4.255.135,0,.273,0,.41-.011a46.884,46.884,0,0,0,8.171-1.609,61.941,61.941,0,0,1,9.909-1.953.174.174,0,0,0,.159-.188A.171.171,0,0,0,377.823,334.619Z" transform="translate(-338.443 -295.252)" fill="#08b59c"/>
                <path id="Trazado_1295442" data-name="Trazado 1295442" d="M332.944,314.473a.174.174,0,0,0-.237.254l5.272,4.946a.172.172,0,0,0,.119.047.174.174,0,0,0,.119-.3Z" transform="translate(-332.652 -289.283)" fill="#08b59c"/>
              </g>
            </g>
            <g id="Grupo_1241429" data-name="Grupo 1241429" transform="translate(0 40.529)">
              <path id="Trazado_1295443" data-name="Trazado 1295443" d="M330.931,322.207l-10.445-6.738c.977-2.454-1.06-6.127-4.846-8.512-4.063-2.56-8.6-2.666-10.126-.238s.523,6.471,4.586,9.031c3.744,2.359,7.882,2.629,9.706.756l10.452,6.743a.62.62,0,1,0,.672-1.041Z" transform="translate(-305.009 -304.965)" fill="#00749e"/>
              <path id="Trazado_1295444" data-name="Trazado 1295444" d="M319.568,315.678c-1.272,2.018-5.039,1.93-8.417-.2s-5.084-5.489-3.812-7.507,5.039-1.929,8.417.2S320.839,313.66,319.568,315.678Z" transform="translate(-305.591 -305.438)" fill="#c5edee"/>
            </g>
            <path id="Trazado_1295445" data-name="Trazado 1295445" d="M332.327,317.4s-1.961,3-2.785,3.95.412,3.231,2,3.833,2.882.665,3.294,0l-.665-.887.317-.792.539.317a9.8,9.8,0,0,1,.6-3.345Z" transform="translate(-312.406 -268.228)" fill="#efcdca"/>
          </g>
        </g>
        <g id="Grupo_1241447" data-name="Grupo 1241447" transform="translate(51.401 183.527)">
          <g id="Grupo_1241432" data-name="Grupo 1241432" transform="translate(21.312)">
            <path id="Trazado_1295446" data-name="Trazado 1295446" d="M120.86,332.848c-.987-1.437-1.157-3.036-.378-3.571s2.209.2,3.2,1.634l.022.033c.936,1.382,1.115,2.9.426,3.479-.023.019-.044.041-.07.058C123.278,335.016,121.847,334.285,120.86,332.848Z" transform="translate(-119.54 -318.486)" fill="#de9595"/>
            <path id="Trazado_1295447" data-name="Trazado 1295447" d="M126.585,337.02c-.181-.812,6.686-1.894,5.391,3.007,0,0,0,0,0,.006a4.567,4.567,0,0,0-.618.963,5.266,5.266,0,0,0-.551,2.5c.067,2.1-6.342,1.151-5.236-1.986.189-.536.346-.991.48-1.39a13.228,13.228,0,0,0,.573-2.065A2.608,2.608,0,0,0,126.585,337.02Z" transform="translate(-121.201 -320.685)" fill="#dd7f72"/>
            <path id="Trazado_1295448" data-name="Trazado 1295448" d="M132.435,340.8s-1.609,1.052-5.482-1.449l.129-.528Z" transform="translate(-121.661 -321.448)" fill="#171028"/>
            <path id="Trazado_1295449" data-name="Trazado 1295449" d="M135.338,326.694a12.624,12.624,0,0,0-.362,3.657c.158,1.648-1.693,4.221-3.273,4.966s-4.763-.993-5.913-2.234-1.9-4.356-1.919-5.755,2.212-6.907,6.184-6.161S136.105,323.263,135.338,326.694Z" transform="translate(-120.722 -316.045)" fill="#efcdca"/>
            <path id="Trazado_1295450" data-name="Trazado 1295450" d="M132.7,322.609a5.952,5.952,0,0,1-4.4,2.143l.988-1.057a12.629,12.629,0,0,1-3.5,1.318,2.175,2.175,0,0,0,1.1-1.666,10.012,10.012,0,0,1-3.308,2.419l.341-1.941a6.134,6.134,0,0,0-.594,5.11,12.2,12.2,0,0,1-2.013-4.488s-1.262-.013-1.522.986c0,0-2.316-7.213,3.535-8.821a8.222,8.222,0,0,0-3.143-.3s1.217-1.043,3.954-.434a3.084,3.084,0,0,1,1.477-2.042s-.488,1.3-.266,1.825c0,0,5.523-.956,8,2.259s2.375,7.792.408,7.518A2.861,2.861,0,0,1,132.7,322.609Z" transform="translate(-119.341 -313.831)" fill="#24163f"/>
          </g>
          <path id="Trazado_1295451" data-name="Trazado 1295451" d="M96.119,414.616s19.918,9.039,37.13,0l-4.566-23.4h-25.6Z" transform="translate(-90.951 -337.419)" fill="#416d6a"/>
          <g id="Grupo_1241434" data-name="Grupo 1241434" transform="translate(31.449 100.335)">
            <g id="Grupo_1241433" data-name="Grupo 1241433" transform="translate(0 7.182)">
              <path id="Trazado_1295452" data-name="Trazado 1295452" d="M133.922,472.739H147.6a7.928,7.928,0,0,0-7.392-4.25s-2.864,2.4-4.435,0A6.173,6.173,0,0,0,133.922,472.739Z" transform="translate(-133.922 -468.489)" fill="#24163f"/>
              <rect id="Rectángulo_424112" data-name="Rectángulo 424112" width="13.706" height="0.647" transform="translate(0 4.25)" fill="#482996"/>
            </g>
            <line id="Línea_889" data-name="Línea 889" x1="13.706" transform="translate(0 12.079)" fill="#482996"/>
            <path id="Trazado_1295453" data-name="Trazado 1295453" d="M136.139,465.339l-1.007-6.428,4.924-.753.518,7.182S138.42,470.339,136.139,465.339Z" transform="translate(-134.291 -458.158)" fill="#dd7f72"/>
            <path id="Trazado_1295454" data-name="Trazado 1295454" d="M140.552,463.866l-4.413,1.474-1.007-6.428,5.14-.753Z" transform="translate(-134.291 -458.158)" fill="#171028"/>
          </g>
          <path id="Trazado_1295455" data-name="Trazado 1295455" d="M117.446,378.349h14.076l-2.431-32.39a16.576,16.576,0,0,1-6.08,0Z" transform="translate(-97.451 -323.624)" fill="#cffcff"/>
          <g id="Grupo_1241436" data-name="Grupo 1241436" transform="translate(6.318 100.335)">
            <g id="Grupo_1241435" data-name="Grupo 1241435" transform="translate(0 7.182)">
              <path id="Trazado_1295456" data-name="Trazado 1295456" d="M111.493,472.739H97.818a7.928,7.928,0,0,1,7.392-4.25s2.864,2.4,4.435,0A6.173,6.173,0,0,1,111.493,472.739Z" transform="translate(-97.787 -468.489)" fill="#24163f"/>
              <rect id="Rectángulo_424113" data-name="Rectángulo 424113" width="13.706" height="0.647" transform="translate(13.706 4.897) rotate(180)" fill="#482996"/>
            </g>
            <line id="Línea_890" data-name="Línea 890" x2="13.706" transform="translate(0 12.079)" fill="#482996"/>
            <path id="Trazado_1295457" data-name="Trazado 1295457" d="M112.886,465.339l1.007-6.428-4.924-.753-.518,7.182S110.605,470.339,112.886,465.339Z" transform="translate(-101.028 -458.158)" fill="#dd7f72"/>
            <path id="Trazado_1295458" data-name="Trazado 1295458" d="M108.483,463.866l4.413,1.474,1.007-6.428-5.14-.753Z" transform="translate(-101.037 -458.158)" fill="#171028"/>
          </g>
          <g id="Grupo_1241439" data-name="Grupo 1241439" transform="translate(11.723 54.725)">
            <g id="Grupo_1241437" data-name="Grupo 1241437">
              <path id="Trazado_1295459" data-name="Trazado 1295459" d="M130.851,392.55l2.368,48.958a1.63,1.63,0,0,1-1.254,1.666l-5.461,1.29a1.631,1.631,0,0,1-2-1.465l-2.776-37-6.637,37.293a1.631,1.631,0,0,1-1.894,1.32l-6.306-1.134a1.63,1.63,0,0,1-1.319-1.876l8.248-49.054h17.033Z" transform="translate(-105.547 -392.55)" fill="#00bd9f"/>
            </g>
            <g id="Grupo_1241438" data-name="Grupo 1241438" transform="translate(0.57 1.936)">
              <path id="Trazado_1295460" data-name="Trazado 1295460" d="M113.873,449.32l-6.413-1.183,5.969-36.286a.174.174,0,1,0-.343-.057l-5.968,36.279-.545-.1a.174.174,0,1,0-.063.342l7.3,1.347a.166.166,0,0,0,.032,0,.175.175,0,0,0,.171-.143A.173.173,0,0,0,113.873,449.32Z" transform="translate(-106.367 -400.307)" fill="#008a70"/>
              <path id="Trazado_1295461" data-name="Trazado 1295461" d="M139.207,447.7l-4.934,1.242-4.072-35.2a.177.177,0,0,0-.193-.153.174.174,0,0,0-.153.192l4.077,35.248-.852.215a.174.174,0,0,0,.042.343.149.149,0,0,0,.042-.006l6.127-1.543a.173.173,0,0,0,.126-.211A.168.168,0,0,0,139.207,447.7Z" transform="translate(-113.526 -400.897)" fill="#008a70"/>
              <path id="Trazado_1295462" data-name="Trazado 1295462" d="M131.02,404.792a.175.175,0,0,0,.1-.131l1.3-7.792a.173.173,0,0,0-.143-.2.17.17,0,0,0-.2.143l-1.288,7.7-1.617.7,1.522-9.681a.174.174,0,0,0-.343-.054l-1.784,11.342a.174.174,0,0,0,.145.2l.028,0a.174.174,0,0,0,.172-.147l.2-1.254Z" transform="translate(-113.134 -395.334)" fill="#008a70"/>
            </g>
          </g>
          <g id="Grupo_1241443" data-name="Grupo 1241443" transform="translate(5.168 18.471)">
            <g id="Grupo_1241440" data-name="Grupo 1241440" transform="translate(0 0.493)">
              <path id="Trazado_1295463" data-name="Trazado 1295463" d="M117.267,341.109s-7.635,2.647-8.808,3.081-7.734,18.669-8.473,20.581,5.04,4.649,5.04,4.649l-8.907,29.923s8.458.083,12.4-1.7a27.689,27.689,0,0,1,8.75-2l3.029-51.451S117.2,343.036,117.267,341.109Z" transform="translate(-96.119 -341.109)" fill="#66e6e1"/>
              <path id="Trazado_1295464" data-name="Trazado 1295464" d="M133.427,343.049l5.505,2.328s5.735,19.333,5.3,21.071-1.833,5.562-5.391,5.735l5.415,27.751s-7.131-2.9-10.182-3.245l-1.842-51.879.754-.494A3.061,3.061,0,0,1,133.427,343.049Z" transform="translate(-107.127 -341.7)" fill="#66e6e1"/>
            </g>
            <g id="Grupo_1241441" data-name="Grupo 1241441" transform="translate(1.347 8.469)">
              <path id="Trazado_1295465" data-name="Trazado 1295465" d="M108.906,381.59a.174.174,0,1,0-.1.333l1.735.526a.156.156,0,0,0,.05.008.172.172,0,0,0,.166-.124.174.174,0,0,0-.116-.217Z" transform="translate(-101.295 -361.422)" fill="#08b59c"/>
              <path id="Trazado_1295466" data-name="Trazado 1295466" d="M104.9,367.543a3.331,3.331,0,0,1,3.993-1.789l1.494.509h0l3.983,1.358a.159.159,0,0,0,.056.01.175.175,0,0,0,.165-.117.173.173,0,0,0-.108-.22l-3.834-1.306,3.945-13.18a.174.174,0,0,0-.334-.1l-3.94,13.166-1.316-.448a3.724,3.724,0,0,0-4.41,1.945.174.174,0,0,0,.065.237A.176.176,0,0,0,104.9,367.543Z" transform="translate(-100.043 -352.583)" fill="#08b59c"/>
              <path id="Trazado_1295467" data-name="Trazado 1295467" d="M139.992,383.6H140a.174.174,0,0,0,.008-.348,4.114,4.114,0,0,1-3.632-3.2.174.174,0,1,0-.336.091A4.534,4.534,0,0,0,139.992,383.6Z" transform="translate(-109.632 -360.917)" fill="#08b59c"/>
              <path id="Trazado_1295468" data-name="Trazado 1295468" d="M139.7,373.767c.086-.038,2.126-.86,4.354,1.341a.174.174,0,0,0,.245-.247c-2.4-2.373-4.641-1.455-4.735-1.413a.173.173,0,0,0-.092.227A.177.177,0,0,0,139.7,373.767Z" transform="translate(-110.676 -358.879)" fill="#08b59c"/>
              <path id="Trazado_1295469" data-name="Trazado 1295469" d="M138.159,379.581a4.545,4.545,0,0,0,1.221.167,3.075,3.075,0,0,0,1.524-.363,2.452,2.452,0,0,0,1.154-1.639c.669-2.765-1.317-3.361-1.338-3.366a.171.171,0,0,0-.214.12.174.174,0,0,0,.119.215c.069.02,1.682.519,1.094,2.95a2.12,2.12,0,0,1-.986,1.418,3.617,3.617,0,0,1-2.473.165.174.174,0,0,0-.1.333Z" transform="translate(-110.242 -359.224)" fill="#08b59c"/>
              <path id="Trazado_1295470" data-name="Trazado 1295470" d="M144.178,411.163c-.224-.11-5.426-2.663-8.242-3.082l-.907-22.144a.185.185,0,0,0-.181-.167.174.174,0,0,0-.167.181l.913,22.29a.174.174,0,0,0,.152.165c2.72.34,8.223,3.041,8.278,3.069a.166.166,0,0,0,.076.017.174.174,0,0,0,.076-.33Z" transform="translate(-109.22 -362.699)" fill="#08b59c"/>
              <path id="Trazado_1295471" data-name="Trazado 1295471" d="M117.622,392.458a.168.168,0,0,0-.186.16l-1.25,16.9a49.179,49.179,0,0,0-6.721,1.465c-3.024,1.172-8.581,2.293-11.214,1.988a.174.174,0,1,0-.04.345,8.867,8.867,0,0,0,1.026.053A34.954,34.954,0,0,0,109.59,411.3a52.371,52.371,0,0,1,6.786-1.468.174.174,0,0,0,.147-.158l1.26-17.032A.175.175,0,0,0,117.622,392.458Z" transform="translate(-98.056 -364.737)" fill="#08b59c"/>
              <path id="Trazado_1295472" data-name="Trazado 1295472" d="M141.463,389.639a.174.174,0,0,0-.125-.212l-3.087-.8a.177.177,0,0,0-.147.028.173.173,0,0,0-.07.132c0,.085-.305,8.481,4.791,8.882h.014a.175.175,0,0,0,.173-.16.173.173,0,0,0-.16-.186c-4.321-.341-4.484-7.012-4.474-8.305l2.874.741A.177.177,0,0,0,141.463,389.639Z" transform="translate(-110.24 -363.569)" fill="#08b59c"/>
              <path id="Trazado_1295473" data-name="Trazado 1295473" d="M125.868,353.582H121.21a.174.174,0,0,0-.136.066.177.177,0,0,0-.033.148c.593,2.506,1.321,3.725,2.227,3.725,1.463,0,2.637-3.329,2.765-3.71a.174.174,0,0,0-.165-.229Zm-2.6,3.591c-.476,0-1.176-.569-1.837-3.244h4.191C125.221,355.013,124.223,357.173,123.267,357.173Z" transform="translate(-105.061 -352.887)" fill="#08b59c"/>
            </g>
            <g id="Grupo_1241442" data-name="Grupo 1241442" transform="translate(20.131)">
              <path id="Trazado_1295474" data-name="Trazado 1295474" d="M125.077,340.643l2.115,5.562,1.931-2.232-3.029-3.573Z" transform="translate(-125.077 -340.4)" fill="#118e76"/>
              <path id="Trazado_1295475" data-name="Trazado 1295475" d="M134.208,342.817l-.483-.528-1.493,2.29.2,5.735.261-5.1.905,1.23Z" transform="translate(-127.258 -340.976)" fill="#118e76"/>
              <path id="Trazado_1295476" data-name="Trazado 1295476" d="M130.323,351.655l.36-6.115-.485.56Z" transform="translate(-126.638 -341.967)" fill="#118e76"/>
            </g>
          </g>
          <g id="Grupo_1241445" data-name="Grupo 1241445" transform="translate(0 5.543)">
            <path id="Trazado_1295477" data-name="Trazado 1295477" d="M148.3,340.179l-.128-1.143,13.45-16.72-.635-.511-.15.186a.406.406,0,0,0-.134.108l-13.195,16.4-1.144.12-4.7,3.78,1.645,1.323.664.534,1.645,1.323Z" transform="translate(-104.833 -321.805)" fill="#48aac1"/>
            <path id="Trazado_1295478" data-name="Trazado 1295478" d="M98.359,406.814a1.7,1.7,0,0,1-.305-2.377l7.963-10.31-.659-.509-.659-.509-7.963,10.31a1.694,1.694,0,0,1-2.376.305l-2.945-2.275a1.7,1.7,0,0,0-2.377.305h0a1.7,1.7,0,0,0,.305,2.377l4.944,3.819,4.944,3.819a1.7,1.7,0,0,0,2.377-.305h0a1.7,1.7,0,0,0-.305-2.377Z" transform="translate(-88.685 -343.539)" fill="#1a4745"/>
            <path id="Trazado_1295479" data-name="Trazado 1295479" d="M133,354.115l-3.292-2.581a2.471,2.471,0,0,0-3.408.343l-12.846,15.1,5.729,1.758-.521,1.849-1.005,3.965-.3,1.235-9-2.82-6.4,7.528a2.472,2.472,0,0,0,.357,3.547l5.979,4.688a2.472,2.472,0,0,0,3.545-.521l21.657-30.72A2.473,2.473,0,0,0,133,354.115Z" transform="translate(-92.55 -330.706)" fill="#3e9391"/>
            <g id="Grupo_1241444" data-name="Grupo 1241444" transform="translate(16.552 29.044)">
              <path id="Trazado_1295480" data-name="Trazado 1295480" d="M113.06,390.723a.347.347,0,1,0-.437.54l5.692,4.606a.347.347,0,0,0,.437-.54Z" transform="translate(-112.493 -371.832)" fill="#1a4745"/>
              <path id="Trazado_1295481" data-name="Trazado 1295481" d="M124.84,384.375l-.087.344-.106.438,2.328,1.781a.351.351,0,0,0,.215.074.348.348,0,0,0,.216-.621Z" transform="translate(-116.198 -369.92)" fill="#1a4745"/>
              <path id="Trazado_1295482" data-name="Trazado 1295482" d="M127.8,372.093a.348.348,0,0,0-.423.551l5.066,3.9a.348.348,0,1,0,.423-.551Z" transform="translate(-116.99 -366.155)" fill="#1a4745"/>
              <path id="Trazado_1295483" data-name="Trazado 1295483" d="M139.1,367.393l-4.8-3.736a.348.348,0,1,0-.428.548l4.8,3.736a.349.349,0,0,0,.488-.06A.349.349,0,0,0,139.1,367.393Z" transform="translate(-118.971 -363.583)" fill="#1a4745"/>
            </g>
          </g>
          <g id="Grupo_1241446" data-name="Grupo 1241446" transform="translate(25.106 40.628)">
            <path id="Trazado_1295484" data-name="Trazado 1295484" d="M138.332,373.691s1.769,2.289.428,3.3-4.357,1.144-5.193-.264,1.842-3.924,3.154-3.436l.718-1.018A1.509,1.509,0,0,0,138.332,373.691Z" transform="translate(-127.422 -372.273)" fill="#efcdca"/>
            <path id="Trazado_1295485" data-name="Trazado 1295485" d="M130.467,380.992l-.149-.286-.17.241-.769-.108s1.334-.35,1.452-.688-2.424.375-3.247,0a17.447,17.447,0,0,1-1.78-.983l-1.005,3.965s3.625,1.778,5.024,1.43S132.06,382.44,130.467,380.992Z" transform="translate(-124.798 -374.375)" fill="#efcdca"/>
          </g>
        </g>
        <g id="Grupo_1241449" data-name="Grupo 1241449" transform="translate(256.332 63.244)">
          <g id="Grupo_1241448" data-name="Grupo 1241448">
            <path id="Trazado_1295486" data-name="Trazado 1295486" d="M461.169,149.359a12.031,12.031,0,0,1,6.332,4.312s-7.382-2.84-11.549-.048S457.054,148.41,461.169,149.359Z" transform="translate(-420.679 -143.392)" fill="#254914"/>
            <path id="Trazado_1295487" data-name="Trazado 1295487" d="M419.746,176.529a7.916,7.916,0,0,0-4.166,2.838s4.857-1.869,7.6-.032S422.453,175.9,419.746,176.529Z" transform="translate(-408.838 -151.682)" fill="#254914"/>
            <path id="Trazado_1295488" data-name="Trazado 1295488" d="M432.13,171.839a12.894,12.894,0,0,0-1.8,4.246,95.32,95.32,0,0,1,.564-15.558c1.421-.25,7.321-1.457,10.069-4.645,3.137-3.639,2.655-8.483,5.411-9.1,0,0-9.614-3.051-13.923,1.278l.245,2.984-1.4-1.8s-3.248,7.328-.913,11.049a97.686,97.686,0,0,0-.478,18.076c-.117.877-.178,1.7-.207,2.423q-.125-.468-.262-.927h0a48.414,48.414,0,0,0-.918-9.763,26.7,26.7,0,0,0-2.409-15.827,20.5,20.5,0,0,0-1.077-5.38l-1.088.956.326-2.753a11.677,11.677,0,0,0-7.089-6.281c-1.789,9.313,6.73,13.291,8.611,14.049a26.425,26.425,0,0,1,2.391,13.773,29.376,29.376,0,0,0-1.483-4.478c-1.038-3.5-4-10.187-11.562-10.923l-.18,2.669-1.677-2.8s-4.3,5.946-7.4,4.8c0,0,3.485,3.134,10.245,1.775a9.135,9.135,0,0,1,9.2,2.911c1.318,2.432,3.3,7.4,3.543,15.57a34.995,34.995,0,0,0-1.558-3.616c1.534-2.449-.6-7.268-.6-7.268l-.921,1.185.161-1.963c-2.835-2.848-9.161-.84-9.161-.84,1.813.409,1.5,3.6,3.56,5.99,1.7,1.977,5.248,2.8,6.433,3.021a28.992,28.992,0,0,1,3.276,12.361.268.268,0,0,0,.268.263h0a.268.268,0,0,0,.263-.273,24.808,24.808,0,0,0-.348-3.7.136.136,0,0,0,0-.017c0-.07-.374-5.5,1.443-9.576a14,14,0,0,1,6.554-4.451,10.461,10.461,0,0,1,2.022.257.268.268,0,1,0,.116-.523c-.195-.043-.387-.08-.576-.113,3.172-.564,7.217-.058,12.087,2.942a3.162,3.162,0,0,0,4.153-1.465C457.634,167.845,436.529,162.9,432.13,171.839Z" transform="translate(-405.882 -140.81)" fill="#428c23"/>
            <path id="Trazado_1295489" data-name="Trazado 1295489" d="M442.393,183.481s3.618-6.83,20.458-2.224c0,0-3.666-5.708-6.4-7.753l-2.762,2.378.1-4a20.726,20.726,0,0,0-5.724.073l.234,3.194-1.922-2.639S439.9,177.206,442.393,183.481Z" transform="translate(-416.836 -150.225)" fill="#254914"/>
            <path id="Trazado_1295490" data-name="Trazado 1295490" d="M427.2,172.5a6.71,6.71,0,0,0-5.758-5.113c-4.771-.476-11.488.633-15.56-3.252,0,0,2.542,1.272,8.7-1.828,3.84-1.933,8.611-.621,8.611-.621l-1.516,4.027,2.167-3.448S428.149,165.284,427.2,172.5Z" transform="translate(-405.882 -147.041)" fill="#254914"/>
          </g>
          <path id="Trazado_1295491" data-name="Trazado 1295491" d="M444.46,211.92h-23.1a6.524,6.524,0,0,1-6.524-6.524v-1.3h36.15v1.3A6.525,6.525,0,0,1,444.46,211.92Z" transform="translate(-408.611 -160.099)" fill="#1a2b76"/>
          <path id="Trazado_1295492" data-name="Trazado 1295492" d="M449.359,205.375H416.6a.348.348,0,1,0,0,.7h32.761a.348.348,0,1,0,0-.7Z" transform="translate(-409.042 -160.49)" fill="#526ac6"/>
        </g>
        <g id="Grupo_1241451" data-name="Grupo 1241451" transform="translate(21.88 258.079)">
          <g id="Grupo_1241450" data-name="Grupo 1241450">
            <path id="Trazado_1295493" data-name="Trazado 1295493" d="M38.614,427.307A8.776,8.776,0,0,0,34,430.452s5.383-2.071,8.422-.035S41.615,426.614,38.614,427.307Z" transform="translate(-31.494 -422.954)" fill="#254914"/>
            <path id="Trazado_1295494" data-name="Trazado 1295494" d="M70.251,447.12a5.769,5.769,0,0,1,3.038,2.07s-3.542-1.363-5.541-.023S68.277,446.664,70.251,447.12Z" transform="translate(-41.558 -428.999)" fill="#254914"/>
            <path id="Trazado_1295495" data-name="Trazado 1295495" d="M47.9,443.7a9.4,9.4,0,0,1,1.315,3.1,69.4,69.4,0,0,0-.412-11.345c-1.037-.183-5.339-1.062-7.343-3.388-2.287-2.654-1.936-6.187-3.946-6.639,0,0,7.01-2.225,10.153.932l-.179,2.176,1.021-1.314s2.369,5.344.666,8.057a71.185,71.185,0,0,1,.348,13.182c.085.64.13,1.242.151,1.767q.091-.342.191-.676h0a35.351,35.351,0,0,1,.669-7.119,19.467,19.467,0,0,1,1.757-11.542,14.971,14.971,0,0,1,.785-3.924l.793.7-.238-2.008A8.516,8.516,0,0,1,58.8,421.07c1.3,6.791-4.908,9.692-6.28,10.245a19.28,19.28,0,0,0-1.744,10.044,21.337,21.337,0,0,1,1.082-3.266c.756-2.553,2.914-7.429,8.431-7.966l.131,1.946,1.223-2.039s3.133,4.336,5.4,3.5c0,0-2.542,2.286-7.471,1.294a6.66,6.66,0,0,0-6.709,2.122c-.961,1.774-2.4,5.394-2.584,11.354a25.655,25.655,0,0,1,1.136-2.638c-1.119-1.786.439-5.3.439-5.3l.672.865-.117-1.431c2.068-2.077,6.68-.613,6.68-.613-1.322.3-1.091,2.622-2.6,4.369-1.242,1.442-3.827,2.039-4.692,2.2a21.137,21.137,0,0,0-2.389,9.014.2.2,0,0,1-.2.192h0a.2.2,0,0,1-.192-.2,18.07,18.07,0,0,1,.254-2.7.077.077,0,0,1,0-.013,17.105,17.105,0,0,0-1.053-6.984,10.21,10.21,0,0,0-4.779-3.246,7.6,7.6,0,0,0-1.475.188.2.2,0,0,1-.085-.382c.142-.031.282-.058.42-.083-2.313-.411-5.263-.042-8.815,2.145a2.3,2.3,0,0,1-3.028-1.068C29.3,440.787,44.695,437.182,47.9,443.7Z" transform="translate(-30.396 -421.07)" fill="#428c23"/>
            <path id="Trazado_1295496" data-name="Trazado 1295496" d="M49.762,452.19s-2.639-4.981-14.919-1.621c0,0,2.673-4.163,4.668-5.653l2.014,1.734-.071-2.92a15.1,15.1,0,0,1,4.174.054l-.171,2.329,1.4-1.924S51.582,447.615,49.762,452.19Z" transform="translate(-31.752 -427.937)" fill="#254914"/>
            <path id="Trazado_1295497" data-name="Trazado 1295497" d="M60.705,444.183a4.894,4.894,0,0,1,4.2-3.729c3.479-.348,8.378.462,11.347-2.371,0,0-1.853.928-6.343-1.333a9.948,9.948,0,0,0-6.28-.453l1.106,2.936-1.58-2.514S60.014,438.919,60.705,444.183Z" transform="translate(-39.604 -425.615)" fill="#254914"/>
          </g>
          <path id="Trazado_1295498" data-name="Trazado 1295498" d="M44.371,472.928H59.317a5.708,5.708,0,0,0,5.708-5.708H38.663A5.708,5.708,0,0,0,44.371,472.928Z" transform="translate(-32.916 -435.137)" fill="#1a2b76"/>
          <path id="Trazado_1295499" data-name="Trazado 1295499" d="M40.709,468.156H64.6a.254.254,0,0,1,0,.508H40.709a.254.254,0,0,1,0-.508Z" transform="translate(-33.462 -435.422)" fill="#526ac6"/>
        </g>
      </g>
    </g>
  </g>
</svg>
