<svg xmlns="http://www.w3.org/2000/svg" xmlns:xlink="http://www.w3.org/1999/xlink" width="103.737" height="103.737" viewBox="0 0 103.737 103.737">
  <defs>
    <filter id="Trazado_904820" x="0" y="0" width="103.737" height="103.737" filterUnits="userSpaceOnUse">
      <feOffset dy="3" input="SourceAlpha"/>
      <feGaussianBlur stdDeviation="3" result="blur"/>
      <feFlood flood-opacity="0.161"/>
      <feComposite operator="in" in2="blur"/>
      <feComposite in="SourceGraphic"/>
    </filter>
  </defs>
  <g id="Grupo_1241495" data-name="Grupo 1241495" transform="translate(-171 -5001.542)">
    <g id="Grupo_1241036" data-name="Grupo 1241036" transform="translate(180 5007.542)">
      <g id="Grupo_1233820" data-name="Grupo 1233820" transform="translate(0 0)">
        <g id="Grupo_1173585" data-name="Grupo 1173585">
          <g id="Grupo_1173428" data-name="Grupo 1173428">
            <g id="Grupo_1171958" data-name="Grupo 1171958">
              <g id="Grupo_1167341" data-name="Grupo 1167341">
                <g id="Grupo_1166792" data-name="Grupo 1166792">
                  <g transform="matrix(1, 0, 0, 1, -9, -6)" filter="url(#Trazado_904820)">
                    <g id="Trazado_904820-2" data-name="Trazado 904820" transform="translate(9 6)" fill="#e8e7f2">
                      <path d="M 42.86844635009766 84.23694610595703 C 37.28308486938477 84.23694610595703 31.8655834197998 83.14337921142578 26.76644706726074 80.98661804199219 C 21.84049606323242 78.90312194824219 17.41622161865234 75.92009735107422 13.61653423309326 72.12039184570312 C 9.816845893859863 68.32070922851562 6.833821296691895 63.89643096923828 4.750321388244629 58.97048187255859 C 2.593558788299561 53.87134552001953 1.499996304512024 48.45383071899414 1.499996304512024 42.86846923828125 C 1.499996304512024 37.28310775756836 2.593558788299561 31.8656063079834 4.750321388244629 26.76645660400391 C 6.833821296691895 21.84050750732422 9.816845893859863 17.41624450683594 13.61653423309326 13.61654376983643 C 17.41622161865234 9.816856384277344 21.84049606323242 6.833831787109375 26.76644706726074 4.750331878662109 C 31.8655834197998 2.593569278717041 37.28308486938477 1.500006794929504 42.86844635009766 1.500006794929504 C 48.45380783081055 1.500006794929504 53.87130737304688 2.593569278717041 58.9704475402832 4.750331878662109 C 63.89639663696289 6.833831787109375 68.32067108154297 9.816856384277344 72.120361328125 13.61654376983643 C 75.9200439453125 17.41624450683594 78.90306854248047 21.84050750732422 80.986572265625 26.76645660400391 C 83.14333343505859 31.8656063079834 84.23689270019531 37.28310775756836 84.23689270019531 42.86846923828125 C 84.23689270019531 48.45383071899414 83.14333343505859 53.87134552001953 80.986572265625 58.97048187255859 C 78.90306854248047 63.89643096923828 75.9200439453125 68.32070922851562 72.120361328125 72.12039184570312 C 68.32067108154297 75.92009735107422 63.89639663696289 78.90312194824219 58.9704475402832 80.98661804199219 C 53.87130737304688 83.14337921142578 48.45380783081055 84.23694610595703 42.86844635009766 84.23694610595703 Z" stroke="none"/>
                      <path d="M 42.86844635009766 3 C 37.48491287231445 3 32.26401901245117 4.053695678710938 27.35076522827148 6.131828308105469 C 22.60361862182617 8.13970947265625 18.33962249755859 11.01478576660156 14.67719268798828 14.67720031738281 C 11.01477813720703 18.33963012695312 8.139701843261719 22.60363006591797 6.131820678710938 27.35078811645508 C 4.053688049316406 32.26403045654297 2.999992370605469 37.48493576049805 2.999992370605469 42.86846923828125 C 2.999992370605469 48.25200271606445 4.053688049316406 53.47290802001953 6.131820678710938 58.38614654541016 C 8.139701843261719 63.13330841064453 11.01477813720703 67.39730834960938 14.67719268798828 71.05973815917969 C 18.33962249755859 74.72215270996094 22.60361862182617 77.59722900390625 27.35076522827148 79.60511016845703 C 32.26401901245117 81.68324279785156 37.48491287231445 82.7369384765625 42.86844635009766 82.7369384765625 C 48.25197982788086 82.7369384765625 53.47287368774414 81.68324279785156 58.38612365722656 79.60511016845703 C 63.13327026367188 77.59722900390625 67.39727020263672 74.72215270996094 71.05968475341797 71.05973815917969 C 74.72211456298828 67.39730834960938 77.59718322753906 63.13330841064453 79.60505676269531 58.38614654541016 C 81.68319702148438 53.47290802001953 82.73688507080078 48.25200271606445 82.73688507080078 42.86846923828125 C 82.73688507080078 37.48493576049805 81.68319702148438 32.26403045654297 79.60505676269531 27.35078811645508 C 77.59718322753906 22.60363006591797 74.72211456298828 18.33963012695312 71.05968475341797 14.67720031738281 C 67.39727020263672 11.01478576660156 63.13327026367188 8.13970947265625 58.38612365722656 6.131828308105469 C 53.47287368774414 4.053695678710938 48.25197982788086 3 42.86844635009766 3 M 42.86844635009766 0 C 66.54403686523438 0 85.73688507080078 19.19287109375 85.73688507080078 42.86846923828125 C 85.73688507080078 66.5440673828125 66.54403686523438 85.7369384765625 42.86844635009766 85.7369384765625 C 19.19286346435547 85.7369384765625 -7.62939453125e-06 66.5440673828125 -7.62939453125e-06 42.86846923828125 C -7.62939453125e-06 19.19287109375 19.19286346435547 0 42.86844635009766 0 Z" stroke="none" fill="#bdbcd9"/>
                    </g>
                  </g>
                </g>
              </g>
            </g>
          </g>
        </g>
      </g>
    </g>
    <g id="_032---Improved-Mental-Health" data-name="032---Improved-Mental-Health" transform="translate(195.156 5022.702)">
      <g id="Layer_3" transform="translate(0.925 0.918)">
        <path id="Shape" d="M43,13.544l1.848,1.848L50.392,8" transform="translate(-3.267 -1.525)" fill="none" stroke="#000" stroke-linecap="round" stroke-linejoin="round" stroke-width="2" fill-rule="evenodd"/>
        <g id="Grupo_1241494" data-name="Grupo 1241494" transform="translate(0)">
          <path id="Shape-2" data-name="Shape" d="M41.712,34.922a16.714,16.714,0,0,0-1.275,8.594,32.292,32.292,0,0,0,1.127,5.628,18.373,18.373,0,0,0,1.09,2.772,9.1,9.1,0,0,0,.721,1.192.952.952,0,0,1-.776,1.46H21.706a.9.9,0,0,1-.887-.619c-.471-1.534-1.857-5.332-4.362-6.468a75.609,75.609,0,0,1-8.039,2.43,2.509,2.509,0,0,1-2.957-1.839,4.484,4.484,0,0,1-.268-2.061,5.729,5.729,0,0,0,.222-2.2c-.24-.933-1.137-1.164-1.83-1.663-.573-.407.453-1.71.453-1.71s-1.081-.813-1.478-1.155.166-.906.675-1.987a2.523,2.523,0,0,0,.176-1.5c-.185-.989-1.691-1.358-2.43-1.913-.342-.259-.906-.647-.97-1.118-.092-.656.675-1.58,1.053-2.042a35.182,35.182,0,0,0,4.1-6.7,1.789,1.789,0,0,0,.259-.822c-.028-1.321-1.913-1.867-2.1-3.151a2.279,2.279,0,0,1,.194-1.1,29.737,29.737,0,0,0,1.368-3.493,26.085,26.085,0,0,1,.869-3.234A16.889,16.889,0,0,1,9.268,6.5c2.255-2.393,5.591-3.576,8.742-4.2A59.925,59.925,0,0,1,26.8,1.027,20.038,20.038,0,0,1,37.11,3.2,10.135,10.135,0,0,0,33.932,7.56,18.453,18.453,0,0,0,25.874,5.62c-8.418,0-15.709,6.1-15.709,12.475s6.829,7.855,15.247,7.855h.453a3.7,3.7,0,0,1,3.705,3.7,3.229,3.229,0,0,0,3.909,3.16,3.285,3.285,0,0,0,2.56-3.253V28.195a4.62,4.62,0,0,1,2.652-4.168,6.672,6.672,0,0,0,3.188-2.818,9.6,9.6,0,0,0,1.552.12,10.159,10.159,0,0,0,4.611-1.1c.009.388.018.767.009,1.146a13.439,13.439,0,0,1-2.116,7.115c-1.377,2.172-3.179,4.057-4.223,6.431Z" transform="translate(-0.002 -0.993)" fill="#ffe0b2"/>
          <path id="Shape-3" data-name="Shape" d="M45.484,22.889c-.054-.008-.108-.011-.162-.019-.009.018-.023.032-.032.05C45.351,22.912,45.415,22.9,45.484,22.889Z" transform="translate(-3.441 -2.654)" fill="#dfc49c"/>
          <path id="Shape-4" data-name="Shape" d="M49.021,30.071a13.439,13.439,0,0,0,2.116-7.115c.009-.379,0-.758-.009-1.146a10.165,10.165,0,0,1-2.763.915v.231a13.439,13.439,0,0,1-2.116,7.115c-1.377,2.172-3.179,4.057-4.223,6.431A16.714,16.714,0,0,0,40.751,45.1a32.292,32.292,0,0,0,1.127,5.628,18.373,18.373,0,0,0,1.09,2.772,9.1,9.1,0,0,0,.721,1.192.952.952,0,0,1-.776,1.46h2.772a.952.952,0,0,0,.776-1.46,9.1,9.1,0,0,1-.721-1.192,18.373,18.373,0,0,1-1.09-2.772A32.292,32.292,0,0,1,43.523,45.1,16.714,16.714,0,0,1,44.8,36.5C45.842,34.128,47.644,32.243,49.021,30.071Z" transform="translate(-3.088 -2.574)" fill="#dfc49c"/>
          <path id="Shape-5" data-name="Shape" d="M42.714,21.589a6.672,6.672,0,0,1-3.188,2.818,4.62,4.62,0,0,0-2.652,4.168v1.358a3.285,3.285,0,0,1-2.56,3.253,3.229,3.229,0,0,1-3.909-3.16,3.7,3.7,0,0,0-3.705-3.7h-.453C17.829,26.329,11,24.851,11,18.475S18.291,6,26.709,6a18.453,18.453,0,0,1,8.058,1.941,9.946,9.946,0,0,0-.665,3.6,10.153,10.153,0,0,0,8.612,10.045Z" transform="translate(-0.837 -1.373)" fill="#f44335"/>
          <path id="Shape-6" data-name="Shape" d="M56.329,11.166a10.141,10.141,0,0,1-5.554,9.056v.009a10.159,10.159,0,0,1-4.611,1.1,9.6,9.6,0,0,1-1.552-.12A10.153,10.153,0,0,1,36,11.166a9.946,9.946,0,0,1,.665-3.6,10.165,10.165,0,0,1,19.664,3.6Z" transform="translate(-2.735 -0.994)" fill="#60a917"/>
          <path id="Shape-7" data-name="Shape" d="M46.885,1a10.228,10.228,0,0,0-1.4.1A10.156,10.156,0,0,1,48.724,20.22v.009a10.165,10.165,0,0,1-3.234,1,9.757,9.757,0,0,0,1.4.1,10.159,10.159,0,0,0,4.611-1.1V20.22A10.165,10.165,0,0,0,46.885,1Z" transform="translate(-3.456 -0.993)" fill="#549414"/>
          <path id="Shape-8" data-name="Shape" d="M31.089,15.62v1.848a.924.924,0,0,1-.924.924h-2.31a.462.462,0,0,0-.462.462v2.31a.924.924,0,0,1-.924.924H24.62a.924.924,0,0,1-.924-.924v-2.31a.462.462,0,0,0-.462-.462h-2.31A.924.924,0,0,1,20,17.468V15.62a.924.924,0,0,1,.924-.924h2.31a.462.462,0,0,0,.462-.462v-2.31A.924.924,0,0,1,24.62,11h1.848a.924.924,0,0,1,.924.924v2.31a.462.462,0,0,0,.462.462h2.31A.924.924,0,0,1,31.089,15.62Z" transform="translate(-1.52 -1.753)" fill="#f5f5f5"/>
        </g>
      </g>
      <g id="Layer_12" transform="translate(-0.005 0.003)">
        <path id="Shape-9" data-name="Shape" d="M51.578,7.37l-4.9,6.541-1.1-1.1a.924.924,0,0,0-1.307,1.307c2.014,2.014,2,2.119,2.5,2.119a.924.924,0,0,0,.739-.37l5.544-7.392A.924.924,0,1,0,51.578,7.37Z" transform="translate(-4.262 -0.534)"/>
        <path id="Shape-10" data-name="Shape" d="M38.939,2.062C32.583-.946,27.026-.171,19.753,1.313c-4.158.832-7.175,2.293-9.233,4.476a17.724,17.724,0,0,0-3.706,6.046,25.017,25.017,0,0,0-.848,3.112c-.482,2.125-1.834,3.731-1.629,5.164.23,1.608,2.092,2.35,2.088,3.037A35.2,35.2,0,0,1,2.242,30.1c-1.848,2.255-1.5,3.258.108,4.45.652.486,2.005.969,2.075,1.343a2.337,2.337,0,0,1-.506,1.7c-.943,1.68-.481,2,.806,2.991a1.663,1.663,0,0,0,.249,2.241c.652.467,1.357.681,1.471,1.138.218.863-.78,1.9.069,4.338a3.413,3.413,0,0,0,4.017,2.44,74.184,74.184,0,0,0,7.781-2.334c2.023,1.194,3.22,4.659,3.551,5.735a1.82,1.82,0,0,0,1.763,1.272h20.9a1.869,1.869,0,0,0,1.542-2.888c-1.715-2.61-2.415-6.1-2.791-9.2a15.709,15.709,0,0,1,1.2-8.111c1.964-4.454,6.516-6.759,6.423-14.539A11.077,11.077,0,1,0,38.939,2.062Zm3.85,32.419a17.572,17.572,0,0,0-1.345,9.072c.855,7.04,2.593,8.976,3.08,10.031h-20.9a14.372,14.372,0,0,0-3.249-5.892c.249-.087,1.892-.663,2.154-.747,3.947-1.251,5.92-3.049,5.865-5.36a.924.924,0,1,0-1.848.043c.022.952-.753,2.34-4.576,3.552-1.6.505-8.288,3.02-11.822,3.748a1.634,1.634,0,0,1-1.9-1.238c-.712-2.045.4-2.495-.022-4.182-.272-1.077-1.031-1.494-1.9-2.005.273-.572.615-.718.544-1.262-.068-.518-.353-.579-1.491-1.487a4.387,4.387,0,0,0,.855-3.2C5.956,34.038,4.163,33.6,3.4,33.027a4.359,4.359,0,0,1-.549-.448c0-.14.15-.481.853-1.342a36.408,36.408,0,0,0,4.212-6.867,2.652,2.652,0,0,0,.359-1.258,3.253,3.253,0,0,0-1.343-2.3C6,19.947,6.073,19.838,6.31,19.2a27.557,27.557,0,0,0,1.4-3.612,26.327,26.327,0,0,1,.832-3.117,15.866,15.866,0,0,1,3.318-5.418c1.76-1.868,4.536-3.192,8.253-3.933C26.534,1.816,31.736.98,37.4,3.385A11.141,11.141,0,0,0,35.39,6.256C23.516,1.1,11.164,9.318,11.164,18.019c0,7.787,8.9,8.779,16.624,8.779A2.78,2.78,0,0,1,30.57,29.57a4.159,4.159,0,1,0,8.317-.092V28.119a3.715,3.715,0,0,1,2.125-3.333,7.867,7.867,0,0,0,3.243-2.664,10.913,10.913,0,0,0,4.783-.587C48.805,27.9,44.8,29.9,42.789,34.481Zm-.576-12.765a6.79,6.79,0,0,1-2,1.4,5.569,5.569,0,0,0-3.176,5v1.358a2.354,2.354,0,0,1-1.825,2.348,2.3,2.3,0,0,1-2.8-2.256,4.63,4.63,0,0,0-4.63-4.62c-6.5,0-14.776-.54-14.776-6.93,0-7.473,11.031-14.725,21.705-10.039A11.08,11.08,0,0,0,42.213,21.716Zm3.142-1.386A9.241,9.241,0,1,1,54.6,11.089,9.241,9.241,0,0,1,45.355,20.33Z" transform="translate(-0.995 -0.003)"/>
        <path id="Shape-11" data-name="Shape" d="M32.089,13.7H30.241V11.848A1.848,1.848,0,0,0,28.392,10H26.544A1.848,1.848,0,0,0,24.7,11.848V13.7H22.848A1.848,1.848,0,0,0,21,15.544v1.848a1.848,1.848,0,0,0,1.848,1.848H24.7v1.848a1.848,1.848,0,0,0,1.848,1.848h1.848a1.848,1.848,0,0,0,1.848-1.848V19.241h1.848a1.848,1.848,0,0,0,1.848-1.848V15.544A1.848,1.848,0,0,0,32.089,13.7Zm0,3.7h-2.31a1.386,1.386,0,0,0-1.386,1.386v2.31H26.544v-2.31a1.386,1.386,0,0,0-1.386-1.386h-2.31V15.544h2.31a1.386,1.386,0,0,0,1.386-1.386v-2.31h1.848v2.31a1.386,1.386,0,0,0,1.386,1.386h2.31Z" transform="translate(-2.514 -0.762)"/>
      </g>
    </g>
  </g>
</svg>
