<svg xmlns="http://www.w3.org/2000/svg" xmlns:xlink="http://www.w3.org/1999/xlink" width="102.883" height="102.883" viewBox="0 0 102.883 102.883">
  <defs>
    <filter id="Trazado_904820" x="0" y="0" width="102.883" height="102.883" filterUnits="userSpaceOnUse">
      <feOffset dy="3" input="SourceAlpha"/>
      <feGaussianBlur stdDeviation="3" result="blur"/>
      <feFlood flood-opacity="0.161"/>
      <feComposite operator="in" in2="blur"/>
      <feComposite in="SourceGraphic"/>
    </filter>
  </defs>
  <g id="Grupo_1241502" data-name="Grupo 1241502" transform="translate(-171 -7281.972)">
    <g id="Grupo_1241065" data-name="Grupo 1241065" transform="translate(180 7287.972)">
      <g id="Grupo_1233820" data-name="Grupo 1233820" transform="translate(0 0)">
        <g id="Grupo_1173585" data-name="Grupo 1173585">
          <g id="Grupo_1173428" data-name="Grupo 1173428">
            <g id="Grupo_1171958" data-name="Grupo 1171958">
              <g id="Grupo_1167341" data-name="Grupo 1167341">
                <g id="Grupo_1166792" data-name="Grupo 1166792">
                  <g transform="matrix(1, 0, 0, 1, -9, -6)" filter="url(#Trazado_904820)">
                    <g id="Trazado_904820-2" data-name="Trazado 904820" transform="translate(9 6)" fill="#eaf5f4">
                      <path d="M 42.44160461425781 83.38324737548828 C 36.91386413574219 83.38324737548828 31.5522632598877 82.30096435546875 26.50574493408203 80.16647338867188 C 21.63062858581543 78.10446166992188 17.25201606750488 75.15221405029297 13.49152183532715 71.39171600341797 C 9.73102855682373 67.63123321533203 6.778780937194824 63.25261306762695 4.716781139373779 58.37749481201172 C 2.582287073135376 53.33096313476562 1.500004649162292 47.96936416625977 1.500004649162292 42.44162368774414 C 1.500004649162292 36.91388320922852 2.582287073135376 31.55228233337402 4.716781139373779 26.50575256347656 C 6.778780937194824 21.63063621520996 9.73102855682373 17.25201225280762 13.49152183532715 13.49152946472168 C 17.25201606750488 9.731035232543945 21.63062858581543 6.778788566589355 26.50574493408203 4.716776847839355 C 31.5522632598877 2.582282543182373 36.91386413574219 1.50000011920929 42.44160461425781 1.50000011920929 C 47.96934509277344 1.50000011920929 53.3309440612793 2.582282543182373 58.37746429443359 4.716776847839355 C 63.25258255004883 6.778788566589355 67.63120269775391 9.731035232543945 71.39170074462891 13.49152946472168 C 75.15218353271484 17.25201225280762 78.10443878173828 21.63063621520996 80.16644287109375 26.50575256347656 C 82.30093383789062 31.55228233337402 83.38321685791016 36.91388320922852 83.38321685791016 42.44162368774414 C 83.38321685791016 47.96936416625977 82.30093383789062 53.33096313476562 80.16644287109375 58.37749481201172 C 78.10443878173828 63.25261306762695 75.15218353271484 67.63123321533203 71.39170074462891 71.39171600341797 C 67.63120269775391 75.15221405029297 63.25258255004883 78.10446166992188 58.37746429443359 80.16647338867188 C 53.3309440612793 82.30096435546875 47.96934509277344 83.38324737548828 42.44160461425781 83.38324737548828 Z" stroke="none"/>
                      <path d="M 42.44160461425781 3 C 37.11569976806641 3 31.95069885253906 4.042411804199219 27.09007263183594 6.098274230957031 C 22.39375305175781 8.084663391113281 18.17539215087891 10.928955078125 14.55217742919922 14.55218505859375 C 10.92896270751953 18.17539978027344 8.08465576171875 22.39375686645508 6.098281860351562 27.0900764465332 C 4.04241943359375 31.95070266723633 3.000007629394531 37.11571884155273 3.000007629394531 42.44162368774414 C 3.000007629394531 47.76752853393555 4.04241943359375 52.93252944946289 6.098281860351562 57.79315948486328 C 8.084671020507812 62.4894905090332 10.92896270751953 66.70783996582031 14.55217742919922 70.33106231689453 C 18.17539215087891 73.95427703857422 22.39375305175781 76.798583984375 27.09007263183594 78.78495788574219 C 31.95069885253906 80.84083557128906 37.11569976806641 81.88324737548828 42.44160461425781 81.88324737548828 C 47.76750946044922 81.88324737548828 52.93251037597656 80.84083557128906 57.79313659667969 78.78495788574219 C 62.48945617675781 76.798583984375 66.70781707763672 73.95427703857422 70.33103179931641 70.33106231689453 C 73.95424652099609 66.70783996582031 76.79853820800781 62.4894905090332 78.78492736816406 57.79315948486328 C 80.84078979492188 52.93252944946289 81.88320159912109 47.76752853393555 81.88320159912109 42.44162368774414 C 81.88320159912109 37.11571884155273 80.84078979492188 31.95070266723633 78.78492736816406 27.0900764465332 C 76.79855346679688 22.39375686645508 73.95424652099609 18.17539978027344 70.33103179931641 14.55218505859375 C 66.70781707763672 10.928955078125 62.48945617675781 8.084663391113281 57.79313659667969 6.098274230957031 C 52.93251037597656 4.042411804199219 47.76750946044922 3 42.44160461425781 3 M 42.44160461425781 0 C 65.88145446777344 0 84.88320159912109 19.00175476074219 84.88320159912109 42.44162368774414 C 84.88320159912109 65.88147735595703 65.88145446777344 84.88324737548828 42.44160461425781 84.88324737548828 C 19.00175476074219 84.88324737548828 7.62939453125e-06 65.88147735595703 7.62939453125e-06 42.44162368774414 C 7.62939453125e-06 19.00175476074219 19.00175476074219 0 42.44160461425781 0 Z" stroke="none" fill="#41a599"/>
                    </g>
                  </g>
                </g>
              </g>
            </g>
          </g>
        </g>
      </g>
    </g>
    <g id="leyes_2_" data-name="leyes (2)" transform="translate(196.018 7302.855)">
      <g id="Grupo_1241500" data-name="Grupo 1241500" transform="translate(0.773 0.776)">
        <path id="Trazado_1295766" data-name="Trazado 1295766" d="M61.122,442.439H40.615v-3.378a.826.826,0,0,1,.826-.826H60.3a.826.826,0,0,1,.826.826v3.378Z" transform="translate(-37.197 -393.775)" fill="#5a5a5a"/>
        <path id="Trazado_1295767" data-name="Trazado 1295767" d="M210.665,438.235h-2.374a.826.826,0,0,1,.826.826v3.378h2.374v-3.378A.826.826,0,0,0,210.665,438.235Z" transform="translate(-187.566 -393.775)" fill="#444"/>
        <g id="Grupo_1241497" data-name="Grupo 1241497" transform="translate(5.134)">
          <path id="Trazado_1295768" data-name="Trazado 1295768" d="M97.423,62.429h-.782l-1.054-1.71.981-1.71A15.4,15.4,0,0,0,84.427,43.963H71.089A15.4,15.4,0,0,0,58.948,59.009l1.5,1.71-1.435,1.71h-.924a.855.855,0,0,0-.855.855V64.59a1.71,1.71,0,0,0,1.429,1.687l16.842,2.807a13.683,13.683,0,0,0,4.5,0l16.842-2.807a1.71,1.71,0,0,0,1.429-1.687V63.284A.855.855,0,0,0,97.423,62.429Z" transform="translate(-57.238 -40.2)" fill="#fee45a"/>
          <path id="Trazado_1295769" data-name="Trazado 1295769" d="M313.016,62.429h-.782l-1.054-1.71.981-1.71A15.4,15.4,0,0,0,300.02,43.963h-2.374a15.4,15.4,0,0,1,12.141,15.046v3.007a.413.413,0,0,0,.413.413h.442a.855.855,0,0,1,.855.855v1.707a1.71,1.71,0,0,1-1.289,1.657l2.234-.372a1.71,1.71,0,0,0,1.429-1.687V63.284A.855.855,0,0,0,313.016,62.429Z" transform="translate(-272.831 -40.2)" fill="#fed402"/>
          <g id="Grupo_1241496" data-name="Grupo 1241496" transform="translate(1.297)">
            <path id="Trazado_1295770" data-name="Trazado 1295770" d="M202.67,9.212h-.978a.411.411,0,0,1-.4-.33A1.711,1.711,0,0,0,199.61,7.5h-3.42a1.711,1.711,0,0,0-1.678,1.38.411.411,0,0,1-.4.33h-1.19a1.71,1.71,0,0,0-1.7,1.852l1.556,18.668h9.9Z" transform="translate(-178.677 -7.502)" fill="#ffc344"/>
            <path id="Trazado_1295771" data-name="Trazado 1295771" d="M408.971,193.155a.413.413,0,0,1-.413-.413v-3.007h-2.594a.826.826,0,0,0-.826.826v1.768a.826.826,0,0,0,.826.826Z" transform="translate(-370.525 -170.925)" fill="#ffc344"/>
            <path id="Trazado_1295772" data-name="Trazado 1295772" d="M73.637,192.329v-1.768a.826.826,0,0,0-.826-.826H70.217v3.007a.413.413,0,0,1-.413.413h3.007A.826.826,0,0,0,73.637,192.329Z" transform="translate(-69.804 -170.925)" fill="#ffc344"/>
          </g>
          <path id="Trazado_1295773" data-name="Trazado 1295773" d="M418.058,193.155a.413.413,0,0,1-.413-.413v-3.007h-2.374v3.007a.413.413,0,0,0,.413.413h2.374Z" transform="translate(-378.315 -170.925)" fill="#f6ab31"/>
          <path id="Trazado_1295774" data-name="Trazado 1295774" d="M242.065,160.022H240.3a.826.826,0,0,1-.826-.826v-1.768a.826.826,0,0,1,.826-.826h1.768a.826.826,0,0,1,.826.826V159.2A.826.826,0,0,1,242.065,160.022Z" transform="translate(-220.661 -141.212)" fill="#99e6fc"/>
          <path id="Trazado_1295775" data-name="Trazado 1295775" d="M255.251,9.212h-1.189a.411.411,0,0,1-.4-.33,1.711,1.711,0,0,0-1.678-1.38h-2.374a1.711,1.711,0,0,1,1.678,1.38.411.411,0,0,0,.4.33h1.189a1.71,1.71,0,0,1,1.7,1.852l-1.556,18.668H255.4l1.556-18.668a1.71,1.71,0,0,0-1.7-1.852Z" transform="translate(-229.749 -7.502)" fill="#f6ab31"/>
          <path id="Trazado_1295776" data-name="Trazado 1295776" d="M246.609,156.6h-1.768a.824.824,0,0,0-.3.058.826.826,0,0,1,.523.768V159.2a.825.825,0,0,1-.523.768.822.822,0,0,0,.3.058h1.768a.826.826,0,0,0,.826-.826v-1.768A.826.826,0,0,0,246.609,156.6Z" transform="translate(-225.205 -141.212)" fill="#01d0fb"/>
        </g>
        <g id="Grupo_1241499" data-name="Grupo 1241499" transform="translate(12.743 11.958)">
          <g id="Grupo_1241498" data-name="Grupo 1241498" transform="translate(2.132 1.87)">
            <path id="Trazado_1295777" data-name="Trazado 1295777" d="M292.219,151.05l-.9.9-3,1.842-5.45-3.036-3.035-5.453,1.816-3.026.809-.809Z" transform="translate(-266.6 -141.469)" fill="#bc7c63"/>
            <path id="Trazado_1295778" data-name="Trazado 1295778" d="M152.16,273.914l3-1.842,5.45,3.036,3.035,5.453-1.816,3.026-.687.687-9.526-9.526Z" transform="translate(-151.614 -258.591)" fill="#bc7c63"/>
            <path id="Trazado_1295779" data-name="Trazado 1295779" d="M291.464,281.357l18.085,16.929a.855.855,0,0,1,.02,1.229l-2.376,2.377a.854.854,0,0,1-1.228-.02l-16.918-18.1-1.635-1.635,2.441-2.441Z" transform="translate(-273.395 -265.431)" fill="#bc7c63"/>
          </g>
          <path id="Trazado_1295780" data-name="Trazado 1295780" d="M320.3,298.285,302.21,281.356,300.6,279.7l-1.2,1.2.441.454,18.085,16.929a.855.855,0,0,1,.02,1.229l-1.774,1.775.544.582a.854.854,0,0,0,1.228.02l2.376-2.377A.855.855,0,0,0,320.3,298.285Z" transform="translate(-282.009 -263.561)" fill="#aa6a51"/>
          <path id="Trazado_1295781" data-name="Trazado 1295781" d="M216.664,210.592l1.95-1.95.6.6,1.493-1.494-8.458-8.465-5.4,5.407,8.458,8.465,2.144-2.145Z" transform="translate(-199.009 -191.443)" fill="#bc7c63"/>
          <path id="Trazado_1295782" data-name="Trazado 1295782" d="M308.849,211.562l-.88.88-3,1.842-3.927-2.188.845,1.519,5.45,3.036,3-1.842.9-.9Z" transform="translate(-283.488 -202.457)" fill="#aa6a51"/>
          <path id="Trazado_1295783" data-name="Trazado 1295783" d="M222.8,294.117l-1.523-.849,2.189,3.934-1.816,3.026-.686.686,2.368,2.368.687-.687,1.816-3.026Z" transform="translate(-211.671 -275.73)" fill="#aa6a51"/>
          <path id="Trazado_1295784" data-name="Trazado 1295784" d="M259.181,199.28h0l6.091,6.1-5.4,5.406,2.367,2.369,5.4-5.407Z" transform="translate(-245.945 -191.443)" fill="#aa6a51"/>
          <path id="Trazado_1295785" data-name="Trazado 1295785" d="M265.069,186.017l-1.249,1.25a.826.826,0,0,1-1.168,0l-8.525-8.531a.826.826,0,0,1,0-1.167l1.249-1.25a.826.826,0,0,1,1.168,0l8.525,8.531A.826.826,0,0,1,265.069,186.017Z" transform="translate(-241.196 -170.635)" fill="#f9f7f8"/>
          <path id="Trazado_1295786" data-name="Trazado 1295786" d="M320.857,240.5l-2.368-2.368a.826.826,0,0,1,0,1.167l-1.249,1.25a.825.825,0,0,1-1.146.02l2.346,2.347a.826.826,0,0,0,1.168,0l1.249-1.25A.826.826,0,0,0,320.857,240.5Z" transform="translate(-296.984 -226.281)" fill="#efedef"/>
          <path id="Trazado_1295787" data-name="Trazado 1295787" d="M183.639,247.6l1.249-1.25a.826.826,0,0,1,1.168,0l8.525,8.531a.826.826,0,0,1,0,1.167l-1.249,1.25a.826.826,0,0,1-1.168,0l-8.525-8.531A.826.826,0,0,1,183.639,247.6Z" transform="translate(-177.985 -233.439)" fill="#f9f7f8"/>
          <path id="Trazado_1295788" data-name="Trazado 1295788" d="M250.37,310.53,248,308.162a.826.826,0,0,1,0,1.167l-1.249,1.25a.825.825,0,0,1-1.146.021l2.346,2.347a.826.826,0,0,0,1.168,0l1.249-1.25A.825.825,0,0,0,250.37,310.53Z" transform="translate(-233.773 -289.086)" fill="#efedef"/>
          <path id="Trazado_1295789" data-name="Trazado 1295789" d="M131.2,288.859l1.249-1.25a.826.826,0,0,1,1.168,0l9.708,9.714a.826.826,0,0,1,0,1.167l-1.249,1.25a.826.826,0,0,1-1.168,0l-9.708-9.714A.826.826,0,0,1,131.2,288.859Z" transform="translate(-130.957 -270.437)" fill="#e2dee2"/>
          <path id="Trazado_1295790" data-name="Trazado 1295790" d="M209.388,363.252l-2.368-2.368a.826.826,0,0,1,0,1.167l-1.249,1.25a.825.825,0,0,1-1.146.02l2.346,2.347a.826.826,0,0,0,1.168,0l1.249-1.25A.826.826,0,0,0,209.388,363.252Z" transform="translate(-197.021 -336.367)" fill="#cbc4cc"/>
          <path id="Trazado_1295791" data-name="Trazado 1295791" d="M307.235,134.479l-1.249,1.25a.826.826,0,0,1-1.168,0l-9.708-9.714a.826.826,0,0,1,0-1.167l1.249-1.25a.826.826,0,0,1,1.168,0l9.708,9.714A.826.826,0,0,1,307.235,134.479Z" transform="translate(-277.949 -123.356)" fill="#e2dee2"/>
          <path id="Trazado_1295792" data-name="Trazado 1295792" d="M373.3,199.24l-2.368-2.368a.826.826,0,0,1,0,1.167l-1.249,1.25a.825.825,0,0,1-1.146.02l2.346,2.347a.826.826,0,0,0,1.168,0l1.249-1.25a.825.825,0,0,0,0-1.167Z" transform="translate(-344.011 -189.284)" fill="#cbc4cc"/>
        </g>
        <path id="Trazado_1295793" data-name="Trazado 1295793" d="M34.82,473.726l-.427-1.71a.854.854,0,0,0-.829-.648H8.785a.855.855,0,0,0-.829.648l-.427,1.71a.855.855,0,0,0,.829,1.062H33.991A.855.855,0,0,0,34.82,473.726Z" transform="translate(-7.503 -423.488)" fill="#bc7c63"/>
        <path id="Trazado_1295794" data-name="Trazado 1295794" d="M240.612,473.726l-.427-1.71a.855.855,0,0,0-.829-.648h-2.374a.855.855,0,0,1,.829.648l.427,1.71a.855.855,0,0,1-.829,1.062h2.374A.855.855,0,0,0,240.612,473.726Z" transform="translate(-213.295 -423.488)" fill="#aa6a51"/>
      </g>
      <g id="Grupo_1241501" data-name="Grupo 1241501" transform="translate(-0.001 0.002)">
        <path id="Trazado_1295795" data-name="Trazado 1295795" d="M97.156,46.894l-17.5-16.382.213-.214a1.6,1.6,0,0,0,1.643-.384l.963-.964,8-1.333a2.476,2.476,0,0,0,2.075-2.45V23.861a1.631,1.631,0,0,0-1.629-1.629h-.08V19.586A16.168,16.168,0,0,0,78.711,3.929a2.481,2.481,0,0,0-2.468-2.217h-.911A2.487,2.487,0,0,0,72.973,0H69.555A2.487,2.487,0,0,0,67.2,1.712h-.911A2.481,2.481,0,0,0,63.818,3.93,16.086,16.086,0,0,0,54.481,10.5a.774.774,0,1,0,1.28.871A14.548,14.548,0,0,1,63.9,5.509L65.3,22.232h-.868a.774.774,0,0,0,0,1.548h2.848l-.935.936A1.6,1.6,0,0,0,64.7,25.1l-1.249,1.25a1.6,1.6,0,0,0-.436,1.444l-.1.063-10.6-1.767a.933.933,0,0,1-.781-.923V23.861a.081.081,0,0,1,.08-.081h6.836a.774.774,0,0,0,0-1.548H56.658v-1.82a1.6,1.6,0,0,0-1.6-1.6h-1.8a14.556,14.556,0,0,1,.778-4.007.774.774,0,0,0-1.463-.506,16.141,16.141,0,0,0-.884,5.287v2.646h-.08a1.631,1.631,0,0,0-1.629,1.629v1.305a2.476,2.476,0,0,0,2.075,2.45l7.953,1.326a1.588,1.588,0,0,0-.726.415l-1.249,1.25a1.6,1.6,0,0,0,0,2.262l9.708,9.714a1.6,1.6,0,0,0,2.263,0l1.249-1.25a1.6,1.6,0,0,0,.343-1.75l1.2-2a1.621,1.621,0,0,0,.305.029,1.589,1.589,0,0,0,1.132-.469l1.249-1.25a1.6,1.6,0,0,0,.4-1.6l.226-.226L88.013,46.8a.774.774,0,0,0,1.131-1.057l-7.269-7.775,1.68-1.681L96.1,48.024a.078.078,0,0,1,.025.058.079.079,0,0,1-.024.059l-2.376,2.377a.065.065,0,0,1-.058.024.077.077,0,0,1-.057-.025l-2-2.136a.774.774,0,1,0-1.131,1.057l2,2.136a1.615,1.615,0,0,0,1.162.516h.028a1.615,1.615,0,0,0,1.151-.477L97.2,49.235a1.629,1.629,0,0,0-.039-2.341ZM53.24,20.36h1.818a.052.052,0,0,1,.052.052v1.82H53.24Zm21.677,12.7-7.364-7.369,3.739-3.741,7.364,7.369Zm1.131-18.288,1.249-1.25h0l.061-.007.011.008,9.7,9.707c.006.019.013.037.02.055a.05.05,0,0,1-.013.025l-1.249,1.25a.049.049,0,0,1-.036.015.044.044,0,0,1-.031-.011A.779.779,0,0,0,85.7,24.5l-9.589-9.6a.745.745,0,0,0-.062-.064A.051.051,0,0,1,76.049,14.774Zm-.373,1.89,8.272,8.277-1.64,1.007-7.626-7.63Zm4.7,12.171a.049.049,0,0,1-.037-.015l-.046-.046h0L71.84,20.31h0l-.02-.02a.052.052,0,0,1,0-.073l.081-.081,0,0,1.166-1.167c.021,0,.042-.005.062-.009a.047.047,0,0,1,.011.009c.015.016.031.032.047.047l8.457,8.462.022.022a.052.052,0,0,1,0,.072l-1.249,1.25a.048.048,0,0,1-.036.015ZM72.2,17.684a1.611,1.611,0,0,0-.226.187l-.94.941H70.41a.081.081,0,0,1-.08-.081v-1.71a.081.081,0,0,1,.08-.081h1.709a.081.081,0,0,1,.08.081ZM91,23.861v1.305a.933.933,0,0,1-.781.923L83.2,27.259c0-.013,0-.026-.006-.039L85.179,26a1.6,1.6,0,0,0,1.746-.347l1.249-1.25h0a1.587,1.587,0,0,0,.384-.625h2.358a.081.081,0,0,1,.08.081Zm-2.743-1.629c-.026-.03-.052-.06-.08-.088l-.756-.756v-.946a.081.081,0,0,1,.08-.081h1.789v1.872H88.254Zm1.012-3.42H87.5a1.63,1.63,0,0,0-1.543,1.112l-7.49-7.494a1.6,1.6,0,0,0-.394-.289l.552-6.631A14.7,14.7,0,0,1,89.267,18.812ZM66.85,22.232l-1.5-17.958a.935.935,0,0,1,.932-1.014h.786V9.326a.774.774,0,1,0,1.548,0V2.486a.936.936,0,0,1,.935-.936h3.418a.936.936,0,0,1,.935.936v6.84a.774.774,0,1,0,1.548,0V3.26h.786a.936.936,0,0,1,.932,1.014l-.659,7.914a1.6,1.6,0,0,0-.312.242l-1.249,1.25a1.6,1.6,0,0,0-.343,1.75l-.871,1.451a1.63,1.63,0,0,0-1.622-1.489H70.41a1.631,1.631,0,0,0-1.629,1.629v1.71a1.631,1.631,0,0,0,1.48,1.622,1.6,1.6,0,0,0,.067.373l-1.5,1.506H66.85Zm-4.589,7.84L63.9,29.065l7.626,7.63-.993,1.654Zm7.9,10.168-1.249,1.25a.049.049,0,0,1-.036.015.049.049,0,0,1-.037-.015L59.13,31.776a.052.052,0,0,1,0-.073l1.249-1.25a.049.049,0,0,1,.037-.015.048.048,0,0,1,.036.015c.017.018.034.036.052.052l9.6,9.6a.792.792,0,0,0,.062.064A.051.051,0,0,1,70.161,40.24Zm4.23-5.442-1.249,1.25a.049.049,0,0,1-.037.015.049.049,0,0,1-.036-.015c-.015-.016-.03-.032-.047-.047l-8.434-8.439c-.013-.014-.027-.028-.041-.041l0,0a.052.052,0,0,1,0-.073l1.249-1.25a.052.052,0,0,1,.073,0l.039.039.007.008L74.37,34.7l.008.007.013.013A.052.052,0,0,1,74.391,34.8Zm6.426,2.034L77.2,32.966l1.358-1.359,3.864,3.617Z" transform="translate(-44.824 -0.002)"/>
        <path id="Trazado_1295796" data-name="Trazado 1295796" d="M28.414,435.389a1.626,1.626,0,0,0-1.58-1.234H25.472v-1.82a1.6,1.6,0,0,0-1.6-1.6H5.017a1.6,1.6,0,0,0-1.6,1.6v1.82H2.055a1.627,1.627,0,0,0-1.58,1.234L.048,437.1a1.629,1.629,0,0,0,1.58,2.024H27.261a1.629,1.629,0,0,0,1.58-2.024ZM4.965,432.335a.052.052,0,0,1,.052-.052H23.873a.052.052,0,0,1,.052.052v1.82H4.965Zm22.359,5.209a.075.075,0,0,1-.063.031H1.628a.076.076,0,0,1-.063-.031.077.077,0,0,1-.015-.07l.427-1.71a.08.08,0,0,1,.078-.061H26.834a.08.08,0,0,1,.078.061l.427,1.71A.076.076,0,0,1,27.324,437.544Z" transform="translate(0.001 -386.275)"/>
        <path id="Trazado_1295797" data-name="Trazado 1295797" d="M17.645,399.149h3.418a.774.774,0,1,0,0-1.548H17.645a.774.774,0,1,0,0,1.548Z" transform="translate(-15.129 -356.561)"/>
        <path id="Trazado_1295798" data-name="Trazado 1295798" d="M48.31,283.079l2.96,1.71a.774.774,0,1,0,.775-1.341l-2.96-1.71a.774.774,0,1,0-.775,1.341Z" transform="translate(-42.976 -252.565)"/>
        <path id="Trazado_1295799" data-name="Trazado 1295799" d="M232.876,117.516h3.418a.774.774,0,1,0,0-1.548h-3.418a.774.774,0,0,0,0,1.548Z" transform="translate(-208.145 -103.998)"/>
      </g>
    </g>
  </g>
</svg>
