<svg xmlns="http://www.w3.org/2000/svg" xmlns:xlink="http://www.w3.org/1999/xlink" width="108" height="108" viewBox="0 0 108 108">
  <defs>
    <filter id="Trazado_904820" x="0" y="0" width="108" height="108" filterUnits="userSpaceOnUse">
      <feOffset dy="3" input="SourceAlpha"/>
      <feGaussianBlur stdDeviation="3" result="blur"/>
      <feFlood flood-opacity="0.161"/>
      <feComposite operator="in" in2="blur"/>
      <feComposite in="SourceGraphic"/>
    </filter>
  </defs>
  <g id="Grupo_1241345" data-name="Grupo 1241345" transform="translate(-200 -673)">
    <g id="Grupo_1235145" data-name="Grupo 1235145" transform="translate(209 679)">
      <g id="Grupo_1233960" data-name="Grupo 1233960" transform="translate(0 0)">
        <g id="Grupo_1233818" data-name="Grupo 1233818" transform="translate(0 0)">
          <g id="Grupo_1174993" data-name="Grupo 1174993">
            <g id="Grupo_1173585" data-name="Grupo 1173585">
              <g id="Grupo_1173428" data-name="Grupo 1173428">
                <g id="Grupo_1171958" data-name="Grupo 1171958">
                  <g id="Grupo_1167341" data-name="Grupo 1167341">
                    <g id="Grupo_1166792" data-name="Grupo 1166792">
                      <g transform="matrix(1, 0, 0, 1, -9, -6)" filter="url(#Trazado_904820)">
                        <g id="Trazado_904820-2" data-name="Trazado 904820" transform="translate(9 6)" fill="#eaf5f4">
                          <path d="M 44.99999618530273 88.5 C 39.12687301635742 88.5 33.43022155761719 87.35008239746094 28.06829643249512 85.08216857910156 C 22.88852119445801 82.89131927490234 18.23629570007324 79.75459289550781 14.24084663391113 75.75914001464844 C 10.24540901184082 71.76369476318359 7.108683586120605 67.11146545410156 4.917821407318115 61.93170547485352 C 2.649921178817749 56.56976699829102 1.499996185302734 50.87312698364258 1.499996185302734 45.00000381469727 C 1.499996185302734 39.12688064575195 2.649921178817749 33.43022918701172 4.917821407318115 28.06830406188965 C 7.108683586120605 22.88852882385254 10.24540901184082 18.23630332946777 14.24084663391113 14.24085426330566 C 18.23629570007324 10.24541664123535 22.88852119445801 7.108691215515137 28.06829643249512 4.917829036712646 C 33.43022155761719 2.64992880821228 39.12687301635742 1.500003814697266 44.99999618530273 1.500003814697266 C 50.87311935424805 1.500003814697266 56.56977081298828 2.64992880821228 61.93169784545898 4.917829036712646 C 67.11147308349609 7.108691215515137 71.76369476318359 10.24541664123535 75.75914764404297 14.24085426330566 C 79.75458526611328 18.23630332946777 82.89131164550781 22.88852882385254 85.08216857910156 28.06830406188965 C 87.35007476806641 33.43022918701172 88.5 39.12688064575195 88.5 45.00000381469727 C 88.5 50.87312698364258 87.35007476806641 56.56976699829102 85.08216857910156 61.93170547485352 C 82.89131164550781 67.11146545410156 79.75458526611328 71.76369476318359 75.75914764404297 75.75914001464844 C 71.76369476318359 79.75459289550781 67.11147308349609 82.89131927490234 61.93169784545898 85.08216857910156 C 56.56977081298828 87.35008239746094 50.87311935424805 88.5 44.99999618530273 88.5 Z" stroke="none"/>
                          <path d="M 44.99999618530273 3.000007629394531 C 39.32870864868164 3.000007629394531 33.82865142822266 4.110061645507812 28.65262603759766 6.299346923828125 C 23.65165710449219 8.414573669433594 19.15968322753906 11.44334411621094 15.301513671875 15.30152130126953 C 11.44333648681641 19.15969085693359 8.414566040039062 23.65166473388672 6.299339294433594 28.65263366699219 C 4.110054016113281 33.82865905761719 2.999992370605469 39.32871627807617 2.999992370605469 45.00000381469727 C 2.999992370605469 50.67129135131836 4.110054016113281 56.17133331298828 6.299339294433594 61.34737396240234 C 8.414566040039062 66.34834289550781 11.44333648681641 70.84030151367188 15.301513671875 74.698486328125 C 19.15968322753906 78.55666351318359 23.65165710449219 81.58543395996094 28.65262603759766 83.70066070556641 C 33.82865142822266 85.88994598388672 39.32870864868164 87 44.99999618530273 87 C 50.67128372192383 87 56.17134094238281 85.88994598388672 61.34736633300781 83.70066070556641 C 66.34834289550781 81.58543395996094 70.84030914306641 78.55666351318359 74.69847869873047 74.698486328125 C 78.55665588378906 70.84030151367188 81.58542633056641 66.34834289550781 83.70065307617188 61.34737396240234 C 85.88993835449219 56.17133331298828 87 50.67129135131836 87 45.00000381469727 C 87 39.32871627807617 85.88993835449219 33.82865905761719 83.70065307617188 28.65263366699219 C 81.58542633056641 23.65166473388672 78.55665588378906 19.15969085693359 74.69847869873047 15.30152130126953 C 70.84030914306641 11.44334411621094 66.34834289550781 8.414573669433594 61.34736633300781 6.299346923828125 C 56.17134094238281 4.110061645507812 50.67128372192383 3.000007629394531 44.99999618530273 3.000007629394531 M 44.99999618530273 7.62939453125e-06 C 69.85281372070312 7.62939453125e-06 90 20.14718627929688 90 45.00000381469727 C 90 69.85280609130859 69.85281372070312 90 44.99999618530273 90 C 20.14717864990234 90 -7.62939453125e-06 69.85280609130859 -7.62939453125e-06 45.00000381469727 C -7.62939453125e-06 20.14718627929688 20.14717864990234 7.62939453125e-06 44.99999618530273 7.62939453125e-06 Z" stroke="none" fill="#41a599"/>
                        </g>
                      </g>
                    </g>
                  </g>
                </g>
              </g>
            </g>
          </g>
        </g>
      </g>
    </g>
    <g id="Artboard501" transform="translate(218.723 680.094)">
      <g id="Grupo_1241344" data-name="Grupo 1241344" transform="translate(6.983 16.723)">
        <g id="Grupo_1241343" data-name="Grupo 1241343" transform="translate(0.856 1.443)">
          <g id="Grupo_1241340" data-name="Grupo 1241340" transform="translate(0 10.83)">
            <path id="Trazado_1295189" data-name="Trazado 1295189" d="M318.352,162.259l-.016-10.276c0-1.929.252-3.741,1.684-5.032a62.53,62.53,0,0,0,6.734-6.261,2.47,2.47,0,0,1,3.417,0,2.391,2.391,0,0,1,0,3.417l.76-.936a5.542,5.542,0,0,0,1.331-3.632l-.038-9.893c-.029-7.69,5.615-5.558,5.688-2.965l.516,18.211a5.689,5.689,0,0,1-1.741,4.314l-8.237,8.237v4.812a1.683,1.683,0,0,1-1.68,1.68h-6.74a1.683,1.683,0,0,1-1.68-1.677Z" transform="translate(-283.673 -124.302)" fill="#f6dccd" fill-rule="evenodd"/>
            <path id="Trazado_1295190" data-name="Trazado 1295190" d="M378.768,271.835a2.439,2.439,0,0,1-.359,2.975c-1.344,1.353-2.7,2.7-4.045,4.045a.925.925,0,0,1-1.308-1.308Z" transform="translate(-331.909 -255.004)" fill="#f1cbbc" fill-rule="evenodd"/>
            <path id="Trazado_1295191" data-name="Trazado 1295191" d="M318.352,315.605l-.016-10.276c0-1.929.252-3.741,1.684-5.032.854-.77,2.082-1.752,3.382-2.9v19.888h-3.371A1.683,1.683,0,0,1,318.352,315.605Z" transform="translate(-283.673 -277.647)" fill="#f1cbbc" fill-rule="evenodd"/>
            <path id="Trazado_1295192" data-name="Trazado 1295192" d="M293.5,437.957l14.316.123a1.262,1.262,0,0,1,1.248,1.269l-.024,2.756a1.262,1.262,0,0,1-1.269,1.248l-14.316-.123a1.262,1.262,0,0,1-1.248-1.269l.024-2.756A1.263,1.263,0,0,1,293.5,437.957Z" transform="translate(-260.528 -402.174)" fill="#d1d1d6" fill-rule="evenodd"/>
            <path id="Trazado_1295193" data-name="Trazado 1295193" d="M303.2,439.026l2.534.022,2.506.022a1.262,1.262,0,0,1,1.248,1.265l.008-.985a1.262,1.262,0,0,0-1.248-1.269l-2.514-.022-5.048-.043-5.054-.043-1.7-.015a1.263,1.263,0,0,0-1.238.978l2.943.025,5.048.043,2.514.022Z" transform="translate(-260.959 -402.175)" fill="#b1b1b5" fill-rule="evenodd"/>
            <path id="Trazado_1295194" data-name="Trazado 1295194" d="M34.566,162.259l.016-10.276c0-1.929-.252-3.741-1.684-5.032a62.533,62.533,0,0,1-6.734-6.261,2.47,2.47,0,0,0-3.417,0,2.391,2.391,0,0,0,0,3.417l-.76-.936a5.543,5.543,0,0,1-1.331-3.632l.038-9.893c.029-7.69-5.615-5.558-5.689-2.965l-.516,18.211a5.688,5.688,0,0,0,1.741,4.314l8.237,8.237v4.812a1.683,1.683,0,0,0,1.68,1.68h6.739a1.683,1.683,0,0,0,1.68-1.677Z" transform="translate(-14.486 -124.302)" fill="#f6dccd" fill-rule="evenodd"/>
            <path id="Trazado_1295195" data-name="Trazado 1295195" d="M80.972,271.835a2.44,2.44,0,0,0,.36,2.975c1.344,1.353,2.7,2.7,4.045,4.045a.925.925,0,0,0,1.308-1.308Z" transform="translate(-73.072 -255.004)" fill="#f1cbbc" fill-rule="evenodd"/>
            <path id="Trazado_1295196" data-name="Trazado 1295196" d="M151.277,315.605l.016-10.276c0-1.929-.252-3.741-1.684-5.032-.854-.77-2.082-1.752-3.382-2.9v19.888H149.6A1.683,1.683,0,0,0,151.277,315.605Z" transform="translate(-131.197 -277.647)" fill="#f1cbbc" fill-rule="evenodd"/>
            <path id="Trazado_1295197" data-name="Trazado 1295197" d="M84.562,437.957l-14.316.123A1.262,1.262,0,0,0,69,439.349l.024,2.756a1.262,1.262,0,0,0,1.269,1.248l14.316-.123a1.262,1.262,0,0,0,1.248-1.269l-.024-2.756A1.263,1.263,0,0,0,84.562,437.957Z" transform="translate(-62.779 -402.174)" fill="#d1d1d6" fill-rule="evenodd"/>
            <path id="Trazado_1295198" data-name="Trazado 1295198" d="M75.294,439.026l-2.534.022-2.506.022a1.262,1.262,0,0,0-1.248,1.265L69,439.35a1.262,1.262,0,0,1,1.248-1.269l2.514-.022,5.048-.043,5.054-.043,1.7-.015a1.264,1.264,0,0,1,1.238.978l-2.943.025L77.808,439l-2.514.022Z" transform="translate(-62.779 -402.175)" fill="#b1b1b5" fill-rule="evenodd"/>
          </g>
          <g id="Grupo_1241341" data-name="Grupo 1241341" transform="translate(13.279)">
            <path id="Trazado_1295199" data-name="Trazado 1295199" d="M145.672,29.517,158.3,34.93a1.276,1.276,0,0,1,.788,1.2V46.67c0,8.367-5.992,14.829-14.1,16.243-8.108-1.414-14.1-7.875-14.1-16.243V36.126a1.276,1.276,0,0,1,.788-1.2l12.63-5.413a1.679,1.679,0,0,1,1.365,0Z" transform="translate(-130.89 -29.372)" fill="#6cf5c2" fill-rule="evenodd"/>
            <path id="Trazado_1295200" data-name="Trazado 1295200" d="M361.146,73.778l1.145.492a1.276,1.276,0,0,1,.788,1.2V86.009a16.18,16.18,0,0,1-1.932,7.763Z" transform="translate(-334.878 -68.712)" fill="#00e499" fill-rule="evenodd"/>
          </g>
          <g id="Grupo_1241342" data-name="Grupo 1241342" transform="translate(19.283 8.612)">
            <path id="Trazado_1295201" data-name="Trazado 1295201" d="M189.093,110.44v-5a.57.57,0,0,1,.57-.57h4.026a.57.57,0,0,1,.57.57v5h5a.57.57,0,0,1,.57.57v4.026a.57.57,0,0,1-.57.57h-5v5a.57.57,0,0,1-.57.57h-4.026a.57.57,0,0,1-.57-.57v-5h-5a.57.57,0,0,1-.57-.57v-4.026a.57.57,0,0,1,.57-.57Z" transform="translate(-183.519 -104.866)" fill="#fe646f" fill-rule="evenodd"/>
            <path id="Trazado_1295202" data-name="Trazado 1295202" d="M185.23,115.607h-1.141a.57.57,0,0,1-.57-.57v-4.026a.57.57,0,0,1,.57-.57h1.141a.57.57,0,0,0-.57.57v4.026a.57.57,0,0,0,.57.57Zm3.863-5.166v-5a.57.57,0,0,1,.57-.57H190.8a.57.57,0,0,0-.57.57v5Zm1.711,10.741h-1.141a.57.57,0,0,1-.57-.57v-5h1.141v5a.57.57,0,0,0,.57.57Z" transform="translate(-183.519 -104.866)" fill="#fd4755" fill-rule="evenodd"/>
          </g>
        </g>
        <path id="Trazado_1295203" data-name="Trazado 1295203" d="M53.6,63.984,54.917,64h.01a2.183,2.183,0,0,1,2.148,2.193V66.2s-.027,2.745-.027,2.744a2.171,2.171,0,0,1-2.191,2.148l-14.274-.121a2.177,2.177,0,0,1-2.163-2.179s0-.006,0-.009.027-2.745.027-2.744a2.192,2.192,0,0,1,2.179-2.161h.008l1.058.009L41.681,56.7h0c0-2.181.359-4.231,1.986-5.69a62.544,62.544,0,0,0,6.639-6.164.908.908,0,0,1,.084-.087,3.364,3.364,0,0,1,4.664.029,3.841,3.841,0,0,1,.428.5,4.672,4.672,0,0,0,.1-1l-.04-9.874h0c-.013-3.607,1.205-5.3,2.476-5.929a3.446,3.446,0,0,1,3.327.231,3.408,3.408,0,0,1,1.7,2.7L63.569,49.6s0,0,0,0a6.645,6.645,0,0,1-2,4.975l0,0L53.6,62.537ZM43.517,63.9l8.256.07V62.159a.913.913,0,0,1,.268-.646l8.23-8.217a4.875,4.875,0,0,0,1.473-3.645l-.525-18.174v0a1.56,1.56,0,0,0-.825-1.2c-1.3-.8-3.037-.033-3.023,4.135l.041,9.876v0a6.431,6.431,0,0,1-1.538,4.2l0,0-.674.822-.021.025h0c-1.306,1.483-2.706,2.736-4.162,4.191a.913.913,0,0,1-1.291-1.291c1.419-1.419,2.786-2.639,4.06-4.081a1.484,1.484,0,0,0-.013-2.074l0,0a1.545,1.545,0,0,0-2.111,0,65.328,65.328,0,0,1-6.763,6.287l0,0c-1.228,1.1-1.381,2.687-1.381,4.332Zm-2.893,1.8h0a.35.35,0,0,0-.347.34s0,.006,0,.009-.027,2.743-.027,2.747a.348.348,0,0,0,.34.347h.008l14.283.121h.01a.331.331,0,0,0,.336-.327v-.009s.027-2.743.027-2.747a.365.365,0,0,0-.355-.36Zm2.387,1.4a1.037,1.037,0,1,1-1.927.768,1.037,1.037,0,1,1,1.927-.768Zm-26.069-3.12V62.537L8.991,54.585a6.593,6.593,0,0,1-2.005-4.979v0L7.5,31.426v0a3.424,3.424,0,0,1,1.7-2.7,3.453,3.453,0,0,1,3.329-.231c1.271.624,2.49,2.321,2.477,5.929h0l-.04,9.877V44.3a4.462,4.462,0,0,0,.1,1,3.822,3.822,0,0,1,.43-.5,3.367,3.367,0,0,1,4.667-.033.923.923,0,0,1,.086.089,60.042,60.042,0,0,0,6.635,6.16c1.629,1.46,1.988,3.511,1.988,5.692h0l-.011,7.179,1.058-.009h.008a2.2,2.2,0,0,1,2.179,2.148s0,.006,0,.009l.027,2.749v.009a2.192,2.192,0,0,1-2.161,2.179L15.7,71.089a2.177,2.177,0,0,1-2.2-2.134s0-.009,0-.013S13.48,66.2,13.48,66.2A2.177,2.177,0,0,1,15.614,64h.01ZM27.037,63.9l.011-7.2c0-1.645-.153-3.232-1.381-4.332h0a62.767,62.767,0,0,1-6.767-6.29,1.541,1.541,0,0,0-2.105,0l-.009.009a1.484,1.484,0,0,0-.013,2.074c1.275,1.444,2.643,2.665,4.05,4.084a.913.913,0,0,1-1.3,1.285c-1.441-1.455-2.84-2.707-4.146-4.188h0l-.015-.018-.687-.822-.013-.015a6.419,6.419,0,0,1-1.52-4.2l.04-9.874c.008-2.266-.457-3.554-1.213-4.132a1.578,1.578,0,0,0-1.815,0,1.575,1.575,0,0,0-.833,1.2L8.81,49.651a4.827,4.827,0,0,0,1.471,3.643L18.5,61.514a.913.913,0,0,1,.267.645v1.809Zm2.893,1.8-14.288.121a.348.348,0,0,0-.338.35s0,.009,0,.013.013,2.74.014,2.743a.348.348,0,0,0,.35.338h.01l14.283-.121h.008a.35.35,0,0,0,.34-.351s-.027-2.736-.027-2.741a.362.362,0,0,0-.352-.351Zm-.46,1.4a1.037,1.037,0,1,1-1.347-.579A1.027,1.027,0,0,1,29.47,67.1Zm6.167-49.775,14.038,6.018a.912.912,0,0,1,.553.839V35.538a17.3,17.3,0,0,1-14.282,16.98l-.512.089a.909.909,0,0,1-.314,0l-.511-.089a17.3,17.3,0,0,1-14.283-16.98V24.186a.912.912,0,0,1,.553-.839l14.038-6.018A.912.912,0,0,1,35.637,17.329Zm-.36,1.832L22.151,24.788v10.75A15.472,15.472,0,0,0,34.922,50.72l.355.062.355-.062A15.472,15.472,0,0,0,48.4,35.538V24.788Zm-3.5,12.281V26.781a.913.913,0,0,1,.913-.913h5.167a.913.913,0,0,1,.913.913v4.662h4.662a.913.913,0,0,1,.913.913v5.167a.913.913,0,0,1-.913.913H38.773V43.1a.913.913,0,0,1-.913.913H32.694a.913.913,0,0,1-.913-.913V38.434H27.12a.913.913,0,0,1-.913-.913V32.355a.913.913,0,0,1,.913-.913Zm.913,1.825H28.032v3.341h4.662a.913.913,0,0,1,.913.913v4.662h3.341V37.522a.913.913,0,0,1,.913-.913h4.662V33.268H37.861a.913.913,0,0,1-.913-.913V27.693H33.607v4.662a.913.913,0,0,1-.913.913ZM16.342,19.947a.913.913,0,1,1-1.825,0V17.636a.913.913,0,0,1,1.825,0ZM13.461,21a.913.913,0,0,1,0,1.825H11.149a.913.913,0,0,1,0-1.825Zm1.056,2.881a.913.913,0,0,1,1.825,0V26.2a.913.913,0,1,1-1.825,0ZM17.4,22.828A.913.913,0,0,1,17.4,21h2.312a.913.913,0,0,1,0,1.825Zm38.851-2.881a.913.913,0,1,1-1.825,0V17.636a.913.913,0,0,1,1.825,0ZM53.367,21a.913.913,0,0,1,0,1.825H51.055a.913.913,0,0,1,0-1.825Zm1.056,2.881a.913.913,0,1,1,1.825,0V26.2a.913.913,0,1,1-1.825,0ZM57.3,22.828A.913.913,0,0,1,57.3,21h2.312a.913.913,0,0,1,0,1.825Z" transform="translate(-6.983 -16.723)" fill-rule="evenodd"/>
      </g>
    </g>
  </g>
</svg>
