<svg xmlns="http://www.w3.org/2000/svg" xmlns:xlink="http://www.w3.org/1999/xlink" width="113" height="113" viewBox="0 0 113 113">
  <defs>
    <filter id="Trazado_982547" x="0" y="0" width="113" height="113" filterUnits="userSpaceOnUse">
      <feOffset dy="3" input="SourceAlpha"/>
      <feGaussianBlur stdDeviation="3" result="blur"/>
      <feFlood flood-opacity="0.161"/>
      <feComposite operator="in" in2="blur"/>
      <feComposite in="SourceGraphic"/>
    </filter>
  </defs>
  <g id="Grupo_1241346" data-name="Grupo 1241346" transform="translate(-355 -1572.168)">
    <g id="Grupo_1241013" data-name="Grupo 1241013" transform="translate(-0.344 -11111)">
      <g id="Grupo_1240425" data-name="Grupo 1240425" transform="translate(364.344 12689.168)">
        <g id="Grupo_1239772" data-name="Grupo 1239772" transform="translate(0 0)">
          <g id="Grupo_1236602" data-name="Grupo 1236602">
            <g id="Grupo_1236144" data-name="Grupo 1236144">
              <g id="Grupo_1235105" data-name="Grupo 1235105">
                <g id="Grupo_1223793" data-name="Grupo 1223793">
                  <g id="Grupo_1208028" data-name="Grupo 1208028">
                    <g id="Grupo_1177675" data-name="Grupo 1177675">
                      <g id="Grupo_1176928" data-name="Grupo 1176928" transform="translate(0)">
                        <g id="Grupo_1172322" data-name="Grupo 1172322">
                          <g id="Grupo_1164700" data-name="Grupo 1164700">
                            <g id="Grupo_1160931" data-name="Grupo 1160931">
                              <g id="Grupo_1160749" data-name="Grupo 1160749">
                                <g id="Grupo_1158891" data-name="Grupo 1158891">
                                  <g id="Grupo_1157406" data-name="Grupo 1157406">
                                    <g id="Grupo_1155793" data-name="Grupo 1155793">
                                      <g id="Grupo_1154704" data-name="Grupo 1154704">
                                        <g id="Grupo_1150790" data-name="Grupo 1150790">
                                          <g id="Grupo_1154214" data-name="Grupo 1154214" transform="translate(0)">
                                            <g id="Grupo_1152583" data-name="Grupo 1152583">
                                              <g id="Grupo_1146973" data-name="Grupo 1146973">
                                                <g id="Grupo_1146954" data-name="Grupo 1146954">
                                                  <g transform="matrix(1, 0, 0, 1, -9, -6)" filter="url(#Trazado_982547)">
                                                    <g id="Trazado_982547-2" data-name="Trazado 982547" transform="translate(9 6)" fill="#c4e3df">
                                                      <path d="M 47.50000762939453 93.49986267089844 C 41.28937911987305 93.49986267089844 35.26534271240234 92.28383636474609 29.59519386291504 89.88558197021484 C 24.11772727966309 87.56880950927734 19.19814109802246 84.25183868408203 14.97310066223145 80.02679443359375 C 10.74804782867432 75.8017578125 7.431074142456055 70.88218688964844 5.114300727844238 65.40471649169922 C 2.716034412384033 59.73458480834961 1.500007629394531 53.71054458618164 1.500007629394531 47.49993133544922 C 1.500007629394531 41.2893180847168 2.716034412384033 35.26527786254883 5.114300727844238 29.59514427185059 C 7.431074142456055 24.11767768859863 10.74804782867432 19.19810485839844 14.97310066223145 14.97306442260742 C 19.19814109802246 10.74802494049072 24.11772727966309 7.431051254272461 29.59519386291504 5.114277839660645 C 35.26534271240234 2.71602463722229 41.28937911987305 1.499997973442078 47.50000762939453 1.499997973442078 C 53.71063613891602 1.499997973442078 59.73467254638672 2.71602463722229 65.40482330322266 5.114277839660645 C 70.88228607177734 7.431051254272461 75.80187225341797 10.74802494049072 80.02691650390625 14.97306442260742 C 84.25196838378906 19.19810485839844 87.56893920898438 24.11767768859863 89.88571166992188 29.59514427185059 C 92.28398132324219 35.26527786254883 93.50000762939453 41.2893180847168 93.50000762939453 47.49993133544922 C 93.50000762939453 53.71054458618164 92.28398132324219 59.73458480834961 89.88571166992188 65.40471649169922 C 87.56893920898438 70.88218688964844 84.25196838378906 75.8017578125 80.02691650390625 80.02679443359375 C 75.80187225341797 84.25183868408203 70.88228607177734 87.56880950927734 65.40482330322266 89.88558197021484 C 59.73467254638672 92.28383636474609 53.71063613891602 93.49986267089844 47.50000762939453 93.49986267089844 Z" stroke="none"/>
                                                      <path d="M 47.50000762939453 2.999992370605469 C 41.4912223815918 2.999992370605469 35.66377639770508 4.1761474609375 30.17951202392578 6.495796203613281 C 24.88085174560547 8.736930847167969 20.12152862548828 11.94596099853516 16.03376007080078 16.03372955322266 C 11.94597625732422 20.12148284912109 8.736961364746094 24.88080596923828 6.495803833007812 30.17946624755859 C 4.176162719726562 35.66371536254883 3.000007629394531 41.49116134643555 3.000007629394531 47.49993133544922 C 3.000007629394531 53.50870132446289 4.176162719726562 59.33614730834961 6.495803833007812 64.82038879394531 C 8.736961364746094 70.11905670166016 11.94597625732422 74.87836456298828 16.03376007080078 78.96613311767578 C 20.12152862548828 83.05390167236328 24.88085174560547 86.26291656494141 30.17951202392578 88.50406646728516 C 35.66377639770508 90.82369995117188 41.4912223815918 91.99985504150391 47.50000762939453 91.99985504150391 C 53.50879287719727 91.99985504150391 59.33623886108398 90.82369995117188 64.82049560546875 88.50406646728516 C 70.11916351318359 86.26291656494141 74.87848663330078 83.05390167236328 78.96625518798828 78.96613311767578 C 83.05403900146484 74.87836456298828 86.26305389404297 70.11905670166016 88.50421142578125 64.82038879394531 C 90.8238525390625 59.33614730834961 92.00000762939453 53.50870132446289 92.00000762939453 47.49993133544922 C 92.00000762939453 41.49116134643555 90.8238525390625 35.66371536254883 88.50421142578125 30.17946624755859 C 86.26305389404297 24.88080596923828 83.05403900146484 20.12148284912109 78.96625518798828 16.03372955322266 C 74.87848663330078 11.94596099853516 70.11916351318359 8.736930847167969 64.82049560546875 6.495796203613281 C 59.33623886108398 4.1761474609375 53.50879287719727 2.999992370605469 47.50000762939453 2.999992370605469 M 47.50000762939453 -7.62939453125e-06 C 73.73352813720703 -7.62939453125e-06 95.00000762939453 21.26644134521484 95.00000762939453 47.49993133544922 C 95.00000762939453 73.73342132568359 73.73352813720703 94.99985504150391 47.50000762939453 94.99985504150391 C 21.26648712158203 94.99985504150391 7.62939453125e-06 73.73342132568359 7.62939453125e-06 47.49993133544922 C 7.62939453125e-06 21.26644134521484 21.26648712158203 -7.62939453125e-06 47.50000762939453 -7.62939453125e-06 Z" stroke="none" fill="#41a599"/>
                                                    </g>
                                                  </g>
                                                </g>
                                              </g>
                                            </g>
                                          </g>
                                        </g>
                                      </g>
                                    </g>
                                  </g>
                                </g>
                              </g>
                            </g>
                          </g>
                        </g>
                      </g>
                    </g>
                  </g>
                </g>
              </g>
            </g>
          </g>
        </g>
      </g>
    </g>
    <g id="historial-medico" transform="translate(384.368 1596.598)">
      <path id="Trazado_1295204" data-name="Trazado 1295204" d="M9.938,72H58.387a1.938,1.938,0,0,1,1.938,1.938v29.07H8V73.938A1.938,1.938,0,0,1,9.938,72Zm0,0" transform="translate(-7.031 -63.279)" fill="#75c1ff"/>
      <path id="Trazado_1295205" data-name="Trazado 1295205" d="M8,328H60.325v7.752a1.938,1.938,0,0,1-1.938,1.938H9.938A1.938,1.938,0,0,1,8,335.752Zm0,0" transform="translate(-7.031 -288.272)" fill="#efefef"/>
      <path id="Trazado_1295206" data-name="Trazado 1295206" d="M176,408h11.628v7.752H176Zm0,0" transform="translate(-154.682 -358.582)" fill="#bcbcbc"/>
      <path id="Trazado_1295207" data-name="Trazado 1295207" d="M57.938,8H81.194a1.938,1.938,0,0,1,1.938,1.938V40.946a1.938,1.938,0,0,1-1.938,1.938H57.938A1.938,1.938,0,0,1,56,40.946V9.938A1.938,1.938,0,0,1,57.938,8Zm0,0" transform="translate(-49.217 -7.031)" fill="#efefef"/>
      <path id="Trazado_1295208" data-name="Trazado 1295208" d="M280,32h11.628a1.938,1.938,0,0,1,1.938,1.938V55.256a1.938,1.938,0,0,1-1.938,1.938H280Zm0,0" transform="translate(-246.085 -28.124)" fill="#d6d6d6"/>
      <path id="Trazado_1295209" data-name="Trazado 1295209" d="M112,51.876h3.876V48h5.814v3.876h3.876V57.69H121.69v3.876h-5.814V57.69H112Zm0,0" transform="translate(-98.434 -42.186)" fill="#e65d52"/>
      <path id="Trazado_1295210" data-name="Trazado 1295210" d="M216.969,192h1.938a.969.969,0,0,1,.969.969v1.938a.969.969,0,0,1-.969.969h-1.938a.969.969,0,0,1-.969-.969v-1.938A.969.969,0,0,1,216.969,192Zm0,0" transform="translate(-189.837 -168.744)" fill="#ffd04a"/>
      <path id="Trazado_1295211" data-name="Trazado 1295211" d="M313.938,64h1.938a1.938,1.938,0,0,1,1.938,1.938v1.938a1.938,1.938,0,0,1-1.938,1.938h-1.938A1.938,1.938,0,0,1,312,67.876V65.938A1.938,1.938,0,0,1,313.938,64Zm0,0" transform="translate(-274.21 -56.248)" fill="#73c97c"/>
      <path id="Trazado_1295212" data-name="Trazado 1295212" d="M51.356,64h-.969v1.938h.969a.97.97,0,0,1,.969.969v28.1H1.938v-28.1a.97.97,0,0,1,.969-.969h.969V64H2.907A2.91,2.91,0,0,0,0,66.907v36.861a2.91,2.91,0,0,0,2.907,2.907H51.356a2.91,2.91,0,0,0,2.907-2.907V66.907A2.91,2.91,0,0,0,51.356,64Zm0,40.737H2.907a.97.97,0,0,1-.969-.969V96.945H52.325v6.822A.97.97,0,0,1,51.356,104.737Zm0,0" transform="translate(0 -56.248)"/>
      <path id="Trazado_1295213" data-name="Trazado 1295213" d="M160.473,432h-1.938v3.876h-9.69V432h-1.938v3.876H144v1.938h19.38v-1.938h-2.907Zm0,0" transform="translate(-126.558 -379.675)"/>
      <path id="Trazado_1295214" data-name="Trazado 1295214" d="M211.876,353.938A1.938,1.938,0,1,1,209.938,352,1.938,1.938,0,0,1,211.876,353.938Zm0,0" transform="translate(-182.806 -309.365)"/>
      <path id="Trazado_1295215" data-name="Trazado 1295215" d="M50.907,36.821H74.163a2.91,2.91,0,0,0,2.907-2.907V2.907A2.91,2.91,0,0,0,74.163,0H50.907A2.91,2.91,0,0,0,48,2.907V33.915A2.91,2.91,0,0,0,50.907,36.821ZM49.938,2.907a.97.97,0,0,1,.969-.969H74.163a.97.97,0,0,1,.969.969V33.915a.97.97,0,0,1-.969.969H50.907a.97.97,0,0,1-.969-.969Zm0,0" transform="translate(-42.186)"/>
      <path id="Trazado_1295216" data-name="Trazado 1295216" d="M315.628,48.225V26.907A2.91,2.91,0,0,0,312.721,24H304v1.938h8.721a.97.97,0,0,1,.969.969V48.225a.97.97,0,0,1-.969.969H304v1.938h8.721A2.91,2.91,0,0,0,315.628,48.225Zm0,0" transform="translate(-267.179 -21.093)"/>
      <path id="Trazado_1295217" data-name="Trazado 1295217" d="M208,185.938v1.938a1.94,1.94,0,0,0,1.938,1.938h1.938a1.94,1.94,0,0,0,1.938-1.938v-1.938A1.94,1.94,0,0,0,211.876,184h-1.938A1.94,1.94,0,0,0,208,185.938Zm3.877,1.938h-1.939v-1.938h1.938Zm0,0" transform="translate(-182.806 -161.713)"/>
      <path id="Trazado_1295218" data-name="Trazado 1295218" d="M80,184h1.938v1.938H80Zm0,0" transform="translate(-70.31 -161.713)"/>
      <path id="Trazado_1295219" data-name="Trazado 1295219" d="M112,184h5.814v1.938H112Zm0,0" transform="translate(-98.434 -161.713)"/>
      <path id="Trazado_1295220" data-name="Trazado 1295220" d="M176,184h1.938v1.938H176Zm0,0" transform="translate(-154.682 -161.713)"/>
      <path id="Trazado_1295221" data-name="Trazado 1295221" d="M80,216h1.938v1.938H80Zm0,0" transform="translate(-70.31 -189.837)"/>
      <path id="Trazado_1295222" data-name="Trazado 1295222" d="M112,216h5.814v1.938H112Zm0,0" transform="translate(-98.434 -189.837)"/>
      <path id="Trazado_1295223" data-name="Trazado 1295223" d="M176,216h1.938v1.938H176Zm0,0" transform="translate(-154.682 -189.837)"/>
      <path id="Trazado_1295224" data-name="Trazado 1295224" d="M80,248h1.938v1.938H80Zm0,0" transform="translate(-70.31 -217.961)"/>
      <path id="Trazado_1295225" data-name="Trazado 1295225" d="M112,248h13.566v1.938H112Zm0,0" transform="translate(-98.434 -217.961)"/>
      <path id="Trazado_1295226" data-name="Trazado 1295226" d="M240,248h1.938v1.938H240Zm0,0" transform="translate(-210.93 -217.961)"/>
      <path id="Trazado_1295227" data-name="Trazado 1295227" d="M107.876,55.5h7.752V51.628H119.5V43.876h-3.876V40h-7.752v3.876H104v7.752h3.876Zm-1.938-5.814V45.814h3.876V41.938h3.876v3.876h3.876V49.69H113.69v3.876h-3.876V49.69Zm0,0" transform="translate(-91.403 -35.155)"/>
      <path id="Trazado_1295228" data-name="Trazado 1295228" d="M306.907,63.752h1.938a2.91,2.91,0,0,0,2.907-2.907V58.907A2.91,2.91,0,0,0,308.845,56h-1.938A2.91,2.91,0,0,0,304,58.907v1.938A2.91,2.91,0,0,0,306.907,63.752Zm-.969-4.845a.97.97,0,0,1,.969-.969h1.938a.97.97,0,0,1,.969.969v1.938a.97.97,0,0,1-.969.969h-1.938a.97.97,0,0,1-.969-.969Zm0,0" transform="translate(-267.179 -49.217)"/>
      <path id="Trazado_1295229" data-name="Trazado 1295229" d="M304,136h1.938v1.938H304Zm0,0" transform="translate(-267.179 -119.527)"/>
      <path id="Trazado_1295230" data-name="Trazado 1295230" d="M336,136h3.876v1.938H336Zm0,0" transform="translate(-295.303 -119.527)"/>
      <path id="Trazado_1295231" data-name="Trazado 1295231" d="M304,168h1.938v1.938H304Zm0,0" transform="translate(-267.179 -147.651)"/>
      <path id="Trazado_1295232" data-name="Trazado 1295232" d="M336,168h3.876v1.938H336Zm0,0" transform="translate(-295.303 -147.651)"/>
      <path id="Trazado_1295233" data-name="Trazado 1295233" d="M304,200h1.938v1.938H304Zm0,0" transform="translate(-267.179 -175.775)"/>
      <path id="Trazado_1295234" data-name="Trazado 1295234" d="M336,200h3.876v1.938H336Zm0,0" transform="translate(-295.303 -175.775)"/>
    </g>
  </g>
</svg>
