<svg xmlns="http://www.w3.org/2000/svg" xmlns:xlink="http://www.w3.org/1999/xlink" width="113" height="113" viewBox="0 0 113 113">
  <defs>
    <filter id="Trazado_982547" x="0" y="0" width="113" height="113" filterUnits="userSpaceOnUse">
      <feOffset dy="3" input="SourceAlpha"/>
      <feGaussianBlur stdDeviation="3" result="blur"/>
      <feFlood flood-opacity="0.161"/>
      <feComposite operator="in" in2="blur"/>
      <feComposite in="SourceGraphic"/>
    </filter>
  </defs>
  <g id="Grupo_1241368" data-name="Grupo 1241368" transform="translate(746 -1553.167)">
    <g id="Grupo_1241034" data-name="Grupo 1241034" transform="translate(-1416.49 -11130)">
      <g id="Grupo_1240427" data-name="Grupo 1240427" transform="translate(679.49 12689.167)">
        <g id="Grupo_1239780" data-name="Grupo 1239780" transform="translate(0 0)">
          <g id="Grupo_1236603" data-name="Grupo 1236603">
            <g id="Grupo_1236145" data-name="Grupo 1236145">
              <g id="Grupo_1235107" data-name="Grupo 1235107">
                <g id="Grupo_1223796" data-name="Grupo 1223796">
                  <g id="Grupo_1208038" data-name="Grupo 1208038">
                    <g id="Grupo_1202104" data-name="Grupo 1202104">
                      <g id="Grupo_1201923" data-name="Grupo 1201923">
                        <g id="Grupo_1176928" data-name="Grupo 1176928" transform="translate(0)">
                          <g id="Grupo_1172322" data-name="Grupo 1172322">
                            <g id="Grupo_1164700" data-name="Grupo 1164700">
                              <g id="Grupo_1160931" data-name="Grupo 1160931">
                                <g id="Grupo_1160749" data-name="Grupo 1160749">
                                  <g id="Grupo_1158891" data-name="Grupo 1158891">
                                    <g id="Grupo_1157406" data-name="Grupo 1157406">
                                      <g id="Grupo_1155793" data-name="Grupo 1155793">
                                        <g id="Grupo_1154704" data-name="Grupo 1154704">
                                          <g id="Grupo_1150790" data-name="Grupo 1150790">
                                            <g id="Grupo_1154214" data-name="Grupo 1154214" transform="translate(0)">
                                              <g id="Grupo_1152583" data-name="Grupo 1152583">
                                                <g id="Grupo_1146973" data-name="Grupo 1146973">
                                                  <g id="Grupo_1146954" data-name="Grupo 1146954">
                                                    <g transform="matrix(1, 0, 0, 1, -9, -6)" filter="url(#Trazado_982547)">
                                                      <g id="Trazado_982547-2" data-name="Trazado 982547" transform="translate(9 6)" fill="#c4e3df">
                                                        <path d="M 47.50000762939453 93.49986267089844 C 41.28937911987305 93.49986267089844 35.26534271240234 92.28383636474609 29.59519386291504 89.88558197021484 C 24.11772727966309 87.56880950927734 19.19814109802246 84.25183868408203 14.97310066223145 80.02679443359375 C 10.74804782867432 75.8017578125 7.431074142456055 70.88218688964844 5.114300727844238 65.40471649169922 C 2.716034412384033 59.73458480834961 1.500007629394531 53.71054458618164 1.500007629394531 47.49993133544922 C 1.500007629394531 41.2893180847168 2.716034412384033 35.26527786254883 5.114300727844238 29.59514427185059 C 7.431074142456055 24.11767768859863 10.74804782867432 19.19810485839844 14.97310066223145 14.97306442260742 C 19.19814109802246 10.74802494049072 24.11772727966309 7.431051254272461 29.59519386291504 5.114277839660645 C 35.26534271240234 2.71602463722229 41.28937911987305 1.499997973442078 47.50000762939453 1.499997973442078 C 53.71063613891602 1.499997973442078 59.73467254638672 2.71602463722229 65.40482330322266 5.114277839660645 C 70.88228607177734 7.431051254272461 75.80187225341797 10.74802494049072 80.02691650390625 14.97306442260742 C 84.25196838378906 19.19810485839844 87.56893920898438 24.11767768859863 89.88571166992188 29.59514427185059 C 92.28398132324219 35.26527786254883 93.50000762939453 41.2893180847168 93.50000762939453 47.49993133544922 C 93.50000762939453 53.71054458618164 92.28398132324219 59.73458480834961 89.88571166992188 65.40471649169922 C 87.56893920898438 70.88218688964844 84.25196838378906 75.8017578125 80.02691650390625 80.02679443359375 C 75.80187225341797 84.25183868408203 70.88228607177734 87.56880950927734 65.40482330322266 89.88558197021484 C 59.73467254638672 92.28383636474609 53.71063613891602 93.49986267089844 47.50000762939453 93.49986267089844 Z" stroke="none"/>
                                                        <path d="M 47.50000762939453 2.999992370605469 C 41.4912223815918 2.999992370605469 35.66377639770508 4.1761474609375 30.17951202392578 6.495796203613281 C 24.88085174560547 8.736930847167969 20.12152862548828 11.94596099853516 16.03376007080078 16.03372955322266 C 11.94597625732422 20.12148284912109 8.736961364746094 24.88080596923828 6.495803833007812 30.17946624755859 C 4.176162719726562 35.66371536254883 3.000007629394531 41.49116134643555 3.000007629394531 47.49993133544922 C 3.000007629394531 53.50870132446289 4.176162719726562 59.33614730834961 6.495803833007812 64.82038879394531 C 8.736961364746094 70.11905670166016 11.94597625732422 74.87836456298828 16.03376007080078 78.96613311767578 C 20.12152862548828 83.05390167236328 24.88085174560547 86.26291656494141 30.17951202392578 88.50406646728516 C 35.66377639770508 90.82369995117188 41.4912223815918 91.99985504150391 47.50000762939453 91.99985504150391 C 53.50879287719727 91.99985504150391 59.33623886108398 90.82369995117188 64.82049560546875 88.50406646728516 C 70.11916351318359 86.26291656494141 74.87848663330078 83.05390167236328 78.96625518798828 78.96613311767578 C 83.05403900146484 74.87836456298828 86.26305389404297 70.11905670166016 88.50421142578125 64.82038879394531 C 90.8238525390625 59.33614730834961 92.00000762939453 53.50870132446289 92.00000762939453 47.49993133544922 C 92.00000762939453 41.49116134643555 90.8238525390625 35.66371536254883 88.50421142578125 30.17946624755859 C 86.26305389404297 24.88080596923828 83.05403900146484 20.12148284912109 78.96625518798828 16.03372955322266 C 74.87848663330078 11.94596099853516 70.11916351318359 8.736930847167969 64.82049560546875 6.495796203613281 C 59.33623886108398 4.1761474609375 53.50879287719727 2.999992370605469 47.50000762939453 2.999992370605469 M 47.50000762939453 -7.62939453125e-06 C 73.73352813720703 -7.62939453125e-06 95.00000762939453 21.26644134521484 95.00000762939453 47.49993133544922 C 95.00000762939453 73.73342132568359 73.73352813720703 94.99985504150391 47.50000762939453 94.99985504150391 C 21.26648712158203 94.99985504150391 7.62939453125e-06 73.73342132568359 7.62939453125e-06 47.49993133544922 C 7.62939453125e-06 21.26644134521484 21.26648712158203 -7.62939453125e-06 47.50000762939453 -7.62939453125e-06 Z" stroke="none" fill="#41a599"/>
                                                      </g>
                                                    </g>
                                                  </g>
                                                </g>
                                              </g>
                                            </g>
                                          </g>
                                        </g>
                                      </g>
                                    </g>
                                  </g>
                                </g>
                              </g>
                            </g>
                          </g>
                        </g>
                      </g>
                    </g>
                  </g>
                </g>
              </g>
            </g>
          </g>
        </g>
      </g>
    </g>
    <g id="rueda-dentada_1_" data-name="rueda-dentada (1)" transform="translate(-720.045 1576.122)">
      <g id="Grupo_1241366" data-name="Grupo 1241366" transform="translate(0.985 0.985)">
        <g id="Grupo_1241354" data-name="Grupo 1241354" transform="translate(15.765 49.266)">
          <path id="Trazado_1295272" data-name="Trazado 1295272" d="M179.354,408v3.941c0,3.265-9.705,5.912-21.677,5.912S136,415.206,136,411.941V408c0,3.265,9.705,5.912,21.677,5.912S179.354,411.265,179.354,408Z" transform="translate(-136 -408)" fill="#aab2bd"/>
        </g>
        <g id="Grupo_1241355" data-name="Grupo 1241355" transform="translate(15.765 45.044)">
          <path id="Trazado_1295273" data-name="Trazado 1295273" d="M172.849,373.72c4.015,1.073,6.506,2.568,6.506,4.222,0,3.265-9.705,5.912-21.677,5.912S136,381.207,136,377.942c0-1.654,2.49-3.149,6.506-4.222l2.631,2.631,2.1-1.4a19.57,19.57,0,0,0,6.006,2.49l.494,2.472h7.883l.494-2.472a19.57,19.57,0,0,0,6.006-2.49l2.1,1.4Z" transform="translate(-136 -373.72)" fill="#ccd1d9"/>
        </g>
        <g id="Grupo_1241356" data-name="Grupo 1241356" transform="translate(19.327 7.883)">
          <path id="Trazado_1295274" data-name="Trazado 1295274" d="M204.712,89.736v7.883l-2.472.494a19.57,19.57,0,0,1-2.49,6.006l1.4,2.1-2.944,2.944-2.631,2.631-2.1-1.4a19.569,19.569,0,0,1-6.006,2.49l-.494,2.472h-7.883l-.494-2.472a19.57,19.57,0,0,1-6.006-2.49l-2.1,1.4-2.631-2.631-2.944-2.944,1.4-2.1a19.655,19.655,0,0,1-1.359-2.575,6.728,6.728,0,0,0,4.279-1.953h1.328a13.8,13.8,0,0,0,24.932,0h0a13.826,13.826,0,0,0,0-11.824h0a13.8,13.8,0,0,0-24.932,0h-1.328l-3.962-2.642a19.487,19.487,0,0,1,1.042-1.887l-1.4-2.1,5.574-5.574,2.1,1.4a19.57,19.57,0,0,1,6.006-2.49L179.094,72h7.883l.494,2.472a19.569,19.569,0,0,1,6.006,2.49l2.1-1.4,5.574,5.574-1.4,2.1a19.57,19.57,0,0,1,2.49,6.006Z" transform="translate(-164.92 -72)" fill="#fcd770"/>
        </g>
        <g id="Grupo_1241357" data-name="Grupo 1241357" transform="translate(23.648 23.648)">
          <path id="Trazado_1295275" data-name="Trazado 1295275" d="M226.261,200a13.826,13.826,0,0,1,0,11.824H200V200h26.26Z" transform="translate(-200 -200)" fill="#b4dd7f"/>
        </g>
        <g id="Grupo_1241358" data-name="Grupo 1241358" transform="translate(5.912 23.648)">
          <path id="Trazado_1295276" data-name="Trazado 1295276" d="M63.883,213.795v1.971a1.97,1.97,0,0,1-1.971,1.971H57.971A1.97,1.97,0,0,1,56,215.765v-1.971h1.971a1.971,1.971,0,1,0,0-3.941,1.971,1.971,0,0,0,0-3.941,1.971,1.971,0,1,0,0-3.941A1.97,1.97,0,0,0,59.941,200h3.941Z" transform="translate(-56 -200)" fill="#ccd1d9"/>
        </g>
        <g id="Grupo_1241359" data-name="Grupo 1241359">
          <path id="Trazado_1295277" data-name="Trazado 1295277" d="M27.706,13.912v3.941a5.912,5.912,0,0,1-5.912,5.912H13.912A5.912,5.912,0,0,1,8,17.853V13.912A5.912,5.912,0,0,1,13.912,8v5.912h7.883V8a5.912,5.912,0,0,1,5.912,5.912Z" transform="translate(-8 -8)" fill="#ccd1d9"/>
        </g>
        <g id="Grupo_1241360" data-name="Grupo 1241360" transform="translate(5.912 15.765)">
          <path id="Trazado_1295278" data-name="Trazado 1295278" d="M63.883,136v3.941h-6.9a.984.984,0,0,0-.985.985V136Z" transform="translate(-56 -136)" fill="#ccd1d9"/>
        </g>
        <g id="Grupo_1241361" data-name="Grupo 1241361" transform="translate(5.912 19.706)">
          <path id="Trazado_1295279" data-name="Trazado 1295279" d="M63.883,171.941H58.956A2.955,2.955,0,0,1,56,168.985a.984.984,0,0,1,.985-.985H66.63a3.942,3.942,0,0,1,2.186.661l.957.638,3.962,2.642v11.824a6.728,6.728,0,0,1-4.279,1.953c-.159.011-.319.017-.479.017h-5.1Z" transform="translate(-56 -168)" fill="#f0d0b4"/>
        </g>
        <g id="Grupo_1241362" data-name="Grupo 1241362" transform="translate(1.971 29.56)">
          <path id="Trazado_1295280" data-name="Trazado 1295280" d="M29.912,248a1.971,1.971,0,1,1,0,3.941H25.971a1.971,1.971,0,1,1,0-3.941Z" transform="translate(-24 -248)" fill="#f0d0b4"/>
        </g>
        <g id="Grupo_1241363" data-name="Grupo 1241363" transform="translate(1.971 33.501)">
          <path id="Trazado_1295281" data-name="Trazado 1295281" d="M29.912,280a1.971,1.971,0,1,1,0,3.941H25.971a1.971,1.971,0,1,1,0-3.941Z" transform="translate(-24 -280)" fill="#f0d0b4"/>
        </g>
        <g id="Grupo_1241364" data-name="Grupo 1241364" transform="translate(1.971 25.618)">
          <path id="Trazado_1295282" data-name="Trazado 1295282" d="M29.912,216a1.971,1.971,0,1,1,0,3.941H25.971a1.971,1.971,0,1,1,0-3.941Z" transform="translate(-24 -216)" fill="#f0d0b4"/>
        </g>
        <g id="Grupo_1241365" data-name="Grupo 1241365" transform="translate(1.971 21.677)">
          <path id="Trazado_1295283" data-name="Trazado 1295283" d="M30.9,185.971h.985a1.97,1.97,0,0,1-1.971,1.971H25.971a1.971,1.971,0,1,1,0-3.941H28.11A2.959,2.959,0,0,0,30.9,185.971Z" transform="translate(-24 -184)" fill="#f0d0b4"/>
        </g>
      </g>
      <g id="Grupo_1241367" data-name="Grupo 1241367" transform="translate(0 0)">
        <circle id="Elipse_12501" data-name="Elipse 12501" cx="0.894" cy="0.894" r="0.894" transform="translate(37.54 11.619)"/>
        <path id="Trazado_1295284" data-name="Trazado 1295284" d="M203.162,138.177a.985.985,0,1,0,.7.289A.982.982,0,0,0,203.162,138.177Z" transform="translate(-177.276 -121.158)"/>
        <path id="Trazado_1295285" data-name="Trazado 1295285" d="M203.162,341.823a.985.985,0,1,0,.7.289A.982.982,0,0,0,203.162,341.823Z" transform="translate(-177.276 -299.722)"/>
        <circle id="Elipse_12502" data-name="Elipse 12502" cx="0.894" cy="0.894" r="0.894" transform="translate(37.54 47.371)"/>
        <path id="Trazado_1295286" data-name="Trazado 1295286" d="M406.808,341.823a.985.985,0,1,0,.7.289A.982.982,0,0,0,406.808,341.823Z" transform="translate(-355.84 -299.722)"/>
        <circle id="Elipse_12503" data-name="Elipse 12503" cx="0.894" cy="0.894" r="0.894" transform="translate(55.416 29.495)"/>
        <path id="Trazado_1295287" data-name="Trazado 1295287" d="M406.808,138.177a.985.985,0,1,0,.7.289A.982.982,0,0,0,406.808,138.177Z" transform="translate(-355.84 -121.158)"/>
        <path id="Trazado_1295288" data-name="Trazado 1295288" d="M61.09,35.294V25.8l-2.651-.53a20.525,20.525,0,0,0-2.13-5.136l1.5-2.252-6.716-6.716-2.252,1.5a20.52,20.52,0,0,0-5.136-2.13l-.53-2.651h-9.5l-.53,2.651a20.529,20.529,0,0,0-5.136,2.13l-2.252-1.5-6.716,6.716,1.5,2.252c-.083.143-.164.287-.244.431l-.041-.027a4.911,4.911,0,0,0-2.733-.827H15.765V17.664a6.907,6.907,0,0,0,5.912-6.826V6.9A6.905,6.905,0,0,0,14.78,0h-.985V5.912H7.883V0H6.9A6.905,6.905,0,0,0,0,6.9v3.941a6.907,6.907,0,0,0,5.912,6.826v4.013H4.927a2.954,2.954,0,0,0-2.2,4.927,2.949,2.949,0,0,0,0,3.941,2.949,2.949,0,0,0,0,3.941,2.954,2.954,0,0,0,2.2,4.927h.985V40.4a2.959,2.959,0,0,0,2.956,2.956h3.941A2.959,2.959,0,0,0,15.765,40.4v-.985h3.964c.25.526.522,1.043.816,1.547l-1.5,2.252,2.345,2.345c-3.688,1.222-5.625,2.83-5.625,4.695v3.941c0,4.528,11.4,6.9,22.662,6.9s22.662-2.369,22.662-6.9V50.252c0-1.865-1.937-3.473-5.625-4.695l2.345-2.345-1.5-2.252a20.525,20.525,0,0,0,2.13-5.136ZM7.883,19.706V17.736h5.912v1.971ZM1.971,10.839V6.9A4.935,4.935,0,0,1,5.912,2.07V7.883h9.853V2.07A4.935,4.935,0,0,1,19.706,6.9v3.941a4.932,4.932,0,0,1-4.927,4.927H6.9A4.932,4.932,0,0,1,1.971,10.839ZM4.927,23.648H6.442a3.95,3.95,0,0,0,2.751,1.914.978.978,0,0,1-.325.056H4.927a.985.985,0,1,1,0-1.971Zm-.985,8.868a.986.986,0,0,1,.985-.985H8.868a.985.985,0,0,1,0,1.971H4.927A.986.986,0,0,1,3.941,32.516Zm0-3.941a.986.986,0,0,1,.985-.985H8.868a.985.985,0,1,1,0,1.971H4.927A.986.986,0,0,1,3.941,28.574Zm0,7.883a.986.986,0,0,1,.985-.985H8.868a.985.985,0,1,1,0,1.971H4.927A.986.986,0,0,1,3.941,36.457Zm8.868,4.927H8.868a.986.986,0,0,1-.985-.985v-.985h.985a2.954,2.954,0,0,0,2.2-4.927,2.949,2.949,0,0,0,0-3.941,2.949,2.949,0,0,0,0-3.941,2.958,2.958,0,0,0,.586-.985h2.14V40.4A.986.986,0,0,1,12.809,41.384Zm2.956-12.729a5.087,5.087,0,0,0,1.507.8l.152.051.623-1.87-.152-.05a3.112,3.112,0,0,1-2.131-2.956v-.985H9.853a1.973,1.973,0,0,1-1.971-1.971h9.645a2.947,2.947,0,0,1,1.64.5l4.48,2.987V36.028a5.7,5.7,0,0,1-3.772,1.414h-4.11Zm34.486,6.817H25.618V25.618H50.251a12.8,12.8,0,0,1,0,9.853Zm-1.034,1.971a12.8,12.8,0,0,1-21.582,0ZM27.635,23.648a12.8,12.8,0,0,1,21.582,0Zm-9.9,30.545v-.944a11.831,11.831,0,0,0,1.971,1.064v1.761C18.364,55.381,17.736,54.7,17.736,54.193ZM21.677,56.9V55.045c.621.2,1.28.383,1.971.553v1.9l-.289-.077q-.921-.251-1.682-.519Zm13.795.191v1.97q-1-.037-1.971-.1V57q.978.061,1.971.1ZM31.53,58.811q-1.005-.093-1.971-.213V56.641q.97.116,1.971.205Zm-3.941-.493q-1.018-.164-1.971-.36V56.031q.957.186,1.971.342Zm9.853.8V57.142q.493.006.985.006t.985-.006v1.971q-.491.006-.985.006T37.442,59.113Zm13.795-3.082v1.927q-.951.2-1.971.36V56.373Q50.278,56.217,51.237,56.031ZM47.3,58.6q-.965.12-1.971.213V56.847q1-.09,1.971-.205Zm-3.941.367q-.972.062-1.971.1v-1.97q.991-.037,1.971-.1ZM53.207,57.5V55.6c.691-.171,1.35-.355,1.971-.553V56.9q-.762.267-1.682.519Zm3.941-1.426V54.313a11.83,11.83,0,0,0,1.971-1.064v.944C59.119,54.7,58.491,55.381,57.149,56.073Zm1.971-5.822c0,.844-1.739,2.17-5.623,3.23a59.919,59.919,0,0,1-15.069,1.7,59.919,59.919,0,0,1-15.069-1.7c-3.884-1.059-5.623-2.385-5.623-3.23,0-.819,1.624-2.079,5.23-3.119l2.8,2.8,2.252-1.5a20.525,20.525,0,0,0,5.136,2.13l.53,2.651h9.5l.53-2.651a20.525,20.525,0,0,0,5.136-2.13l2.252,1.5,2.8-2.8c3.606,1.039,5.23,2.3,5.23,3.119ZM56.672,34.76a18.571,18.571,0,0,1-2.365,5.7l-.338.54,1.305,1.958-4.431,4.431-1.958-1.305-.54.338a18.574,18.574,0,0,1-5.7,2.365l-.621.143-.461,2.3H35.294l-.461-2.3-.621-.143a18.573,18.573,0,0,1-5.7-2.365l-.54-.338-1.958,1.305L21.581,42.96,22.886,41l-.338-.54c-.263-.42-.509-.854-.739-1.3a7.648,7.648,0,0,0,3.216-1.726h.329a14.782,14.782,0,1,0,0-13.795h-.423l-2.983-1.989c.189-.35.389-.7.6-1.032l.338-.54L21.581,18.13,26.012,13.7,27.97,15l.54-.338a18.574,18.574,0,0,1,5.7-2.365l.621-.143.461-2.3h6.267l.461,2.3.621.143a18.577,18.577,0,0,1,5.7,2.365l.54.338L50.843,13.7l4.431,4.431-1.305,1.958.338.54a18.573,18.573,0,0,1,2.365,5.7l.143.621,2.3.461v6.267l-2.3.461Z" transform="translate(0 0)"/>
      </g>
    </g>
  </g>
</svg>
