<svg xmlns="http://www.w3.org/2000/svg" xmlns:xlink="http://www.w3.org/1999/xlink" width="93" height="93" viewBox="0 0 93 93">
  <defs>
    <filter id="Trazado_982547" x="0" y="0" width="93" height="93" filterUnits="userSpaceOnUse">
      <feOffset dy="3" input="SourceAlpha"/>
      <feGaussianBlur stdDeviation="3" result="blur"/>
      <feFlood flood-opacity="0.161"/>
      <feComposite operator="in" in2="blur"/>
      <feComposite in="SourceGraphic"/>
    </filter>
  </defs>
  <g id="Grupo_1241599" data-name="Grupo 1241599" transform="translate(-1035 -3091.139)">
    <g id="Grupo_1241108" data-name="Grupo 1241108" transform="translate(0.5 -1720.174)">
      <g id="Grupo_1233826" data-name="Grupo 1233826" transform="translate(-0.5 3502.823)">
        <g id="Grupo_1209734" data-name="Grupo 1209734" transform="translate(0 -1430.391)">
          <g id="Grupo_1209038" data-name="Grupo 1209038" transform="translate(241.51 -604.119)">
            <g id="Grupo_1208891" data-name="Grupo 1208891" transform="translate(802.49 3349)">
              <g id="Grupo_1177675" data-name="Grupo 1177675" transform="translate(0 0)">
                <g id="Grupo_1176928" data-name="Grupo 1176928" transform="translate(0 0)">
                  <g id="Grupo_1172322" data-name="Grupo 1172322" transform="translate(0 0)">
                    <g id="Grupo_1164700" data-name="Grupo 1164700">
                      <g id="Grupo_1160931" data-name="Grupo 1160931">
                        <g id="Grupo_1160749" data-name="Grupo 1160749">
                          <g id="Grupo_1158891" data-name="Grupo 1158891">
                            <g id="Grupo_1157406" data-name="Grupo 1157406">
                              <g id="Grupo_1155793" data-name="Grupo 1155793">
                                <g id="Grupo_1154704" data-name="Grupo 1154704">
                                  <g id="Grupo_1150790" data-name="Grupo 1150790">
                                    <g id="Grupo_1154214" data-name="Grupo 1154214">
                                      <g id="Grupo_1152583" data-name="Grupo 1152583">
                                        <g id="Grupo_1146973" data-name="Grupo 1146973">
                                          <g id="Grupo_1146954" data-name="Grupo 1146954">
                                            <g transform="matrix(1, 0, 0, 1, -9, -6)" filter="url(#Trazado_982547)">
                                              <g id="Trazado_982547-2" data-name="Trazado 982547" transform="translate(9 6)" fill="#fef7ea">
                                                <path d="M 37.49999237060547 73.49986267089844 C 32.63936996459961 73.49986267089844 27.92492485046387 72.54824066162109 23.48763656616211 70.67143249511719 C 19.20095825195312 68.85832214355469 15.35081481933594 66.26239013671875 12.04415893554688 62.95573043823242 C 8.737492561340332 59.64907455444336 6.14155912399292 55.79894256591797 4.328447818756104 51.51226425170898 C 2.45162558555603 47.07498550415039 1.500003457069397 42.36055374145508 1.500003457069397 37.49993133544922 C 1.500003457069397 32.63930892944336 2.45162558555603 27.92487525939941 4.328447818756104 23.48759841918945 C 6.14155912399292 19.20092010498047 8.737492561340332 15.35078716278076 12.04415893554688 12.0441312789917 C 15.35081481933594 8.737475395202637 19.20095825195312 6.141542434692383 23.48763656616211 4.328431129455566 C 27.92492485046387 2.45162034034729 32.63936996459961 1.499997973442078 37.49999237060547 1.499997973442078 C 42.36061477661133 1.499997973442078 47.07505798339844 2.45162034034729 51.51234817504883 4.328431129455566 C 55.79902648925781 6.141542434692383 59.649169921875 8.737475395202637 62.95582580566406 12.0441312789917 C 66.26248931884766 15.35078716278076 68.85842895507812 19.20092010498047 70.67153930664062 23.48759841918945 C 72.54836273193359 27.92487525939941 73.49998474121094 32.63930892944336 73.49998474121094 37.49993133544922 C 73.49998474121094 42.36055374145508 72.54836273193359 47.07498550415039 70.67153930664062 51.51226425170898 C 68.85842895507812 55.79894256591797 66.26248931884766 59.64907455444336 62.95582580566406 62.95573043823242 C 59.649169921875 66.26239013671875 55.79902648925781 68.85832214355469 51.51234817504883 70.67143249511719 C 47.07505798339844 72.54824066162109 42.36061477661133 73.49986267089844 37.49999237060547 73.49986267089844 Z" stroke="none"/>
                                                <path d="M 37.49999237060547 2.999992370605469 C 32.84120559692383 2.999992370605469 28.32336807250977 3.911758422851562 24.07196807861328 5.709945678710938 C 19.96409225463867 7.447418212890625 16.27420425415039 9.935409545898438 13.10481643676758 13.10479354858398 C 9.935432434082031 16.2741813659668 7.447441101074219 19.96405792236328 5.709953308105469 24.07191848754883 C 3.911766052246094 28.32331848144531 3.000007629394531 32.84114456176758 3.000007629394531 37.49993133544922 C 3.000007629394531 42.15870666503906 3.911766052246094 46.67654418945312 5.709953308105469 50.92793273925781 C 7.447441101074219 55.03580474853516 9.935432434082031 58.72568130493164 13.10481643676758 61.89505767822266 C 16.27420425415039 65.06444549560547 19.96409225463867 67.55242919921875 24.07196807861328 69.28990936279297 C 28.32336807250977 71.08809661865234 32.84120559692383 71.99985504150391 37.49999237060547 71.99985504150391 C 42.15877914428711 71.99985504150391 46.67661666870117 71.08809661865234 50.92801666259766 69.28990936279297 C 55.03589248657227 67.55242919921875 58.72578048706055 65.06444549560547 61.89516830444336 61.89505767822266 C 65.06455230712891 58.72568130493164 67.55254364013672 55.03580474853516 69.29003143310547 50.92793273925781 C 71.08821868896484 46.67654418945312 71.99997711181641 42.15870666503906 71.99997711181641 37.49993133544922 C 71.99997711181641 32.84114456176758 71.08821868896484 28.32331848144531 69.29003143310547 24.07191848754883 C 67.55254364013672 19.96405792236328 65.06455230712891 16.2741813659668 61.89516830444336 13.10479354858398 C 58.72578048706055 9.935409545898438 55.03589248657227 7.447418212890625 50.92801666259766 5.709945678710938 C 46.67661666870117 3.911758422851562 42.15877914428711 2.999992370605469 37.49999237060547 2.999992370605469 M 37.49999237060547 -7.62939453125e-06 C 58.21065521240234 -7.62939453125e-06 74.99997711181641 16.7892951965332 74.99997711181641 37.49993133544922 C 74.99997711181641 58.2105712890625 58.21065521240234 74.99985504150391 37.49999237060547 74.99985504150391 C 16.78932952880859 74.99985504150391 7.62939453125e-06 58.2105712890625 7.62939453125e-06 37.49993133544922 C 7.62939453125e-06 16.7892951965332 16.78932952880859 -7.62939453125e-06 37.49999237060547 -7.62939453125e-06 Z" stroke="none" fill="#896521"/>
                                              </g>
                                            </g>
                                          </g>
                                        </g>
                                      </g>
                                    </g>
                                  </g>
                                </g>
                              </g>
                            </g>
                          </g>
                        </g>
                      </g>
                    </g>
                  </g>
                </g>
              </g>
            </g>
          </g>
        </g>
      </g>
    </g>
    <g id="bacterias_4_" data-name="bacterias (4)" transform="translate(1054.985 3107.216)">
      <path id="Trazado_1295932" data-name="Trazado 1295932" d="M177.1,170.617c-.094,7.369-4.7,13.272-12.09,12.345-9-1.124-10.649,12.472-1.7,13.568,15.439,1.932,27.255-10.048,27.46-25.738C190.892,161.752,177.217,161.565,177.1,170.617Z" transform="translate(-139.398 -145.189)" fill="#ffe773"/>
      <path id="Trazado_1295933" data-name="Trazado 1295933" d="M190.069,167.514c-4.209-.905-8.351,1.686-8.413,6.53-.094,7.369-4.7,13.272-12.09,12.345-6.263-.782-9.074,5.661-6.938,10.029-8.213-1.7-6.376-14.548,2.369-13.456,7.383.926,12-4.971,12.09-12.345C177.186,162.813,187.363,161.9,190.069,167.514Z" transform="translate(-139.383 -145.19)" fill="#fff0a6"/>
      <circle id="Elipse_12515" data-name="Elipse 12515" cx="2.741" cy="2.741" r="2.741" transform="translate(41.756 23.287)" fill="#fada86"/>
      <circle id="Elipse_12516" data-name="Elipse 12516" cx="2.741" cy="2.741" r="2.741" transform="translate(22.833 41.997)" fill="#fada86"/>
      <circle id="Elipse_12517" data-name="Elipse 12517" cx="2.741" cy="2.741" r="2.741" transform="translate(37.287 4.803)" fill="#ffe773"/>
      <path id="Trazado_1295934" data-name="Trazado 1295934" d="M36.156,17.554l-4.81.854a9.65,9.65,0,0,0-4.095-3.753L27.68,9.79a1.6,1.6,0,0,0-3.1-.686l-1.665,4.591a9.65,9.65,0,0,0-5.3,1.673l-4-2.805a1.6,1.6,0,0,0-2.147,2.345l3.143,3.737a9.7,9.7,0,0,0-1.2,5.425L8.984,26.13a1.6,1.6,0,0,0,.957,3.033l4.811-.854a9.656,9.656,0,0,0,4.094,3.751l-.428,4.865a1.6,1.6,0,0,0,3.1.688l1.665-4.592a9.65,9.65,0,0,0,5.3-1.673l4,2.805a1.6,1.6,0,0,0,2.147-2.345l-3.143-3.737a9.7,9.7,0,0,0,1.2-5.422l4.427-2.062a1.6,1.6,0,0,0-.957-3.032Z" transform="translate(-7.114 -7.1)" fill="#ff6d7a"/>
      <path id="Trazado_1295935" data-name="Trazado 1295935" d="M30.022,16.668a10.808,10.808,0,0,0-12.67,14.494,9.67,9.67,0,0,1-2.6-2.854l-4.811.854a1.6,1.6,0,0,1-.957-3.033l4.427-2.061a9.7,9.7,0,0,1,1.2-5.425l-3.143-3.737a1.6,1.6,0,0,1,2.147-2.345l4,2.805a9.65,9.65,0,0,1,5.3-1.673L24.576,9.1a1.6,1.6,0,0,1,3.1.686l-.428,4.865a9.573,9.573,0,0,1,2.77,2.014Z" transform="translate(-7.114 -7.1)" fill="#ff8c95"/>
      <circle id="Elipse_12518" data-name="Elipse 12518" cx="2.741" cy="2.741" r="2.741" transform="translate(11.194 10.983)" fill="#e84857"/>
      <g id="Grupo_1241598" data-name="Grupo 1241598" transform="translate(0 0.008)">
        <path id="Trazado_1295936" data-name="Trazado 1295936" d="M276.532,347.324a.914.914,0,0,0,1.173.541,18.1,18.1,0,0,0,6.53-4.181.914.914,0,1,0-1.288-1.3,16.281,16.281,0,0,1-5.875,3.763A.914.914,0,0,0,276.532,347.324Z" transform="translate(-244.895 -303.044)"/>
        <path id="Trazado_1295937" data-name="Trazado 1295937" d="M164.777,142.795l-2.335-.563a31.181,31.181,0,0,0,.493-5.144,8.165,8.165,0,0,0-.6-3.278l2.05-1.506a.914.914,0,1,0-1.082-1.473l-1.892,1.39a7.584,7.584,0,0,0-4.2-2.677l.28-2.678a.914.914,0,0,0-1.818-.19L155.4,129.3a8.115,8.115,0,0,0-4.783,1.347l-1.731-1.713a.914.914,0,0,0-1.286,1.3l1.643,1.626a7.615,7.615,0,0,0-1.807,5.035,14.932,14.932,0,0,1-.946,5.166.914.914,0,0,0,1.707.654,16.751,16.751,0,0,0,1.067-5.8c.1-7.832,11.945-7.679,11.844.152-.192,14.976-11.393,26.725-26.432,24.843-7.769-.972-6.3-12.724,1.471-11.754a10.729,10.729,0,0,0,9.874-3.7.915.915,0,0,0-.028-1.209l-2.075-2.293a.914.914,0,0,0-1.355,1.226l1.525,1.685a8.875,8.875,0,0,1-7.713,2.477,8.177,8.177,0,0,0-3.525.287l-1.1-1.382a.914.914,0,1,0-1.432,1.136l.834,1.052a7.719,7.719,0,0,0-3.274,4.989l-2.031-.05a.914.914,0,1,0-.045,1.827l1.9.047a7.312,7.312,0,0,0,5.313,7.179l-.374,1.785a.914.914,0,1,0,1.789.375l.381-1.82a25.287,25.287,0,0,0,10.467-.974l.527,2.393a.914.914,0,1,0,1.785-.393l-.578-2.624a23.915,23.915,0,0,0,8.9-6.279l1.724,1.724a.914.914,0,0,0,1.292-1.292l-1.841-1.841a27.831,27.831,0,0,0,4.972-10.457,18.929,18.929,0,0,0,2.5.577.914.914,0,0,0,.213-1.8Z" transform="translate(-110.645 -111.481)"/>
        <path id="Trazado_1295938" data-name="Trazado 1295938" d="M191.9,363.273a3.655,3.655,0,1,0,3.655-3.655A3.659,3.659,0,0,0,191.9,363.273Zm5.483,0a1.828,1.828,0,1,1-1.828-1.828A1.83,1.83,0,0,1,197.385,363.273Z" transform="translate(-169.982 -318.542)"/>
        <path id="Trazado_1295939" data-name="Trazado 1295939" d="M364.867,199.464a3.655,3.655,0,0,0-7.31,0,.914.914,0,0,0,1.828,0,1.828,1.828,0,1,1,1.828,1.828.914.914,0,1,0,0,1.828A3.659,3.659,0,0,0,364.867,199.464Z" transform="translate(-316.715 -173.444)"/>
        <path id="Trazado_1295940" data-name="Trazado 1295940" d="M97.315,91.744A3.655,3.655,0,1,0,93.66,95.4,3.659,3.659,0,0,0,97.315,91.744ZM93.66,93.572a1.828,1.828,0,1,1,1.828-1.828A1.83,1.83,0,0,1,93.66,93.572Z" transform="translate(-79.724 -78.028)"/>
        <path id="Trazado_1295941" data-name="Trazado 1295941" d="M322.1,41.3a3.655,3.655,0,1,0-3.655-3.655A3.659,3.659,0,0,0,322.1,41.3Zm0-5.483a1.828,1.828,0,1,1-1.828,1.828A1.83,1.83,0,0,1,322.1,35.82Z" transform="translate(-282.067 -30.11)"/>
        <path id="Trazado_1295942" data-name="Trazado 1295942" d="M350.44,282.84a.914.914,0,1,0,.913-.914A.914.914,0,0,0,350.44,282.84Z" transform="translate(-310.411 -249.724)"/>
        <path id="Trazado_1295943" data-name="Trazado 1295943" d="M162.776,153.306a.914.914,0,1,0,.913-.914A.914.914,0,0,0,162.776,153.306Z" transform="translate(-144.183 -134.986)"/>
        <path id="Trazado_1295944" data-name="Trazado 1295944" d="M114,177.312a.914.914,0,1,0,.913-.914A.914.914,0,0,0,114,177.312Z" transform="translate(-100.98 -156.25)"/>
        <path id="Trazado_1295945" data-name="Trazado 1295945" d="M370.971,319.087a.914.914,0,1,0,.915.914A.913.913,0,0,0,370.971,319.087Z" transform="translate(-327.788 -282.64)"/>
        <path id="Trazado_1295946" data-name="Trazado 1295946" d="M15.268,30.817l1.455-4.011a10.525,10.525,0,0,0,4.62-1.46l3.5,2.45a2.514,2.514,0,0,0,3.373-3.682l-2.747-3.266a10.613,10.613,0,0,0,.53-1.325.914.914,0,0,0-1.739-.563,8.767,8.767,0,0,1-.682,1.565.914.914,0,0,0,.1,1.034L26.816,25.3a.686.686,0,0,1-.911,1.017c-.338-.242,1.323.928-4.013-2.813a.913.913,0,0,0-1.038-.008,8.715,8.715,0,0,1-4.794,1.515.914.914,0,0,0-.847.6c-2.171,5.988-1.565,4.3-1.67,4.6a.686.686,0,0,1-1.331-.295c.037-.361-.116,1.315.43-4.879a.914.914,0,0,0-.514-.9,8.715,8.715,0,0,1-3.706-3.4.914.914,0,0,0-.944-.431c-6.457,1.146-4.419.776-4.826.857a.686.686,0,0,1-.41-1.3c.331-.149-1.2.557,4.441-2.067a.914.914,0,0,0,.526-.9A8.738,8.738,0,0,1,8.3,11.99a.914.914,0,0,0-.1-1.034C3.985,5.947,5.312,7.518,5.044,7.208A.686.686,0,0,1,5.965,6.2c.346.252-1.344-.944,4.013,2.813a.913.913,0,0,0,1.038.008A8.715,8.715,0,0,1,15.81,7.508a.914.914,0,0,0,.847-.6c2.171-5.988,1.565-4.3,1.67-4.6a.686.686,0,0,1,1.33.309l-.428,4.865a.914.914,0,0,0,.514.9,8.713,8.713,0,0,1,3.707,3.4.914.914,0,0,0,.945.432c6.271-1.112,4.5-.793,4.824-.857a.686.686,0,0,1,.41,1.3c-.331.149,1.2-.557-4.44,2.067a.914.914,0,0,0,.771,1.657l4.421-2.058a2.514,2.514,0,0,0-1.5-4.762l-4.2.746A10.525,10.525,0,0,0,21.1,7.027l.374-4.25A2.514,2.514,0,0,0,16.6,1.7L15.147,5.708a10.525,10.525,0,0,0-4.62,1.46l-3.5-2.451A2.514,2.514,0,0,0,3.659,8.4l2.746,3.265A10.55,10.55,0,0,0,5.358,16.4L1.49,18.2a2.514,2.514,0,0,0,1.5,4.761l4.2-.746a10.526,10.526,0,0,0,3.571,3.273l-.374,4.25a2.514,2.514,0,0,0,4.875,1.079Z" transform="translate(0 -0.008)"/>
        <path id="Trazado_1295947" data-name="Trazado 1295947" d="M55.415,286.934a.914.914,0,0,0-1.223.417,2.912,2.912,0,0,0,2.99,4.206.914.914,0,0,0-.2-1.817,1.086,1.086,0,0,1-1.153-1.583.914.914,0,0,0-.417-1.223Z" transform="translate(-47.718 -254.076)"/>
        <path id="Trazado_1295948" data-name="Trazado 1295948" d="M39.57,355.454a.914.914,0,1,0,1.013,1.521,1.628,1.628,0,0,1,2.614,1.309.914.914,0,1,0,1.827-.041A3.455,3.455,0,0,0,39.57,355.454Z" transform="translate(-34.69 -314.299)"/>
      </g>
    </g>
  </g>
</svg>
