<svg xmlns="http://www.w3.org/2000/svg" xmlns:xlink="http://www.w3.org/1999/xlink" width="400" height="254.04" viewBox="0 0 400 254.04">
  <defs>
    <clipPath id="clip-path">
      <rect id="Rect치ngulo_424284" data-name="Rect치ngulo 424284" width="400" height="254" transform="translate(180 4426.04)" fill="#fff" stroke="#707070" stroke-width="1"/>
    </clipPath>
  </defs>
  <g id="Grupo_1241641" data-name="Grupo 1241641" transform="translate(-180 -4426)">
    <rect id="Rect치ngulo_424291" data-name="Rect치ngulo 424291" width="190" height="254" transform="translate(285 4426)" fill="#fef7ea"/>
    <g id="Enmascarar_grupo_1211486" data-name="Enmascarar grupo 1211486" clip-path="url(#clip-path)">
      <g id="Grupo_1241640" data-name="Grupo 1241640" transform="translate(-7031.056 -1259.477)">
        <g id="Grupo_1241638" data-name="Grupo 1241638" transform="translate(7255.458 5790.542) rotate(-42)">
          <path id="Trazado_1296063" data-name="Trazado 1296063" d="M7.9.031A9.19,9.19,0,0,1,13.59,1.276a9.22,9.22,0,0,1,4.17,5.9A8.841,8.841,0,0,1,16.5,13.73a9.3,9.3,0,0,1-6.336,3.949c-2.217.056-4.289-.055-6.19-1.381A8.927,8.927,0,0,1,.154,10.539,8.808,8.808,0,0,1,1.578,3.754,9.391,9.391,0,0,1,7.9.031Z" transform="translate(44.409 60.067)" fill="#efa16e"/>
          <path id="Trazado_1296064" data-name="Trazado 1296064" d="M32.326.109A4.518,4.518,0,0,1,34.107.082a88.471,88.471,0,0,1,.068,9.463c-10.458.84-19.858,5.611-27.506,12.655l-2.26-2.472L0,15.429A56.437,56.437,0,0,1,32.326.109Z" transform="translate(26.878 37.621)" fill="#0dabb1"/>
          <path id="Trazado_1296066" data-name="Trazado 1296066" d="M46.673.03c.512-.022.656-.119,1.056.224l.026,9.019-.451.006a49.416,49.416,0,0,0-9.794,1.386A61.283,61.283,0,0,0,6.785,27.932a21.973,21.973,0,0,1-2.827-2.845L0,21.118a.879.879,0,0,1,.148-.306A11.013,11.013,0,0,1,1.63,19.366l4.4-3.781A72.481,72.481,0,0,1,46.673.03Z" transform="translate(13.221 18.692)" fill="#0dabb1"/>
          <path id="Trazado_1296068" data-name="Trazado 1296068" d="M56.926.112A38.279,38.279,0,0,1,61.03,0l.01,9.141A78.881,78.881,0,0,0,19.6,22.31a76.082,76.082,0,0,0-7.679,5.826c-1.376,1.2-2.634,2.5-3.9,3.8-.435.449-.93,1.161-1.557,1.258l-.667-.626L0,26.672A67.111,67.111,0,0,1,12.869,15.611,88.9,88.9,0,0,1,56.926.112Z" transform="translate(0 0)" fill="#0dabb1"/>
        </g>
        <g id="Grupo_1241639" data-name="Grupo 1241639" transform="matrix(0.839, 0.545, -0.545, 0.839, 7514.7, 5743.31)">
          <path id="Trazado_1296062" data-name="Trazado 1296062" d="M7.965,0a9.018,9.018,0,0,1,4.77,1.288,7.85,7.85,0,0,1,3.583,4.814,8.3,8.3,0,0,1-1.061,6.6c-1.492,2.359-3.4,3.211-6.025,3.8a9.135,9.135,0,0,1-5.994-1.582A8,8,0,0,1,.093,9.669,8.627,8.627,0,0,1,1.759,3.131C3.412,1.02,5.38.312,7.965,0Z" transform="translate(0 61.467)" fill="#efa16e"/>
          <path id="Trazado_1296065" data-name="Trazado 1296065" d="M0,0C9.076.992,17.621,3.528,25.192,8.792a59.838,59.838,0,0,1,8.711,7.66l-3.167,3.141-3.293,3.285c-1.968-1.151-3.8-3.265-5.682-4.665A44.471,44.471,0,0,0,.035,9.623Z" transform="translate(0.552 37.828)" fill="#0dabb1"/>
          <path id="Trazado_1296067" data-name="Trazado 1296067" d="M0,0C3.568.364,7.05.649,10.578,1.342A70.405,70.405,0,0,1,42.485,16.475c1.963,1.66,3.754,3.593,5.574,5.41l-3.354,3.129-3.593,3.5c-.91-.473-1.877-1.88-2.631-2.622a50.8,50.8,0,0,0-4.51-3.955A62.737,62.737,0,0,0,.008,9.415Z" transform="translate(0.585 18.903)" fill="#0dabb1"/>
          <path id="Trazado_1296069" data-name="Trazado 1296069" d="M0,0C20.148.814,39.542,7.656,54.91,20.9a87.338,87.338,0,0,1,6.453,6.448l-3.4,3.438-3.016,3.024A85.248,85.248,0,0,0,46.01,25.7a81.845,81.845,0,0,0-46-16.308Z" transform="translate(0.585 0)" fill="#0dabb1"/>
        </g>
        <path id="Trazado_1296070" data-name="Trazado 1296070" d="M2542.041,385.426a55.63,55.63,0,0,1-16.252-5.812c-13.773-7.241-25.032-19.186-29.685-34.223a52.712,52.712,0,0,1,4.1-40.336c7.916-14.99,22.642-25.7,38.661-30.617a72.7,72.7,0,0,1,54.866,5.326c13.722,7.288,24.857,19.968,29.365,34.915a53.025,53.025,0,0,1-4.483,40.921c-5.8,10.7-15.285,19.093-26.183,24.369a92.3,92.3,0,0,1-14.106,5.217l0-2.59a11.9,11.9,0,0,1,2.369-.884l5.029-1.776a59.742,59.742,0,0,0,20.712-12.667c9.7-9.5,16.121-22.35,16.28-36.089A52.2,52.2,0,0,0,2608,293.855a67.689,67.689,0,0,0-48-20.069c-16.031-.126-34.342,6.369-45.877,17.688a69.194,69.194,0,0,0-5.887,6.288c-6.769,8.547-11.538,19.911-11.642,30.915a52.031,52.031,0,0,0,15.119,37.267,61.582,61.582,0,0,0,23.4,14.6,47.087,47.087,0,0,0,6.928,2.06Z" transform="translate(4853.964 5428)" fill="#94cad9"/>
        <path id="Trazado_1296071" data-name="Trazado 1296071" d="M4640.682,2512.33a67.03,67.03,0,0,1,7.01,3.637,40.613,40.613,0,0,1,15.93,20.477c2.036,5.824,2.6,12.464,3.669,18.558l5.15,29.025a21.828,21.828,0,0,1-2.853.571l3.326,21.164h-35.966l.1-14.186-.078-.155a1.215,1.215,0,0,1-.431-.553l-.015-32.574C4636.522,2542.973,4635.489,2527,4640.682,2512.33Z" transform="translate(2851.72 3333.832)" fill="#124269"/>
        <path id="Trazado_1296072" data-name="Trazado 1296072" d="M4644.221,3622.245a88.688,88.688,0,0,1,9.335-1.889l23.28-4.933,3.326,21.164H4644.2l.1-14.186Z" transform="translate(2844.472 2303.008)" fill="#0dabb1"/>
        <path id="Trazado_1296073" data-name="Trazado 1296073" d="M4644.3,3721.92a31.1,31.1,0,0,1,1.363,4.751l2.278,9.436h-3.744Z" transform="translate(2844.475 2203.487)" fill="#f5eacf"/>
        <path id="Trazado_1296074" data-name="Trazado 1296074" d="M1821.38,2522.94a112.889,112.889,0,0,1,3.018,18.621c1.26,15.655.576,31.584.587,47.29l.023,9.368a15.39,15.39,0,0,1-.164,4.3l0,.116a15.056,15.056,0,0,1,.2,4.391l-.025,8.652h-37.364l5.062-21.542-4.354-1.188c-.239-.984,1.489-7.647,1.8-9.148l6.854-33.375a44.475,44.475,0,0,1,1.648-5.3c2.356-6.336,6.777-13.113,12.454-16.93A71.633,71.633,0,0,1,1821.38,2522.94Z" transform="translate(5513.871 3323.918)" fill="#124269"/>
        <path id="Trazado_1296075" data-name="Trazado 1296075" d="M1792.723,3609.64l32.125,8.383,0,.115a15.074,15.074,0,0,1,.2,4.392l-.025,8.652h-37.364Z" transform="translate(5513.867 2308.412)" fill="#0dabb1"/>
        <path id="Trazado_1296076" data-name="Trazado 1296076" d="M2305.421,3739.37a15.08,15.08,0,0,1,.2,4.391l-.025,8.652h-3.673l1.992-7.913A33.512,33.512,0,0,1,2305.421,3739.37Z" transform="translate(5033.296 2187.18)" fill="#f5eacf"/>
        <path id="Trazado_1296077" data-name="Trazado 1296077" d="M3559.567,2236.91l16.95,5.353,9.157,2.72c1.375.407,3.547.716,4.659,1.575l17.759,5.473a25.793,25.793,0,0,0-1.27,2.924c-5.194,14.669-4.16,30.642-4.155,45.961l.015,32.575a1.218,1.218,0,0,0,.431.553l.078.155-.1,14.186H3530.26l-.16-55.312a27.688,27.688,0,0,1,2.214-4.457l5.245-10.138Z" transform="translate(3885.581 3591.209)" fill="#f4611b"/>
        <path id="Trazado_1296078" data-name="Trazado 1296078" d="M3681.375,3006.895c-2.522-.251-5.306-.031-7.851-.031l-17.037.043.031-10.761c3.23.005,24.13-.39,25.281.257l.161.85Z" transform="translate(3767.474 2881.82)" fill="#0c234d"/>
        <path id="Trazado_1296079" data-name="Trazado 1296079" d="M3835.964,3042.045a2.463,2.463,0,0,1,1.414-.114,2.313,2.313,0,0,1,1.519.991,2.706,2.706,0,0,1,.331,2.18,2.554,2.554,0,0,1-1.366,1.422,3.7,3.7,0,0,1-1.522.144,2.226,2.226,0,0,1-1.448-1.009,2.653,2.653,0,0,1-.274-1.935A2.625,2.625,0,0,1,3835.964,3042.045Z" transform="translate(3601.077 2838.979)" fill="#fefefd"/>
        <path id="Trazado_1296080" data-name="Trazado 1296080" d="M3714.367,3042.858a3.34,3.34,0,0,1,1.565-.033,2.349,2.349,0,0,1,1.4,1.264,2.316,2.316,0,0,1,.052,1.833,2.712,2.712,0,0,1-1.679,1.605,2.8,2.8,0,0,1-1.12.072,2.291,2.291,0,0,1-1.5-1.219,2.612,2.612,0,0,1-.229-2.06A2.549,2.549,0,0,1,3714.367,3042.858Z" transform="translate(3714.906 2838.166)" fill="#fefefd"/>
        <path id="Trazado_1296081" data-name="Trazado 1296081" d="M4039.929,2318.61l9.157,2.72c1.376.407,3.548.716,4.659,1.575-10.394,21.251-13.571,45.414-13.947,68.845-.091,5.707-.182,11.619.292,17.311l-14.09,0,.68-35.211.584-9.641a68.157,68.157,0,0,1,1.177-7.569,145.387,145.387,0,0,1,3.75-17.745A153.39,153.39,0,0,1,4039.929,2318.61Z" transform="translate(3422.168 3514.862)" fill="#fefefd"/>
        <path id="Trazado_1296082" data-name="Trazado 1296082" d="M2343.968,2169.24a14,14,0,0,0,4.385,10c3.638,3.5,9.31,5.01,14.258,4.889a19.861,19.861,0,0,0,13.908-5.72,12.031,12.031,0,0,0,3.769-8.792l12.824,4.059L2371.1,2215.24l-5.245,10.138a27.684,27.684,0,0,0-2.214,4.457l.161,55.312h-76.949l.025-8.652a15.055,15.055,0,0,0-.2-4.391l0-.115a15.4,15.4,0,0,0,.164-4.3l-.023-9.368c-.011-15.706.673-31.635-.587-47.291a112.851,112.851,0,0,0-3.018-18.62l-1.347-4.134,17.036-5.148,13.8-4.157,17.96-5.556Z" transform="translate(5052.036 3654.446)" fill="#f4611b"/>
        <path id="Trazado_1296083" data-name="Trazado 1296083" d="M3476.815,3093.03l3.314.075.161,55.313h-3.663Z" transform="translate(3935.55 2791.176)" fill="#0c234d"/>
        <path id="Trazado_1296084" data-name="Trazado 1296084" d="M2541.91,2321.971l13.8-4.156a126.8,126.8,0,0,1,7.8,21.062c6.472,22.781,7.709,46,6.786,69.53l-14.466-.072.2-21.863a191.182,191.182,0,0,0-6.756-44.958C2547.431,2334.906,2545.189,2328.013,2541.91,2321.971Z" transform="translate(4809.031 3515.605)" fill="#fefefd"/>
        <path id="Trazado_1296085" data-name="Trazado 1296085" d="M3039.992,2169.24a14,14,0,0,0,4.385,10c3.638,3.5,9.309,5.01,14.258,4.889a19.862,19.862,0,0,0,13.908-5.72,12.031,12.031,0,0,0,3.769-8.792l12.824,4.059-22.008,41.567-5.245,10.138a27.724,27.724,0,0,0-2.214,4.457l-3.314-.075c-.816-2.723-2.8-5.8-4.14-8.337l-6.991-13.311-18.535-34.695Z" transform="translate(4356.011 3654.446)" fill="#124269"/>
        <path id="Trazado_1296086" data-name="Trazado 1296086" d="M2581.474,417.345a47.067,47.067,0,0,1-6.927-2.06,61.577,61.577,0,0,1-23.4-14.6,52.031,52.031,0,0,1-15.119-37.267c.1-11,4.873-22.368,11.641-30.915a69.184,69.184,0,0,1,5.888-6.288c11.535-11.32,29.847-17.815,45.878-17.688a67.689,67.689,0,0,1,48,20.069,52.206,52.206,0,0,1,14.71,37.325c-.159,13.739-6.576,26.59-16.28,36.089a59.74,59.74,0,0,1-20.712,12.667l-5.029,1.776a11.9,11.9,0,0,0-2.369.884l0,2.59-.028,7a34.481,34.481,0,0,0,.068,3.872,12.028,12.028,0,0,1-3.769,8.792,19.86,19.86,0,0,1-13.908,5.72c-4.949.121-10.62-1.392-14.258-4.889a14,14,0,0,1-4.385-10V417.345Z" transform="translate(4814.528 5393.263)" fill="#c9e2ed"/>
        <path id="Trazado_1296087" data-name="Trazado 1296087" d="M2889.49,1361.04l.042,8.963a34.9,34.9,0,0,0,.015,4.2,8.761,8.761,0,0,1-4.732-3.89,5.414,5.414,0,0,1-.482-4.115C2885.163,1363.5,2887.149,1362.288,2889.49,1361.04Z" transform="translate(4489.239 4409.698)" fill="#0c234d"/>
        <path id="Trazado_1296088" data-name="Trazado 1296088" d="M4028.19,1373.81a8.837,8.837,0,0,1,2.741,1.063,6.328,6.328,0,0,1,2.626,4.136c.38,2.3-.325,3.877-1.65,5.7l-.1.086a11.784,11.784,0,0,1-3.6,1.953Z" transform="translate(3420.122 4397.764)" fill="#0c234d"/>
        <path id="Trazado_1296089" data-name="Trazado 1296089" d="M3922.77,1325.14l5.3,2.6-.048,10.307a40.352,40.352,0,0,1-.063,5.323l-4.153.035-.867-.143c-.52-.875-.2-3.572-.194-4.644Z" transform="translate(3518.756 4443.246)" fill="#0c234d"/>
        <path id="Trazado_1296090" data-name="Trazado 1296090" d="M2967.388,1316.966a35.778,35.778,0,0,1,6.328-1.653l.111,18.539c-.558.438-.959.319-1.647.327l-2.673.006a2.349,2.349,0,0,1-2.109-.927,3.327,3.327,0,0,0-1.573-1.792,34.9,34.9,0,0,1-.015-4.2l-.042-8.963-.016-.075C2966.258,1317.422,2966.543,1317.367,2967.388,1316.966Z" transform="translate(4412.962 4452.429)" fill="#0c234d"/>
        <path id="Trazado_1296091" data-name="Trazado 1296091" d="M2967.388,1340.54l.009,16.292a3.324,3.324,0,0,0-1.572-1.792,34.847,34.847,0,0,1-.015-4.2l-.042-8.963-.017-.075C2966.258,1341,2966.543,1340.942,2967.388,1340.54Z" transform="translate(4412.961 4428.855)" fill="#2bc8ce"/>
        <path id="Trazado_1296092" data-name="Trazado 1296092" d="M2906.374,522.632l-.122-3.371,17.793.017a17.151,17.151,0,0,1-.2,3.231,15.384,15.384,0,0,1,3.883,1.238l.046.364.075.093c.621.707,1.936,1.015,2.795,1.389a32.239,32.239,0,0,1,3.314,1.722c9.412,5.484,14.706,14.693,16.447,25.205a19.972,19.972,0,0,1,.149,2.971l.131,1.76c1.892.629,3.651-.593,4.818,1.851a2.725,2.725,0,0,1,.055,2.347,3.437,3.437,0,0,1-1.794,1.893c-1.527.61-4.238.225-5.9.186l.033,6.51a13.068,13.068,0,0,1-.108,3.219l.169.12,1.207.672-.008.56a.923.923,0,0,1-.678.045l-5.3-2.6-4.326-2.231c-.567-.375-.529-.745-.657-1.363-.78-.414-.283-1.182-.666-1.94a35.918,35.918,0,0,0-5.046-.061l-9.46.037-31.846-.126c-.481.461-.327,1.425-.344,2.1l.008.887a3.889,3.889,0,0,1-2.524,1.206l-5.827,1.074.027-8.119c-1.992,0-5.568.493-7.084-.86a3.057,3.057,0,0,1-1.055-2.066,2.849,2.849,0,0,1,.854-2.184c1.137-1.2,3.012-.941,4.527-.956a30.307,30.307,0,0,1,.111-4.843l.636-.162c.521-.612.388-1.472.5-2.264a38.464,38.464,0,0,1,.846-4.238,31.177,31.177,0,0,1,13.96-18.5c2.109-1.26,4.5-2.005,6.552-3.259l.149-.093C2903.006,523.44,2905.525,522.906,2906.374,522.632Z" transform="translate(4498.352 5196.329)" fill="#fdaa0c"/>
        <path id="Trazado_1296093" data-name="Trazado 1296093" d="M2956.72,1025.77l10,0-.021,4.952-10.724.051a30.279,30.279,0,0,1,.111-4.844Z" transform="translate(4422.133 4723.003)" fill="#de2e09"/>
        <path id="Trazado_1296094" data-name="Trazado 1296094" d="M3867.037,1026.513a20,20,0,0,1,.149,2.971l-.149,1.832-11.767.1,0-4.935Z" transform="translate(3581.716 4722.337)" fill="#de2e09"/>
        <path id="Trazado_1296095" data-name="Trazado 1296095" d="M3325.169,568.842a15.386,15.386,0,0,1,3.883,1.238l.046.364a43.222,43.222,0,0,0-1.162,6.863l-2.341,17-13.1.02a29.305,29.305,0,0,1-5.639-.091l-3.025-23.811c.5-.65,3.02-1.184,3.869-1.458l2.672,21.557,11.379-.027c.457-.52.575-3.006.7-3.806l1.618-11.438a50.644,50.644,0,0,1,1.059-6.257Z" transform="translate(4097.023 5149.996)" fill="#f4611b"/>
        <path id="Trazado_1296096" data-name="Trazado 1296096" d="M3361.147,522.632l-.122-3.371,17.794.017a17.152,17.152,0,0,1-.2,3.231l-.044.152a50.78,50.78,0,0,0-1.059,6.257l-1.618,11.438c-.12.8-.238,3.286-.695,3.806l-11.379.027Z" transform="translate(4043.579 5196.329)" fill="#fdaa0c"/>
        <path id="Trazado_1296097" data-name="Trazado 1296097" d="M2950.546,1072.29l.131,1.76c1.892.629,3.652-.592,4.818,1.851a2.725,2.725,0,0,1,.055,2.347,3.438,3.438,0,0,1-1.794,1.894c-1.527.61-4.238.225-5.9.186l.033,6.51a13.032,13.032,0,0,1-.108,3.219l.169.12,1.207.672-.008.56a.923.923,0,0,1-.678.045l-5.3-2.6-4.326-2.231c-.567-.375-.529-.745-.657-1.363-.779-.414-.283-1.182-.666-1.94a35.922,35.922,0,0,0-5.046-.061l-9.46.037-31.846-.126c-.481.461-.327,1.425-.343,2.1l.007.887a3.889,3.889,0,0,1-2.524,1.206l-5.827,1.074.027-8.119c-1.992,0-5.568.493-7.084-.86a3.058,3.058,0,0,1-1.055-2.066,2.85,2.85,0,0,1,.854-2.184c1.138-1.2,3.012-.941,4.527-.956l10.724-.051,48.156.027,11.767-.1Z" transform="translate(4498.355 4679.531)" fill="#f4611b"/>
        <path id="Trazado_1296098" data-name="Trazado 1296098" d="M3006.547,1193.97l47.325.092,9.759-.028.033,6.51a13.045,13.045,0,0,1-.108,3.219l.169.12,1.207.673-.008.56a.923.923,0,0,1-.678.045l-5.3-2.6-4.326-2.231c-.567-.375-.529-.745-.657-1.363-.779-.414-.283-1.182-.666-1.94a35.918,35.918,0,0,0-5.046-.061l-9.46.037-31.846-.126c-.481.461-.327,1.425-.344,2.1l.008.887a3.889,3.889,0,0,1-2.524,1.206l-5.827,1.074.027-8.119Z" transform="translate(4382.577 4565.823)" fill="#0c234d"/>
        <path id="Trazado_1296099" data-name="Trazado 1296099" d="M3848.54,1270.28a41.018,41.018,0,0,1,4.931,2.359,48.431,48.431,0,0,1,4.659,2.435l.169.12,1.207.672-.008.56a.922.922,0,0,1-.678.045l-5.3-2.6-4.326-2.231C3848.631,1271.268,3848.669,1270.9,3848.54,1270.28Z" transform="translate(3588.002 4494.512)" fill="#fefefd"/>
        <path id="Trazado_1296100" data-name="Trazado 1296100" d="M3124.75,1193.97l47.325.092a6.3,6.3,0,0,1-.572,1.239l-46.752.04Z" transform="translate(4264.374 4565.823)" fill="#94cad9"/>
        <path id="Trazado_1296101" data-name="Trazado 1296101" d="M3067.988,1240.46c.016-.671-.138-1.635.343-2.1l31.846.126,9.46-.037a35.862,35.862,0,0,1,5.046.061c.383.758-.114,1.527.666,1.94.128.618.091.988.657,1.363l4.327,2.231-.028,13.476c0,1.072-.325,3.769.194,4.644l.867.143-.07.142c-.653,1.39-.94,2.945-1.522,4.375-2.031,5.008-4.894,8.619-8.656,12.453l-.024,6.976,0,2.59-.028,7a34.307,34.307,0,0,0,.068,3.872,12.028,12.028,0,0,1-3.77,8.792,19.86,19.86,0,0,1-13.908,5.72c-4.949.12-10.62-1.392-14.258-4.889a14,14,0,0,1-4.385-10v-13.078l.04-4.67a7.458,7.458,0,0,0,.013-1.575c-.184-.484-2.455-2.14-2.958-2.648a30.574,30.574,0,0,1-7.957-15.106c.688-.008,1.088.111,1.646-.327l-.111-18.539-.012-.853a3.887,3.887,0,0,0,2.524-1.206Z" transform="translate(4321.193 4524.336)" fill="#0dabb1"/>
        <path id="Trazado_1296102" data-name="Trazado 1296102" d="M3462.124,1403.414a1.629,1.629,0,0,1,.994.332c.262.734-.227,1.6-.483,2.338l-2.213,6.116c1.056-.01,2.315-.223,3.244.274a1.277,1.277,0,0,1-.055,1.243l-.841.152-4.647-.064c.438-1.5,1.134-2.949,1.657-4.426C3460.326,1407.838,3460.972,1404.464,3462.124,1403.414Z" transform="translate(3952.841 4370.1)" fill="#0c234d"/>
        <path id="Trazado_1296103" data-name="Trazado 1296103" d="M3411.566,1651.462l.72-.107c.557.358.545.359.711,1a1.372,1.372,0,0,1-.376.432,9.346,9.346,0,0,1-2.612,1.042c-4.013,1.2-7.673.859-11.689-.078a1.506,1.506,0,0,1-.347-.182c-.532-.327-.563-.3-.7-.877l.195-.26c.4-.536.745-.417,1.318-.264A18.432,18.432,0,0,0,3411.566,1651.462Z" transform="translate(4009.708 4138.402)" fill="#0c234d"/>
        <path id="Trazado_1296104" data-name="Trazado 1296104" d="M3194.664,1282.988a7.546,7.546,0,0,1,3.761.766,7.349,7.349,0,0,1,3.639,4.243,7.061,7.061,0,0,1-.525,5.561c-1.153,2.166-3.071,3.145-5.32,3.8a8.5,8.5,0,0,1-5.118-1.238,7.574,7.574,0,0,1-3.14-4.948,6.991,6.991,0,0,1,1.272-5.153A7.63,7.63,0,0,1,3194.664,1282.988Z" transform="translate(4205.383 4482.644)" fill="#fefefd"/>
        <path id="Trazado_1296105" data-name="Trazado 1296105" d="M3265.586,1357.8a2.76,2.76,0,0,1,1.233-.022,2.678,2.678,0,0,1,1.568,1.32,2.534,2.534,0,0,1,.061,1.227,2.84,2.84,0,0,1-1.463,1.731,7.248,7.248,0,0,1-1.285.126,2.227,2.227,0,0,1-1.4-1.144,2.174,2.174,0,0,1-.169-1.795A2.443,2.443,0,0,1,3265.586,1357.8Z" transform="translate(4134.237 4412.802)" fill="#0dabb1"/>
        <path id="Trazado_1296106" data-name="Trazado 1296106" d="M3603.251,1282.82a9.3,9.3,0,0,1,4.137.682,7.6,7.6,0,0,1,3.8,4.21,7.194,7.194,0,0,1-.554,5.7c-1.2,2.18-2.972,3.121-5.26,3.777a7.852,7.852,0,0,1-5.21-1.02,7.261,7.261,0,0,1-2.154-9.984A7.614,7.614,0,0,1,3603.251,1282.82Z" transform="translate(3823.188 4482.793)" fill="#fefefd"/>
        <path id="Trazado_1296107" data-name="Trazado 1296107" d="M3675.891,1357.978a2.421,2.421,0,0,1,1.258.028,2.323,2.323,0,0,1,1.446,1.264,2.218,2.218,0,0,1-.041,1.63,2.437,2.437,0,0,1-1.561,1.435,4.831,4.831,0,0,1-.869.019,2.428,2.428,0,0,1-1.523-.964,2.374,2.374,0,0,1-.326-2.066A3.43,3.43,0,0,1,3675.891,1357.978Z" transform="translate(3750.934 4412.624)" fill="#0dabb1"/>
        <path id="Trazado_1296108" data-name="Trazado 1296108" d="M3262.551,1879.515l-9.142-2.926c-6.9-2.2-13.963-4.367-20.377-7.774-2.5-1.326-5.244-2.941-6.975-5.217,1,.214,2.675,1.621,3.655,2.161a31.6,31.6,0,0,0,10.848,3.617c8.355,1.091,15.515-1.354,22.046-6.43l-.024,6.976,0,2.59Z" transform="translate(4169.705 3940.673)" fill="#0c234d"/>
      </g>
    </g>
  </g>
</svg>
