<svg xmlns="http://www.w3.org/2000/svg" xmlns:xlink="http://www.w3.org/1999/xlink" width="93" height="93" viewBox="0 0 93 93">
  <defs>
    <filter id="Trazado_982547" x="0" y="0" width="93" height="93" filterUnits="userSpaceOnUse">
      <feOffset dy="3" input="SourceAlpha"/>
      <feGaussianBlur stdDeviation="3" result="blur"/>
      <feFlood flood-opacity="0.161"/>
      <feComposite operator="in" in2="blur"/>
      <feComposite in="SourceGraphic"/>
    </filter>
  </defs>
  <g id="Grupo_1241649" data-name="Grupo 1241649" transform="translate(-195 -5427.674)">
    <g id="Grupo_1241109" data-name="Grupo 1241109" transform="translate(204 5433.674)">
      <g id="Grupo_1233829" data-name="Grupo 1233829" transform="translate(0 0)">
        <g id="Grupo_1209736" data-name="Grupo 1209736">
          <g id="Grupo_1209036" data-name="Grupo 1209036" transform="translate(0 0)">
            <g id="Grupo_1208891" data-name="Grupo 1208891" transform="translate(0)">
              <g id="Grupo_1177675" data-name="Grupo 1177675" transform="translate(0 0)">
                <g id="Grupo_1176928" data-name="Grupo 1176928" transform="translate(0 0)">
                  <g id="Grupo_1172322" data-name="Grupo 1172322">
                    <g id="Grupo_1164700" data-name="Grupo 1164700">
                      <g id="Grupo_1160931" data-name="Grupo 1160931">
                        <g id="Grupo_1160749" data-name="Grupo 1160749">
                          <g id="Grupo_1158891" data-name="Grupo 1158891">
                            <g id="Grupo_1157406" data-name="Grupo 1157406">
                              <g id="Grupo_1155793" data-name="Grupo 1155793">
                                <g id="Grupo_1154704" data-name="Grupo 1154704">
                                  <g id="Grupo_1150790" data-name="Grupo 1150790">
                                    <g id="Grupo_1154214" data-name="Grupo 1154214">
                                      <g id="Grupo_1152583" data-name="Grupo 1152583">
                                        <g id="Grupo_1146973" data-name="Grupo 1146973">
                                          <g id="Grupo_1146954" data-name="Grupo 1146954">
                                            <g transform="matrix(1, 0, 0, 1, -9, -6)" filter="url(#Trazado_982547)">
                                              <g id="Trazado_982547-2" data-name="Trazado 982547" transform="translate(9 6)" fill="#fef7ea">
                                                <path d="M 37.49999237060547 73.49986267089844 C 32.63936996459961 73.49986267089844 27.92492485046387 72.54824066162109 23.48763656616211 70.67143249511719 C 19.20095825195312 68.85832214355469 15.35081481933594 66.26239013671875 12.04415893554688 62.95573043823242 C 8.737492561340332 59.64907455444336 6.14155912399292 55.79894256591797 4.328447818756104 51.51226425170898 C 2.45162558555603 47.07498550415039 1.500003457069397 42.36055374145508 1.500003457069397 37.49993133544922 C 1.500003457069397 32.63930892944336 2.45162558555603 27.92487525939941 4.328447818756104 23.48759841918945 C 6.14155912399292 19.20092010498047 8.737492561340332 15.35078716278076 12.04415893554688 12.0441312789917 C 15.35081481933594 8.737475395202637 19.20095825195312 6.141542434692383 23.48763656616211 4.328431129455566 C 27.92492485046387 2.45162034034729 32.63936996459961 1.499997973442078 37.49999237060547 1.499997973442078 C 42.36061477661133 1.499997973442078 47.07505798339844 2.45162034034729 51.51234817504883 4.328431129455566 C 55.79902648925781 6.141542434692383 59.649169921875 8.737475395202637 62.95582580566406 12.0441312789917 C 66.26248931884766 15.35078716278076 68.85842895507812 19.20092010498047 70.67153930664062 23.48759841918945 C 72.54836273193359 27.92487525939941 73.49998474121094 32.63930892944336 73.49998474121094 37.49993133544922 C 73.49998474121094 42.36055374145508 72.54836273193359 47.07498550415039 70.67153930664062 51.51226425170898 C 68.85842895507812 55.79894256591797 66.26248931884766 59.64907455444336 62.95582580566406 62.95573043823242 C 59.649169921875 66.26239013671875 55.79902648925781 68.85832214355469 51.51234817504883 70.67143249511719 C 47.07505798339844 72.54824066162109 42.36061477661133 73.49986267089844 37.49999237060547 73.49986267089844 Z" stroke="none"/>
                                                <path d="M 37.49999237060547 2.999992370605469 C 32.84120559692383 2.999992370605469 28.32336807250977 3.911758422851562 24.07196807861328 5.709945678710938 C 19.96409225463867 7.447418212890625 16.27420425415039 9.935409545898438 13.10481643676758 13.10479354858398 C 9.935432434082031 16.2741813659668 7.447441101074219 19.96405792236328 5.709953308105469 24.07191848754883 C 3.911766052246094 28.32331848144531 3.000007629394531 32.84114456176758 3.000007629394531 37.49993133544922 C 3.000007629394531 42.15870666503906 3.911766052246094 46.67654418945312 5.709953308105469 50.92793273925781 C 7.447441101074219 55.03580474853516 9.935432434082031 58.72568130493164 13.10481643676758 61.89505767822266 C 16.27420425415039 65.06444549560547 19.96409225463867 67.55242919921875 24.07196807861328 69.28990936279297 C 28.32336807250977 71.08809661865234 32.84120559692383 71.99985504150391 37.49999237060547 71.99985504150391 C 42.15877914428711 71.99985504150391 46.67661666870117 71.08809661865234 50.92801666259766 69.28990936279297 C 55.03589248657227 67.55242919921875 58.72578048706055 65.06444549560547 61.89516830444336 61.89505767822266 C 65.06455230712891 58.72568130493164 67.55254364013672 55.03580474853516 69.29003143310547 50.92793273925781 C 71.08821868896484 46.67654418945312 71.99997711181641 42.15870666503906 71.99997711181641 37.49993133544922 C 71.99997711181641 32.84114456176758 71.08821868896484 28.32331848144531 69.29003143310547 24.07191848754883 C 67.55254364013672 19.96405792236328 65.06455230712891 16.2741813659668 61.89516830444336 13.10479354858398 C 58.72578048706055 9.935409545898438 55.03589248657227 7.447418212890625 50.92801666259766 5.709945678710938 C 46.67661666870117 3.911758422851562 42.15877914428711 2.999992370605469 37.49999237060547 2.999992370605469 M 37.49999237060547 -7.62939453125e-06 C 58.21065521240234 -7.62939453125e-06 74.99997711181641 16.7892951965332 74.99997711181641 37.49993133544922 C 74.99997711181641 58.2105712890625 58.21065521240234 74.99985504150391 37.49999237060547 74.99985504150391 C 16.78932952880859 74.99985504150391 7.62939453125e-06 58.2105712890625 7.62939453125e-06 37.49993133544922 C 7.62939453125e-06 16.7892951965332 16.78932952880859 -7.62939453125e-06 37.49999237060547 -7.62939453125e-06 Z" stroke="none" fill="#896521"/>
                                              </g>
                                            </g>
                                          </g>
                                        </g>
                                      </g>
                                    </g>
                                  </g>
                                </g>
                              </g>
                            </g>
                          </g>
                        </g>
                      </g>
                    </g>
                  </g>
                </g>
              </g>
            </g>
          </g>
        </g>
      </g>
    </g>
    <g id="auditivo_1_" data-name="auditivo (1)" transform="translate(190.822 5447.553)">
      <g id="Grupo_1241647" data-name="Grupo 1241647" transform="translate(28.801 0.744)">
        <path id="Trazado_1296125" data-name="Trazado 1296125" d="M57.83,11.478A16.467,16.467,0,0,0,46.693,7.5c-7.16,0-11.137,6.364-11.137,16.706,0,16.189,8.849,18.083,15.213,29.61a5.741,5.741,0,0,0,5.012,3.006h.345a5.682,5.682,0,0,0,5.682-5.682V20.679A12.632,12.632,0,0,0,57.83,11.478Z" transform="translate(-35.556 -7.5)" fill="#ffe09c"/>
        <g id="Grupo_1241646" data-name="Grupo 1241646" transform="translate(10.342 15.115)">
          <path id="Trazado_1296126" data-name="Trazado 1296126" d="M139.983,165.5a7.5,7.5,0,0,0,2.647,7.694l5.7,4.478a1.591,1.591,0,0,0,2.574-1.251V159.806h-3.379A7.69,7.69,0,0,0,139.983,165.5Z" transform="translate(-139.766 -159.806)" fill="#ffd18d"/>
        </g>
        <path id="Trazado_1296127" data-name="Trazado 1296127" d="M221.519,264.751a1.591,1.591,0,0,1-1.591-1.591v-5.569a1.591,1.591,0,0,1,3.182,0v5.569A1.591,1.591,0,0,1,221.519,264.751Z" transform="translate(-201.631 -231.339)" fill="#fbbd80"/>
        <path id="Trazado_1296128" data-name="Trazado 1296128" d="M55.781,54.845a3.365,3.365,0,0,1-2.923-1.774A54.1,54.1,0,0,0,45.7,43.346c-4.334-4.977-7.757-8.908-7.757-18.73,0-3.523.594-11.928,6.1-13.888A2.843,2.843,0,0,0,45.9,8.035v-.08c-6.652.463-10.342,6.713-10.342,16.661,0,16.189,8.849,18.083,15.213,29.61a5.74,5.74,0,0,0,5.012,3.006h.345a5.67,5.67,0,0,0,4.623-2.386Z" transform="translate(-35.556 -7.91)" fill="#ffd18d"/>
      </g>
      <g id="Grupo_1241648" data-name="Grupo 1241648" transform="translate(28.057 0)">
        <path id="Trazado_1296129" data-name="Trazado 1296129" d="M55.053,38.184a.744.744,0,0,0-.744.744v5.455a4.943,4.943,0,0,1-4.938,4.938h-.345A5.008,5.008,0,0,1,44.665,46.7a52.041,52.041,0,0,0-6.957-9.439c-4.38-5.029-8.163-9.372-8.163-19.811,0-4.977.955-9.065,2.762-11.823a8.654,8.654,0,0,1,7.631-4.138A15.91,15.91,0,0,1,50.55,5.249.744.744,0,0,0,51.6,4.2,17.1,17.1,0,0,0,39.938,0a10.19,10.19,0,0,0-8.876,4.811c-1.966,3-3.005,7.371-3.005,12.639a27.53,27.53,0,0,0,2.574,12.575,38.24,38.24,0,0,0,5.955,8.214,50.834,50.834,0,0,1,6.776,9.181,6.5,6.5,0,0,0,5.664,3.391h.345A6.433,6.433,0,0,0,55.8,44.384V38.929A.744.744,0,0,0,55.053,38.184Z" transform="translate(-28.057 0)"/>
        <path id="Trazado_1296130" data-name="Trazado 1296130" d="M86.284,55.883a.744.744,0,0,0,.836-.639c.044-.326,1.032-8.035-2.088-11.639-1.508-1.742-3.756-3.523-8.991-3.523a6.455,6.455,0,0,0-5.161,2.487c-1.82,2.248-2.743,5.944-2.743,10.985a23.742,23.742,0,0,0,2.156,10.791,34.576,34.576,0,0,0,5.4,7.388c.821.943,1.67,1.918,2.533,2.975a.744.744,0,1,0,1.153-.941c-.878-1.076-1.735-2.06-2.566-3.014a33.479,33.479,0,0,1-5.181-7.065,22.329,22.329,0,0,1-2-10.133c0-7.728,2.278-11.984,6.415-11.984,4.624,0,6.513,1.446,7.866,3.009,1.4,1.612,1.812,4.363,1.889,6.64H82.74a8.239,8.239,0,0,0-5.09,14.717l5.7,4.478a2.335,2.335,0,0,0,3.778-1.836V63.1a2.335,2.335,0,0,0-4.671,0v2.387a.744.744,0,0,0,1.489,0V63.1a.847.847,0,0,1,1.693,0v5.477a.847.847,0,0,1-1.37.666l-5.7-4.478a6.75,6.75,0,0,1,4.17-12.058H85.8c-.032,1.357-.154,2.313-.158,2.339a.745.745,0,0,0,.639.836Z" transform="translate(-64.16 -36.104)"/>
        <path id="Trazado_1296131" data-name="Trazado 1296131" d="M238.629,150.653h-4.773a.744.744,0,0,0-.7.483l-1.626,4.335-3.331-10.66a.744.744,0,0,0-1.417-.013l-2.563,7.689-1.615-3.769a.744.744,0,0,0-1.35-.04l-1.385,2.771h-6.7a.744.744,0,1,0,0,1.489h7.16a.744.744,0,0,0,.666-.411l.873-1.747,1.754,4.093a.744.744,0,0,0,1.39-.058l2.453-7.359,3.29,10.528a.744.744,0,0,0,.69.522h.021a.744.744,0,0,0,.7-.483l2.205-5.881h4.257a.744.744,0,1,0,0-1.489Z" transform="translate(-194.131 -129.97)"/>
      </g>
    </g>
  </g>
</svg>
