<svg xmlns="http://www.w3.org/2000/svg" xmlns:xlink="http://www.w3.org/1999/xlink" width="93" height="93" viewBox="0 0 93 93">
  <defs>
    <filter id="Trazado_982547" x="0" y="0" width="93" height="93" filterUnits="userSpaceOnUse">
      <feOffset dy="3" input="SourceAlpha"/>
      <feGaussianBlur stdDeviation="3" result="blur"/>
      <feFlood flood-opacity="0.161"/>
      <feComposite operator="in" in2="blur"/>
      <feComposite in="SourceGraphic"/>
    </filter>
  </defs>
  <g id="Grupo_1241645" data-name="Grupo 1241645" transform="translate(-825 -5427.674)">
    <g id="Grupo_1241110" data-name="Grupo 1241110" transform="translate(834 5433.674)">
      <g id="Grupo_1233829" data-name="Grupo 1233829" transform="translate(0 0)">
        <g id="Grupo_1209736" data-name="Grupo 1209736">
          <g id="Grupo_1209036" data-name="Grupo 1209036" transform="translate(0 0)">
            <g id="Grupo_1208891" data-name="Grupo 1208891" transform="translate(0)">
              <g id="Grupo_1177675" data-name="Grupo 1177675" transform="translate(0 0)">
                <g id="Grupo_1176928" data-name="Grupo 1176928" transform="translate(0 0)">
                  <g id="Grupo_1172322" data-name="Grupo 1172322">
                    <g id="Grupo_1164700" data-name="Grupo 1164700">
                      <g id="Grupo_1160931" data-name="Grupo 1160931">
                        <g id="Grupo_1160749" data-name="Grupo 1160749">
                          <g id="Grupo_1158891" data-name="Grupo 1158891">
                            <g id="Grupo_1157406" data-name="Grupo 1157406">
                              <g id="Grupo_1155793" data-name="Grupo 1155793">
                                <g id="Grupo_1154704" data-name="Grupo 1154704">
                                  <g id="Grupo_1150790" data-name="Grupo 1150790">
                                    <g id="Grupo_1154214" data-name="Grupo 1154214">
                                      <g id="Grupo_1152583" data-name="Grupo 1152583">
                                        <g id="Grupo_1146973" data-name="Grupo 1146973">
                                          <g id="Grupo_1146954" data-name="Grupo 1146954">
                                            <g transform="matrix(1, 0, 0, 1, -9, -6)" filter="url(#Trazado_982547)">
                                              <g id="Trazado_982547-2" data-name="Trazado 982547" transform="translate(9 6)" fill="#fef7ea">
                                                <path d="M 37.49999237060547 73.49986267089844 C 32.63936996459961 73.49986267089844 27.92492485046387 72.54824066162109 23.48763656616211 70.67143249511719 C 19.20095825195312 68.85832214355469 15.35081481933594 66.26239013671875 12.04415893554688 62.95573043823242 C 8.737492561340332 59.64907455444336 6.14155912399292 55.79894256591797 4.328447818756104 51.51226425170898 C 2.45162558555603 47.07498550415039 1.500003457069397 42.36055374145508 1.500003457069397 37.49993133544922 C 1.500003457069397 32.63930892944336 2.45162558555603 27.92487525939941 4.328447818756104 23.48759841918945 C 6.14155912399292 19.20092010498047 8.737492561340332 15.35078716278076 12.04415893554688 12.0441312789917 C 15.35081481933594 8.737475395202637 19.20095825195312 6.141542434692383 23.48763656616211 4.328431129455566 C 27.92492485046387 2.45162034034729 32.63936996459961 1.499997973442078 37.49999237060547 1.499997973442078 C 42.36061477661133 1.499997973442078 47.07505798339844 2.45162034034729 51.51234817504883 4.328431129455566 C 55.79902648925781 6.141542434692383 59.649169921875 8.737475395202637 62.95582580566406 12.0441312789917 C 66.26248931884766 15.35078716278076 68.85842895507812 19.20092010498047 70.67153930664062 23.48759841918945 C 72.54836273193359 27.92487525939941 73.49998474121094 32.63930892944336 73.49998474121094 37.49993133544922 C 73.49998474121094 42.36055374145508 72.54836273193359 47.07498550415039 70.67153930664062 51.51226425170898 C 68.85842895507812 55.79894256591797 66.26248931884766 59.64907455444336 62.95582580566406 62.95573043823242 C 59.649169921875 66.26239013671875 55.79902648925781 68.85832214355469 51.51234817504883 70.67143249511719 C 47.07505798339844 72.54824066162109 42.36061477661133 73.49986267089844 37.49999237060547 73.49986267089844 Z" stroke="none"/>
                                                <path d="M 37.49999237060547 2.999992370605469 C 32.84120559692383 2.999992370605469 28.32336807250977 3.911758422851562 24.07196807861328 5.709945678710938 C 19.96409225463867 7.447418212890625 16.27420425415039 9.935409545898438 13.10481643676758 13.10479354858398 C 9.935432434082031 16.2741813659668 7.447441101074219 19.96405792236328 5.709953308105469 24.07191848754883 C 3.911766052246094 28.32331848144531 3.000007629394531 32.84114456176758 3.000007629394531 37.49993133544922 C 3.000007629394531 42.15870666503906 3.911766052246094 46.67654418945312 5.709953308105469 50.92793273925781 C 7.447441101074219 55.03580474853516 9.935432434082031 58.72568130493164 13.10481643676758 61.89505767822266 C 16.27420425415039 65.06444549560547 19.96409225463867 67.55242919921875 24.07196807861328 69.28990936279297 C 28.32336807250977 71.08809661865234 32.84120559692383 71.99985504150391 37.49999237060547 71.99985504150391 C 42.15877914428711 71.99985504150391 46.67661666870117 71.08809661865234 50.92801666259766 69.28990936279297 C 55.03589248657227 67.55242919921875 58.72578048706055 65.06444549560547 61.89516830444336 61.89505767822266 C 65.06455230712891 58.72568130493164 67.55254364013672 55.03580474853516 69.29003143310547 50.92793273925781 C 71.08821868896484 46.67654418945312 71.99997711181641 42.15870666503906 71.99997711181641 37.49993133544922 C 71.99997711181641 32.84114456176758 71.08821868896484 28.32331848144531 69.29003143310547 24.07191848754883 C 67.55254364013672 19.96405792236328 65.06455230712891 16.2741813659668 61.89516830444336 13.10479354858398 C 58.72578048706055 9.935409545898438 55.03589248657227 7.447418212890625 50.92801666259766 5.709945678710938 C 46.67661666870117 3.911758422851562 42.15877914428711 2.999992370605469 37.49999237060547 2.999992370605469 M 37.49999237060547 -7.62939453125e-06 C 58.21065521240234 -7.62939453125e-06 74.99997711181641 16.7892951965332 74.99997711181641 37.49993133544922 C 74.99997711181641 58.2105712890625 58.21065521240234 74.99985504150391 37.49999237060547 74.99985504150391 C 16.78932952880859 74.99985504150391 7.62939453125e-06 58.2105712890625 7.62939453125e-06 37.49993133544922 C 7.62939453125e-06 16.7892951965332 16.78932952880859 -7.62939453125e-06 37.49999237060547 -7.62939453125e-06 Z" stroke="none" fill="#896521"/>
                                              </g>
                                            </g>
                                          </g>
                                        </g>
                                      </g>
                                    </g>
                                  </g>
                                </g>
                              </g>
                            </g>
                          </g>
                        </g>
                      </g>
                    </g>
                  </g>
                </g>
              </g>
            </g>
          </g>
        </g>
      </g>
    </g>
    <g id="medico" transform="translate(795.411 5438.211)" opacity="0.96">
      <g id="Grupo_1241644" data-name="Grupo 1241644" transform="translate(57.166 8.789)">
        <g id="Grupo_1241642" data-name="Grupo 1241642" transform="translate(0.908)">
          <path id="Trazado_1296109" data-name="Trazado 1296109" d="M108.19,56.984a2.127,2.127,0,0,1,2.123,2.123v39.06a2.127,2.127,0,0,1-2.123,2.123H75.5a2.127,2.127,0,0,1-2.123-2.123V59.107A2.127,2.127,0,0,1,75.5,56.984H108.19Z" transform="translate(-73.376 -52.941)" fill="#837683" fill-rule="evenodd"/>
          <path id="Trazado_1296110" data-name="Trazado 1296110" d="M398.537,100.291h2.74a2.127,2.127,0,0,0,2.123-2.123V59.108a2.127,2.127,0,0,0-2.123-2.123h-2.74Z" transform="translate(-366.462 -52.942)" fill="#685e68" fill-rule="evenodd"/>
          <path id="Trazado_1296111" data-name="Trazado 1296111" d="M133.39,86.922H104.269a.956.956,0,0,0-.955.955v35.49a.956.956,0,0,0,.955.955H133.39a.956.956,0,0,0,.955-.955V87.877A.956.956,0,0,0,133.39,86.922Z" transform="translate(-100.361 -79.926)" fill="#eceff1" fill-rule="evenodd"/>
          <path id="Trazado_1296112" data-name="Trazado 1296112" d="M398.537,124.321h.955q.045,0,.089,0a.957.957,0,0,0,.865-.95V87.877a.957.957,0,0,0-.865-.95q-.044,0-.089,0h-.955Z" transform="translate(-366.462 -79.926)" fill="#d1d1d6" fill-rule="evenodd"/>
          <path id="Trazado_1296113" data-name="Trazado 1296113" d="M178.7,18.76h3.026a.938.938,0,0,0,.877-.577,3.61,3.61,0,0,1,6.631,0,.937.937,0,0,0,.877.577h3.026a.956.956,0,0,1,.955.955v3.61a.956.956,0,0,1-.955.955H178.7a.956.956,0,0,1-.955-.955v-3.61a.956.956,0,0,1,.955-.955Z" transform="translate(-167.454 -16)" fill="#e3a76f" fill-rule="evenodd"/>
          <path id="Trazado_1296114" data-name="Trazado 1296114" d="M192.186,48.54H177.75a.956.956,0,0,0,.955.955h14.437a.956.956,0,0,0,.955-.955V44.93a.957.957,0,0,0-.955-.955v3.61a.956.956,0,0,1-.955.955Z" transform="translate(-167.454 -41.215)" fill="#c48958" fill-rule="evenodd"/>
          <path id="Trazado_1296115" data-name="Trazado 1296115" d="M145.4,364.51h5.345a.7.7,0,0,1,.7.7v5.345a.7.7,0,0,1-.7.7H145.4a.7.7,0,0,1-.7-.7v-5.345A.7.7,0,0,1,145.4,364.51Z" transform="translate(-137.666 -330.132)" fill="#6cf5c2" fill-rule="evenodd"/>
          <path id="Trazado_1296116" data-name="Trazado 1296116" d="M195.964,364.51h.986a.7.7,0,0,1,.7.7v5.345a.7.7,0,0,1-.7.7h-.986a.7.7,0,0,0,.7-.7v-5.345A.7.7,0,0,0,195.964,364.51Z" transform="translate(-183.872 -330.132)" fill="#00e499" fill-rule="evenodd"/>
          <path id="Trazado_1296117" data-name="Trazado 1296117" d="M145.4,254.879h5.345a.7.7,0,0,1,.7.7v5.345a.7.7,0,0,1-.7.7H145.4a.7.7,0,0,1-.7-.7v-5.345A.7.7,0,0,1,145.4,254.879Z" transform="translate(-137.666 -231.315)" fill="#8ac9fe" fill-rule="evenodd"/>
          <path id="Trazado_1296118" data-name="Trazado 1296118" d="M195.964,254.879h.986a.7.7,0,0,1,.7.7v5.345a.7.7,0,0,1-.7.7h-.986a.7.7,0,0,0,.7-.7v-5.345A.7.7,0,0,0,195.964,254.879Z" transform="translate(-183.872 -231.315)" fill="#60b7ff" fill-rule="evenodd"/>
          <path id="Trazado_1296119" data-name="Trazado 1296119" d="M214.555,125.968v2.412a.3.3,0,0,0,.3.3h2.412a.3.3,0,0,1,.3.3v3.981a.3.3,0,0,1-.3.3h-2.412a.3.3,0,0,0-.3.3v2.412a.3.3,0,0,1-.3.3h-3.981a.3.3,0,0,1-.3-.3v-2.412a.3.3,0,0,0-.3-.3h-2.412a.3.3,0,0,1-.3-.3v-3.981a.3.3,0,0,1,.3-.3h2.412a.3.3,0,0,0,.3-.3v-2.412a.3.3,0,0,1,.3-.3h3.981A.3.3,0,0,1,214.555,125.968Z" transform="translate(-193.8 -114.854)" fill="#fe646f" fill-rule="evenodd"/>
          <path id="Trazado_1296120" data-name="Trazado 1296120" d="M272.061,125.968v2.412a.3.3,0,0,0,.3.3h-.986a.3.3,0,0,1-.3-.3v-2.412a.3.3,0,0,0-.3-.3h.986A.3.3,0,0,1,272.061,125.968Zm1.721,2.707h.986a.3.3,0,0,1,.3.3v3.981a.3.3,0,0,1-.3.3h-.986a.3.3,0,0,0,.3-.3v-3.981A.3.3,0,0,0,273.782,128.675Zm-1.425,4.572a.3.3,0,0,0-.3.3v2.412a.3.3,0,0,1-.3.3h-.986a.3.3,0,0,0,.3-.3v-2.412a.3.3,0,0,1,.3-.3Z" transform="translate(-251.307 -114.854)" fill="#fd4755" fill-rule="evenodd"/>
        </g>
        <g id="Grupo_1241643" data-name="Grupo 1241643" transform="translate(0 11.135)">
          <path id="Trazado_1296121" data-name="Trazado 1296121" d="M64.17,152.24V130.977a2.1,2.1,0,0,1,2.093-2.093H67.1a2.1,2.1,0,0,1,2.093,2.093V152.24l-2.078,3.6a.5.5,0,0,1-.866,0Z" transform="translate(-64.17 -128.884)" fill="#ffe177" fill-rule="evenodd"/>
          <path id="Trazado_1296122" data-name="Trazado 1296122" d="M99.351,129.6a2.1,2.1,0,0,1,1.552,2.022V152.89l-1.552,2.689Z" transform="translate(-95.881 -129.534)" fill="#ffd064" fill-rule="evenodd"/>
          <path id="Trazado_1296123" data-name="Trazado 1296123" d="M66.248,369.256l-2.078-3.6h5.023l-2.078,3.6a.5.5,0,0,1-.866,0Z" transform="translate(-64.17 -342.3)" fill="#544854" fill-rule="evenodd"/>
        </g>
      </g>
      <path id="Trazado_1296124" data-name="Trazado 1296124" d="M59.244,20.713h.823a1.268,1.268,0,0,1,1.265,1.267V42.069H57.978V21.98A1.268,1.268,0,0,1,59.244,20.713Zm.411,24.838-1.1-1.9h2.2Zm-3.231-2.5a.106.106,0,0,0,.006.022.877.877,0,0,0,.028.088h0a.73.73,0,0,0,.042.087l0,.006,2.466,4.271a.789.789,0,0,0,1.367,0L62.8,43.253l0-.007a.82.82,0,0,0,.042-.085s0,0,0,0a.627.627,0,0,0,.029-.085.2.2,0,0,0,.006-.023c.006-.024.011-.047.015-.072,0-.008,0-.017,0-.025,0-.03.006-.062.006-.095V21.98a2.848,2.848,0,0,0-2.844-2.845h-.823A2.847,2.847,0,0,0,56.4,21.98V42.858a.89.89,0,0,0,.006.095c0,.008,0,.017,0,.025,0,.025.009.048.015.072Zm24.6-19.65v2.994H78.807a.789.789,0,0,0-.789.789V29.4H75.024V27.183a.79.79,0,0,0-.789-.789H72.02V23.4h2.214a.79.79,0,0,0,.789-.789V20.4h2.994v2.215a.79.79,0,0,0,.789.789Zm-2.214-4.582H74.234a.789.789,0,0,0-.789.789v2.215H71.231a.789.789,0,0,0-.789.789v4.572a.789.789,0,0,0,.789.789h2.214v2.214a.79.79,0,0,0,.789.789h4.572a.79.79,0,0,0,.789-.789V27.972H81.81a.79.79,0,0,0,.789-.789V22.611a.79.79,0,0,0-.789-.789H79.6V19.607a.789.789,0,0,0-.789-.789ZM70.493,35.186l-1.672,2.067a.787.787,0,0,1-.571.292h-.043a.79.79,0,0,1-.557-.231l-1.172-1.172a.789.789,0,1,1,1.116-1.116l.552.552,1.119-1.385a.789.789,0,1,1,1.228.992Zm-4.617-2.044V38.3H71.04V33.142ZM64.3,33.05V38.4a1.489,1.489,0,0,0,1.488,1.487H71.13A1.489,1.489,0,0,0,72.618,38.4V33.05a1.489,1.489,0,0,0-1.488-1.487H65.786A1.489,1.489,0,0,0,64.3,33.05ZM70.493,46l-1.672,2.067a.785.785,0,0,1-.571.292h-.043a.79.79,0,0,1-.557-.231l-1.172-1.172a.789.789,0,0,1,1.116-1.116l.552.551,1.119-1.385A.789.789,0,1,1,70.493,46Zm-4.617-2.044v5.162H71.04V43.956ZM64.3,49.21A1.489,1.489,0,0,0,65.786,50.7H71.13a1.489,1.489,0,0,0,1.488-1.486V43.865a1.489,1.489,0,0,0-1.488-1.486H65.786A1.489,1.489,0,0,0,64.3,43.865Zm24.445-4.6a.79.79,0,0,1-.789.789H76.088a.789.789,0,1,1,0-1.578H87.954A.79.79,0,0,1,88.743,44.614Zm0-10.814a.79.79,0,0,1-.789.789H76.088a.789.789,0,1,1,0-1.578H87.954A.79.79,0,0,1,88.743,33.8ZM75.3,37.646a.789.789,0,0,1,.789-.789H87.953a.789.789,0,1,1,0,1.578H76.088a.789.789,0,0,1-.789-.789ZM88.742,48.46a.789.789,0,0,1-.789.789H76.088a.789.789,0,1,1,0-1.578H87.953A.789.789,0,0,1,88.742,48.46ZM77.475,11.748a.954.954,0,1,1-.955-.955A.955.955,0,0,1,77.475,11.748Zm6.43,4.532V12.338H80.029a.789.789,0,0,1-.767-.6,2.82,2.82,0,0,0-5.482,0,.791.791,0,0,1-.767.6H69.137v3.941Zm8.962-4.237H85.483v-.493a.79.79,0,0,0-.789-.789H80.6a4.4,4.4,0,0,0-8.166,0h-4.09a.789.789,0,0,0-.789.789v.493H60.175a2.915,2.915,0,0,0-2.912,2.912v2.971a.789.789,0,0,0,1.578,0V14.954a1.335,1.335,0,0,1,1.333-1.334h7.384V15H61a.789.789,0,0,0-.789.789v2.074a.789.789,0,1,0,1.578,0V16.574h5.764v.494a.789.789,0,0,0,.789.789H84.694a.79.79,0,0,0,.789-.789v-.494h5.763V52.4H61.794V49.132a.789.789,0,0,0-1.578,0v4.052a.789.789,0,0,0,.789.789H92.036a.789.789,0,0,0,.789-.789v-37.4A.789.789,0,0,0,92.036,15H85.483V13.621h7.383A1.335,1.335,0,0,1,94.2,14.954v39.06a1.335,1.335,0,0,1-1.334,1.334H60.175a1.335,1.335,0,0,1-1.333-1.334V48.693a.789.789,0,0,0-1.578,0v5.322a2.915,2.915,0,0,0,2.912,2.912H92.866a2.915,2.915,0,0,0,2.912-2.912V14.954a2.916,2.916,0,0,0-2.912-2.912Z" transform="translate(0)" fill="#242222" fill-rule="evenodd"/>
    </g>
  </g>
</svg>
