<svg xmlns="http://www.w3.org/2000/svg" xmlns:xlink="http://www.w3.org/1999/xlink" width="108" height="108" viewBox="0 0 108 108">
  <defs>
    <filter id="Trazado_904820" x="0" y="0" width="108" height="108" filterUnits="userSpaceOnUse">
      <feOffset dy="3" input="SourceAlpha"/>
      <feGaussianBlur stdDeviation="3" result="blur"/>
      <feFlood flood-opacity="0.161"/>
      <feComposite operator="in" in2="blur"/>
      <feComposite in="SourceGraphic"/>
    </filter>
  </defs>
  <g id="Grupo_1241509" data-name="Grupo 1241509" transform="translate(-618 -423)">
    <g id="Grupo_1241067" data-name="Grupo 1241067" transform="translate(-2 -262)">
      <g id="Grupo_1233960" data-name="Grupo 1233960">
        <g id="Grupo_1233818" data-name="Grupo 1233818" transform="translate(629 691)">
          <g id="Grupo_1174993" data-name="Grupo 1174993" transform="translate(0 0)">
            <g id="Grupo_1173585" data-name="Grupo 1173585">
              <g id="Grupo_1173428" data-name="Grupo 1173428">
                <g id="Grupo_1171958" data-name="Grupo 1171958">
                  <g id="Grupo_1167341" data-name="Grupo 1167341">
                    <g id="Grupo_1166792" data-name="Grupo 1166792">
                      <g transform="matrix(1, 0, 0, 1, -9, -6)" filter="url(#Trazado_904820)">
                        <g id="Trazado_904820-2" data-name="Trazado 904820" transform="translate(9 6)" fill="#fef7ea">
                          <path d="M 44.99999618530273 88.50002288818359 C 39.12687301635742 88.50002288818359 33.43022155761719 87.35009765625 28.06829643249512 85.08218383789062 C 22.88852119445801 82.89133453369141 18.23629570007324 79.75460815429688 14.24084663391113 75.75916290283203 C 10.24540901184082 71.76371002197266 7.108683586120605 67.11148834228516 4.917821407318115 61.93171310424805 C 2.649921178817749 56.56978607177734 1.499996185302734 50.87313461303711 1.499996185302734 45.0000114440918 C 1.499996185302734 39.12688827514648 2.649921178817749 33.43023681640625 4.917821407318115 28.06829833984375 C 7.108683586120605 22.88852310180664 10.24540901184082 18.2363109588623 14.24084663391113 14.2408618927002 C 18.23629570007324 10.24541187286377 22.88852119445801 7.108686447143555 28.06829643249512 4.917823791503906 C 33.43022155761719 2.649924039840698 39.12687301635742 1.499998927116394 44.99999618530273 1.499998927116394 C 50.87311935424805 1.499998927116394 56.56977081298828 2.649924039840698 61.93169784545898 4.917823791503906 C 67.11147308349609 7.108686447143555 71.76369476318359 10.24541187286377 75.75914764404297 14.2408618927002 C 79.75458526611328 18.2363109588623 82.89131164550781 22.88852310180664 85.08216857910156 28.06829833984375 C 87.35007476806641 33.43023681640625 88.5 39.12688827514648 88.5 45.0000114440918 C 88.5 50.87313461303711 87.35007476806641 56.56978607177734 85.08216857910156 61.93171310424805 C 82.89131164550781 67.11148834228516 79.75458526611328 71.76371002197266 75.75914764404297 75.75916290283203 C 71.76369476318359 79.75460815429688 67.11147308349609 82.89133453369141 61.93169784545898 85.08218383789062 C 56.56977081298828 87.35009765625 50.87311935424805 88.50002288818359 44.99999618530273 88.50002288818359 Z" stroke="none"/>
                          <path d="M 44.99999618530273 3 C 39.32870864868164 3 33.82865142822266 4.110054016113281 28.65262603759766 6.299339294433594 C 23.65165710449219 8.414566040039062 19.15968322753906 11.44333648681641 15.301513671875 15.30152893066406 C 11.44333648681641 19.15969848632812 8.414566040039062 23.65165710449219 6.299339294433594 28.65264129638672 C 4.110054016113281 33.82866668701172 2.999992370605469 39.3287239074707 2.999992370605469 45.0000114440918 C 2.999992370605469 50.67129898071289 4.110054016113281 56.17135620117188 6.299339294433594 61.34738159179688 C 8.414566040039062 66.34836578369141 11.44333648681641 70.84032440185547 15.301513671875 74.69849395751953 C 19.15968322753906 78.55668640136719 23.65165710449219 81.58545684814453 28.65262603759766 83.70068359375 C 33.82865142822266 85.88996887207031 39.32870864868164 87.00002288818359 44.99999618530273 87.00002288818359 C 50.67128372192383 87.00002288818359 56.17134094238281 85.88996887207031 61.34736633300781 83.70068359375 C 66.34834289550781 81.58545684814453 70.84030914306641 78.55668640136719 74.69847869873047 74.69849395751953 C 78.55665588378906 70.84032440185547 81.58542633056641 66.34836578369141 83.70065307617188 61.34738159179688 C 85.88993835449219 56.17135620117188 87 50.67129898071289 87 45.0000114440918 C 87 39.3287239074707 85.88993835449219 33.82866668701172 83.70065307617188 28.65264129638672 C 81.58542633056641 23.65165710449219 78.55665588378906 19.15969848632812 74.69847869873047 15.30152893066406 C 70.84030914306641 11.44333648681641 66.34834289550781 8.414566040039062 61.34736633300781 6.299339294433594 C 56.17134094238281 4.110054016113281 50.67128372192383 3 44.99999618530273 3 M 44.99999618530273 0 C 69.85281372070312 0 90 20.14719390869141 90 45.0000114440918 C 90 69.85282897949219 69.85281372070312 90.00002288818359 44.99999618530273 90.00002288818359 C 20.14717864990234 90.00002288818359 -7.62939453125e-06 69.85282897949219 -7.62939453125e-06 45.0000114440918 C -7.62939453125e-06 20.14719390869141 20.14717864990234 0 44.99999618530273 0 Z" stroke="none" fill="#896521"/>
                        </g>
                      </g>
                    </g>
                  </g>
                </g>
              </g>
            </g>
          </g>
        </g>
      </g>
    </g>
    <g id="proteger_10_" data-name="proteger (10)" transform="translate(643.223 444.263)">
      <g id="Grupo_1241505" data-name="Grupo 1241505" transform="translate(0.843 44.726)">
        <path id="Trazado_1295800" data-name="Trazado 1295800" d="M20.5,393.5a12.61,12.61,0,0,0-3.2,2.338l-3.4-6.494h0L7.5,393.63l5.152,2.833v5.707l9.365-5.529-1.5-3.126Z" transform="translate(-7.499 -389.347)" fill="#b32425"/>
        <path id="Trazado_1295801" data-name="Trazado 1295801" d="M376.882,393.5a12.61,12.61,0,0,1,3.2,2.338l3.4-6.494h0l6.4,4.283-5.152,2.833v5.707l-9.365-5.529,1.5-3.126Z" transform="translate(-334.014 -389.347)" fill="#b32425"/>
      </g>
      <g id="Grupo_1241506" data-name="Grupo 1241506" transform="translate(10.642 48.894)">
        <path id="Trazado_1295802" data-name="Trazado 1295802" d="M97.894,426.422h-.04a12.587,12.587,0,0,0-3.179,2.326l4.717.8Z" transform="translate(-94.675 -426.422)" fill="#8c1e23"/>
        <path id="Trazado_1295803" data-name="Trazado 1295803" d="M376.864,426.422h.04a12.587,12.587,0,0,1,3.179,2.326l-4.717.8Z" transform="translate(-343.814 -426.422)" fill="#8c1e23"/>
      </g>
      <g id="Grupo_1241507" data-name="Grupo 1241507" transform="translate(5.994 38.48)">
        <path id="Trazado_1295804" data-name="Trazado 1295804" d="M58.993,333.777a17.959,17.959,0,0,0-5.664,3.862l4.648,8.878s2.028-2.32,6.986-3.978A34.6,34.6,0,0,1,58.993,333.777Z" transform="translate(-53.329 -333.777)" fill="#e93234"/>
        <path id="Trazado_1295805" data-name="Trazado 1295805" d="M361.148,333.777a34.6,34.6,0,0,1-5.969,8.762c4.958,1.658,6.986,3.978,6.986,3.978l4.648-8.878A17.96,17.96,0,0,0,361.148,333.777Z" transform="translate(-321.249 -333.777)" fill="#e93234"/>
      </g>
      <path id="Trazado_1295806" data-name="Trazado 1295806" d="M81.818,61.4c25.41-10.108,21.894-44.257,21.894-44.257A43.91,43.91,0,0,1,81.818,8.579a43.91,43.91,0,0,1-21.894,8.568S56.408,51.3,81.818,61.4Z" transform="translate(-53.042 -6.654)" fill="#f5ba3d"/>
      <g id="Grupo_1241508" data-name="Grupo 1241508" transform="translate(9.447 38.48)">
        <path id="Trazado_1295807" data-name="Trazado 1295807" d="M361.148,333.777a34.6,34.6,0,0,1-5.969,8.762c.746.25,1.425.514,2.041.784a33.672,33.672,0,0,0,6.14-8.362C362.72,334.575,361.985,334.174,361.148,333.777Z" transform="translate(-324.702 -333.777)" fill="#b32425"/>
        <path id="Trazado_1295808" data-name="Trazado 1295808" d="M86.258,333.777a34.6,34.6,0,0,0,5.969,8.762c-.746.25-1.425.514-2.041.784a33.671,33.671,0,0,1-6.14-8.362C84.687,334.575,85.421,334.174,86.258,333.777Z" transform="translate(-84.047 -333.777)" fill="#b32425"/>
      </g>
      <path id="Trazado_1295809" data-name="Trazado 1295809" d="M261.644,81.927c-.917-.095-1.811-.218-2.682-.364.279,7.851-.444,33.843-21.27,43.719q1,.477,2.058.9C265.16,116.076,261.644,81.927,261.644,81.927Z" transform="translate(-210.974 -71.434)" fill="#ef9325"/>
      <path id="Trazado_1295810" data-name="Trazado 1295810" d="M123.311,104.794c19.357-7.7,16.678-33.714,16.678-33.714a33.449,33.449,0,0,1-16.678-6.527,33.45,33.45,0,0,1-16.678,6.527S103.954,97.094,123.311,104.794Z" transform="translate(-94.535 -56.336)" fill="#ffdb57"/>
      <path id="Trazado_1295811" data-name="Trazado 1295811" d="M181.387,194.185a2.11,2.11,0,0,1-1.491-.618l-4.8-4.8a2.109,2.109,0,1,1,2.983-2.983l3.306,3.306,8.1-8.1a2.109,2.109,0,1,1,2.983,2.983l-9.594,9.594A2.108,2.108,0,0,1,181.387,194.185Z" transform="translate(-154.868 -159.137)" fill="#00b76c"/>
      <path id="Trazado_1295812" data-name="Trazado 1295812" d="M57.178,48.309l-5.771-3.862.9-1.713A.843.843,0,0,0,52.2,41.8a17.823,17.823,0,0,0-5.19-3.7,47.865,47.865,0,0,0,3.063-9.067,62.026,62.026,0,0,0,1.436-18.617.843.843,0,0,0-.752-.752,44.424,44.424,0,0,1-15.58-4.684,35.349,35.349,0,0,1-5.859-3.692.843.843,0,0,0-1.081,0A43.356,43.356,0,0,1,6.8,9.655a.843.843,0,0,0-.752.752,57.243,57.243,0,0,0,.032,9.431.843.843,0,0,0,1.68-.131,60.419,60.419,0,0,1-.088-8.453A46.237,46.237,0,0,0,23.2,6.444,39.738,39.738,0,0,0,28.776,3a39.728,39.728,0,0,0,5.579,3.449,46.239,46.239,0,0,0,15.53,4.809,62.366,62.366,0,0,1-1.453,17.385,45.543,45.543,0,0,1-3.32,9.523c-.039.08-.079.16-.119.24q-.129.262-.262.519-.075.145-.15.29-.141.268-.285.532-.12.22-.243.437-.11.2-.221.389t-.227.386c-.055.092-.111.184-.166.275q-.27.443-.55.874l-.041.063c-.1.149-.2.3-.3.442l-.128.188q-.879,1.281-1.851,2.447l-.011.013q-.188.225-.38.446c-.1.116-.2.23-.3.344l-.061.069q-.173.192-.349.38l-.018.019a30.074,30.074,0,0,1-10.672,7.326,30.345,30.345,0,0,1-12.388-9.329l-.037-.047c-.077-.1-.154-.2-.23-.3a35.254,35.254,0,0,1-3.7-6.056.844.844,0,0,0-.088-.143,49.035,49.035,0,0,1-4.221-14.9.843.843,0,0,0-1.671.221,51.545,51.545,0,0,0,4.106,14.8,17.831,17.831,0,0,0-5.19,3.7.843.843,0,0,0-.106.938l.9,1.713L.374,48.309a.843.843,0,0,0,.063,1.439l4.715,2.593v5.208a.843.843,0,0,0,1.271.726l9.365-5.529.017-.011.028-.018.049-.036.023-.018c.02-.017.039-.034.057-.052l.009-.009a.834.834,0,0,0,.061-.072l0,0,0-.006a.832.832,0,0,0,.053-.081l.01-.018a.846.846,0,0,0,.044-.093l.006-.016q.015-.041.026-.084l.006-.022a.852.852,0,0,0,.017-.1s0-.009,0-.014a.826.826,0,0,0,0-.091c0-.007,0-.014,0-.021a.848.848,0,0,0-.011-.1l0-.007a.83.83,0,0,0-.023-.093l-.008-.024a.836.836,0,0,0-.039-.1l-1.155-2.409A22.365,22.365,0,0,1,17.4,48.214a31.762,31.762,0,0,0,11.068,7.319.843.843,0,0,0,.623,0,31.8,31.8,0,0,0,11.068-7.319,22.356,22.356,0,0,1,2.432,1.033l-1.155,2.409a.838.838,0,0,0-.039.1l-.008.024a.83.83,0,0,0-.023.093v.007a.85.85,0,0,0-.011.1c0,.007,0,.014,0,.021a.852.852,0,0,0,0,.091s0,.009,0,.014a.827.827,0,0,0,.017.1c0,.008,0,.015.006.023a.83.83,0,0,0,.026.083l.006.017a.833.833,0,0,0,.043.092l.01.018a.849.849,0,0,0,.053.081l0,.006,0,0a.833.833,0,0,0,.061.072l.009.009q.027.027.057.052l.023.018.049.036.028.018.017.011,9.365,5.529a.843.843,0,0,0,1.271-.726V52.341l4.715-2.593a.843.843,0,0,0,.062-1.439ZM12.616,50.646l.133-.095.087-.06.143-.1.092-.061.157-.1.06-.038.185-.117.015-.009.408.852-1.34-.228ZM6.4,51.1,2.463,48.938l4.468-2.99L9.9,51.611a.833.833,0,0,0,.054.089c.008.011.017.021.025.032s.026.034.04.05.03.03.045.045.019.019.029.027.039.031.059.046l.022.016c.022.015.046.029.07.042l.017.009a.818.818,0,0,0,.079.036l.014.005a.854.854,0,0,0,.086.027l.012,0c.018,0,.036.01.055.013l2.446.415-6.11,3.607v-4.23A.844.844,0,0,0,6.4,51.1Zm9.757-4.227a22.691,22.691,0,0,0-2.716,1.264l-.007,0-.021.012h0l-.008,0-.106.059-.192.11-.112.065-.012.007-.017.01c-.1.06-.2.118-.3.177l-.045.027-.171.107-.036.023,0,0a15.423,15.423,0,0,0-1.537,1.106L8.121,44.587l-1.1-2.093a18.644,18.644,0,0,1,4.253-2.887q.131.257.265.51c.045.086.092.171.138.256q.175.324.354.643c.027.047.052.1.079.143a35.449,35.449,0,0,0,2.974,4.428l.075.095q.132.166.265.329l.138.167c.078.095.156.19.235.283Q15.978,46.671,16.158,46.877ZM43.9,50.413l.167-.347.015.009.185.117.061.038.157.1.091.06.143.1.087.06.131.093L45,50.69l-1.34.228ZM41.4,46.87c.073-.083.144-.167.216-.251l.131-.153q.165-.195.327-.393l.011-.013q.792-.966,1.522-2.005c.065-.092.127-.186.19-.279.077-.113.155-.225.231-.339s.17-.256.254-.385q.1-.156.2-.314.167-.262.331-.529.111-.181.22-.363.128-.214.253-.43.141-.243.279-.489c.05-.09.1-.18.151-.271q.181-.328.355-.662l.118-.228.082-.158A18.853,18.853,0,0,1,50.526,42.5l-3.852,7.358a15.419,15.419,0,0,0-1.537-1.106l0,0-.036-.023-.171-.107-.056-.034c-.092-.056-.186-.113-.284-.17l-.017-.01-.012-.007-.112-.065-.192-.11-.106-.059-.008,0h0l-.021-.012-.007,0a22.675,22.675,0,0,0-2.716-1.264ZM51.152,51.1a.843.843,0,0,0-.437.739v4.23l-6.11-3.607,2.446-.415.026-.006.062-.015.044-.014.058-.022.042-.019c.019-.009.036-.019.054-.03l.038-.023c.018-.012.035-.025.051-.038l.033-.026c.018-.015.034-.031.05-.048s.018-.017.026-.026a.831.831,0,0,0,.053-.067L47.6,51.7a.829.829,0,0,0,.055-.09l2.964-5.662,4.468,2.99Z" transform="translate(0)"/>
      <path id="Trazado_1295813" data-name="Trazado 1295813" d="M134.212,70.454a42.213,42.213,0,0,0-.051-6.114.843.843,0,0,0-.752-.752,32.925,32.925,0,0,1-16.224-6.335.844.844,0,0,0-1.08,0A32.923,32.923,0,0,1,99.88,63.587a.843.843,0,0,0-.752.752,45.643,45.643,0,0,0,.192,8.976c.537,4.716,2.032,11.517,6.107,17.135a.843.843,0,1,0,1.364-.99c-3.852-5.309-5.276-11.792-5.792-16.295a47.256,47.256,0,0,1-.245-7.981,34.6,34.6,0,0,0,15.89-6.217,34.6,34.6,0,0,0,15.891,6.217,45.051,45.051,0,0,1-.006,5.175.843.843,0,0,0,1.683.095Z" transform="translate(-87.869 -49.682)"/>
      <path id="Trazado_1295814" data-name="Trazado 1295814" d="M183.113,224.651a.843.843,0,0,0,.623,0,24.694,24.694,0,0,0,12.639-11.185,37.776,37.776,0,0,0,4.3-13.811.843.843,0,0,0-1.672-.212c-1.876,14.823-9.436,20.97-15.579,23.515a22.731,22.731,0,0,1-7.741-5.243.843.843,0,0,0-1.214,1.169A24.45,24.45,0,0,0,183.113,224.651Z" transform="translate(-154.648 -175.41)"/>
      <path id="Trazado_1295815" data-name="Trazado 1295815" d="M174.744,188.384a2.932,2.932,0,0,0,2.087-.865l9.594-9.594a2.952,2.952,0,0,0-4.175-4.175l-7.507,7.507-2.71-2.71a2.952,2.952,0,0,0-4.175,4.175l4.8,4.8A2.932,2.932,0,0,0,174.744,188.384Zm-5.692-8.644a1.268,1.268,0,0,1,1.791,0l3.306,3.306a.843.843,0,0,0,1.192,0l8.1-8.1a1.266,1.266,0,1,1,1.791,1.791l-9.594,9.594a1.266,1.266,0,0,1-1.791,0l-4.8-4.8A1.268,1.268,0,0,1,169.051,179.74Z" transform="translate(-148.225 -152.493)"/>
    </g>
  </g>
</svg>
