<svg xmlns="http://www.w3.org/2000/svg" xmlns:xlink="http://www.w3.org/1999/xlink" width="93" height="93" viewBox="0 0 93 93">
  <defs>
    <filter id="Trazado_982547" x="0" y="0" width="93" height="93" filterUnits="userSpaceOnUse">
      <feOffset dy="3" input="SourceAlpha"/>
      <feGaussianBlur stdDeviation="3" result="blur"/>
      <feFlood flood-opacity="0.161"/>
      <feComposite operator="in" in2="blur"/>
      <feComposite in="SourceGraphic"/>
    </filter>
  </defs>
  <g id="Grupo_1241654" data-name="Grupo 1241654" transform="translate(-195 -5571.674)">
    <g id="Grupo_1241111" data-name="Grupo 1241111" transform="translate(204 5577.674)">
      <g id="Grupo_1233829" data-name="Grupo 1233829" transform="translate(0 0)">
        <g id="Grupo_1209736" data-name="Grupo 1209736">
          <g id="Grupo_1209036" data-name="Grupo 1209036" transform="translate(0 0)">
            <g id="Grupo_1208891" data-name="Grupo 1208891" transform="translate(0)">
              <g id="Grupo_1177675" data-name="Grupo 1177675" transform="translate(0 0)">
                <g id="Grupo_1176928" data-name="Grupo 1176928" transform="translate(0 0)">
                  <g id="Grupo_1172322" data-name="Grupo 1172322">
                    <g id="Grupo_1164700" data-name="Grupo 1164700">
                      <g id="Grupo_1160931" data-name="Grupo 1160931">
                        <g id="Grupo_1160749" data-name="Grupo 1160749">
                          <g id="Grupo_1158891" data-name="Grupo 1158891">
                            <g id="Grupo_1157406" data-name="Grupo 1157406">
                              <g id="Grupo_1155793" data-name="Grupo 1155793">
                                <g id="Grupo_1154704" data-name="Grupo 1154704">
                                  <g id="Grupo_1150790" data-name="Grupo 1150790">
                                    <g id="Grupo_1154214" data-name="Grupo 1154214">
                                      <g id="Grupo_1152583" data-name="Grupo 1152583">
                                        <g id="Grupo_1146973" data-name="Grupo 1146973">
                                          <g id="Grupo_1146954" data-name="Grupo 1146954">
                                            <g transform="matrix(1, 0, 0, 1, -9, -6)" filter="url(#Trazado_982547)">
                                              <g id="Trazado_982547-2" data-name="Trazado 982547" transform="translate(9 6)" fill="#fef7ea">
                                                <path d="M 37.49999237060547 73.49986267089844 C 32.63936996459961 73.49986267089844 27.92492485046387 72.54824066162109 23.48763656616211 70.67143249511719 C 19.20095825195312 68.85832214355469 15.35081481933594 66.26239013671875 12.04415893554688 62.95573043823242 C 8.737492561340332 59.64907455444336 6.14155912399292 55.79894256591797 4.328447818756104 51.51226425170898 C 2.45162558555603 47.07498550415039 1.500003457069397 42.36055374145508 1.500003457069397 37.49993133544922 C 1.500003457069397 32.63930892944336 2.45162558555603 27.92487525939941 4.328447818756104 23.48759841918945 C 6.14155912399292 19.20092010498047 8.737492561340332 15.35078716278076 12.04415893554688 12.0441312789917 C 15.35081481933594 8.737475395202637 19.20095825195312 6.141542434692383 23.48763656616211 4.328431129455566 C 27.92492485046387 2.45162034034729 32.63936996459961 1.499997973442078 37.49999237060547 1.499997973442078 C 42.36061477661133 1.499997973442078 47.07505798339844 2.45162034034729 51.51234817504883 4.328431129455566 C 55.79902648925781 6.141542434692383 59.649169921875 8.737475395202637 62.95582580566406 12.0441312789917 C 66.26248931884766 15.35078716278076 68.85842895507812 19.20092010498047 70.67153930664062 23.48759841918945 C 72.54836273193359 27.92487525939941 73.49998474121094 32.63930892944336 73.49998474121094 37.49993133544922 C 73.49998474121094 42.36055374145508 72.54836273193359 47.07498550415039 70.67153930664062 51.51226425170898 C 68.85842895507812 55.79894256591797 66.26248931884766 59.64907455444336 62.95582580566406 62.95573043823242 C 59.649169921875 66.26239013671875 55.79902648925781 68.85832214355469 51.51234817504883 70.67143249511719 C 47.07505798339844 72.54824066162109 42.36061477661133 73.49986267089844 37.49999237060547 73.49986267089844 Z" stroke="none"/>
                                                <path d="M 37.49999237060547 2.999992370605469 C 32.84120559692383 2.999992370605469 28.32336807250977 3.911758422851562 24.07196807861328 5.709945678710938 C 19.96409225463867 7.447418212890625 16.27420425415039 9.935409545898438 13.10481643676758 13.10479354858398 C 9.935432434082031 16.2741813659668 7.447441101074219 19.96405792236328 5.709953308105469 24.07191848754883 C 3.911766052246094 28.32331848144531 3.000007629394531 32.84114456176758 3.000007629394531 37.49993133544922 C 3.000007629394531 42.15870666503906 3.911766052246094 46.67654418945312 5.709953308105469 50.92793273925781 C 7.447441101074219 55.03580474853516 9.935432434082031 58.72568130493164 13.10481643676758 61.89505767822266 C 16.27420425415039 65.06444549560547 19.96409225463867 67.55242919921875 24.07196807861328 69.28990936279297 C 28.32336807250977 71.08809661865234 32.84120559692383 71.99985504150391 37.49999237060547 71.99985504150391 C 42.15877914428711 71.99985504150391 46.67661666870117 71.08809661865234 50.92801666259766 69.28990936279297 C 55.03589248657227 67.55242919921875 58.72578048706055 65.06444549560547 61.89516830444336 61.89505767822266 C 65.06455230712891 58.72568130493164 67.55254364013672 55.03580474853516 69.29003143310547 50.92793273925781 C 71.08821868896484 46.67654418945312 71.99997711181641 42.15870666503906 71.99997711181641 37.49993133544922 C 71.99997711181641 32.84114456176758 71.08821868896484 28.32331848144531 69.29003143310547 24.07191848754883 C 67.55254364013672 19.96405792236328 65.06455230712891 16.2741813659668 61.89516830444336 13.10479354858398 C 58.72578048706055 9.935409545898438 55.03589248657227 7.447418212890625 50.92801666259766 5.709945678710938 C 46.67661666870117 3.911758422851562 42.15877914428711 2.999992370605469 37.49999237060547 2.999992370605469 M 37.49999237060547 -7.62939453125e-06 C 58.21065521240234 -7.62939453125e-06 74.99997711181641 16.7892951965332 74.99997711181641 37.49993133544922 C 74.99997711181641 58.2105712890625 58.21065521240234 74.99985504150391 37.49999237060547 74.99985504150391 C 16.78932952880859 74.99985504150391 7.62939453125e-06 58.2105712890625 7.62939453125e-06 37.49993133544922 C 7.62939453125e-06 16.7892951965332 16.78932952880859 -7.62939453125e-06 37.49999237060547 -7.62939453125e-06 Z" stroke="none" fill="#896521"/>
                                              </g>
                                            </g>
                                          </g>
                                        </g>
                                      </g>
                                    </g>
                                  </g>
                                </g>
                              </g>
                            </g>
                          </g>
                        </g>
                      </g>
                    </g>
                  </g>
                </g>
              </g>
            </g>
          </g>
        </g>
      </g>
    </g>
    <g id="terapia-musical" transform="translate(213 5588.337)">
      <g id="Grupo_1241650" data-name="Grupo 1241650" transform="translate(16.885 0.955)">
        <path id="Trazado_1296132" data-name="Trazado 1296132" d="M34.1,55.9a9.334,9.334,0,0,1-8.085-2.5c-4.625-4.172-1.609-7-9.572-14.4C12.82,35.63,10.3,32.735,10.023,28.059c-.757-12.7,9.645-21.344,21.837-16.787A14.655,14.655,0,0,1,38.4,15.929c3.522,4.557,2.948,9.543-.046,15.286a15.409,15.409,0,0,0-1.911,10.236,16.4,16.4,0,0,0,1.577,4.479c1.647,3.522.3,9.02-3.913,9.969Z" transform="translate(-9.984 -10.04)" fill="#ffdcd5" fill-rule="evenodd"/>
      </g>
      <g id="Grupo_1241651" data-name="Grupo 1241651" transform="translate(6.009 31.818)">
        <path id="Trazado_1296133" data-name="Trazado 1296133" d="M367.126,350.588a13.239,13.239,0,0,0-8.578-3.649v-8.608a13.24,13.24,0,0,0,8.578-3.649v15.906Z" transform="translate(-358.548 -334.682)" fill="#c1b0b5" fill-rule="evenodd"/>
      </g>
      <g id="Grupo_1241652" data-name="Grupo 1241652" transform="translate(0.951 35.467)">
        <path id="Trazado_1296134" data-name="Trazado 1296134" d="M453.081,381.674a4.3,4.3,0,0,1,0-8.608h.755v8.608Z" transform="translate(-448.777 -373.066)" fill="#dad0d3" fill-rule="evenodd"/>
      </g>
      <g id="Grupo_1241653" data-name="Grupo 1241653" transform="translate(0 0)">
        <path id="Trazado_1296135" data-name="Trazado 1296135" d="M1.954,11.381a.951.951,0,0,1,.652,1.176,18.948,18.948,0,0,0-.66,6.36c.245,4.124,2.254,6.706,6.123,10.3,4.673,4.342,5.736,7.264,6.591,9.611a10.053,10.053,0,0,0,2.971,4.779,8.436,8.436,0,0,0,7.239,2.274,4.648,4.648,0,0,0,3.143-2.621,7.329,7.329,0,0,0,.117-6.018l-.032-.068a16.934,16.934,0,0,1-1.623-4.672A16.26,16.26,0,0,1,28.483,21.69c3.11-5.965,3.152-10.364.137-14.265A13.726,13.726,0,0,0,22.5,3.077C16.519.841,10.742,1.8,6.651,5.722A.951.951,0,0,1,5.336,4.348,15.574,15.574,0,0,1,13.268.284a18.359,18.359,0,0,1,9.9,1.012,15.619,15.619,0,0,1,6.957,4.966c3.482,4.505,3.5,9.687.045,16.307a14.544,14.544,0,0,0-1.814,9.654,15.441,15.441,0,0,0,1.466,4.15l.032.068a9.2,9.2,0,0,1-.133,7.66,6.53,6.53,0,0,1-4.433,3.638,8.368,8.368,0,0,1-1.837.2,10.748,10.748,0,0,1-7.093-2.918,11.887,11.887,0,0,1-3.484-5.54c-.826-2.268-1.762-4.838-6.1-8.869C3.277,27.361.357,24.244.048,19.03a20.841,20.841,0,0,1,.73-7,.951.951,0,0,1,1.176-.652Z" transform="translate(15.927 0)"/>
        <path id="Trazado_1296136" data-name="Trazado 1296136" d="M70.746,395.61a.951.951,0,0,1,1.264.459c1.049,2.245.44,3.637-.016,4.268a3.61,3.61,0,0,1-3,1.379,5.1,5.1,0,0,1-.605-.037,7,7,0,0,1-5.468-4.519.951.951,0,0,1,1.76-.72,5.1,5.1,0,0,0,3.934,3.351,1.941,1.941,0,0,0,1.844-.569,2.4,2.4,0,0,0-.166-2.348A.951.951,0,0,1,70.746,395.61Z" transform="translate(-29.89 -357.919)"/>
        <path id="Trazado_1296137" data-name="Trazado 1296137" d="M64.955,83.284a.951.951,0,0,1-1.282,1.4c-6.542-5.97-9.446-10.146-9.71-13.962a14.649,14.649,0,0,1,.547-5.37,10.571,10.571,0,0,1,7.963-7.295,11.873,11.873,0,0,1,11.21,3.162c1.683,1.811,3.1,4.77,2.009,7.642a6.847,6.847,0,0,1-6.824,4.4,1.876,1.876,0,0,0-2.282,1.211c-.487,1.521.434,3.879,2.819,5.191a.951.951,0,0,1-.916,1.666c-3.365-1.851-4.425-5.213-3.713-7.436a3.765,3.765,0,0,1,4.315-2.52,4.944,4.944,0,0,0,4.824-3.184c.778-2.06-.328-4.282-1.623-5.676a10.08,10.08,0,0,0-9.4-2.6,8.647,8.647,0,0,0-6.568,6,12.768,12.768,0,0,0-.466,4.674c.224,3.241,3.029,7.155,9.095,12.69Z" transform="translate(-32.526 -52.26)"/>
        <path id="Trazado_1296138" data-name="Trazado 1296138" d="M353.8,328.331h.755a12.514,12.514,0,0,0,7.945-3.408.951.951,0,0,1,1.583.71v15.906a.951.951,0,0,1-1.583.71,12.514,12.514,0,0,0-7.945-3.408H353.8a5.255,5.255,0,0,1,0-10.509Zm8.382-.733a13.856,13.856,0,0,1-6.677,2.592v6.79a13.856,13.856,0,0,1,6.677,2.592Zm-8.578,9.334v-6.694a3.353,3.353,0,0,0,0,6.694Z" transform="translate(-348.547 -293.815)"/>
        <path id="Trazado_1296139" data-name="Trazado 1296139" d="M251.136,347.651a.951.951,0,0,1,1.345-1.344,9.339,9.339,0,0,1,0,13.189.951.951,0,0,1-1.344-1.344A7.435,7.435,0,0,0,251.136,347.651Z" transform="translate(-230.382 -313.132)"/>
        <path id="Trazado_1296140" data-name="Trazado 1296140" d="M290.749,375.687a.951.951,0,1,1,1.344-1.344,5.565,5.565,0,0,1,0,7.861.951.951,0,1,1-1.344-1.345A3.661,3.661,0,0,0,290.749,375.687Z" transform="translate(-272.66 -338.502)"/>
        <path id="Trazado_1296141" data-name="Trazado 1296141" d="M300.844,79.965a.951.951,0,1,1,0-1.347.945.945,0,0,1,0,1.347Z" transform="translate(-280.898 -70.892)"/>
      </g>
    </g>
  </g>
</svg>
