<svg xmlns="http://www.w3.org/2000/svg" xmlns:xlink="http://www.w3.org/1999/xlink" width="93" height="93" viewBox="0 0 93 93">
  <defs>
    <filter id="Trazado_982547" x="0" y="0" width="93" height="93" filterUnits="userSpaceOnUse">
      <feOffset dy="3" input="SourceAlpha"/>
      <feGaussianBlur stdDeviation="3" result="blur"/>
      <feFlood flood-opacity="0.161"/>
      <feComposite operator="in" in2="blur"/>
      <feComposite in="SourceGraphic"/>
    </filter>
  </defs>
  <g id="Grupo_1241657" data-name="Grupo 1241657" transform="translate(-825 -5571.674)">
    <g id="Grupo_1241112" data-name="Grupo 1241112" transform="translate(834 5577.674)">
      <g id="Grupo_1233829" data-name="Grupo 1233829" transform="translate(0 0)">
        <g id="Grupo_1209736" data-name="Grupo 1209736">
          <g id="Grupo_1209036" data-name="Grupo 1209036" transform="translate(0 0)">
            <g id="Grupo_1208891" data-name="Grupo 1208891" transform="translate(0)">
              <g id="Grupo_1177675" data-name="Grupo 1177675" transform="translate(0 0)">
                <g id="Grupo_1176928" data-name="Grupo 1176928" transform="translate(0 0)">
                  <g id="Grupo_1172322" data-name="Grupo 1172322">
                    <g id="Grupo_1164700" data-name="Grupo 1164700">
                      <g id="Grupo_1160931" data-name="Grupo 1160931">
                        <g id="Grupo_1160749" data-name="Grupo 1160749">
                          <g id="Grupo_1158891" data-name="Grupo 1158891">
                            <g id="Grupo_1157406" data-name="Grupo 1157406">
                              <g id="Grupo_1155793" data-name="Grupo 1155793">
                                <g id="Grupo_1154704" data-name="Grupo 1154704">
                                  <g id="Grupo_1150790" data-name="Grupo 1150790">
                                    <g id="Grupo_1154214" data-name="Grupo 1154214">
                                      <g id="Grupo_1152583" data-name="Grupo 1152583">
                                        <g id="Grupo_1146973" data-name="Grupo 1146973">
                                          <g id="Grupo_1146954" data-name="Grupo 1146954">
                                            <g transform="matrix(1, 0, 0, 1, -9, -6)" filter="url(#Trazado_982547)">
                                              <g id="Trazado_982547-2" data-name="Trazado 982547" transform="translate(9 6)" fill="#fef7ea">
                                                <path d="M 37.49999237060547 73.49986267089844 C 32.63936996459961 73.49986267089844 27.92492485046387 72.54824066162109 23.48763656616211 70.67143249511719 C 19.20095825195312 68.85832214355469 15.35081481933594 66.26239013671875 12.04415893554688 62.95573043823242 C 8.737492561340332 59.64907455444336 6.14155912399292 55.79894256591797 4.328447818756104 51.51226425170898 C 2.45162558555603 47.07498550415039 1.500003457069397 42.36055374145508 1.500003457069397 37.49993133544922 C 1.500003457069397 32.63930892944336 2.45162558555603 27.92487525939941 4.328447818756104 23.48759841918945 C 6.14155912399292 19.20092010498047 8.737492561340332 15.35078716278076 12.04415893554688 12.0441312789917 C 15.35081481933594 8.737475395202637 19.20095825195312 6.141542434692383 23.48763656616211 4.328431129455566 C 27.92492485046387 2.45162034034729 32.63936996459961 1.499997973442078 37.49999237060547 1.499997973442078 C 42.36061477661133 1.499997973442078 47.07505798339844 2.45162034034729 51.51234817504883 4.328431129455566 C 55.79902648925781 6.141542434692383 59.649169921875 8.737475395202637 62.95582580566406 12.0441312789917 C 66.26248931884766 15.35078716278076 68.85842895507812 19.20092010498047 70.67153930664062 23.48759841918945 C 72.54836273193359 27.92487525939941 73.49998474121094 32.63930892944336 73.49998474121094 37.49993133544922 C 73.49998474121094 42.36055374145508 72.54836273193359 47.07498550415039 70.67153930664062 51.51226425170898 C 68.85842895507812 55.79894256591797 66.26248931884766 59.64907455444336 62.95582580566406 62.95573043823242 C 59.649169921875 66.26239013671875 55.79902648925781 68.85832214355469 51.51234817504883 70.67143249511719 C 47.07505798339844 72.54824066162109 42.36061477661133 73.49986267089844 37.49999237060547 73.49986267089844 Z" stroke="none"/>
                                                <path d="M 37.49999237060547 2.999992370605469 C 32.84120559692383 2.999992370605469 28.32336807250977 3.911758422851562 24.07196807861328 5.709945678710938 C 19.96409225463867 7.447418212890625 16.27420425415039 9.935409545898438 13.10481643676758 13.10479354858398 C 9.935432434082031 16.2741813659668 7.447441101074219 19.96405792236328 5.709953308105469 24.07191848754883 C 3.911766052246094 28.32331848144531 3.000007629394531 32.84114456176758 3.000007629394531 37.49993133544922 C 3.000007629394531 42.15870666503906 3.911766052246094 46.67654418945312 5.709953308105469 50.92793273925781 C 7.447441101074219 55.03580474853516 9.935432434082031 58.72568130493164 13.10481643676758 61.89505767822266 C 16.27420425415039 65.06444549560547 19.96409225463867 67.55242919921875 24.07196807861328 69.28990936279297 C 28.32336807250977 71.08809661865234 32.84120559692383 71.99985504150391 37.49999237060547 71.99985504150391 C 42.15877914428711 71.99985504150391 46.67661666870117 71.08809661865234 50.92801666259766 69.28990936279297 C 55.03589248657227 67.55242919921875 58.72578048706055 65.06444549560547 61.89516830444336 61.89505767822266 C 65.06455230712891 58.72568130493164 67.55254364013672 55.03580474853516 69.29003143310547 50.92793273925781 C 71.08821868896484 46.67654418945312 71.99997711181641 42.15870666503906 71.99997711181641 37.49993133544922 C 71.99997711181641 32.84114456176758 71.08821868896484 28.32331848144531 69.29003143310547 24.07191848754883 C 67.55254364013672 19.96405792236328 65.06455230712891 16.2741813659668 61.89516830444336 13.10479354858398 C 58.72578048706055 9.935409545898438 55.03589248657227 7.447418212890625 50.92801666259766 5.709945678710938 C 46.67661666870117 3.911758422851562 42.15877914428711 2.999992370605469 37.49999237060547 2.999992370605469 M 37.49999237060547 -7.62939453125e-06 C 58.21065521240234 -7.62939453125e-06 74.99997711181641 16.7892951965332 74.99997711181641 37.49993133544922 C 74.99997711181641 58.2105712890625 58.21065521240234 74.99985504150391 37.49999237060547 74.99985504150391 C 16.78932952880859 74.99985504150391 7.62939453125e-06 58.2105712890625 7.62939453125e-06 37.49993133544922 C 7.62939453125e-06 16.7892951965332 16.78932952880859 -7.62939453125e-06 37.49999237060547 -7.62939453125e-06 Z" stroke="none" fill="#896521"/>
                                              </g>
                                            </g>
                                          </g>
                                        </g>
                                      </g>
                                    </g>
                                  </g>
                                </g>
                              </g>
                            </g>
                          </g>
                        </g>
                      </g>
                    </g>
                  </g>
                </g>
              </g>
            </g>
          </g>
        </g>
      </g>
    </g>
    <g id="salud_2_" data-name="salud (2)" transform="translate(848.696 5591.871)">
      <g id="Flat_8_" transform="translate(0.669 0.669)">
        <path id="Trazado_1296142" data-name="Trazado 1296142" d="M7.5,473.5H51.767v2.677H7.5Z" transform="translate(-7.5 -431.91)" fill="#ebfdc0"/>
        <path id="Trazado_1296143" data-name="Trazado 1296143" d="M62.447,406.816H20.5v-4.462l15.946-2.036a4.462,4.462,0,0,1,5.028,4.427v0a4.463,4.463,0,0,1,5.028-4.427l15.946,2.036Z" transform="translate(-19.34 -365.226)" fill="#fff"/>
        <path id="Trazado_1296144" data-name="Trazado 1296144" d="M41.473,444.106a4.516,4.516,0,0,0-.042-.606H20.5v2.677H62.447V443.5H41.516A4.515,4.515,0,0,0,41.473,444.106Z" transform="translate(-19.34 -404.587)" fill="#e4e8ed"/>
        <path id="Trazado_1296145" data-name="Trazado 1296145" d="M109.78,106.308,97.742,94.223a7.691,7.691,0,0,1,10.9-10.856l1.14,1.144,1.14-1.144a7.691,7.691,0,0,1,10.9,10.856Z" transform="translate(-87.646 -74.535)" fill="#f88fa4"/>
        <path id="Trazado_1296146" data-name="Trazado 1296146" d="M121.824,154.18l-12.038,12.084L97.748,154.18a7.654,7.654,0,0,1-2.091-3.912,7.683,7.683,0,0,0,2.091,6.946L109.786,169.3l12.038-12.084a7.683,7.683,0,0,0,2.091-6.946A7.655,7.655,0,0,1,121.824,154.18Z" transform="translate(-87.652 -137.526)" fill="#f05475"/>
        <g id="Grupo_1241655" data-name="Grupo 1241655" transform="translate(2.856)">
          <path id="Trazado_1296147" data-name="Trazado 1296147" d="M48.425,281.177H45.747V278.5h-3.57v2.677H39.5v3.57h2.677v2.677h3.57v-2.677h2.677Z" transform="translate(-39.5 -254.314)" fill="#ebfdc0"/>
          <path id="Trazado_1296148" data-name="Trazado 1296148" d="M412.425,10.177h-2.677V7.5h-3.57v2.677H403.5v3.57h2.677v2.677h3.57V13.747h2.677Z" transform="translate(-371.013 -7.5)" fill="#ebfdc0"/>
        </g>
      </g>
      <g id="Grupo_1241656" data-name="Grupo 1241656" transform="translate(11.379 9.46)">
        <path id="Trazado_1296149" data-name="Trazado 1296149" d="M157.5,106h1.339v1.339H157.5Z" transform="translate(-154.823 -106)" fill="#fff"/>
        <path id="Trazado_1296150" data-name="Trazado 1296150" d="M127.5,130h1.339v1.339H127.5Z" transform="translate(-127.5 -127.858)" fill="#fff"/>
      </g>
      <g id="Outline_8_" transform="translate(0)">
        <path id="Trazado_1296151" data-name="Trazado 1296151" d="M1.339,400.656h27.8v-1.339H23.472v-1.4a3.794,3.794,0,0,1,3.785-3.794,3.876,3.876,0,0,1,.489.031l2.09.267.17-1.328-2.09-.267a5.222,5.222,0,0,0-.658-.042,5.126,5.126,0,0,0-4.454,2.6,5.126,5.126,0,0,0-4.454-2.6,5.209,5.209,0,0,0-.658.042L1.16,394.935v4.382H0v4.016H5.221V402H1.339Zm1.16-4.542,15.361-1.961a3.879,3.879,0,0,1,.489-.031,3.794,3.794,0,0,1,3.785,3.794v1.4H2.5Z" transform="translate(0 -357.728)"/>
        <path id="Trazado_1296152" data-name="Trazado 1296152" d="M111.386,399.814,98.273,398.14l-.17,1.328,11.944,1.525v3.2H97.419v1.339h13.789v1.339H73.5v1.339h39.046V404.2h-1.16Z" transform="translate(-66.94 -362.606)"/>
        <path id="Trazado_1296153" data-name="Trazado 1296153" d="M39.586,281.264v-2.677h2.677v-4.909H39.586V271H34.677v2.677H32v4.909h2.677v2.677Zm-6.247-4.016v-2.231h2.677v-2.677h2.231v2.677h2.677v2.231H38.247v2.677H36.016v-2.677Z" transform="translate(-29.144 -246.814)"/>
        <path id="Trazado_1296154" data-name="Trazado 1296154" d="M403.586,2.677V0h-4.909V2.677H396V7.586h2.677v2.677h4.909V7.586h2.677V2.677Zm1.339,3.57h-2.677V8.925h-2.231V6.247h-2.677V4.016h2.677V1.339h2.231V4.016h2.677Z" transform="translate(-360.657)"/>
        <path id="Trazado_1296155" data-name="Trazado 1296155" d="M20.5,219h1.339v1.339H20.5Z" transform="translate(-18.67 -199.454)"/>
        <path id="Trazado_1296156" data-name="Trazado 1296156" d="M475.5,219h1.339v1.339H475.5Z" transform="translate(-433.062 -199.454)"/>
        <path id="Trazado_1296157" data-name="Trazado 1296157" d="M89.894,84.671a7.022,7.022,0,0,1,11.454-7.663l1.614,1.62,1.614-1.62a6.974,6.974,0,0,1,4.975-2.066c.233,0,.468.012.7.035l.132-1.332c-.276-.027-.556-.041-.832-.041a8.3,8.3,0,0,0-5.923,2.46l-.666.668-.666-.668a8.361,8.361,0,0,0-13.638,9.123Z" transform="translate(-80.159 -67.034)"/>
        <path id="Trazado_1296158" data-name="Trazado 1296158" d="M355.726,85.125a7,7,0,0,1-.541,2.709l1.236.516a8.364,8.364,0,0,0-5.455-11.273l-.361,1.289a7.023,7.023,0,0,1,5.121,6.76Z" transform="translate(-319.314 -70.197)"/>
        <path id="Trazado_1296159" data-name="Trazado 1296159" d="M160.3,248.152l-.948-.945-9.394,9.431-9.394-9.431-.948.945,10.343,10.383Z" transform="translate(-127.155 -225.144)"/>
        <path id="Trazado_1296160" data-name="Trazado 1296160" d="M63.5,149.793l3.618,8.854,2.961-10.1,2.315,7.185,2.807-3.7H87.092v-1.339H74.532l-1.656,2.186-2.861-8.88-3.108,10.6-3.165-7.747-2.369,3.836H50.5v1.339H62.119Z" transform="translate(-45.993 -131.142)"/>
      </g>
    </g>
  </g>
</svg>
