<svg xmlns="http://www.w3.org/2000/svg" xmlns:xlink="http://www.w3.org/1999/xlink" width="113" height="113" viewBox="0 0 113 113">
  <defs>
    <filter id="Trazado_982547" x="0" y="0" width="113" height="113" filterUnits="userSpaceOnUse">
      <feOffset dy="3" input="SourceAlpha"/>
      <feGaussianBlur stdDeviation="3" result="blur"/>
      <feFlood flood-opacity="0.161"/>
      <feComposite operator="in" in2="blur"/>
      <feComposite in="SourceGraphic"/>
    </filter>
  </defs>
  <g id="Grupo_1241511" data-name="Grupo 1241511" transform="translate(-270.5 -1736.813)">
    <g id="Grupo_1241078" data-name="Grupo 1241078" transform="translate(-84.844 -10946.354)">
      <g id="Grupo_1240425" data-name="Grupo 1240425" transform="translate(364.344 12689.168)">
        <g id="Grupo_1239772" data-name="Grupo 1239772" transform="translate(0 0)">
          <g id="Grupo_1236602" data-name="Grupo 1236602">
            <g id="Grupo_1236144" data-name="Grupo 1236144">
              <g id="Grupo_1235105" data-name="Grupo 1235105">
                <g id="Grupo_1223793" data-name="Grupo 1223793">
                  <g id="Grupo_1208028" data-name="Grupo 1208028">
                    <g id="Grupo_1177675" data-name="Grupo 1177675">
                      <g id="Grupo_1176928" data-name="Grupo 1176928" transform="translate(0)">
                        <g id="Grupo_1172322" data-name="Grupo 1172322">
                          <g id="Grupo_1164700" data-name="Grupo 1164700">
                            <g id="Grupo_1160931" data-name="Grupo 1160931">
                              <g id="Grupo_1160749" data-name="Grupo 1160749">
                                <g id="Grupo_1158891" data-name="Grupo 1158891">
                                  <g id="Grupo_1157406" data-name="Grupo 1157406">
                                    <g id="Grupo_1155793" data-name="Grupo 1155793">
                                      <g id="Grupo_1154704" data-name="Grupo 1154704">
                                        <g id="Grupo_1150790" data-name="Grupo 1150790">
                                          <g id="Grupo_1154214" data-name="Grupo 1154214" transform="translate(0)">
                                            <g id="Grupo_1152583" data-name="Grupo 1152583">
                                              <g id="Grupo_1146973" data-name="Grupo 1146973">
                                                <g id="Grupo_1146954" data-name="Grupo 1146954">
                                                  <g transform="matrix(1, 0, 0, 1, -9, -6)" filter="url(#Trazado_982547)">
                                                    <g id="Trazado_982547-2" data-name="Trazado 982547" transform="translate(9 6)" fill="#c4e3df">
                                                      <path d="M 47.50000762939453 93.49986267089844 C 41.28937911987305 93.49986267089844 35.26534271240234 92.28383636474609 29.59519386291504 89.88558197021484 C 24.11772727966309 87.56880950927734 19.19814109802246 84.25183868408203 14.97310066223145 80.02679443359375 C 10.74804782867432 75.8017578125 7.431074142456055 70.88218688964844 5.114300727844238 65.40471649169922 C 2.716034412384033 59.73458480834961 1.500007629394531 53.71054458618164 1.500007629394531 47.49993133544922 C 1.500007629394531 41.2893180847168 2.716034412384033 35.26527786254883 5.114300727844238 29.59514427185059 C 7.431074142456055 24.11767768859863 10.74804782867432 19.19810485839844 14.97310066223145 14.97306442260742 C 19.19814109802246 10.74802494049072 24.11772727966309 7.431051254272461 29.59519386291504 5.114277839660645 C 35.26534271240234 2.71602463722229 41.28937911987305 1.499997973442078 47.50000762939453 1.499997973442078 C 53.71063613891602 1.499997973442078 59.73467254638672 2.71602463722229 65.40482330322266 5.114277839660645 C 70.88228607177734 7.431051254272461 75.80187225341797 10.74802494049072 80.02691650390625 14.97306442260742 C 84.25196838378906 19.19810485839844 87.56893920898438 24.11767768859863 89.88571166992188 29.59514427185059 C 92.28398132324219 35.26527786254883 93.50000762939453 41.2893180847168 93.50000762939453 47.49993133544922 C 93.50000762939453 53.71054458618164 92.28398132324219 59.73458480834961 89.88571166992188 65.40471649169922 C 87.56893920898438 70.88218688964844 84.25196838378906 75.8017578125 80.02691650390625 80.02679443359375 C 75.80187225341797 84.25183868408203 70.88228607177734 87.56880950927734 65.40482330322266 89.88558197021484 C 59.73467254638672 92.28383636474609 53.71063613891602 93.49986267089844 47.50000762939453 93.49986267089844 Z" stroke="none"/>
                                                      <path d="M 47.50000762939453 2.999992370605469 C 41.4912223815918 2.999992370605469 35.66377639770508 4.1761474609375 30.17951202392578 6.495796203613281 C 24.88085174560547 8.736930847167969 20.12152862548828 11.94596099853516 16.03376007080078 16.03372955322266 C 11.94597625732422 20.12148284912109 8.736961364746094 24.88080596923828 6.495803833007812 30.17946624755859 C 4.176162719726562 35.66371536254883 3.000007629394531 41.49116134643555 3.000007629394531 47.49993133544922 C 3.000007629394531 53.50870132446289 4.176162719726562 59.33614730834961 6.495803833007812 64.82038879394531 C 8.736961364746094 70.11905670166016 11.94597625732422 74.87836456298828 16.03376007080078 78.96613311767578 C 20.12152862548828 83.05390167236328 24.88085174560547 86.26291656494141 30.17951202392578 88.50406646728516 C 35.66377639770508 90.82369995117188 41.4912223815918 91.99985504150391 47.50000762939453 91.99985504150391 C 53.50879287719727 91.99985504150391 59.33623886108398 90.82369995117188 64.82049560546875 88.50406646728516 C 70.11916351318359 86.26291656494141 74.87848663330078 83.05390167236328 78.96625518798828 78.96613311767578 C 83.05403900146484 74.87836456298828 86.26305389404297 70.11905670166016 88.50421142578125 64.82038879394531 C 90.8238525390625 59.33614730834961 92.00000762939453 53.50870132446289 92.00000762939453 47.49993133544922 C 92.00000762939453 41.49116134643555 90.8238525390625 35.66371536254883 88.50421142578125 30.17946624755859 C 86.26305389404297 24.88080596923828 83.05403900146484 20.12148284912109 78.96625518798828 16.03372955322266 C 74.87848663330078 11.94596099853516 70.11916351318359 8.736930847167969 64.82049560546875 6.495796203613281 C 59.33623886108398 4.1761474609375 53.50879287719727 2.999992370605469 47.50000762939453 2.999992370605469 M 47.50000762939453 -7.62939453125e-06 C 73.73352813720703 -7.62939453125e-06 95.00000762939453 21.26644134521484 95.00000762939453 47.49993133544922 C 95.00000762939453 73.73342132568359 73.73352813720703 94.99985504150391 47.50000762939453 94.99985504150391 C 21.26648712158203 94.99985504150391 7.62939453125e-06 73.73342132568359 7.62939453125e-06 47.49993133544922 C 7.62939453125e-06 21.26644134521484 21.26648712158203 -7.62939453125e-06 47.50000762939453 -7.62939453125e-06 Z" stroke="none" fill="#41a599"/>
                                                    </g>
                                                  </g>
                                                </g>
                                              </g>
                                            </g>
                                          </g>
                                        </g>
                                      </g>
                                    </g>
                                  </g>
                                </g>
                              </g>
                            </g>
                          </g>
                        </g>
                      </g>
                    </g>
                  </g>
                </g>
              </g>
            </g>
          </g>
        </g>
      </g>
    </g>
    <g id="ergonomics_12310277" transform="translate(284.166 1747.893)">
      <g id="Grupo_1241510" data-name="Grupo 1241510" transform="translate(20.925 24.63)">
        <path id="Trazado_1295816" data-name="Trazado 1295816" d="M376.923,181.221h-9.69a2.758,2.758,0,0,1-1.786-.631,1.928,1.928,0,0,1,0-3.04,2.757,2.757,0,0,1,1.786-.631h9.69a2.758,2.758,0,0,1,1.786.631,1.928,1.928,0,0,1,0,3.04,2.757,2.757,0,0,1-1.786.631Z" transform="translate(-329.295 -168.81)" fill="#283366" fill-rule="evenodd"/>
        <path id="Trazado_1295817" data-name="Trazado 1295817" d="M373.069,181.074h-8.512a2.66,2.66,0,0,1-1.723-.61,1.862,1.862,0,0,1,0-2.935,2.66,2.66,0,0,1,1.723-.61h8.512a2.66,2.66,0,0,1,1.723.61,1.862,1.862,0,0,1,0,2.935A2.66,2.66,0,0,1,373.069,181.074Z" transform="translate(-327.034 -168.812)" fill="#545d85" fill-rule="evenodd"/>
        <path id="Trazado_1295818" data-name="Trazado 1295818" d="M86.173,334.882H98.727a2.109,2.109,0,0,1,0,4.2H86.173a2.109,2.109,0,0,1,0-4.2Z" transform="translate(-84.24 -306.831)" fill="#9c9c9c" fill-rule="evenodd"/>
        <path id="Trazado_1295819" data-name="Trazado 1295819" d="M86.154,339.818H97.409a1.794,1.794,0,1,1,0,3.58H86.154a1.794,1.794,0,1,1,0-3.58Z" transform="translate(-84.24 -311.143)" fill="#b3b3b3" fill-rule="evenodd"/>
        <path id="Trazado_1295820" data-name="Trazado 1295820" d="M107.064,137.077a1.547,1.547,0,0,1,.1.76l3.24,18.3a2.821,2.821,0,0,1-3.21,4.02,3.234,3.234,0,0,1-1.6-2.847l-2.718-16.124c-2.841-.107-5.145-.12-6.729-.111-2.861.015-3.988.1-5.414-.512A8.3,8.3,0,0,1,87,137.114l.171-20.253a3.586,3.586,0,0,1,.328-3.1c1.1-1.436,3.559-1.3,5-.228a4.275,4.275,0,0,1,1.571,2.955l1.248,4.626h.658l.08,4.995-1.953-.134q.056,4.642.111,9.283c1.475.053,2.736.1,3.713.141,6.3.25,8.6.4,9.136,1.679Z" transform="translate(-86.61 -112.701)" fill="#4697a3" fill-rule="evenodd"/>
        <path id="Trazado_1295821" data-name="Trazado 1295821" d="M123.567,179.321h10.144c4.672,0,4.374,4.861.125,4.861H121.911c-1.723,0-3.133-1.094-3.133-2.431s1.41-2.431,3.133-2.431Z" transform="translate(-114.417 -170.91)" fill="#f09058" fill-rule="evenodd"/>
        <path id="Trazado_1295822" data-name="Trazado 1295822" d="M123.194,179.321h8.356c4.307,0,4.033,4.549.115,4.549h-10c-1.589,0-2.888-1.024-2.888-2.275s1.3-2.275,2.888-2.275Z" transform="translate(-114.417 -170.91)" fill="#ffad7d" fill-rule="evenodd"/>
      </g>
      <ellipse id="Elipse_12505" data-name="Elipse 12505" cx="4.501" cy="4.226" rx="4.501" ry="4.226" transform="translate(20.234 13.318)" fill="#f09058"/>
      <path id="Trazado_1295823" data-name="Trazado 1295823" d="M78.646,31.353a4.191,4.191,0,0,1-3.908-3.935,3.908,3.908,0,1,1,7.816,0A4.191,4.191,0,0,1,78.646,31.353Z" transform="translate(-55.013 -10.116)" fill="#ffad7d" fill-rule="evenodd"/>
      <path id="Trazado_1295824" data-name="Trazado 1295824" d="M100.8,461.56a1.75,1.75,0,0,1-.014-3.5,1.722,1.722,0,0,1,1.131,3,2.1,2.1,0,0,1-1.117.5Z" transform="translate(-76.262 -389.826)" fill="#837683" fill-rule="evenodd"/>
      <path id="Trazado_1295825" data-name="Trazado 1295825" d="M172.768,466.678a1.607,1.607,0,1,1-.013-3.208c1.562.182,2.284,1.79,1.108,2.75a2.131,2.131,0,0,1-1.095.458Z" transform="translate(-139.173 -394.553)" fill="#837683" fill-rule="evenodd"/>
      <path id="Trazado_1295826" data-name="Trazado 1295826" d="M388.32,19.893h1.465c1.2,0,2.177,1.277,2.177,2.842v11.81c0,1.565-.978,2.842-2.177,2.842H388.32a.843.843,0,0,1-.712-.93V20.823A.843.843,0,0,1,388.32,19.893Z" transform="translate(-328.381 -6.98)" fill="#8589b3" fill-rule="evenodd"/>
      <path id="Trazado_1295827" data-name="Trazado 1295827" d="M388.546,22.961h.577c.919,0,1.669,1.236,1.669,2.752V37.147c0,1.515-.75,2.752-1.669,2.752h-.577c-.3,0-.546-.4-.546-.9V23.861c0-.5.244-.9.546-.9Z" transform="translate(-328.724 -9.661)" fill="#adb0db" fill-rule="evenodd"/>
      <path id="Trazado_1295828" data-name="Trazado 1295828" d="M42.821,49.961a3.348,3.348,0,0,0-3.343-3.283H29.238v-8.1H41.06a3.344,3.344,0,0,0,0-6.688H30.316l-1.1-4.086c-.71-2.628-2.218-4.075-4.246-4.075A4.277,4.277,0,0,0,20.693,28V49.093a4.259,4.259,0,0,0,1.273,3.039,2.669,2.669,0,0,0-1.745,1.53,7.685,7.685,0,0,1-1.849-5.292V28a6.008,6.008,0,0,1,.335-1.985.758.758,0,1,0-1.43-.5,7.487,7.487,0,0,0-.263.954,3.76,3.76,0,0,1-1.4-7.233A8.489,8.489,0,0,0,17.1,22.456a.758.758,0,1,0,1.206-.917A7.387,7.387,0,0,1,17.6,14a.758.758,0,0,0-1.363-.662A8.839,8.839,0,0,0,15.39,17.7a5.275,5.275,0,0,0,1.467,10.278c0,.007,0,.013,0,.02V48.37c0,2.484.841,5.574,3.164,7.06a3.132,3.132,0,0,0,3.094,2.676h5.264v6.931H25.906c-2.046,0-2.231,1.526-2.248,2.721a2.457,2.457,0,1,0,1.516.031c.019-1.236.169-1.237.733-1.237h5.958c.578,0,.734,0,.735,1.74a2.453,2.453,0,1,0,1.515-.225c-.006-1.347-.124-3.031-2.249-3.031h-1.97V58.105h5.264a3.113,3.113,0,0,0,2.024-.746l1.943,12.768c.276,1.813,1.588,2.811,3.695,2.811a.767.767,0,0,0,.114-.009,3.347,3.347,0,0,0,2.8-3.809l-2.915-19.16ZM24.371,71.045a.939.939,0,1,1,.939-.939A.94.94,0,0,1,24.371,71.045Zm10.266-.561a.939.939,0,1,1-.939-.939A.94.94,0,0,1,34.637,70.483Zm2.134-15.506a1.614,1.614,0,0,1-1.612,1.612H23.115A1.614,1.614,0,0,1,21.5,54.978c0-1.236.66-1.612,2.824-1.612a.758.758,0,0,0,.187-.024,4.311,4.311,0,0,0,.452.024h11.61l.218,1.433a.76.76,0,0,0-.022.18ZM42.76,71.422C41.07,71.4,40.73,70.6,40.623,69.9l-2.648-17.4a.757.757,0,0,0-.749-.644H24.965a2.761,2.761,0,0,1-2.758-2.758V28a2.761,2.761,0,0,1,2.758-2.758c1.641,0,2.42,1.607,2.784,2.955L29,32.845a.757.757,0,0,0,.731.56H41.06a1.829,1.829,0,0,1,0,3.657H28.506c-1.475,0-1.862-.19-2.059-.54-.349-.619-.38-2.065-.386-4.04a.757.757,0,0,0-.758-.756h0a.758.758,0,0,0-.756.76c.012,4.283.17,5.855,3.178,6.066v8.883a.758.758,0,0,0,.758.758h11a1.831,1.831,0,0,1,1.829,1.829.764.764,0,0,0,.009.114l2.923,19.213a1.831,1.831,0,0,1-1.479,2.074ZM24.639,22.458a5.277,5.277,0,1,0-5.277-5.277A5.283,5.283,0,0,0,24.639,22.458Zm0-9.039a3.762,3.762,0,1,1-3.762,3.762A3.766,3.766,0,0,1,24.639,13.419Zm48.5,22.931h-1.48a2.6,2.6,0,0,0,.254-1.12,2.668,2.668,0,0,0-.487-1.538.756.756,0,0,0-.08-.184l-7-11.525v-6.74A2.852,2.852,0,0,0,61.49,12.4H59.4a.758.758,0,0,0-.758.758v17.1a.758.758,0,0,0,.758.758H61.49a2.852,2.852,0,0,0,2.849-2.849V24.9l4.645,7.644H57.938a2.688,2.688,0,0,0-2.685,2.685,2.588,2.588,0,0,0,.256,1.12H47.495a.758.758,0,1,0,0,1.515H62.823V71.423H54.243a.758.758,0,0,0,0,1.515H66.292a.758.758,0,0,0,0-1.515H64.339V37.865h8.8a.758.758,0,1,0,0-1.515ZM62.824,28.157a1.335,1.335,0,0,1-1.334,1.334H60.157V13.91H61.49a1.335,1.335,0,0,1,1.334,1.334Zm-5.037,8.184a1.122,1.122,0,0,1-1.019-1.111,1.172,1.172,0,0,1,1.17-1.17H69.224a1.172,1.172,0,0,1,1.17,1.17,1.111,1.111,0,0,1-.87,1.084.749.749,0,0,0-.107.036H57.839l-.052-.009Zm-7.154,5.541a.758.758,0,0,1-.758.758H35.807a.758.758,0,1,1,0-1.515H49.875A.758.758,0,0,1,50.633,41.882Z"/>
    </g>
  </g>
</svg>
