<svg xmlns="http://www.w3.org/2000/svg" xmlns:xlink="http://www.w3.org/1999/xlink" width="113" height="113" viewBox="0 0 113 113">
  <defs>
    <filter id="Trazado_982547" x="0" y="0" width="113" height="113" filterUnits="userSpaceOnUse">
      <feOffset dy="3" input="SourceAlpha"/>
      <feGaussianBlur stdDeviation="3" result="blur"/>
      <feFlood flood-opacity="0.161"/>
      <feComposite operator="in" in2="blur"/>
      <feComposite in="SourceGraphic"/>
    </filter>
  </defs>
  <g id="Grupo_1241531" data-name="Grupo 1241531" transform="translate(-585.5 -1736.813)">
    <g id="Grupo_1241079" data-name="Grupo 1241079" transform="translate(-84.99 -10946.354)">
      <g id="Grupo_1240427" data-name="Grupo 1240427" transform="translate(679.49 12689.167)">
        <g id="Grupo_1239780" data-name="Grupo 1239780" transform="translate(0 0)">
          <g id="Grupo_1236603" data-name="Grupo 1236603">
            <g id="Grupo_1236145" data-name="Grupo 1236145">
              <g id="Grupo_1235107" data-name="Grupo 1235107">
                <g id="Grupo_1223796" data-name="Grupo 1223796">
                  <g id="Grupo_1208038" data-name="Grupo 1208038">
                    <g id="Grupo_1202104" data-name="Grupo 1202104">
                      <g id="Grupo_1201923" data-name="Grupo 1201923">
                        <g id="Grupo_1176928" data-name="Grupo 1176928" transform="translate(0)">
                          <g id="Grupo_1172322" data-name="Grupo 1172322">
                            <g id="Grupo_1164700" data-name="Grupo 1164700">
                              <g id="Grupo_1160931" data-name="Grupo 1160931">
                                <g id="Grupo_1160749" data-name="Grupo 1160749">
                                  <g id="Grupo_1158891" data-name="Grupo 1158891">
                                    <g id="Grupo_1157406" data-name="Grupo 1157406">
                                      <g id="Grupo_1155793" data-name="Grupo 1155793">
                                        <g id="Grupo_1154704" data-name="Grupo 1154704">
                                          <g id="Grupo_1150790" data-name="Grupo 1150790">
                                            <g id="Grupo_1154214" data-name="Grupo 1154214" transform="translate(0)">
                                              <g id="Grupo_1152583" data-name="Grupo 1152583">
                                                <g id="Grupo_1146973" data-name="Grupo 1146973">
                                                  <g id="Grupo_1146954" data-name="Grupo 1146954">
                                                    <g transform="matrix(1, 0, 0, 1, -9, -6)" filter="url(#Trazado_982547)">
                                                      <g id="Trazado_982547-2" data-name="Trazado 982547" transform="translate(9 6)" fill="#c4e3df">
                                                        <path d="M 47.50000762939453 93.49986267089844 C 41.28937911987305 93.49986267089844 35.26534271240234 92.28383636474609 29.59519386291504 89.88558197021484 C 24.11772727966309 87.56880950927734 19.19814109802246 84.25183868408203 14.97310066223145 80.02679443359375 C 10.74804782867432 75.8017578125 7.431074142456055 70.88218688964844 5.114300727844238 65.40471649169922 C 2.716034412384033 59.73458480834961 1.500007629394531 53.71054458618164 1.500007629394531 47.49993133544922 C 1.500007629394531 41.2893180847168 2.716034412384033 35.26527786254883 5.114300727844238 29.59514427185059 C 7.431074142456055 24.11767768859863 10.74804782867432 19.19810485839844 14.97310066223145 14.97306442260742 C 19.19814109802246 10.74802494049072 24.11772727966309 7.431051254272461 29.59519386291504 5.114277839660645 C 35.26534271240234 2.71602463722229 41.28937911987305 1.499997973442078 47.50000762939453 1.499997973442078 C 53.71063613891602 1.499997973442078 59.73467254638672 2.71602463722229 65.40482330322266 5.114277839660645 C 70.88228607177734 7.431051254272461 75.80187225341797 10.74802494049072 80.02691650390625 14.97306442260742 C 84.25196838378906 19.19810485839844 87.56893920898438 24.11767768859863 89.88571166992188 29.59514427185059 C 92.28398132324219 35.26527786254883 93.50000762939453 41.2893180847168 93.50000762939453 47.49993133544922 C 93.50000762939453 53.71054458618164 92.28398132324219 59.73458480834961 89.88571166992188 65.40471649169922 C 87.56893920898438 70.88218688964844 84.25196838378906 75.8017578125 80.02691650390625 80.02679443359375 C 75.80187225341797 84.25183868408203 70.88228607177734 87.56880950927734 65.40482330322266 89.88558197021484 C 59.73467254638672 92.28383636474609 53.71063613891602 93.49986267089844 47.50000762939453 93.49986267089844 Z" stroke="none"/>
                                                        <path d="M 47.50000762939453 2.999992370605469 C 41.4912223815918 2.999992370605469 35.66377639770508 4.1761474609375 30.17951202392578 6.495796203613281 C 24.88085174560547 8.736930847167969 20.12152862548828 11.94596099853516 16.03376007080078 16.03372955322266 C 11.94597625732422 20.12148284912109 8.736961364746094 24.88080596923828 6.495803833007812 30.17946624755859 C 4.176162719726562 35.66371536254883 3.000007629394531 41.49116134643555 3.000007629394531 47.49993133544922 C 3.000007629394531 53.50870132446289 4.176162719726562 59.33614730834961 6.495803833007812 64.82038879394531 C 8.736961364746094 70.11905670166016 11.94597625732422 74.87836456298828 16.03376007080078 78.96613311767578 C 20.12152862548828 83.05390167236328 24.88085174560547 86.26291656494141 30.17951202392578 88.50406646728516 C 35.66377639770508 90.82369995117188 41.4912223815918 91.99985504150391 47.50000762939453 91.99985504150391 C 53.50879287719727 91.99985504150391 59.33623886108398 90.82369995117188 64.82049560546875 88.50406646728516 C 70.11916351318359 86.26291656494141 74.87848663330078 83.05390167236328 78.96625518798828 78.96613311767578 C 83.05403900146484 74.87836456298828 86.26305389404297 70.11905670166016 88.50421142578125 64.82038879394531 C 90.8238525390625 59.33614730834961 92.00000762939453 53.50870132446289 92.00000762939453 47.49993133544922 C 92.00000762939453 41.49116134643555 90.8238525390625 35.66371536254883 88.50421142578125 30.17946624755859 C 86.26305389404297 24.88080596923828 83.05403900146484 20.12148284912109 78.96625518798828 16.03372955322266 C 74.87848663330078 11.94596099853516 70.11916351318359 8.736930847167969 64.82049560546875 6.495796203613281 C 59.33623886108398 4.1761474609375 53.50879287719727 2.999992370605469 47.50000762939453 2.999992370605469 M 47.50000762939453 -7.62939453125e-06 C 73.73352813720703 -7.62939453125e-06 95.00000762939453 21.26644134521484 95.00000762939453 47.49993133544922 C 95.00000762939453 73.73342132568359 73.73352813720703 94.99985504150391 47.50000762939453 94.99985504150391 C 21.26648712158203 94.99985504150391 7.62939453125e-06 73.73342132568359 7.62939453125e-06 47.49993133544922 C 7.62939453125e-06 21.26644134521484 21.26648712158203 -7.62939453125e-06 47.50000762939453 -7.62939453125e-06 Z" stroke="none" fill="#41a599"/>
                                                      </g>
                                                    </g>
                                                  </g>
                                                </g>
                                              </g>
                                            </g>
                                          </g>
                                        </g>
                                      </g>
                                    </g>
                                  </g>
                                </g>
                              </g>
                            </g>
                          </g>
                        </g>
                      </g>
                    </g>
                  </g>
                </g>
              </g>
            </g>
          </g>
        </g>
      </g>
    </g>
    <g id="lista-de-quehaceres_1_" data-name="lista-de-quehaceres (1)" transform="translate(593.335 1757.906)">
      <g id="Grupo_1241512" data-name="Grupo 1241512" transform="translate(26.638 5.083)">
        <path id="Trazado_1295829" data-name="Trazado 1295829" d="M123.353,94.083h-38.7a2.658,2.658,0,0,1-2.658-2.658V42.813a2.658,2.658,0,0,1,2.658-2.658h38.7a2.658,2.658,0,0,1,2.658,2.658V91.424A2.658,2.658,0,0,1,123.353,94.083Z" transform="translate(-81.995 -40.155)" fill="#c6865c"/>
      </g>
      <g id="Grupo_1241513" data-name="Grupo 1241513" transform="translate(26.638 5.083)">
        <path id="Trazado_1295830" data-name="Trazado 1295830" d="M123.381,40.155h-1.223V87.6a2.631,2.631,0,0,1-2.631,2.631H82v1.223a2.631,2.631,0,0,0,2.631,2.631h38.755a2.631,2.631,0,0,0,2.631-2.631V42.786a2.631,2.631,0,0,0-2.631-2.631Z" transform="translate(-81.995 -40.155)" fill="#b16e3d"/>
      </g>
      <g id="Grupo_1241514" data-name="Grupo 1241514" transform="translate(32.061 5.073)">
        <path id="Trazado_1295831" data-name="Trazado 1295831" d="M157.374,85.4h-31.9a.633.633,0,0,1-.633-.633V40.706a.633.633,0,0,1,.633-.633h31.9a.633.633,0,0,1,.633.633V84.771A.633.633,0,0,1,157.374,85.4Z" transform="translate(-124.837 -40.073)" fill="#f9f6f9"/>
      </g>
      <g id="Grupo_1241515" data-name="Grupo 1241515" transform="translate(32.061 5.073)">
        <path id="Trazado_1295832" data-name="Trazado 1295832" d="M157.381,40.073H154.76V81.53a.626.626,0,0,1-.626.626h-29.3v2.621a.626.626,0,0,0,.626.626h31.917a.626.626,0,0,0,.626-.626V40.7A.626.626,0,0,0,157.381,40.073Z" transform="translate(-124.837 -40.073)" fill="#dddaec"/>
      </g>
      <g id="Grupo_1241516" data-name="Grupo 1241516" transform="translate(29.784 31.352)">
        <circle id="Elipse_12506" data-name="Elipse 12506" cx="7.689" cy="7.689" r="7.689" fill="#b3e59f"/>
      </g>
      <g id="Grupo_1241517" data-name="Grupo 1241517" transform="translate(19.555 14.25)">
        <circle id="Elipse_12507" data-name="Elipse 12507" cx="7.689" cy="7.689" r="7.689" transform="translate(0)" fill="#b3e59f"/>
      </g>
      <g id="Grupo_1241518" data-name="Grupo 1241518" transform="translate(48.426 33.05)">
        <path id="Trazado_1295833" data-name="Trazado 1295833" d="M270.92,272.8H256.258a2.141,2.141,0,0,1-2.141-2.141v-7.434a2.141,2.141,0,0,1,2.141-2.141H270.92a2.141,2.141,0,0,1,2.141,2.141v7.434A2.141,2.141,0,0,1,270.92,272.8Z" transform="translate(-254.117 -261.083)" fill="#dddaec"/>
      </g>
      <g id="Grupo_1241519" data-name="Grupo 1241519" transform="translate(40.188 48.495)">
        <circle id="Elipse_12508" data-name="Elipse 12508" cx="7.689" cy="7.689" r="7.689" transform="translate(0)" fill="#b3e59f"/>
      </g>
      <g id="Grupo_1241520" data-name="Grupo 1241520" transform="translate(30.631 32.199)">
        <path id="Trazado_1295834" data-name="Trazado 1295834" d="M123.884,254.359a7.688,7.688,0,0,1-10.349,10.349,7.688,7.688,0,1,0,10.349-10.349Z" transform="translate(-113.535 -254.359)" fill="#95d6a4"/>
      </g>
      <g id="Grupo_1241521" data-name="Grupo 1241521" transform="translate(20.402 15.097)">
        <path id="Trazado_1295835" data-name="Trazado 1295835" d="M43.077,119.262a7.688,7.688,0,0,1-10.349,10.349,7.688,7.688,0,1,0,10.349-10.349Z" transform="translate(-32.728 -119.262)" fill="#95d6a4"/>
      </g>
      <g id="Grupo_1241522" data-name="Grupo 1241522" transform="translate(41.035 49.342)">
        <path id="Trazado_1295836" data-name="Trazado 1295836" d="M206.075,389.789a7.688,7.688,0,0,1-10.349,10.349,7.688,7.688,0,1,0,10.349-10.349Z" transform="translate(-195.726 -389.789)" fill="#95d6a4"/>
      </g>
      <g id="Grupo_1241523" data-name="Grupo 1241523" transform="translate(58.831 49.943)">
        <path id="Trazado_1295837" data-name="Trazado 1295837" d="M353.11,406.252H338.448a2.141,2.141,0,0,1-2.141-2.141v-7.434a2.141,2.141,0,0,1,2.141-2.141H353.11a2.141,2.141,0,0,1,2.141,2.141v7.434A2.141,2.141,0,0,1,353.11,406.252Z" transform="translate(-336.307 -394.535)" fill="#dddaec"/>
      </g>
      <g id="Grupo_1241524" data-name="Grupo 1241524" transform="translate(38.197 16.08)">
        <path id="Trazado_1295838" data-name="Trazado 1295838" d="M190.113,138.747H175.451a2.141,2.141,0,0,1-2.141-2.141v-7.434a2.141,2.141,0,0,1,2.141-2.141h14.662a2.141,2.141,0,0,1,2.141,2.141v7.434A2.141,2.141,0,0,1,190.113,138.747Z" transform="translate(-173.31 -127.03)" fill="#dddaec"/>
      </g>
      <g id="Grupo_1241525" data-name="Grupo 1241525" transform="translate(48.426 33.05)">
        <path id="Trazado_1295839" data-name="Trazado 1295839" d="M270.942,261.083h0v8.56a1.033,1.033,0,0,1-1.033,1.033H254.117v0a2.119,2.119,0,0,0,2.119,2.119h14.706a2.119,2.119,0,0,0,2.119-2.119V263.2A2.119,2.119,0,0,0,270.942,261.083Z" transform="translate(-254.117 -261.083)" fill="#d0cee7"/>
      </g>
      <g id="Grupo_1241526" data-name="Grupo 1241526" transform="translate(58.831 49.943)">
        <path id="Trazado_1295840" data-name="Trazado 1295840" d="M353.132,394.534h0v8.56a1.034,1.034,0,0,1-1.033,1.034H336.307v0a2.119,2.119,0,0,0,2.119,2.119h14.706a2.119,2.119,0,0,0,2.119-2.119v-7.479A2.119,2.119,0,0,0,353.132,394.534Z" transform="translate(-336.307 -394.534)" fill="#d0cee7"/>
      </g>
      <g id="Grupo_1241527" data-name="Grupo 1241527" transform="translate(38.197 16.08)">
        <path id="Trazado_1295841" data-name="Trazado 1295841" d="M190.134,127.029h0v8.56a1.034,1.034,0,0,1-1.034,1.034H173.309v0a2.119,2.119,0,0,0,2.119,2.119h14.706a2.119,2.119,0,0,0,2.119-2.119v-7.479A2.119,2.119,0,0,0,190.134,127.029Z" transform="translate(-173.309 -127.029)" fill="#d0cee7"/>
      </g>
      <g id="Grupo_1241528" data-name="Grupo 1241528" transform="translate(38.358 3.925)">
        <path id="Trazado_1295842" data-name="Trazado 1295842" d="M194.143,31H175.592a1.013,1.013,0,0,0-1.013,1.013v2.461a1.013,1.013,0,0,0,1.013,1.013h18.551a1.013,1.013,0,0,0,1.013-1.013V32.018A1.013,1.013,0,0,0,194.143,31Z" transform="translate(-174.579 -31.005)" fill="#e28086"/>
      </g>
      <g id="Grupo_1241529" data-name="Grupo 1241529" transform="translate(38.358 3.925)">
        <path id="Trazado_1295843" data-name="Trazado 1295843" d="M194.154,31h-.841v1.641a1,1,0,0,1-1,1H174.579v.841a1,1,0,0,0,1,1h18.572a1,1,0,0,0,1-1V32.007A1,1,0,0,0,194.154,31Z" transform="translate(-174.579 -31.005)" fill="#dd636e"/>
      </g>
      <g id="Grupo_1241530" data-name="Grupo 1241530" transform="translate(18.615 0)">
        <path id="Trazado_1295844" data-name="Trazado 1295844" d="M295.273,283.7h-9.217a.94.94,0,0,0,0,1.879h9.217a.94.94,0,0,0,0-1.879Z" transform="translate(-251.38 -247.788)"/>
        <path id="Trazado_1295845" data-name="Trazado 1295845" d="M289.156,316.29h-3.1a.94.94,0,0,0,0,1.879h3.1a.94.94,0,0,0,0-1.879Z" transform="translate(-251.38 -276.252)"/>
        <path id="Trazado_1295846" data-name="Trazado 1295846" d="M75.656,49H71.594V23.464a.94.94,0,0,0-1.879,0V49H66.171V45.565a3.064,3.064,0,0,0,2.139-2.917V35.169a3.064,3.064,0,0,0-2.139-2.917V6.023h1.853a1.693,1.693,0,0,1,1.691,1.691V19.06a.94.94,0,1,0,1.879,0V7.714a3.574,3.574,0,0,0-3.57-3.57H59.708a1.944,1.944,0,0,0-1.775-1.158H52.592a4.1,4.1,0,0,0-7.891,0H39.36a1.944,1.944,0,0,0-1.775,1.158H29.269a3.574,3.574,0,0,0-3.57,3.57v5.738a8.626,8.626,0,0,0,0,16.974V56.38a3.574,3.574,0,0,0,3.57,3.57h10.85a8.627,8.627,0,0,0,1.838,2.511.94.94,0,1,0,1.289-1.367,6.688,6.688,0,0,1-2.119-4.91,6.741,6.741,0,1,1,5.525,6.639.94.94,0,1,0-.338,1.848,8.637,8.637,0,0,0,9.325-4.721h2.281A3.063,3.063,0,0,0,60.95,62.6H75.656a3.062,3.062,0,0,0,3.059-3.059V52.062A3.062,3.062,0,0,0,75.656,49Zm-9.225-6.356a1.181,1.181,0,0,1-1.18,1.18H50.546a1.181,1.181,0,0,1-1.18-1.18V35.169a1.181,1.181,0,0,1,1.18-1.18H65.252a1.181,1.181,0,0,1,1.18,1.18v7.479ZM48.646,1.879a2.228,2.228,0,0,1,1.918,1.106H46.726a2.22,2.22,0,0,1,1.921-1.106ZM39.3,4.927a.063.063,0,0,1,.063-.063H57.933A.063.063,0,0,1,58,4.927V7.409a.063.063,0,0,1-.063.063H39.36a.063.063,0,0,1-.063-.063Zm2.839,4.424h13.02v.213a1.884,1.884,0,0,1-1.834,1.911,1.792,1.792,0,0,1-.852-.2,3.2,3.2,0,0,0-2.958-.013,1.849,1.849,0,0,1-1.73,0,3.2,3.2,0,0,0-2.958.013,1.833,1.833,0,0,1-.852.2,1.884,1.884,0,0,1-1.834-1.911ZM20.494,21.939a6.749,6.749,0,1,1,6.749,6.749A6.757,6.757,0,0,1,20.494,21.939Zm10.229,17.1a6.749,6.749,0,1,1,6.749,6.749,6.757,6.757,0,0,1-6.749-6.749ZM29.269,58.071a1.693,1.693,0,0,1-1.691-1.691V30.559a8.566,8.566,0,0,0,3.544-.916v3.564a8.609,8.609,0,0,0,0,11.667v4.9a1.568,1.568,0,0,0,1.566,1.566h8.051a8.568,8.568,0,0,0-1.277,6.728H29.269Zm13.2-8.608H33V46.417a8.628,8.628,0,1,0,0-14.754v-3.3a8.622,8.622,0,0,0-5.423-15.04V7.714a1.693,1.693,0,0,1,1.691-1.691h1.853v4.863a.94.94,0,1,0,1.879,0V6.023h4.418V7.409A1.944,1.944,0,0,0,39.36,9.351h.9v.213a3.768,3.768,0,0,0,3.7,3.79,3.722,3.722,0,0,0,1.722-.409,1.317,1.317,0,0,1,1.217-.027,3.727,3.727,0,0,0,3.5,0,1.318,1.318,0,0,1,1.217.027,3.726,3.726,0,0,0,1.722.409,3.768,3.768,0,0,0,3.7-3.791V9.351h.9a1.944,1.944,0,0,0,1.942-1.942V6.023h4.418V32.11H50.546a3.062,3.062,0,0,0-3.059,3.059v7.479a3.062,3.062,0,0,0,3.059,3.059H64.292V49H60.95a3.041,3.041,0,0,0-1.611.46H53.28a8.6,8.6,0,0,0-10.806,0Zm12.541,1.879h2.962a3.055,3.055,0,0,0-.086.719v6.009h-1.6a8.6,8.6,0,0,0-1.28-6.728Zm21.82,8.2a1.181,1.181,0,0,1-1.18,1.18H60.95a1.181,1.181,0,0,1-1.18-1.18V52.062a1.181,1.181,0,0,1,1.18-1.18H75.656a1.181,1.181,0,0,1,1.18,1.18v7.479Z" transform="translate(-18.615 0)"/>
        <path id="Trazado_1295847" data-name="Trazado 1295847" d="M377.464,417.153h-9.217a.94.94,0,0,0,0,1.879h9.217a.94.94,0,0,0,0-1.879Z" transform="translate(-323.167 -364.347)"/>
        <path id="Trazado_1295848" data-name="Trazado 1295848" d="M375.341,449.741h-7.095a.94.94,0,0,0,0,1.879h7.095a.94.94,0,1,0,0-1.879Z" transform="translate(-323.167 -392.81)"/>
        <path id="Trazado_1295849" data-name="Trazado 1295849" d="M186.711,130.145v-7.479a3.062,3.062,0,0,0-3.059-3.059H168.946a3.062,3.062,0,0,0-3.059,3.059v7.479a3.062,3.062,0,0,0,3.059,3.059h14.706A3.062,3.062,0,0,0,186.711,130.145Zm-18.944,0v-7.479a1.181,1.181,0,0,1,1.18-1.18h14.706a1.181,1.181,0,0,1,1.18,1.18v7.479a1.181,1.181,0,0,1-1.18,1.18H168.946A1.181,1.181,0,0,1,167.766,130.145Z" transform="translate(-147.244 -104.466)"/>
        <path id="Trazado_1295850" data-name="Trazado 1295850" d="M214.466,149.648h-9.217a.94.94,0,0,0,0,1.879h9.217a.94.94,0,0,0,0-1.879Z" transform="translate(-180.803 -130.705)"/>
        <path id="Trazado_1295851" data-name="Trazado 1295851" d="M214.466,182.236h-9.217a.94.94,0,1,0,0,1.879h9.217a.94.94,0,1,0,0-1.879Z" transform="translate(-180.803 -159.167)"/>
        <path id="Trazado_1295852" data-name="Trazado 1295852" d="M149.456,279.336a.94.94,0,0,0-.951-.928c-.687.009-1.413.015-2.038.016.406-.546.953-1.3,1.67-2.322a5.773,5.773,0,0,0,.941-1.951.893.893,0,0,0,.017-.093l.037-.289a.941.941,0,0,0,.008-.119,2.854,2.854,0,0,0-5.655-.552.94.94,0,0,0,1.844.362.975.975,0,0,1,1.931.14l-.022.168a4.137,4.137,0,0,1-.64,1.257c-1.184,1.692-1.891,2.617-2.27,3.114-.474.62-.711.931-.553,1.446a.973.973,0,0,0,.632.641,6.148,6.148,0,0,0,1.7.079c.573,0,1.352-.006,2.418-.019a.94.94,0,0,0,.928-.951Z" transform="translate(-127.662 -236.517)"/>
        <path id="Trazado_1295853" data-name="Trazado 1295853" d="M69.959,147.723v-7.483a.94.94,0,0,0-.94-.94h-1.6a.94.94,0,1,0,0,1.879h.66v6.543a.94.94,0,0,0,1.879,0Z" transform="translate(-60.421 -121.667)"/>
        <path id="Trazado_1295854" data-name="Trazado 1295854" d="M229.624,416.639a5.022,5.022,0,1,0-2.8-7.236.94.94,0,0,0,1.844.362.975.975,0,1,1,.957,1.165.94.94,0,1,0,0,1.879.975.975,0,1,1-.966,1.112.991.991,0,0,1-.009-.137.94.94,0,1,0-1.879,0,2.852,2.852,0,0,0,2.854,2.854Z" transform="translate(-200.42 -355.567)"/>
      </g>
    </g>
  </g>
</svg>
