<svg xmlns="http://www.w3.org/2000/svg" xmlns:xlink="http://www.w3.org/1999/xlink" width="108" height="108" viewBox="0 0 108 108">
  <defs>
    <filter id="Trazado_904820" x="0" y="0" width="108" height="108" filterUnits="userSpaceOnUse">
      <feOffset dy="3" input="SourceAlpha"/>
      <feGaussianBlur stdDeviation="3" result="blur"/>
      <feFlood flood-opacity="0.161"/>
      <feComposite operator="in" in2="blur"/>
      <feComposite in="SourceGraphic"/>
    </filter>
  </defs>
  <g id="Grupo_1242247" data-name="Grupo 1242247" transform="translate(-619 -4483.399)">
    <g id="Grupo_1241833" data-name="Grupo 1241833" transform="translate(628 4489.399)">
      <g id="Grupo_1233874" data-name="Grupo 1233874" transform="translate(0 0)">
        <g id="Grupo_1173585" data-name="Grupo 1173585" transform="translate(0 0)">
          <g id="Grupo_1173428" data-name="Grupo 1173428">
            <g id="Grupo_1171958" data-name="Grupo 1171958">
              <g id="Grupo_1167341" data-name="Grupo 1167341">
                <g id="Grupo_1166792" data-name="Grupo 1166792">
                  <g transform="matrix(1, 0, 0, 1, -9, -6)" filter="url(#Trazado_904820)">
                    <g id="Trazado_904820-2" data-name="Trazado 904820" transform="translate(9 6)" fill="#fcebe9">
                      <path d="M 44.99999618530273 88.5 C 39.12687301635742 88.5 33.43022155761719 87.35008239746094 28.06829643249512 85.08216857910156 C 22.88852119445801 82.89131927490234 18.23629570007324 79.75459289550781 14.24084663391113 75.75914001464844 C 10.24540901184082 71.76369476318359 7.108683586120605 67.11146545410156 4.917821407318115 61.93170547485352 C 2.649921178817749 56.56976699829102 1.499996185302734 50.87312698364258 1.499996185302734 45.00000381469727 C 1.499996185302734 39.12688064575195 2.649921178817749 33.43022918701172 4.917821407318115 28.06830406188965 C 7.108683586120605 22.88852882385254 10.24540901184082 18.23630332946777 14.24084663391113 14.24085426330566 C 18.23629570007324 10.24541664123535 22.88852119445801 7.108691215515137 28.06829643249512 4.917829036712646 C 33.43022155761719 2.64992880821228 39.12687301635742 1.500003814697266 44.99999618530273 1.500003814697266 C 50.87311935424805 1.500003814697266 56.56977081298828 2.64992880821228 61.93169784545898 4.917829036712646 C 67.11147308349609 7.108691215515137 71.76369476318359 10.24541664123535 75.75914764404297 14.24085426330566 C 79.75458526611328 18.23630332946777 82.89131164550781 22.88852882385254 85.08216857910156 28.06830406188965 C 87.35007476806641 33.43022918701172 88.5 39.12688064575195 88.5 45.00000381469727 C 88.5 50.87312698364258 87.35007476806641 56.56976699829102 85.08216857910156 61.93170547485352 C 82.89131164550781 67.11146545410156 79.75458526611328 71.76369476318359 75.75914764404297 75.75914001464844 C 71.76369476318359 79.75459289550781 67.11147308349609 82.89131927490234 61.93169784545898 85.08216857910156 C 56.56977081298828 87.35008239746094 50.87311935424805 88.5 44.99999618530273 88.5 Z" stroke="none"/>
                      <path d="M 44.99999618530273 3.000007629394531 C 39.32870864868164 3.000007629394531 33.82865142822266 4.110061645507812 28.65262603759766 6.299346923828125 C 23.65165710449219 8.414573669433594 19.15968322753906 11.44334411621094 15.301513671875 15.30152130126953 C 11.44333648681641 19.15969085693359 8.414566040039062 23.65166473388672 6.299339294433594 28.65263366699219 C 4.110054016113281 33.82865905761719 2.999992370605469 39.32871627807617 2.999992370605469 45.00000381469727 C 2.999992370605469 50.67129135131836 4.110054016113281 56.17133331298828 6.299339294433594 61.34737396240234 C 8.414566040039062 66.34834289550781 11.44333648681641 70.84030151367188 15.301513671875 74.698486328125 C 19.15968322753906 78.55666351318359 23.65165710449219 81.58543395996094 28.65262603759766 83.70066070556641 C 33.82865142822266 85.88994598388672 39.32870864868164 87 44.99999618530273 87 C 50.67128372192383 87 56.17134094238281 85.88994598388672 61.34736633300781 83.70066070556641 C 66.34834289550781 81.58543395996094 70.84030914306641 78.55666351318359 74.69847869873047 74.698486328125 C 78.55665588378906 70.84030151367188 81.58542633056641 66.34834289550781 83.70065307617188 61.34737396240234 C 85.88993835449219 56.17133331298828 87 50.67129135131836 87 45.00000381469727 C 87 39.32871627807617 85.88993835449219 33.82865905761719 83.70065307617188 28.65263366699219 C 81.58542633056641 23.65166473388672 78.55665588378906 19.15969085693359 74.69847869873047 15.30152130126953 C 70.84030914306641 11.44334411621094 66.34834289550781 8.414573669433594 61.34736633300781 6.299346923828125 C 56.17134094238281 4.110061645507812 50.67128372192383 3.000007629394531 44.99999618530273 3.000007629394531 M 44.99999618530273 7.62939453125e-06 C 69.85281372070312 7.62939453125e-06 90 20.14718627929688 90 45.00000381469727 C 90 69.85280609130859 69.85281372070312 90 44.99999618530273 90 C 20.14717864990234 90 -7.62939453125e-06 69.85280609130859 -7.62939453125e-06 45.00000381469727 C -7.62939453125e-06 20.14718627929688 20.14717864990234 7.62939453125e-06 44.99999618530273 7.62939453125e-06 Z" stroke="none" fill="#e44b36"/>
                    </g>
                  </g>
                </g>
              </g>
            </g>
          </g>
        </g>
      </g>
    </g>
    <g id="proteger_11_" data-name="proteger (11)" transform="translate(643.545 4506.339)">
      <path id="Trazado_1295990" data-name="Trazado 1295990" d="M90.651,284.387,79.13,292.1,75.7,291.9l-.134-1.352a4.387,4.387,0,0,0-3.751-3.91L59.63,285.576c-1.194-.169-3.7-1.5-5.673-2.626a12.528,12.528,0,0,0-6.126-1.665l-6.193-.051v15.14l17.53,6.639a4.766,4.766,0,0,0,2.038.135l.012,0L78.867,300.6a7.812,7.812,0,0,0,3.7-1.66l11.407-10.259a2.724,2.724,0,0,0-3.328-4.3Zm0,0" transform="translate(-36.846 -248.434)" fill="#fae0c1"/>
      <path id="Trazado_1295991" data-name="Trazado 1295991" d="M94.422,312.552a2.719,2.719,0,0,0-.249-.314l-11.6,8.52a7.809,7.809,0,0,1-3.7,1.66l-17.649,2.544-.012,0a4.772,4.772,0,0,1-2.038-.136l-17.53-6.638v5.622l17.53,6.639a4.764,4.764,0,0,0,2.038.135l.012,0,17.649-2.544a7.812,7.812,0,0,0,3.7-1.66l11.407-10.259a2.724,2.724,0,0,0,.443-3.569Zm0,0" transform="translate(-36.846 -275.871)" fill="#efd0af"/>
      <path id="Trazado_1295992" data-name="Trazado 1295992" d="M15.962,268.9H8.68a1.192,1.192,0,0,1-1.191-1.191V245.476a1.192,1.192,0,0,1,1.191-1.191h7.282a1.192,1.192,0,0,1,1.191,1.191v22.234A1.191,1.191,0,0,1,15.962,268.9Zm0,0" transform="translate(-6.626 -215.736)" fill="#f43b45"/>
      <path id="Trazado_1295993" data-name="Trazado 1295993" d="M47.139,244.285h-4.42V268.9h4.42a1.192,1.192,0,0,0,1.191-1.191V245.476A1.192,1.192,0,0,0,47.139,244.285Zm0,0" transform="translate(-37.803 -215.736)" fill="#cf3735"/>
      <path id="Trazado_1295994" data-name="Trazado 1295994" d="M151.2,15.7a8.43,8.43,0,0,1-5.163-7.051.833.833,0,0,0-.836-.756l-8.751.051h-.178L127.524,8a.839.839,0,0,0-.829.779,8.43,8.43,0,0,1-5.087,7.1,1.2,1.2,0,0,0-.722,1.233c.4,3.841,2.741,16.921,15.494,22.8a.4.4,0,0,0,.17.037.4.4,0,0,0,.169-.039C149.4,33.881,151.59,20.776,151.946,16.93A1.209,1.209,0,0,0,151.2,15.7Zm0,0" transform="translate(-106.972 -6.544)" fill="#75cff2"/>
      <path id="Trazado_1295995" data-name="Trazado 1295995" d="M249.841,15.7a8.43,8.43,0,0,1-5.163-7.051.833.833,0,0,0-.836-.756l-4.817.028a8.429,8.429,0,0,0,5.189,7.776,1.216,1.216,0,0,1,.75,1.231c-.331,3.566-2.236,15.09-12.62,21.558a26.251,26.251,0,0,0,2.676,1.427.4.4,0,0,0,.17.036.4.4,0,0,0,.169-.039c12.683-6.032,14.869-19.137,15.226-22.983a1.21,1.21,0,0,0-.744-1.228Zm0,0" transform="translate(-205.61 -6.544)" fill="#53b4e4"/>
      <path id="Trazado_1295996" data-name="Trazado 1295996" d="M162.73,61.315C154,56.579,151.472,47.794,150.747,43.483a.461.461,0,0,1,.21-.469,11.279,11.279,0,0,0,4.884-6.414.463.463,0,0,1,.443-.332l13.047-.076a.463.463,0,0,1,.446.326,11.281,11.281,0,0,0,4.959,6.356.461.461,0,0,1,.216.467c-.675,4.319-3.1,13.134-11.773,17.971a.467.467,0,0,1-.448,0Zm0,0" transform="translate(-133.397 -31.585)" fill="#e1e0de"/>
      <path id="Trazado_1295997" data-name="Trazado 1295997" d="M246.807,42.874a11.283,11.283,0,0,1-4.959-6.356.463.463,0,0,0-.446-.326l-5.261.031a11.28,11.28,0,0,0,5.045,6.653.459.459,0,0,1,.215.465c-.6,3.86-2.606,11.313-9.218,16.307a22.071,22.071,0,0,0,2.619,1.668.467.467,0,0,0,.448,0c8.671-4.838,11.1-13.652,11.773-17.972a.46.46,0,0,0-.216-.466Zm0,0" transform="translate(-205.469 -31.585)" fill="#d6d6d6"/>
      <path id="Trazado_1295998" data-name="Trazado 1295998" d="M33.455,393.858a2.19,2.19,0,1,1-2.19-2.19A2.19,2.19,0,0,1,33.455,393.858Zm0,0" transform="translate(-25.729 -346.161)" fill="#ededed"/>
      <path id="Trazado_1295999" data-name="Trazado 1295999" d="M217.436,100.6a.871.871,0,0,0,1.314-.149l5.743-8.668a.863.863,0,1,0-1.439-.954l-5.176,7.811L215,95.912a.863.863,0,1,0-1.188,1.252l3.622,3.439Zm0,0" transform="translate(-188.975 -79.597)"/>
      <path id="Trazado_1296000" data-name="Trazado 1296000" d="M129.395,34.167a1.278,1.278,0,0,0,.529.116h.007a1.263,1.263,0,0,0,.535-.122c13.122-6.24,15.346-19.7,15.714-23.683a2.063,2.063,0,0,0-1.272-2.1,7.541,7.541,0,0,1-4.634-6.329A1.7,1.7,0,0,0,138.583.5h-.01L120.894.6a1.691,1.691,0,0,0-1.684,1.575,7.543,7.543,0,0,1-4.566,6.375,2.056,2.056,0,0,0-1.24,2.116c.415,3.974,2.8,17.411,15.991,23.5ZM115.323,10.14a9.261,9.261,0,0,0,5.607-7.811l17.628-.1a9.262,9.262,0,0,0,5.689,7.741.347.347,0,0,1,.216.352c-.346,3.728-2.417,16.3-14.542,22.189-12.195-5.747-14.411-18.294-14.8-22.018a.34.34,0,0,1,.2-.35Zm0,0" transform="translate(-100.345)"/>
      <path id="Trazado_1296001" data-name="Trazado 1296001" d="M143.9,39.965a.91.91,0,0,0,1.059.606.864.864,0,0,0,.606-1.059c-.22-.81-.4-1.631-.55-2.445a12.136,12.136,0,0,0,4.938-6.471l12.462-.073a12.135,12.135,0,0,0,5.013,6.412c-.135.816-.311,1.64-.521,2.453a.863.863,0,1,0,1.671.433c.247-.955.449-1.924.6-2.88a1.32,1.32,0,0,0-.622-1.338,10.415,10.415,0,0,1-4.58-5.871A1.335,1.335,0,0,0,162.7,28.8H162.7l-13.047.076a1.335,1.335,0,0,0-1.265.951,10.415,10.415,0,0,1-4.511,5.924,1.319,1.319,0,0,0-.606,1.346c.161.954.373,1.92.631,2.871Zm0,0" transform="translate(-126.767 -25.041)"/>
      <path id="Trazado_1296002" data-name="Trazado 1296002" d="M181.4,147.6a.862.862,0,0,0-1.127.468,21.736,21.736,0,0,1-9.386,10.926,21.744,21.744,0,0,1-9.521-10.833.863.863,0,0,0-1.588.676,23.409,23.409,0,0,0,10.478,11.78,1.321,1.321,0,0,0,1.28-.007,23.4,23.4,0,0,0,10.332-11.884.862.862,0,0,0-.469-1.126Zm0,0" transform="translate(-141.333 -130.116)"/>
      <path id="Trazado_1296003" data-name="Trazado 1296003" d="M24.639,384.273a3.053,3.053,0,1,0,3.054,3.053A3.057,3.057,0,0,0,24.639,384.273Zm0,4.38a1.327,1.327,0,1,1,1.328-1.327A1.329,1.329,0,0,1,24.639,388.653Zm0,0" transform="translate(-19.102 -339.617)"/>
      <path id="Trazado_1296004" data-name="Trazado 1296004" d="M58.291,245.4a3.6,3.6,0,0,0-4.964-.96l-11.281,7.55-2.408-.135-.062-.617a5.237,5.237,0,0,0-4.489-4.679l-.045-.005-12.156-1.065c-.411-.064-1.728-.442-5.345-2.517a13.423,13.423,0,0,0-6.15-1.769v-2.258a2.056,2.056,0,0,0-2.054-2.054H2.055A2.057,2.057,0,0,0,0,238.945V261.18a2.057,2.057,0,0,0,2.054,2.054H9.337a2.057,2.057,0,0,0,2.054-2.054v-.613l10.626,4.024a5.943,5.943,0,0,0,2.473.182l17.655-2.545.013,0a8.681,8.681,0,0,0,4.114-1.843l.031-.027,11.4-10.256a3.6,3.6,0,0,0,.584-4.7Zm-1.734,3.413L45.166,259.058a6.954,6.954,0,0,1-3.274,1.462L24.25,263.064l-.015,0h-.009a3.876,3.876,0,0,1-1.634-.1l-11.2-4.241v-9.855a.863.863,0,1,0-1.726,0V261.18a.329.329,0,0,1-.329.329H2.055a.329.329,0,0,1-.329-.329V238.945a.329.329,0,0,1,.329-.329H9.337a.329.329,0,0,1,.329.329v6.023a.863.863,0,1,0,1.726,0v-2.038a11.689,11.689,0,0,1,5.291,1.539c4.363,2.5,5.581,2.675,5.982,2.731l.045.005,12.157,1.065a3.516,3.516,0,0,1,2.992,3.138l.046.46-16.276,1-.032,0a1.967,1.967,0,0,1-1.342-.7.863.863,0,0,0-1.325,1.105,3.737,3.737,0,0,0,2.514,1.316c.533.056,17.411-1.051,17.411-1.051l3.383.19a.86.86,0,0,0,.528-.145l11.523-7.712a1.861,1.861,0,0,1,2.269,2.939Zm0,0" transform="translate(0 -209.193)"/>
    </g>
  </g>
</svg>
