<svg xmlns="http://www.w3.org/2000/svg" xmlns:xlink="http://www.w3.org/1999/xlink" width="113" height="113" viewBox="0 0 113 113">
  <defs>
    <filter id="Trazado_982547" x="0" y="0" width="113" height="113" filterUnits="userSpaceOnUse">
      <feOffset dy="3" input="SourceAlpha"/>
      <feGaussianBlur stdDeviation="3" result="blur"/>
      <feFlood flood-opacity="0.161"/>
      <feComposite operator="in" in2="blur"/>
      <feComposite in="SourceGraphic"/>
    </filter>
  </defs>
  <g id="Grupo_1242260" data-name="Grupo 1242260" transform="translate(-1111 -5610.501)">
    <g id="Grupo_1241862" data-name="Grupo 1241862" transform="translate(-104.8 2031.334)">
      <g id="Grupo_1241180" data-name="Grupo 1241180" transform="translate(545.31 -9104)">
        <g id="Grupo_1240427" data-name="Grupo 1240427" transform="translate(679.49 12689.167)">
          <g id="Grupo_1239780" data-name="Grupo 1239780" transform="translate(0 0)">
            <g id="Grupo_1236603" data-name="Grupo 1236603">
              <g id="Grupo_1236145" data-name="Grupo 1236145">
                <g id="Grupo_1235107" data-name="Grupo 1235107">
                  <g id="Grupo_1223796" data-name="Grupo 1223796">
                    <g id="Grupo_1208038" data-name="Grupo 1208038">
                      <g id="Grupo_1202104" data-name="Grupo 1202104">
                        <g id="Grupo_1201923" data-name="Grupo 1201923">
                          <g id="Grupo_1176928" data-name="Grupo 1176928" transform="translate(0)">
                            <g id="Grupo_1172322" data-name="Grupo 1172322">
                              <g id="Grupo_1164700" data-name="Grupo 1164700">
                                <g id="Grupo_1160931" data-name="Grupo 1160931">
                                  <g id="Grupo_1160749" data-name="Grupo 1160749">
                                    <g id="Grupo_1158891" data-name="Grupo 1158891">
                                      <g id="Grupo_1157406" data-name="Grupo 1157406">
                                        <g id="Grupo_1155793" data-name="Grupo 1155793">
                                          <g id="Grupo_1154704" data-name="Grupo 1154704">
                                            <g id="Grupo_1150790" data-name="Grupo 1150790">
                                              <g id="Grupo_1154214" data-name="Grupo 1154214" transform="translate(0)">
                                                <g id="Grupo_1152583" data-name="Grupo 1152583">
                                                  <g id="Grupo_1146973" data-name="Grupo 1146973">
                                                    <g id="Grupo_1146954" data-name="Grupo 1146954">
                                                      <g transform="matrix(1, 0, 0, 1, -9, -6)" filter="url(#Trazado_982547)">
                                                        <g id="Trazado_982547-2" data-name="Trazado 982547" transform="translate(9 6)" fill="#c4e3df">
                                                          <path d="M 47.50000762939453 93.49986267089844 C 41.28937911987305 93.49986267089844 35.26534271240234 92.28383636474609 29.59519386291504 89.88558197021484 C 24.11772727966309 87.56880950927734 19.19814109802246 84.25183868408203 14.97310066223145 80.02679443359375 C 10.74804782867432 75.8017578125 7.431074142456055 70.88218688964844 5.114300727844238 65.40471649169922 C 2.716034412384033 59.73458480834961 1.500007629394531 53.71054458618164 1.500007629394531 47.49993133544922 C 1.500007629394531 41.2893180847168 2.716034412384033 35.26527786254883 5.114300727844238 29.59514427185059 C 7.431074142456055 24.11767768859863 10.74804782867432 19.19810485839844 14.97310066223145 14.97306442260742 C 19.19814109802246 10.74802494049072 24.11772727966309 7.431051254272461 29.59519386291504 5.114277839660645 C 35.26534271240234 2.71602463722229 41.28937911987305 1.499997973442078 47.50000762939453 1.499997973442078 C 53.71063613891602 1.499997973442078 59.73467254638672 2.71602463722229 65.40482330322266 5.114277839660645 C 70.88228607177734 7.431051254272461 75.80187225341797 10.74802494049072 80.02691650390625 14.97306442260742 C 84.25196838378906 19.19810485839844 87.56893920898438 24.11767768859863 89.88571166992188 29.59514427185059 C 92.28398132324219 35.26527786254883 93.50000762939453 41.2893180847168 93.50000762939453 47.49993133544922 C 93.50000762939453 53.71054458618164 92.28398132324219 59.73458480834961 89.88571166992188 65.40471649169922 C 87.56893920898438 70.88218688964844 84.25196838378906 75.8017578125 80.02691650390625 80.02679443359375 C 75.80187225341797 84.25183868408203 70.88228607177734 87.56880950927734 65.40482330322266 89.88558197021484 C 59.73467254638672 92.28383636474609 53.71063613891602 93.49986267089844 47.50000762939453 93.49986267089844 Z" stroke="none"/>
                                                          <path d="M 47.50000762939453 2.999992370605469 C 41.4912223815918 2.999992370605469 35.66377639770508 4.1761474609375 30.17951202392578 6.495796203613281 C 24.88085174560547 8.736930847167969 20.12152862548828 11.94596099853516 16.03376007080078 16.03372955322266 C 11.94597625732422 20.12148284912109 8.736961364746094 24.88080596923828 6.495803833007812 30.17946624755859 C 4.176162719726562 35.66371536254883 3.000007629394531 41.49116134643555 3.000007629394531 47.49993133544922 C 3.000007629394531 53.50870132446289 4.176162719726562 59.33614730834961 6.495803833007812 64.82038879394531 C 8.736961364746094 70.11905670166016 11.94597625732422 74.87836456298828 16.03376007080078 78.96613311767578 C 20.12152862548828 83.05390167236328 24.88085174560547 86.26291656494141 30.17951202392578 88.50406646728516 C 35.66377639770508 90.82369995117188 41.4912223815918 91.99985504150391 47.50000762939453 91.99985504150391 C 53.50879287719727 91.99985504150391 59.33623886108398 90.82369995117188 64.82049560546875 88.50406646728516 C 70.11916351318359 86.26291656494141 74.87848663330078 83.05390167236328 78.96625518798828 78.96613311767578 C 83.05403900146484 74.87836456298828 86.26305389404297 70.11905670166016 88.50421142578125 64.82038879394531 C 90.8238525390625 59.33614730834961 92.00000762939453 53.50870132446289 92.00000762939453 47.49993133544922 C 92.00000762939453 41.49116134643555 90.8238525390625 35.66371536254883 88.50421142578125 30.17946624755859 C 86.26305389404297 24.88080596923828 83.05403900146484 20.12148284912109 78.96625518798828 16.03372955322266 C 74.87848663330078 11.94596099853516 70.11916351318359 8.736930847167969 64.82049560546875 6.495796203613281 C 59.33623886108398 4.1761474609375 53.50879287719727 2.999992370605469 47.50000762939453 2.999992370605469 M 47.50000762939453 -7.62939453125e-06 C 73.73352813720703 -7.62939453125e-06 95.00000762939453 21.26644134521484 95.00000762939453 47.49993133544922 C 95.00000762939453 73.73342132568359 73.73352813720703 94.99985504150391 47.50000762939453 94.99985504150391 C 21.26648712158203 94.99985504150391 7.62939453125e-06 73.73342132568359 7.62939453125e-06 47.49993133544922 C 7.62939453125e-06 21.26644134521484 21.26648712158203 -7.62939453125e-06 47.50000762939453 -7.62939453125e-06 Z" stroke="none" fill="#41a599"/>
                                                        </g>
                                                      </g>
                                                    </g>
                                                  </g>
                                                </g>
                                              </g>
                                            </g>
                                          </g>
                                        </g>
                                      </g>
                                    </g>
                                  </g>
                                </g>
                              </g>
                            </g>
                          </g>
                        </g>
                      </g>
                    </g>
                  </g>
                </g>
              </g>
            </g>
          </g>
        </g>
      </g>
    </g>
    <g id="metrica" transform="translate(1110.656 5603.845)">
      <path id="Trazado_1296022" data-name="Trazado 1296022" d="M117.853,42.554a21.927,21.927,0,1,1-15.5,37.432l15.5-15.5Z" transform="translate(-66.463 -11.844)" fill="#19cfba" fill-rule="evenodd"/>
      <path id="Trazado_1296023" data-name="Trazado 1296023" d="M77.676,104.155A14.862,14.862,0,0,1,88.185,78.783V93.645Z" transform="translate(-41.558 -42.93)" fill="#ffbf31" fill-rule="evenodd"/>
      <path id="Trazado_1296024" data-name="Trazado 1296024" d="M414.422,347.181l1.615-1.615a.931.931,0,0,1,1.312,0l4.216,4.216a.931.931,0,0,1,0,1.312l-1.615,1.615a.931.931,0,0,1-1.312,0l-4.216-4.216A.931.931,0,0,1,414.422,347.181Z" transform="translate(-334.007 -271.612)" fill="#847784" fill-rule="evenodd"/>
      <circle id="Elipse_11581" data-name="Elipse 11581" cx="15.051" cy="15.051" r="15.051" transform="translate(52.333 45.872)" fill="#847784"/>
      <circle id="Elipse_11582" data-name="Elipse 11582" cx="11.2" cy="11.2" r="11.2" transform="translate(56.184 49.723)" fill="#e6e6e6"/>
      <path id="Trazado_1296025" data-name="Trazado 1296025" d="M291.669,269.783a11.21,11.21,0,0,1-12.92,0v-1.826a6.46,6.46,0,1,1,12.92,0v1.826Z" transform="translate(-217.825 -199.709)" fill="#fa6e85" fill-rule="evenodd"/>
      <path id="Trazado_1296026" data-name="Trazado 1296026" d="M301.944,209.485a3.691,3.691,0,1,1-3.691,3.691A3.691,3.691,0,0,1,301.944,209.485Z" transform="translate(-234.56 -155.08)" fill="#f0b16e" fill-rule="evenodd"/>
      <path id="Trazado_1296027" data-name="Trazado 1296027" d="M30.02,75.214a3.764,3.764,0,1,1-3.764,3.764,3.768,3.768,0,0,1,3.764-3.764Zm9.441,9.755A3.764,3.764,0,1,1,35.7,88.733a3.768,3.768,0,0,1,3.764-3.764Zm43.372-54.9a3.764,3.764,0,1,1-3.764,3.764A3.768,3.768,0,0,1,82.833,30.073Z" transform="translate(-1.172 -1.135)" fill="#60b7fe" fill-rule="evenodd"/>
      <path id="Trazado_1296028" data-name="Trazado 1296028" d="M58.648,74.36a22.924,22.924,0,0,1-15.637-.407l-3.754,3.754v6.059a3.958,3.958,0,1,1-1.937,0v-6.46a.965.965,0,0,1,.29-.691l3.508-3.508A22.938,22.938,0,0,1,35.2,68.833a.968.968,0,0,1,0-1.369L50.421,52.243V30.716a.968.968,0,0,1,.968-.968,22.785,22.785,0,0,1,13.1,4.123l1.841-1.841a.965.965,0,0,1,.691-.29h10.8a3.958,3.958,0,1,1,0,1.937h-10.4l-1.381,1.381a22.914,22.914,0,0,1,7.273,10.987,16.023,16.023,0,0,1,6.06,25.507L81.223,73.4a1.922,1.922,0,0,1,1.463-.677,1.891,1.891,0,0,1,1.341.554l4.216,4.216a1.9,1.9,0,0,1,0,2.682l-1.615,1.615a1.9,1.9,0,0,1-2.682,0L79.73,77.572a1.9,1.9,0,0,1,0-2.681l.123-.123-1.846-1.846A16.027,16.027,0,0,1,58.648,74.36Zm8.737-20.917a4.66,4.66,0,0,1,3.154,8.09,7.453,7.453,0,0,1,4.269,6.439,10.232,10.232,0,1,0-14.846,0,7.453,7.453,0,0,1,4.269-6.439,4.66,4.66,0,0,1,3.154-8.09Zm1.926,2.734a2.723,2.723,0,1,0,0,3.851A2.726,2.726,0,0,0,69.31,56.178Zm3.566,13.388V68.255a5.492,5.492,0,1,0-10.984,0v1.311A10.246,10.246,0,0,0,72.876,69.566Zm-14.1-17.24a12.169,12.169,0,1,0,17.209,0A12.168,12.168,0,0,0,58.78,52.325Zm12.261-6.994a21.006,21.006,0,0,0-6.366-8.9l-4.321,4.321a.968.968,0,0,1-1.369-1.369l4.121-4.121a20.85,20.85,0,0,0-10.748-3.55V52.644a.966.966,0,0,1-.284.685l-14.8,14.8a20.989,20.989,0,0,0,5.294,3.53l3.379-3.379a.968.968,0,0,1,1.369,1.369l-2.8,2.8a21.137,21.137,0,0,0,12.24.461A16.021,16.021,0,0,1,71.041,45.331Zm-3.656,1.516A14.083,14.083,0,1,0,81.467,60.93,14.083,14.083,0,0,0,67.384,46.847Zm15.3,27.826-1.558,1.558,4.159,4.159,1.558-1.558Zm-42.967,11.5a2.021,2.021,0,1,0,0,2.858A2.023,2.023,0,0,0,39.718,86.175Zm-9.9-12.164V57.525l1.793-1.793a15.857,15.857,0,0,0,3.824,6.183.968.968,0,0,0,1.369,0l10.5-10.5a.965.965,0,0,0,.29-.691V35.859a.968.968,0,0,0-.968-.968A15.838,15.838,0,0,0,31.05,53.552l-2.881,2.881a.965.965,0,0,0-.29.691V74.011a3.958,3.958,0,1,0,1.937,0Zm.461,2.409a2.021,2.021,0,1,1-3.45,1.429A2.021,2.021,0,0,1,30.277,76.42ZM83.09,31.279a2.021,2.021,0,1,0,0,2.858A2.023,2.023,0,0,0,83.09,31.279ZM32.776,51.826l3.713-3.713a.968.968,0,0,1,1.369,1.369l-4.694,4.694a13.794,13.794,0,0,0,2.977,5.661l9.517-9.517V36.861A13.9,13.9,0,0,0,32.776,51.826Z" transform="translate(0 0)" fill="#1e2f3f" fill-rule="evenodd"/>
    </g>
  </g>
</svg>
