<svg xmlns="http://www.w3.org/2000/svg" xmlns:xlink="http://www.w3.org/1999/xlink" width="113" height="113" viewBox="0 0 113 113">
  <defs>
    <filter id="Trazado_982547" x="0.001" y="0" width="113" height="113" filterUnits="userSpaceOnUse">
      <feOffset dy="3" input="SourceAlpha"/>
      <feGaussianBlur stdDeviation="3" result="blur"/>
      <feFlood flood-opacity="0.161"/>
      <feComposite operator="in" in2="blur"/>
      <feComposite in="SourceGraphic"/>
    </filter>
  </defs>
  <g id="Grupo_1242300" data-name="Grupo 1242300" transform="translate(-1772.638 -5994.86)">
    <g id="Grupo_1241865" data-name="Grupo 1241865" transform="translate(556.838 2415.693)">
      <g id="Grupo_1241180" data-name="Grupo 1241180" transform="translate(545.31 -9104)">
        <g id="Grupo_1240427" data-name="Grupo 1240427" transform="translate(679.49 12689.167)">
          <g id="Grupo_1239780" data-name="Grupo 1239780" transform="translate(0 0)">
            <g id="Grupo_1236603" data-name="Grupo 1236603">
              <g id="Grupo_1236145" data-name="Grupo 1236145">
                <g id="Grupo_1235107" data-name="Grupo 1235107">
                  <g id="Grupo_1223796" data-name="Grupo 1223796">
                    <g id="Grupo_1208038" data-name="Grupo 1208038">
                      <g id="Grupo_1202104" data-name="Grupo 1202104">
                        <g id="Grupo_1201923" data-name="Grupo 1201923">
                          <g id="Grupo_1176928" data-name="Grupo 1176928" transform="translate(0)">
                            <g id="Grupo_1172322" data-name="Grupo 1172322">
                              <g id="Grupo_1164700" data-name="Grupo 1164700">
                                <g id="Grupo_1160931" data-name="Grupo 1160931">
                                  <g id="Grupo_1160749" data-name="Grupo 1160749">
                                    <g id="Grupo_1158891" data-name="Grupo 1158891">
                                      <g id="Grupo_1157406" data-name="Grupo 1157406">
                                        <g id="Grupo_1155793" data-name="Grupo 1155793">
                                          <g id="Grupo_1154704" data-name="Grupo 1154704">
                                            <g id="Grupo_1150790" data-name="Grupo 1150790">
                                              <g id="Grupo_1154214" data-name="Grupo 1154214" transform="translate(0)">
                                                <g id="Grupo_1152583" data-name="Grupo 1152583">
                                                  <g id="Grupo_1146973" data-name="Grupo 1146973">
                                                    <g id="Grupo_1146954" data-name="Grupo 1146954">
                                                      <g transform="matrix(1, 0, 0, 1, -9, -6)" filter="url(#Trazado_982547)">
                                                        <g id="Trazado_982547-2" data-name="Trazado 982547" transform="translate(9 6)" fill="#c4e3df">
                                                          <path d="M 47.50000762939453 93.49986267089844 C 41.28937911987305 93.49986267089844 35.26534271240234 92.28383636474609 29.59519386291504 89.88558197021484 C 24.11772727966309 87.56880950927734 19.19814109802246 84.25183868408203 14.97310066223145 80.02679443359375 C 10.74804782867432 75.8017578125 7.431074142456055 70.88218688964844 5.114300727844238 65.40471649169922 C 2.716034412384033 59.73458480834961 1.500007629394531 53.71054458618164 1.500007629394531 47.49993133544922 C 1.500007629394531 41.2893180847168 2.716034412384033 35.26527786254883 5.114300727844238 29.59514427185059 C 7.431074142456055 24.11767768859863 10.74804782867432 19.19810485839844 14.97310066223145 14.97306442260742 C 19.19814109802246 10.74802494049072 24.11772727966309 7.431051254272461 29.59519386291504 5.114277839660645 C 35.26534271240234 2.71602463722229 41.28937911987305 1.499997973442078 47.50000762939453 1.499997973442078 C 53.71063613891602 1.499997973442078 59.73467254638672 2.71602463722229 65.40482330322266 5.114277839660645 C 70.88228607177734 7.431051254272461 75.80187225341797 10.74802494049072 80.02691650390625 14.97306442260742 C 84.25196838378906 19.19810485839844 87.56893920898438 24.11767768859863 89.88571166992188 29.59514427185059 C 92.28398132324219 35.26527786254883 93.50000762939453 41.2893180847168 93.50000762939453 47.49993133544922 C 93.50000762939453 53.71054458618164 92.28398132324219 59.73458480834961 89.88571166992188 65.40471649169922 C 87.56893920898438 70.88218688964844 84.25196838378906 75.8017578125 80.02691650390625 80.02679443359375 C 75.80187225341797 84.25183868408203 70.88228607177734 87.56880950927734 65.40482330322266 89.88558197021484 C 59.73467254638672 92.28383636474609 53.71063613891602 93.49986267089844 47.50000762939453 93.49986267089844 Z" stroke="none"/>
                                                          <path d="M 47.50000762939453 2.999992370605469 C 41.4912223815918 2.999992370605469 35.66377639770508 4.1761474609375 30.17951202392578 6.495796203613281 C 24.88085174560547 8.736930847167969 20.12152862548828 11.94596099853516 16.03376007080078 16.03372955322266 C 11.94597625732422 20.12148284912109 8.736961364746094 24.88080596923828 6.495803833007812 30.17946624755859 C 4.176162719726562 35.66371536254883 3.000007629394531 41.49116134643555 3.000007629394531 47.49993133544922 C 3.000007629394531 53.50870132446289 4.176162719726562 59.33614730834961 6.495803833007812 64.82038879394531 C 8.736961364746094 70.11905670166016 11.94597625732422 74.87836456298828 16.03376007080078 78.96613311767578 C 20.12152862548828 83.05390167236328 24.88085174560547 86.26291656494141 30.17951202392578 88.50406646728516 C 35.66377639770508 90.82369995117188 41.4912223815918 91.99985504150391 47.50000762939453 91.99985504150391 C 53.50879287719727 91.99985504150391 59.33623886108398 90.82369995117188 64.82049560546875 88.50406646728516 C 70.11916351318359 86.26291656494141 74.87848663330078 83.05390167236328 78.96625518798828 78.96613311767578 C 83.05403900146484 74.87836456298828 86.26305389404297 70.11905670166016 88.50421142578125 64.82038879394531 C 90.8238525390625 59.33614730834961 92.00000762939453 53.50870132446289 92.00000762939453 47.49993133544922 C 92.00000762939453 41.49116134643555 90.8238525390625 35.66371536254883 88.50421142578125 30.17946624755859 C 86.26305389404297 24.88080596923828 83.05403900146484 20.12148284912109 78.96625518798828 16.03372955322266 C 74.87848663330078 11.94596099853516 70.11916351318359 8.736930847167969 64.82049560546875 6.495796203613281 C 59.33623886108398 4.1761474609375 53.50879287719727 2.999992370605469 47.50000762939453 2.999992370605469 M 47.50000762939453 -7.62939453125e-06 C 73.73352813720703 -7.62939453125e-06 95.00000762939453 21.26644134521484 95.00000762939453 47.49993133544922 C 95.00000762939453 73.73342132568359 73.73352813720703 94.99985504150391 47.50000762939453 94.99985504150391 C 21.26648712158203 94.99985504150391 7.62939453125e-06 73.73342132568359 7.62939453125e-06 47.49993133544922 C 7.62939453125e-06 21.26644134521484 21.26648712158203 -7.62939453125e-06 47.50000762939453 -7.62939453125e-06 Z" stroke="none" fill="#41a599"/>
                                                        </g>
                                                      </g>
                                                    </g>
                                                  </g>
                                                </g>
                                              </g>
                                            </g>
                                          </g>
                                        </g>
                                      </g>
                                    </g>
                                  </g>
                                </g>
                              </g>
                            </g>
                          </g>
                        </g>
                      </g>
                    </g>
                  </g>
                </g>
              </g>
            </g>
          </g>
        </g>
      </g>
    </g>
    <g id="labor_1_" data-name="labor (1)" transform="translate(1787.653 6005.087)">
      <g id="Grupo_1242299" data-name="Grupo 1242299" transform="translate(9.063 11.15)">
        <g id="Grupo_1242297" data-name="Grupo 1242297" transform="translate(0)">
          <path id="Trazado_1296081" data-name="Trazado 1296081" d="M85.785,23.835a27.9,27.9,0,0,1,19.3,26.535L105,54.076H49.4c-.056-.719-.085-2.972-.085-3.705a27.9,27.9,0,0,1,19.3-26.535c-.589-4.54,4.923-5.764,8.587-5.764S86.375,19.3,85.785,23.835Z" transform="translate(-44.795 -18.071)" fill="#ffe177" fill-rule="evenodd"/>
          <path id="Trazado_1296082" data-name="Trazado 1296082" d="M255.8,23.835a27.9,27.9,0,0,1,19.3,26.535l-.085,3.705h-2.7l.085-3.705a27.9,27.9,0,0,0-19.3-26.535c.52-4.008-3.716-5.432-7.237-5.71.467-.037.921-.054,1.35-.054C250.872,18.071,256.384,19.3,255.8,23.835Z" transform="translate(-214.805 -18.071)" fill="#ffd064" fill-rule="evenodd"/>
          <path id="Trazado_1296083" data-name="Trazado 1296083" d="M19.686,273.441H76.834a3.829,3.829,0,1,1,0,7.659H19.687a3.829,3.829,0,1,1,0-7.659Z" transform="translate(-15.857 -238.963)" fill="#ffc338" fill-rule="evenodd"/>
          <path id="Trazado_1296084" data-name="Trazado 1296084" d="M82.2,277.4a3.827,3.827,0,0,1-1.945,7.124H23.111a3.837,3.837,0,0,1-3.295-1.885,3.8,3.8,0,0,0,1.945.535H78.908a3.841,3.841,0,0,0,3.829-3.829A3.8,3.8,0,0,0,82.2,277.4Z" transform="translate(-19.281 -242.386)" fill="#f5b829" fill-rule="evenodd"/>
        </g>
        <g id="Grupo_1242298" data-name="Grupo 1242298" transform="translate(34.399 27.97)">
          <path id="Trazado_1296085" data-name="Trazado 1296085" d="M286.289,225.328l14.15,6.064a1.053,1.053,0,0,1,.65.986v11.6c0,9.035-6.469,16.009-15.223,17.535-8.754-1.526-15.223-8.5-15.223-17.535v-11.6a1.054,1.054,0,0,1,.65-.986l14.15-6.064A1.038,1.038,0,0,1,286.289,225.328Z" transform="translate(-270.644 -225.238)" fill="#8ac9fe" fill-rule="evenodd"/>
          <path id="Trazado_1296086" data-name="Trazado 1296086" d="M379.521,225.328l14.15,6.064a1.053,1.053,0,0,1,.65.986v11.6c0,9.035-6.469,16.009-15.223,17.535-.225-.039-.448-.083-.67-.129,8.411-1.757,14.552-8.6,14.552-17.405v-11.6a1.054,1.054,0,0,0-.65-.986l-13.9-5.958.248-.106A1.037,1.037,0,0,1,379.521,225.328Z" transform="translate(-363.876 -225.238)" fill="#60b7ff" fill-rule="evenodd"/>
          <circle id="Elipse_11590" data-name="Elipse 11590" cx="10.726" cy="10.726" r="10.726" transform="translate(0.045 18.093) rotate(-45)" fill="#eceff1"/>
          <path id="Trazado_1296087" data-name="Trazado 1296087" d="M314.675,279.8c.225,0,.449.008.67.021a10.726,10.726,0,0,0,0,21.409c-.222.014-.445.021-.67.021a10.726,10.726,0,0,1,0-21.452Z" transform="translate(-299.452 -272.434)" fill="#d1d1d6" fill-rule="evenodd"/>
          <path id="Trazado_1296088" data-name="Trazado 1296088" d="M336.44,329.706a1.481,1.481,0,0,1,2.095-2.095l2.267,2.267,5.476-5.526a1.477,1.477,0,1,1,2.095,2.083c-2.828,2.856-3.679,3.746-6.521,6.588a1.481,1.481,0,0,1-2.095,0Z" transform="translate(-327.181 -310.593)" fill="#8ac9fe" fill-rule="evenodd"/>
        </g>
      </g>
      <path id="Trazado_1296089" data-name="Trazado 1296089" d="M57.107,59.528a1.083,1.083,0,0,0,.766-.32L63.334,53.7a.389.389,0,0,1,.276-.116h0a.393.393,0,0,1,.277.672c-1.042,1.053-4.716,4.783-6.5,6.567a.4.4,0,0,1-.563,0l-3.308-3.308a.4.4,0,1,1,.562-.562l2.262,2.261a1.08,1.08,0,0,0,.764.316h0Zm-1.5-4.105a2.557,2.557,0,0,0-3.616,3.617L55.3,62.348a2.561,2.561,0,0,0,3.617,0c1.79-1.79,5.467-5.523,6.507-6.573a2.553,2.553,0,1,0-3.623-3.6l-4.7,4.741Zm12.715,1.836A9.619,9.619,0,1,0,58.7,66.878,9.629,9.629,0,0,0,68.322,57.259Zm-21.4,0A11.779,11.779,0,1,0,58.7,45.48,11.793,11.793,0,0,0,46.924,57.259Zm25.884.648V46.34L58.7,40.3,44.6,46.34V57.906a16.55,16.55,0,0,0,13.738,16.33l.367.064.365-.064A16.55,16.55,0,0,0,72.808,57.906Zm-59.9-5.7a2.749,2.749,0,0,1,0-5.5H42.439v5.5ZM31.995,18.376l1.758,13.538a1.08,1.08,0,0,0,2.142-.278L33.988,16.957a2.913,2.913,0,0,1,.6-2.339c1.065-1.3,3.513-2.145,6.9-2.385,3.383.24,5.831,1.086,6.9,2.385a2.913,2.913,0,0,1,.6,2.339L47.074,31.636a1.079,1.079,0,0,0,.932,1.21,1.05,1.05,0,0,0,.14.01,1.081,1.081,0,0,0,1.07-.941l1.758-13.539A26.718,26.718,0,0,1,68.254,42.038l-9.124-3.91a1.085,1.085,0,0,0-.852,0l-1.253.538V29.793a1.08,1.08,0,0,0-2.161,0v9.8L43.3,44.548H28.1V29.793a1.08,1.08,0,1,0-2.16,0V44.548H14.7c-.015-.367-.023-.735-.023-1.1A26.724,26.724,0,0,1,31.995,18.376ZM74.313,44.635l-3.866-1.657A28.97,28.97,0,0,0,51.167,16.147a4.853,4.853,0,0,0-1.117-2.9c-1.865-2.274-5.647-2.982-8.493-3.176a1.1,1.1,0,0,0-.146,0c-2.846.194-6.629.9-8.493,3.176a4.858,4.858,0,0,0-1.117,2.9,28.973,28.973,0,0,0-19.284,27.3c0,.368.008.74.022,1.112a4.909,4.909,0,0,0,.371,9.8H42.439v3.539A18.8,18.8,0,0,0,57.966,76.365a2.474,2.474,0,0,0,1.475,0A18.8,18.8,0,0,0,74.968,57.906V45.629A1.082,1.082,0,0,0,74.313,44.635Z" fill-rule="evenodd"/>
    </g>
  </g>
</svg>
