<svg xmlns="http://www.w3.org/2000/svg" xmlns:xlink="http://www.w3.org/1999/xlink" width="93" height="93" viewBox="0 0 93 93">
  <defs>
    <filter id="Trazado_982547" x="0" y="0" width="93" height="93" filterUnits="userSpaceOnUse">
      <feOffset dy="3" input="SourceAlpha"/>
      <feGaussianBlur stdDeviation="3" result="blur"/>
      <feFlood flood-opacity="0.161"/>
      <feComposite operator="in" in2="blur"/>
      <feComposite in="SourceGraphic"/>
    </filter>
  </defs>
  <g id="Grupo_1242208" data-name="Grupo 1242208" transform="translate(-615 -1924.649)">
    <g id="Grupo_1241813" data-name="Grupo 1241813" transform="translate(0 1156.649)">
      <g id="Grupo_1233876" data-name="Grupo 1233876" transform="translate(0 -540.49)">
        <g id="Grupo_1209735" data-name="Grupo 1209735" transform="translate(0 -1430.391)">
          <g id="Grupo_1209037" data-name="Grupo 1209037" transform="translate(-178.49 -604.119)">
            <g id="Grupo_1208891" data-name="Grupo 1208891" transform="translate(802.49 3349)">
              <g id="Grupo_1177675" data-name="Grupo 1177675" transform="translate(0 0)">
                <g id="Grupo_1176928" data-name="Grupo 1176928" transform="translate(0 0)">
                  <g id="Grupo_1172322" data-name="Grupo 1172322" transform="translate(0 0)">
                    <g id="Grupo_1164700" data-name="Grupo 1164700">
                      <g id="Grupo_1160931" data-name="Grupo 1160931">
                        <g id="Grupo_1160749" data-name="Grupo 1160749">
                          <g id="Grupo_1158891" data-name="Grupo 1158891">
                            <g id="Grupo_1157406" data-name="Grupo 1157406">
                              <g id="Grupo_1155793" data-name="Grupo 1155793">
                                <g id="Grupo_1154704" data-name="Grupo 1154704">
                                  <g id="Grupo_1150790" data-name="Grupo 1150790">
                                    <g id="Grupo_1154214" data-name="Grupo 1154214">
                                      <g id="Grupo_1152583" data-name="Grupo 1152583">
                                        <g id="Grupo_1146973" data-name="Grupo 1146973">
                                          <g id="Grupo_1146954" data-name="Grupo 1146954">
                                            <g transform="matrix(1, 0, 0, 1, -9, -6)" filter="url(#Trazado_982547)">
                                              <g id="Trazado_982547-2" data-name="Trazado 982547" transform="translate(9 6)" fill="#fef7ea">
                                                <path d="M 37.49999237060547 73.49986267089844 C 32.63936996459961 73.49986267089844 27.92492485046387 72.54824066162109 23.48763656616211 70.67143249511719 C 19.20095825195312 68.85832214355469 15.35081481933594 66.26239013671875 12.04415893554688 62.95573043823242 C 8.737492561340332 59.64907455444336 6.14155912399292 55.79894256591797 4.328447818756104 51.51226425170898 C 2.45162558555603 47.07498550415039 1.500003457069397 42.36055374145508 1.500003457069397 37.49993133544922 C 1.500003457069397 32.63930892944336 2.45162558555603 27.92487525939941 4.328447818756104 23.48759841918945 C 6.14155912399292 19.20092010498047 8.737492561340332 15.35078716278076 12.04415893554688 12.0441312789917 C 15.35081481933594 8.737475395202637 19.20095825195312 6.141542434692383 23.48763656616211 4.328431129455566 C 27.92492485046387 2.45162034034729 32.63936996459961 1.499997973442078 37.49999237060547 1.499997973442078 C 42.36061477661133 1.499997973442078 47.07505798339844 2.45162034034729 51.51234817504883 4.328431129455566 C 55.79902648925781 6.141542434692383 59.649169921875 8.737475395202637 62.95582580566406 12.0441312789917 C 66.26248931884766 15.35078716278076 68.85842895507812 19.20092010498047 70.67153930664062 23.48759841918945 C 72.54836273193359 27.92487525939941 73.49998474121094 32.63930892944336 73.49998474121094 37.49993133544922 C 73.49998474121094 42.36055374145508 72.54836273193359 47.07498550415039 70.67153930664062 51.51226425170898 C 68.85842895507812 55.79894256591797 66.26248931884766 59.64907455444336 62.95582580566406 62.95573043823242 C 59.649169921875 66.26239013671875 55.79902648925781 68.85832214355469 51.51234817504883 70.67143249511719 C 47.07505798339844 72.54824066162109 42.36061477661133 73.49986267089844 37.49999237060547 73.49986267089844 Z" stroke="none"/>
                                                <path d="M 37.49999237060547 2.999992370605469 C 32.84120559692383 2.999992370605469 28.32336807250977 3.911758422851562 24.07196807861328 5.709945678710938 C 19.96409225463867 7.447418212890625 16.27420425415039 9.935409545898438 13.10481643676758 13.10479354858398 C 9.935432434082031 16.2741813659668 7.447441101074219 19.96405792236328 5.709953308105469 24.07191848754883 C 3.911766052246094 28.32331848144531 3.000007629394531 32.84114456176758 3.000007629394531 37.49993133544922 C 3.000007629394531 42.15870666503906 3.911766052246094 46.67654418945312 5.709953308105469 50.92793273925781 C 7.447441101074219 55.03580474853516 9.935432434082031 58.72568130493164 13.10481643676758 61.89505767822266 C 16.27420425415039 65.06444549560547 19.96409225463867 67.55242919921875 24.07196807861328 69.28990936279297 C 28.32336807250977 71.08809661865234 32.84120559692383 71.99985504150391 37.49999237060547 71.99985504150391 C 42.15877914428711 71.99985504150391 46.67661666870117 71.08809661865234 50.92801666259766 69.28990936279297 C 55.03589248657227 67.55242919921875 58.72578048706055 65.06444549560547 61.89516830444336 61.89505767822266 C 65.06455230712891 58.72568130493164 67.55254364013672 55.03580474853516 69.29003143310547 50.92793273925781 C 71.08821868896484 46.67654418945312 71.99997711181641 42.15870666503906 71.99997711181641 37.49993133544922 C 71.99997711181641 32.84114456176758 71.08821868896484 28.32331848144531 69.29003143310547 24.07191848754883 C 67.55254364013672 19.96405792236328 65.06455230712891 16.2741813659668 61.89516830444336 13.10479354858398 C 58.72578048706055 9.935409545898438 55.03589248657227 7.447418212890625 50.92801666259766 5.709945678710938 C 46.67661666870117 3.911758422851562 42.15877914428711 2.999992370605469 37.49999237060547 2.999992370605469 M 37.49999237060547 -7.62939453125e-06 C 58.21065521240234 -7.62939453125e-06 74.99997711181641 16.7892951965332 74.99997711181641 37.49993133544922 C 74.99997711181641 58.2105712890625 58.21065521240234 74.99985504150391 37.49999237060547 74.99985504150391 C 16.78932952880859 74.99985504150391 7.62939453125e-06 58.2105712890625 7.62939453125e-06 37.49993133544922 C 7.62939453125e-06 16.7892951965332 16.78932952880859 -7.62939453125e-06 37.49999237060547 -7.62939453125e-06 Z" stroke="none" fill="#896521"/>
                                              </g>
                                            </g>
                                          </g>
                                        </g>
                                      </g>
                                    </g>
                                  </g>
                                </g>
                              </g>
                            </g>
                          </g>
                        </g>
                      </g>
                    </g>
                  </g>
                </g>
              </g>
            </g>
          </g>
        </g>
      </g>
    </g>
    <g id="manejo-del-estres" transform="translate(636.872 1942.014)">
      <g id="Grupo_1242190" data-name="Grupo 1242190" transform="translate(3.684 0.421)">
        <g id="Grupo_1242180" data-name="Grupo 1242180" transform="translate(3.438 38.068)">
          <g id="Grupo_1242174" data-name="Grupo 1242174" transform="translate(0 0.045)">
            <path id="Trazado_1295721" data-name="Trazado 1295721" d="M71.111,373.813a3.854,3.854,0,1,1,1.247-7.594l20.065,4.364-7.251,4.74Z" transform="translate(-67.665 -366.13)" fill="#9785ff"/>
          </g>
          <g id="Grupo_1242175" data-name="Grupo 1242175" transform="translate(0.001 0.045)">
            <path id="Trazado_1295722" data-name="Trazado 1295722" d="M72.362,367.8l18.253,3.969,1.812-1.185-20.065-4.363a3.867,3.867,0,0,0-4.619,3.025,3.827,3.827,0,0,0,.01,1.535A3.867,3.867,0,0,1,72.362,367.8Z" transform="translate(-67.67 -366.13)" fill="#875ce5"/>
          </g>
          <g id="Grupo_1242179" data-name="Grupo 1242179" transform="translate(2.356)">
            <g id="Grupo_1242176" data-name="Grupo 1242176" transform="translate(6.507)">
              <path id="Trazado_1295723" data-name="Trazado 1295723" d="M177.953,368.817a3.867,3.867,0,0,0-4.619-3.025l-21.457,4.675.855,5.265,21.849-2.346A3.849,3.849,0,0,0,177.953,368.817Z" transform="translate(-151.877 -365.702)" fill="#9785ff"/>
            </g>
            <g id="Grupo_1242177" data-name="Grupo 1242177" transform="translate(7.362 3.071)">
              <path id="Trazado_1295724" data-name="Trazado 1295724" d="M185.215,394.881a3.854,3.854,0,0,1-3.362,3.034L160,400.261v1.579l21.849-2.346a3.849,3.849,0,0,0,3.372-4.569C185.222,394.91,185.218,394.9,185.215,394.881Z" transform="translate(-160.004 -394.881)" fill="#875ce5"/>
            </g>
            <g id="Grupo_1242178" data-name="Grupo 1242178" transform="translate(0 5.982)">
              <path id="Trazado_1295725" data-name="Trazado 1295725" d="M96.823,422.935c-2.091-1.36-4.45,1.249-4.45,1.249s-2.319-.221-2.319.992c0,2.093,7.362,1.413,7.362,1.413Z" transform="translate(-90.055 -422.542)" fill="#fdc"/>
            </g>
          </g>
        </g>
        <g id="Grupo_1242183" data-name="Grupo 1242183" transform="translate(0 16.38)">
          <g id="Grupo_1242181" data-name="Grupo 1242181">
            <path id="Trazado_1295726" data-name="Trazado 1295726" d="M40.444,185.733c.431-.887,3.55-4.443,5.9-8.14a17.541,17.541,0,0,0,2.35-8.333v-9.624c-5.768,1.166-4.7,10.284-6.638,14.612-1.233,2.758-4.01,7.852-4.01,7.852s-2.921.774-3.038,2.065c-.132,1.455,1.557.88,1.557.88s-2.535,3.224-1.125,4.251S39.571,187.528,40.444,185.733Z" transform="translate(-35 -159.637)" fill="#fdc"/>
          </g>
          <g id="Grupo_1242182" data-name="Grupo 1242182" transform="translate(28.195)">
            <path id="Trazado_1295727" data-name="Trazado 1295727" d="M311.141,185.733c-.431-.887-3.55-4.443-5.9-8.14a17.541,17.541,0,0,1-2.35-8.333v-9.624c5.768,1.166,4.7,10.284,6.638,14.612,1.233,2.758,4.01,7.852,4.01,7.852s2.921.774,3.038,2.065c.132,1.455-1.557.88-1.557.88s2.535,3.224,1.125,4.251S312.013,187.528,311.141,185.733Z" transform="translate(-302.891 -159.637)" fill="#fdc"/>
          </g>
        </g>
        <g id="Grupo_1242184" data-name="Grupo 1242184" transform="translate(12.16)">
          <path id="Trazado_1295728" data-name="Trazado 1295728" d="M164.715,6.07c-1.461-1.2-4.729-3.006-6.969-1.492a3.978,3.978,0,0,0-1.455,1.97,3.464,3.464,0,0,0-2.428,1.114,37.867,37.867,0,0,0-3.285,7.716c-.575,3.868,5.757,6.09,8.747,6.007,3.368-.093,8.641.066,9.23-4.913.418-3.532-1.339-8.348-3.84-10.4Z" transform="translate(-150.541 -4)" fill="#666"/>
        </g>
        <g id="Grupo_1242185" data-name="Grupo 1242185" transform="translate(11.66 15.658)">
          <path id="Trazado_1295729" data-name="Trazado 1295729" d="M145.785,176.027l6.582,2.524,11.2-2.395s-2.285-3.36-.861-6.958c1.036-2.616,1.647-4.6.253-8.186-1.126-2.893-.636-7.515-.636-7.515a17.529,17.529,0,0,0-2.927-.722,5.914,5.914,0,0,1,.133,1.245,4.731,4.731,0,1,1-9.4,0,5.931,5.931,0,0,1,.114-1.154,21.537,21.537,0,0,0-2.422.631,16.943,16.943,0,0,1-.779,6.866c-1.916,5.3-.158,7.089.41,9.63C148.123,173.007,145.785,176.027,145.785,176.027Z" transform="translate(-145.785 -152.776)" fill="#ff88b3"/>
        </g>
        <g id="Grupo_1242186" data-name="Grupo 1242186" transform="translate(11.66 16.01)">
          <path id="Trazado_1295730" data-name="Trazado 1295730" d="M149.107,156.117c-.8.2-1.288.371-1.288.371a16.943,16.943,0,0,1-.779,6.866c-1.916,5.3-.158,7.089.41,9.63.674,3.013-1.664,6.033-1.664,6.033l1.475.566c.921-1.715,2.215-4.6,1.768-6.6-.568-2.541-2.326-4.33-.41-9.63A16.281,16.281,0,0,0,149.107,156.117Z" transform="translate(-145.785 -156.117)" fill="#e55c7d"/>
        </g>
        <g id="Grupo_1242189" data-name="Grupo 1242189" transform="translate(16.002 6.734)">
          <g id="Grupo_1242187" data-name="Grupo 1242187" transform="translate(0 6.126)">
            <path id="Trazado_1295731" data-name="Trazado 1295731" d="M196.308,128.984c-.582-.1-1.243-.192-1.974-.262v-2.536h-4.7v2.509a24.451,24.451,0,0,0-2.479.381,5.923,5.923,0,0,0-.114,1.154,4.731,4.731,0,1,0,9.4,0A5.912,5.912,0,0,0,196.308,128.984Z" transform="translate(-187.042 -126.185)" fill="#fdc"/>
          </g>
          <g id="Grupo_1242188" data-name="Grupo 1242188" transform="translate(0.645)">
            <path id="Trazado_1295732" data-name="Trazado 1295732" d="M199.532,69.1a2.868,2.868,0,0,1-3.445-1.115l-2.913.006v3.226a5.223,5.223,0,0,0,2.589,4.514,4.028,4.028,0,0,0,4.018-.036,5.222,5.222,0,0,0,2.757-4.607A2.207,2.207,0,0,0,199.532,69.1Z" transform="translate(-193.174 -67.981)" fill="#fdc"/>
          </g>
        </g>
      </g>
      <g id="Grupo_1242195" data-name="Grupo 1242195" transform="translate(1.684 9.849)">
        <g id="Grupo_1242191" data-name="Grupo 1242191">
          <circle id="Elipse_11562" data-name="Elipse 11562" cx="4.736" cy="4.736" r="4.736" transform="translate(0.526 0.526)" fill="#ffbf80"/>
          <path id="Trazado_1295733" data-name="Trazado 1295733" d="M21.262,104.1a5.262,5.262,0,1,1,5.262-5.262A5.268,5.268,0,0,1,21.262,104.1Zm0-9.472a4.21,4.21,0,1,0,4.21,4.21A4.215,4.215,0,0,0,21.262,94.625Z" transform="translate(-16 -93.573)" fill="#333"/>
        </g>
        <g id="Grupo_1242194" data-name="Grupo 1242194" transform="translate(3.232 3.675)">
          <g id="Grupo_1242192" data-name="Grupo 1242192" transform="translate(3.021)">
            <ellipse id="Elipse_11563" data-name="Elipse 11563" cx="0.52" cy="0.635" rx="0.52" ry="0.635" fill="#333"/>
          </g>
          <g id="Grupo_1242193" data-name="Grupo 1242193">
            <ellipse id="Elipse_11564" data-name="Elipse 11564" cx="0.52" cy="0.635" rx="0.52" ry="0.635" fill="#333"/>
          </g>
        </g>
        <path id="Trazado_1295734" data-name="Trazado 1295734" d="M51.951,153.989a.42.42,0,0,1-.32-.147,1.438,1.438,0,0,0-2.152,0,.421.421,0,0,1-.639-.547,2.287,2.287,0,0,1,3.431,0A.433.433,0,0,1,51.951,153.989Z" transform="translate(-45.292 -146.316)" fill="#333"/>
      </g>
      <g id="Grupo_1242200" data-name="Grupo 1242200" transform="translate(37.047 9.849)">
        <g id="Grupo_1242196" data-name="Grupo 1242196">
          <circle id="Elipse_11565" data-name="Elipse 11565" cx="4.736" cy="4.736" r="4.736" transform="translate(0.526 0.526)" fill="#ffbf80"/>
          <path id="Trazado_1295735" data-name="Trazado 1295735" d="M357.262,104.1a5.262,5.262,0,1,1,5.262-5.262A5.268,5.268,0,0,1,357.262,104.1Zm0-9.472a4.21,4.21,0,1,0,4.21,4.21A4.215,4.215,0,0,0,357.262,94.625Z" transform="translate(-352 -93.573)" fill="#333"/>
        </g>
        <g id="Grupo_1242197" data-name="Grupo 1242197" transform="translate(3.509 6.538)">
          <path id="Trazado_1295736" data-name="Trazado 1295736" d="M388.317,156.749h-2.455a.526.526,0,0,1,0-1.052h2.455a.526.526,0,0,1,0,1.052Z" transform="translate(-385.336 -155.697)" fill="#333"/>
        </g>
        <g id="Grupo_1242198" data-name="Grupo 1242198" transform="translate(6.253 3.531)">
          <ellipse id="Elipse_11566" data-name="Elipse 11566" cx="0.52" cy="0.635" rx="0.52" ry="0.635" fill="#333"/>
        </g>
        <g id="Grupo_1242199" data-name="Grupo 1242199" transform="translate(3.232 3.531)">
          <ellipse id="Elipse_11567" data-name="Elipse 11567" cx="0.52" cy="0.635" rx="0.52" ry="0.635" fill="#333"/>
        </g>
      </g>
      <g id="Grupo_1242204" data-name="Grupo 1242204" transform="translate(38.205 26.92)">
        <g id="Grupo_1242201" data-name="Grupo 1242201">
          <circle id="Elipse_11568" data-name="Elipse 11568" cx="5.262" cy="5.262" r="5.262" fill="#fff399"/>
        </g>
        <g id="Grupo_1242203" data-name="Grupo 1242203" transform="translate(2.531 3.138)">
          <path id="Trazado_1295737" data-name="Trazado 1295737" d="M395.341,317.007a2.567,2.567,0,0,1-1.951-.9.526.526,0,0,1,.8-.684,1.538,1.538,0,0,0,2.3,0,.526.526,0,0,1,.8.684A2.566,2.566,0,0,1,395.341,317.007Z" transform="translate(-392.61 -312.121)" fill="#333"/>
          <g id="Grupo_1242202" data-name="Grupo 1242202">
            <path id="Trazado_1295738" data-name="Trazado 1295738" d="M420.833,285.6a.316.316,0,0,0-.354.12.589.589,0,0,1-.956,0,.318.318,0,0,0-.574.181,1.057,1.057,0,1,0,2.1,0A.315.315,0,0,0,420.833,285.6Z" transform="translate(-415.592 -285.586)" fill="#333"/>
            <path id="Trazado_1295739" data-name="Trazado 1295739" d="M388.936,285.6a.316.316,0,0,0-.354.12.584.584,0,0,1-.956,0,.318.318,0,0,0-.574.181,1.057,1.057,0,1,0,2.1,0A.316.316,0,0,0,388.936,285.6Z" transform="translate(-387.052 -285.586)" fill="#333"/>
          </g>
        </g>
      </g>
      <g id="Grupo_1242207" data-name="Grupo 1242207" transform="translate(0.526 26.92)">
        <g id="Grupo_1242205" data-name="Grupo 1242205">
          <circle id="Elipse_11569" data-name="Elipse 11569" cx="5.262" cy="5.262" r="5.262" fill="#fff399"/>
        </g>
        <g id="Grupo_1242206" data-name="Grupo 1242206" transform="translate(2.531 3.138)">
          <path id="Trazado_1295740" data-name="Trazado 1295740" d="M38.893,317.147a.525.525,0,0,1-.4-.184,1.538,1.538,0,0,0-2.3,0,.526.526,0,0,1-.8-.684,2.6,2.6,0,0,1,3.9,0A.529.529,0,0,1,38.893,317.147Z" transform="translate(-34.611 -312.261)" fill="#333"/>
          <path id="Trazado_1295741" data-name="Trazado 1295741" d="M62.834,285.6a.316.316,0,0,0-.354.12.584.584,0,0,1-.956,0,.318.318,0,0,0-.574.181,1.057,1.057,0,1,0,2.1,0A.316.316,0,0,0,62.834,285.6Z" transform="translate(-57.593 -285.585)" fill="#333"/>
          <path id="Trazado_1295742" data-name="Trazado 1295742" d="M30.936,285.6a.316.316,0,0,0-.354.12.584.584,0,0,1-.956,0,.318.318,0,0,0-.574.181,1.057,1.057,0,1,0,2.1,0A.316.316,0,0,0,30.936,285.6Z" transform="translate(-29.052 -285.585)" fill="#333"/>
        </g>
      </g>
      <path id="Trazado_1295743" data-name="Trazado 1295743" d="M49.256,32.263a5.786,5.786,0,0,0-10.853-2.8c-.242-.984-.428-2.085-.619-3.23-.669-3.995-1.427-8.489-5.132-9.7a5.352,5.352,0,0,0,1.73-3.517c.442-3.741-1.4-8.724-4.028-10.881-2.641-2.17-7.408-3.605-9.134.406C18.883,2.92,18.166,4.663,17.3,6.6a21.333,21.333,0,0,0-1.941,5.179c-.245,1.65.581,3.194,2.343,4.433-.252.075-.416.129-.474.148-4.25.892-5.051,5.661-5.757,9.872-.192,1.144-.378,2.244-.62,3.228a5.792,5.792,0,1,0-3.965,8.492c-.228.427-.409.762-.515.958-.841.249-3.076,1.043-3.206,2.465A1.327,1.327,0,0,0,4.19,42.9a5.206,5.206,0,0,0-1,3.013,1.685,1.685,0,0,0,2.185,1.318,5.893,5.893,0,0,0,2.561-1.708,4.344,4.344,0,0,0,1.238.839,1.388,1.388,0,0,0,.263,1.781c1.669,1.519,5.416,1.109,7.46.89l21.848-2.349A4.346,4.346,0,0,0,41.3,45.5a5.926,5.926,0,0,0,2.582,1.731,1.685,1.685,0,0,0,2.185-1.318,5.206,5.206,0,0,0-1-3.013,1.327,1.327,0,0,0,1.023-1.53c-.129-1.423-2.364-2.216-3.206-2.465-.106-.2-.287-.531-.515-.958a5.785,5.785,0,0,0,6.887-5.688ZM16.4,11.932a19.957,19.957,0,0,1,1.815-4.8c.774-1.742,1.292-3.349,3.439-3.6a.526.526,0,0,0,.433-.341c1.307-3.555,5.426-2.037,7.6-.254,2.344,1.926,4.05,6.574,3.652,9.946A4.182,4.182,0,0,1,31.4,16.158a23.225,23.225,0,0,0-3.894-.753v-.2a5.744,5.744,0,0,0,2.718-4.893,2.763,2.763,0,0,0-3.706-2.486,2.342,2.342,0,0,1-2.8-.86,1.083,1.083,0,0,1,.912-1.585H25.6a.526.526,0,1,0,0-1.051h-.972A2.121,2.121,0,0,0,22.55,6.682l-2.22,0a.526.526,0,0,0-.525.526v3.23a5.781,5.781,0,0,0,1.947,4.318v.62a25.453,25.453,0,0,0-2.649.466c-1.207-.673-2.985-2.006-2.7-3.914Zm5.877,5.249a.526.526,0,0,0,.526-.526V15.494a4.56,4.56,0,0,0,3.647.231v1.022a.526.526,0,0,0,1.052,0v-.281c.336.039.669.083.995.134.376,2.548-1.285,5.55-4.114,5.55-2.795,0-4.46-2.944-4.124-5.473.5-.1,1-.174,1.491-.236v.215a.526.526,0,0,0,.526.526Zm-1.421-6.739V7.737l2.089,0a3.453,3.453,0,0,0,3.9,1.091,1.71,1.71,0,0,1,2.319,1.495,4.694,4.694,0,0,1-2.479,4.144,3.573,3.573,0,0,1-3.5.046,4.719,4.719,0,0,1-2.329-4.065Zm-2.919,6.8c.283-.085.709-.2,1.239-.33-.229,3.051,1.935,6.292,5.207,6.292,3.318,0,5.483-3.323,5.2-6.406.793.163,1.384.328,1.735.437-.094,1.233-.263,4.854.706,7.346,1.312,3.374.78,5.2-.252,7.811a8.4,8.4,0,0,0,.518,6.757L22.12,41.366l-5.93-2.344a8.051,8.051,0,0,0,.8-7.494c-.643-1.816-1.308-3.693.107-7.611a17.255,17.255,0,0,0,.845-6.678ZM33.784,35.123c.7,1.107,1.473,2.2,2.22,3.214l-2.647.577a7.489,7.489,0,0,1-.674-5.95,13.6,13.6,0,0,0,1.1,2.158Zm-18.7,3.657-1.859-.4a26.953,26.953,0,0,0,3.217-5.094A6.892,6.892,0,0,1,15.083,38.78ZM5.789,37.006a4.743,4.743,0,1,1,4.736-4.743A4.745,4.745,0,0,1,5.789,37.006Zm-.669,9.209c-.376.093-.827,0-.888-.441-.114-.817.817-2.363,1.43-3.146a.529.529,0,0,0-.584-.822c-.393.134-.911.2-.863-.336.057-.63,1.615-1.331,2.649-1.607a.526.526,0,0,0,.327-.257c.005-.009.5-.912,1.147-2.143a5.8,5.8,0,0,0,3.122-6.358,28.066,28.066,0,0,0,1.05-4.7c.645-3.849,1.312-7.82,4.389-8.867a16.272,16.272,0,0,1-.8,6.022c-1.491,4.129-.829,6.275-.176,8.128a22.037,22.037,0,0,1-3.58,6.165c-1.187,1.559-2.831,3.134-3.692,4.908C8,44.115,6.31,45.918,5.119,46.214Zm3.507-1.483A8.68,8.68,0,0,0,9.6,43.221a26.307,26.307,0,0,1,2.931-3.92,52.1,52.1,0,0,1,7.715,2.474l-4.374.954a.526.526,0,0,0-.407.6l.109.675c-1.775-.408-3.443,1.031-3.987,1.564a5.107,5.107,0,0,0-1.175.09,3.306,3.306,0,0,1-1.787-.924Zm1.519,2.637a.311.311,0,0,1-.057-.466,2.766,2.766,0,0,1,1.658-.275.527.527,0,0,0,.441-.171c.02-.022,1.926-2.1,3.58-1.271l.462,2.848C14.1,48.177,10.966,48.116,10.145,47.369Zm28.487-1.727-21.352,2.3-.7-4.287,20.111-4.387c1.345,1.779,2.549,3.7,3.915,5.444A3.3,3.3,0,0,1,38.632,45.642Zm3.759-5.779c1.075.285,2.594,1,2.649,1.607.048.527-.484.462-.863.336a.529.529,0,0,0-.584.822c.613.783,1.544,2.329,1.431,3.146-.062.446-.514.534-.888.441a5.689,5.689,0,0,1-2.421-1.82c-1.02-1.282-1.831-2.714-2.84-4.017-2.13-2.752-4.553-5.571-5.627-8.933a9.414,9.414,0,0,0-.243-7.246,17.931,17.931,0,0,1-.652-6.661c3.079,1.046,3.747,5.018,4.392,8.868a28.056,28.056,0,0,0,1.05,4.7,5.8,5.8,0,0,0,3.123,6.358c.651,1.231,1.142,2.133,1.147,2.143a.526.526,0,0,0,.327.257Zm-3.66-7.6a4.736,4.736,0,1,1,4.736,4.743A4.745,4.745,0,0,1,38.731,32.263Z" fill="#333"/>
    </g>
  </g>
</svg>
