<svg xmlns="http://www.w3.org/2000/svg" xmlns:xlink="http://www.w3.org/1999/xlink" width="93" height="93" viewBox="0 0 93 93">
  <defs>
    <filter id="Trazado_982547" x="0" y="0" width="93" height="93" filterUnits="userSpaceOnUse">
      <feOffset dy="3" input="SourceAlpha"/>
      <feGaussianBlur stdDeviation="3" result="blur"/>
      <feFlood flood-opacity="0.161"/>
      <feComposite operator="in" in2="blur"/>
      <feComposite in="SourceGraphic"/>
    </filter>
  </defs>
  <g id="Grupo_1241597" data-name="Grupo 1241597" transform="translate(-615 -3091.139)">
    <g id="Grupo_1241107" data-name="Grupo 1241107" transform="translate(0.5 -1720.174)">
      <g id="Grupo_1233825" data-name="Grupo 1233825" transform="translate(-0.5 3502.823)">
        <g id="Grupo_1209735" data-name="Grupo 1209735" transform="translate(0 -1430.391)">
          <g id="Grupo_1209037" data-name="Grupo 1209037" transform="translate(-178.49 -604.119)">
            <g id="Grupo_1208891" data-name="Grupo 1208891" transform="translate(802.49 3349)">
              <g id="Grupo_1177675" data-name="Grupo 1177675" transform="translate(0 0)">
                <g id="Grupo_1176928" data-name="Grupo 1176928" transform="translate(0 0)">
                  <g id="Grupo_1172322" data-name="Grupo 1172322" transform="translate(0 0)">
                    <g id="Grupo_1164700" data-name="Grupo 1164700">
                      <g id="Grupo_1160931" data-name="Grupo 1160931">
                        <g id="Grupo_1160749" data-name="Grupo 1160749">
                          <g id="Grupo_1158891" data-name="Grupo 1158891">
                            <g id="Grupo_1157406" data-name="Grupo 1157406">
                              <g id="Grupo_1155793" data-name="Grupo 1155793">
                                <g id="Grupo_1154704" data-name="Grupo 1154704">
                                  <g id="Grupo_1150790" data-name="Grupo 1150790">
                                    <g id="Grupo_1154214" data-name="Grupo 1154214">
                                      <g id="Grupo_1152583" data-name="Grupo 1152583">
                                        <g id="Grupo_1146973" data-name="Grupo 1146973">
                                          <g id="Grupo_1146954" data-name="Grupo 1146954">
                                            <g transform="matrix(1, 0, 0, 1, -9, -6)" filter="url(#Trazado_982547)">
                                              <g id="Trazado_982547-2" data-name="Trazado 982547" transform="translate(9 6)" fill="#fef7ea">
                                                <path d="M 37.49999237060547 73.49986267089844 C 32.63936996459961 73.49986267089844 27.92492485046387 72.54824066162109 23.48763656616211 70.67143249511719 C 19.20095825195312 68.85832214355469 15.35081481933594 66.26239013671875 12.04415893554688 62.95573043823242 C 8.737492561340332 59.64907455444336 6.14155912399292 55.79894256591797 4.328447818756104 51.51226425170898 C 2.45162558555603 47.07498550415039 1.500003457069397 42.36055374145508 1.500003457069397 37.49993133544922 C 1.500003457069397 32.63930892944336 2.45162558555603 27.92487525939941 4.328447818756104 23.48759841918945 C 6.14155912399292 19.20092010498047 8.737492561340332 15.35078716278076 12.04415893554688 12.0441312789917 C 15.35081481933594 8.737475395202637 19.20095825195312 6.141542434692383 23.48763656616211 4.328431129455566 C 27.92492485046387 2.45162034034729 32.63936996459961 1.499997973442078 37.49999237060547 1.499997973442078 C 42.36061477661133 1.499997973442078 47.07505798339844 2.45162034034729 51.51234817504883 4.328431129455566 C 55.79902648925781 6.141542434692383 59.649169921875 8.737475395202637 62.95582580566406 12.0441312789917 C 66.26248931884766 15.35078716278076 68.85842895507812 19.20092010498047 70.67153930664062 23.48759841918945 C 72.54836273193359 27.92487525939941 73.49998474121094 32.63930892944336 73.49998474121094 37.49993133544922 C 73.49998474121094 42.36055374145508 72.54836273193359 47.07498550415039 70.67153930664062 51.51226425170898 C 68.85842895507812 55.79894256591797 66.26248931884766 59.64907455444336 62.95582580566406 62.95573043823242 C 59.649169921875 66.26239013671875 55.79902648925781 68.85832214355469 51.51234817504883 70.67143249511719 C 47.07505798339844 72.54824066162109 42.36061477661133 73.49986267089844 37.49999237060547 73.49986267089844 Z" stroke="none"/>
                                                <path d="M 37.49999237060547 2.999992370605469 C 32.84120559692383 2.999992370605469 28.32336807250977 3.911758422851562 24.07196807861328 5.709945678710938 C 19.96409225463867 7.447418212890625 16.27420425415039 9.935409545898438 13.10481643676758 13.10479354858398 C 9.935432434082031 16.2741813659668 7.447441101074219 19.96405792236328 5.709953308105469 24.07191848754883 C 3.911766052246094 28.32331848144531 3.000007629394531 32.84114456176758 3.000007629394531 37.49993133544922 C 3.000007629394531 42.15870666503906 3.911766052246094 46.67654418945312 5.709953308105469 50.92793273925781 C 7.447441101074219 55.03580474853516 9.935432434082031 58.72568130493164 13.10481643676758 61.89505767822266 C 16.27420425415039 65.06444549560547 19.96409225463867 67.55242919921875 24.07196807861328 69.28990936279297 C 28.32336807250977 71.08809661865234 32.84120559692383 71.99985504150391 37.49999237060547 71.99985504150391 C 42.15877914428711 71.99985504150391 46.67661666870117 71.08809661865234 50.92801666259766 69.28990936279297 C 55.03589248657227 67.55242919921875 58.72578048706055 65.06444549560547 61.89516830444336 61.89505767822266 C 65.06455230712891 58.72568130493164 67.55254364013672 55.03580474853516 69.29003143310547 50.92793273925781 C 71.08821868896484 46.67654418945312 71.99997711181641 42.15870666503906 71.99997711181641 37.49993133544922 C 71.99997711181641 32.84114456176758 71.08821868896484 28.32331848144531 69.29003143310547 24.07191848754883 C 67.55254364013672 19.96405792236328 65.06455230712891 16.2741813659668 61.89516830444336 13.10479354858398 C 58.72578048706055 9.935409545898438 55.03589248657227 7.447418212890625 50.92801666259766 5.709945678710938 C 46.67661666870117 3.911758422851562 42.15877914428711 2.999992370605469 37.49999237060547 2.999992370605469 M 37.49999237060547 -7.62939453125e-06 C 58.21065521240234 -7.62939453125e-06 74.99997711181641 16.7892951965332 74.99997711181641 37.49993133544922 C 74.99997711181641 58.2105712890625 58.21065521240234 74.99985504150391 37.49999237060547 74.99985504150391 C 16.78932952880859 74.99985504150391 7.62939453125e-06 58.2105712890625 7.62939453125e-06 37.49993133544922 C 7.62939453125e-06 16.7892951965332 16.78932952880859 -7.62939453125e-06 37.49999237060547 -7.62939453125e-06 Z" stroke="none" fill="#896521"/>
                                              </g>
                                            </g>
                                          </g>
                                        </g>
                                      </g>
                                    </g>
                                  </g>
                                </g>
                              </g>
                            </g>
                          </g>
                        </g>
                      </g>
                    </g>
                  </g>
                </g>
              </g>
            </g>
          </g>
        </g>
      </g>
    </g>
    <g id="sustancia-quimica-peligrosa" transform="translate(634.978 3104.632)">
      <g id="Grupo_1241571" data-name="Grupo 1241571" transform="translate(5.103 5)">
        <g id="Grupo_1241541" data-name="Grupo 1241541" transform="translate(0.368 0.368)">
          <circle id="Elipse_12513" data-name="Elipse 12513" cx="16.472" cy="16.472" r="16.472" fill="#343434"/>
        </g>
        <g id="Grupo_1241542" data-name="Grupo 1241542">
          <path id="Trazado_1295892" data-name="Trazado 1295892" d="M21.98,38.68A16.84,16.84,0,1,1,38.82,21.84,16.859,16.859,0,0,1,21.98,38.68Zm0-32.943a16.1,16.1,0,1,0,16.1,16.1A16.119,16.119,0,0,0,21.98,5.737Z" transform="translate(-5.14 -5)"/>
        </g>
        <g id="Grupo_1241543" data-name="Grupo 1241543" transform="translate(3.073 3.073)">
          <circle id="Elipse_12514" data-name="Elipse 12514" cx="13.767" cy="13.767" r="13.767" fill="#5cc1e6"/>
        </g>
        <g id="Grupo_1241544" data-name="Grupo 1241544" transform="translate(2.705 2.705)">
          <path id="Trazado_1295893" data-name="Trazado 1295893" d="M22.945,36.941A14.135,14.135,0,1,1,37.081,22.805,14.152,14.152,0,0,1,22.945,36.941Zm0-27.534a13.4,13.4,0,1,0,13.391,13.4A13.419,13.419,0,0,0,22.945,9.407Z" transform="translate(-8.81 -8.67)"/>
        </g>
        <g id="Grupo_1241547" data-name="Grupo 1241547" transform="translate(19.913 22.375)">
          <g id="Grupo_1241545" data-name="Grupo 1241545" transform="translate(0.368 0.368)">
            <path id="Trazado_1295894" data-name="Trazado 1295894" d="M36.478,37.769a1.909,1.909,0,1,1-1.909-1.909A1.909,1.909,0,0,1,36.478,37.769Z" transform="translate(-32.66 -35.86)" fill="#e6e6e6"/>
          </g>
          <g id="Grupo_1241546" data-name="Grupo 1241546">
            <path id="Trazado_1295895" data-name="Trazado 1295895" d="M34.437,39.915a2.277,2.277,0,1,1,2.277-2.277A2.279,2.279,0,0,1,34.437,39.915Zm0-3.818a1.54,1.54,0,1,0,1.54,1.54A1.544,1.544,0,0,0,34.437,36.1Z" transform="translate(-32.16 -35.36)"/>
          </g>
        </g>
        <g id="Grupo_1241550" data-name="Grupo 1241550" transform="translate(7.355 13.531)">
          <g id="Grupo_1241548" data-name="Grupo 1241548" transform="translate(0.368 0.376)">
            <path id="Trazado_1295896" data-name="Trazado 1295896" d="M19.438,25.779a1.909,1.909,0,1,1-1.909-1.909A1.909,1.909,0,0,1,19.438,25.779Z" transform="translate(-15.62 -23.87)" fill="#e6e6e6"/>
          </g>
          <g id="Grupo_1241549" data-name="Grupo 1241549">
            <path id="Trazado_1295897" data-name="Trazado 1295897" d="M17.4,27.915a2.277,2.277,0,1,1,2.277-2.277A2.279,2.279,0,0,1,17.4,27.915Zm0-3.81a1.54,1.54,0,1,0,1.54,1.54A1.544,1.544,0,0,0,17.4,24.1Z" transform="translate(-15.12 -23.36)"/>
          </g>
        </g>
        <g id="Grupo_1241553" data-name="Grupo 1241553" transform="translate(17.688 11.946)">
          <g id="Grupo_1241551" data-name="Grupo 1241551" transform="translate(0.368 0.368)">
            <path id="Trazado_1295898" data-name="Trazado 1295898" d="M32.175,22.978a1.268,1.268,0,1,1-1.268-1.268A1.268,1.268,0,0,1,32.175,22.978Z" transform="translate(-29.64 -21.71)" fill="#e6e6e6"/>
          </g>
          <g id="Grupo_1241552" data-name="Grupo 1241552">
            <path id="Trazado_1295899" data-name="Trazado 1295899" d="M30.776,24.482a1.636,1.636,0,1,1,1.636-1.636,1.642,1.642,0,0,1-1.636,1.636Zm0-2.535a.9.9,0,1,0,.9.9.9.9,0,0,0-.9-.9Z" transform="translate(-29.14 -21.21)"/>
          </g>
        </g>
        <g id="Grupo_1241556" data-name="Grupo 1241556" transform="translate(11.659 6.338)">
          <g id="Grupo_1241554" data-name="Grupo 1241554" transform="translate(0.368 0.368)">
            <path id="Trazado_1295900" data-name="Trazado 1295900" d="M24,15.368A1.268,1.268,0,1,1,22.728,14.1,1.268,1.268,0,0,1,24,15.368Z" transform="translate(-21.46 -14.1)" fill="#e6e6e6"/>
          </g>
          <g id="Grupo_1241555" data-name="Grupo 1241555">
            <path id="Trazado_1295901" data-name="Trazado 1295901" d="M22.6,16.872a1.636,1.636,0,1,1,1.636-1.636A1.642,1.642,0,0,1,22.6,16.872Zm0-2.535a.9.9,0,1,0,.9.9A.9.9,0,0,0,22.6,14.337Z" transform="translate(-20.96 -13.6)"/>
          </g>
        </g>
        <g id="Grupo_1241559" data-name="Grupo 1241559" transform="translate(10.782 23.06)">
          <g id="Grupo_1241557" data-name="Grupo 1241557" transform="translate(0.376 0.368)">
            <path id="Trazado_1295902" data-name="Trazado 1295902" d="M22.727,38.013A1.223,1.223,0,1,1,21.5,36.79,1.22,1.22,0,0,1,22.727,38.013Z" transform="translate(-20.28 -36.79)" fill="#e6e6e6"/>
          </g>
          <g id="Grupo_1241558" data-name="Grupo 1241558">
            <path id="Trazado_1295903" data-name="Trazado 1295903" d="M21.362,39.474a1.592,1.592,0,1,1,1.592-1.592A1.595,1.595,0,0,1,21.362,39.474Zm0-2.447a.855.855,0,1,0,.855.855A.846.846,0,0,0,21.362,37.027Z" transform="translate(-19.77 -36.29)"/>
          </g>
        </g>
        <g id="Grupo_1241562" data-name="Grupo 1241562" transform="translate(24.556 14.224)">
          <g id="Grupo_1241560" data-name="Grupo 1241560" transform="translate(0.368 0.368)">
            <path id="Trazado_1295904" data-name="Trazado 1295904" d="M41.407,26.023A1.223,1.223,0,1,1,40.183,24.8,1.22,1.22,0,0,1,41.407,26.023Z" transform="translate(-38.96 -24.8)" fill="#e6e6e6"/>
          </g>
          <g id="Grupo_1241561" data-name="Grupo 1241561">
            <path id="Trazado_1295905" data-name="Trazado 1295905" d="M40.052,27.484a1.592,1.592,0,1,1,1.592-1.592A1.595,1.595,0,0,1,40.052,27.484Zm0-2.454a.855.855,0,1,0,.855.855A.856.856,0,0,0,40.052,25.03Z" transform="translate(-38.46 -24.3)"/>
          </g>
        </g>
        <g id="Grupo_1241563" data-name="Grupo 1241563" transform="translate(17.167 24.99)">
          <path id="Trazado_1295906" data-name="Trazado 1295906" d="M28.888,42.712a.377.377,0,0,1-.361-.287,3.83,3.83,0,0,1,.892-3.4.37.37,0,0,1,.545.5,3.121,3.121,0,0,0-.722,2.742.371.371,0,0,1-.28.442Z" transform="translate(-28.434 -38.908)"/>
        </g>
        <g id="Grupo_1241564" data-name="Grupo 1241564" transform="translate(24.041 19.581)">
          <path id="Trazado_1295907" data-name="Trazado 1295907" d="M38.129,32.845a.355.355,0,0,1-.31-.17.365.365,0,0,1,.118-.509,3.973,3.973,0,0,1,2.815-.531.367.367,0,1,1-.133.722,3.19,3.19,0,0,0-2.285.435A.566.566,0,0,1,38.129,32.845Z" transform="translate(-37.761 -31.569)"/>
        </g>
        <g id="Grupo_1241565" data-name="Grupo 1241565" transform="translate(17.04 18.564)">
          <path id="Trazado_1295908" data-name="Trazado 1295908" d="M28.879,32.681a.373.373,0,0,1-.346-.236,4.278,4.278,0,0,1-.251-1.924.37.37,0,0,1,.737.074,3.552,3.552,0,0,0,.206,1.592.36.36,0,0,1-.214.472A.417.417,0,0,1,28.879,32.681Z" transform="translate(-28.261 -30.189)"/>
        </g>
        <g id="Grupo_1241566" data-name="Grupo 1241566" transform="translate(13.112 13.102)">
          <path id="Trazado_1295909" data-name="Trazado 1295909" d="M23.549,25.271a.373.373,0,0,1-.346-.236,4.278,4.278,0,0,1-.251-1.924.37.37,0,0,1,.737.074,3.552,3.552,0,0,0,.206,1.592.36.36,0,0,1-.214.472.454.454,0,0,1-.133.022Z" transform="translate(-22.931 -22.779)"/>
        </g>
        <g id="Grupo_1241567" data-name="Grupo 1241567" transform="translate(22.61 10.426)">
          <path id="Trazado_1295910" data-name="Trazado 1295910" d="M36.188,21.456a.319.319,0,0,1-.14-.029.36.36,0,0,1-.2-.479,3.157,3.157,0,0,1,1.9-1.783.366.366,0,0,1,.464.236.36.36,0,0,1-.236.464,2.413,2.413,0,0,0-1.452,1.363.357.357,0,0,1-.339.228Z" transform="translate(-35.819 -19.147)"/>
        </g>
        <g id="Grupo_1241568" data-name="Grupo 1241568" transform="translate(16.773 7.298)">
          <path id="Trazado_1295911" data-name="Trazado 1295911" d="M28.268,17.215a.319.319,0,0,1-.14-.029.36.36,0,0,1-.2-.479,3.157,3.157,0,0,1,1.9-1.783.368.368,0,0,1,.228.7,2.413,2.413,0,0,0-1.452,1.363.368.368,0,0,1-.339.228Z" transform="translate(-27.899 -14.903)"/>
        </g>
        <g id="Grupo_1241569" data-name="Grupo 1241569" transform="translate(7.362 21.055)">
          <path id="Trazado_1295912" data-name="Trazado 1295912" d="M16.22,34.624a.33.33,0,0,1-.147-.029l-.722-.317a.37.37,0,0,1,.295-.678l.722.317a.369.369,0,0,1-.147.708Z" transform="translate(-15.129 -33.569)"/>
        </g>
        <g id="Grupo_1241570" data-name="Grupo 1241570" transform="translate(7.362 10.265)">
          <path id="Trazado_1295913" data-name="Trazado 1295913" d="M16.22,19.984a.33.33,0,0,1-.147-.029l-.722-.317a.37.37,0,0,1,.295-.678l.722.317a.369.369,0,0,1-.147.708Z" transform="translate(-15.129 -18.929)"/>
        </g>
      </g>
      <g id="Grupo_1241584" data-name="Grupo 1241584" transform="translate(28.731 15.362)">
        <g id="Grupo_1241572" data-name="Grupo 1241572" transform="translate(0.368 0.368)">
          <path id="Trazado_1295914" data-name="Trazado 1295914" d="M60.4,30.909A11.35,11.35,0,1,1,49.049,19.56,11.35,11.35,0,0,1,60.4,30.909Z" transform="translate(-37.7 -19.56)" fill="#ffe200"/>
        </g>
        <g id="Grupo_1241573" data-name="Grupo 1241573">
          <path id="Trazado_1295915" data-name="Trazado 1295915" d="M48.918,42.5A11.718,11.718,0,1,1,60.636,30.778,11.733,11.733,0,0,1,48.918,42.5Zm0-22.692A10.981,10.981,0,1,0,59.9,30.785,10.994,10.994,0,0,0,48.918,19.8Z" transform="translate(-37.2 -19.06)"/>
        </g>
        <g id="Grupo_1241578" data-name="Grupo 1241578" transform="translate(4.201 5.203)">
          <g id="Grupo_1241574" data-name="Grupo 1241574">
            <path id="Trazado_1295916" data-name="Trazado 1295916" d="M49.3,30.689a2.236,2.236,0,0,0-1.12,1.946H42.9a7.511,7.511,0,0,1,3.766-6.515Z" transform="translate(-42.9 -26.12)" fill="#343434"/>
          </g>
          <g id="Grupo_1241575" data-name="Grupo 1241575" transform="translate(8.652)">
            <path id="Trazado_1295917" data-name="Trazado 1295917" d="M61.037,32.635H55.76a2.245,2.245,0,0,0-1.12-1.946l2.638-4.569A7.55,7.55,0,0,1,61.037,32.635Z" transform="translate(-54.64 -26.12)" fill="#343434"/>
          </g>
          <g id="Grupo_1241576" data-name="Grupo 1241576" transform="translate(3.759 8.461)">
            <path id="Trazado_1295918" data-name="Trazado 1295918" d="M55.517,42.169a7.5,7.5,0,0,1-7.517,0L50.638,37.6a2.228,2.228,0,0,0,2.24,0Z" transform="translate(-48 -37.6)" fill="#343434"/>
          </g>
          <g id="Grupo_1241577" data-name="Grupo 1241577" transform="translate(5.277 4.274)">
            <path id="Trazado_1295919" data-name="Trazado 1295919" d="M54.541,34.16a2.24,2.24,0,1,1-2.24-2.24A2.239,2.239,0,0,1,54.541,34.16Z" transform="translate(-50.06 -31.92)" fill="#343434"/>
          </g>
        </g>
        <g id="Grupo_1241583" data-name="Grupo 1241583" transform="translate(3.832 4.834)">
          <g id="Grupo_1241579" data-name="Grupo 1241579" transform="translate(0 0.003)">
            <path id="Trazado_1295920" data-name="Trazado 1295920" d="M48.045,32.873H42.768A.365.365,0,0,1,42.4,32.5a7.908,7.908,0,0,1,3.95-6.832.369.369,0,0,1,.28-.037.346.346,0,0,1,.221.17l2.638,4.569a.373.373,0,0,1,.037.28.334.334,0,0,1-.177.221,1.867,1.867,0,0,0-.936,1.621A.367.367,0,0,1,48.045,32.873Zm-4.9-.737h4.562a2.6,2.6,0,0,1,.973-1.688L46.4,26.505a7.172,7.172,0,0,0-3.257,5.631Z" transform="translate(-42.4 -25.624)"/>
          </g>
          <g id="Grupo_1241580" data-name="Grupo 1241580" transform="translate(8.646)">
            <path id="Trazado_1295921" data-name="Trazado 1295921" d="M60.9,32.872H55.619a.365.365,0,0,1-.368-.368,1.881,1.881,0,0,0-.936-1.629.364.364,0,0,1-.133-.5L56.82,25.8a.387.387,0,0,1,.221-.17.342.342,0,0,1,.28.037,7.926,7.926,0,0,1,3.95,6.832A.376.376,0,0,1,60.9,32.872Zm-4.938-.737H60.52A7.184,7.184,0,0,0,57.262,26.5l-2.277,3.943a2.632,2.632,0,0,1,.973,1.688Z" transform="translate(-54.131 -25.62)"/>
          </g>
          <g id="Grupo_1241581" data-name="Grupo 1241581" transform="translate(3.759 8.462)">
            <path id="Trazado_1295922" data-name="Trazado 1295922" d="M51.627,43.416a7.867,7.867,0,0,1-3.943-1.061.364.364,0,0,1-.133-.5l2.638-4.569a.364.364,0,0,1,.5-.133,1.9,1.9,0,0,0,1.879,0,.364.364,0,0,1,.5.133l2.638,4.569a.364.364,0,0,1-.133.5A7.914,7.914,0,0,1,51.627,43.416ZM48.385,41.9a7.212,7.212,0,0,0,6.5,0l-2.277-3.943a2.612,2.612,0,0,1-1.946,0Z" transform="translate(-47.501 -37.101)"/>
          </g>
          <g id="Grupo_1241582" data-name="Grupo 1241582" transform="translate(5.277 4.275)">
            <path id="Trazado_1295923" data-name="Trazado 1295923" d="M52.169,36.638a2.609,2.609,0,1,1,2.609-2.609A2.614,2.614,0,0,1,52.169,36.638Zm0-4.481a1.872,1.872,0,1,0,1.872,1.872A1.875,1.875,0,0,0,52.169,32.157Z" transform="translate(-49.56 -31.42)"/>
          </g>
        </g>
      </g>
      <g id="Grupo_1241596" data-name="Grupo 1241596" transform="translate(5 18.347)">
        <g id="Grupo_1241585" data-name="Grupo 1241585" transform="translate(0.366 0.365)">
          <path id="Trazado_1295924" data-name="Trazado 1295924" d="M39.82,56.692H8.631a3.129,3.129,0,0,1-2.7-4.7L21.521,25.164a3.126,3.126,0,0,1,5.409,0L42.525,51.99A3.127,3.127,0,0,1,39.82,56.692Z" transform="translate(-5.497 -23.605)" fill="#ff003b"/>
        </g>
        <g id="Grupo_1241586" data-name="Grupo 1241586">
          <path id="Trazado_1295925" data-name="Trazado 1295925" d="M39.69,56.93H8.5a3.5,3.5,0,0,1-3.022-5.255L21.074,24.849a3.494,3.494,0,0,1,6.043,0L42.711,51.675A3.5,3.5,0,0,1,39.69,56.93ZM24.1,23.847a2.745,2.745,0,0,0-2.388,1.371L6.113,52.044A2.761,2.761,0,0,0,8.5,56.193H39.69a2.761,2.761,0,0,0,2.388-4.149L26.483,25.218A2.745,2.745,0,0,0,24.1,23.847Z" transform="translate(-5 -23.11)"/>
        </g>
        <g id="Grupo_1241587" data-name="Grupo 1241587" transform="translate(3.906 3.965)">
          <path id="Trazado_1295926" data-name="Trazado 1295926" d="M10.3,54.616,25.489,28.49,40.678,54.616Z" transform="translate(-10.3 -28.49)" fill="#e6e6e6"/>
        </g>
        <g id="Grupo_1241588" data-name="Grupo 1241588" transform="translate(3.539 3.596)">
          <path id="Trazado_1295927" data-name="Trazado 1295927" d="M40.547,54.853H10.169a.372.372,0,0,1-.317-.184.366.366,0,0,1,0-.368L25.041,28.174a.372.372,0,0,1,.317-.184.356.356,0,0,1,.317.184L40.864,54.3a.368.368,0,0,1-.317.553ZM10.81,54.116h29.1L25.358,29.088Z" transform="translate(-9.802 -27.99)"/>
        </g>
        <g id="Grupo_1241595" data-name="Grupo 1241595" transform="translate(16.566 12.624)">
          <g id="Grupo_1241591" data-name="Grupo 1241591" transform="translate(0.362 0.368)">
            <g id="Grupo_1241589" data-name="Grupo 1241589">
              <path id="Trazado_1295928" data-name="Trazado 1295928" d="M27.97,40.74l.951,10.487H31.36L32.3,40.74Z" transform="translate(-27.97 -40.74)" fill="#ff003b"/>
            </g>
            <g id="Grupo_1241590" data-name="Grupo 1241590" transform="translate(0.951 12.389)">
              <path id="Trazado_1295929" data-name="Trazado 1295929" d="M29.26,57.55H31.7v2.439H29.26Z" transform="translate(-29.26 -57.55)" fill="#ff003b"/>
            </g>
          </g>
          <g id="Grupo_1241594" data-name="Grupo 1241594">
            <g id="Grupo_1241592" data-name="Grupo 1241592">
              <path id="Trazado_1295930" data-name="Trazado 1295930" d="M31.231,51.464H28.791a.375.375,0,0,1-.368-.339L27.48,40.638a.355.355,0,0,1,.1-.28.373.373,0,0,1,.273-.118h4.333a.366.366,0,0,1,.368.4L31.6,51.125A.375.375,0,0,1,31.231,51.464Zm-2.1-.737h1.761l.877-9.75H28.246Z" transform="translate(-27.479 -40.24)"/>
            </g>
            <g id="Grupo_1241593" data-name="Grupo 1241593" transform="translate(0.944 12.389)">
              <path id="Trazado_1295931" data-name="Trazado 1295931" d="M31.568,60.226H29.128a.365.365,0,0,1-.368-.368V57.418a.365.365,0,0,1,.368-.368h2.439a.365.365,0,0,1,.368.368v2.439A.374.374,0,0,1,31.568,60.226ZM29.5,59.489h1.7v-1.7H29.5Z" transform="translate(-28.76 -57.05)"/>
            </g>
          </g>
        </g>
      </g>
    </g>
  </g>
</svg>
