<svg xmlns="http://www.w3.org/2000/svg" xmlns:xlink="http://www.w3.org/1999/xlink" width="400" height="299" viewBox="0 0 400 299">
  <defs>
    <clipPath id="clip-path">
      <rect id="Rectángulo_424363" data-name="Rectángulo 424363" width="400" height="299" transform="translate(1020 4004)" fill="#fff" stroke="#707070" stroke-width="1"/>
    </clipPath>
  </defs>
  <g id="Enmascarar_grupo_1211495" data-name="Enmascarar grupo 1211495" transform="translate(-1020 -4004)" clip-path="url(#clip-path)">
    <g id="_417424293_de8ecffd-2aaf-44da-922e-891e08b85b19" data-name="417424293_de8ecffd-2aaf-44da-922e-891e08b85b19" transform="translate(648.021 3501.523)">
      <path id="Trazado_1295826" data-name="Trazado 1295826" d="M1455.989,529.384a113.3,113.3,0,0,1,24.075.009,70.6,70.6,0,0,1,18.761,4.6,51.735,51.735,0,0,1,19.065,14.052c.358.364.656.9,1.228.939,3.3.34,6.693.268,9.93,1.1a25.205,25.205,0,0,0-.154,3.9c.024,12.829,0,25.658.033,38.485q-9.57.054-19.137.006c-.027-12.621,0-25.246-.015-37.871-.021-1.3.1-2.607-.036-3.905.066-.692-1.036-.741-1.337-.271a20.5,20.5,0,0,0-.069,2.948c.12,3.914-.1,7.831.051,11.745-.039,9.111-.081,18.225-.024,27.336-4.7.09-9.4-.024-14.1.123.045-.175.135-.527.184-.7a25.577,25.577,0,0,0,.924-7.307,15.385,15.385,0,0,0,4.61-.379c.147-.455.3-.909.458-1.361a8.073,8.073,0,0,0-3.752-2.794c-.241-.412-.479-.822-.689-1.247-.075-.747-.093-1.5-.114-2.249-.072.434-.148.867-.2,1.3a40.04,40.04,0,0,0-4.76-16.03c-3.384-6.251-8.533-11.812-15.141-14.657a32.024,32.024,0,0,0-4.1-1.5c-.849-.557-1.259-1.626-2.192-2.09-2.108-1.111-4.561-1-6.871-.915a8.64,8.64,0,0,0-3.715,1.036c-.921.506-1.186,1.858-2.312,2.035a28.3,28.3,0,0,0-6.058,2.493,25.07,25.07,0,0,0-3.938,2.734,10.638,10.638,0,0,0-8.373-5.164,10.228,10.228,0,0,0-9.876,5.844,14.125,14.125,0,0,0-1.024,5.076,11.836,11.836,0,0,0-9.815-.569c-3.207,1.069-5.51,3.779-6.946,6.738A14.523,14.523,0,0,0,1400,553.049a19.562,19.562,0,0,0-.105-2.908c-.425.018-.846.042-1.268.066q-.018,1.287-.018,2.577a16.639,16.639,0,0,0-6.729,1.243,19.067,19.067,0,0,0-4.227,2.686,8.058,8.058,0,0,1-.8-1.475c.057-.367.412-.548.683-.747a161.3,161.3,0,0,1,43.483-20.311A137.742,137.742,0,0,1,1455.989,529.384Z" transform="translate(-893.36)" fill="#fef7ea"/>
      <path id="Trazado_1295827" data-name="Trazado 1295827" d="M2100.612,736.79a8.637,8.637,0,0,1,3.716-1.036c2.309-.084,4.763-.2,6.871.915.934.464,1.343,1.533,2.192,2.09a32,32,0,0,1,4.1,1.5,49.224,49.224,0,0,1,7.365,10.71,52.867,52.867,0,0,1,5.112,15.41,18.019,18.019,0,0,1,.322,4.5c-1.373-.1-2.734-.289-4.1-.467-1.764-.226-3.544-.051-5.311-.2a45.891,45.891,0,0,0-8.858-.373c-5.709-.021-11.417-.084-17.126.033-2.7.274-5.414.271-8.117.464-4.089.087-8.123.888-12.2,1.084.584-1.957.406-4.062,1.039-6.022,1.867-8.184,6.094-16.021,12.685-21.338a25.066,25.066,0,0,1,3.938-2.734,28.3,28.3,0,0,1,6.058-2.493c1.126-.178,1.391-1.53,2.312-2.035m-1.3,3.718a7.322,7.322,0,0,0-.184,1.469c-.03,4.718.241,9.427.115,14.142a27.769,27.769,0,0,0-.088,3.321c.247,3.161.045,6.335.135,9.5.34,0,.687,0,1.033.009.027-9.457.045-18.917-.006-28.374-.337-.024-.672-.048-1.006-.069m11.787.37c.154,5.588.147,11.179.108,16.767-.006,2.9.094,5.808-.039,8.71a8.935,8.935,0,0,0,.217,2.466,22.055,22.055,0,0,0,.124-3.366c-.054-8.331.045-16.665-.006-25-.1.105-.3.313-.4.418m.594,2c.045,8.677-.066,17.358.063,26.032.376,0,.756,0,1.135-.006q.063-14.086,0-28.173l-.855-.494C2111.478,741.008,2111.734,742,2111.689,742.878Z" transform="translate(-1535.08 -193.11)" fill="#f3af2a"/>
      <path id="Trazado_1295828" data-name="Trazado 1295828" d="M1610.958,788.8a10.228,10.228,0,0,1,9.875-5.844,10.638,10.638,0,0,1,8.373,5.164c-6.591,5.317-10.818,13.154-12.685,21.338-11.3.105-22.594-.087-33.89.1.03-4.321-.033-8.641.009-12.965.021-2.12-.169-4.242-.021-6.362a14.523,14.523,0,0,1,10.553,9.818c1.436-2.96,3.74-5.669,6.946-6.738a11.836,11.836,0,0,1,9.815.569A14.112,14.112,0,0,1,1610.958,788.8Z" transform="translate(-1075.983 -237.18)" fill="#fff"/>
      <path id="Trazado_1295829" data-name="Trazado 1295829" d="M2715.97,803.813c6.609,2.845,11.757,8.406,15.141,14.657a40.033,40.033,0,0,1,4.76,16.03c-.021.193-.063.575-.084.768-2.324-.382-4.676-.578-7.018-.84a18.007,18.007,0,0,0-.322-4.5,52.861,52.861,0,0,0-5.112-15.41A49.249,49.249,0,0,0,2715.97,803.813Z" transform="translate(-2133.556 -256.662)" fill="#d88c19"/>
      <path id="Trazado_1295830" data-name="Trazado 1295830" d="M2441.576,807.5c.334.021.668.045,1.006.069.051,9.457.033,18.917.006,28.374-.346-.006-.693-.006-1.033-.009-.09-3.167.112-6.341-.135-9.5a27.819,27.819,0,0,1,.087-3.321c.126-4.715-.145-9.424-.114-14.142A7.251,7.251,0,0,1,2441.576,807.5Z" transform="translate(-1877.348 -260.105)" fill="#f5fcff"/>
      <path id="Trazado_1295831" data-name="Trazado 1295831" d="M2620.34,807.2c.1-.105.3-.313.4-.418.051,8.331-.048,16.665.006,25a22.086,22.086,0,0,1-.123,3.366,8.935,8.935,0,0,1-.217-2.466c.132-2.9.033-5.808.039-8.71C2620.488,818.381,2620.494,812.79,2620.34,807.2Z" transform="translate(-2044.325 -259.433)" fill="#dfae47"/>
      <path id="Trazado_1295832" data-name="Trazado 1295832" d="M2628.921,806.094c.045-.882-.211-1.87.343-2.641l.855.494q.041,14.086,0,28.173c-.379,0-.759.006-1.135.006C2628.855,823.451,2628.966,814.771,2628.921,806.094Z" transform="translate(-2052.312 -256.326)" fill="#fffefa"/>
      <path id="Trazado_1295833" data-name="Trazado 1295833" d="M1562.134,848.564c.422-.024.843-.048,1.268-.066a19.528,19.528,0,0,1,.105,2.908c-.147,2.12.042,4.242.021,6.362-.042,4.324.021,8.644-.009,12.965-.151,4.613.066,9.225-.006,13.838.069,2.089-.145,4.188.075,6.272.072.139.217.419.289.557a2.133,2.133,0,0,1-1.644.967c.247-.394.5-.783.762-1.171-.015-.09-.042-.268-.054-.358-.289.027-.572.06-.861.066q.077-10.085.03-20.173c.006-6.531-.009-13.061.006-19.589Q1562.116,849.85,1562.134,848.564Z" transform="translate(-1056.87 -298.357)" fill="#757fbe"/>
      <path id="Trazado_1295834" data-name="Trazado 1295834" d="M3202.411,848.469c.3-.47,1.4-.422,1.337.271.132,1.3.015,2.6.036,3.905.012,12.625-.012,25.249.015,37.871.295.2.6.391.9.587-.283.352-.566.7-.873,1.036-.563-.482-.729-1.337-1.454-1.641-.057-9.111-.015-18.225.024-27.336-.15-3.914.069-7.831-.051-11.745A20.607,20.607,0,0,1,3202.411,848.469Z" transform="translate(-2587.368 -298.043)" fill="#737ec3"/>
      <path id="Trazado_1295835" data-name="Trazado 1295835" d="M3509.9,847.6c.4.069.807.135,1.21.2.006,14.067.057,28.133.018,42.2-.452-.009-.9-.012-1.349-.009-.033-12.826-.009-25.655-.033-38.485A25.144,25.144,0,0,1,3509.9,847.6Z" transform="translate(-2874.212 -297.517)" fill="#747cbe"/>
      <path id="Trazado_1295836" data-name="Trazado 1295836" d="M3332.6,850.5a30.491,30.491,0,0,1,6.708,1.1,88.823,88.823,0,0,1,17.069,5.706,82.1,82.1,0,0,1,13.492,7.578,87.262,87.262,0,0,1,22.635,22.822A98.7,98.7,0,0,1,3405.3,914.08c5.688,18.164,6.034,37.636,3.194,56.348-.963,6.407-2.493,12.712-3.7,19.077-3.074,15.271-5.492,30.663-8.295,45.985-1.1,5.983-2.068,12-3.408,17.933-2.442,12.564-5.646,25.3-12.486,36.269a46.221,46.221,0,0,1-7.69,9.433c-17.921-.015-35.841.012-53.762-.015-.162-7.973-.46-15.943-.729-23.912,4.775,4.435,9.761,8.912,15.894,11.366a22.418,22.418,0,0,0,19.914-1.794,21.077,21.077,0,0,0,6.148-5.733,18.477,18.477,0,0,0,3.827-10.767,58.366,58.366,0,0,0-.677-11.113c-1.15-7.142-3.119-14.115-4.754-21.151-2.261-8.147-4.405-16.328-6.868-24.418,12.143-.054,24.289.027,36.431-.039,0-1.424.021-2.848.081-4.269-12.615.084-25.234.03-37.849-.018-.2-.671-.416-1.34-.62-2.008a10.079,10.079,0,0,0,3.908-6.54,9.245,9.245,0,0,0-2.679-7.651,10.934,10.934,0,0,0-4.11-2.442c4.98.156,9.966,0,14.949.084a9.37,9.37,0,0,0-2.457,16.557,9.05,9.05,0,0,0,7.115,1.578,9.6,9.6,0,0,0,5.606-3.752,9.3,9.3,0,0,0,.867-9.581,10.207,10.207,0,0,0-5.368-4.8c4.8-.024,9.593.018,14.389-.006a9.663,9.663,0,0,0-5.468,4.983,9.37,9.37,0,0,0,3.586,11.944,9.213,9.213,0,0,0,6.528,1.228,9.813,9.813,0,0,0,6.29-4.592,9.268,9.268,0,0,0-1.216-10.938,10.772,10.772,0,0,0-3.812-2.526c3.209-.235,6.428.015,9.638-.132.443.03.662-.762.34-1.036-.232-.418-.834-.2-1.213-.289-2.547.015-5.094.06-7.642-.027.021-21.323-.027-42.646.012-63.969-3.426-.078-6.853.081-10.273-.048.072-9.388,0-18.776.006-28.16a2.262,2.262,0,0,0-2.285-2.406c-14.678-.045-29.362.015-44.043-.036C3332.662,878.63,3332.611,864.564,3332.6,850.5Z" transform="translate(-2695.707 -300.221)" fill="#fef7ea"/>
      <path id="Trazado_1295837" data-name="Trazado 1295837" d="M725.523,1181.932a17,17,0,0,1,2.294-2.171,11.239,11.239,0,0,1,1.8-.081c9.677.054,19.354-.087,29.031.066q.054,10.085-.03,20.173c-3.944-.108-7.891-.018-11.839-.057a12.413,12.413,0,0,0-2.632.147,2.111,2.111,0,0,0-1.463,2.005c-.042,4.634.045,9.27-.006,13.9-13.889.054-27.781,0-41.673.036a130.632,130.632,0,0,1,6.482-11.426A144.227,144.227,0,0,1,725.523,1181.932Z" transform="translate(-253.408 -607.373)" fill="#fef7ea"/>
      <path id="Trazado_1295838" data-name="Trazado 1295838" d="M1582.83,1179.476c11.3-.184,22.593.009,33.89-.1-.632,1.96-.455,4.065-1.039,6.022-.175.476-.367.945-.545,1.418a6.293,6.293,0,0,0-3.95,3.146,1.328,1.328,0,0,0,1.153,1.93c1.289.081,2.58.015,3.869.027a23.689,23.689,0,0,0,1.307,7.732c-11.538-.147-23.078-.024-34.616-.069-.22-2.083-.006-4.182-.075-6.272C1582.9,1188.7,1582.679,1184.089,1582.83,1179.476Z" transform="translate(-1076.181 -607.101)" fill="#dadef0"/>
      <path id="Trazado_1295839" data-name="Trazado 1295839" d="M2087.305,1245.287c5.709-.117,11.417-.054,17.126-.033,3.228.4,6.486.437,9.734.542,5.329.391,10.628,1.093,15.955,1.524.211.425.448.834.689,1.246-5.221-.635-10.436-1.358-15.693-1.593a77.679,77.679,0,0,0-9.4-.2c1.141-.1,2.282-.19,3.423-.292-3.234.132-6.467-.078-9.7-.078-11.026-.048-22.084.217-33,1.855.178-.473.37-.942.545-1.418,4.08-.2,8.114-1,12.2-1.084C2081.892,1245.558,2084.607,1245.561,2087.305,1245.287Z" transform="translate(-1527.485 -668.533)" fill="#f9fcfe"/>
      <path id="Trazado_1295840" data-name="Trazado 1295840" d="M2634.25,1243.2a45.881,45.881,0,0,1,8.858.373c1.768.154,3.547-.021,5.311.2,1.364.178,2.725.364,4.1.467,2.343.262,4.694.458,7.018.84.021-.193.063-.575.084-.768.057-.434.132-.867.2-1.3.021.75.039,1.5.115,2.249-5.326-.431-10.625-1.132-15.955-1.524C2640.735,1243.635,2637.478,1243.6,2634.25,1243.2Z" transform="translate(-2057.304 -666.478)" fill="#ebca85"/>
      <path id="Trazado_1295841" data-name="Trazado 1295841" d="M2009,1264.643c10.917-1.638,21.976-1.9,33-1.855,3.234,0,6.467.211,9.7.078-1.141.1-2.282.19-3.423.292a77.707,77.707,0,0,1,9.4.2c5.257.235,10.472.958,15.693,1.593a8.074,8.074,0,0,1,3.751,2.794c-.16.452-.31.906-.458,1.361a15.389,15.389,0,0,1-4.61.379c-2.987.054-5.968.256-8.954.253-4.218.087-8.439.066-12.655.256-10.427-.015-20.859.193-31.283-.16-3.029-.006-6.058-.09-9.09-.093-1.289-.012-2.58.054-3.869-.027a1.328,1.328,0,0,1-1.153-1.93A6.291,6.291,0,0,1,2009,1264.643Z" transform="translate(-1470.043 -684.923)" fill="#d98f1b"/>
      <path id="Trazado_1295842" data-name="Trazado 1295842" d="M2875,1363.283c2.987,0,5.968-.2,8.954-.253a25.577,25.577,0,0,1-.924,7.307c-.2.711-.434,1.415-.65,2.123a2.974,2.974,0,0,0-3.559,1.439,15.578,15.578,0,0,1-.154,2.875,16.092,16.092,0,0,1-.175-2.767,4.178,4.178,0,0,1,1.12-1.876,5.422,5.422,0,0,1-3.351-2A35.7,35.7,0,0,1,2875,1363.283Z" transform="translate(-2281.946 -778.463)" fill="#151314"/>
      <path id="Trazado_1295843" data-name="Trazado 1295843" d="M2082.46,1366.85c3.032,0,6.061.087,9.09.093a33.582,33.582,0,0,1-1.042,6.4,10.232,10.232,0,0,1-2.643,1.43c-1.078-.123-2.12-.473-3.2-.575-.063.394-.126.792-.187,1.189.509.2,1.024.391,1.526.617a2.931,2.931,0,0,0-2.255.292c.6-.44.142-1.159.018-1.719A23.683,23.683,0,0,1,2082.46,1366.85Z" transform="translate(-1542.433 -782.027)" fill="#141213"/>
      <path id="Trazado_1295844" data-name="Trazado 1295844" d="M2203.782,1366.906c10.424.352,20.856.145,31.283.159,4.215-.19,8.436-.168,12.654-.256a35.732,35.732,0,0,0,1.262,6.847,6.22,6.22,0,0,0-2.8-.762,2.8,2.8,0,0,0-1.6-1.24,17.906,17.906,0,0,0-11,.09c-.572.232-1.325.367-1.638.96-.123.229-.244.461-.358.693a5.966,5.966,0,0,0-2.767,4.477,12.2,12.2,0,0,0-6.437.033,5.822,5.822,0,0,0-2.532-4.414c-.166-1.319-1.584-1.629-2.64-1.948a18.268,18.268,0,0,0-9.418-.145,3.67,3.67,0,0,0-2.466,1.572,18.5,18.5,0,0,0-2.58.337A33.543,33.543,0,0,0,2203.782,1366.906Z" transform="translate(-1654.665 -781.99)" fill="#f5ba9b"/>
      <path id="Trazado_1295845" data-name="Trazado 1295845" d="M2243.771,1427.692a18.266,18.266,0,0,1,9.418.145c1.057.319,2.475.629,2.64,1.948a5.886,5.886,0,0,0-3.14-.674c-3.794.039-7.6-.244-11.384.153A3.673,3.673,0,0,1,2243.771,1427.692Z" transform="translate(-1690.65 -838.281)" fill="#100f0f"/>
      <path id="Trazado_1295846" data-name="Trazado 1295846" d="M2640.032,1427.792a17.9,17.9,0,0,1,11-.09,2.8,2.8,0,0,1,1.6,1.24,66.442,66.442,0,0,0-8.159.175c-2.05.033-4.131-.551-6.133.2.015-.142.039-.428.054-.569C2638.707,1428.16,2639.46,1428.025,2640.032,1427.792Z" transform="translate(-2061.12 -838.038)" fill="#121112"/>
      <path id="Trazado_1295847" data-name="Trazado 1295847" d="M2118.636,1455.52a18.478,18.478,0,0,1,2.58-.337c3.785-.4,7.59-.115,11.384-.154a5.889,5.889,0,0,1,3.14.674,5.822,5.822,0,0,1,2.532,4.414,12.194,12.194,0,0,1,6.437-.033,5.966,5.966,0,0,1,2.767-4.477c.115-.232.235-.464.358-.693-.015.142-.039.427-.054.569,2-.756,4.083-.172,6.133-.2a66.439,66.439,0,0,1,8.159-.175,6.22,6.22,0,0,1,2.8.762,5.421,5.421,0,0,0,3.351,2,4.182,4.182,0,0,0-1.12,1.876,16.14,16.14,0,0,0,.175,2.767,10.745,10.745,0,0,1-5.636,7.6,14.72,14.72,0,0,1-7.1,1.3,9.712,9.712,0,0,1-7.5-4.167,14.365,14.365,0,0,1-2.354-5.495,10.468,10.468,0,0,0-6.47.12,11.7,11.7,0,0,1-6.265,8.713,11.2,11.2,0,0,1-6.022.735,11.674,11.674,0,0,1-6.771-2.7,11.138,11.138,0,0,1-3.616-8.31c.117-.973-.7-1.638-1.415-2.129-.5-.226-1.018-.419-1.527-.617.06-.4.124-.795.187-1.189,1.081.1,2.123.452,3.2.575a10.2,10.2,0,0,0,2.644-1.43m3.1,1.117c-1.207,0-2.86-.021-3.492,1.219a1.18,1.18,0,0,0-1.159.849c-.226.985-.689,2.261.184,3.068-.027.1-.087.3-.115.4a9.39,9.39,0,0,0,6.519,7.3,12.829,12.829,0,0,0,6.729.135,9.551,9.551,0,0,0,5.871-5.925,6.545,6.545,0,0,0,.129-5.043,3.418,3.418,0,0,0-2.646-2.038c-4-.455-8.015.394-12.02.039m27.555-.012a3.814,3.814,0,0,0-2.99,2.942,8.833,8.833,0,0,0,1.915,6.792,8.481,8.481,0,0,0,6.338,3.634,11.6,11.6,0,0,0,8.033-2.213,9.407,9.407,0,0,0,3.384-5.937c-.042-1.508-.033-3.351-1.319-4.393-1.117-.954-2.679-.9-4.056-.813C2156.832,1456.927,2153.047,1456.12,2149.292,1456.625Z" transform="translate(-1570.561 -864.2)" fill="#1f2743"/>
      <path id="Trazado_1295848" data-name="Trazado 1295848" d="M2985.29,1474.368c.217-.708.446-1.412.65-2.123-.048.178-.139.53-.184.7,4.7-.147,9.4-.033,14.1-.123.726.3.892,1.159,1.455,1.641.307-.331.59-.683.873-1.036-.3-.2-.6-.391-.9-.587q9.565.045,19.137-.006c.448,0,.9,0,1.349.009,14.681.051,29.365-.009,44.043.036a2.262,2.262,0,0,1,2.285,2.406c-.006,9.385.066,18.773-.006,28.16,3.42.13,6.847-.03,10.273.048-.039,21.323.009,42.646-.012,63.969-2.18-.117-4.356.1-6.537.066-5.717-.162-11.435-.105-17.153-.042-4.016-.033-8.033-.015-12.05-.024-3.212,0-6.425-.147-9.632-.009a187.849,187.849,0,0,0-7.286-18.171c3.086-.069,6.175-.039,9.264-.027,4.8-4.595,9.662-9.12,14.41-13.766q-.009-11.142-.012-22.283c-9.616.1-19.24.126-28.856-.018-.087,4.026.072,8.057.006,12.083a2.944,2.944,0,0,1-1.743,2.68,11.024,11.024,0,0,1-1.963.232c-.295.141-.575.3-.858.461-.2-.446-.392-.891-.584-1.331a7.019,7.019,0,0,1-.816-3.219c-.4-.027-.8-.051-1.2-.075-.033,2.327.126,4.658-.012,6.979.015.584-.771.6-1.153.4a3.315,3.315,0,0,1-.229-1.608c.039-1.873.024-3.745-.015-5.618-.367-.06-.734-.12-1.1-.178-.012-3.577,0-7.154-.012-10.731q-1.359-.009-2.719-.063a14.3,14.3,0,0,1,.124-3.649c1.824-1.782,3.887-3.315,5.769-5.04.533-.434,1.051-1.063,1.815-1,3.077-.069,6.154.021,9.234.009q0-1.508.009-3.014c1.1-.012,2.21-.018,3.315-.027.012-3.655.018-7.313,0-10.969,1.46,0,2.924,0,4.39,0,.009,3.649,0,7.3.009,10.947q1.581,0,3.164.03-.027,1.517-.021,3.035c9.009-.12,18.02.051,27.029-.078-.009-6.955.009-13.91-.015-20.862q-37.5.041-74.995.006c.3-2.912-.117-6.353-2.646-8.226M3019.774,1507a1.561,1.561,0,0,0-.47,2.43,1.53,1.53,0,0,0,2.59-.677,1.552,1.552,0,0,0-2.12-1.752m20.832,0a1.553,1.553,0,0,0-.5,2.445,1.512,1.512,0,1,0,.5-2.445m14.8,2.165c.045,5.224-.036,10.448-.009,15.672,5.63-.018,11.264.006,16.894,0-.108-5.215.021-10.43-.075-15.644-5.6-.054-11.207.061-16.81-.027m-39.153,10.514a1.275,1.275,0,0,0,.223,2.24c.819.491,1.707-.319,1.722-1.156a1.251,1.251,0,0,0-1.945-1.084m34.842,10.755c-.075,2.1-.072,4.2-.072,6.3.09,5.85-.06,11.7.006,17.556,8.048-.021,16.093.024,24.138,0,.111-7.943-.169-15.885-.018-23.828-8.015-.036-16.036-.021-24.053-.024m-7.027,16.166a36.5,36.5,0,0,0-2.767,2.647c2.71-.012,5.419.045,8.129-.012-.078-2.5.048-5.01-.1-7.512C3047.488,1543.256,3045.824,1544.978,3044.065,1546.6Z" transform="translate(-2384.856 -880.371)" fill="#7a83c7"/>
      <path id="Trazado_1295849" data-name="Trazado 1295849" d="M732.627,1481.356c.289-.006.572-.039.861-.066.012.09.039.268.054.358-.259.388-.515.777-.762,1.171a2.133,2.133,0,0,0,1.644-.967l-.289-.557c11.538.045,23.078-.078,34.616.069.124.56.584,1.28-.018,1.719-2.366,1.852-2.821,5.127-2.481,7.933q-19.921.023-39.849-.012c-.03,2.12-.012,4.236-.006,6.356,7.759.039,15.518.012,23.277.015a17.951,17.951,0,0,1,3.167.1c.409.3.37.849.4,1.3.006,1.505-.042,3.011-.006,4.516.045,1.231-.382,2.418-.364,3.646.087,6.217.018,12.435.039,18.652a6.985,6.985,0,0,1-.211,2.427.872.872,0,0,1-1.075-.13,13.321,13.321,0,0,1-.114-3.195c.012-6.458-.042-12.917.009-19.375-1.59-.018-3.18-.036-4.766.012,0,3.643.027,7.286.024,10.929a30.206,30.206,0,0,1-.075,3.872.707.707,0,0,1-1.277-.548c-.1-4.769.069-9.544-.1-14.311-16.924.1-33.851-.015-50.775.03.123,5.094-.054,10.192.048,15.286,6.4.078,12.811-.063,19.206.051,1.418,1.132,2.544,2.6,3.893,3.815.533.6,1.421,1.114,1.34,2.029-.006,4.074.015,8.15-.006,12.224,2.463-.075,4.926-.006,7.386-.066q0,1.969-.039,3.944c1.951,1.888,3.857,3.824,5.778,5.745a22.825,22.825,0,0,0-5.582,6.564c-2.294-2.376-4.61-4.739-6.976-7.042-1.132-.446-2.442-.069-3.643-.178-.912.1-2.053-.313-2.773.422-3.92,3.806-7.663,7.8-11.577,11.61-.536.421-.406,1.126-.412,1.722.163,4.844-.06,9.689-.024,14.536-3.405-.06-6.814-.166-10.219-.048-.063-4.935-.021-9.87-.033-14.8a17.6,17.6,0,0,1,.09-2.957,20.359,20.359,0,0,1,2.3-2.532c4.269-4.287,8.485-8.626,12.808-12.853q.009-2.042.012-4.083c2.46-.024,4.92-.018,7.38-.024-.054-3.441-.045-6.886-.006-10.327a16.457,16.457,0,0,0-2.111-2.041c-7.3-.048-14.6.039-21.9-.039-.145,1.409.638,3.378-.723,4.345a29.889,29.889,0,0,1-4.817.138c-.021,15.069.018,30.139-.036,45.208-3.547-.075-7.1.033-10.643-.015q-.027-28.931-.027-57.869c-.135-5.534-.027-11.071-.093-16.608q.009-2.042-.006-4.08c.62.009,1.244.015,1.864.018,13.892-.033,27.784.018,41.673-.036.051-4.634-.036-9.27.006-13.9a2.111,2.111,0,0,1,1.463-2.005,12.4,12.4,0,0,1,2.631-.148c3.947.039,7.895-.051,11.839.057m-48.7,23.927c.018,3.818.048,7.635.006,11.453,1.617.141,3.282-.163,4.872.184,1.277.765.611,2.5.726,3.709,1.225.006,2.451.006,3.673-.06.033-5.1-.075-10.21,0-15.313C690.113,1505.319,687.018,1505.281,683.926,1505.283Z" transform="translate(-227.417 -888.81)" fill="#7a82c7"/>
      <path id="Trazado_1295850" data-name="Trazado 1295850" d="M2185.182,1478.2c4,.355,8.015-.494,12.019-.039a3.418,3.418,0,0,1,2.646,2.038,6.544,6.544,0,0,1-.129,5.043,9.551,9.551,0,0,1-5.871,5.925,12.829,12.829,0,0,1-6.729-.135,9.389,9.389,0,0,1-6.519-7.3c.027-.1.087-.3.115-.4.361-1.3.593-2.625.976-3.917.632-1.241,2.285-1.223,3.492-1.219m6.7,3.158a2.091,2.091,0,0,0-.337,3.511,2.095,2.095,0,1,0,.337-3.511Z" transform="translate(-1634.006 -885.76)" fill="#f7dfd0"/>
      <path id="Trazado_1295851" data-name="Trazado 1295851" d="M2617.431,1478.1c3.754-.506,7.539.3,11.306.012,1.376-.084,2.938-.141,4.056.813,1.286,1.042,1.276,2.884,1.319,4.393a9.407,9.407,0,0,1-3.384,5.937,11.605,11.605,0,0,1-8.033,2.213,8.482,8.482,0,0,1-6.338-3.634,8.833,8.833,0,0,1-1.915-6.793,3.813,3.813,0,0,1,2.99-2.942m3.544,3.194a2.071,2.071,0,0,0-.142,3.592,2.117,2.117,0,0,0,3.158-1.578A2.07,2.07,0,0,0,2620.975,1481.291Z" transform="translate(-2038.7 -885.672)" fill="#f6ded0"/>
      <path id="Trazado_1295852" data-name="Trazado 1295852" d="M2175.012,1499.729a1.18,1.18,0,0,1,1.159-.849c-.382,1.292-.614,2.62-.976,3.917C2174.322,1501.99,2174.785,1500.714,2175.012,1499.729Z" transform="translate(-1628.487 -905.224)" fill="#1b1415"/>
      <path id="Trazado_1295853" data-name="Trazado 1295853" d="M2065.722,1501.75a2.932,2.932,0,0,1,2.255-.292c.71.491,1.533,1.156,1.415,2.129a11.138,11.138,0,0,0,3.616,8.31,11.673,11.673,0,0,0,6.771,2.7,11.2,11.2,0,0,0,6.022-.735,11.7,11.7,0,0,0,6.266-8.713,10.468,10.468,0,0,1,6.47-.12,14.363,14.363,0,0,0,2.354,5.495,9.712,9.712,0,0,0,7.5,4.167,14.716,14.716,0,0,0,7.1-1.3,10.746,10.746,0,0,0,5.636-7.6,15.6,15.6,0,0,0,.154-2.875,2.974,2.974,0,0,1,3.559-1.439c2.529,1.873,2.95,5.314,2.646,8.226-.786,3.595-2.466,7.362-5.745,9.322a10.124,10.124,0,0,1-2.725.9,38.231,38.231,0,0,1-4.008,9.282,37.5,37.5,0,0,1-3.781,4.923,4.027,4.027,0,0,0-.876,2.914,34.059,34.059,0,0,0,.217,5.784c.262,1.776.105,3.613.647,5.347.2.792.593,1.692.045,2.439-4.4,3.164-8.768,6.38-13.23,9.46a18.441,18.441,0,0,0-2.827,2.162c-.03-.03-.087-.087-.117-.114-5.471-4.152-11.273-7.861-16.7-12.068,1.421-3.541,1.219-7.455,1.385-11.2a21.237,21.237,0,0,0-.093-4.375,34.391,34.391,0,0,1-6.428-9.87c-.78-1.427-1.09-3.038-1.734-4.522a9.911,9.911,0,0,1-4.6-2.683,20.364,20.364,0,0,1-1.882-2.592,16.064,16.064,0,0,1-1.785-5.125c-.341-2.806.114-6.082,2.481-7.934m.433,5.254a9.611,9.611,0,0,1,1.888,2.373c.656,1.584.617,3.333.918,5l1.123-.018a11.808,11.808,0,0,0-.861-4.986,5.786,5.786,0,0,0-2.722-3.306c-.157.29-.627.569-.346.937m57.029-.352a10.788,10.788,0,0,0-2.637,7.651c.226.075.677.232.9.31.774-1.776.464-3.848,1.391-5.567.512-.943,1.81-1.439,1.792-2.629-.5-.094-1.086-.241-1.445.235m-26.76.072c-.078,3.158.75,6.3.446,9.463a1.333,1.333,0,0,1-1.4,1.132c-.921-.042-1.436-.9-2.132-1.376-.47-.265-.795.3-1.09.551a3.417,3.417,0,0,0,5.025,1.56c1.3-1.09,1.093-2.96,1-4.474-.289-2.306-.226-4.649-.69-6.934-.388.027-.773.051-1.156.078m-9.089,19.191a1.488,1.488,0,0,0,.677,1.4,12.656,12.656,0,0,0,14.6-.3.718.718,0,0,0-.458-1.322,15.771,15.771,0,0,1-4.185,2.129,10.776,10.776,0,0,1-9.108-1.662,1.279,1.279,0,0,0-1.526-.244m-7.206,9.132c0,.918-.2,1.963.452,2.728a26.666,26.666,0,0,0,5.588,6.139,14.362,14.362,0,0,0,7.19,3.366,13.966,13.966,0,0,0,8.512-1.737,21.677,21.677,0,0,0,6.3-5.718c1.005-1.352,2.586-2.954,1.891-4.775a24.348,24.348,0,0,1-5.187,3.887,20.243,20.243,0,0,1-16.548,1.328A23.868,23.868,0,0,1,2080.128,1535.047Z" transform="translate(-1524.406 -907.477)" fill="#f5ba9a"/>
      <path id="Trazado_1295854" data-name="Trazado 1295854" d="M2333.282,1524.642a2.095,2.095,0,1,1-.337,3.511A2.091,2.091,0,0,1,2333.282,1524.642Z" transform="translate(-1775.407 -929.047)" fill="#323844"/>
      <path id="Trazado_1295855" data-name="Trazado 1295855" d="M2698.369,1524.741a2.07,2.07,0,0,1,3.017,2.014,2.117,2.117,0,0,1-3.158,1.578A2.071,2.071,0,0,1,2698.369,1524.741Z" transform="translate(-2116.094 -929.121)" fill="#343c48"/>
      <path id="Trazado_1295856" data-name="Trazado 1295856" d="M2106.983,1573.571c-.28-.367.19-.647.346-.936a5.784,5.784,0,0,1,2.722,3.306,11.807,11.807,0,0,1,.861,4.986l-1.123.018c-.3-1.668-.262-3.417-.918-5A9.627,9.627,0,0,0,2106.983,1573.571Z" transform="translate(-1565.234 -974.044)" fill="#df7b53"/>
      <path id="Trazado_1295857" data-name="Trazado 1295857" d="M2923.748,1576.738c.358-.476.946-.328,1.445-.235.018,1.189-1.28,1.686-1.791,2.629-.927,1.719-.617,3.791-1.391,5.567-.223-.078-.675-.235-.9-.31A10.79,10.79,0,0,1,2923.748,1576.738Z" transform="translate(-2324.97 -977.563)" fill="#dc7c51"/>
      <path id="Trazado_1295858" data-name="Trazado 1295858" d="M2502.3,1581.358c.382-.027.768-.051,1.156-.078.464,2.285.4,4.628.689,6.934.094,1.515.3,3.384-1,4.474a3.417,3.417,0,0,1-5.025-1.56c.3-.25.62-.816,1.09-.551.7.473,1.21,1.334,2.132,1.376a1.333,1.333,0,0,0,1.4-1.132C2503.049,1587.657,2502.221,1584.516,2502.3,1581.358Z" transform="translate(-1930.282 -982.11)" fill="#dc825d"/>
      <path id="Trazado_1295859" data-name="Trazado 1295859" d="M1024.941,1626.5q19.926.059,39.849.012a16.067,16.067,0,0,0,1.785,5.124,20.367,20.367,0,0,0,1.882,2.592,9.911,9.911,0,0,0,4.6,2.683c.644,1.484.954,3.095,1.734,4.522a34.393,34.393,0,0,0,6.428,9.87,21.246,21.246,0,0,1,.093,4.375c-.166,3.742.036,7.656-1.385,11.2-4.357,1.349-8.677,2.815-13.013,4.227-.3.072-.605.142-.9.211-.045-.4-.093-.795-.145-1.189l-.247.072c-3.941,1.117-7.762,2.61-11.64,3.917,0,.289.009.581.018.873-3.776,1-7.455,2.339-11.185,3.49a63.815,63.815,0,0,0-6.573,2.039,28.6,28.6,0,0,0-5.543,3.309c-1.921-1.921-3.827-3.857-5.778-5.745q.031-1.974.039-3.944c-2.46.06-4.923-.009-7.386.066.021-4.073,0-8.15.006-12.224.081-.915-.807-1.433-1.34-2.03-1.349-1.219-2.475-2.683-3.893-3.815-6.4-.115-12.805.027-19.206-.051-.1-5.094.075-10.192-.048-15.286,16.924-.045,33.851.069,50.775-.03.166,4.766,0,9.542.1,14.311a.707.707,0,0,0,1.277.548,30.2,30.2,0,0,0,.075-3.872c0-3.643-.021-7.286-.024-10.929,1.587-.048,3.177-.03,4.766-.012-.051,6.458,0,12.917-.009,19.375a13.322,13.322,0,0,0,.115,3.194.872.872,0,0,0,1.075.13,6.992,6.992,0,0,0,.211-2.427c-.021-6.218.048-12.435-.039-18.652-.018-1.229.409-2.415.364-3.646-.036-1.506.012-3.011.006-4.516-.033-.452.006-1-.4-1.3a17.951,17.951,0,0,0-3.167-.1c-7.759,0-15.518.024-23.277-.015C1024.929,1630.737,1024.911,1628.62,1024.941,1626.5Z" transform="translate(-525.955 -1024.305)" fill="#fef7ea"/>
      <path id="Trazado_1295860" data-name="Trazado 1295860" d="M2785.544,1626.826q37.5-.018,74.994-.006c.024,6.952.006,13.907.015,20.862-9.009.129-18.02-.042-27.029.078q0-1.517.021-3.035-1.586-.036-3.165-.03c-.006-3.649,0-7.3-.009-10.948-1.466-.006-2.929,0-4.39,0q.027,5.483,0,10.969c-1.1.009-2.21.015-3.315.027q0,1.5-.009,3.014c-3.08.012-6.157-.078-9.234-.009-.765-.06-1.283.569-1.815,1-1.882,1.725-3.944,3.258-5.769,5.04a14.309,14.309,0,0,0-.124,3.649q1.36.054,2.719.063c.012,3.577,0,7.154.012,10.731.361.057.729.117,1.1.177.039,1.873.054,3.746.015,5.618a3.318,3.318,0,0,0,.229,1.608c.382.2,1.168.184,1.153-.4.138-2.322-.021-4.652.012-6.979.4.024.8.048,1.2.075a7.021,7.021,0,0,0,.816,3.219c.015,2.484.021,4.971.054,7.458.46-.009.924-.015,1.391-.015.021-2.192-.027-4.384,0-6.573a11.049,11.049,0,0,0,1.963-.232,2.945,2.945,0,0,0,1.743-2.68c.066-4.026-.093-8.057-.006-12.083,9.617.145,19.239.115,28.856.018q0,11.142.012,22.283c-4.748,4.646-9.614,9.171-14.41,13.766-3.089-.012-6.178-.042-9.264.027-1.12-2.279-2.048-4.709-3.724-6.66-3.144-3.721-7.624-6.067-12.227-7.467-3.207-.958-6.329-2.153-9.518-3.155a16.838,16.838,0,0,0-2.5-.912c0-.286.006-.569.012-.852-3.983-1.307-7.924-2.734-11.92-4-.012.142-.039.422-.051.56s-.039.376-.051.5l-.395-.129c-3.4-1.289-6.88-2.33-10.309-3.529-1.063-.358-2.318-1.042-3.309-.145.548-.747.159-1.647-.045-2.439-.542-1.734-.385-3.571-.647-5.347a34.035,34.035,0,0,1-.217-5.784,4.026,4.026,0,0,1,.876-2.914,37.5,37.5,0,0,0,3.781-4.923,38.231,38.231,0,0,0,4.008-9.282,10.121,10.121,0,0,0,2.725-.9C2783.078,1634.187,2784.758,1630.421,2785.544,1626.826Z" transform="translate(-2182.464 -1024.603)" fill="#fef7ea"/>
      <path id="Trazado_1295861" data-name="Trazado 1295861" d="M444.733,1784.4a13.423,13.423,0,0,1,1.006-1.749c.066,5.537-.042,11.074.093,16.608q.032,28.936.027,57.869c-4.546.042-9.1,0-13.642.027-.1.464-.316,1.111.34,1.283,1.445.156,2.905,0,4.357.045a9.391,9.391,0,0,0-3.2,16.111,9.493,9.493,0,0,0,7.759,2.114c.126.087.373.268.5.355-1.021-.021-2.041-.042-3.062-.069-.018,1.454-.015,2.909-.015,4.363,8.927,0,17.851-.009,26.776.009,4.947-.036,9.9.063,14.844-.087-5.35,15.6-10.409,31.322-14.311,47.352-.677,3.5-1.7,7.024-1.394,10.631a19.011,19.011,0,0,0,5.468,12.552A20,20,0,0,0,481,1957.992a24.51,24.51,0,0,0,10.134-.771,75.2,75.2,0,0,0,13.609-6.624c3.971-2.321,7.846-4.808,11.634-7.416-.253,8.572-.548,17.147-.662,25.722q-28.267.009-56.535.012c-1.03-1.635-2.345-3.053-3.517-4.579-7.44-9.852-12.384-21.344-16.012-33.077A242.265,242.265,0,0,1,431.5,1892.8a196.015,196.015,0,0,1-1.882-23.969,202.557,202.557,0,0,1,2.177-38.75A172.319,172.319,0,0,1,444.733,1784.4Z" transform="translate(0 -1170.012)" fill="#fef7ea"/>
      <path id="Trazado_1295862" data-name="Trazado 1295862" d="M834.2,1839.512c3.092,0,6.187.036,9.279-.027-.078,5.1.03,10.21,0,15.313-1.222.066-2.448.066-3.673.06-.114-1.213.551-2.945-.726-3.709-1.59-.346-3.255-.042-4.871-.184C834.251,1847.148,834.221,1843.33,834.2,1839.512Z" transform="translate(-377.694 -1223.039)" fill="#dadef0"/>
      <path id="Trazado_1295863" data-name="Trazado 1295863" d="M2424.73,1866.024a1.28,1.28,0,0,1,1.527.244,10.774,10.774,0,0,0,9.108,1.662,15.773,15.773,0,0,0,4.185-2.129.718.718,0,0,1,.458,1.322,12.656,12.656,0,0,1-14.6.3A1.488,1.488,0,0,1,2424.73,1866.024Z" transform="translate(-1861.802 -1247.585)" fill="#dc825b"/>
      <path id="Trazado_1295864" data-name="Trazado 1295864" d="M3488.525,1989.6a1.551,1.551,0,0,1,2.12,1.752,1.53,1.53,0,0,1-2.589.677A1.561,1.561,0,0,1,3488.525,1989.6Z" transform="translate(-2853.608 -1362.979)" fill="#d2ddef"/>
      <path id="Trazado_1295865" data-name="Trazado 1295865" d="M3799.508,1989.687a1.512,1.512,0,1,1-.5,2.445A1.553,1.553,0,0,1,3799.508,1989.687Z" transform="translate(-3143.759 -1363.058)" fill="#d7dcee"/>
      <path id="Trazado_1295866" data-name="Trazado 1295866" d="M2316.631,2005.76a23.875,23.875,0,0,0,8.2,5.218,20.242,20.242,0,0,0,16.548-1.328,24.332,24.332,0,0,0,5.188-3.887c.7,1.822-.885,3.423-1.891,4.775a21.674,21.674,0,0,1-6.3,5.718,13.967,13.967,0,0,1-8.512,1.737,14.364,14.364,0,0,1-7.19-3.366,26.661,26.661,0,0,1-5.588-6.139C2316.43,2007.723,2316.631,2006.679,2316.631,2005.76Z" transform="translate(-1760.909 -1378.189)" fill="#e1845f"/>
      <path id="Trazado_1295867" data-name="Trazado 1295867" d="M4033,2024.03c5.6.087,11.207-.027,16.81.027.1,5.215-.033,10.43.075,15.645-5.63.006-11.264-.018-16.894,0-.027-5.224.054-10.448.009-15.672m3.24,4.462a.7.7,0,0,0,.584,1.24c3.053-.009,6.112.048,9.162,0,.738.054.843-1.222.124-1.295-2.1-.19-4.2.018-6.3.018-1.189.033-2.385-.1-3.568.036m1.481,4.667c1.783.115,3.574-.051,5.362.072.864-.033,2,.3,2.565-.566-.157-.3-.307-.587-.452-.879-2.4.006-4.8,0-7.193.075A.705.705,0,0,0,4037.726,2033.159Z" transform="translate(-3362.457 -1395.237)" fill="#dadef0"/>
      <path id="Trazado_1295868" data-name="Trazado 1295868" d="M4077.717,2088.85c1.183-.135,2.378,0,3.568-.036,2.1,0,4.206-.208,6.3-.018.72.072.614,1.349-.124,1.295-3.05.048-6.109-.009-9.162,0A.7.7,0,0,1,4077.717,2088.85Z" transform="translate(-3403.93 -1455.595)" fill="#797fc4"/>
      <path id="Trazado_1295869" data-name="Trazado 1295869" d="M4099.143,2141.323a.705.705,0,0,1,.283-1.3c2.393-.075,4.793-.069,7.192-.075.145.292.3.584.452.879-.569.867-1.7.533-2.565.566C4102.716,2141.272,4100.925,2141.438,4099.143,2141.323Z" transform="translate(-3423.874 -1503.401)" fill="#7983c5"/>
      <path id="Trazado_1295870" data-name="Trazado 1295870" d="M839.689,2153.32c7.3.078,14.609-.009,21.9.039a16.482,16.482,0,0,1,2.111,2.042c-.039,3.441-.048,6.886.006,10.327-2.46.006-4.92,0-7.38.024q0,2.041-.012,4.083c-4.323,4.227-8.539,8.566-12.808,12.854a20.357,20.357,0,0,0-2.3,2.532,17.609,17.609,0,0,0-.09,2.957c.012,4.935-.03,9.87.033,14.8-2.345.094-4.691.051-7.036.03.054-15.069.015-30.139.036-45.208a29.888,29.888,0,0,0,4.817-.138C840.327,2156.7,839.545,2154.729,839.689,2153.32Z" transform="translate(-377.61 -1515.876)" fill="#daddf0"/>
      <path id="Trazado_1295871" data-name="Trazado 1295871" d="M3440.052,2178.1a1.251,1.251,0,0,1,1.945,1.084c-.015.837-.9,1.646-1.722,1.156A1.274,1.274,0,0,1,3440.052,2178.1Z" transform="translate(-2808.657 -1538.791)" fill="#d9dfee"/>
      <path id="Trazado_1295872" data-name="Trazado 1295872" d="M2096.45,2234.177c4.336-1.412,8.656-2.878,13.013-4.227,5.432,4.206,11.233,7.916,16.7,12.068-2.2,2.833-4.456,5.618-6.642,8.46l1.027.349c-.452,0-.909.012-1.355.021a22.383,22.383,0,0,0-9.077.343C2105.558,2245.525,2101.03,2239.829,2096.45,2234.177Z" transform="translate(-1555.487 -1587.379)" fill="#fff"/>
      <path id="Trazado_1295873" data-name="Trazado 1295873" d="M2558.412,2232.136c.99-.9,2.246-.214,3.309.145,3.429,1.2,6.91,2.24,10.309,3.529-1.295,1.177-2.177,2.716-3.378,3.978q-7.316,9.019-14.566,18.083c-.253.018-.506.039-.756.063-3.571-4.793-7.175-9.566-10.975-14.175a18.434,18.434,0,0,1,2.827-2.162C2549.645,2238.517,2554.01,2235.3,2558.412,2232.136Z" transform="translate(-1971.558 -1589.006)" fill="#fff"/>
      <path id="Trazado_1295874" data-name="Trazado 1295874" d="M2978.562,2279.27c4,1.265,7.937,2.692,11.92,4-.006.283-.009.566-.012.852-.135,6.01-.1,12.022-.274,18.032a31.594,31.594,0,0,0-.184-5.064c-.452,5.778-.2,11.583-.4,17.37a6.64,6.64,0,0,0,.277,1.939,7.416,7.416,0,0,0-3.261,5.513c-3.041-.018-6.079.009-9.12-.03l.012-.061c.738-1.93.28-4.02.566-6.019a20.917,20.917,0,0,0,.4-5.57,32.188,32.188,0,0,0-.322-5.853c-.063-3.944.623-7.9.154-11.836.048-4.236.078-8.479.193-12.712C2978.523,2279.692,2978.55,2279.412,2978.562,2279.27Z" transform="translate(-2377.592 -1633.399)" fill="#4d58b0"/>
      <path id="Trazado_1295875" data-name="Trazado 1295875" d="M1793.874,2283.5c3.878-1.307,7.7-2.8,11.64-3.917a6.729,6.729,0,0,1,.286,2.047c-.115,2.806.141,5.618-.109,8.421.145-.719.28-1.442.358-2.171a15.848,15.848,0,0,0,.271,3.131c-.048,2.174.048,4.351.06,6.528-.13,3.73.057,7.461.063,11.191a7.116,7.116,0,0,1-.717,2.571,21.292,21.292,0,0,0,1.442,16.843c-.078.488-.157.976-.232,1.469q.61.059,1.229.126a21.217,21.217,0,0,0,11.339,8.62c-.352,1.174-.605,2.375-.867,3.574-1.581-.268-2.586,1.126-2.878,2.493-2.658.274-5.38.3-7.949,1.126-1.981.7-3.441,2.3-4.947,3.694-.647-.018-1.295-.03-1.942-.039a6.352,6.352,0,0,1-.413,2.544c-2.448,2.785-4.628,5.8-7.087,8.566-.644.042-1.072-.482-1.527-.846-.587.06-1.168.135-1.749.226l1,.093a25.038,25.038,0,0,0-5.106,2.24c.171-2.27.412-4.543.37-6.823.105-1.568.057-3.143.16-4.712.244-2.58.066-5.185.427-7.756.069-4.378.41-8.74.425-13.118,2.463.036,4.929.015,7.392.015.075-.006.22-.012.292-.015a46.061,46.061,0,0,0-.262-8.2,41.919,41.919,0,0,0-.313-4.718c-.033-4.474-.169-8.948-.2-13.423.015-1.31-.244-2.6-.277-3.908-.048-5-.072-10-.157-15C1793.883,2284.083,1793.877,2283.791,1793.874,2283.5Z" transform="translate(-1265.846 -1633.693)" fill="#4e59b2"/>
      <path id="Trazado_1295876" data-name="Trazado 1295876" d="M2077.1,2278.582l.247-.072c.051.395.1.789.145,1.189.087,2.391.1,4.788.145,7.181-.079.729-.214,1.451-.358,2.171.25-2.8-.006-5.615.108-8.421A6.7,6.7,0,0,0,2077.1,2278.582Z" transform="translate(-1537.432 -1632.69)" fill="#262c53"/>
      <path id="Trazado_1295877" data-name="Trazado 1295877" d="M2473.582,2288.148c.012-.126.039-.376.051-.5-.115,4.233-.145,8.476-.193,12.712l-.057-.358c-.3-2.117-.1-4.26-.256-6.383-.452,7.13-.211,14.278-.416,21.416a44.1,44.1,0,0,1-.223,5.712c-.352,2.866-.16,5.76-.256,8.641-.659.105-1.312.214-1.966.325-.1.154-.283.467-.376.623a8.933,8.933,0,0,0-.587,1.114c-5.474.033-10.947-.015-16.421.027a22.257,22.257,0,0,0-.214-12.712,20.931,20.931,0,0,0-12.131-12.9,18.361,18.361,0,0,0-1.891-.641c-.741-.187-1.479-.37-2.222-.533.446-.009.9-.018,1.355-.021l-1.027-.349c2.186-2.842,4.444-5.627,6.642-8.461.03.027.087.084.117.115,3.8,4.61,7.4,9.382,10.975,14.175.25-.024.5-.045.756-.063q7.253-9.064,14.566-18.083c1.2-1.262,2.084-2.8,3.378-3.978Z" transform="translate(-1872.715 -1641.214)" fill="#f3ae29"/>
      <path id="Trazado_1295878" data-name="Trazado 1295878" d="M2082.95,2293.341c.3-.069.6-.138.9-.211,4.58,5.651,9.108,11.348,13.669,17.014a21.218,21.218,0,0,0-12.57,9.243,3.6,3.6,0,0,1-1.051-2.839c-.078-3.514-.081-7.03-.057-10.547a5.731,5.731,0,0,0-.479-2.348,15.847,15.847,0,0,1-.271-3.131C2083.052,2298.128,2083.038,2295.731,2082.95,2293.341Z" transform="translate(-1542.89 -1646.332)" fill="#f4ae2a"/>
      <path id="Trazado_1295879" data-name="Trazado 1295879" d="M3434.75,2295.34l.584,1.331c.283-.157.563-.319.858-.46-.024,2.189.024,4.381,0,6.573-.467,0-.93.006-1.391.015C3434.771,2300.311,3434.765,2297.824,3434.75,2295.34Z" transform="translate(-2804.244 -1648.394)" fill="#6c73be"/>
      <path id="Trazado_1295880" data-name="Trazado 1295880" d="M3967.6,2341.9c8.018,0,16.039-.012,24.054.024-.15,7.942.13,15.885.018,23.828-8.045.024-16.09-.021-24.138,0-.066-5.853.084-11.706-.006-17.556,0-2.1,0-4.2.072-6.3m14.551,2.243a1.457,1.457,0,0,0-.476,2.58,1.435,1.435,0,0,0,2.21-.666,1.455,1.455,0,0,0-1.734-1.915m-11.54.141a1.542,1.542,0,0,0-.479,2.246,1.467,1.467,0,1,0,.479-2.246m5.492.12a1.432,1.432,0,0,0,.048,2.433,1.456,1.456,0,0,0,2.168-1.59,1.426,1.426,0,0,0-2.216-.843m11.134.04a1.414,1.414,0,0,0,.112,2.321c.963.789,2.538-.455,2.135-1.578a1.416,1.416,0,0,0-2.247-.744m-16.24,5.42a1.447,1.447,0,0,0-1.09,1.921,1.49,1.49,0,0,0,2.5.373,1.423,1.423,0,0,0-1.406-2.294m5.41,0a1.457,1.457,0,0,0-.9,1.876,1.505,1.505,0,0,0,2.833-.223,1.448,1.448,0,0,0-1.936-1.653m11.435-.024a1.459,1.459,0,0,0-.96,2.177,1.5,1.5,0,0,0,2.475-.048,1.42,1.42,0,0,0-1.515-2.129m-6.106.154a1.434,1.434,0,0,0-.177,2.273c.9.96,2.8-.084,2.372-1.364a1.512,1.512,0,0,0-2.195-.909m-11.034,5.6a1.436,1.436,0,0,0-.491,2.306,1.5,1.5,0,0,0,2.56-.963,1.463,1.463,0,0,0-2.068-1.343m5.967-.1a1.446,1.446,0,0,0-.906,2.237,1.43,1.43,0,0,0,2.553-.533,1.413,1.413,0,0,0-1.647-1.7m5.422.033a1.448,1.448,0,1,0,1.918,1.4,1.445,1.445,0,0,0-1.918-1.4m5.7-.033a1.456,1.456,0,1,0,1.752,1.737,1.464,1.464,0,0,0-1.752-1.737m-17.17,5.717a1.439,1.439,0,1,0,2.086,1.454,1.425,1.425,0,0,0-2.086-1.454m5.741-.03a1.459,1.459,0,0,0-.024,2.619,1.439,1.439,0,0,0,1.975-1.692,1.372,1.372,0,0,0-1.951-.927m5.435.033a1.473,1.473,0,0,0,.217,2.637c1.162.542,2.451-1.027,1.789-2.086a1.461,1.461,0,0,0-2.005-.551m5.675-.024a1.461,1.461,0,0,0,.006,2.6c1.12.617,2.5-.855,1.915-1.948A1.427,1.427,0,0,0,3987.472,2361.192Z" transform="translate(-3301.367 -1691.839)" fill="#d9ddf0"/>
      <path id="Trazado_1295881" data-name="Trazado 1295881" d="M1009.564,2354.675c3.73-1.15,7.41-2.487,11.185-3.49.084,5,.108,10,.157,15,.033,1.307.292,2.6.277,3.908.036,4.474.172,8.948.2,13.422-.229,3.318.027,6.642.012,9.963a19.868,19.868,0,0,0-.048,2.541c-1.722.057-3.444.042-5.167-.018-.653.018-1.436-.147-1.906.434-.015,4.378-.355,8.741-.425,13.118-.361,2.571-.184,5.176-.427,7.756-.1,1.568-.054,3.143-.16,4.712a15.108,15.108,0,0,0-.584,5,5.584,5.584,0,0,0,.214,1.824,25.012,25.012,0,0,1,5.106-2.24c.111,0,.334.006.446.006-.009.714-.021,1.424-.018,2.141a26.8,26.8,0,0,0,2.553,9.794,47.17,47.17,0,0,0,7.241,10.969,60.279,60.279,0,0,0,5.751,6.362c-.093.126-.277.382-.37.509q-.818.6-1.626,1.2c-3.559,2.632-7.256,5.073-10.776,7.759-.024.015-.072.051-.1.069-4.056,2.674-7.982,5.555-12.025,8.256-3.788,2.608-7.663,5.094-11.634,7.416a75.184,75.184,0,0,1-13.609,6.624,24.5,24.5,0,0,1-10.135.771,19.994,19.994,0,0,1-10.725-6.175,19.012,19.012,0,0,1-5.468-12.552c-.3-3.607.717-7.126,1.394-10.631,3.9-16.03,8.96-31.752,14.311-47.352.419-1.406.969-2.77,1.454-4.155l.06-.135c.024-.066.075-.2.1-.259.62-1.686,1.244-3.372,1.888-5.046.828-1.815,1.373-3.736,2.1-5.594.524-1.524,1.24-2.969,1.807-4.477.428-1.045.825-2.1,1.228-3.152.072-.2.148-.391.226-.581.671-1.581,1.385-3.146,1.969-4.76.1-.069.286-.208.379-.277a10.323,10.323,0,0,1,.915-2.635c2.087-4.745,4.2-9.478,6.528-14.115a22.823,22.823,0,0,1,5.582-6.563,28.615,28.615,0,0,1,5.543-3.309,63.736,63.736,0,0,1,6.573-2.038m-.879,38.295c.214,4.712.422,9.439.25,14.16-.211,6.428-.686,12.958-2.893,19.059-.882,2.448-2.05,5.161-4.6,6.26-8.831,4.1-17.7,8.111-26.5,12.293-.554.162-.587.731-.614,1.216a1.723,1.723,0,0,0,1.427-.048c11.471-5.5,23.081-10.7,34.664-15.952.226-12.5.434-25.014-.376-37.494-.461.024-1.394-.241-1.355.506m-1.74,40.68a15.533,15.533,0,0,0,.557,5.109,40.845,40.845,0,0,0,14.666,22.765l.843-.407c-.018-.117-.051-.352-.066-.469a42.691,42.691,0,0,1-11.577-14.386,32.987,32.987,0,0,1-3.324-11.712c.024-.615-.413-1.385-1.1-.9m17.351,20.5a2.257,2.257,0,0,0-.024,2.716c.951.548,2.478.828,3.119-.31.825-.924.135-2.123-.521-2.908C1026.01,2453.641,1024.862,2453.277,1024.3,2454.147Z" transform="translate(-492.703 -1700.503)" fill="#f3ae2a"/>
      <path id="Trazado_1295882" data-name="Trazado 1295882" d="M3163.134,2351.77a16.838,16.838,0,0,1,2.5.912c-.726-.124-1.448-.235-2.168-.367-.175,10.315-.09,20.636-.563,30.946l.349.349c-.238.139-.47.283-.7.437.22-4.745.151-9.5.31-14.244C3163.038,2363.792,3163,2357.78,3163.134,2351.77Z" transform="translate(-2550.257 -1701.049)" fill="#d7a55c"/>
      <path id="Trazado_1295883" data-name="Trazado 1295883" d="M3168.329,2359.91c.719.133,1.442.244,2.167.367,3.188,1,6.311,2.2,9.518,3.155,4.6,1.4,9.084,3.746,12.227,7.467,1.677,1.951,2.6,4.381,3.725,6.66a187.9,187.9,0,0,1,7.286,18.171c.674,1.74,1.168,3.547,1.927,5.254,1.135,2.911,2.065,5.9,2.987,8.885.4,1.268.813,2.535,1.208,3.806.2.668.418,1.337.62,2.008.4,1.454.867,2.89,1.337,4.326,2.463,8.09,4.606,16.271,6.868,24.418,1.635,7.036,3.6,14.01,4.754,21.151a58.366,58.366,0,0,1,.677,11.113,18.479,18.479,0,0,1-3.827,10.767,21.078,21.078,0,0,1-6.148,5.733,22.417,22.417,0,0,1-19.914,1.794c-6.133-2.454-11.119-6.931-15.894-11.366a39.313,39.313,0,0,1-.075-4.212c.449-.075.9-.147,1.346-.22a12.582,12.582,0,0,0,3.417-.638,5.527,5.527,0,0,0,2.894-4.209c1.376-.461,2.984-.7,3.92-1.927,1.334-1.37,1.316-3.387,1.421-5.17a11.661,11.661,0,0,0,2.493-1.993,5.849,5.849,0,0,0,.666-5.106c-.418-.948.656-1.526,1.063-2.246.99-1.189.587-2.788.376-4.161a5.716,5.716,0,0,0-.482-2.689c-.557-1.28-1.858-2.005-2.475-3.246,8.09.74,16.337,3.58,22.124,9.478a22.366,22.366,0,0,1,4.327,6.2,21.2,21.2,0,0,0,1.277,2.776c.4-.027.795-.063,1.2-.115a20.743,20.743,0,0,0-5.356-9.4c-5.356-5.76-13.034-8.743-20.655-10.023a19.076,19.076,0,0,0-3.725-.343,12.446,12.446,0,0,1-.906-2.008c1.28-4.658,2.707-9.274,3.965-13.937.148-.105.443-.313.593-.419.021-.554,0-1.108.009-1.659,2.481-8.656,4.941-17.315,7.449-25.966a3.331,3.331,0,0,0,.124-2.062,2.2,2.2,0,0,0-2-1.436c-4.308-.063-8.617.006-12.925-.021a6.978,6.978,0,0,0-.916-1.352,2.883,2.883,0,0,0-1.818-.427c-2.96,0-5.919.075-8.876-.033a5.221,5.221,0,0,0-4.077-6.624,5.836,5.836,0,0,0-4.107.771l-.349-.349c.473-10.309.388-20.63.563-30.946m28.052,92.756c-.069,2.8.584,5.6.169,8.382a25.189,25.189,0,0,1-4.209,13.118,17.719,17.719,0,0,1-10.011,7.03c0,.364-.006.729,0,1.1,1.7-.012,3.155-.982,4.634-1.686a19.939,19.939,0,0,0,8.765-10.189,32.074,32.074,0,0,0,2.06-9.319c.452-2.773-.172-5.549-.217-8.325C3197.172,2452.735,3196.775,2452.7,3196.381,2452.666Z" transform="translate(-2555.123 -1708.644)" fill="#f4ae2a"/>
      <path id="Trazado_1295884" data-name="Trazado 1295884" d="M4171.188,2374.614a1.455,1.455,0,0,1,1.734,1.915,1.435,1.435,0,0,1-2.21.666A1.457,1.457,0,0,1,4171.188,2374.614Z" transform="translate(-3490.401 -1722.309)" fill="#7c80c6"/>
      <path id="Trazado_1295885" data-name="Trazado 1295885" d="M2939.426,2398.291c.2-7.139-.036-14.286.416-21.416.157,2.123-.048,4.266.256,6.383-.4,8.514-.362,17.044-.711,25.562-.069,1.355-.072,2.716-.033,4.074l-.012.06a5.35,5.35,0,0,0-2.737.638c.093-.157.28-.47.376-.623.653-.111,1.307-.22,1.966-.325.1-2.881-.1-5.775.256-8.641A44.223,44.223,0,0,0,2939.426,2398.291Z" transform="translate(-2339.429 -1724.474)" fill="#d9a757"/>
      <path id="Trazado_1295886" data-name="Trazado 1295886" d="M4002.821,2375.411a1.467,1.467,0,1,1-.479,2.246A1.541,1.541,0,0,1,4002.821,2375.411Z" transform="translate(-3333.574 -1722.964)" fill="#7d83c5"/>
      <path id="Trazado_1295887" data-name="Trazado 1295887" d="M4086.752,2375.4a1.426,1.426,0,0,1,2.216.843,1.456,1.456,0,0,1-2.168,1.59A1.432,1.432,0,0,1,4086.752,2375.4Z" transform="translate(-3412.013 -1722.829)" fill="#787ec5"/>
      <path id="Trazado_1295888" data-name="Trazado 1295888" d="M4254.548,2375.64a1.415,1.415,0,0,1,2.246.744c.4,1.123-1.171,2.366-2.135,1.578A1.414,1.414,0,0,1,4254.548,2375.64Z" transform="translate(-3568.675 -1723.033)" fill="#8084c5"/>
      <path id="Trazado_1295889" data-name="Trazado 1295889" d="M2088.973,2450.41a5.736,5.736,0,0,1,.479,2.349c-.024,3.517-.021,7.033.057,10.547a3.6,3.6,0,0,0,1.051,2.839,20.535,20.535,0,0,0-1.253,2.345c-.039-3.854-.274-7.7-.274-11.553C2089.021,2454.76,2088.925,2452.584,2088.973,2450.41Z" transform="translate(-1548.498 -1793.089)" fill="#f9bc3a"/>
      <path id="Trazado_1295890" data-name="Trazado 1295890" d="M4002.883,2460.056a1.423,1.423,0,0,1,1.406,2.294,1.49,1.49,0,0,1-2.5-.373A1.447,1.447,0,0,1,4002.883,2460.056Z" transform="translate(-3333.251 -1802.03)" fill="#7e85c5"/>
      <path id="Trazado_1295891" data-name="Trazado 1295891" d="M4086.518,2459.283a1.448,1.448,0,0,1,1.936,1.653,1.5,1.5,0,0,1-2.833.223A1.457,1.457,0,0,1,4086.518,2459.283Z" transform="translate(-3411.476 -1801.255)" fill="#767ac4"/>
      <path id="Trazado_1295892" data-name="Trazado 1295892" d="M4254.751,2459.783a1.42,1.42,0,0,1,1.515,2.128,1.5,1.5,0,0,1-2.475.048A1.459,1.459,0,0,1,4254.751,2459.783Z" transform="translate(-3568.273 -1801.779)" fill="#757ac2"/>
      <path id="Trazado_1295893" data-name="Trazado 1295893" d="M4170.815,2460.405a1.512,1.512,0,0,1,2.195.909c.428,1.28-1.472,2.324-2.373,1.364A1.435,1.435,0,0,1,4170.815,2460.405Z" transform="translate(-3490.443 -1802.247)" fill="#8083c6"/>
      <path id="Trazado_1295894" data-name="Trazado 1295894" d="M1103.967,2473.227c.72-.734,1.861-.322,2.773-.421,1.2.108,2.511-.268,3.643.178,2.366,2.3,4.682,4.667,6.976,7.042-2.324,4.637-4.441,9.37-6.528,14.115a10.324,10.324,0,0,0-.915,2.634c-.093.07-.283.208-.379.277a13.759,13.759,0,0,0,.656-6.266c-4.835.027-9.668.015-14.5.048-.045,3.424,0,6.847.048,10.27-1.261-.018-2.523.006-3.785-.009-.036-4.847.187-9.692.024-14.536.006-.6-.124-1.3.412-1.722C1096.3,2481.025,1100.047,2477.033,1103.967,2473.227Z" transform="translate(-618.195 -1813.943)" fill="#daddf0"/>
      <path id="Trazado_1295895" data-name="Trazado 1295895" d="M2978.077,2472.28l.057.358c.47,3.935-.217,7.891-.154,11.836,0,3.806-.117,7.614-.081,11.423-.286,2,.172,4.089-.566,6.019-.039-1.358-.036-2.719.033-4.073C2977.715,2489.324,2977.679,2480.795,2978.077,2472.28Z" transform="translate(-2377.408 -1813.495)" fill="#6b637b"/>
      <path id="Trazado_1295896" data-name="Trazado 1295896" d="M3825.152,2515.5c1.758-1.62,3.423-3.342,5.26-4.877.151,2.5.024,5.01.1,7.512-2.71.057-5.419,0-8.129.012A36.388,36.388,0,0,1,3825.152,2515.5Z" transform="translate(-3165.943 -1849.27)" fill="#fef7ea"/>
      <path id="Trazado_1295897" data-name="Trazado 1295897" d="M2079.65,2538.386a22.39,22.39,0,0,1,9.078-.343c.744.163,1.481.346,2.222.533-.039.169-.12.509-.163.68.683-.021,1.367-.051,2.053-.039a20.93,20.93,0,0,1,12.131,12.9,22.255,22.255,0,0,1,.214,12.712l-.072.382c5.444-.051,10.887-.012,16.331-.012-.461,1.792-.882,3.592-1.361,5.377-4.281-.024-8.563.039-12.844-.018-3.493,12.622-7.166,25.192-10.746,37.789-3.128,10.9-6.208,21.811-9.324,32.716q26.741,0,53.482,0a51.46,51.46,0,0,0,8.361,4.049q-.673.108-1.346.22c-4.351.217-8.717.057-13.076.105q-26.19-.013-52.38,0c-1.337.133-2.117-1.171-2.222-2.336q-5.663-.041-11.33.018a10.619,10.619,0,0,1-2.186-.145,2.684,2.684,0,0,1-1.9-2.451c-.2-2.954.187-5.931-.277-8.87q.808-.61,1.626-1.2l.4-.094a28.734,28.734,0,0,0-.226,5.338,48.42,48.42,0,0,0,.063,4.992c.214.816,1.2.87,1.894.837,4.028-.09,8.057.054,12.082-.045.6.054.581-.687.744-1.072.9-4.041,2.325-7.939,3.381-11.938,1.054-4.185,2.52-8.25,3.55-12.441.647-2.641,1.626-5.185,2.243-7.831-1.093-.027-2.186-.042-3.279-.036-.22-.463-.454-.915-.7-1.361-.063-.126-.193-.382-.259-.509,1.59.115,3.183.154,4.775.145.922-2.936,1.665-5.922,2.544-8.867.515-1.867,1.165-3.691,1.608-5.576-1.4-.018-2.791-.027-4.188-.039a10.738,10.738,0,0,0-.464-1.563c1.7.018,3.4.069,5.094-.012,1.475-5.585,3.212-11.092,4.8-16.644a21.413,21.413,0,0,1-16.8,6.38c-.427-.033-.855-.078-1.28-.133-.668-.1-1.331-.2-1.984-.361-.422-.12-.837-.247-1.247-.382a21.217,21.217,0,0,1-11.339-8.62c-.346-.524-.68-1.057-1-1.6a21.292,21.292,0,0,1-1.442-16.843,7.124,7.124,0,0,0,.717-2.571c-.006-3.73-.193-7.461-.063-11.191,0,3.854.235,7.7.274,11.553a20.592,20.592,0,0,1,1.252-2.345,21.218,21.218,0,0,1,12.57-9.243m-5.091,7.126a16.787,16.787,0,0,0-6.479,15.226,17.3,17.3,0,0,0,4.486,9.779,16.631,16.631,0,0,0,14.148,5.335,17.042,17.042,0,0,0,10.556-5.32,17.862,17.862,0,0,0,4.6-11.312,16.9,16.9,0,0,0-16.147-17.34,22.6,22.6,0,0,0-3.255.16A17.961,17.961,0,0,0,2074.56,2545.513Z" transform="translate(-1525.018 -1874.574)" fill="#272c50"/>
      <path id="Trazado_1295898" data-name="Trazado 1295898" d="M4002.758,2544.871a1.464,1.464,0,0,1,2.068,1.343,1.5,1.5,0,0,1-2.559.963A1.435,1.435,0,0,1,4002.758,2544.871Z" transform="translate(-3333.421 -1881.113)" fill="#707ac2"/>
      <path id="Trazado_1295899" data-name="Trazado 1295899" d="M4087.65,2544.579a1.413,1.413,0,0,1,1.647,1.7,1.43,1.43,0,0,1-2.553.533A1.445,1.445,0,0,1,4087.65,2544.579Z" transform="translate(-3412.345 -1880.922)" fill="#7e84c5"/>
      <path id="Trazado_1295900" data-name="Trazado 1295900" d="M4172.17,2544.44a1.445,1.445,0,0,1,1.918,1.4,1.448,1.448,0,1,1-1.918-1.4Z" transform="translate(-3491.443 -1880.751)" fill="#777dc1"/>
      <path id="Trazado_1295901" data-name="Trazado 1295901" d="M4254.949,2544.4a1.464,1.464,0,0,1,1.752,1.737,1.456,1.456,0,1,1-1.752-1.737Z" transform="translate(-3568.525 -1880.747)" fill="#7279c3"/>
      <path id="Trazado_1295902" data-name="Trazado 1295902" d="M3158.766,2545.58a31.6,31.6,0,0,1,.184,5.064c-.16,4.745-.09,9.5-.31,14.244a6.63,6.63,0,0,1-.277-1.939C3158.564,2557.163,3158.314,2551.358,3158.766,2545.58Z" transform="translate(-2546.346 -1881.891)" fill="#595987"/>
      <path id="Trazado_1295903" data-name="Trazado 1295903" d="M2467.21,2550.941c.042-.172.124-.512.163-.681a18.426,18.426,0,0,1,1.891.641C2468.577,2550.89,2467.893,2550.92,2467.21,2550.941Z" transform="translate(-1901.44 -1886.258)" fill="#3c3028"/>
      <path id="Trazado_1295904" data-name="Trazado 1295904" d="M2132.608,2603.3a17.964,17.964,0,0,1,7.906-3.471,20.1,20.1,0,0,0,1.268,2.153,11.32,11.32,0,0,0,1.987-2.312,16.9,16.9,0,0,1,16.147,17.339,17.861,17.861,0,0,1-4.6,11.312,28.874,28.874,0,0,1-3.565-.2,11.8,11.8,0,0,0,4.631-6.356l-1.078-.108a11.747,11.747,0,0,1-6.729,6.7c-2.869-.16-5.745-.078-8.617-.087-3.114.039-6.23-.09-9.346.033a17.3,17.3,0,0,1-4.486-9.779,16.788,16.788,0,0,1,6.479-15.226m.3,2.755c-2.463,2.328-4.4,5.6-4.312,9.069l.96.006c.548-2.851,1.544-5.775,3.788-7.747a12.474,12.474,0,0,1,8.394-3.279c-.033-.376-.066-.75-.1-1.123C2138.428,2602.618,2135.4,2604.184,2132.909,2606.056Z" transform="translate(-1583.067 -1932.362)" fill="#c8c6a0"/>
      <path id="Trazado_1295905" data-name="Trazado 1295905" d="M2342.83,2599.731a22.6,22.6,0,0,1,3.255-.159,11.32,11.32,0,0,1-1.987,2.312A20.012,20.012,0,0,1,2342.83,2599.731Z" transform="translate(-1785.382 -1932.263)" fill="#fbfbf4"/>
      <path id="Trazado_1295906" data-name="Trazado 1295906" d="M4003.08,2628.023a1.425,1.425,0,0,1,2.086,1.454,1.439,1.439,0,1,1-2.086-1.454Z" transform="translate(-3333.827 -1958.65)" fill="#7e84c9"/>
      <path id="Trazado_1295907" data-name="Trazado 1295907" d="M4088.119,2627.954a1.372,1.372,0,0,1,1.951.927,1.439,1.439,0,0,1-1.975,1.692A1.459,1.459,0,0,1,4088.119,2627.954Z" transform="translate(-3413.125 -1958.61)" fill="#757dc1"/>
      <path id="Trazado_1295908" data-name="Trazado 1295908" d="M4170.89,2627.763a1.462,1.462,0,0,1,2.005.551c.662,1.06-.626,2.629-1.788,2.087A1.473,1.473,0,0,1,4170.89,2627.763Z" transform="translate(-3490.461 -1958.387)" fill="#7d80ca"/>
      <path id="Trazado_1295909" data-name="Trazado 1295909" d="M4254.663,2628.282a1.428,1.428,0,0,1,1.921.653c.584,1.093-.795,2.565-1.915,1.948A1.461,1.461,0,0,1,4254.663,2628.282Z" transform="translate(-3568.558 -1958.929)" fill="#7d84c4"/>
      <path id="Trazado_1295910" data-name="Trazado 1295910" d="M2168.991,2651.51c2.493-1.873,5.519-3.438,8.735-3.074.03.374.063.747.1,1.123a12.473,12.473,0,0,0-8.394,3.279c-2.243,1.972-3.24,4.9-3.788,7.747l-.961-.006C2164.592,2657.107,2166.529,2653.837,2168.991,2651.51Z" transform="translate(-1619.149 -1977.815)" fill="#fefefb"/>
      <path id="Trazado_1295911" data-name="Trazado 1295911" d="M2986.134,2654.53a32.191,32.191,0,0,1,.322,5.853,20.926,20.926,0,0,1-.4,5.57C2986.017,2662.144,2986.137,2658.336,2986.134,2654.53Z" transform="translate(-2385.562 -1983.552)" fill="#4258ca"/>
      <path id="Trazado_1295912" data-name="Trazado 1295912" d="M1147.585,2742.238c4.835-.033,9.668-.021,14.5-.048a13.761,13.761,0,0,1-.656,6.266c-.584,1.614-1.3,3.179-1.969,4.76-.012-.129-.033-.389-.045-.518-3.923-.166-7.858.033-11.785-.19-.051-3.423-.093-6.847-.048-10.27m2.207,4.314c0,1.978-.018,3.957-.069,5.935,3.219-.121,6.44-.006,9.662-.075-.057-1.963-.072-3.923-.03-5.883C1156.17,2746.544,1152.981,2746.534,1149.793,2746.552Z" transform="translate(-670.091 -2065.346)" fill="#7a82c5"/>
      <path id="Trazado_1295913" data-name="Trazado 1295913" d="M1179.874,2807.054c3.188-.018,6.377-.009,9.563-.024-.042,1.96-.027,3.92.03,5.883-3.222.069-6.443-.045-9.662.075C1179.856,2811.01,1179.874,2809.032,1179.874,2807.054Z" transform="translate(-700.173 -2125.848)" fill="#d9deee"/>
      <path id="Trazado_1295914" data-name="Trazado 1295914" d="M2910.5,2816a5.837,5.837,0,0,1,4.107-.771,5.221,5.221,0,0,1,4.077,6.624c2.957.108,5.916.033,8.876.033a2.885,2.885,0,0,1,1.818.427,6.974,6.974,0,0,1,.915,1.352c-.373,1.957-1.011,3.848-1.424,5.793a19.323,19.323,0,0,1-1.225,4.321,3.254,3.254,0,0,1-3.083,1.277c-9.436-.081-18.869-.021-28.3-.021a21.218,21.218,0,0,1-3.306-.114,1.587,1.587,0,0,1-1.255-1.764,30.857,30.857,0,0,1,.876-3.709c.479-1.786.9-3.586,1.361-5.377l.162-.4a8.966,8.966,0,0,1,.587-1.114,5.349,5.349,0,0,1,2.737-.638c3.041.039,6.079.012,9.12.03a7.419,7.419,0,0,1,3.261-5.513c.229-.154.46-.3.7-.437m.888,2.834c-.71.566-.481,1.556-.53,2.348a2.841,2.841,0,0,0,2.649.991c.395-.355.795-.7,1.2-1.042a5.712,5.712,0,0,0,.042-1.867c-.47-1.382-2.469-1.364-3.366-.43m-14.355,5.775c.045.385.1.771.168,1.159,10.171-.039,20.338.03,30.509-.03.06-.364.123-.722.2-1.081-2.812-.117-5.627-.036-8.443-.063-7.476.051-14.955-.021-22.431.015m-2.415,1.12a43.706,43.706,0,0,0-1.493,6.25c-.2.551.6.449.906.581.717-2.306,1.268-4.664,1.764-7.027-.244-.675-1.051-.368-1.177.2m.449,6.735c.024.371.048.744.078,1.117,5.284.012,10.571.006,15.858.012,4.935-.06,9.875.1,14.807-.094-.012-.259-.033-.777-.042-1.036-3.209-.078-6.416-.033-9.623-.036C2909.118,2832.452,2902.09,2832.349,2895.066,2832.463Z" transform="translate(-2297.508 -2133.439)" fill="#bcbecd"/>
      <path id="Trazado_1295915" data-name="Trazado 1295915" d="M1911.608,2834.39a41.87,41.87,0,0,1,.313,4.718c-.151,1.6-.066,3.2-.133,4.808l-.169.437C1911.635,2841.032,1911.379,2837.708,1911.608,2834.39Z" transform="translate(-1382.923 -2151.377)" fill="#b9a088"/>
      <path id="Trazado_1295916" data-name="Trazado 1295916" d="M3178.87,2860.787c.9-.933,2.9-.951,3.366.43a5.73,5.73,0,0,1-.042,1.867c-.409.337-.81.687-1.2,1.042a2.84,2.84,0,0,1-2.649-.991C3178.388,2862.343,3178.16,2861.353,3178.87,2860.787Z" transform="translate(-2564.99 -2175.392)" fill="#f8b426"/>
      <path id="Trazado_1295917" data-name="Trazado 1295917" d="M445.52,2894.852c4.546-.027,9.1.015,13.642-.027,3.547.048,7.1-.06,10.643.015,2.345.021,4.691.063,7.036-.03,3.405-.117,6.814-.012,10.219.048,1.262.015,2.523-.009,3.785.009,3.926.223,7.861.024,11.784.19.012.129.033.388.045.518-.078.19-.154.385-.226.581q-2.863.045-5.727.057a14.726,14.726,0,0,1,4.5,3.1c-.566,1.508-1.283,2.954-1.807,4.477a5.273,5.273,0,0,0-3.607-3.514,5.057,5.057,0,1,0-1.478,9.936,6.718,6.718,0,0,0,2.99-.828c-.644,1.674-1.268,3.36-1.888,5.046a9.809,9.809,0,0,1-8.319-2.812,9.631,9.631,0,0,1-2.613-7.783,9.822,9.822,0,0,1,6.2-7.612c-4.793-.045-9.59-.006-14.383-.012a9.769,9.769,0,0,1,6.2,7.021,9.617,9.617,0,0,1-6.127,10.722,9.092,9.092,0,0,1-10.517-3.384,9.4,9.4,0,0,1-1.174-8.746,10.359,10.359,0,0,1,5.721-5.639c-4.8.021-9.6-.015-14.4.036a9.362,9.362,0,0,1,1.451,17.072,14.911,14.911,0,0,1-2.692,1.117,9.441,9.441,0,0,1-10.586-12.3,9.323,9.323,0,0,1,6.025-5.925c-1.451-.042-2.911.111-4.357-.045-.656-.172-.443-.819-.34-1.282m7.024,5.377a5.039,5.039,0,1,0,4.019.708,5.139,5.139,0,0,0-4.019-.708m20.474.009a5.029,5.029,0,1,0,6.046,4.173A4.942,4.942,0,0,0,473.018,2900.238Z" transform="translate(-13.303 -2207.705)" fill="#6066b6"/>
      <path id="Trazado_1295918" data-name="Trazado 1295918" d="M3698.14,2894.444c3.207-.138,6.419.006,9.632.009,4.016.009,8.033-.009,12.05.024,5.718-.063,11.435-.121,17.153.042,2.18.036,4.357-.184,6.537-.066,2.547.087,5.094.042,7.642.027.379.084.981-.129,1.213.289.322.274.1,1.066-.34,1.036-3.21.148-6.428-.1-9.638.132a10.769,10.769,0,0,1,3.812,2.526,9.268,9.268,0,0,1,1.217,10.938,9.813,9.813,0,0,1-6.29,4.591,9.212,9.212,0,0,1-6.528-1.228,9.37,9.37,0,0,1-3.586-11.944,9.662,9.662,0,0,1,5.468-4.983c-4.8.024-9.593-.018-14.389.006a10.208,10.208,0,0,1,5.368,4.8,9.3,9.3,0,0,1-.867,9.581,9.6,9.6,0,0,1-5.606,3.752,9.05,9.05,0,0,1-7.115-1.578,9.371,9.371,0,0,1,2.457-16.557c-4.983-.087-9.969.072-14.949-.084a10.937,10.937,0,0,1,4.11,2.442,9.246,9.246,0,0,1,2.68,7.651,10.08,10.08,0,0,1-3.908,6.54c-.394-1.271-.807-2.538-1.207-3.806a5.189,5.189,0,0,0,.395-7.1,6.359,6.359,0,0,0-3.381-1.782c-.759-1.707-1.253-3.514-1.927-5.254m20.245,5.495a5.381,5.381,0,0,0-3.466,3.839,5.027,5.027,0,1,0,3.466-3.839m20.218.033a5.038,5.038,0,1,0,3.188,9.554,5.038,5.038,0,0,0-3.188-9.554Z" transform="translate(-3050.011 -2207.358)" fill="#6065b5"/>
      <path id="Trazado_1295919" data-name="Trazado 1295919" d="M1915.772,2904.91a46.016,46.016,0,0,1,.262,8.2c-.072,0-.217.009-.292.015,0-1.138-.039-2.276-.1-3.408C1915.706,2908.114,1915.622,2906.508,1915.772,2904.91Z" transform="translate(-1386.775 -2217.179)" fill="#826e68"/>
      <path id="Trazado_1295920" data-name="Trazado 1295920" d="M610.758,2916.056c4.8-.051,9.6-.015,14.4-.036a10.359,10.359,0,0,0-5.721,5.639,9.4,9.4,0,0,0,1.174,8.746,9.092,9.092,0,0,0,10.517,3.385,9.617,9.617,0,0,0,6.127-10.722,9.77,9.77,0,0,0-6.2-7.021c4.793.006,9.59-.033,14.383.012a9.821,9.821,0,0,0-6.2,7.612,9.63,9.63,0,0,0,2.613,7.783,9.809,9.809,0,0,0,8.319,2.813c-.024.063-.075.192-.1.259-.015.033-.045.1-.06.135-13.332-.114-26.664.048-40-.06-.123-.087-.37-.268-.5-.355a14.927,14.927,0,0,0,2.692-1.117,9.362,9.362,0,0,0-1.451-17.072Z" transform="translate(-168.042 -2227.546)" fill="#d8ddef"/>
      <path id="Trazado_1295921" data-name="Trazado 1295921" d="M1236.41,2915.722q2.863-.013,5.727-.057c-.4,1.051-.8,2.108-1.228,3.152A14.729,14.729,0,0,0,1236.41,2915.722Z" transform="translate(-752.99 -2227.215)" fill="#d3dcea"/>
      <path id="Trazado_1295922" data-name="Trazado 1295922" d="M2399.06,2935.012a11.745,11.745,0,0,0,6.729-6.7l1.078.108a11.8,11.8,0,0,1-4.631,6.356,14.317,14.317,0,0,1-6.988,2.375c-.548.112-1.135-.773-.563-1.065A37.186,37.186,0,0,0,2399.06,2935.012Z" transform="translate(-1833.549 -2239.013)" fill="#fdfeff"/>
      <path id="Trazado_1295923" data-name="Trazado 1295923" d="M2681.392,2942.332c5.474-.042,10.948.006,16.421-.027l-.163.4c-5.444,0-10.887-.039-16.331.012Z" transform="translate(-2101.224 -2252.072)" fill="#2c2531"/>
      <path id="Trazado_1295924" data-name="Trazado 1295924" d="M3431.408,2942.12c4.309.027,8.617-.042,12.926.021a2.2,2.2,0,0,1,2,1.436,3.33,3.33,0,0,1-.124,2.063c-2.508,8.65-4.968,17.309-7.449,25.965-.211.69-.418,1.379-.6,2.078-1.259,4.664-2.686,9.279-3.965,13.937-.316,1.1-.675,2.2-.994,3.306-1.479-.593-2.954-1.2-4.471-1.68,3.866-13.792,7.816-27.561,11.733-41.339-3.493.006-6.985-.015-10.475.006C3430.4,2945.968,3431.035,2944.077,3431.408,2942.12Z" transform="translate(-2798.622 -2251.893)" fill="#262c53"/>
      <path id="Trazado_1295925" data-name="Trazado 1295925" d="M2971.7,2956.054c7.476-.036,14.955.036,22.431-.015,2.815.027,5.63-.054,8.442.063-.072.358-.135.717-.2,1.081-10.171.06-20.338-.009-30.509.03C2971.8,2956.825,2971.746,2956.44,2971.7,2956.054Z" transform="translate(-2372.176 -2264.885)" fill="#fffefe"/>
      <path id="Trazado_1295926" data-name="Trazado 1295926" d="M1243.91,2968.265c-.039-.747.894-.482,1.355-.506.81,12.48.6,25,.376,37.494-11.583,5.251-23.193,10.454-34.664,15.951a1.723,1.723,0,0,1-1.427.048c.027-.485.06-1.054.614-1.216,8.795-4.182,17.668-8.2,26.5-12.293,2.553-1.1,3.721-3.812,4.6-6.26,2.207-6.1,2.683-12.631,2.893-19.059C1244.331,2977.7,1244.123,2972.977,1243.91,2968.265Z" transform="translate(-727.927 -2275.798)" fill="#d27918"/>
      <path id="Trazado_1295927" data-name="Trazado 1295927" d="M2914.346,2964.947c.127-.563.934-.87,1.177-.2-.5,2.363-1.048,4.721-1.764,7.027-.307-.133-1.1-.03-.906-.581A43.658,43.658,0,0,1,2914.346,2964.947Z" transform="translate(-2317.236 -2272.657)" fill="#fdffff"/>
      <path id="Trazado_1295928" data-name="Trazado 1295928" d="M522.225,2974.631a5.039,5.039,0,0,1,5.964,6.563,5.185,5.185,0,0,1-4.814,3.406,5.056,5.056,0,0,1-1.15-9.969Z" transform="translate(-82.984 -2282.107)" fill="#daddf0"/>
      <path id="Trazado_1295929" data-name="Trazado 1295929" d="M827.979,2974.684a4.941,4.941,0,0,1,6.046,4.173,4.986,4.986,0,1,1-6.046-4.173Z" transform="translate(-368.264 -2282.151)" fill="#d9ddf0"/>
      <path id="Trazado_1295930" data-name="Trazado 1295930" d="M1127.231,2978.946a5.128,5.128,0,0,1,6.362-4.435,5.274,5.274,0,0,1,3.607,3.514c-.723,1.858-1.268,3.779-2.1,5.594a6.722,6.722,0,0,1-2.99.828A5.088,5.088,0,0,1,1127.231,2978.946Z" transform="translate(-651.088 -2281.945)" fill="#d9ddf0"/>
      <path id="Trazado_1295931" data-name="Trazado 1295931" d="M3726.94,2973.8a6.362,6.362,0,0,1,3.381,1.782,5.189,5.189,0,0,1-.395,7.1C3729.005,2979.7,3728.075,2976.712,3726.94,2973.8Z" transform="translate(-3076.884 -2281.46)" fill="#d8deed"/>
      <path id="Trazado_1295932" data-name="Trazado 1295932" d="M3950.743,2974.021a5.058,5.058,0,1,1-3.466,3.839A5.381,5.381,0,0,1,3950.743,2974.021Z" transform="translate(-3282.369 -2281.44)" fill="#daddf1"/>
      <path id="Trazado_1295933" data-name="Trazado 1295933" d="M4252.763,2974.272a5.038,5.038,0,0,1,3.188,9.553,5.038,5.038,0,1,1-3.188-9.553Z" transform="translate(-3564.171 -2281.658)" fill="#daddf0"/>
      <path id="Trazado_1295934" data-name="Trazado 1295934" d="M1813.816,2977.212l.169-.437c.063,1.132.1,2.27.1,3.408-2.463,0-4.929.021-7.392-.015.47-.581,1.253-.416,1.906-.434,1.722.06,3.444.075,5.167.018A19.976,19.976,0,0,1,1813.816,2977.212Z" transform="translate(-1285.119 -2284.236)" fill="#eab652"/>
      <path id="Trazado_1295935" data-name="Trazado 1295935" d="M2098.617,3005.39c.316.539.65,1.072,1,1.6q-.619-.068-1.229-.127C2098.46,3006.365,2098.539,3005.877,2098.617,3005.39Z" transform="translate(-1557.292 -2310.936)" fill="#9a816d"/>
      <path id="Trazado_1295936" data-name="Trazado 1295936" d="M2194.87,3025.108c3.116-.123,6.232.006,9.346-.033,2.872.009,5.748-.072,8.617.087a37,37,0,0,1-4.375,1.072c-.572.292.015,1.177.563,1.066a14.317,14.317,0,0,0,6.988-2.375,28.776,28.776,0,0,0,3.565.2,17.042,17.042,0,0,1-10.556,5.32A16.633,16.633,0,0,1,2194.87,3025.108Z" transform="translate(-1647.322 -2329.164)" fill="#809acd"/>
      <path id="Trazado_1295937" data-name="Trazado 1295937" d="M2433.19,3028.34c4.281.057,8.563-.006,12.844.018a30.958,30.958,0,0,0-.876,3.709,1.588,1.588,0,0,0,1.256,1.765,21.3,21.3,0,0,0,3.306.114c9.433,0,18.866-.06,28.3.021a3.253,3.253,0,0,0,3.083-1.277,19.319,19.319,0,0,0,1.225-4.321c3.49-.021,6.982,0,10.475-.006-3.917,13.778-7.867,27.546-11.733,41.339-3.592-1.244-7.235-2.336-10.83-3.577,2.135-.253,4.288-.036,6.428-.217.024-.409.051-.816.078-1.219-10.411-.147-20.826.027-31.237-.045a11.242,11.242,0,0,0-2.794.141c-.217.352-.419.792-.073,1.147a5.213,5.213,0,0,0,1.334.166c5.928-.117,11.857-.033,17.785-.108,1-.024,1.99.069,2.987.138a5.215,5.215,0,0,0-1.6,2.324c-.1.395-.184.795-.265,1.2-6.088-.084-12.179-.045-18.27-.039a25.529,25.529,0,0,0-3.212.181q-.059.56-.108,1.129c7.385.232,14.783.018,22.172.087a8.185,8.185,0,0,0,3.857,2.779,21.755,21.755,0,0,1-4.035-1.319,4.324,4.324,0,0,0-3.212.1,4.142,4.142,0,0,0-2.062,5.062c-4.872-.042-9.743-.021-14.612-.021a29.807,29.807,0,0,0-3.778.066,3.543,3.543,0,0,0-.229,1.3c6.5.036,12.995,0,19.492-.021a15.435,15.435,0,0,0,2,1.46c-.214.124-.421.253-.629.383a19.486,19.486,0,0,1-4.51.2c-4.622-.036-9.244.015-13.865,0a18.1,18.1,0,0,0-3,.084c-.6.145-.376.861-.455,1.3,6.708-.036,13.416.075,20.122-.1a4.588,4.588,0,0,0,.111,4.947,9.525,9.525,0,0,0,3.586,2.538,4.312,4.312,0,0,0-1.385,3.426c.241,2.141,2.081,3.686,3.947,4.5a11.751,11.751,0,0,1,1.8,1.147q-26.741.031-53.482,0c3.116-10.905,6.2-21.817,9.324-32.716,3.58-12.6,7.253-25.168,10.746-37.789m3.375,10.132c-.756,2.74-1.5,5.486-2.165,8.247,3,.078,6.019.027,9.026.03.852-2.709,1.544-5.47,2.255-8.223-3.038-.094-6.079-.054-9.117-.054m12.784.175c-.181.539-.117,1.4.674,1.283,10.336.042,20.676-.012,31.015.018a10.269,10.269,0,0,0,2.574-.166c.012-.374.03-.747.048-1.114-.37-.039-.74-.069-1.108-.087-7.03.054-14.063-.033-21.1-.006-4.034.051-8.078-.112-12.107.072m-1.1,4.805c8.62.036,17.243,0,25.863.006.65.051.506-.792.692-1.189a6.546,6.546,0,0,0-1.9-.211c-7.921.1-15.846-.018-23.765.111-.771-.1-1.012.653-.888,1.282m-2.081,7.4c-.012.4-.464,1,.012,1.273a12.189,12.189,0,0,0,2.632.154c9.632-.06,19.263-.045,28.9-.078a7.3,7.3,0,0,0,2.2-.171,2.276,2.276,0,0,0,.175-1.2c-11.306-.028-22.611.009-33.917.018m-5.121.734c-2.673-.039-5.35-.075-8.024-.057-.807,2.764-1.481,5.567-2.2,8.355,3.014.126,6.034.06,9.05.03.617-2.174,1.162-4.369,1.689-6.567.6-.587,2.264-1.174,1.376-2.18-.554-.693-1.374.057-1.888.418m4.3,2.9a4.42,4.42,0,0,0-.16,1.256c4.619.09,9.237.033,13.853.042,6.615-.039,13.233.078,19.848-.042.111-.4.358-.8.193-1.213a6.677,6.677,0,0,0-1.677-.117c-10.686.039-21.371-.075-32.057.075m-1.743,8.054c8.557-.069,17.114.06,25.671-.075,2.7.027,5.414.135,8.114-.057.06-.412.12-.825.175-1.231-2.141-.244-4.3-.027-6.446-.1-8.942,0-17.887.027-26.83,0-.831-.112-.985.879-.684,1.457m-5.666,2.165c-2.5.015-4.995-.036-7.491-.048-.337.066-.958-.138-1.063.325-.822,2.656-1.484,5.362-2.216,8.045,3.026.277,6.076.063,9.111.124.692-2.1,1.03-4.314,1.852-6.371.5-.476,1.18-.807,1.545-1.406.283-.59-.431-.946-.771-1.274q-.5.28-.967.605m-13.685,19.61c3.038.168,6.091.166,9.135.072.774-2.7,1.547-5.414,2.177-8.156-3.041-.06-6.082.027-9.12-.006C2425.6,3078.884,2424.977,3081.611,2424.251,3084.309Z" transform="translate(-1850.969 -2332.351)" fill="#fff"/>
      <path id="Trazado_1295938" data-name="Trazado 1295938" d="M2344.476,3082.195a21.412,21.412,0,0,0,16.8-6.38c-1.587,5.552-3.324,11.059-4.8,16.644-1.7.081-3.4.03-5.094.012-.352-.458-.738-.885-1.114-1.313-.024-.409-.036-.81-.051-1.213l-.5-.34c-1.259-.726-2.821-.31-4.2-.479-.03-1.292-.271-2.833-1.689-3.291C2344,3084.613,2344.224,3083.4,2344.476,3082.195Z" transform="translate(-1786.306 -2376.649)" fill="#4d59b3"/>
      <path id="Trazado_1295939" data-name="Trazado 1295939" d="M2942.32,3072.928c7.024-.115,14.052-.012,21.079-.036,3.207,0,6.413-.042,9.623.036.009.259.03.777.042,1.036-4.932.2-9.873.033-14.807.093-5.287-.006-10.574,0-15.858-.012C2942.368,3073.672,2942.344,3073.3,2942.32,3072.928Z" transform="translate(-2344.762 -2373.904)" fill="#fdfeff"/>
      <path id="Trazado_1295940" data-name="Trazado 1295940" d="M2273.26,3161.649c.262-1.2.515-2.4.867-3.574.409.135.825.262,1.246.382q-.343,1.725-.708,3.444C2274.2,3161.805,2273.729,3161.715,2273.26,3161.649Z" transform="translate(-1720.467 -2453.406)" fill="#afb7be"/>
      <path id="Trazado_1295941" data-name="Trazado 1295941" d="M2294.983,3163.79c.653.157,1.316.265,1.984.361q-.33,1.743-.593,3.5c-.7-.145-1.4-.283-2.1-.421Q2294.641,3165.514,2294.983,3163.79Z" transform="translate(-1740.076 -2458.738)" fill="#d9dadc"/>
      <path id="Trazado_1295942" data-name="Trazado 1295942" d="M2326.228,3169.19c.425.054.852.1,1.28.133-.253,1.207-.479,2.418-.656,3.64-.406-.1-.813-.187-1.216-.268Q2325.9,3170.933,2326.228,3169.19Z" transform="translate(-1769.338 -2463.777)" fill="#b1b2ba"/>
      <path id="Trazado_1295943" data-name="Trazado 1295943" d="M2733.34,3179.656c3.038,0,6.079-.039,9.117.054-.711,2.752-1.4,5.513-2.255,8.223-3.008,0-6.022.048-9.027-.03.669-2.761,1.409-5.507,2.165-8.247m.958,1.2c-.53,1.969-1.114,3.923-1.641,5.9,2.216,0,4.429-.042,6.645-.024.563-1.948,1.1-3.905,1.653-5.859C2738.735,3180.831,2736.517,3180.888,2734.3,3180.855Z" transform="translate(-2147.744 -2473.535)" fill="#4759b0"/>
      <path id="Trazado_1295944" data-name="Trazado 1295944" d="M2953.432,3181.123c4.028-.184,8.072-.021,12.106-.072,7.033-.027,14.067.06,21.1.006.367.018.738.048,1.108.087-.018.367-.036.741-.048,1.114a10.254,10.254,0,0,1-2.574.166c-10.34-.03-20.679.024-31.015-.018C2953.315,3182.52,2953.251,3181.662,2953.432,3181.123Z" transform="translate(-2355.052 -2474.827)" fill="#b6bccf"/>
      <path id="Trazado_1295945" data-name="Trazado 1295945" d="M570.965,3192.68c1.021.027,2.041.048,3.062.069,13.332.108,26.664-.054,40,.06-.485,1.385-1.036,2.749-1.454,4.155-4.947.151-9.9.051-14.844.087-8.924-.018-17.848-.006-26.776-.009C570.95,3195.588,570.947,3194.135,570.965,3192.68Z" transform="translate(-132.055 -2485.695)" fill="#5e64b5"/>
      <path id="Trazado_1295946" data-name="Trazado 1295946" d="M2754.957,3197.674c2.219.033,4.438-.024,6.657.012-.548,1.954-1.09,3.911-1.653,5.859-2.216-.018-4.429.024-6.645.024C2753.842,3201.6,2754.426,3199.643,2754.957,3197.674Z" transform="translate(-2168.403 -2490.354)" fill="#fefefe"/>
      <path id="Trazado_1295947" data-name="Trazado 1295947" d="M3798.89,3193.49c12.615.048,25.234.1,37.849.018-.06,1.421-.078,2.845-.081,4.269-12.143.066-24.289-.015-36.432.039C3799.757,3196.38,3799.293,3194.945,3798.89,3193.49Z" transform="translate(-3144.021 -2486.451)" fill="#5d64b4"/>
      <path id="Trazado_1295948" data-name="Trazado 1295948" d="M2220.667,3213.518c.292-1.367,1.3-2.761,2.878-2.493.469.066.936.156,1.406.253.7.138,1.4.277,2.1.421.4.081.81.166,1.216.268,1.418.458,1.659,2,1.689,3.291,1.382.169,2.945-.247,4.2.479a16.994,16.994,0,0,0-4.438-.425c-.075.4-.148.813-.22,1.223a73.908,73.908,0,0,0-9.271.566c-.082-.211-.166-.418-.25-.623C2220.242,3215.5,2220.446,3214.506,2220.667,3213.518Z" transform="translate(-1670.752 -2502.782)" fill="#242a4f"/>
      <path id="Trazado_1295949" data-name="Trazado 1295949" d="M2937.753,3234.664c-.124-.629.117-1.379.888-1.283,7.918-.129,15.843-.009,23.765-.111a6.556,6.556,0,0,1,1.9.21c-.187.4-.042,1.241-.692,1.189C2955,3234.664,2946.373,3234.7,2937.753,3234.664Z" transform="translate(-2340.472 -2523.563)" fill="#b8bdce"/>
      <path id="Trazado_1295950" data-name="Trazado 1295950" d="M1884.993,3249.876c2.568-.822,5.29-.852,7.949-1.126-.22.988-.424,1.981-.686,2.96a18.105,18.105,0,0,0-5.486.6c.051.265.105.533.16.8,1.867-.2,3.721-.494,5.576-.777a73.957,73.957,0,0,1,9.271-.566c.072-.409.144-.819.22-1.222a16.982,16.982,0,0,1,4.438.425c.126.084.379.256.5.34-.045.376-.09.759-.132,1.141a8.234,8.234,0,0,0-4.643-.738c1.189.8,2.827.521,3.944,1.505a3.286,3.286,0,0,1,.915,4.236,4.484,4.484,0,0,1-3.161,2.008c-2.448.461-4.941.608-7.4,1.009-.006.31-.015.626-.021.942a46.125,46.125,0,0,0,6.522-.683,3.058,3.058,0,0,1,2.821,1.569,3.9,3.9,0,0,1,.247,3.821,5.981,5.981,0,0,1-3.643,2.111c-1.894.43-3.833.647-5.709,1.159-.018.256-.057.768-.078,1.024,1.659.066,3.21-.626,4.848-.708.714-.1,1.244.479,1.653.981a3.483,3.483,0,0,1-.954,5.055c-2.02,1.319-4.537,1.153-6.714,2.032.105.307.211.614.319.924,1.087-.156,2.147-.5,3.243-.584a2.815,2.815,0,0,1,1.644,2.354c.057,1.5-1.018,2.692-1.969,3.722a30.648,30.648,0,0,1-3.8,1.093,57.475,57.475,0,0,1-10.827,1.307l-.006.147-.018.322c-.027-.126-.084-.379-.111-.5-.777-.087-1.56-.12-2.336-.15q.3.615.617,1.237c-.325-.539-.653-1.078-.963-1.62a6.113,6.113,0,0,0-2.671,1,47.177,47.177,0,0,1-7.241-10.968,26.8,26.8,0,0,1-2.553-9.794c.617-.539,1.247-1.063,1.849-1.62,2.46-2.77,4.64-5.781,7.088-8.566.735-.879,1.548-1.692,2.354-2.505C1881.551,3252.176,1883.012,3250.578,1884.993,3249.876Z" transform="translate(-1343.027 -2538.013)" fill="#f4bb9d"/>
      <path id="Trazado_1295951" data-name="Trazado 1295951" d="M2278.959,3287c.015.4.027.8.051,1.213.376.428.762.855,1.114,1.313a10.713,10.713,0,0,1,.464,1.563,4.09,4.09,0,0,1-3.387,4.591c1.141,1.262,2.466,2.686,2.225,4.541.151,2.4-2.138,3.881-4.155,4.5.28.4.569.8.837,1.21.241.445.476.9.7,1.361a4.292,4.292,0,0,1-.9,3.793c-.84,1.117-2.267,1.391-3.436,2.021.452.994,1.2,1.918,1.168,3.065.051,1.177-.789,2.107-1.331,3.08q-.813.307-1.617.626c.952-1.03,2.026-2.222,1.969-3.722a2.815,2.815,0,0,0-1.644-2.354c-1.1.087-2.156.428-3.242.584-.109-.311-.214-.618-.319-.925,2.177-.879,4.694-.713,6.714-2.032a3.483,3.483,0,0,0,.955-5.055c-.409-.5-.939-1.081-1.653-.981-1.638.081-3.188.774-4.847.708.021-.256.06-.768.078-1.023,1.876-.512,3.815-.729,5.708-1.16a5.981,5.981,0,0,0,3.643-2.11,3.9,3.9,0,0,0-.247-3.821,3.058,3.058,0,0,0-2.821-1.569,46.156,46.156,0,0,1-6.521.684c.006-.316.015-.632.021-.942,2.457-.4,4.95-.548,7.4-1.009a4.482,4.482,0,0,0,3.161-2.008,3.286,3.286,0,0,0-.915-4.236c-1.117-.985-2.755-.7-3.944-1.506a8.238,8.238,0,0,1,4.643.738C2278.869,3287.759,2278.913,3287.377,2278.959,3287Z" transform="translate(-1715.05 -2573.704)" fill="#df8860"/>
      <path id="Trazado_1295952" data-name="Trazado 1295952" d="M2137.99,3293.478a18.113,18.113,0,0,1,5.486-.6c.084.2.169.413.25.623-1.855.283-3.709.578-5.576.777C2138.1,3294.011,2138.041,3293.742,2137.99,3293.478Z" transform="translate(-1594.248 -2579.182)" fill="#dc8766"/>
      <path id="Trazado_1295953" data-name="Trazado 1295953" d="M2002.728,3320.21c.647.009,1.295.021,1.942.039-.807.813-1.62,1.626-2.354,2.505A6.351,6.351,0,0,0,2002.728,3320.21Z" transform="translate(-1467.65 -2604.692)" fill="#222b5b"/>
      <path id="Trazado_1295954" data-name="Trazado 1295954" d="M2389.587,3348.11c1.4.012,2.791.021,4.188.039-.443,1.885-1.093,3.709-1.608,5.576-.879,2.944-1.623,5.931-2.544,8.867-1.593.009-3.185-.03-4.775-.145.066.126.2.382.259.509-.268-.412-.557-.812-.837-1.21,2.017-.623,4.306-2.107,4.155-4.5.241-1.855-1.084-3.279-2.225-4.541A4.089,4.089,0,0,0,2389.587,3348.11Z" transform="translate(-1824.049 -2630.726)" fill="#4f5ab5"/>
      <path id="Trazado_1295955" data-name="Trazado 1295955" d="M2904.217,3364.33c11.306-.009,22.612-.045,33.917-.018a2.275,2.275,0,0,1-.175,1.2,7.291,7.291,0,0,1-2.2.171c-9.635.033-19.267.018-28.9.078a12.174,12.174,0,0,1-2.632-.154C2903.753,3365.33,2904.2,3364.727,2904.217,3364.33Z" transform="translate(-2309.016 -2645.834)" fill="#b8bacf"/>
      <path id="Trazado_1295956" data-name="Trazado 1295956" d="M2796.235,3365.912c.515-.361,1.334-1.111,1.888-.418.888,1.005-.777,1.593-1.376,2.18a17.6,17.6,0,0,0-1.454,1.261l-.175.169c0-.169.009-.506.012-.675-.455.19-.906.376-1.355.575a3.848,3.848,0,0,0,1.03-1.9l.018-.015C2795.29,3366.7,2795.756,3366.3,2796.235,3365.912Z" transform="translate(-2206.155 -2646.682)" fill="#d63b3d"/>
      <path id="Trazado_1295957" data-name="Trazado 1295957" d="M2677.67,3383.134c.723-2.788,1.4-5.591,2.2-8.355,2.673-.018,5.35.018,8.024.057-.479.388-.945.783-1.412,1.18q-2.814-.031-5.627.009-.863,2.989-1.725,5.986c2.219-.027,4.435-.024,6.654-.057a38.522,38.522,0,0,1,1.168-4.095,17.6,17.6,0,0,1,1.454-1.261c-.527,2.2-1.072,4.393-1.689,6.567C2683.7,3383.194,2680.684,3383.26,2677.67,3383.134Z" transform="translate(-2097.819 -2655.605)" fill="#4958b1"/>
      <path id="Trazado_1295958" data-name="Trazado 1295958" d="M3569.66,3384.978c.184-.7.391-1.388.6-2.078-.009.551.012,1.1-.009,1.659C3570.1,3384.664,3569.808,3384.872,3569.66,3384.978Z" transform="translate(-2930.128 -2663.188)" fill="#e4ad4c"/>
      <path id="Trazado_1295959" data-name="Trazado 1295959" d="M2699.54,3399.123q.863-2.995,1.725-5.986,2.814-.045,5.627-.009l-.018.015c-1.177.891-2.075,2.081-3.173,3.053-.783-.3-1.021-1.295-1.747-1.707-.448.187-1.06.575-1.009,1.129a16.207,16.207,0,0,0,2.358,3.195c1.412-1.1,2.532-2.508,3.884-3.673l.175-.169a38.453,38.453,0,0,0-1.168,4.095C2703.975,3399.1,2701.759,3399.1,2699.54,3399.123Z" transform="translate(-2118.225 -2672.718)" fill="#f9fcff"/>
      <path id="Trazado_1295960" data-name="Trazado 1295960" d="M2723.268,3396.613c1.1-.972,2-2.162,3.173-3.053a3.845,3.845,0,0,1-1.03,1.9c.448-.2.9-.385,1.355-.575,0,.168-.009.506-.012.675-1.352,1.165-2.472,2.577-3.884,3.673a16.232,16.232,0,0,1-2.357-3.195c-.051-.554.56-.942,1.009-1.129C2722.248,3395.318,2722.485,3396.315,2723.268,3396.613Z" transform="translate(-2137.792 -2673.135)" fill="#c6292a"/>
      <path id="Trazado_1295961" data-name="Trazado 1295961" d="M1782.757,3414.9a15.107,15.107,0,0,1,.584-5c.042,2.279-.2,4.553-.37,6.823A5.588,5.588,0,0,1,1782.757,3414.9Z" transform="translate(-1262.776 -2688.381)" fill="#c7a36b"/>
      <path id="Trazado_1295962" data-name="Trazado 1295962" d="M2892.47,3417.907c10.686-.151,21.371-.036,32.057-.075a6.677,6.677,0,0,1,1.677.117c.166.416-.081.816-.193,1.213-6.615.121-13.233,0-19.848.042-4.616-.009-9.234.048-13.853-.042A4.43,4.43,0,0,1,2892.47,3417.907Z" transform="translate(-2298.094 -2695.778)" fill="#b9bccf"/>
      <path id="Trazado_1295963" data-name="Trazado 1295963" d="M1847.42,3473.841c.581-.09,1.162-.166,1.749-.226.455.365.882.888,1.527.846-.6.557-1.231,1.081-1.849,1.62,0-.717.009-1.427.018-2.141-.111,0-.334-.006-.446-.006Z" transform="translate(-1323.119 -2747.833)" fill="#c2791b"/>
      <path id="Trazado_1295964" data-name="Trazado 1295964" d="M2866.715,3518.723c-.3-.578-.148-1.569.683-1.458,8.942.024,17.888,0,26.83,0,2.146.069,4.305-.147,6.446.1-.054.407-.115.819-.175,1.231-2.7.193-5.411.084-8.114.058C2883.829,3518.783,2875.272,3518.653,2866.715,3518.723Z" transform="translate(-2274.083 -2788.539)" fill="#b8bcd1"/>
      <path id="Trazado_1295965" data-name="Trazado 1295965" d="M2739.376,3563.32q.469-.325.966-.605c.34.328,1.054.684.771,1.274a7.916,7.916,0,0,1-1.545,1.406c-.376.313-.75.629-1.132.937-.542.15-1.087.28-1.632.409-.157-.16-.47-.479-.629-.638a22.14,22.14,0,0,1,1.758-1.557C2738.418,3564.143,2738.879,3563.709,2739.376,3563.32Z" transform="translate(-2152.409 -2830.972)" fill="#d73b39"/>
      <path id="Trazado_1295966" data-name="Trazado 1295966" d="M2625.256,3571.365c.105-.464.726-.259,1.063-.325,2.5.012,4.995.063,7.491.048-.5.388-.957.822-1.442,1.225-2.044-.057-4.092-.048-6.136-.036-.473,2.036-1.12,4.026-1.729,6.025,2.243,0,4.489-.054,6.735.021.371-1.252.656-2.532,1.1-3.761.132-.117.4-.349.53-.463.382-.307.756-.624,1.132-.937-.822,2.057-1.159,4.27-1.852,6.371-3.035-.06-6.085.153-9.111-.124C2623.772,3576.728,2624.434,3574.021,2625.256,3571.365Z" transform="translate(-2046.844 -2838.74)" fill="#4958ae"/>
      <path id="Trazado_1295967" data-name="Trazado 1295967" d="M2851.857,3570.862a11.278,11.278,0,0,1,2.794-.142c10.412.072,20.826-.1,31.238.045-.027.4-.054.81-.078,1.219-2.141.181-4.293-.036-6.428.217a16.8,16.8,0,0,0-3.125-.25c-.795.039-1.581.145-2.367.253-1-.069-1.99-.163-2.987-.138-5.928.075-11.856-.009-17.785.108a5.235,5.235,0,0,1-1.334-.166C2851.438,3571.653,2851.64,3571.214,2851.857,3570.862Z" transform="translate(-2260.109 -2838.426)" fill="#b6bbcd"/>
      <path id="Trazado_1295968" data-name="Trazado 1295968" d="M1696.205,3581.561c.687-.485,1.123.286,1.1.9a32.989,32.989,0,0,0,3.324,11.712,42.688,42.688,0,0,0,11.577,14.386c.015.118.048.353.066.47l-.843.407a40.844,40.844,0,0,1-14.666-22.765A15.531,15.531,0,0,1,1696.205,3581.561Z" transform="translate(-1181.963 -2848.415)" fill="#f9fcff"/>
      <path id="Trazado_1295969" data-name="Trazado 1295969" d="M2115.854,3590.332c1.093-.006,2.186.009,3.279.036-.617,2.646-1.6,5.191-2.243,7.831-1.03,4.191-2.5,8.256-3.55,12.441-1.057,4-2.481,7.9-3.381,11.938-.163.386-.148,1.126-.744,1.072-4.025.1-8.054-.045-12.082.045-.7.033-1.68-.021-1.894-.837a48.355,48.355,0,0,1-.063-4.992,28.728,28.728,0,0,1,.226-5.338c.1-.223.214-.437.325-.647-.259-.747-.509-1.491-.762-2.231-.006-1.292.057-2.581.124-3.863l.018-.322c.56,1.225,1.2,2.634,2.532,3.179a16.976,16.976,0,0,0,3.436.831,3.366,3.366,0,0,0,3.688-2.029c.446-1.138.25-2.55,1.216-3.441l-.039.006a30.662,30.662,0,0,0,3.8-1.093c.536-.214,1.075-.421,1.617-.626.542-.972,1.382-1.9,1.331-3.08.033-1.147-.716-2.071-1.168-3.065,1.168-.629,2.6-.9,3.435-2.02A4.294,4.294,0,0,0,2115.854,3590.332Z" transform="translate(-1554.1 -2856.739)" fill="#4e59b3"/>
      <path id="Trazado_1295970" data-name="Trazado 1295970" d="M2646.638,3589.415c2.044-.012,4.092-.021,6.136.036a22,22,0,0,0-1.758,1.557c-.584.581-1.162,1.168-1.752,1.746a9.269,9.269,0,0,0-1.3-1.436.863.863,0,0,0-1.247.717,9.576,9.576,0,0,0,2.375,3.183c1.382-1,2.34-2.448,3.658-3.517-.445,1.229-.731,2.508-1.1,3.761-2.246-.075-4.492-.021-6.735-.021C2645.518,3593.44,2646.166,3591.45,2646.638,3589.415Z" transform="translate(-2067.25 -2855.877)" fill="#fcfcfc"/>
      <path id="Trazado_1295971" data-name="Trazado 1295971" d="M3161.926,3589.613c.786-.108,1.572-.214,2.366-.253-.876.768-2.138,1.234-2.637,2.342a2.827,2.827,0,0,0,.834,3.056,15.416,15.416,0,0,0,4.161,2.222c2.917,1.255,5.82,2.55,8.716,3.854a34.75,34.75,0,0,1,3.95,1.783.661.661,0,0,1,.039,1.081,13.214,13.214,0,0,1-3.441-1.331q-5.745-2.466-11.417-5.091a8.186,8.186,0,0,1-3.857-2.779,5.379,5.379,0,0,1-.316-2.56A5.211,5.211,0,0,1,3161.926,3589.613Z" transform="translate(-2548.145 -2855.834)" fill="#e08861"/>
      <path id="Trazado_1295972" data-name="Trazado 1295972" d="M3109.133,3589.283a16.761,16.761,0,0,1,3.125.25c3.6,1.24,7.238,2.333,10.83,3.577,1.518.479,2.993,1.087,4.471,1.68.319-1.1.677-2.2.994-3.306a12.366,12.366,0,0,0,.906,2.008c.265.473.536.951.813,1.424.617,1.24,1.918,1.966,2.475,3.246a5.72,5.72,0,0,1,.482,2.689,9.366,9.366,0,0,1-.8,3.164,9.97,9.97,0,0,1-2.171,2.114c.349,1.457.973,3.011.367,4.5-.488,1.532-2.011,2.288-3.306,3.035.027,1.433.289,3-.488,4.3-.684,1.376-2.267,1.8-3.517,2.481-.006.253-.018.759-.024,1.012a5.529,5.529,0,0,1-2.893,4.209,12.583,12.583,0,0,1-3.417.638,51.434,51.434,0,0,1-8.361-4.05,11.7,11.7,0,0,0-1.8-1.147l.6-.036c-1.216-1.186-2.764-2.364-2.993-4.167-.124-1.011.03-2.39,1.135-2.794a8.746,8.746,0,0,1,2.448.934c2.836,1.243,5.6,2.644,8.4,3.962a8.705,8.705,0,0,0,1.68.473c-.127-.452.054-1.12-.53-1.283-2.894-1.442-5.892-2.674-8.768-4.155-2.125-1.12-4.531-1.755-6.416-3.3-1.764-1.421-1.358-4.766.831-5.537a3.407,3.407,0,0,1,2.773.154c3.017,1.256,5.97,2.662,8.984,3.929a38.152,38.152,0,0,0,4.706,1.918c.1-.184.292-.551.388-.735a16.682,16.682,0,0,0-3.739-1.9c-4.149-1.882-8.379-3.586-12.462-5.609a5.243,5.243,0,0,1-2.578-2.333,3.126,3.126,0,0,1,1.572-3.625,22.379,22.379,0,0,0,2.448-1.12,21.755,21.755,0,0,0,4.035,1.319q5.673,2.624,11.417,5.091a13.21,13.21,0,0,0,3.441,1.331.661.661,0,0,0-.039-1.081,34.705,34.705,0,0,0-3.95-1.782c-2.9-1.3-5.8-2.6-8.716-3.854a15.419,15.419,0,0,1-4.161-2.222,2.828,2.828,0,0,1-.834-3.056C3107,3590.518,3108.257,3590.051,3109.133,3589.283Z" transform="translate(-2492.986 -2855.757)" fill="#f5bc9e"/>
      <path id="Trazado_1295973" data-name="Trazado 1295973" d="M2671.87,3614.372a.863.863,0,0,1,1.247-.716,9.267,9.267,0,0,1,1.3,1.436c.59-.578,1.168-1.165,1.752-1.746.159.159.473.479.629.638.545-.129,1.09-.259,1.632-.41-.133.115-.4.346-.53.464-1.319,1.069-2.276,2.514-3.658,3.517A9.569,9.569,0,0,1,2671.87,3614.372Z" transform="translate(-2092.407 -2878.215)" fill="#ca2b2a"/>
      <path id="Trazado_1295974" data-name="Trazado 1295974" d="M2855.776,3629.076c.081-.406.166-.807.265-1.2a5.377,5.377,0,0,0,.316,2.559c-7.389-.069-14.786.145-22.172-.087q.05-.569.108-1.129a25.441,25.441,0,0,1,3.213-.181C2843.6,3629.031,2849.688,3628.992,2855.776,3629.076Z" transform="translate(-2243.862 -2891.772)" fill="#b6bdd3"/>
      <path id="Trazado_1295975" data-name="Trazado 1295975" d="M3523.94,3652.254a19.1,19.1,0,0,1,3.725.343c7.62,1.28,15.3,4.263,20.654,10.023a20.74,20.74,0,0,1,5.356,9.4c-.4.051-.8.087-1.2.115a21.264,21.264,0,0,1-1.277-2.776,22.364,22.364,0,0,0-4.327-6.2c-5.787-5.9-14.033-8.738-22.124-9.478C3524.476,3653.205,3524.205,3652.726,3523.94,3652.254Z" transform="translate(-2887.467 -2914.519)" fill="#cf7816"/>
      <path id="Trazado_1295976" data-name="Trazado 1295976" d="M3082.9,3684.4a4.326,4.326,0,0,1,3.213-.1,22.375,22.375,0,0,1-2.448,1.12,3.125,3.125,0,0,0-1.572,3.625,5.24,5.24,0,0,0,2.577,2.333c4.083,2.023,8.313,3.728,12.462,5.609a16.7,16.7,0,0,1,3.74,1.9l-.389.734a38.161,38.161,0,0,1-4.706-1.918c-3.014-1.268-5.967-2.673-8.984-3.929a3.408,3.408,0,0,0-2.773-.153c-2.189.771-2.6,4.116-.831,5.537,1.885,1.544,4.29,2.18,6.416,3.3,2.875,1.481,5.874,2.713,8.768,4.155.584.163.4.831.53,1.283a8.709,8.709,0,0,1-1.68-.473c-2.8-1.319-5.564-2.719-8.4-3.962a8.737,8.737,0,0,0-2.448-.933c-1.1.4-1.258,1.782-1.135,2.794.229,1.8,1.776,2.981,2.993,4.167l-.6.036c-1.867-.816-3.706-2.36-3.947-4.5a4.312,4.312,0,0,1,1.385-3.427,9.519,9.519,0,0,1-3.586-2.538,4.589,4.589,0,0,1-.111-4.947,9.37,9.37,0,0,1,1.707-1.49c.208-.129.416-.259.629-.382a15.4,15.4,0,0,1-2-1.46,13.48,13.48,0,0,1-.873-1.322A4.142,4.142,0,0,1,3082.9,3684.4Z" transform="translate(-2473.797 -2944.183)" fill="#e0845a"/>
      <path id="Trazado_1295977" data-name="Trazado 1295977" d="M2579.48,3751.805c.726-2.7,1.352-5.425,2.192-8.09,3.038.033,6.079-.054,9.12.006-.629,2.743-1.4,5.453-2.177,8.157-3.044.093-6.1.1-9.135-.073m1.475-1.078c2.255-.045,4.51-.027,6.765-.048.521-1.936,1.033-3.872,1.59-5.8q-3.36.018-6.72.021C2582.063,3746.85,2581.552,3748.8,2580.955,3750.728Z" transform="translate(-2006.198 -2999.847)" fill="#4b5bab"/>
      <path id="Trazado_1295978" data-name="Trazado 1295978" d="M3399.438,3746.23c.394.033.792.069,1.189.112.045,2.776.668,5.552.217,8.325a32.077,32.077,0,0,1-2.059,9.319,19.94,19.94,0,0,1-8.765,10.188c-1.479.7-2.939,1.674-4.634,1.686-.006-.37,0-.734,0-1.1a17.721,17.721,0,0,0,10.011-7.031,25.189,25.189,0,0,0,4.209-13.118C3400.022,3751.827,3399.368,3749.03,3399.438,3746.23Z" transform="translate(-2758.18 -3002.208)" fill="#fbfcff"/>
      <path id="Trazado_1295979" data-name="Trazado 1295979" d="M2601.53,3767.239c.6-1.927,1.108-3.878,1.635-5.823q3.36,0,6.72-.021c-.557,1.924-1.069,3.86-1.59,5.8C2606.04,3767.212,2603.786,3767.194,2601.53,3767.239Z" transform="translate(-2026.773 -3016.358)" fill="#fff"/>
      <path id="Trazado_1295980" data-name="Trazado 1295980" d="M2806.019,3764.39a29.811,29.811,0,0,1,3.779-.066c4.868,0,9.74-.021,14.612.021a13.56,13.56,0,0,0,.873,1.321c-6.5.024-12.995.057-19.492.021A3.544,3.544,0,0,1,2806.019,3764.39Z" transform="translate(-2217.366 -3019.065)" fill="#b7bccd"/>
      <path id="Trazado_1295981" data-name="Trazado 1295981" d="M3440.873,3765.41a9.372,9.372,0,0,0,.8-3.165c.211,1.373.614,2.972-.376,4.161-.406.719-1.481,1.3-1.063,2.246a5.85,5.85,0,0,1-.665,5.106,11.662,11.662,0,0,1-2.493,1.993c-.105,1.782-.087,3.8-1.421,5.17-.936,1.231-2.544,1.466-3.92,1.927.006-.253.018-.759.024-1.012,1.249-.684,2.833-1.1,3.517-2.481.777-1.3.515-2.869.488-4.3,1.295-.747,2.818-1.5,3.306-3.035.605-1.484-.018-3.038-.367-4.495A9.959,9.959,0,0,0,3440.873,3765.41Z" transform="translate(-2801.431 -3017.152)" fill="#df8253"/>
      <path id="Trazado_1295982" data-name="Trazado 1295982" d="M2097.086,3796a57.514,57.514,0,0,0,10.827-1.307l.039-.006c-.967.891-.771,2.3-1.217,3.441a3.366,3.366,0,0,1-3.688,2.029,16.973,16.973,0,0,1-3.435-.831c-1.337-.545-1.972-1.954-2.532-3.179Z" transform="translate(-1556.075 -3047.426)" fill="#252b4b"/>
      <path id="Trazado_1295983" data-name="Trazado 1295983" d="M2015.14,3806.85a6.112,6.112,0,0,1,2.671-1c.31.542.638,1.081.964,1.62.6,1.075,1.15,2.177,1.707,3.279.253.741.5,1.484.762,2.231-.111.211-.223.425-.325.647l-.4.093c.093-.126.277-.382.37-.509A60.213,60.213,0,0,1,2015.14,3806.85Z" transform="translate(-1479.617 -3057.839)" fill="#ce7c24"/>
      <path id="Trazado_1295984" data-name="Trazado 1295984" d="M2060.23,3811.57c.777.03,1.56.063,2.336.151.027.124.084.376.111.5-.066,1.283-.129,2.571-.123,3.863-.557-1.1-1.108-2.2-1.707-3.279Q2060.531,3812.184,2060.23,3811.57Z" transform="translate(-1521.69 -3063.177)" fill="#202b60"/>
      <path id="Trazado_1295985" data-name="Trazado 1295985" d="M2808.618,3812.535a19.486,19.486,0,0,0,4.51-.2,9.37,9.37,0,0,0-1.707,1.49c-6.705.178-13.413.066-20.122.1.078-.439-.142-1.156.455-1.3a18.084,18.084,0,0,1,3-.084C2799.375,3812.55,2804,3812.5,2808.618,3812.535Z" transform="translate(-2203.846 -3063.886)" fill="#b6bad3"/>
      <path id="Trazado_1295986" data-name="Trazado 1295986" d="M1949.854,3881.948c.566-.871,1.713-.506,2.574-.5.656.786,1.346,1.984.521,2.908-.641,1.138-2.168.858-3.119.311A2.258,2.258,0,0,1,1949.854,3881.948Z" transform="translate(-1418.261 -3128.303)" fill="#fefdfc"/>
      <path id="Trazado_1295987" data-name="Trazado 1295987" d="M1731.914,3949.244c3.52-2.686,7.217-5.127,10.776-7.759.464,2.939.078,5.916.277,8.87a2.683,2.683,0,0,0,1.9,2.451,10.6,10.6,0,0,0,2.186.145q5.663-.068,11.33-.018c.105,1.165.885,2.469,2.222,2.336q26.19,0,52.38,0c4.36-.048,8.725.112,13.076-.105a39.313,39.313,0,0,0,.075,4.212c.268,7.97.566,15.939.729,23.912q-53.866-.031-107.734,0c.115-8.575.409-17.15.662-25.722,4.044-2.7,7.97-5.582,12.025-8.256l.051-.03Z" transform="translate(-1203.412 -3184.399)" fill="#4e59b3"/>
      <path id="Trazado_1295988" data-name="Trazado 1295988" d="M1908.76,4057.514c.024-.018.072-.054.1-.069l-.045.039Z" transform="translate(-1380.355 -3292.601)" fill="#ae6e00"/>
      <path id="Trazado_1295989" data-name="Trazado 1295989" d="M585.014,4566.192c6.235-.036,12.474.006,18.712-.006q28.267-.013,56.535-.012,53.866.018,107.734,0c17.921.027,35.841,0,53.762.015,8.665.006,17.33-.024,26,0,.406-.012.822.166.855.632.262.668-.56,1.129-1.135,1.009q-131.13-.031-262.257-.009C584.177,4568.038,583.99,4566.219,585.014,4566.192Z" transform="translate(-144.543 -3767.283)" fill="#141415"/>
    </g>
  </g>
</svg>
