<svg xmlns="http://www.w3.org/2000/svg" xmlns:xlink="http://www.w3.org/1999/xlink" width="400" height="302" viewBox="0 0 400 302">
  <defs>
    <clipPath id="clip-path">
      <rect id="Rectángulo_424283" data-name="Rectángulo 424283" width="400" height="302" transform="translate(180 3299)" fill="#fff" stroke="#707070" stroke-width="1"/>
    </clipPath>
    <clipPath id="clip-path-2">
      <path id="Trazado_1295957" data-name="Trazado 1295957" d="M98.081,363.686C39.166,311.739,22.956,223.768,54.136,151.675S165.643,32.04,243.844,39.394,392.1,108.434,409.292,185.077c13.265,59.137-5.7,123.519-45.973,168.272-41.745,46.386-104.941,66.311-166.166,56.885C162.321,404.872,124.6,387.068,98.081,363.686Z" transform="translate(-38.579 -38.646)"/>
    </clipPath>
    <clipPath id="clip-path-8">
      <path id="Trazado_1296060" data-name="Trazado 1296060" d="M44.28,246.338A191.745,191.745,0,0,1,58.9,151.675a176.183,176.183,0,0,1,23.071-38.633c.637-7.2,2.839-25.2,9.314-32.393,8.179-9.088,34.534-21.811,39.986-20.448a26.478,26.478,0,0,1,7.656,3.915c33.134-18.892,71.658-28.3,109.681-24.721,78.2,7.355,148.256,69.04,165.448,145.682,13.266,59.137-5.7,123.519-45.973,168.272-41.745,46.386-104.94,66.311-166.166,56.885-34.832-5.362-72.554-23.166-99.072-46.548A173.111,173.111,0,0,1,56.5,297.144c-7.985-.679-16.893-2.639-17.75-7.975C37.735,282.879,41.458,261.193,44.28,246.338Z" transform="translate(-38.577 -38.646)"/>
    </clipPath>
  </defs>
  <g id="Enmascarar_grupo_1211485" data-name="Enmascarar grupo 1211485" transform="translate(-180 -3299)" clip-path="url(#clip-path)">
    <g id="OBJECTS" transform="translate(169 3313.927)">
      <g id="Grupo_1241600" data-name="Grupo 1241600" transform="translate(21.501 14.643)">
        <path id="Trazado_1295949" data-name="Trazado 1295949" d="M98.081,363.686C39.166,311.739,22.956,223.768,54.136,151.675S165.643,32.04,243.844,39.394,392.1,108.434,409.292,185.077c13.265,59.137-5.7,123.519-45.973,168.272-41.745,46.386-104.941,66.311-166.166,56.885C162.321,404.872,124.6,387.068,98.081,363.686Z" transform="translate(-38.579 -38.646)" fill="#a7ebf9"/>
        <path id="Trazado_1295950" data-name="Trazado 1295950" d="M38.58,211.627a190.151,190.151,0,0,1,14.912-59.952C84.671,79.581,165,32.04,243.2,39.394s148.256,69.04,165.448,145.682a177.273,177.273,0,0,1,3.8,50.377c-12.378-5.824-26.688-7.282-40.509-7.41-16.384-.153-32.942,1.277-49.036-1.8-28.236-5.393-51.845-23.879-75.649-40s-51.278-30.869-79.79-27.2c-31.013,3.992-54.967,28.54-83.575,41.162C69.533,206.546,54.205,209.784,38.58,211.627Z" transform="translate(-37.934 -38.646)" fill="#80d6e8"/>
      </g>
      <g id="Grupo_1241601" data-name="Grupo 1241601" transform="translate(0 22.794)">
        <path id="Trazado_1295951" data-name="Trazado 1295951" d="M90.5,101.8h134.22c-4.686-3.928-10.974-7.784-17.089-7.767-2.623.007-5.183.8-7.8.981-3.719.257-7.4-.724-11-1.7-3.623-.979-7.357-2.013-10.294-4.35-3.89-3.1-5.917-8.128-9.936-11.057a13.188,13.188,0,0,0-16.205.949c-3.453,3.2-5.437,8.464-10,9.614-5.171,1.3-9.669-3.56-14.712-5.3a13.382,13.382,0,0,0-14.769,4.671c-2.286,3.157-3.351,7.518-6.823,9.288-2.557,1.3-5.608.744-8.476.647S91.635,99.165,90.5,101.8Z" transform="translate(125.975 -51.213)" fill="#fff"/>
        <path id="Trazado_1295952" data-name="Trazado 1295952" d="M11.216,187.32H141.809c-9.184,0-16.654-6.259-25.551-8.54-2.5-.641-5.1-1.336-7.025-3.058-2.571-2.3-3.387-5.93-5.067-8.945a16.719,16.719,0,0,0-26-4.1c-4.343,4.046-7.005,10.665-12.822,11.848-6.111,1.243-11.949-4.519-18.107-3.539-4.549.724-7.747,4.883-12.015,6.617-4.3,1.746-9.152.86-13.777,1.2S11.694,182.707,11.216,187.32Z" transform="translate(268.691 -61.097)" fill="#fff"/>
        <path id="Trazado_1295953" data-name="Trazado 1295953" d="M263.348,205.334H461.777a14.061,14.061,0,0,1-10.124-3.971c-2.62-2.689-5.249-6-8.987-6.34-4.3-.394-8.36,3.421-12.553,2.392-5.059-1.24-6.29-8.346-10.906-10.757-4.362-2.278-10.058.469-14.484-1.682-4.91-2.386-5.412-9.015-7.82-13.915a16.724,16.724,0,0,0-28.893-1.947c-3.248,4.835-4.811,12.029-10.514,13.212s-10.84-5.072-16.627-4.345c-7.632.959-10.243,12.917-17.918,13.431-5.458.365-9.06-5.278-13.288-8.749-7.789-6.4-20.738-5.023-27.013,2.863-4.214,5.3-6.436,13.419-13.065,14.787-1.718.355-3.613.187-5.1,1.119S261.594,205.334,263.348,205.334Z" transform="translate(-249.533 -61.517)" fill="#fff"/>
        <path id="Trazado_1295954" data-name="Trazado 1295954" d="M292.072,65.844H399.086c-2.678-4.042-8.518-8.8-13.2-7.55-1.753.468-3.267,1.746-5.075,1.889-2.1.167-4.022-1.263-5.3-2.938s-2.147-3.643-3.475-5.281c-4.366-5.389-13.786-5.419-18.186-.057-2.37,2.888-4.161,7.364-7.9,7.25-3.019-.092-5.445-3.478-8.407-2.887-2,.4-3.333,2.531-5.348,2.878-1.738.3-3.425-.856-4.494-2.257s-1.734-3.076-2.781-4.5c-3.915-5.315-13.3-4.973-16.816.612-1.594,2.531-2.249,5.941-4.889,7.347-1.977,1.053-4.383.57-6.609.814S291.467,63.687,292.072,65.844Z" transform="translate(-225.777 -47.903)" fill="#fff"/>
        <path id="Trazado_1295955" data-name="Trazado 1295955" d="M110.692,262.39H282.277c-4.641-3.6-10.491-7.1-16.3-7.93-3.55-.508-7.339.082-10.606-1.4-4.938-2.236-7.275-8.582-12.457-10.17-4.516-1.384-9.457,1.432-14.045.31-4-.976-6.7-4.676-8.53-8.358s-3.235-7.717-6.15-10.62c-4.52-4.5-12.055-5.15-17.782-2.338s-9.661,8.561-11.288,14.73c-.715,2.707-1.145,5.725-3.2,7.629-2.5,2.322-6.534,2.04-9.636.61s-5.683-3.787-8.678-5.428-6.824-2.489-9.756-.734c-4.105,2.456-5.571,9.332-10.353,9.211-3.347-.085-5.348-3.792-8.38-5.212-4.826-2.261-10.249,1.9-13.17,6.356S115.576,260.258,110.692,262.39Z" transform="translate(50.646 -68.512)" fill="#fff"/>
      </g>
      <g id="Grupo_1241618" data-name="Grupo 1241618" transform="translate(21.501 14.643)">
        <g id="Grupo_1241602" data-name="Grupo 1241602" clip-path="url(#clip-path-2)">
          <path id="Trazado_1295956" data-name="Trazado 1295956" d="M-9.138,361.627c.536-4.346,4.965-9.383,9.248-10.622,2.477-.717,12.12.5,12.214,4.331a7.17,7.17,0,0,1,5.075-6.871,7.169,7.169,0,0,1,7.91,3.222c1.7-7.222,13.913-6.1,12.81,1.514a5.834,5.834,0,0,1,9.751-3.471,7.812,7.812,0,0,1,10.978-10.095,10.731,10.731,0,0,1-2.226-13.212,10.06,10.06,0,0,1,1.049-1.453A12.288,12.288,0,0,1,70.893,321.7a14.11,14.11,0,0,1,8.646,11.564c6.15.135,13.111,1.35,17.2,6.37a16.563,16.563,0,0,1,2.279,16.4,7.722,7.722,0,0,1,7.315-1.895c3.534.962,6.179,3.868,8.325,6.835a14.615,14.615,0,0,1,2.83,5.862,7.671,7.671,0,0,1,1.349-.19c3.425-.163,6.942,2.483,7.156,5.9.193,3.08-2.175,5.859-4.987,7.134s-5.995,1.367-9.08,1.439l-81.615,1.892c-12.263.284-26.054-.022-34.592-8.83C-7.512,370.85-9.706,366.233-9.138,361.627Z" transform="translate(290.996 -72.415)" fill="#2da185"/>
        </g>
        <g id="Grupo_1241603" data-name="Grupo 1241603" clip-path="url(#clip-path-2)">
          <path id="Trazado_1295958" data-name="Trazado 1295958" d="M105.06,359.51a7.759,7.759,0,0,0-7.167,4.406,6.789,6.789,0,0,0-9.661.62A6.457,6.457,0,1,0,75.494,366.6a8.755,8.755,0,0,0-11.752.03c-3.46-2.64-8-4.339-12.188-3.169s-7.414,5.988-5.771,10.018a8.554,8.554,0,0,0,5.585,4.6,25.333,25.333,0,0,0,7.419.726l34.536-.036c4.586,0,9.425-.076,13.366-2.423C112.876,372.661,114.629,359.874,105.06,359.51Z" transform="translate(257.168 -76.947)" fill="#51d4b3"/>
        </g>
        <g id="Grupo_1241613" data-name="Grupo 1241613" clip-path="url(#clip-path-2)">
          <g id="Grupo_1241604" data-name="Grupo 1241604" transform="translate(208.704 94.07)">
            <path id="Trazado_1295960" data-name="Trazado 1295960" d="M219.609,264.242s-.313-116.733-1.248-117.67-1.248-.624-2.809-.937-30.588,0-30.588,0-1.561.937-1.561,1.873V263.929Z" transform="translate(-180.905 -145.497)" fill="#e8d1a7"/>
            <path id="Trazado_1295961" data-name="Trazado 1295961" d="M181.89,170.4h38.287a1.561,1.561,0,0,0,1.561-1.561h0a1.561,1.561,0,0,0-1.561-1.561H181.89a1.561,1.561,0,0,0-1.561,1.561h0A1.562,1.562,0,0,0,181.89,170.4Z" transform="translate(-180.329 -148.102)" fill="#fff0d4"/>
            <path id="Trazado_1295962" data-name="Trazado 1295962" d="M181.89,199.118h38.287a1.561,1.561,0,0,0,1.561-1.561h0A1.561,1.561,0,0,0,220.177,196H181.89a1.561,1.561,0,0,0-1.561,1.561h0A1.561,1.561,0,0,0,181.89,199.118Z" transform="translate(-180.329 -151.537)" fill="#fff0d4"/>
            <path id="Trazado_1295963" data-name="Trazado 1295963" d="M181.89,227.835h38.287a1.561,1.561,0,0,0,1.561-1.561h0a1.561,1.561,0,0,0-1.561-1.561H181.89a1.561,1.561,0,0,0-1.561,1.561h0A1.562,1.562,0,0,0,181.89,227.835Z" transform="translate(-180.329 -154.972)" fill="#fff0d4"/>
            <path id="Trazado_1295964" data-name="Trazado 1295964" d="M181.89,256.552h38.287a1.561,1.561,0,0,0,1.561-1.561h0a1.561,1.561,0,0,0-1.561-1.561H181.89a1.561,1.561,0,0,0-1.561,1.561h0A1.562,1.562,0,0,0,181.89,256.552Z" transform="translate(-180.329 -158.407)" fill="#fff0d4"/>
          </g>
          <g id="Grupo_1241605" data-name="Grupo 1241605" transform="translate(139.413 94.07)">
            <path id="Trazado_1295965" data-name="Trazado 1295965" d="M298.314,264.242s-.313-116.733-1.248-117.67-1.248-.624-2.809-.937-30.588,0-30.588,0-1.561.937-1.561,1.873V263.929Z" transform="translate(-259.61 -145.497)" fill="#e8d1a7"/>
            <path id="Trazado_1295966" data-name="Trazado 1295966" d="M260.595,170.4h38.287a1.561,1.561,0,0,0,1.561-1.561h0a1.561,1.561,0,0,0-1.561-1.561H260.595a1.561,1.561,0,0,0-1.561,1.561h0A1.562,1.562,0,0,0,260.595,170.4Z" transform="translate(-259.034 -148.102)" fill="#fff0d4"/>
            <path id="Trazado_1295967" data-name="Trazado 1295967" d="M260.595,199.118h38.287a1.561,1.561,0,0,0,1.561-1.561h0A1.561,1.561,0,0,0,298.882,196H260.595a1.561,1.561,0,0,0-1.561,1.561h0A1.561,1.561,0,0,0,260.595,199.118Z" transform="translate(-259.034 -151.537)" fill="#fff0d4"/>
            <path id="Trazado_1295968" data-name="Trazado 1295968" d="M260.595,227.835h38.287a1.561,1.561,0,0,0,1.561-1.561h0a1.561,1.561,0,0,0-1.561-1.561H260.595a1.561,1.561,0,0,0-1.561,1.561h0A1.562,1.562,0,0,0,260.595,227.835Z" transform="translate(-259.034 -154.972)" fill="#fff0d4"/>
            <path id="Trazado_1295969" data-name="Trazado 1295969" d="M260.595,256.552h38.287a1.561,1.561,0,0,0,1.561-1.561h0a1.561,1.561,0,0,0-1.561-1.561H260.595a1.561,1.561,0,0,0-1.561,1.56h0A1.562,1.562,0,0,0,260.595,256.552Z" transform="translate(-259.034 -158.407)" fill="#fff0d4"/>
          </g>
          <g id="Grupo_1241608" data-name="Grupo 1241608" transform="translate(249.281 171.901)">
            <g id="Grupo_1241606" data-name="Grupo 1241606" transform="translate(41.93)">
              <path id="Trazado_1295970" data-name="Trazado 1295970" d="M131.415,322.57l-3.4-87.408a1.048,1.048,0,0,0-.961-1.006c-2.387-.2-8.62-.612-9.374.4-.937,1.248-3.434,87.394-2.5,88.019S129.23,323.82,131.415,322.57Z" transform="translate(-114.978 -233.902)" fill="#c2a77e"/>
              <path id="Trazado_1295971" data-name="Trazado 1295971" d="M130.083,252.186c-2.62.077-8.419,0-11.926-.055.07-1.69.138-3.289.206-4.771,3.512-.018,9.642.239,11.545.323Z" transform="translate(-116.445 -235.512)" fill="#e8d1a7"/>
            </g>
            <g id="Grupo_1241607" data-name="Grupo 1241607" transform="translate(12.799)">
              <path id="Trazado_1295972" data-name="Trazado 1295972" d="M164.5,322.57l-3.4-87.408a1.048,1.048,0,0,0-.961-1.006c-2.387-.2-8.62-.612-9.374.4-.937,1.248-3.434,87.394-2.5,88.019S162.319,323.82,164.5,322.57Z" transform="translate(-148.067 -233.902)" fill="#c2a77e"/>
              <path id="Trazado_1295973" data-name="Trazado 1295973" d="M163.172,252.186c-2.621.077-8.419,0-11.926-.055.07-1.69.138-3.289.206-4.771,3.511-.018,9.642.239,11.545.323Z" transform="translate(-149.534 -235.512)" fill="#e8d1a7"/>
            </g>
            <path id="Trazado_1295974" data-name="Trazado 1295974" d="M115.788,375.96s2.08-30.588-1.873-45.778-12.786-21.408-22.15-23.072A54.779,54.779,0,0,0,75,306.669l.416,12.072s17.895-3.332,22.889,5.2,6.658,20.6,6.867,29.131,0,23.513,0,23.513Z" transform="translate(-22.775 -242.554)" fill="#c2a77e"/>
            <path id="Trazado_1295975" data-name="Trazado 1295975" d="M171.377,382.723V335.9s.313-3.121-1.873-3.434-70.852,0-70.852,0V382.41Z" transform="translate(-98.652 -245.676)" fill="#c2a77e"/>
          </g>
          <g id="Grupo_1241609" data-name="Grupo 1241609" transform="translate(119.126 207.197)">
            <path id="Trazado_1295976" data-name="Trazado 1295976" d="M171.445,274.23c1.935-.315,134.759-.315,136.694,0,2.185.356,1.873,3.915,1.873,3.915v53.384H169.573V278.145S169.26,274.586,171.445,274.23Z" transform="translate(-169.557 -273.993)" fill="#c2a77e"/>
            <path id="Trazado_1295977" data-name="Trazado 1295977" d="M212.59,314.542v-30.38a1.209,1.209,0,0,0-1.248-.832h-9.468s-.728.208-.728.832v30.276s-.208.832.52.832h10.092S212.694,314.958,212.59,314.542Z" transform="translate(-99.914 -275.11)" fill="#e8d1a7"/>
            <path id="Trazado_1295978" data-name="Trazado 1295978" d="M235.28,314.542v-30.38a1.209,1.209,0,0,0-1.248-.832h-9.468s-.728.208-.728.832v30.276s-.208.832.52.832h10.092S235.384,314.958,235.28,314.542Z" transform="translate(-142.58 -275.11)" fill="#e8d1a7"/>
            <path id="Trazado_1295979" data-name="Trazado 1295979" d="M257.97,314.542v-30.38a1.209,1.209,0,0,0-1.248-.832h-9.468s-.728.208-.728.832v30.276s-.208.832.52.832h10.092S258.074,314.958,257.97,314.542Z" transform="translate(-185.246 -275.11)" fill="#e8d1a7"/>
            <path id="Trazado_1295980" data-name="Trazado 1295980" d="M280.66,314.542v-30.38a1.209,1.209,0,0,0-1.248-.832h-9.468s-.728.208-.728.832v30.276s-.208.832.52.832h10.092S280.765,314.958,280.66,314.542Z" transform="translate(-227.912 -275.11)" fill="#e8d1a7"/>
          </g>
          <g id="Grupo_1241611" data-name="Grupo 1241611" transform="translate(138.686 255.162)">
            <path id="Trazado_1295981" data-name="Trazado 1295981" d="M290.454,382.3c-.047-1.07,0-52.13,0-51.115s-1.354-2.708-3.385-2.708H172.652s-2.708.338-3.046,1.693,0,52.685,0,52.685.338,2.492,2.37,2.83,115.432,0,115.432,0S290.542,384.322,290.454,382.3Z" transform="translate(-169.455 -328.475)" fill="#fff0d4"/>
            <path id="Trazado_1295982" data-name="Trazado 1295982" d="M221.048,342.482q.016-5.832.032-11.663a.7.7,0,0,1,1.4,0q-.055,20.629-.113,41.258-.016,5.832-.032,11.663a.7.7,0,0,1-1.4,0Q220.992,363.11,221.048,342.482Z" transform="translate(-146.8 -328.674)" fill="#e8d1a7"/>
            <g id="Grupo_1241610" data-name="Grupo 1241610" transform="translate(3.084 5.078)">
              <path id="Trazado_1295983" data-name="Trazado 1295983" d="M228.475,339.363h63.09a2.56,2.56,0,0,0,2.56-2.56h0a2.56,2.56,0,0,0-2.56-2.56h-63.09a2.56,2.56,0,0,0-2.56,2.56h0A2.56,2.56,0,0,0,228.475,339.363Z" transform="translate(-225.915 -334.243)" fill="#c2a77e"/>
              <path id="Trazado_1295984" data-name="Trazado 1295984" d="M228.475,350.245h63.09a2.56,2.56,0,0,0,2.56-2.56h0a2.56,2.56,0,0,0-2.56-2.56h-63.09a2.56,2.56,0,0,0-2.56,2.56h0A2.56,2.56,0,0,0,228.475,350.245Z" transform="translate(-225.915 -335.545)" fill="#c2a77e"/>
              <path id="Trazado_1295985" data-name="Trazado 1295985" d="M228.475,361.127h63.09a2.56,2.56,0,0,0,2.56-2.56h0a2.56,2.56,0,0,0-2.56-2.56h-63.09a2.56,2.56,0,0,0-2.56,2.56h0A2.56,2.56,0,0,0,228.475,361.127Z" transform="translate(-225.915 -336.846)" fill="#c2a77e"/>
              <path id="Trazado_1295986" data-name="Trazado 1295986" d="M228.475,372.009h63.09a2.56,2.56,0,0,0,2.56-2.56h0a2.56,2.56,0,0,0-2.56-2.56h-63.09a2.56,2.56,0,0,0-2.56,2.56h0A2.56,2.56,0,0,0,228.475,372.009Z" transform="translate(-225.915 -338.148)" fill="#c2a77e"/>
              <path id="Trazado_1295987" data-name="Trazado 1295987" d="M228.475,382.891h63.09a2.56,2.56,0,0,0,2.56-2.56h0a2.56,2.56,0,0,0-2.56-2.56h-63.09a2.56,2.56,0,0,0-2.56,2.56h0A2.56,2.56,0,0,0,228.475,382.891Z" transform="translate(-225.915 -339.449)" fill="#c2a77e"/>
            </g>
          </g>
          <g id="Grupo_1241612" data-name="Grupo 1241612" transform="translate(235.4 204.059)">
            <path id="Trazado_1295988" data-name="Trazado 1295988" d="M181.847,363.067l-.826-63.634s-1.993-29.387-31.8-29-35.687,23.538-36.678,29.89-1.1,63.223-1.1,63.223S162.823,366.611,181.847,363.067Z" transform="translate(-106.487 -270.429)" fill="#82a827"/>
            <path id="Trazado_1295989" data-name="Trazado 1295989" d="M112.287,306.3a56.238,56.238,0,0,1,.273-5.981c.992-6.352,6.869-29.5,36.678-29.89s31.8,29,31.8,29l.085,6.536C170.077,306.329,132.843,307.82,112.287,306.3Z" transform="translate(-106.507 -270.429)" fill="#b2db60"/>
            <path id="Trazado_1295990" data-name="Trazado 1295990" d="M185.93,382.278s-1.121-6.832-7.067-7.769c0,0-22.7.548-35.083.455s-34.315-.062-34.315-.062-5.113,3.617-5.322,7.423c0,0,25.746,2.454,46.9,2.433S185.93,382.278,185.93,382.278Z" transform="translate(-104.144 -282.878)" fill="#628212"/>
            <path id="Trazado_1295991" data-name="Trazado 1295991" d="M154.567,352.292A11.618,11.618,0,0,0,158.392,346a18.8,18.8,0,0,0,.41-4.068,7.661,7.661,0,0,0-.269-2.055c-.107-.394-.346-1.465-.7-1.693a8.874,8.874,0,0,1,3.464,9.737,8.435,8.435,0,0,1-7.968,6.03A4.293,4.293,0,0,1,154.567,352.292Zm-9.383-6.791c-2.292-3.358-2.8-7.8-2.087-11.866a28.267,28.267,0,0,1,2.167-6.891,20.471,20.471,0,0,1,3.286-5.1c-.2,3.173,1.019,5.83,2.757,8.344a45.057,45.057,0,0,1,4.093,6.168c1.4,2.976,2.02,6.613.857,9.7-2.572,6.821-5.836,8.331-6.764,8.584a4.2,4.2,0,0,0,.064-1.168A7.01,7.01,0,0,0,149.4,352a6.925,6.925,0,0,0-.946-2.291C147.481,348.212,146.192,346.979,145.184,345.5Zm-3.095-13.169a9.984,9.984,0,0,0-.861,4.333,16.189,16.189,0,0,0,2.525,9.322,40.681,40.681,0,0,1,2.807,3.691,20.446,20.446,0,0,1,1.8,4.521c-.007-.026-1.945-.208-2.139-.25a11.4,11.4,0,0,1-2.16-.7,10.773,10.773,0,0,1-3.6-2.513,11.571,11.571,0,0,1-2.93-8.258,15.968,15.968,0,0,1,1.108-6.063A10.965,10.965,0,0,1,142.09,332.332Z" transform="translate(-109.254 -276.555)" fill="#ffb81e"/>
            <path id="Trazado_1295992" data-name="Trazado 1295992" d="M117.766,274.429a30.7,30.7,0,0,1,25.97,26.557c.086.667-.962.676-1.048.014A29.659,29.659,0,0,0,117.5,275.443C116.836,275.345,117.1,274.331,117.766,274.429Z" transform="translate(-73.375 -270.906)" fill="#fff"/>
            <path id="Trazado_1295993" data-name="Trazado 1295993" d="M111.205,377.354h57.639a.645.645,0,0,1,0,1.29H111.205A.645.645,0,0,1,111.205,377.354Z" transform="translate(-93.349 -283.218)" fill="#82a827"/>
          </g>
        </g>
        <g id="Grupo_1241615" data-name="Grupo 1241615" clip-path="url(#clip-path-2)">
          <rect id="Rectángulo_424287" data-name="Rectángulo 424287" width="420.741" height="104.873" transform="translate(-22.89 302.394)" fill="#82a827"/>
          <path id="Trazado_1295995" data-name="Trazado 1295995" d="M12.52,470.143v-44.8c5.157-1.873,11.038-2.233,16.336-2.127l105.75,2.105,186.616,3.714,93.308,1.857c4.665.093,12.2-1.218,18.73-.35v41.214H15.167Q13.822,471.01,12.52,470.143Z" transform="translate(-35.41 -84.643)" fill="#628212"/>
          <g id="Grupo_1241614" data-name="Grupo 1241614" transform="translate(-22.89 301.063)">
            <rect id="Rectángulo_424288" data-name="Rectángulo 424288" width="420.741" height="14.357" transform="translate(0 4.058)" fill="#e8d1a7"/>
            <rect id="Rectángulo_424289" data-name="Rectángulo 424289" width="420.741" height="4.058" fill="#c2a77e"/>
          </g>
        </g>
        <g id="Grupo_1241616" data-name="Grupo 1241616" clip-path="url(#clip-path-2)">
          <path id="Trazado_1295997" data-name="Trazado 1295997" d="M131.22,427.292a23.007,23.007,0,0,0,6.356-5.228c1.652-2.211,2.444-5.281,1.263-7.774s-4.747-3.781-6.9-2.051c1.661-5.725,7.188-9.379,12.567-11.948s11.254-4.736,15.1-9.287,4.476-12.522-.5-15.808c-2.357-1.557-5.484-1.773-7.608-3.634-2.268-1.987-2.781-5.4-2.169-8.351s2.151-5.613,3.441-8.339a53.259,53.259,0,0,0,5.066-20.6c.187-4.664-1.033-10.4-5.5-11.748-2.543-.766-5.353.289-7.349,2.039a23.68,23.68,0,0,0-4.646,6.421q-4.485,7.943-8.969,15.886c-1.516,2.685-3.7,5.749-6.774,5.508-3.414-.268-5.411-4.553-8.815-4.927-3.566-.392-5.908,3.549-7.158,6.911A147.636,147.636,0,0,0,101.75,379.5a17.965,17.965,0,0,1-1.694,5.788,5.652,5.652,0,0,1-4.851,3.106c-1.713-.075-3.235-1.2-4.943-1.341-3.566-.29-5.926,3.546-7.246,6.872a119.677,119.677,0,0,0-7.04,25.917c-.8,5.21-1.225,10.713.752,15.6C85.174,456.312,120.064,434.411,131.22,427.292Z" transform="translate(179.902 -72.571)" fill="#628212"/>
          <path id="Trazado_1295998" data-name="Trazado 1295998" d="M92.222,435.355q4.8-5.154,9.356-10.536c0-.008-.006-.015-.006-.023a96.085,96.085,0,0,0-3.154-18.147c-.239-.872,1.094-1.328,1.335-.453a98.1,98.1,0,0,1,3.1,17.112q7.674-9.178,14.6-18.95,3.436-4.857,6.666-9.857a.762.762,0,0,1-.241-.486,123.415,123.415,0,0,0-4.691-25.941c-.255-.869,1.078-1.323,1.335-.453a125.251,125.251,0,0,1,4.667,25.222q7.026-10.994,13.072-22.573,5.189-9.948,9.613-20.269c.357-.833,1.612-.192,1.255.639a297.273,297.273,0,0,1-18.265,35.716q-1.994,3.324-4.082,6.589l24.773-3.59c.9-.13.973,1.277.081,1.406l-25.846,3.746A299.025,299.025,0,0,1,108.038,419.2q-1.826,2.286-3.7,4.533a276.486,276.486,0,0,1,27.643-2.951.7.7,0,0,1,.081,1.406,276.549,276.549,0,0,0-29.1,3.169q-4.714,5.581-9.689,10.935C92.656,436.955,91.6,436.02,92.222,435.355Z" transform="translate(175.586 -75.841)" fill="#82a827"/>
        </g>
        <g id="Grupo_1241617" data-name="Grupo 1241617" clip-path="url(#clip-path-2)">
          <path id="Trazado_1296000" data-name="Trazado 1296000" d="M222.194,433.588c1.087-2.439,2.066-5.124,1.474-7.728s-3.409-4.848-5.9-3.872c-1.979.777-3.815,3.312-5.617,2.183-1.336-.836-.964-2.838-.509-4.348a43.652,43.652,0,0,0,1.705-16.224,11.608,11.608,0,0,0-1.644-5.711c-1.14-1.649-3.286-2.754-5.187-2.122-1.161.386-2.072,1.341-3.246,1.689-2.174.643-4.459-1.1-5.3-3.2s-.646-4.457-.577-6.724a55.745,55.745,0,0,0-3.758-21.872c-1.015-2.608-2.871-5.554-5.665-5.408a4.867,4.867,0,0,0-3.908,3.053,14.329,14.329,0,0,0-.916,5.106l-1.043,18.723a4.543,4.543,0,0,1-.92,3.025c-1.514,1.538-4.208.176-5.392-1.628s-1.841-4.1-3.665-5.251c-2.519-1.59-6.077.013-7.559,2.6s-1.42,5.749-1.154,8.716a86.192,86.192,0,0,0,5.049,22.159,9.512,9.512,0,0,1,.873,3.913A3.044,3.044,0,0,1,167,423.568c-1.465.187-2.757-1.092-4.232-1.141a3.552,3.552,0,0,0-3.257,3.04,9.468,9.468,0,0,0,.681,4.746,71.734,71.734,0,0,0,21.143,31.328c8.514,7.3,14.363,5.042,21.68-1.755A80.6,80.6,0,0,0,222.194,433.588Z" transform="translate(44.681 -77.113)" fill="#b2db60"/>
          <path id="Trazado_1296001" data-name="Trazado 1296001" d="M175.291,435.852l17.757,10.971q.943-11.088,1.193-22.217a98.019,98.019,0,0,0-16.667-17.349c-.7-.572.164-1.682.868-1.109a99.483,99.483,0,0,1,15.845,16.225q.156-10-.251-20-.321-7.721-.979-15.424a.7.7,0,0,1,1.4-.153,355.822,355.822,0,0,1,1.223,35.925l14.783-11.6c.715-.561,1.562.565.85,1.124l-15.673,12.294c-.126,5.88-.38,11.758-.8,17.625-.122,1.718-.277,3.433-.425,5.148l20.4-14.822c.733-.533,1.583.591.85,1.124l-21.051,15.3a.663.663,0,0,1-.339.123c-.268,2.952-.565,5.9-.907,8.845-.1.9-1.5.689-1.393-.212.358-3.09.661-6.186.938-9.284l-18.491-11.424C173.651,436.485,174.528,435.381,175.291,435.852Z" transform="translate(39.631 -80.216)" fill="#628212"/>
        </g>
      </g>
      <rect id="Rectángulo_424290" data-name="Rectángulo 424290" width="403.158" height="403.158" transform="translate(7.377)" fill="none"/>
      <g id="Grupo_1241637" data-name="Grupo 1241637" transform="translate(16.735 14.644)">
        <g id="Grupo_1241636" data-name="Grupo 1241636" clip-path="url(#clip-path-8)">
          <path id="Trazado_1296003" data-name="Trazado 1296003" d="M416.271,429.459l3.914,39.47s-123.3,1.957-123.3-.979,3.589-34.251,3.589-34.251Z" transform="translate(-267.918 -85.392)" fill="#423c39"/>
          <g id="Grupo_1241619" data-name="Grupo 1241619" transform="translate(28.634 134.867)">
            <path id="Trazado_1296004" data-name="Trazado 1296004" d="M284.1,218.266s15.821,23.976,19.9,32.946,13.843,39.055,15.658,45.993c-2.205,1.77-16.146,8.481-20.387,6.85s-13.048-64.587-13.048-64.587Z" transform="translate(-184.77 -194.998)" fill="#d77b51"/>
            <path id="Trazado_1296005" data-name="Trazado 1296005" d="M370.707,201.445s18.895,12.484,21.288,15.311,12.612,49.147,14.352,54.366,5.436,73.938,5.871,82.636,1.3,34.359,1.3,35.665-5.654,5-10.655,5.871a377.37,377.37,0,0,1-43.058,3.479c-18.919.435-35.447-3.7-44.58-4.784a93.083,93.083,0,0,1-15.875-3.262s.87-71.546,1.522-81.114,2.392-75.46,2.392-75.46l-.87-30.88s21.754-8.126,26.643-8.521,27.94,5.911,27.94,5.911Z" transform="translate(-292.065 -192.184)" fill="#d77b51"/>
            <path id="Trazado_1296006" data-name="Trazado 1296006" d="M352.356,191.837c3.479,0,24.138,3.262,24.138,3.262.323,0,4.171,2.724,8.288,6,1.689,4.537,5.1,14.688,4.108,20.313-1.3,7.393-18.05,12.395-28.922-.217-8.921-10.348-15.5-21.717-16.85-26.788C346.951,192.94,350.756,191.837,352.356,191.837Z" transform="translate(-306.139 -191.837)" fill="#e8ac8f"/>
            <path id="Trazado_1296007" data-name="Trazado 1296007" d="M400.264,225.443s-2.609-7.992-3.914-9.949-16.31-11.743-16.962-11.743.163,3.425.163,3.425,5.546,18.267,6.524,22.181,1.957,7.5,1.142,8.807-15.005,1.142-24.3.815-19.409-.489-20.877-2.447-1.957-8.97-4.241-17.941-7.5-23.159-8.97-23.486-16.8,4.567-17.452,5.871,6.034,17.452,7.176,24.138,2.772,39.8,2.609,47.462-11.743,33.6-13.374,36.371-5.056,20.877-6.034,23.649-5.708,67.849-5.546,69.806a4.871,4.871,0,0,0,2.609,4.077c1.468.815,40.449,6.361,51.376,7.34s43.221-2.447,53.333-5.382,16.146-5.383,16.8-7.013-1.794-18.757-1.957-22.834-3.914-62.793-3.751-68.5-2.609-32.946-3.751-40.938S403.526,235.718,400.264,225.443Z" transform="translate(-296.203 -192.226)" fill="#ffb81e"/>
            <path id="Trazado_1296008" data-name="Trazado 1296008" d="M306.383,303.3c11.087.908,25.025,2.087,35.427,3.094,16.043,1.553,49.121.026,62.112-.671.346,3.728.649,7.3.86,10.3-11.2,1.351-44.32.953-57.753-.167-9.96-.83-30.346-3.111-43.864-4.663C304.217,308.722,305.325,306.021,306.383,303.3Z" transform="translate(-286.678 -205.17)" fill="#ffecb5"/>
            <path id="Trazado_1296009" data-name="Trazado 1296009" d="M348.321,408.579c-19.406-2.021-38.429-3.792-50.1-4.847.227-3.138.471-6.43.721-9.755,13.714,1.127,39.453,4.68,65.033,5.141,27.4.494,46.76-2.374,54.56-3.8.224,3.739.374,6.316.4,7.061s.137,1.945.289,3.4C406.091,408.107,373.6,411.212,348.321,408.579Z" transform="translate(-296.777 -216.015)" fill="#ffecb5"/>
            <path id="Trazado_1296010" data-name="Trazado 1296010" d="M353.768,253.692q-.339-2.063-.721-4.117c-.157-.848,1.142-1.211,1.3-.358A237,237,0,0,1,357.93,281.7c.495,10.965.384,21.948.01,32.915-.376,11.029-1.019,22.046-1.6,33.066s-1.087,22.041-1.2,33.074a319.986,319.986,0,0,0,1.189,32.779q.193,2.083.423,4.162c.094.861-1.255.855-1.348,0a299.216,299.216,0,0,1-1.633-32.753c0-10.975.445-21.944,1-32.9s1.21-21.937,1.651-32.913c.438-10.92.662-21.857.332-32.784A247.1,247.1,0,0,0,353.768,253.692Z" transform="translate(-284.063 -198.642)" fill="#423c39"/>
            <path id="Trazado_1296011" data-name="Trazado 1296011" d="M391.018,199.253a84.775,84.775,0,0,1,9.369,35.3c.036.868-1.312.866-1.348,0a83.163,83.163,0,0,0-9.185-34.615C389.456,199.163,390.619,198.481,391.018,199.253Z" transform="translate(-358.533 -192.683)" fill="#ffd863"/>
            <path id="Trazado_1296012" data-name="Trazado 1296012" d="M311.557,219.051a303.866,303.866,0,0,1,11.107,43.531q1.1,6.212,1.944,12.465c.114.849-1.184,1.216-1.3.358a303.841,303.841,0,0,0-9.283-43.956q-1.758-6.059-3.767-12.04C309.981,218.585,311.282,218.231,311.557,219.051Z" transform="translate(-212.722 -195.036)" fill="#ffd863"/>
          </g>
          <g id="Grupo_1241626" data-name="Grupo 1241626" transform="translate(48.823 29.659)">
            <path id="Trazado_1296013" data-name="Trazado 1296013" d="M330.852,121.419a65.472,65.472,0,0,0,10.284,59.123c.915,1.185,2.9.34,4.136-.511s2.309-2,3.742-2.44c3.706-1.132,7.415,3.018,11.186,2.132,1.965-2,5.049-1.547,7.656-.519s5.137,2.591,7.938,2.554a17.968,17.968,0,0,0,5.137-1.228,9.159,9.159,0,0,1,5.2-.475c1.7.48,3.186,2.14,2.889,3.883a3.219,3.219,0,0,0,4.086-.4,9.606,9.606,0,0,0,2.034-4.056A234.725,234.725,0,0,0,401.1,156.2c.964-4.774,1.766-9.812.251-14.44a19.333,19.333,0,0,0-6.878-9.119,42.262,42.262,0,0,0-10.228-5.389c-12.965-5.1-26.805-7.577-40.618-9.386A17.077,17.077,0,0,0,330.852,121.419Z" transform="translate(-326.003 -77.764)" fill="#423c39"/>
            <path id="Trazado_1296014" data-name="Trazado 1296014" d="M391.941,162.477a14.044,14.044,0,0,0-1.074-2.538,17.957,17.957,0,0,0-8.151-7.141,63.84,63.84,0,0,0-10.424-3.5c-6.83-1.927-13.618-4.2-20.672-4.973-5.868-.646-16.117-.837-20.16,4.564-3.833,5.122.118,15.25,2,20.406a36.533,36.533,0,0,0,6.7,11.6c.122-.049.234-.12.362-.158,3.706-1.132,7.415,3.018,11.186,2.132,1.965-2,5.049-1.547,7.656-.519s5.137,2.591,7.939,2.554a17.968,17.968,0,0,0,5.137-1.228,9.159,9.159,0,0,1,5.2-.475c1.7.48,3.186,2.14,2.889,3.883a3.218,3.218,0,0,0,4.086-.4,9.607,9.607,0,0,0,2.034-4.056Q389.752,172.681,391.941,162.477Z" transform="translate(-317.517 -80.907)" fill="#262221"/>
            <path id="Trazado_1296015" data-name="Trazado 1296015" d="M350.514,190.68c4.869,10.437,13.78,19.062,23.943,24.488.077-.009.153-.009.23-.02.058-.009.114-.027.171-.038,9.1-9.131,7.41-24.941,7.544-24.919-.128-1.148-.234-2.29-.284-3.418a2.755,2.755,0,0,0-.276-1.306,2.846,2.846,0,0,0-2.134-1.012c-9.405-1.487-19.583-3.841-28.005-8.285A60.532,60.532,0,0,1,350.514,190.68Z" transform="translate(-326.218 -84.755)" fill="#e8ac8f"/>
            <path id="Trazado_1296016" data-name="Trazado 1296016" d="M332.5,122.735a71.4,71.4,0,0,1-1.714,20.118,61.857,61.857,0,0,0-.133,29.414c.132.526-.545,1.133-.978.806a15.326,15.326,0,0,1-4.937-6.951,37.464,37.464,0,0,1-1.742-8.346c-1.354-11.029-1.638-22.66,2.977-32.769a7.814,7.814,0,0,1,2.16-3.095C329.139,121.143,331.456,122.006,332.5,122.735Z" transform="translate(-251.389 -78.229)" fill="#423c39"/>
            <path id="Trazado_1296017" data-name="Trazado 1296017" d="M390.649,115.46A39.2,39.2,0,0,1,391,134.048a41.238,41.238,0,0,0-1.2,13.065c.371,4.041.018,11.14-2.219,14.525-5.689,8.607-8.977,11.953-18.358,17.551-1.866,1.115-7.921,2-9.951,1.22-9.5-3.646-20.131-9.218-23.5-18.818a161.467,161.467,0,0,1-4.846-16.643c-1.461-6.249-3.215-12.352-3.036-18.766s1.92-12.914,5.767-18.05a29.736,29.736,0,0,1,14.368-10.01,46.465,46.465,0,0,1,17.552-2.035c5.745.335,11.589,1.5,16.455,4.566S389.1,109.918,390.649,115.46Z" transform="translate(-315.799 -75.164)" fill="#e8ac8f"/>
            <g id="Grupo_1241620" data-name="Grupo 1241620" transform="translate(37.137 60.364)">
              <path id="Trazado_1296018" data-name="Trazado 1296018" d="M369.349,142.536a6.374,6.374,0,0,0,.119,2.4,2.807,2.807,0,0,0,.306.99.959.959,0,0,0,.854.5.927.927,0,0,0,.657-.428,2.289,2.289,0,0,0,.294-.75,9.346,9.346,0,0,0,.219-3.212C371.577,139.933,369.641,141.133,369.349,142.536Z" transform="translate(-369.275 -140.9)" fill="#262221"/>
            </g>
            <g id="Grupo_1241621" data-name="Grupo 1241621" transform="translate(57.158 60.717)">
              <path id="Trazado_1296019" data-name="Trazado 1296019" d="M346.607,142.938a6.375,6.375,0,0,0,.119,2.4,2.826,2.826,0,0,0,.306.99.959.959,0,0,0,.854.5.927.927,0,0,0,.657-.428,2.3,2.3,0,0,0,.294-.75,9.347,9.347,0,0,0,.219-3.212C348.835,140.334,346.9,141.534,346.607,142.938Z" transform="translate(-346.534 -141.301)" fill="#262221"/>
            </g>
            <g id="Grupo_1241622" data-name="Grupo 1241622" transform="translate(34.974 59.364)">
              <path id="Trazado_1296020" data-name="Trazado 1296020" d="M373.221,141.912a.4.4,0,0,1-.189-.048,6.327,6.327,0,0,0-5.8-.1.392.392,0,0,1-.543-.208,4.323,4.323,0,0,0-.685-1.159.391.391,0,0,1,.6-.5,5.165,5.165,0,0,1,.64.99,7.048,7.048,0,0,1,6.157.284.39.39,0,0,1-.188.732Z" transform="translate(-365.919 -139.764)" fill="#262221"/>
            </g>
            <g id="Grupo_1241623" data-name="Grupo 1241623" transform="translate(56.143 60.096)">
              <path id="Trazado_1296021" data-name="Trazado 1296021" d="M348.585,142.509a.391.391,0,0,1-.23-.075,5.826,5.826,0,0,0-6.04-.377.391.391,0,1,1-.378-.684,6.553,6.553,0,0,1,6.55.207l.063-.092c.1-.143.2-.287.293-.416a.391.391,0,0,1,.63.463c-.091.123-.186.261-.281.4s-.2.287-.293.416A.39.39,0,0,1,348.585,142.509Z" transform="translate(-341.735 -140.596)" fill="#262221"/>
            </g>
            <g id="Grupo_1241624" data-name="Grupo 1241624" transform="translate(55.391 51.612)">
              <path id="Trazado_1296022" data-name="Trazado 1296022" d="M349.562,132.686a.424.424,0,0,1-.138-.025,14.751,14.751,0,0,0-10.086-.062.391.391,0,0,1-.268-.734,15.523,15.523,0,0,1,10.63.066.39.39,0,0,1-.138.755Z" transform="translate(-338.813 -130.959)" fill="#423c39"/>
            </g>
            <g id="Grupo_1241625" data-name="Grupo 1241625" transform="translate(31.376 50.485)">
              <path id="Trazado_1296023" data-name="Trazado 1296023" d="M364.246,131.856a.391.391,0,0,1-.164-.746,16.175,16.175,0,0,1,12.637-.283.391.391,0,0,1-.294.724,15.388,15.388,0,0,0-12.016.269A.385.385,0,0,1,364.246,131.856Z" transform="translate(-363.855 -129.679)" fill="#423c39"/>
            </g>
            <path id="Trazado_1296024" data-name="Trazado 1296024" d="M379.295,136.833a16.664,16.664,0,0,1-7.494,1.092,7.371,7.371,0,0,1-5.955-4.2,7.238,7.238,0,0,1,1.084-6.644,15.058,15.058,0,0,1,5.394-4.381,30.394,30.394,0,0,1,20.783-2.965c1.973.447,8.613,1.792,6.634,4.848-1.734,2.681-6.244,5.007-8.905,6.682A54.3,54.3,0,0,1,379.295,136.833Z" transform="translate(-357.023 -77.921)" fill="#423c39"/>
            <path id="Trazado_1296025" data-name="Trazado 1296025" d="M402.91,141.452c-.341-2.343-3.249-3.722-5.478-2.925a6.117,6.117,0,0,0-3.678,5.586,11.7,11.7,0,0,0,2.188,6.639,22.146,22.146,0,0,0,9,7.89C405.011,153.066,403.713,146.971,402.91,141.452Z" transform="translate(-386.781 -80.225)" fill="#e8ac8f"/>
            <path id="Trazado_1296026" data-name="Trazado 1296026" d="M383.87,136.811a86.51,86.51,0,0,0,4.064,33.411c1.265,3.849,2.907,7.762,5.976,10.407.345.3,1.084-.675.924-1.1-4.187-11.237-6.268-23.631-5.1-35.466.188-1.9.87-7.438.158-9.21S385.629,136.069,383.87,136.811Z" transform="translate(-367.78 -79.746)" fill="#423c39"/>
            <path id="Trazado_1296027" data-name="Trazado 1296027" d="M403.788,179.933a43.942,43.942,0,0,1-8.407-19.095c-.21-1.187-2.019-.684-1.809.5a45.157,45.157,0,0,0,8.6,19.544C402.893,181.825,404.524,180.891,403.788,179.933Z" transform="translate(-385.639 -82.84)" fill="#262221"/>
            <path id="Trazado_1296028" data-name="Trazado 1296028" d="M400.638,122a331.477,331.477,0,0,0-91.8,1.067,3.586,3.586,0,0,1-2.793-3.174,3.537,3.537,0,0,1,2.582-3.312c-.887-13.868,6.739-27.766,18.129-35.728a40.125,40.125,0,0,1,39.627-3.289,38.858,38.858,0,0,1,21.555,33.258,89.8,89.8,0,0,1,12.591,9.252,2.042,2.042,0,0,1,.892,1.505C401.381,122.183,400.872,122.556,400.638,122Z" transform="translate(-306.045 -72.511)" fill="#ffd863"/>
            <path id="Trazado_1296029" data-name="Trazado 1296029" d="M333.312,124.886l28.714.281a.721.721,0,0,1,0,1.441l-28.714-.281A.721.721,0,0,1,333.312,124.886Z" transform="translate(-290.737 -78.621)" fill="#d77b51"/>
            <path id="Trazado_1296030" data-name="Trazado 1296030" d="M374.72,104.155a3.938,3.938,0,0,1,1.679-6.774c8.63-2.107,18.074-.9,26.947-.45a3.735,3.735,0,0,1-.3,7.464C393.742,105.183,384.039,104.757,374.72,104.155Z" transform="translate(-370.799 -75.187)" fill="#ffd863"/>
            <path id="Trazado_1296031" data-name="Trazado 1296031" d="M324.941,77.658a32.846,32.846,0,0,1,38.314,19.279c1.343,3.235,5.844,4.206,9.329,3.852a6.273,6.273,0,0,0,3.042-1.027,3.468,3.468,0,0,0,1.524-2.729c-.026-8.034-7.141-14.561-13.99-18.76a43.055,43.055,0,0,0-23.034-5.933C334.665,72.412,329.052,74.061,324.941,77.658Z" transform="translate(-298.406 -72.335)" fill="#ffd863"/>
            <path id="Trazado_1296032" data-name="Trazado 1296032" d="M353.342,164l.049,0a2.484,2.484,0,0,0,2.079-1.753,3.725,3.725,0,0,0-.182-2.545,9.836,9.836,0,0,0-1.205-1.987.586.586,0,0,0-.952.685l0,0a8.8,8.8,0,0,1,1.071,1.748,2.567,2.567,0,0,1,.152,1.737,1.342,1.342,0,0,1-1.062.946.586.586,0,0,0,.047,1.169Z" transform="translate(-301.365 -82.518)" fill="#d77b51"/>
            <path id="Trazado_1296033" data-name="Trazado 1296033" d="M359.6,177.482c-.14,0-.279,0-.418-.009a11.429,11.429,0,0,1-7.1-2.891.587.587,0,1,1,.786-.871,10.082,10.082,0,0,0,12.908.5.586.586,0,0,1,.715.93A11.441,11.441,0,0,1,359.6,177.482Z" transform="translate(-311.691 -84.442)" fill="#cf3645"/>
            <path id="Trazado_1296034" data-name="Trazado 1296034" d="M354.109,181.646c6.6,5.116,15.521,11.556,24.2,7.333.777-.378,1.461.784.681,1.164a17.158,17.158,0,0,1-13.394.21c-4.636-1.709-8.576-4.757-12.442-7.754C352.471,182.069,353.431,181.121,354.109,181.646Z" transform="translate(-325.226 -85.391)" fill="#d77b51"/>
            <path id="Trazado_1296035" data-name="Trazado 1296035" d="M374.2,104l15.431.661,7.716.33c1.937.083,4.992.288,5.664-2.1a.675.675,0,0,1,1.3.358c-.592,2.1-2.678,2.994-4.7,3.117a81.3,81.3,0,0,1-8.3-.288l-17.109-.732C373.333,105.312,373.327,103.963,374.2,104Z" transform="translate(-368.385 -75.933)" fill="#ffb81e"/>
            <path id="Trazado_1296036" data-name="Trazado 1296036" d="M331.222,117.51a286.441,286.441,0,0,1,51.674-3.517q7.346.169,14.677.718c.86.064.867,1.413,0,1.348a285.338,285.338,0,0,0-51.442.813q-7.3.779-14.55,1.939C330.732,118.945,330.366,117.646,331.222,117.51Z" transform="translate(-324.579 -77.309)" fill="#ffb81e"/>
            <path id="Trazado_1296037" data-name="Trazado 1296037" d="M373.34,96.057a7.844,7.844,0,0,1,8.1,2.645.7.7,0,0,1,0,.953.678.678,0,0,1-.953,0,6.53,6.53,0,0,0-6.788-2.3A.675.675,0,0,1,373.34,96.057Z" transform="translate(-345.076 -75.141)" fill="#ffecb5"/>
            <path id="Trazado_1296038" data-name="Trazado 1296038" d="M386.707,95.817l13.264.114a.674.674,0,0,1,0,1.348l-13.264-.114A.674.674,0,0,1,386.707,95.817Z" transform="translate(-375.683 -75.144)" fill="#ffecb5"/>
            <path id="Trazado_1296039" data-name="Trazado 1296039" d="M327.657,76.84A34.891,34.891,0,0,1,355.7,87.6a32.82,32.82,0,0,1,3.2,3.98c1.048,1.535,1.953,3.161,3.031,4.675a10.441,10.441,0,0,0,4.6,3.966,5.323,5.323,0,0,0,5.392-.558c.656-.562,1.614.387.953.953-2.585,2.213-6.4,1.6-8.977-.317-3.035-2.259-4.566-5.888-6.748-8.867a33.346,33.346,0,0,0-17.4-12.038,32.472,32.472,0,0,0-12.1-1.2C326.792,78.267,326.8,76.918,327.657,76.84Z" transform="translate(-296.178 -72.858)" fill="#ffb81e"/>
          </g>
          <g id="Grupo_1241633" data-name="Grupo 1241633" transform="translate(64.849 148.908)">
            <g id="Grupo_1241629" data-name="Grupo 1241629" transform="translate(52.025)">
              <path id="Trazado_1296040" data-name="Trazado 1296040" d="M286.265,346.759c7.618-9.933,7.968-23.117,6.713-35.049-1.363-12.956-4.4-26.055-1.573-39.037a34.271,34.271,0,0,1,8.51-16.738c.6-.624,1.558.33.953.953-8.358,8.62-9.888,21.37-9.121,32.83.885,13.23,4.417,26.368,2.647,39.68a37.5,37.5,0,0,1-6.965,18.041C286.909,348.119,285.737,347.448,286.265,346.759Z" transform="translate(-256.202 -213.52)" fill="#628212"/>
              <g id="Grupo_1241627" data-name="Grupo 1241627" transform="translate(0 35.428)">
                <path id="Trazado_1296041" data-name="Trazado 1296041" d="M332.31,290.11A47.234,47.234,0,0,0,308.173,250c-2.55-1.389-5.54-2.558-8.3-1.658-3.3,4.025-3.209,9.647-1.73,14.639C302.52,277.762,317,288.3,332.31,290.11Z" transform="translate(-297.161 -248.027)" fill="#b2db60"/>
                <path id="Trazado_1296042" data-name="Trazado 1296042" d="M301.386,261.612a134.049,134.049,0,0,0,19.288,25.308c.6.623-.348,1.578-.953.953a135.561,135.561,0,0,1-19.5-25.581A.675.675,0,0,1,301.386,261.612Z" transform="translate(-288.327 -249.613)" fill="#82a827"/>
              </g>
              <g id="Grupo_1241628" data-name="Grupo 1241628" transform="translate(37.028)">
                <path id="Trazado_1296043" data-name="Trazado 1296043" d="M249.111,258.924c12.038-.195,22.753-8.027,30.363-17.356,3.867-4.741,7.209-10.035,8.852-15.927s1.457-12.456-1.418-17.856c-12.141.518-24.541,6.556-31.771,16.324S246.058,247.162,249.111,258.924Z" transform="translate(-247.699 -207.785)" fill="#b2db60"/>
                <path id="Trazado_1296044" data-name="Trazado 1296044" d="M260.7,256.161a101.122,101.122,0,0,1,18.064-26.485q3.181-3.36,6.664-6.412c.65-.57,1.607.379.953.953A100.025,100.025,0,0,0,266.1,248.78q-2.3,3.931-4.235,8.061C261.5,257.626,260.332,256.942,260.7,256.161Z" transform="translate(-256.316 -209.615)" fill="#82a827"/>
              </g>
            </g>
            <g id="Grupo_1241630" data-name="Grupo 1241630" transform="translate(79.357 46.099)">
              <path id="Trazado_1296045" data-name="Trazado 1296045" d="M271.737,345.049a15.034,15.034,0,0,0,4.635-5.007,6.206,6.206,0,0,0-.331-6.51c-1.63-2.029-4.532-2.335-7.1-2.734s-5.517-1.411-6.272-3.9c-.689-2.275.916-4.7,2.961-5.912s4.463-1.575,6.735-2.273a14.506,14.506,0,0,0,7.887-5.306c1.82-2.668,2.239-6.43.451-9.12-1.63-2.453-4.811-3.774-5.822-6.54a6.769,6.769,0,0,1,1.385-6.3,21.1,21.1,0,0,1,5.184-4.257c4.077-2.7,8.2-5.654,10.683-9.866s2.912-10.021-.26-13.745c-2.9-3.4-8.074-4.165-12.315-2.769s-7.663,4.577-10.48,8.041-5.175,7.292-8.14,10.629c-1.763,1.983-4.114,3.916-6.746,3.582-3.815-.483-5.718-5.327-9.44-6.3-2.7-.7-5.572.956-7.147,3.261s-2.138,5.133-2.666,7.873q-1.343,6.966-2.685,13.933c-.534,2.775-1.674,6.152-4.478,6.509-2.984.379-5.163-3.1-8.148-3.468-3.675-.45-6.032,3.731-7.17,7.254a128.934,128.934,0,0,0-5.944,30.961c-.21,3.117-.274,6.4,1.122,9.192,2.609,5.224,9.34,6.908,15.167,6.524C239.591,357.695,257.953,355.527,271.737,345.049Z" transform="translate(-206.397 -260.147)" fill="#628212"/>
              <path id="Trazado_1296046" data-name="Trazado 1296046" d="M226.809,322.585a68.545,68.545,0,0,1,4.814,21.3q6.864-10.85,14.194-21.4,2.085-3,4.214-5.964a.576.576,0,0,1-.4-.61,51.209,51.209,0,0,0-3.257-20.693c-.307-.813,1-1.164,1.3-.358a52.2,52.2,0,0,1,3.323,20.3q7.475-10.4,15.393-20.477,6.071-7.723,12.4-15.239c.559-.665,1.509.293.953.953q-11.175,13.284-21.556,27.207-2.71,3.638-5.362,7.319l20.064-4.221c.846-.178,1.208,1.122.358,1.3l-21.573,4.539q-6.847,9.56-13.319,19.381-2.988,4.547-5.884,9.152a82.406,82.406,0,0,1,32.506-5.614c.865.026.869,1.375,0,1.348a81.43,81.43,0,0,0-33.7,6.19c-1.121,1.792-2.249,3.58-3.351,5.383-.452.74-1.618.063-1.164-.681,1.192-1.951,2.405-3.89,3.62-5.826a67.536,67.536,0,0,0-4.868-22.934C225.183,322.139,226.487,321.789,226.809,322.585Z" transform="translate(-208.965 -262.429)" fill="#b2db60"/>
            </g>
            <g id="Grupo_1241631" data-name="Grupo 1241631" transform="translate(0 44.136)">
              <path id="Trazado_1296047" data-name="Trazado 1296047" d="M381.575,304.16c-.724-2.7-1.66-5.482-3.659-7.439s-5.356-2.8-7.639-1.178c-1.918,1.358-2.687,4.079-4.831,5.043-2.024.909-4.484-.222-5.851-1.97s-1.923-3.973-2.562-6.1a61.942,61.942,0,0,0-8.2-17.137c-1.529-2.232-3.306-4.444-5.773-5.557s-5.781-.77-7.35,1.433c-1.222,1.716-1.245,4.249-2.926,5.518a4.4,4.4,0,0,1-4.889-.176,15.124,15.124,0,0,1-3.552-3.772,57.82,57.82,0,0,0-12.661-12.1c-3.036-2.123-7.16-3.957-10.262-1.932-2.781,1.816-3.114,5.756-2.637,9.043a31.993,31.993,0,0,0,5.99,14.467c1.416,1.9,3.066,3.676,3.953,5.87s.8,5.008-.95,6.6c-2.727,2.475-7.715.725-10.291,3.357-1.63,1.667-1.478,4.49-.287,6.494s3.18,3.379,5.108,4.691l11.232,7.642c2.292,1.559,4.674,3.218,5.945,5.68s.982,5.969-1.37,7.436c-1.817,1.134-4.454.868-5.812,2.524a4,4,0,0,0,.114,4.643,11.074,11.074,0,0,0,3.834,3.109,130.812,130.812,0,0,0,40.227,15.093c5.285,1.036,11.053,1.7,16.307.141,6.48-1.917,7.6-5.8,9.121-11.941A79.547,79.547,0,0,0,381.575,304.16Z" transform="translate(-296.282 -257.918)" fill="#b2db60"/>
              <path id="Trazado_1296048" data-name="Trazado 1296048" d="M323.44,278.816a158.415,158.415,0,0,1,23.738,25.958q1.373,1.884,2.688,3.811.835-8.262,1.667-16.522c.087-.864,1.421-.666,1.334.2l-1.8,17.861a.608.608,0,0,1-.056.179,160.015,160.015,0,0,1,13.633,25.014c.254.585.486,1.179.732,1.766l4.746-15.4c.254-.827,1.488-.278,1.234.543l-5.177,16.794a156.766,156.766,0,0,1,5.182,14.958c.24.828-1.009,1.337-1.251.5-1.4-4.829-3.049-9.583-4.906-14.253a.784.784,0,0,1-.244-.122c-.024,0-.043.008-.068.005a93.671,93.671,0,0,0-22.518-.187.675.675,0,0,1-.165-1.338,95.22,95.22,0,0,1,22.394.136,158.18,158.18,0,0,0-7.863-16.442q-3.431-6.216-7.424-12.1a76.655,76.655,0,0,0-20.657-2.421c-.86.018-1.033-1.321-.165-1.338a78.014,78.014,0,0,1,19.688,2.1,158.984,158.984,0,0,0-11.533-14.7A155.29,155.29,0,0,0,322.6,279.871C321.947,279.3,322.785,278.242,323.44,278.816Z" transform="translate(-306.402 -260.398)" fill="#82a827"/>
            </g>
            <g id="Grupo_1241632" data-name="Grupo 1241632" transform="translate(19.82 128.044)">
              <path id="Trazado_1296049" data-name="Trazado 1296049" d="M325.329,359.361a90.745,90.745,0,0,0-36.756-6.018,71.931,71.931,0,0,0-35.348,11.22c-8.136,5.317-15.271,12.877-17.835,22.251a12.55,12.55,0,0,0-.4,6.153c.6,2.541,2.4,4.614,4.273,6.437,12.456,12.148,29.968,17.685,47.181,20.224,10.057,1.483,28.578,4.506,38.094.93,7.241-2.721,10.5-7.762,16.527-12.613,4.516-3.634,3.966-9.63,8.482-13.264,2.775-2.234,8.344-5.09,7.4-9.359-1.764-7.945-11.567-15.275-17.992-19.3C334.6,363.305,329.992,361.435,325.329,359.361Z" transform="translate(-234.759 -353.225)" fill="#423c39"/>
              <path id="Trazado_1296050" data-name="Trazado 1296050" d="M261.132,356.685A89.305,89.305,0,0,1,313.76,367.5c.758.423.079,1.587-.681,1.164a87.971,87.971,0,0,0-51.948-10.629C260.27,358.123,260.277,356.775,261.132,356.685Z" transform="translate(-214.451 -353.582)" fill="#e8d1a7"/>
            </g>
          </g>
          <g id="Grupo_1241634" data-name="Grupo 1241634" transform="translate(185.049 299.615)">
            <path id="Trazado_1296051" data-name="Trazado 1296051" d="M228.179,385.089a7.216,7.216,0,0,0,4.162,2.612c1.711.489,7.416,1.062,7.416,1.062l2.5.4a4.738,4.738,0,0,1-.7,2.629l2.764-.261s3.345-3.017,3.674-4.567.4-3.261-.168-4.079-5.132-3.834-6.354-3.919a24.918,24.918,0,0,0-4.23.741c-2.393.54-5.123,1.255-6.379,1.711C228.583,382.241,227.445,383.867,228.179,385.089Z" transform="translate(-220.35 -378.967)" fill="#e8ac8f"/>
            <path id="Trazado_1296052" data-name="Trazado 1296052" d="M254.017,392.9s2.664,5.6,2.012,7.394-5.056,4.567-5.056,4.567a6,6,0,0,1-.326,4.4,15.61,15.61,0,0,1-4.241,4.4c-.652.326-.326,4.729-1.631,5.871a12.861,12.861,0,0,1-7.666,3.1c-3.262,0-6.85-2.936-6.85-2.936l5.056-12.884,7.5-9.785Z" transform="translate(-230.259 -380.634)" fill="#e8ac8f"/>
            <path id="Trazado_1296053" data-name="Trazado 1296053" d="M244,416.6a.686.686,0,0,1,.829-.471c.112.032.224.06.337.084a1.21,1.21,0,0,0,.293.053c-.1-.012-.107-.014-.032,0l.1.011.148.012q.161.011.322.011c.107,0,.215,0,.322-.01.049,0,.1-.007.148-.011l.1-.011.111-.017c.049-.009.1-.018.146-.028.114-.024.225-.052.337-.083a.674.674,0,0,1,.358,1.3,5.689,5.689,0,0,1-3.053-.005A.684.684,0,0,1,244,416.6Z" transform="translate(-234.213 -383.409)" fill="#d77b51"/>
            <path id="Trazado_1296054" data-name="Trazado 1296054" d="M238.443,405.975a16.137,16.137,0,0,0,1.763.033q.424-.016.845-.053c.141-.012.281-.027.422-.043l.14-.017.067-.009.033,0,.14-.02a.693.693,0,0,1,.829.471.682.682,0,0,1-.471.829,17.147,17.147,0,0,1-3.77.162.674.674,0,1,1,0-1.349Z" transform="translate(-223.437 -382.183)" fill="#d77b51"/>
          </g>
          <g id="Grupo_1241635" data-name="Grupo 1241635" transform="translate(1.59 145.958)">
            <path id="Trazado_1296055" data-name="Trazado 1296055" d="M270.915,326.133s.707,22.019,1.359,23.106,6.524,3.479,10.22,4.132,21.529,9.568,28.488,12.612,39.8,11.961,42.623,11.309,24.573-7.611,28.923-7.828,19.354-.435,22.181-.435,5.219-.435,5.219.652-1.3,3.479-6.089,5.436-13.266,1.087-13.266,1.087,10.656,3.262,14.788,4.567,14.788,2.175,15.223,3.044,0,2.827-1.3,4.349-3.7,3.479-6.959,2.827c0,0,.652,3.479-.217,5s-3.479,2.609-3.479,2.609a3.547,3.547,0,0,1,.217,3.7c-1.087,1.957-4.132,3.7-4.132,3.7a7.528,7.528,0,0,1-1.522,3.914c-1.522,2.175-4.784,3.262-7.611,3.262a91.724,91.724,0,0,1-22.616-4.567c-8.482-3.044-16.093-7.176-18.267-7.611s-54.583-7.393-63.717-9.351-35.447-9.786-38.057-11.09a16.246,16.246,0,0,1-6.524-6.741c-1.3-2.609-14.135-45.885-13.918-49.8s10.438-7.828,18.05-6.959S270.915,326.133,270.915,326.133Z" transform="translate(-213.367 -217.89)" fill="#e8ac8f"/>
            <path id="Trazado_1296056" data-name="Trazado 1296056" d="M309.242,351.595c28.048,10.576,55.64,23.04,85.366,28.186,1.115.193.642,1.89-.468,1.7-29.726-5.146-57.318-17.61-85.366-28.186C307.723,352.9,308.178,351.194,309.242,351.595Z" transform="translate(-254.511 -222.029)" fill="#d77b51"/>
            <path id="Trazado_1296057" data-name="Trazado 1296057" d="M402.712,328.847a212.778,212.778,0,0,1,1.35,22.135.881.881,0,0,1-1.761,0,212.552,212.552,0,0,0-1.35-22.135C400.824,327.723,402.586,327.731,402.712,328.847Z" transform="translate(-344.999 -219.215)" fill="#d77b51"/>
            <path id="Trazado_1296058" data-name="Trazado 1296058" d="M439.738,204.434s-12.612,5.491-18.648,16.908c-2.766,5.234-4.091,11.385-5.492,17.087-2.694,10.971-4.8,22.089-6.761,33.211-.872,4.955-5.652,32.646-6.478,38.046,25.4,9.007,56.732,4.3,57.547,2.991s-.326-51.539-1.957-64.424S450.557,209.87,439.738,204.434Z" transform="translate(-402.359 -204.434)" fill="#d77b51"/>
            <path id="Trazado_1296059" data-name="Trazado 1296059" d="M232.969,415.333a8.416,8.416,0,0,0,6.867-1.517,6.055,6.055,0,0,0,2.179-5.489,6.754,6.754,0,0,1-1.8.231.674.674,0,0,1,0-1.348,5.419,5.419,0,0,0,4.1-1.776,5.35,5.35,0,0,0,1.3-4.155A30.744,30.744,0,0,1,237.18,400a.675.675,0,0,1,.358-1.3c3.279.82,6.812,1.748,10.191.962,2.588-.6,5.083-2.24,5.924-4.866.263-.823,1.565-.471,1.3.358a9.049,9.049,0,0,1-6.39,5.686,11.83,11.83,0,0,1-1.633.326,6.788,6.788,0,0,1-1.594,5.145,6.425,6.425,0,0,1-2.042,1.546,7.343,7.343,0,0,1-2.506,6.917,8.339,8.339,0,0,1-1.777,1.137.616.616,0,0,1,.052.475,10.081,10.081,0,0,1-3.159,4.975.692.692,0,0,1-.953,0,.681.681,0,0,1,0-.953,8.744,8.744,0,0,0,1.741-1.976,9.482,9.482,0,0,0,.644-1.188,8.264,8.264,0,0,0,.308-.821,10.929,10.929,0,0,1-5.035.214C231.758,416.474,232.119,415.174,232.969,415.333Z" transform="translate(-47.298 -227.147)" fill="#d77b51"/>
          </g>
        </g>
      </g>
    </g>
  </g>
</svg>
