<svg xmlns="http://www.w3.org/2000/svg" xmlns:xlink="http://www.w3.org/1999/xlink" width="113" height="113" viewBox="0 0 113 113">
  <defs>
    <filter id="Trazado_982547" x="0" y="0" width="113" height="113" filterUnits="userSpaceOnUse">
      <feOffset dy="3" input="SourceAlpha"/>
      <feGaussianBlur stdDeviation="3" result="blur"/>
      <feFlood flood-opacity="0.161"/>
      <feComposite operator="in" in2="blur"/>
      <feComposite in="SourceGraphic"/>
    </filter>
  </defs>
  <g id="Grupo_1242257" data-name="Grupo 1242257" transform="translate(-796 -5611)">
    <g id="Grupo_1241801" data-name="Grupo 1241801" transform="translate(-419.8 2031.833)">
      <g id="Grupo_1241180" data-name="Grupo 1241180" transform="translate(545.31 -9104)">
        <g id="Grupo_1240427" data-name="Grupo 1240427" transform="translate(679.49 12689.167)">
          <g id="Grupo_1239780" data-name="Grupo 1239780" transform="translate(0 0)">
            <g id="Grupo_1236603" data-name="Grupo 1236603">
              <g id="Grupo_1236145" data-name="Grupo 1236145">
                <g id="Grupo_1235107" data-name="Grupo 1235107">
                  <g id="Grupo_1223796" data-name="Grupo 1223796">
                    <g id="Grupo_1208038" data-name="Grupo 1208038">
                      <g id="Grupo_1202104" data-name="Grupo 1202104">
                        <g id="Grupo_1201923" data-name="Grupo 1201923">
                          <g id="Grupo_1176928" data-name="Grupo 1176928" transform="translate(0)">
                            <g id="Grupo_1172322" data-name="Grupo 1172322">
                              <g id="Grupo_1164700" data-name="Grupo 1164700">
                                <g id="Grupo_1160931" data-name="Grupo 1160931">
                                  <g id="Grupo_1160749" data-name="Grupo 1160749">
                                    <g id="Grupo_1158891" data-name="Grupo 1158891">
                                      <g id="Grupo_1157406" data-name="Grupo 1157406">
                                        <g id="Grupo_1155793" data-name="Grupo 1155793">
                                          <g id="Grupo_1154704" data-name="Grupo 1154704">
                                            <g id="Grupo_1150790" data-name="Grupo 1150790">
                                              <g id="Grupo_1154214" data-name="Grupo 1154214" transform="translate(0)">
                                                <g id="Grupo_1152583" data-name="Grupo 1152583">
                                                  <g id="Grupo_1146973" data-name="Grupo 1146973">
                                                    <g id="Grupo_1146954" data-name="Grupo 1146954">
                                                      <g transform="matrix(1, 0, 0, 1, -9, -6)" filter="url(#Trazado_982547)">
                                                        <g id="Trazado_982547-2" data-name="Trazado 982547" transform="translate(9 6)" fill="#c4e3df">
                                                          <path d="M 47.50000762939453 93.49986267089844 C 41.28937911987305 93.49986267089844 35.26534271240234 92.28383636474609 29.59519386291504 89.88558197021484 C 24.11772727966309 87.56880950927734 19.19814109802246 84.25183868408203 14.97310066223145 80.02679443359375 C 10.74804782867432 75.8017578125 7.431074142456055 70.88218688964844 5.114300727844238 65.40471649169922 C 2.716034412384033 59.73458480834961 1.500007629394531 53.71054458618164 1.500007629394531 47.49993133544922 C 1.500007629394531 41.2893180847168 2.716034412384033 35.26527786254883 5.114300727844238 29.59514427185059 C 7.431074142456055 24.11767768859863 10.74804782867432 19.19810485839844 14.97310066223145 14.97306442260742 C 19.19814109802246 10.74802494049072 24.11772727966309 7.431051254272461 29.59519386291504 5.114277839660645 C 35.26534271240234 2.71602463722229 41.28937911987305 1.499997973442078 47.50000762939453 1.499997973442078 C 53.71063613891602 1.499997973442078 59.73467254638672 2.71602463722229 65.40482330322266 5.114277839660645 C 70.88228607177734 7.431051254272461 75.80187225341797 10.74802494049072 80.02691650390625 14.97306442260742 C 84.25196838378906 19.19810485839844 87.56893920898438 24.11767768859863 89.88571166992188 29.59514427185059 C 92.28398132324219 35.26527786254883 93.50000762939453 41.2893180847168 93.50000762939453 47.49993133544922 C 93.50000762939453 53.71054458618164 92.28398132324219 59.73458480834961 89.88571166992188 65.40471649169922 C 87.56893920898438 70.88218688964844 84.25196838378906 75.8017578125 80.02691650390625 80.02679443359375 C 75.80187225341797 84.25183868408203 70.88228607177734 87.56880950927734 65.40482330322266 89.88558197021484 C 59.73467254638672 92.28383636474609 53.71063613891602 93.49986267089844 47.50000762939453 93.49986267089844 Z" stroke="none"/>
                                                          <path d="M 47.50000762939453 2.999992370605469 C 41.4912223815918 2.999992370605469 35.66377639770508 4.1761474609375 30.17951202392578 6.495796203613281 C 24.88085174560547 8.736930847167969 20.12152862548828 11.94596099853516 16.03376007080078 16.03372955322266 C 11.94597625732422 20.12148284912109 8.736961364746094 24.88080596923828 6.495803833007812 30.17946624755859 C 4.176162719726562 35.66371536254883 3.000007629394531 41.49116134643555 3.000007629394531 47.49993133544922 C 3.000007629394531 53.50870132446289 4.176162719726562 59.33614730834961 6.495803833007812 64.82038879394531 C 8.736961364746094 70.11905670166016 11.94597625732422 74.87836456298828 16.03376007080078 78.96613311767578 C 20.12152862548828 83.05390167236328 24.88085174560547 86.26291656494141 30.17951202392578 88.50406646728516 C 35.66377639770508 90.82369995117188 41.4912223815918 91.99985504150391 47.50000762939453 91.99985504150391 C 53.50879287719727 91.99985504150391 59.33623886108398 90.82369995117188 64.82049560546875 88.50406646728516 C 70.11916351318359 86.26291656494141 74.87848663330078 83.05390167236328 78.96625518798828 78.96613311767578 C 83.05403900146484 74.87836456298828 86.26305389404297 70.11905670166016 88.50421142578125 64.82038879394531 C 90.8238525390625 59.33614730834961 92.00000762939453 53.50870132446289 92.00000762939453 47.49993133544922 C 92.00000762939453 41.49116134643555 90.8238525390625 35.66371536254883 88.50421142578125 30.17946624755859 C 86.26305389404297 24.88080596923828 83.05403900146484 20.12148284912109 78.96625518798828 16.03372955322266 C 74.87848663330078 11.94596099853516 70.11916351318359 8.736930847167969 64.82049560546875 6.495796203613281 C 59.33623886108398 4.1761474609375 53.50879287719727 2.999992370605469 47.50000762939453 2.999992370605469 M 47.50000762939453 -7.62939453125e-06 C 73.73352813720703 -7.62939453125e-06 95.00000762939453 21.26644134521484 95.00000762939453 47.49993133544922 C 95.00000762939453 73.73342132568359 73.73352813720703 94.99985504150391 47.50000762939453 94.99985504150391 C 21.26648712158203 94.99985504150391 7.62939453125e-06 73.73342132568359 7.62939453125e-06 47.49993133544922 C 7.62939453125e-06 21.26644134521484 21.26648712158203 -7.62939453125e-06 47.50000762939453 -7.62939453125e-06 Z" stroke="none" fill="#41a599"/>
                                                        </g>
                                                      </g>
                                                    </g>
                                                  </g>
                                                </g>
                                              </g>
                                            </g>
                                          </g>
                                        </g>
                                      </g>
                                    </g>
                                  </g>
                                </g>
                              </g>
                            </g>
                          </g>
                        </g>
                      </g>
                    </g>
                  </g>
                </g>
              </g>
            </g>
          </g>
        </g>
      </g>
    </g>
    <g id="analisis_2_" data-name="analisis (2)" transform="translate(821 5627.442)">
      <g id="Grupo_1242255" data-name="Grupo 1242255" transform="translate(0.91 7.468)">
        <g id="Grupo_1242253" data-name="Grupo 1242253" transform="translate(0 0)">
          <path id="Trazado_1296005" data-name="Trazado 1296005" d="M7.5,49.28V86.841a1.665,1.665,0,0,0,1.665,1.665h49.08a1.665,1.665,0,0,0,1.665-1.665V49.28a1.665,1.665,0,0,0-1.665-1.665H9.165A1.665,1.665,0,0,0,7.5,49.28Z" transform="translate(-7.5 -43.541)" fill="#ebeef2"/>
          <path id="Trazado_1296006" data-name="Trazado 1296006" d="M403.7,47.616h-3.015a1.665,1.665,0,0,1,1.665,1.665V86.842a1.665,1.665,0,0,1-1.665,1.665H403.7a1.665,1.665,0,0,0,1.665-1.665V49.281A1.665,1.665,0,0,0,403.7,47.616Z" transform="translate(-352.959 -43.542)" fill="#d1d6de"/>
          <g id="Grupo_1242252" data-name="Grupo 1242252" transform="translate(11.546 9.287)">
            <g id="Grupo_1242248" data-name="Grupo 1242248" transform="translate(0 11.674)">
              <circle id="Elipse_11575" data-name="Elipse 11575" cx="2.124" cy="2.124" r="2.124" fill="#5c9cee"/>
            </g>
            <g id="Grupo_1242249" data-name="Grupo 1242249" transform="translate(8.356 6.93)">
              <circle id="Elipse_11576" data-name="Elipse 11576" cx="2.124" cy="2.124" r="2.124" fill="#f2df33"/>
            </g>
            <g id="Grupo_1242250" data-name="Grupo 1242250" transform="translate(16.712 11.674)">
              <circle id="Elipse_11577" data-name="Elipse 11577" cx="2.124" cy="2.124" r="2.124" fill="#ed5575"/>
            </g>
            <g id="Grupo_1242251" data-name="Grupo 1242251" transform="translate(25.068)">
              <circle id="Elipse_11578" data-name="Elipse 11578" cx="2.124" cy="2.124" r="2.124" fill="#9fd479"/>
            </g>
          </g>
          <path id="Trazado_1296007" data-name="Trazado 1296007" d="M80.428,387.379v-2.914h34.7v2.914a1.16,1.16,0,0,1-1.16,1.16H81.588A1.16,1.16,0,0,1,80.428,387.379Z" transform="translate(-71.575 -339.5)" fill="#f2df33"/>
          <path id="Trazado_1296008" data-name="Trazado 1296008" d="M333.667,384.465v2.914a1.16,1.16,0,0,1-1.16,1.16h2.944a1.16,1.16,0,0,0,1.16-1.16v-2.914Z" transform="translate(-293.054 -339.5)" fill="#fcab29"/>
          <path id="Trazado_1296009" data-name="Trazado 1296009" d="M189.243,18.131v-2.7a1.374,1.374,0,0,1,1.374-1.374h5.538a1.374,1.374,0,0,1,1.374,1.374v2.7h-8.285Z" transform="translate(-167.181 -14.057)" fill="#f2df33"/>
          <path id="Trazado_1296010" data-name="Trazado 1296010" d="M224.721,14.058h-2.965a1.374,1.374,0,0,1,1.374,1.374v2.7h2.965v-2.7A1.374,1.374,0,0,0,224.721,14.058Z" transform="translate(-195.747 -14.058)" fill="#fcab29"/>
          <rect id="Rectángulo_424364" data-name="Rectángulo 424364" width="3.694" height="8.045" transform="translate(11.824 31.686)" fill="#48cfb7"/>
          <rect id="Rectángulo_424365" data-name="Rectángulo 424365" width="3.694" height="12.698" transform="translate(20.18 27.033)" fill="#48cfb7"/>
          <rect id="Rectángulo_424366" data-name="Rectángulo 424366" width="3.694" height="8.045" transform="translate(28.536 31.686)" fill="#48cfb7"/>
          <rect id="Rectángulo_424367" data-name="Rectángulo 424367" width="3.694" height="16.326" transform="translate(36.892 23.405)" fill="#48cfb7"/>
        </g>
        <g id="Grupo_1242254" data-name="Grupo 1242254" transform="translate(35.873 16.74)">
          <path id="Trazado_1296011" data-name="Trazado 1296011" d="M409.456,293.612l6.778,11.739a2.551,2.551,0,0,0,3.484.934h0a2.551,2.551,0,0,0,.934-3.484l-6.778-11.739Z" transform="translate(-396.535 -274.175)" fill="#ed5575"/>
          <path id="Trazado_1296012" data-name="Trazado 1296012" d="M413.874,291.06l-4.418,2.551,2.642,4.576a13.893,13.893,0,0,0,4.418-2.551Z" transform="translate(-396.535 -274.174)" fill="#cc3a60"/>
          <circle id="Elipse_11579" data-name="Elipse 11579" cx="10.989" cy="10.989" r="10.989" transform="translate(0 0)" fill="#f2df33"/>
          <circle id="Elipse_11580" data-name="Elipse 11580" cx="7.734" cy="7.734" r="7.734" transform="translate(3.255 3.255)" fill="#5c9cee"/>
        </g>
      </g>
      <g id="Grupo_1242256" data-name="Grupo 1242256" transform="translate(0 6.558)">
        <path id="Trazado_1296013" data-name="Trazado 1296013" d="M123.221,89.131a3.038,3.038,0,1,0-2.425-1.212l-4.986,6.968a3.026,3.026,0,0,0-3.011.663l-3.324-1.886a3.035,3.035,0,1,0-5.933,0l-3.324,1.886a3.03,3.03,0,1,0,.9,1.582l3.324-1.886a3.027,3.027,0,0,0,4.131,0l3.324,1.886a3.035,3.035,0,1,0,5.392-1.185l4.986-6.968A3.026,3.026,0,0,0,123.221,89.131Zm0-4.249a1.214,1.214,0,1,1-1.214,1.214A1.215,1.215,0,0,1,123.221,84.882Zm-25.068,14.1a1.214,1.214,0,1,1,1.214-1.214A1.215,1.215,0,0,1,98.152,98.984Zm8.356-4.745a1.214,1.214,0,1,1,1.214-1.214A1.215,1.215,0,0,1,106.509,94.239Zm8.356,4.745a1.214,1.214,0,1,1,1.214-1.214A1.215,1.215,0,0,1,114.865,98.984Z" transform="translate(-83.571 -73.774)"/>
        <path id="Trazado_1296014" data-name="Trazado 1296014" d="M50.839,81.007H2.575a.755.755,0,0,1-.754-.754V42.691a.755.755,0,0,1,.754-.754H6.867a.91.91,0,1,0,0-1.821H2.575A2.578,2.578,0,0,0,0,42.691V80.252a2.578,2.578,0,0,0,2.575,2.575H8.853v2a2.072,2.072,0,0,0,2.07,2.07h9.113l-4.29,8.376a.91.91,0,1,0,1.621.83L22.082,86.9H32.148l4.715,9.206a.91.91,0,1,0,1.621-.83L34.194,86.9h9.113a2.072,2.072,0,0,0,2.07-2.07v-2h5.461a.91.91,0,1,0,0-1.821Zm-7.282,3.825a.25.25,0,0,1-.249.249H10.923a.25.25,0,0,1-.249-.249v-2H43.557Z" transform="translate(0 -36.042)"/>
        <path id="Trazado_1296015" data-name="Trazado 1296015" d="M79.981,12.453h41.146a.755.755,0,0,1,.754.754v8.657a.91.91,0,1,0,1.821,0V13.207a2.578,2.578,0,0,0-2.575-2.575H101.641V8.842a2.287,2.287,0,0,0-2.284-2.284H93.819a2.287,2.287,0,0,0-2.284,2.284v1.79H79.981a.91.91,0,1,0,0,1.821Zm13.374-3.61a.464.464,0,0,1,.463-.463h5.538a.464.464,0,0,1,.463.463v1.79H93.356V8.842Z" transform="translate(-69.472 -6.558)"/>
        <path id="Trazado_1296016" data-name="Trazado 1296016" d="M98.312,267.576a.91.91,0,0,0-.91.91v8.045a.91.91,0,0,0,.91.91h3.694a.91.91,0,0,0,.91-.91v-8.045a.91.91,0,0,0-.91-.91Zm2.783,8.045H99.223V269.4H101.1Z" transform="translate(-85.578 -235.89)"/>
        <path id="Trazado_1296017" data-name="Trazado 1296017" d="M167.147,229.248a.91.91,0,0,0-.91.91v12.7a.91.91,0,0,0,.91.91h3.694a.91.91,0,0,0,.91-.91v-12.7a.91.91,0,0,0-.91-.91Zm2.783,12.7h-1.873V231.069h1.873Z" transform="translate(-146.057 -202.215)"/>
        <path id="Trazado_1296018" data-name="Trazado 1296018" d="M235.983,267.576a.91.91,0,0,0-.91.91v8.045a.91.91,0,0,0,.91.91h3.694a.91.91,0,0,0,.91-.91v-8.045a.91.91,0,0,0-.91-.91Zm2.783,8.045h-1.873V269.4h1.873Z" transform="translate(-206.537 -235.89)"/>
        <path id="Trazado_1296019" data-name="Trazado 1296019" d="M304.819,311.832a.91.91,0,0,0-.91.91v2.673a.91.91,0,0,0,.91.91h3.694a.91.91,0,0,0,0-1.821H305.73v-1.762A.91.91,0,0,0,304.819,311.832Z" transform="translate(-267.017 -274.774)"/>
        <path id="Trazado_1296020" data-name="Trazado 1296020" d="M321.346,173.553l-5.223-9.047a11.906,11.906,0,1,0-11.772,3.36,11.965,11.965,0,0,0,3.1.411,11.75,11.75,0,0,0,2.68-.31l5.222,9.047a3.461,3.461,0,1,0,5.994-3.461Zm-16.524-7.446a10.079,10.079,0,1,1,7.648-1.007A10.013,10.013,0,0,1,304.822,166.107Zm14.347,10.6a1.642,1.642,0,0,1-2.24-.6l-5.024-8.7a11.949,11.949,0,0,0,2.839-1.641l5.026,8.7a1.638,1.638,0,0,1-.6,2.24Z" transform="translate(-259.658 -127.732)"/>
        <path id="Trazado_1296021" data-name="Trazado 1296021" d="M339.2,182.455a8.616,8.616,0,0,0-.431-6.241.91.91,0,1,0-1.647.776,6.819,6.819,0,1,1-2.056-2.54.91.91,0,1,0,1.1-1.452,8.646,8.646,0,1,0,3.035,9.458Z" transform="translate(-283.175 -151.25)"/>
      </g>
    </g>
  </g>
</svg>
