<svg xmlns="http://www.w3.org/2000/svg" xmlns:xlink="http://www.w3.org/1999/xlink" width="113" height="113" viewBox="0 0 113 113">
  <defs>
    <filter id="Trazado_982547" x="0.001" y="0" width="113" height="113" filterUnits="userSpaceOnUse">
      <feOffset dy="3" input="SourceAlpha"/>
      <feGaussianBlur stdDeviation="3" result="blur"/>
      <feFlood flood-opacity="0.161"/>
      <feComposite operator="in" in2="blur"/>
      <feComposite in="SourceGraphic"/>
    </filter>
  </defs>
  <g id="Grupo_1242278" data-name="Grupo 1242278" transform="translate(-1772.638 -5586.433)">
    <g id="Grupo_1241863" data-name="Grupo 1241863" transform="translate(556.838 2007.266)">
      <g id="Grupo_1241180" data-name="Grupo 1241180" transform="translate(545.31 -9104)">
        <g id="Grupo_1240427" data-name="Grupo 1240427" transform="translate(679.49 12689.167)">
          <g id="Grupo_1239780" data-name="Grupo 1239780" transform="translate(0 0)">
            <g id="Grupo_1236603" data-name="Grupo 1236603">
              <g id="Grupo_1236145" data-name="Grupo 1236145">
                <g id="Grupo_1235107" data-name="Grupo 1235107">
                  <g id="Grupo_1223796" data-name="Grupo 1223796">
                    <g id="Grupo_1208038" data-name="Grupo 1208038">
                      <g id="Grupo_1202104" data-name="Grupo 1202104">
                        <g id="Grupo_1201923" data-name="Grupo 1201923">
                          <g id="Grupo_1176928" data-name="Grupo 1176928" transform="translate(0)">
                            <g id="Grupo_1172322" data-name="Grupo 1172322">
                              <g id="Grupo_1164700" data-name="Grupo 1164700">
                                <g id="Grupo_1160931" data-name="Grupo 1160931">
                                  <g id="Grupo_1160749" data-name="Grupo 1160749">
                                    <g id="Grupo_1158891" data-name="Grupo 1158891">
                                      <g id="Grupo_1157406" data-name="Grupo 1157406">
                                        <g id="Grupo_1155793" data-name="Grupo 1155793">
                                          <g id="Grupo_1154704" data-name="Grupo 1154704">
                                            <g id="Grupo_1150790" data-name="Grupo 1150790">
                                              <g id="Grupo_1154214" data-name="Grupo 1154214" transform="translate(0)">
                                                <g id="Grupo_1152583" data-name="Grupo 1152583">
                                                  <g id="Grupo_1146973" data-name="Grupo 1146973">
                                                    <g id="Grupo_1146954" data-name="Grupo 1146954">
                                                      <g transform="matrix(1, 0, 0, 1, -9, -6)" filter="url(#Trazado_982547)">
                                                        <g id="Trazado_982547-2" data-name="Trazado 982547" transform="translate(9 6)" fill="#c4e3df">
                                                          <path d="M 47.50000762939453 93.49986267089844 C 41.28937911987305 93.49986267089844 35.26534271240234 92.28383636474609 29.59519386291504 89.88558197021484 C 24.11772727966309 87.56880950927734 19.19814109802246 84.25183868408203 14.97310066223145 80.02679443359375 C 10.74804782867432 75.8017578125 7.431074142456055 70.88218688964844 5.114300727844238 65.40471649169922 C 2.716034412384033 59.73458480834961 1.500007629394531 53.71054458618164 1.500007629394531 47.49993133544922 C 1.500007629394531 41.2893180847168 2.716034412384033 35.26527786254883 5.114300727844238 29.59514427185059 C 7.431074142456055 24.11767768859863 10.74804782867432 19.19810485839844 14.97310066223145 14.97306442260742 C 19.19814109802246 10.74802494049072 24.11772727966309 7.431051254272461 29.59519386291504 5.114277839660645 C 35.26534271240234 2.71602463722229 41.28937911987305 1.499997973442078 47.50000762939453 1.499997973442078 C 53.71063613891602 1.499997973442078 59.73467254638672 2.71602463722229 65.40482330322266 5.114277839660645 C 70.88228607177734 7.431051254272461 75.80187225341797 10.74802494049072 80.02691650390625 14.97306442260742 C 84.25196838378906 19.19810485839844 87.56893920898438 24.11767768859863 89.88571166992188 29.59514427185059 C 92.28398132324219 35.26527786254883 93.50000762939453 41.2893180847168 93.50000762939453 47.49993133544922 C 93.50000762939453 53.71054458618164 92.28398132324219 59.73458480834961 89.88571166992188 65.40471649169922 C 87.56893920898438 70.88218688964844 84.25196838378906 75.8017578125 80.02691650390625 80.02679443359375 C 75.80187225341797 84.25183868408203 70.88228607177734 87.56880950927734 65.40482330322266 89.88558197021484 C 59.73467254638672 92.28383636474609 53.71063613891602 93.49986267089844 47.50000762939453 93.49986267089844 Z" stroke="none"/>
                                                          <path d="M 47.50000762939453 2.999992370605469 C 41.4912223815918 2.999992370605469 35.66377639770508 4.1761474609375 30.17951202392578 6.495796203613281 C 24.88085174560547 8.736930847167969 20.12152862548828 11.94596099853516 16.03376007080078 16.03372955322266 C 11.94597625732422 20.12148284912109 8.736961364746094 24.88080596923828 6.495803833007812 30.17946624755859 C 4.176162719726562 35.66371536254883 3.000007629394531 41.49116134643555 3.000007629394531 47.49993133544922 C 3.000007629394531 53.50870132446289 4.176162719726562 59.33614730834961 6.495803833007812 64.82038879394531 C 8.736961364746094 70.11905670166016 11.94597625732422 74.87836456298828 16.03376007080078 78.96613311767578 C 20.12152862548828 83.05390167236328 24.88085174560547 86.26291656494141 30.17951202392578 88.50406646728516 C 35.66377639770508 90.82369995117188 41.4912223815918 91.99985504150391 47.50000762939453 91.99985504150391 C 53.50879287719727 91.99985504150391 59.33623886108398 90.82369995117188 64.82049560546875 88.50406646728516 C 70.11916351318359 86.26291656494141 74.87848663330078 83.05390167236328 78.96625518798828 78.96613311767578 C 83.05403900146484 74.87836456298828 86.26305389404297 70.11905670166016 88.50421142578125 64.82038879394531 C 90.8238525390625 59.33614730834961 92.00000762939453 53.50870132446289 92.00000762939453 47.49993133544922 C 92.00000762939453 41.49116134643555 90.8238525390625 35.66371536254883 88.50421142578125 30.17946624755859 C 86.26305389404297 24.88080596923828 83.05403900146484 20.12148284912109 78.96625518798828 16.03372955322266 C 74.87848663330078 11.94596099853516 70.11916351318359 8.736930847167969 64.82049560546875 6.495796203613281 C 59.33623886108398 4.1761474609375 53.50879287719727 2.999992370605469 47.50000762939453 2.999992370605469 M 47.50000762939453 -7.62939453125e-06 C 73.73352813720703 -7.62939453125e-06 95.00000762939453 21.26644134521484 95.00000762939453 47.49993133544922 C 95.00000762939453 73.73342132568359 73.73352813720703 94.99985504150391 47.50000762939453 94.99985504150391 C 21.26648712158203 94.99985504150391 7.62939453125e-06 73.73342132568359 7.62939453125e-06 47.49993133544922 C 7.62939453125e-06 21.26644134521484 21.26648712158203 -7.62939453125e-06 47.50000762939453 -7.62939453125e-06 Z" stroke="none" fill="#41a599"/>
                                                        </g>
                                                      </g>
                                                    </g>
                                                  </g>
                                                </g>
                                              </g>
                                            </g>
                                          </g>
                                        </g>
                                      </g>
                                    </g>
                                  </g>
                                </g>
                              </g>
                            </g>
                          </g>
                        </g>
                      </g>
                    </g>
                  </g>
                </g>
              </g>
            </g>
          </g>
        </g>
      </g>
    </g>
    <g id="digital" transform="translate(1799.553 5609.84)">
      <g id="Grupo_1242276" data-name="Grupo 1242276" transform="translate(1.938 1.938)">
        <g id="Grupo_1242261" data-name="Grupo 1242261" transform="translate(0 48.799)">
          <path id="Trazado_1296029" data-name="Trazado 1296029" d="M58.3,54.01v3.753a3.752,3.752,0,0,1-3.753,3.753H5.753A3.752,3.752,0,0,1,2,57.763V54.01H22.642l1.877,3.753H35.777l1.877-3.753H58.3Z" transform="translate(-2 -54.01)" fill="#969faa"/>
        </g>
        <g id="Grupo_1242262" data-name="Grupo 1242262" transform="translate(3.753 26.271)">
          <path id="Trazado_1296030" data-name="Trazado 1296030" d="M6,30V52.518H54.789V30Z" transform="translate(-6 -30)" fill="#ccd1d9"/>
        </g>
        <g id="Grupo_1242263" data-name="Grupo 1242263" transform="translate(20.642 48.799)">
          <path id="Trazado_1296031" data-name="Trazado 1296031" d="M39.012,54.01l-1.877,3.753H25.877L24,54.01Z" transform="translate(-24 -54.01)" fill="#fcd770"/>
        </g>
        <g id="Grupo_1242264" data-name="Grupo 1242264" transform="translate(7.506 26.271)">
          <path id="Trazado_1296032" data-name="Trazado 1296032" d="M10,30V47.836a.935.935,0,0,0,.938.938H50.345a.935.935,0,0,0,.938-.938V30Z" transform="translate(-10 -30)" fill="#69d6f4"/>
        </g>
        <g id="Grupo_1242265" data-name="Grupo 1242265" transform="translate(11.259 31.901)">
          <path id="Trazado_1296033" data-name="Trazado 1296033" d="M14,36H25.259v9.383H14Z" transform="translate(-14 -36)" fill="#b4dd7f"/>
        </g>
        <g id="Grupo_1242266" data-name="Grupo 1242266" transform="translate(13.136)">
          <path id="Trazado_1296034" data-name="Trazado 1296034" d="M43.641,13.437A13.632,13.632,0,0,0,42.477,10.6l1.145-2.214L39.635,4.4,37.42,5.547a13.632,13.632,0,0,0-2.834-1.163L33.827,2H28.2l-.76,2.383A13.632,13.632,0,0,0,24.6,5.547L22.389,4.4,18.4,8.389,19.547,10.6a13.632,13.632,0,0,0-1.163,2.834L16,14.2v5.63l2.383.76a12.842,12.842,0,0,0,.769,2.055c.122.263.253.525.394.779l-.15.291L18.4,25.635l2.636,2.636,1.351,1.342L24.6,28.477a13.632,13.632,0,0,0,2.834,1.163l.76,2.383h5.63l.76-2.383a13.632,13.632,0,0,0,2.834-1.163l2.214,1.135,1.351-1.342,2.636-2.636-.995-1.923-.15-.291c.141-.253.272-.516.394-.779a12.842,12.842,0,0,0,.769-2.055l2.383-.76V14.2Z" transform="translate(-16 -2)" fill="#fcd770"/>
        </g>
        <g id="Grupo_1242267" data-name="Grupo 1242267" transform="translate(0 6.568)">
          <circle id="Elipse_11583" data-name="Elipse 11583" cx="1.877" cy="1.877" r="1.877" fill="#ff826e"/>
        </g>
        <g id="Grupo_1242268" data-name="Grupo 1242268" transform="translate(3.753 13.136)">
          <circle id="Elipse_11584" data-name="Elipse 11584" cx="1.877" cy="1.877" r="1.877" fill="#ff826e"/>
        </g>
        <g id="Grupo_1242269" data-name="Grupo 1242269" transform="translate(0 19.703)">
          <circle id="Elipse_11585" data-name="Elipse 11585" cx="1.877" cy="1.877" r="1.877" fill="#ff826e"/>
        </g>
        <g id="Grupo_1242270" data-name="Grupo 1242270" transform="translate(52.542 19.703)">
          <circle id="Elipse_11586" data-name="Elipse 11586" cx="1.877" cy="1.877" r="1.877" fill="#ff826e"/>
        </g>
        <g id="Grupo_1242271" data-name="Grupo 1242271" transform="translate(52.542 6.568)">
          <circle id="Elipse_11587" data-name="Elipse 11587" cx="1.877" cy="1.877" r="1.877" fill="#ff826e"/>
        </g>
        <g id="Grupo_1242272" data-name="Grupo 1242272" transform="translate(48.789 13.136)">
          <circle id="Elipse_11588" data-name="Elipse 11588" cx="1.877" cy="1.877" r="1.877" fill="#ff826e"/>
        </g>
        <g id="Grupo_1242273" data-name="Grupo 1242273" transform="translate(33.777 9.383)">
          <path id="Trazado_1296035" data-name="Trazado 1296035" d="M38,12h3.753V23.259H38Z" transform="translate(-38 -12)" fill="#ff826e"/>
        </g>
        <g id="Grupo_1242274" data-name="Grupo 1242274" transform="translate(26.271 5.63)">
          <path id="Trazado_1296036" data-name="Trazado 1296036" d="M30,8h3.753V23.012H30Z" transform="translate(-30 -8)" fill="#ff826e"/>
        </g>
        <g id="Grupo_1242275" data-name="Grupo 1242275" transform="translate(18.765 11.259)">
          <path id="Trazado_1296037" data-name="Trazado 1296037" d="M22,14h3.753v9.383H22Z" transform="translate(-22 -14)" fill="#ff826e"/>
        </g>
      </g>
      <g id="Grupo_1242277" data-name="Grupo 1242277" transform="translate(1 1)">
        <path id="Trazado_1296038" data-name="Trazado 1296038" d="M16.948,12.629l-2.565.823v2.56H10.457a2.815,2.815,0,1,0,0,1.877h3.926v2.56l2.565.822a14.089,14.089,0,0,0,.862,2.091l-1.231,2.392L21.527,30.7l2.392-1.231a14.071,14.071,0,0,0,2.091.862l.824,2.567h7l.822-2.565a14.03,14.03,0,0,0,2.091-.862L39.137,30.7l4.948-4.948-1.231-2.392a14.089,14.089,0,0,0,.862-2.091l2.566-.824v-2.56h3.926a2.815,2.815,0,1,0,0-1.877H46.283v-2.56l-2.565-.822a14.089,14.089,0,0,0-.862-2.091l1.231-2.392L39.138,3.2,36.747,4.429a14.054,14.054,0,0,0-2.091-.862L33.832,1h-7l-.822,2.565a14.013,14.013,0,0,0-2.091.862L21.528,3.2,16.58,8.145l1.231,2.392a14.045,14.045,0,0,0-.863,2.092Zm-9.133,5.26a.938.938,0,1,1,.938-.938A.939.939,0,0,1,7.815,17.889Zm45.036-1.877a.938.938,0,1,1-.938.938A.939.939,0,0,1,52.851,16.012Zm-14.073,12.4-2.059-1.059-.439.246a12.067,12.067,0,0,1-2.624,1.082l-.485.137-.707,2.211H28.2L27.5,28.814l-.485-.137a12.113,12.113,0,0,1-2.624-1.082l-.439-.246-2.059,1.059L18.874,25.4l.966-1.877H40.825l.966,1.877ZM23.765,21.642H21.889V14.136h1.877Zm7.506,0H29.395V8.506h1.877Zm7.506,0H36.9V12.259h1.877ZM18.607,13.627A12.206,12.206,0,0,1,19.687,11l.247-.439-1.06-2.059,3.014-3.013,2.059,1.059.44-.246A12.1,12.1,0,0,1,27.01,5.224l.485-.137L28.2,2.877h4.261l.707,2.211.485.137a12.144,12.144,0,0,1,2.624,1.082l.44.246,2.059-1.059,3.014,3.013-1.06,2.059.247.439a12.206,12.206,0,0,1,1.081,2.623l.137.485,2.211.707V19.08l-2.211.708-.137.485a12.39,12.39,0,0,1-.476,1.368h-.93V10.383h-5.63V21.642H33.148V6.63h-5.63V21.642H25.642V12.259h-5.63v9.383h-.931a12.587,12.587,0,0,1-.476-1.368l-.137-.485-2.21-.707V14.82l2.211-.708Z" transform="translate(-1.247 -1)"/>
        <path id="Trazado_1296039" data-name="Trazado 1296039" d="M47,57.014h1.877v1.877H47Z" transform="translate(-3.84 -4.459)"/>
        <path id="Trazado_1296040" data-name="Trazado 1296040" d="M55,57.014h1.877v1.877H55Z" transform="translate(-4.334 -4.459)"/>
        <path id="Trazado_1296041" data-name="Trazado 1296041" d="M51,57.014h1.877v1.877H51Z" transform="translate(-4.087 -4.459)"/>
        <path id="Trazado_1296042" data-name="Trazado 1296042" d="M55.419,30H53.542V51.593H6.63V30H4.753V51.593H1v4.691a4.7,4.7,0,0,0,4.691,4.691H54.48a4.7,4.7,0,0,0,4.691-4.691V51.593H55.419ZM36.074,53.469l-.938,1.877h-10.1L24.1,53.469ZM57.3,56.284A2.818,2.818,0,0,1,54.48,59.1H5.691a2.818,2.818,0,0,1-2.815-2.815V53.469H22l1.877,3.753H36.3l1.877-3.753H57.3Z" transform="translate(-1 -2.791)"/>
        <path id="Trazado_1296043" data-name="Trazado 1296043" d="M9,30V47.84a1.878,1.878,0,0,0,1.877,1.877H50.283A1.878,1.878,0,0,0,52.16,47.84V30H50.283V47.84H10.877V30Z" transform="translate(-1.494 -2.791)"/>
        <path id="Trazado_1296044" data-name="Trazado 1296044" d="M59.259,13.63a2.815,2.815,0,1,0-2.642-3.753H48v1.877h8.617A2.811,2.811,0,0,0,59.259,13.63Zm0-3.753a.938.938,0,1,1-.938.938A.939.939,0,0,1,59.259,9.877Z" transform="translate(-3.902 -1.432)"/>
        <path id="Trazado_1296045" data-name="Trazado 1296045" d="M59.259,22a2.811,2.811,0,0,0-2.642,1.877H48v1.877h8.617A2.81,2.81,0,1,0,59.259,22Zm0,3.753a.938.938,0,1,1,.938-.938A.939.939,0,0,1,59.259,25.753Z" transform="translate(-3.902 -2.297)"/>
        <path id="Trazado_1296046" data-name="Trazado 1296046" d="M3.815,13.63a2.811,2.811,0,0,0,2.642-1.877h8.617V9.877H6.457A2.81,2.81,0,1,0,3.815,13.63Zm0-3.753a.938.938,0,1,1-.938.938A.939.939,0,0,1,3.815,9.877Z" transform="translate(-1 -1.432)"/>
        <path id="Trazado_1296047" data-name="Trazado 1296047" d="M3.815,27.63a2.811,2.811,0,0,0,2.642-1.877h8.617V23.877H6.457A2.81,2.81,0,1,0,3.815,27.63Zm0-3.753a.938.938,0,1,1-.938.938A.939.939,0,0,1,3.815,23.877Z" transform="translate(-1 -2.297)"/>
        <path id="Trazado_1296048" data-name="Trazado 1296048" d="M13,35V46.259H26.136V35Zm11.259,9.383H14.877V36.877h9.383Z" transform="translate(-1.741 -3.099)"/>
        <path id="Trazado_1296049" data-name="Trazado 1296049" d="M29,37H49.642v1.877H29Z" transform="translate(-2.729 -3.223)"/>
        <path id="Trazado_1296050" data-name="Trazado 1296050" d="M49,41h1.876v1.877H49Z" transform="translate(-3.964 -3.47)"/>
        <path id="Trazado_1296051" data-name="Trazado 1296051" d="M29,41H45.889v1.877H29Z" transform="translate(-2.729 -3.47)"/>
        <path id="Trazado_1296052" data-name="Trazado 1296052" d="M29,45H49.642v1.877H29Z" transform="translate(-2.729 -3.717)"/>
      </g>
    </g>
  </g>
</svg>
