<svg xmlns="http://www.w3.org/2000/svg" xmlns:xlink="http://www.w3.org/1999/xlink" width="113" height="113" viewBox="0 0 113 113">
  <defs>
    <filter id="Trazado_982547" x="0.001" y="0" width="113" height="113" filterUnits="userSpaceOnUse">
      <feOffset dy="3" input="SourceAlpha"/>
      <feGaussianBlur stdDeviation="3" result="blur"/>
      <feFlood flood-opacity="0.161"/>
      <feComposite operator="in" in2="blur"/>
      <feComposite in="SourceGraphic"/>
    </filter>
  </defs>
  <g id="Grupo_1242296" data-name="Grupo 1242296" transform="translate(-2087.638 -5586.433)">
    <g id="Grupo_1241864" data-name="Grupo 1241864" transform="translate(871.838 2007.266)">
      <g id="Grupo_1241180" data-name="Grupo 1241180" transform="translate(545.31 -9104)">
        <g id="Grupo_1240427" data-name="Grupo 1240427" transform="translate(679.49 12689.167)">
          <g id="Grupo_1239780" data-name="Grupo 1239780" transform="translate(0 0)">
            <g id="Grupo_1236603" data-name="Grupo 1236603">
              <g id="Grupo_1236145" data-name="Grupo 1236145">
                <g id="Grupo_1235107" data-name="Grupo 1235107">
                  <g id="Grupo_1223796" data-name="Grupo 1223796">
                    <g id="Grupo_1208038" data-name="Grupo 1208038">
                      <g id="Grupo_1202104" data-name="Grupo 1202104">
                        <g id="Grupo_1201923" data-name="Grupo 1201923">
                          <g id="Grupo_1176928" data-name="Grupo 1176928" transform="translate(0)">
                            <g id="Grupo_1172322" data-name="Grupo 1172322">
                              <g id="Grupo_1164700" data-name="Grupo 1164700">
                                <g id="Grupo_1160931" data-name="Grupo 1160931">
                                  <g id="Grupo_1160749" data-name="Grupo 1160749">
                                    <g id="Grupo_1158891" data-name="Grupo 1158891">
                                      <g id="Grupo_1157406" data-name="Grupo 1157406">
                                        <g id="Grupo_1155793" data-name="Grupo 1155793">
                                          <g id="Grupo_1154704" data-name="Grupo 1154704">
                                            <g id="Grupo_1150790" data-name="Grupo 1150790">
                                              <g id="Grupo_1154214" data-name="Grupo 1154214" transform="translate(0)">
                                                <g id="Grupo_1152583" data-name="Grupo 1152583">
                                                  <g id="Grupo_1146973" data-name="Grupo 1146973">
                                                    <g id="Grupo_1146954" data-name="Grupo 1146954">
                                                      <g transform="matrix(1, 0, 0, 1, -9, -6)" filter="url(#Trazado_982547)">
                                                        <g id="Trazado_982547-2" data-name="Trazado 982547" transform="translate(9 6)" fill="#c4e3df">
                                                          <path d="M 47.50000762939453 93.49986267089844 C 41.28937911987305 93.49986267089844 35.26534271240234 92.28383636474609 29.59519386291504 89.88558197021484 C 24.11772727966309 87.56880950927734 19.19814109802246 84.25183868408203 14.97310066223145 80.02679443359375 C 10.74804782867432 75.8017578125 7.431074142456055 70.88218688964844 5.114300727844238 65.40471649169922 C 2.716034412384033 59.73458480834961 1.500007629394531 53.71054458618164 1.500007629394531 47.49993133544922 C 1.500007629394531 41.2893180847168 2.716034412384033 35.26527786254883 5.114300727844238 29.59514427185059 C 7.431074142456055 24.11767768859863 10.74804782867432 19.19810485839844 14.97310066223145 14.97306442260742 C 19.19814109802246 10.74802494049072 24.11772727966309 7.431051254272461 29.59519386291504 5.114277839660645 C 35.26534271240234 2.71602463722229 41.28937911987305 1.499997973442078 47.50000762939453 1.499997973442078 C 53.71063613891602 1.499997973442078 59.73467254638672 2.71602463722229 65.40482330322266 5.114277839660645 C 70.88228607177734 7.431051254272461 75.80187225341797 10.74802494049072 80.02691650390625 14.97306442260742 C 84.25196838378906 19.19810485839844 87.56893920898438 24.11767768859863 89.88571166992188 29.59514427185059 C 92.28398132324219 35.26527786254883 93.50000762939453 41.2893180847168 93.50000762939453 47.49993133544922 C 93.50000762939453 53.71054458618164 92.28398132324219 59.73458480834961 89.88571166992188 65.40471649169922 C 87.56893920898438 70.88218688964844 84.25196838378906 75.8017578125 80.02691650390625 80.02679443359375 C 75.80187225341797 84.25183868408203 70.88228607177734 87.56880950927734 65.40482330322266 89.88558197021484 C 59.73467254638672 92.28383636474609 53.71063613891602 93.49986267089844 47.50000762939453 93.49986267089844 Z" stroke="none"/>
                                                          <path d="M 47.50000762939453 2.999992370605469 C 41.4912223815918 2.999992370605469 35.66377639770508 4.1761474609375 30.17951202392578 6.495796203613281 C 24.88085174560547 8.736930847167969 20.12152862548828 11.94596099853516 16.03376007080078 16.03372955322266 C 11.94597625732422 20.12148284912109 8.736961364746094 24.88080596923828 6.495803833007812 30.17946624755859 C 4.176162719726562 35.66371536254883 3.000007629394531 41.49116134643555 3.000007629394531 47.49993133544922 C 3.000007629394531 53.50870132446289 4.176162719726562 59.33614730834961 6.495803833007812 64.82038879394531 C 8.736961364746094 70.11905670166016 11.94597625732422 74.87836456298828 16.03376007080078 78.96613311767578 C 20.12152862548828 83.05390167236328 24.88085174560547 86.26291656494141 30.17951202392578 88.50406646728516 C 35.66377639770508 90.82369995117188 41.4912223815918 91.99985504150391 47.50000762939453 91.99985504150391 C 53.50879287719727 91.99985504150391 59.33623886108398 90.82369995117188 64.82049560546875 88.50406646728516 C 70.11916351318359 86.26291656494141 74.87848663330078 83.05390167236328 78.96625518798828 78.96613311767578 C 83.05403900146484 74.87836456298828 86.26305389404297 70.11905670166016 88.50421142578125 64.82038879394531 C 90.8238525390625 59.33614730834961 92.00000762939453 53.50870132446289 92.00000762939453 47.49993133544922 C 92.00000762939453 41.49116134643555 90.8238525390625 35.66371536254883 88.50421142578125 30.17946624755859 C 86.26305389404297 24.88080596923828 83.05403900146484 20.12148284912109 78.96625518798828 16.03372955322266 C 74.87848663330078 11.94596099853516 70.11916351318359 8.736930847167969 64.82049560546875 6.495796203613281 C 59.33623886108398 4.1761474609375 53.50879287719727 2.999992370605469 47.50000762939453 2.999992370605469 M 47.50000762939453 -7.62939453125e-06 C 73.73352813720703 -7.62939453125e-06 95.00000762939453 21.26644134521484 95.00000762939453 47.49993133544922 C 95.00000762939453 73.73342132568359 73.73352813720703 94.99985504150391 47.50000762939453 94.99985504150391 C 21.26648712158203 94.99985504150391 7.62939453125e-06 73.73342132568359 7.62939453125e-06 47.49993133544922 C 7.62939453125e-06 21.26644134521484 21.26648712158203 -7.62939453125e-06 47.50000762939453 -7.62939453125e-06 Z" stroke="none" fill="#41a599"/>
                                                        </g>
                                                      </g>
                                                    </g>
                                                  </g>
                                                </g>
                                              </g>
                                            </g>
                                          </g>
                                        </g>
                                      </g>
                                    </g>
                                  </g>
                                </g>
                              </g>
                            </g>
                          </g>
                        </g>
                      </g>
                    </g>
                  </g>
                </g>
              </g>
            </g>
          </g>
        </g>
      </g>
    </g>
    <g id="obediente_16_" data-name="obediente (16)" transform="translate(2109.939 5608.533)">
      <path id="Trazado_1296053" data-name="Trazado 1296053" d="M45.511,72.934h9.611V63.646a.574.574,0,0,0-.574-.574H45.568v4.606a.46.46,0,0,1-.459.459H25.265a.46.46,0,0,1-.459-.459V63.072h-8.98a.574.574,0,0,0-.574.574v49.545a.574.574,0,0,0,.574.574H54.548a.574.574,0,0,0,.574-.574v-7.166H45.511a.344.344,0,0,1-.345-.345v-32.4A.345.345,0,0,1,45.511,72.934Z" transform="translate(-6.639 -55.829)" fill="#ca6e59"/>
      <path id="Trazado_1296054" data-name="Trazado 1296054" d="M21.079,113.191v-2.644H18.814a.344.344,0,0,1-.345-.345V66.635a.345.345,0,0,1,.345-.345h2.265V63.646a.574.574,0,0,1,.574-.574H15.825a.574.574,0,0,0-.574.574v49.545a.574.574,0,0,0,.574.574h5.828A.574.574,0,0,1,21.079,113.191Z" transform="translate(-6.639 -55.829)" fill="#bb5d4c"/>
      <path id="Trazado_1296055" data-name="Trazado 1296055" d="M144.879,13.033a6.649,6.649,0,0,0-13.11,0Z" transform="translate(-109.776 -6.639)" fill="#e8b800"/>
      <path id="Trazado_1296056" data-name="Trazado 1296056" d="M135.585,13.033a6.658,6.658,0,0,1,4.647-5.254,6.651,6.651,0,0,0-8.464,5.254Z" transform="translate(-109.776 -6.639)" fill="#d7aa02"/>
      <path id="Trazado_1296057" data-name="Trazado 1296057" d="M70.316,97.739h6.393v-6.3a.344.344,0,0,0-.345-.345H70.373v1.388a.46.46,0,0,1-.459.459H50.07a.46.46,0,0,1-.459-.459V91.1H43.618a.344.344,0,0,0-.345.345v43.568a.344.344,0,0,0,.345.345H76.365a.344.344,0,0,0,.345-.345V130.83H70.316a.345.345,0,0,1-.345-.345v-32.4A.345.345,0,0,1,70.316,97.739Z" transform="translate(-31.444 -80.634)" fill="#fff3de"/>
      <g id="Grupo_1242279" data-name="Grupo 1242279" transform="translate(11.83 10.461)">
        <path id="Trazado_1296058" data-name="Trazado 1296058" d="M47.147,135.008V91.44a.344.344,0,0,1,.345-.345H43.619a.344.344,0,0,0-.345.345v43.568a.344.344,0,0,0,.345.345h3.873A.344.344,0,0,1,47.147,135.008Z" transform="translate(-43.274 -91.095)" fill="#ffe5c2"/>
      </g>
      <g id="Grupo_1242280" data-name="Grupo 1242280" transform="translate(18.052 6.395)">
        <path id="Trazado_1296059" data-name="Trazado 1296059" d="M117.87,55.683H98.026a.574.574,0,0,0-.574.574v4.881a.574.574,0,0,0,.574.574H117.87a.574.574,0,0,0,.574-.574V56.257A.574.574,0,0,0,117.87,55.683Z" transform="translate(-97.452 -55.683)" fill="#fac600"/>
      </g>
      <g id="Grupo_1242281" data-name="Grupo 1242281" transform="translate(18.052 6.395)">
        <path id="Trazado_1296060" data-name="Trazado 1296060" d="M101.329,61.139V56.258a.574.574,0,0,1,.574-.574H98.026a.574.574,0,0,0-.574.574v4.881a.574.574,0,0,0,.574.574H101.9A.574.574,0,0,1,101.329,61.139Z" transform="translate(-97.452 -55.684)" fill="#e8b800"/>
      </g>
      <g id="Grupo_1242288" data-name="Grupo 1242288" transform="translate(16.802 26.74)">
        <g id="Grupo_1242283" data-name="Grupo 1242283">
          <g id="Grupo_1242282" data-name="Grupo 1242282">
            <path id="Trazado_1296061" data-name="Trazado 1296061" d="M90.831,237.461H86.908a.344.344,0,0,1-.345-.345v-3.924a.344.344,0,0,1,.345-.345h3.924a.344.344,0,0,1,.345.345v3.924A.344.344,0,0,1,90.831,237.461Z" transform="translate(-86.563 -232.848)" fill="#fff"/>
          </g>
        </g>
        <g id="Grupo_1242285" data-name="Grupo 1242285" transform="translate(0 8.957)">
          <g id="Grupo_1242284" data-name="Grupo 1242284">
            <path id="Trazado_1296062" data-name="Trazado 1296062" d="M90.831,315.459H86.908a.344.344,0,0,1-.345-.345v-3.924a.344.344,0,0,1,.345-.345h3.924a.344.344,0,0,1,.345.345v3.924A.344.344,0,0,1,90.831,315.459Z" transform="translate(-86.563 -310.846)" fill="#fff"/>
          </g>
        </g>
        <g id="Grupo_1242287" data-name="Grupo 1242287" transform="translate(0 17.914)">
          <g id="Grupo_1242286" data-name="Grupo 1242286">
            <path id="Trazado_1296063" data-name="Trazado 1296063" d="M90.831,393.456H86.908a.344.344,0,0,1-.345-.345v-3.924a.344.344,0,0,1,.345-.345h3.924a.344.344,0,0,1,.345.345v3.924A.344.344,0,0,1,90.831,393.456Z" transform="translate(-86.563 -388.843)" fill="#fff"/>
          </g>
        </g>
      </g>
      <g id="Grupo_1242292" data-name="Grupo 1242292" transform="translate(38.528 17.105)">
        <g id="Grupo_1242289" data-name="Grupo 1242289">
          <path id="Trazado_1296064" data-name="Trazado 1296064" d="M275.75,149.292v32.4a.345.345,0,0,0,.345.345h20.4a.344.344,0,0,0,.244-.1l4.288-4.288a.344.344,0,0,0,.1-.244V149.292a.345.345,0,0,0-.345-.345h-24.69A.345.345,0,0,0,275.75,149.292Z" transform="translate(-275.75 -148.947)" fill="#dff6fd"/>
        </g>
        <g id="Grupo_1242290" data-name="Grupo 1242290" transform="translate(0 0)">
          <path id="Trazado_1296065" data-name="Trazado 1296065" d="M279.569,181.694v-32.4a.345.345,0,0,1,.345-.345h-3.819a.345.345,0,0,0-.345.345v32.4a.345.345,0,0,0,.345.345h3.819A.345.345,0,0,1,279.569,181.694Z" transform="translate(-275.75 -148.947)" fill="#c8effe"/>
        </g>
        <g id="Grupo_1242291" data-name="Grupo 1242291" transform="translate(20.889 28.601)">
          <path id="Trazado_1296066" data-name="Trazado 1296066" d="M462.108,398H457.65v4.458a.342.342,0,0,0,.1-.069l4.288-4.288A.344.344,0,0,0,462.108,398Z" transform="translate(-457.65 -397.996)" fill="#01d0fb"/>
        </g>
      </g>
      <g id="Grupo_1242293" data-name="Grupo 1242293" transform="translate(44.288 20.249)">
        <path id="Trazado_1296067" data-name="Trazado 1296067" d="M332.548,176.489l-6.584,10.491a.345.345,0,0,0,.292.528h13.169a.345.345,0,0,0,.292-.528l-6.584-10.491A.345.345,0,0,0,332.548,176.489Z" transform="translate(-325.91 -176.328)" fill="#fac600"/>
      </g>
      <g id="Grupo_1242294" data-name="Grupo 1242294" transform="translate(44.288 20.249)">
        <path id="Trazado_1296068" data-name="Trazado 1296068" d="M329.8,186.98l4.958-7.9-1.627-2.592a.344.344,0,0,0-.584,0l-6.584,10.491a.345.345,0,0,0,.292.528h3.837A.345.345,0,0,1,329.8,186.98Z" transform="translate(-325.91 -176.328)" fill="#e8b800"/>
      </g>
      <g id="Grupo_1242295" data-name="Grupo 1242295" transform="translate(7.751 0)">
        <path id="Trazado_1296069" data-name="Trazado 1296069" d="M84.192,225.348H80.269a1.207,1.207,0,0,0-1.206,1.206v3.924a1.207,1.207,0,0,0,1.206,1.206h3.924a1.207,1.207,0,0,0,1.206-1.206v-3.924A1.207,1.207,0,0,0,84.192,225.348Zm-.517,4.613h-2.89v-2.89h2.89Z" transform="translate(-70.874 -199.469)"/>
        <path id="Trazado_1296070" data-name="Trazado 1296070" d="M84.192,303.345H80.269a1.207,1.207,0,0,0-1.206,1.206v3.924a1.207,1.207,0,0,0,1.206,1.206h3.924a1.207,1.207,0,0,0,1.206-1.206v-3.924A1.207,1.207,0,0,0,84.192,303.345Zm-.517,4.613h-2.89v-2.89h2.89Z" transform="translate(-70.874 -268.509)"/>
        <path id="Trazado_1296071" data-name="Trazado 1296071" d="M84.192,381.343H80.269a1.207,1.207,0,0,0-1.206,1.206v3.924a1.207,1.207,0,0,0,1.206,1.206h3.924a1.207,1.207,0,0,0,1.206-1.206v-3.924a1.207,1.207,0,0,0-1.206-1.206Zm-.517,4.613h-2.89v-2.89h2.89Z" transform="translate(-70.874 -337.549)"/>
        <path id="Trazado_1296072" data-name="Trazado 1296072" d="M91.735,140.491a.861.861,0,0,0-1.2.233l-2.649,3.93-1.2-1.606a.861.861,0,0,0-1.378,1.034l1.931,2.574a.861.861,0,0,0,.689.345h.022a.861.861,0,0,0,.692-.38l3.325-4.935A.861.861,0,0,0,91.735,140.491Z" transform="translate(-76.249 -124.227)"/>
        <path id="Trazado_1296073" data-name="Trazado 1296073" d="M146.372,75.294a.861.861,0,0,0-.861-.861H134.569a.861.861,0,1,0,0,1.723h10.942A.861.861,0,0,0,146.372,75.294Z" transform="translate(-119.243 -65.885)"/>
        <path id="Trazado_1296074" data-name="Trazado 1296074" d="M63.908,23.714a.861.861,0,0,0,.861-.861v-5.4a1.207,1.207,0,0,0-1.206-1.206H49.345V7.817A1.437,1.437,0,0,0,47.91,6.382H39.778a1.437,1.437,0,0,0-1.309-.849H35.793a7.509,7.509,0,0,0-14.489,0H18.626a1.436,1.436,0,0,0-1.309.849H9.187A1.437,1.437,0,0,0,7.751,7.817V57.363A1.437,1.437,0,0,0,9.187,58.8H47.91a1.437,1.437,0,0,0,1.436-1.436V51.057h9.929a1.2,1.2,0,0,0,.853-.353l4.288-4.288a1.2,1.2,0,0,0,.353-.853V26.873a.861.861,0,0,0-1.723,0V44.845H59.417a.861.861,0,0,0-.861.861v3.629H39.389V17.966H63.046v4.887a.861.861,0,0,0,.861.861ZM60.279,46.567h1.55l-1.55,1.55ZM47.623,16.244h-1.5V10.806A1.207,1.207,0,0,0,44.921,9.6H39.905V8.1h7.717ZM28.548,1.723a5.8,5.8,0,0,1,5.438,3.811H23.11A5.8,5.8,0,0,1,28.548,1.723ZM38.873,16.244a1.207,1.207,0,0,0-1.206,1.206v.706H25.293a.861.861,0,1,0,0,1.723H37.667v1.174H25.293a.861.861,0,0,0,0,1.723H37.667v4.338H25.293a.861.861,0,1,0,0,1.723H37.667v1.174H25.293a.861.861,0,0,0,0,1.723H37.667V36.07H25.293a.861.861,0,0,0,0,1.723H37.667v1.174H25.293a.861.861,0,1,0,0,1.723H37.667v4.338H25.293a.861.861,0,1,0,0,1.723H37.667v1.174H25.293a.861.861,0,0,0,0,1.723H37.667v.206a1.207,1.207,0,0,0,1.206,1.206H44.4v2.8H21.446a.861.861,0,1,0,0,1.723H44.921a1.207,1.207,0,0,0,1.206-1.206V51.058h1.5v6.018H9.474V8.1h7.717V9.6H12.175a1.207,1.207,0,0,0-1.206,1.206V54.374a1.207,1.207,0,0,0,1.206,1.206h5.251a.861.861,0,1,0,0-1.723H12.692V11.323h4.5v.527a1.437,1.437,0,0,0,1.435,1.436H30.059a.861.861,0,1,0,0-1.723H18.913V7.256H38.183v4.306h-4.1a.861.861,0,1,0,0,1.723H38.47a1.437,1.437,0,0,0,1.436-1.436v-.527h4.5v4.921H38.873Z" transform="translate(-7.751 0)"/>
        <path id="Trazado_1296075" data-name="Trazado 1296075" d="M333.777,303.372H320.111a.861.861,0,1,0,0,1.723h13.666a.861.861,0,1,0,0-1.723Z" transform="translate(-283.477 -268.533)"/>
        <path id="Trazado_1296076" data-name="Trazado 1296076" d="M333.777,330.572H320.111a.861.861,0,0,0,0,1.723h13.666a.861.861,0,1,0,0-1.723Z" transform="translate(-283.477 -292.609)"/>
        <path id="Trazado_1296077" data-name="Trazado 1296077" d="M334.639,358.632a.861.861,0,0,0-.861-.861H320.111a.861.861,0,0,0,0,1.723h13.666A.861.861,0,0,0,334.639,358.632Z" transform="translate(-283.477 -316.685)"/>
        <path id="Trazado_1296078" data-name="Trazado 1296078" d="M320.111,384.972a.861.861,0,0,0,0,1.723h10.542a.861.861,0,0,0,0-1.723Z" transform="translate(-283.477 -340.762)"/>
        <path id="Trazado_1296079" data-name="Trazado 1296079" d="M333.811,179.884l-6.584-10.491a1.206,1.206,0,0,0-2.043,0L318.6,179.884a1.206,1.206,0,0,0,1.021,1.847h13.169a1.206,1.206,0,0,0,1.022-1.847Zm-13.256.124,5.65-9,5.65,9Z" transform="translate(-282.738 -149.44)"/>
        <path id="Trazado_1296080" data-name="Trazado 1296080" d="M378.75,207.044v2.39a.861.861,0,0,0,1.723,0v-2.39a.861.861,0,1,0-1.723,0Z" transform="translate(-336.144 -182.505)"/>
        <circle id="Elipse_11589" data-name="Elipse 11589" cx="0.861" cy="0.861" r="0.861" transform="translate(42.606 28.171)"/>
      </g>
    </g>
  </g>
</svg>
