<svg xmlns="http://www.w3.org/2000/svg" xmlns:xlink="http://www.w3.org/1999/xlink" width="108" height="108" viewBox="0 0 108 108">
  <defs>
    <filter id="Trazado_904820" x="0" y="0" width="108" height="108" filterUnits="userSpaceOnUse">
      <feOffset dy="3" input="SourceAlpha"/>
      <feGaussianBlur stdDeviation="3" result="blur"/>
      <feFlood flood-opacity="0.161"/>
      <feComposite operator="in" in2="blur"/>
      <feComposite in="SourceGraphic"/>
    </filter>
  </defs>
  <g id="Grupo_1241339" data-name="Grupo 1241339" transform="translate(-200 -599)">
    <g id="Grupo_1235143" data-name="Grupo 1235143" transform="translate(209 605)">
      <g id="Grupo_1233960" data-name="Grupo 1233960" transform="translate(0 0)">
        <g id="Grupo_1233818" data-name="Grupo 1233818" transform="translate(0)">
          <g id="Grupo_1174993" data-name="Grupo 1174993">
            <g id="Grupo_1173585" data-name="Grupo 1173585">
              <g id="Grupo_1173428" data-name="Grupo 1173428">
                <g id="Grupo_1171958" data-name="Grupo 1171958">
                  <g id="Grupo_1167341" data-name="Grupo 1167341">
                    <g id="Grupo_1166792" data-name="Grupo 1166792">
                      <g transform="matrix(1, 0, 0, 1, -9, -6)" filter="url(#Trazado_904820)">
                        <g id="Trazado_904820-2" data-name="Trazado 904820" transform="translate(9 6)" fill="#fef7ea">
                          <path d="M 44.99999618530273 88.50003051757812 C 39.12687301635742 88.50003051757812 33.43022155761719 87.35010528564453 28.06829643249512 85.08219146728516 C 22.88852119445801 82.89134216308594 18.23629570007324 79.75461578369141 14.24084663391113 75.75916290283203 C 10.24540901184082 71.76371765136719 7.108683586120605 67.11148834228516 4.917821407318115 61.93171691894531 C 2.649921178817749 56.56978988647461 1.499996185302734 50.87313842773438 1.499996185302734 45.00001525878906 C 1.499996185302734 39.12689208984375 2.649921178817749 33.43024063110352 4.917821407318115 28.06830215454102 C 7.108683586120605 22.88852691650391 10.24540901184082 18.23631477355957 14.24084663391113 14.24086570739746 C 18.23629570007324 10.24541568756104 22.88852119445801 7.10869026184082 28.06829643249512 4.917827606201172 C 33.43022155761719 2.649927854537964 39.12687301635742 1.50000274181366 44.99999618530273 1.50000274181366 C 50.87311935424805 1.50000274181366 56.56977081298828 2.649927854537964 61.93169784545898 4.917827606201172 C 67.11147308349609 7.10869026184082 71.76369476318359 10.24541568756104 75.75914764404297 14.24086570739746 C 79.75458526611328 18.23631477355957 82.89131164550781 22.88852691650391 85.08216857910156 28.06830215454102 C 87.35007476806641 33.43024063110352 88.5 39.12689208984375 88.5 45.00001525878906 C 88.5 50.87313842773438 87.35007476806641 56.56978988647461 85.08216857910156 61.93171691894531 C 82.89131164550781 67.11148834228516 79.75458526611328 71.76371765136719 75.75914764404297 75.75916290283203 C 71.76369476318359 79.75461578369141 67.11147308349609 82.89134216308594 61.93169784545898 85.08219146728516 C 56.56977081298828 87.35010528564453 50.87311935424805 88.50003051757812 44.99999618530273 88.50003051757812 Z" stroke="none"/>
                          <path d="M 44.99999618530273 3 C 39.32870864868164 3 33.82865142822266 4.110061645507812 28.65262603759766 6.299346923828125 C 23.65165710449219 8.414573669433594 19.15968322753906 11.44334411621094 15.301513671875 15.301513671875 C 11.44333648681641 19.15968322753906 8.414566040039062 23.65165710449219 6.299339294433594 28.65262985229492 C 4.110054016113281 33.82867050170898 2.999992370605469 39.32872772216797 2.999992370605469 45.00001525878906 C 2.999992370605469 50.67130279541016 4.110054016113281 56.17136001586914 6.299339294433594 61.34738922119141 C 8.414566040039062 66.34837341308594 11.44333648681641 70.84033203125 15.301513671875 74.69850158691406 C 19.15968322753906 78.55668640136719 23.65165710449219 81.58545684814453 28.65262603759766 83.70068359375 C 33.82865142822266 85.88996887207031 39.32870864868164 87.00003051757812 44.99999618530273 87.00003051757812 C 50.67128372192383 87.00003051757812 56.17134094238281 85.88996887207031 61.34736633300781 83.70068359375 C 66.34834289550781 81.58545684814453 70.84030914306641 78.55668640136719 74.69847869873047 74.69850158691406 C 78.55665588378906 70.84033203125 81.58542633056641 66.34837341308594 83.70065307617188 61.34738922119141 C 85.88993835449219 56.17136001586914 87 50.67130279541016 87 45.00001525878906 C 87 39.32872772216797 85.88993835449219 33.82867050170898 83.70065307617188 28.65262985229492 C 81.58542633056641 23.65165710449219 78.55665588378906 19.15968322753906 74.69847869873047 15.301513671875 C 70.84030914306641 11.44334411621094 66.34834289550781 8.414573669433594 61.34736633300781 6.299346923828125 C 56.17134094238281 4.110061645507812 50.67128372192383 3 44.99999618530273 3 M 44.99999618530273 0 C 69.85281372070312 0 90 20.14718627929688 90 45.00001525878906 C 90 69.85282897949219 69.85281372070312 90.00003051757812 44.99999618530273 90.00003051757812 C 20.14717864990234 90.00003051757812 -7.62939453125e-06 69.85282897949219 -7.62939453125e-06 45.00001525878906 C -7.62939453125e-06 20.14718627929688 20.14717864990234 0 44.99999618530273 0 Z" stroke="none" fill="#896521"/>
                        </g>
                      </g>
                    </g>
                  </g>
                </g>
              </g>
            </g>
          </g>
        </g>
      </g>
    </g>
    <g id="contratista" transform="translate(191.857 616.186)">
      <g id="Grupo_1241335" data-name="Grupo 1241335" transform="translate(33.939 0.919)">
        <g id="Grupo_1241334" data-name="Grupo 1241334" transform="translate(0)">
          <path id="Trazado_1295161" data-name="Trazado 1295161" d="M49.794,264.005v11.612H40.521v15.538a.612.612,0,0,0,.61.613H59.668V264.005Z" transform="translate(-40.521 -232.562)" fill="#e0d3ce"/>
          <path id="Trazado_1295162" data-name="Trazado 1295162" d="M158.471,264.005h4.688v27.763h-4.688Z" transform="translate(-144.013 -232.562)" fill="#b9acac"/>
          <g id="Grupo_1241333" data-name="Grupo 1241333" transform="translate(8.247)">
            <g id="Grupo_1241317" data-name="Grupo 1241317" transform="translate(0 29.505)">
              <g id="Grupo_1241312" data-name="Grupo 1241312" transform="translate(0 5.762)">
                <path id="Trazado_1295163" data-name="Trazado 1295163" d="M147.347,308.128c-4.756-12-13.764-12.64-14.7-12.921h-5.118c-.934.281-9.942.921-14.7,12.921L107.8,320.862h11.826l10.453-.613,10.453.613H152.38Z" transform="translate(-107.8 -295.207)" fill="#64b9fc"/>
                <path id="Trazado_1295164" data-name="Trazado 1295164" d="M293.6,320.86h-5.2s-.333-.923-.67-1.774l-4.332-10.96c-4.689-11.831-13.511-12.62-14.653-12.909l0-.012h5.118c.934.281,9.942.922,14.7,12.921l4.332,10.96Z" transform="translate(-249.018 -295.205)" fill="#31a7fb"/>
                <path id="Trazado_1295165" data-name="Trazado 1295165" d="M237.893,297.233a18.116,18.116,0,0,0-5.845-2.026H226.93a18.117,18.117,0,0,0-5.844,2.026,8.91,8.91,0,0,0,16.807,0Z" transform="translate(-207.199 -295.207)" fill="#f69583"/>
              </g>
              <path id="Trazado_1295166" data-name="Trazado 1295166" d="M268.764,248.2h5.118v7.683h-5.118Z" transform="translate(-249.033 -248.197)" fill="#f69583"/>
              <g id="Grupo_1241315" data-name="Grupo 1241315" transform="translate(8.687 7.367)">
                <path id="Trazado_1295167" data-name="Trazado 1295167" d="M183.419,308.4a.564.564,0,0,0-.711.047l-3.858,3.577a.569.569,0,0,0-.057.775,15.036,15.036,0,0,1,3.013,9.485v10.062H192.26v-17.68Z" transform="translate(-178.668 -308.294)" fill="#fb9927"/>
                <g id="Grupo_1241313" data-name="Grupo 1241313" transform="translate(13.591)">
                  <path id="Trazado_1295168" data-name="Trazado 1295168" d="M298.385,308.4a.564.564,0,0,1,.711.047l3.858,3.577a.569.569,0,0,1,.057.775A15.036,15.036,0,0,0,300,322.283v10.062H289.545v-17.68Z" transform="translate(-289.545 -308.294)" fill="#fb9927"/>
                  <path id="Trazado_1295169" data-name="Trazado 1295169" d="M356.534,327.067a15.042,15.042,0,0,0-3.012,9.486v10.062h-2.976V335.624a16.007,16.007,0,0,1,4.061-11.066l1.871,1.734A.57.57,0,0,1,356.534,327.067Z" transform="translate(-343.069 -322.564)" fill="#f98824"/>
                </g>
                <g id="Grupo_1241314" data-name="Grupo 1241314" transform="translate(5.059 0.289)">
                  <path id="Trazado_1295170" data-name="Trazado 1295170" d="M220.756,310.76l7.739,5.975-7.347,1.117a.506.506,0,0,1-.579-.451l-.625-6.187A.506.506,0,0,1,220.756,310.76Z" transform="translate(-219.942 -310.653)" fill="#64b9fc"/>
                </g>
              </g>
              <g id="Grupo_1241316" data-name="Grupo 1241316" transform="translate(22.279 7.656)">
                <path id="Trazado_1295171" data-name="Trazado 1295171" d="M297.284,310.76l-7.739,5.975,7.347,1.117a.506.506,0,0,0,.579-.451l.625-6.187A.506.506,0,0,0,297.284,310.76Z" transform="translate(-289.545 -310.653)" fill="#64b9fc"/>
              </g>
            </g>
            <g id="Grupo_1241331" data-name="Grupo 1241331" transform="translate(7.328)">
              <g id="Grupo_1241318" data-name="Grupo 1241318" transform="translate(0.941 18.115)">
                <ellipse id="Elipse_12499" data-name="Elipse 12499" cx="3.322" cy="3.26" rx="3.322" ry="3.26" transform="translate(21.4)" fill="#f69583"/>
                <ellipse id="Elipse_12500" data-name="Elipse 12500" cx="3.322" cy="3.26" rx="3.322" ry="3.26" fill="#fdb0a0"/>
              </g>
              <g id="Grupo_1241319" data-name="Grupo 1241319" transform="translate(5.013 17.549)">
                <path id="Trazado_1295172" data-name="Trazado 1295172" d="M218.425,166.9a9.949,9.949,0,0,1-9.949-9.949v-6.284h19.9v6.284A9.95,9.95,0,0,1,218.425,166.9Z" transform="translate(-208.476 -150.664)" fill="#ffcec0"/>
              </g>
              <path id="Trazado_1295173" data-name="Trazado 1295173" d="M286,150.664v6.24a9.972,9.972,0,0,1-9.95,9.994,9.772,9.772,0,0,1-1.9-.184,9.983,9.983,0,0,0,8.048-9.81v-6.24Z" transform="translate(-261.083 -133.115)" fill="#fdb0a0"/>
              <g id="Grupo_1241330" data-name="Grupo 1241330">
                <g id="Grupo_1241329" data-name="Grupo 1241329">
                  <g id="Grupo_1241321" data-name="Grupo 1241321" transform="translate(3.053 0.575)">
                    <g id="Grupo_1241320" data-name="Grupo 1241320">
                      <path id="Trazado_1295174" data-name="Trazado 1295174" d="M192.483,28.483H216.3V23.989a11.8,11.8,0,0,0-11.8-11.8h-.223a11.8,11.8,0,0,0-11.8,11.8Z" transform="translate(-192.483 -12.191)" fill="#fdc83a"/>
                      <path id="Trazado_1295175" data-name="Trazado 1295175" d="M290.958,24.014A11.8,11.8,0,0,0,279.186,12.19h-.276a11.855,11.855,0,0,0-1.342.077A12.7,12.7,0,0,1,285.956,24.2v4.282h5Z" transform="translate(-267.138 -12.19)" fill="#fcb72d"/>
                    </g>
                  </g>
                  <g id="Grupo_1241324" data-name="Grupo 1241324" transform="translate(6.575)">
                    <g id="Grupo_1241322" data-name="Grupo 1241322" transform="translate(0 0)">
                      <path id="Trazado_1295176" data-name="Trazado 1295176" d="M237.989,22.018c-.91-.722-2.134-1.669-3.14-2.442a4.785,4.785,0,0,1-1.833-3.8V8.933A1.435,1.435,0,0,0,231.578,7.5h-3.953a1.435,1.435,0,0,0-1.438,1.433v6.846a4.784,4.784,0,0,1-1.833,3.8c-1.007.774-2.231,1.721-3.14,2.443Z" transform="translate(-221.214 -7.5)" fill="#fb9927"/>
                    </g>
                    <g id="Grupo_1241323" data-name="Grupo 1241323" transform="translate(6.805)">
                      <path id="Trazado_1295177" data-name="Trazado 1295177" d="M286.7,22.017h-3.68c-.909-.722-2.133-1.668-3.14-2.443a4.783,4.783,0,0,1-1.832-3.8V8.933a1.434,1.434,0,0,0-1.317-1.427,1.094,1.094,0,0,1,.119-.006h3.44a1.436,1.436,0,0,1,1.438,1.433v6.845a4.782,4.782,0,0,0,1.832,3.8C284.568,20.349,285.792,21.295,286.7,22.017Z" transform="translate(-276.731 -7.5)" fill="#f98824"/>
                    </g>
                  </g>
                  <g id="Grupo_1241328" data-name="Grupo 1241328" transform="translate(0 14.264)">
                    <g id="Grupo_1241327" data-name="Grupo 1241327">
                      <g id="Grupo_1241326" data-name="Grupo 1241326">
                        <g id="Grupo_1241325" data-name="Grupo 1241325">
                          <path id="Trazado_1295178" data-name="Trazado 1295178" d="M194.978,128.924H170.1a2.526,2.526,0,0,1-2.526-2.526v-.011a2.526,2.526,0,0,1,2.526-2.526h24.873a2.525,2.525,0,0,1,2.526,2.526v.011A2.526,2.526,0,0,1,194.978,128.924Z" transform="translate(-167.579 -123.862)" fill="#fddd45"/>
                          <path id="Trazado_1295179" data-name="Trazado 1295179" d="M358.216,126.4a2.534,2.534,0,0,1-2.541,2.531h-4.931a2.531,2.531,0,1,0,0-5.061h4.931A2.537,2.537,0,0,1,358.216,126.4Z" transform="translate(-328.291 -123.866)" fill="#fdc83a"/>
                        </g>
                      </g>
                    </g>
                  </g>
                </g>
              </g>
            </g>
            <g id="Grupo_1241332" data-name="Grupo 1241332" transform="translate(11.826 52.865)">
              <path id="Trazado_1295180" data-name="Trazado 1295180" d="M204.273,438.763h10.474v3.515H204.273Z" transform="translate(-204.273 -438.763)" fill="#f3eae6"/>
              <path id="Trazado_1295181" data-name="Trazado 1295181" d="M289.545,438.763h10.474v3.515H289.545Z" transform="translate(-279.092 -438.763)" fill="#f3eae6"/>
            </g>
          </g>
        </g>
      </g>
      <g id="Grupo_1241338" data-name="Grupo 1241338" transform="translate(33.02 0)">
        <path id="Trazado_1295182" data-name="Trazado 1295182" d="M283.06,193.976a.919.919,0,0,0,.919-.919v-1.369a.919.919,0,1,0-1.839,0v1.369A.919.919,0,0,0,283.06,193.976Z" transform="translate(-251.603 -167.384)"/>
        <path id="Trazado_1295183" data-name="Trazado 1295183" d="M267.955,227.662a.919.919,0,0,0-1.3-1.3,2.688,2.688,0,0,1-3.815,0,.919.919,0,0,0-1.3,1.3,4.527,4.527,0,0,0,6.421,0Z" transform="translate(-233.287 -198.379)"/>
        <path id="Trazado_1295184" data-name="Trazado 1295184" d="M244.641,181.639a.921.921,0,0,0-.953.884l-.01.259a.919.919,0,0,0,.884.953h.035a.919.919,0,0,0,.918-.885l.01-.259A.919.919,0,0,0,244.641,181.639Z" transform="translate(-217.855 -159.373)"/>
        <path id="Trazado_1295185" data-name="Trazado 1295185" d="M321.453,183.738h.035a.92.92,0,0,0,.884-.953l-.01-.259a.919.919,0,1,0-1.837.069l.01.259A.919.919,0,0,0,321.453,183.738Z" transform="translate(-285.282 -159.374)"/>
        <path id="Trazado_1295186" data-name="Trazado 1295186" d="M87.622,61.5,82.588,48.77a25.863,25.863,0,0,0-3.655-6.487,1.492,1.492,0,0,0-.434-1.437l-3.858-3.578a1.49,1.49,0,0,0-1.838-.142,17.867,17.867,0,0,0-4.848-1.69V35.05a10.9,10.9,0,0,0,7.254-8.577,4.215,4.215,0,0,0,4.209-4.179,4.122,4.122,0,0,0-.427-1.828,3.452,3.452,0,0,0-1.685-6.18v-.995A12.768,12.768,0,0,0,68.5,1.19,2.359,2.359,0,0,0,66.453,0H62.5a2.359,2.359,0,0,0-2.048,1.19,12.769,12.769,0,0,0-8.805,12.1v.994A3.445,3.445,0,0,0,48.6,17.715a3.451,3.451,0,0,0,1.367,2.752,4.123,4.123,0,0,0-.427,1.827,4.215,4.215,0,0,0,4.209,4.179A10.9,10.9,0,0,0,61,35.05v.386a17.835,17.835,0,0,0-4.862,1.7,1.49,1.49,0,0,0-1.847.136l-.284.263V29.615a.919.919,0,1,0-1.839,0v1.827H44.132V29.615a.919.919,0,1,0-1.839,0v2.946H39.9V29.615a.919.919,0,1,0-1.839,0v2.946h-.514a.919.919,0,0,0,0,1.839h.514v1.782h-.514a.919.919,0,0,0,0,1.839h.514V39.8h-.514a.919.919,0,0,0,0,1.839h.514v1.413h-3.2V41.222a.919.919,0,0,0-1.839,0v8.71a.919.919,0,0,0,1.839,0V44.893h8.353a.919.919,0,0,0,.919-.919V33.281h8.035v5.955l-1.735,1.609A1.492,1.492,0,0,0,50,42.3a25.887,25.887,0,0,0-3.637,6.467L42.24,59.206H34.859V54a.919.919,0,1,0-1.839,0v5.515a1.533,1.533,0,0,0,1.53,1.532h6.964l-.182.46a.919.919,0,1,0,1.71.676l5.033-12.733a24.545,24.545,0,0,1,2.976-5.481,14.821,14.821,0,0,1,2.042,7.814V61.842a.919.919,0,0,0,1.839,0V58.218h8.614v3.624a.919.919,0,0,0,1.839,0V58.218H74v3.624a.919.919,0,1,0,1.839,0V51.78c0-.273.007-.547.02-.839a.919.919,0,1,0-1.837-.086c-.015.321-.022.624-.022.925v1.085H70.622V46.028l1.052.16a1.412,1.412,0,0,0,.212.016,1.426,1.426,0,0,0,1.42-1.284l.59-5.837,3.118,2.891a14.577,14.577,0,0,0-2.258,4.545.919.919,0,1,0,1.759.535,13.4,13.4,0,0,1,1.377-3.105,24.531,24.531,0,0,1,2.987,5.5L85.912,62.18a.919.919,0,1,0,1.71-.676ZM42.293,43.055H39.9V41.642h2.4Zm0-3.251H39.9V38.021h2.4Zm0-3.621H39.9V34.4h2.4ZM75.346,24.627V21.165h1.573a3.446,3.446,0,0,0,.35-.018,2.287,2.287,0,0,1,.311,1.147,2.369,2.369,0,0,1-2.234,2.333ZM68.811,3.265a10.929,10.929,0,0,1,6.656,10.027v.972H72.862c-.862-.676-1.869-1.453-2.577-2A3.877,3.877,0,0,1,68.811,9.2ZM61.981,9.2V2.352a.517.517,0,0,1,.52-.513h3.952a.517.517,0,0,1,.52.513V9.2a5.726,5.726,0,0,0,2.191,4.525l.7.54H59.088l.7-.54A5.728,5.728,0,0,0,61.981,9.2Zm-8.5,4.1A10.93,10.93,0,0,1,60.142,3.265V9.2a3.878,3.878,0,0,1-1.473,3.068c-.921.707-1.843,1.422-2.578,2H53.486v-.971Zm.122,11.334a2.369,2.369,0,0,1-2.234-2.333,2.286,2.286,0,0,1,.31-1.146,3.44,3.44,0,0,0,.35.018h1.574v3.462Zm1.839.126V21.165H57.86a.919.919,0,0,0,0-1.839H52.034a1.614,1.614,0,0,1-1.13-2.753,1.584,1.584,0,0,1,1.13-.471H76.919a1.612,1.612,0,0,1,0,3.224H61.907a.919.919,0,0,0,0,1.839h11.6v3.588a9.03,9.03,0,0,1-18.06,0Zm-3.53,17.222,3.137-2.909.592,5.855a1.426,1.426,0,0,0,1.42,1.284,1.414,1.414,0,0,0,.212-.016l1.054-.16v6.837h-3.4V51.78a16.132,16.132,0,0,0-3.015-9.8Zm5.03-2.472,5.277,4.074-4.791.728Zm6.6,16.877H54.932V54.7h8.614Zm0-3.515H60.171V45.748l3.375-.513Zm.93-9.872-6.238-4.816A15.8,15.8,0,0,1,61,37.314v.316a.919.919,0,1,0,1.839,0V35.5a10.942,10.942,0,0,0,3.279,0V37.63a.919.919,0,1,0,1.839,0v-.316a15.782,15.782,0,0,1,2.759.862Zm.909,2.239,3.4.517v7.116h-3.4ZM74.02,54.7v1.676H65.406V54.7Zm-2.5-10.4-4.791-.728L72,39.5Z" transform="translate(-33.02 0)"/>
        <g id="Grupo_1241336" data-name="Grupo 1241336" transform="translate(4.481 48.335)">
          <path id="Trazado_1295187" data-name="Trazado 1295187" d="M71.3,396.151h-.8a.919.919,0,1,1,0-1.839h.8a.919.919,0,1,1,0,1.839Z" transform="translate(-69.575 -394.312)"/>
        </g>
        <g id="Grupo_1241337" data-name="Grupo 1241337" transform="translate(6.019 51.335)">
          <path id="Trazado_1295188" data-name="Trazado 1295188" d="M83.839,420.619h-.8a.919.919,0,1,1,0-1.839h.8a.919.919,0,1,1,0,1.839Z" transform="translate(-82.118 -418.78)"/>
        </g>
      </g>
    </g>
  </g>
</svg>
