<svg xmlns="http://www.w3.org/2000/svg" xmlns:xlink="http://www.w3.org/1999/xlink" width="93" height="93" viewBox="0 0 93 93">
  <defs>
    <filter id="Trazado_982547" x="0" y="0" width="93" height="93" filterUnits="userSpaceOnUse">
      <feOffset dy="3" input="SourceAlpha"/>
      <feGaussianBlur stdDeviation="3" result="blur"/>
      <feFlood flood-opacity="0.161"/>
      <feComposite operator="in" in2="blur"/>
      <feComposite in="SourceGraphic"/>
    </filter>
  </defs>
  <g id="Grupo_1241748" data-name="Grupo 1241748" transform="translate(-195 -1875)">
    <g id="Grupo_1241143" data-name="Grupo 1241143" transform="translate(204 1881)">
      <g id="Grupo_1233829" data-name="Grupo 1233829" transform="translate(0 0)">
        <g id="Grupo_1209736" data-name="Grupo 1209736">
          <g id="Grupo_1209036" data-name="Grupo 1209036" transform="translate(0 0)">
            <g id="Grupo_1208891" data-name="Grupo 1208891" transform="translate(0)">
              <g id="Grupo_1177675" data-name="Grupo 1177675" transform="translate(0 0)">
                <g id="Grupo_1176928" data-name="Grupo 1176928" transform="translate(0 0)">
                  <g id="Grupo_1172322" data-name="Grupo 1172322">
                    <g id="Grupo_1164700" data-name="Grupo 1164700">
                      <g id="Grupo_1160931" data-name="Grupo 1160931">
                        <g id="Grupo_1160749" data-name="Grupo 1160749">
                          <g id="Grupo_1158891" data-name="Grupo 1158891">
                            <g id="Grupo_1157406" data-name="Grupo 1157406">
                              <g id="Grupo_1155793" data-name="Grupo 1155793">
                                <g id="Grupo_1154704" data-name="Grupo 1154704">
                                  <g id="Grupo_1150790" data-name="Grupo 1150790">
                                    <g id="Grupo_1154214" data-name="Grupo 1154214">
                                      <g id="Grupo_1152583" data-name="Grupo 1152583">
                                        <g id="Grupo_1146973" data-name="Grupo 1146973">
                                          <g id="Grupo_1146954" data-name="Grupo 1146954">
                                            <g transform="matrix(1, 0, 0, 1, -9, -6)" filter="url(#Trazado_982547)">
                                              <g id="Trazado_982547-2" data-name="Trazado 982547" transform="translate(9 6)" fill="#fef7ea">
                                                <path d="M 37.49999237060547 73.49986267089844 C 32.63936996459961 73.49986267089844 27.92492485046387 72.54824066162109 23.48763656616211 70.67143249511719 C 19.20095825195312 68.85832214355469 15.35081481933594 66.26239013671875 12.04415893554688 62.95573043823242 C 8.737492561340332 59.64907455444336 6.14155912399292 55.79894256591797 4.328447818756104 51.51226425170898 C 2.45162558555603 47.07498550415039 1.500003457069397 42.36055374145508 1.500003457069397 37.49993133544922 C 1.500003457069397 32.63930892944336 2.45162558555603 27.92487525939941 4.328447818756104 23.48759841918945 C 6.14155912399292 19.20092010498047 8.737492561340332 15.35078716278076 12.04415893554688 12.0441312789917 C 15.35081481933594 8.737475395202637 19.20095825195312 6.141542434692383 23.48763656616211 4.328431129455566 C 27.92492485046387 2.45162034034729 32.63936996459961 1.499997973442078 37.49999237060547 1.499997973442078 C 42.36061477661133 1.499997973442078 47.07505798339844 2.45162034034729 51.51234817504883 4.328431129455566 C 55.79902648925781 6.141542434692383 59.649169921875 8.737475395202637 62.95582580566406 12.0441312789917 C 66.26248931884766 15.35078716278076 68.85842895507812 19.20092010498047 70.67153930664062 23.48759841918945 C 72.54836273193359 27.92487525939941 73.49998474121094 32.63930892944336 73.49998474121094 37.49993133544922 C 73.49998474121094 42.36055374145508 72.54836273193359 47.07498550415039 70.67153930664062 51.51226425170898 C 68.85842895507812 55.79894256591797 66.26248931884766 59.64907455444336 62.95582580566406 62.95573043823242 C 59.649169921875 66.26239013671875 55.79902648925781 68.85832214355469 51.51234817504883 70.67143249511719 C 47.07505798339844 72.54824066162109 42.36061477661133 73.49986267089844 37.49999237060547 73.49986267089844 Z" stroke="none"/>
                                                <path d="M 37.49999237060547 2.999992370605469 C 32.84120559692383 2.999992370605469 28.32336807250977 3.911758422851562 24.07196807861328 5.709945678710938 C 19.96409225463867 7.447418212890625 16.27420425415039 9.935409545898438 13.10481643676758 13.10479354858398 C 9.935432434082031 16.2741813659668 7.447441101074219 19.96405792236328 5.709953308105469 24.07191848754883 C 3.911766052246094 28.32331848144531 3.000007629394531 32.84114456176758 3.000007629394531 37.49993133544922 C 3.000007629394531 42.15870666503906 3.911766052246094 46.67654418945312 5.709953308105469 50.92793273925781 C 7.447441101074219 55.03580474853516 9.935432434082031 58.72568130493164 13.10481643676758 61.89505767822266 C 16.27420425415039 65.06444549560547 19.96409225463867 67.55242919921875 24.07196807861328 69.28990936279297 C 28.32336807250977 71.08809661865234 32.84120559692383 71.99985504150391 37.49999237060547 71.99985504150391 C 42.15877914428711 71.99985504150391 46.67661666870117 71.08809661865234 50.92801666259766 69.28990936279297 C 55.03589248657227 67.55242919921875 58.72578048706055 65.06444549560547 61.89516830444336 61.89505767822266 C 65.06455230712891 58.72568130493164 67.55254364013672 55.03580474853516 69.29003143310547 50.92793273925781 C 71.08821868896484 46.67654418945312 71.99997711181641 42.15870666503906 71.99997711181641 37.49993133544922 C 71.99997711181641 32.84114456176758 71.08821868896484 28.32331848144531 69.29003143310547 24.07191848754883 C 67.55254364013672 19.96405792236328 65.06455230712891 16.2741813659668 61.89516830444336 13.10479354858398 C 58.72578048706055 9.935409545898438 55.03589248657227 7.447418212890625 50.92801666259766 5.709945678710938 C 46.67661666870117 3.911758422851562 42.15877914428711 2.999992370605469 37.49999237060547 2.999992370605469 M 37.49999237060547 -7.62939453125e-06 C 58.21065521240234 -7.62939453125e-06 74.99997711181641 16.7892951965332 74.99997711181641 37.49993133544922 C 74.99997711181641 58.2105712890625 58.21065521240234 74.99985504150391 37.49999237060547 74.99985504150391 C 16.78932952880859 74.99985504150391 7.62939453125e-06 58.2105712890625 7.62939453125e-06 37.49993133544922 C 7.62939453125e-06 16.7892951965332 16.78932952880859 -7.62939453125e-06 37.49999237060547 -7.62939453125e-06 Z" stroke="none" fill="#896521"/>
                                              </g>
                                            </g>
                                          </g>
                                        </g>
                                      </g>
                                    </g>
                                  </g>
                                </g>
                              </g>
                            </g>
                          </g>
                        </g>
                      </g>
                    </g>
                  </g>
                </g>
              </g>
            </g>
          </g>
        </g>
      </g>
    </g>
    <g id="informe-medico" transform="translate(220.252 1895.901)">
      <g id="Grupo_1241747" data-name="Grupo 1241747" transform="translate(0.883 0.883)">
        <path id="Trazado_1297050" data-name="Trazado 1297050" d="M321.037,75.5l-7.529,15.036,5.06,2.537,2.469-4.929,8.072-16.117c1.666-3.328-3.4-5.863-5.063-2.537Zm0,0" transform="translate(-286.715 -62.819)" fill="#ffc15a" fill-rule="evenodd"/>
        <path id="Trazado_1297051" data-name="Trazado 1297051" d="M312.318,326.553l-5.06-2.537-.605,7.527Zm0,0" transform="translate(-280.465 -296.296)" fill="#ffe6c0" fill-rule="evenodd"/>
        <path id="Trazado_1297052" data-name="Trazado 1297052" d="M36.8,37.725l7.529-15.036V16.81H40.244a2.378,2.378,0,0,1-2.371-2.372V10H12.546A2.549,2.549,0,0,0,10,12.547V50.891a2.551,2.551,0,0,0,2.541,2.545H41.785a2.551,2.551,0,0,0,2.541-2.545V35.332l-2.469,4.929-5.666,4.989Zm0,0" transform="translate(-10.004 -10.004)" fill="#f9f9f9" fill-rule="evenodd"/>
        <path id="Trazado_1297053" data-name="Trazado 1297053" d="M325.691,14.438a2.378,2.378,0,0,0,2.371,2.372h4.082L325.691,10Zm0,0" transform="translate(-297.823 -10.004)" fill="#d7d6d8" fill-rule="evenodd"/>
        <path id="Trazado_1297054" data-name="Trazado 1297054" d="M152.944,69.325a1.027,1.027,0,0,0,1.023,1.026h1.776a1.027,1.027,0,0,0,1.026-1.026V67.446h1.879a1.028,1.028,0,0,0,1.026-1.023V64.643a1.028,1.028,0,0,0-1.026-1.023h-1.879V61.741a1.027,1.027,0,0,0-1.026-1.026h-1.776a1.027,1.027,0,0,0-1.023,1.026V63.62h-1.881a1.026,1.026,0,0,0-1.023,1.023v1.779a1.026,1.026,0,0,0,1.023,1.023h1.881Zm0,0" transform="translate(-137.678 -56.238)" fill="#ff6977" fill-rule="evenodd"/>
      </g>
      <path id="Trazado_1297055" data-name="Trazado 1297055" d="M195.284,491.992h-.018a.883.883,0,0,0,0,1.766h.018a.883.883,0,1,0,0-1.766Zm0,0" transform="translate(-177.224 -448.56)"/>
      <path id="Trazado_1297056" data-name="Trazado 1297056" d="M156.215,226.879a.883.883,0,0,0,.883.883l12.4.005h0a.883.883,0,0,0,0-1.766L157.1,226A.885.885,0,0,0,156.215,226.879Zm0,0" transform="translate(-142.425 -206.046)"/>
      <path id="Trazado_1297057" data-name="Trazado 1297057" d="M42.389,5.54a3.578,3.578,0,0,0-4.966,1.621L36.088,9.83V7.689a.879.879,0,0,0-.237-.6l-.005-.007L29.392.276A.894.894,0,0,0,28.746,0H3.424A3.429,3.429,0,0,0,0,3.426V41.77A3.43,3.43,0,0,0,3.424,45.2h11.1a.883.883,0,1,0,0-1.766H3.424A1.662,1.662,0,0,1,1.766,41.77V3.426A1.661,1.661,0,0,1,3.424,1.766H27.868V5.317a3.259,3.259,0,0,0,3.255,3.255h3.2v4.785L27.186,27.606a.872.872,0,0,0-.117-.009l-12.4,0a.883.883,0,0,0,0,1.766l12.055,0-.473,5.884-11.582,0a.883.883,0,0,0,0,1.766h0l12.4,0h0a.883.883,0,0,0,.584-.221L33.319,31.8a.88.88,0,0,0,.206-.267h0l0-.008,0-.006.789-1.575V41.77a1.662,1.662,0,0,1-1.658,1.662h-11.1a.883.883,0,1,0,0,1.766h11.1a3.431,3.431,0,0,0,3.425-3.428V26.42l7.978-15.93A3.58,3.58,0,0,0,42.39,5.54ZM31.122,6.806a1.491,1.491,0,0,1-1.488-1.489V3.1L33.15,6.806Zm-3,27.217.325-4.044,2.719,1.363ZM42.487,9.7,32.341,29.955,28.86,28.209l7.121-14.221v0L39,7.952a1.839,1.839,0,0,1,2.6-.832A1.841,1.841,0,0,1,42.487,9.7Zm0,0" transform="translate(0)"/>
      <path id="Trazado_1297058" data-name="Trazado 1297058" d="M66.785,286.2a.883.883,0,0,0-1.232.207l-2.592,3.635-.711-.63a.883.883,0,0,0-1.171,1.322l1.446,1.281a.882.882,0,0,0,.586.222.873.873,0,0,0,.1-.006.882.882,0,0,0,.619-.365l3.162-4.434A.883.883,0,0,0,66.785,286.2Zm0,0" transform="translate(-55.416 -260.782)"/>
      <path id="Trazado_1297059" data-name="Trazado 1297059" d="M66.785,364.457a.883.883,0,0,0-1.232.207L62.962,368.3l-.711-.631a.883.883,0,1,0-1.173,1.321l1.446,1.284a.884.884,0,0,0,.587.222.866.866,0,0,0,.1-.006.881.881,0,0,0,.62-.365l3.162-4.437a.883.883,0,0,0-.207-1.232Zm0,0" transform="translate(-55.416 -332.134)"/>
      <path id="Trazado_1297060" data-name="Trazado 1297060" d="M61.078,212.439l1.446,1.283a.884.884,0,0,0,.587.223.87.87,0,0,0,.1-.006.883.883,0,0,0,.62-.365l3.162-4.436a.883.883,0,1,0-1.438-1.025l-2.591,3.636-.711-.631a.883.883,0,1,0-1.172,1.321Zm0,0" transform="translate(-55.417 -189.404)"/>
      <path id="Trazado_1297061" data-name="Trazado 1297061" d="M146.622,50.711h-1.776a1.911,1.911,0,0,0-1.909,1.909v1h-1a1.909,1.909,0,0,0-1.906,1.907V57.3a1.91,1.91,0,0,0,1.906,1.909h1v1a1.911,1.911,0,0,0,1.909,1.909h1.776a1.911,1.911,0,0,0,1.909-1.909v-1h1a1.911,1.911,0,0,0,1.909-1.909V55.523a1.91,1.91,0,0,0-1.909-1.907h-1v-1A1.911,1.911,0,0,0,146.622,50.711Zm2.9,4.671a.145.145,0,0,1,.142.14V57.3a.146.146,0,0,1-.142.143h-1.879a.883.883,0,0,0-.883.883V60.2a.144.144,0,0,1-.142.143h-1.776a.146.146,0,0,1-.142-.143V58.325a.883.883,0,0,0-.883-.883h-1.879a.143.143,0,0,1-.14-.143V55.522a.143.143,0,0,1,.14-.14h1.879a.883.883,0,0,0,.883-.883V52.62a.146.146,0,0,1,.142-.143h1.776a.145.145,0,0,1,.142.143V54.5a.883.883,0,0,0,.883.883Zm0,0" transform="translate(-127.674 -46.234)"/>
    </g>
  </g>
</svg>
