<svg xmlns="http://www.w3.org/2000/svg" xmlns:xlink="http://www.w3.org/1999/xlink" width="93" height="93" viewBox="0 0 93 93">
  <defs>
    <filter id="Trazado_982547" x="0" y="0" width="93" height="93" filterUnits="userSpaceOnUse">
      <feOffset dy="3" input="SourceAlpha"/>
      <feGaussianBlur stdDeviation="3" result="blur"/>
      <feFlood flood-opacity="0.161"/>
      <feComposite operator="in" in2="blur"/>
      <feComposite in="SourceGraphic"/>
    </filter>
  </defs>
  <g id="Grupo_1242173" data-name="Grupo 1242173" transform="translate(-195 -1924.649)">
    <g id="Grupo_1241812" data-name="Grupo 1241812" transform="translate(0 1156.649)">
      <g id="Grupo_1233875" data-name="Grupo 1233875" transform="translate(0 -540.49)">
        <g id="Grupo_1209736" data-name="Grupo 1209736" transform="translate(0 -1430.391)">
          <g id="Grupo_1209036" data-name="Grupo 1209036" transform="translate(-598.49 -604.119)">
            <g id="Grupo_1208891" data-name="Grupo 1208891" transform="translate(802.49 3349)">
              <g id="Grupo_1177675" data-name="Grupo 1177675" transform="translate(0 0)">
                <g id="Grupo_1176928" data-name="Grupo 1176928" transform="translate(0 0)">
                  <g id="Grupo_1172322" data-name="Grupo 1172322" transform="translate(0 0)">
                    <g id="Grupo_1164700" data-name="Grupo 1164700">
                      <g id="Grupo_1160931" data-name="Grupo 1160931">
                        <g id="Grupo_1160749" data-name="Grupo 1160749">
                          <g id="Grupo_1158891" data-name="Grupo 1158891">
                            <g id="Grupo_1157406" data-name="Grupo 1157406">
                              <g id="Grupo_1155793" data-name="Grupo 1155793">
                                <g id="Grupo_1154704" data-name="Grupo 1154704">
                                  <g id="Grupo_1150790" data-name="Grupo 1150790">
                                    <g id="Grupo_1154214" data-name="Grupo 1154214">
                                      <g id="Grupo_1152583" data-name="Grupo 1152583">
                                        <g id="Grupo_1146973" data-name="Grupo 1146973">
                                          <g id="Grupo_1146954" data-name="Grupo 1146954">
                                            <g transform="matrix(1, 0, 0, 1, -9, -6)" filter="url(#Trazado_982547)">
                                              <g id="Trazado_982547-2" data-name="Trazado 982547" transform="translate(9 6)" fill="#fef7ea">
                                                <path d="M 37.49999237060547 73.49986267089844 C 32.63936996459961 73.49986267089844 27.92492485046387 72.54824066162109 23.48763656616211 70.67143249511719 C 19.20095825195312 68.85832214355469 15.35081481933594 66.26239013671875 12.04415893554688 62.95573043823242 C 8.737492561340332 59.64907455444336 6.14155912399292 55.79894256591797 4.328447818756104 51.51226425170898 C 2.45162558555603 47.07498550415039 1.500003457069397 42.36055374145508 1.500003457069397 37.49993133544922 C 1.500003457069397 32.63930892944336 2.45162558555603 27.92487525939941 4.328447818756104 23.48759841918945 C 6.14155912399292 19.20092010498047 8.737492561340332 15.35078716278076 12.04415893554688 12.0441312789917 C 15.35081481933594 8.737475395202637 19.20095825195312 6.141542434692383 23.48763656616211 4.328431129455566 C 27.92492485046387 2.45162034034729 32.63936996459961 1.499997973442078 37.49999237060547 1.499997973442078 C 42.36061477661133 1.499997973442078 47.07505798339844 2.45162034034729 51.51234817504883 4.328431129455566 C 55.79902648925781 6.141542434692383 59.649169921875 8.737475395202637 62.95582580566406 12.0441312789917 C 66.26248931884766 15.35078716278076 68.85842895507812 19.20092010498047 70.67153930664062 23.48759841918945 C 72.54836273193359 27.92487525939941 73.49998474121094 32.63930892944336 73.49998474121094 37.49993133544922 C 73.49998474121094 42.36055374145508 72.54836273193359 47.07498550415039 70.67153930664062 51.51226425170898 C 68.85842895507812 55.79894256591797 66.26248931884766 59.64907455444336 62.95582580566406 62.95573043823242 C 59.649169921875 66.26239013671875 55.79902648925781 68.85832214355469 51.51234817504883 70.67143249511719 C 47.07505798339844 72.54824066162109 42.36061477661133 73.49986267089844 37.49999237060547 73.49986267089844 Z" stroke="none"/>
                                                <path d="M 37.49999237060547 2.999992370605469 C 32.84120559692383 2.999992370605469 28.32336807250977 3.911758422851562 24.07196807861328 5.709945678710938 C 19.96409225463867 7.447418212890625 16.27420425415039 9.935409545898438 13.10481643676758 13.10479354858398 C 9.935432434082031 16.2741813659668 7.447441101074219 19.96405792236328 5.709953308105469 24.07191848754883 C 3.911766052246094 28.32331848144531 3.000007629394531 32.84114456176758 3.000007629394531 37.49993133544922 C 3.000007629394531 42.15870666503906 3.911766052246094 46.67654418945312 5.709953308105469 50.92793273925781 C 7.447441101074219 55.03580474853516 9.935432434082031 58.72568130493164 13.10481643676758 61.89505767822266 C 16.27420425415039 65.06444549560547 19.96409225463867 67.55242919921875 24.07196807861328 69.28990936279297 C 28.32336807250977 71.08809661865234 32.84120559692383 71.99985504150391 37.49999237060547 71.99985504150391 C 42.15877914428711 71.99985504150391 46.67661666870117 71.08809661865234 50.92801666259766 69.28990936279297 C 55.03589248657227 67.55242919921875 58.72578048706055 65.06444549560547 61.89516830444336 61.89505767822266 C 65.06455230712891 58.72568130493164 67.55254364013672 55.03580474853516 69.29003143310547 50.92793273925781 C 71.08821868896484 46.67654418945312 71.99997711181641 42.15870666503906 71.99997711181641 37.49993133544922 C 71.99997711181641 32.84114456176758 71.08821868896484 28.32331848144531 69.29003143310547 24.07191848754883 C 67.55254364013672 19.96405792236328 65.06455230712891 16.2741813659668 61.89516830444336 13.10479354858398 C 58.72578048706055 9.935409545898438 55.03589248657227 7.447418212890625 50.92801666259766 5.709945678710938 C 46.67661666870117 3.911758422851562 42.15877914428711 2.999992370605469 37.49999237060547 2.999992370605469 M 37.49999237060547 -7.62939453125e-06 C 58.21065521240234 -7.62939453125e-06 74.99997711181641 16.7892951965332 74.99997711181641 37.49993133544922 C 74.99997711181641 58.2105712890625 58.21065521240234 74.99985504150391 37.49999237060547 74.99985504150391 C 16.78932952880859 74.99985504150391 7.62939453125e-06 58.2105712890625 7.62939453125e-06 37.49993133544922 C 7.62939453125e-06 16.7892951965332 16.78932952880859 -7.62939453125e-06 37.49999237060547 -7.62939453125e-06 Z" stroke="none" fill="#896521"/>
                                              </g>
                                            </g>
                                          </g>
                                        </g>
                                      </g>
                                    </g>
                                  </g>
                                </g>
                              </g>
                            </g>
                          </g>
                        </g>
                      </g>
                    </g>
                  </g>
                </g>
              </g>
            </g>
          </g>
        </g>
      </g>
    </g>
    <g id="resiliencia" transform="translate(203.093 1944.018)">
      <g id="Grupo_1242171" data-name="Grupo 1242171" transform="translate(16.087 0.721)">
        <g id="Grupo_1242170" data-name="Grupo 1242170" transform="translate(0)">
          <path id="Trazado_1295706" data-name="Trazado 1295706" d="M48.642,48.948a11.033,11.033,0,0,1-3.413-7.374,11.463,11.463,0,0,0,2.76-.453l.1-.028,0-.157a8.21,8.21,0,0,1,7.763-8.2l.072,0,.022-.1a11.523,11.523,0,0,0,.276-2.505c0-.093,0-.186,0-.279H56.3a11.081,11.081,0,0,1,9.142,4.824,30.356,30.356,0,0,0,1.246-8.632V14.171a2.4,2.4,0,0,0-2.4-2.4H55.139a12.407,12.407,0,0,1-8.692-3.559,2.406,2.406,0,0,0-3.372,0,12.407,12.407,0,0,1-8.692,3.559H25.236a2.4,2.4,0,0,0-2.4,2.4V26.044a30.366,30.366,0,0,0,21.21,28.951,2.368,2.368,0,0,0,1.423,0,30.22,30.22,0,0,0,7.413-3.509,11.065,11.065,0,0,1-4.244-2.538Z" transform="translate(-22.839 -7.527)" fill="#ffd15b"/>
          <path id="Trazado_1295707" data-name="Trazado 1295707" d="M87.855,92.473a11.463,11.463,0,0,0,2.76-.453l.1-.028,0-.157a8.21,8.21,0,0,1,7.763-8.2l.072,0,.022-.1a11.523,11.523,0,0,0,.276-2.505c0-.093,0-.186,0-.279h.085a11.016,11.016,0,0,1,5.357,1.383,26.079,26.079,0,0,0,.518-5.191v-9a.752.752,0,0,0-.752-.752h-6.28a16.8,16.8,0,0,1-9.937-3.228.748.748,0,0,0-.881,0,16.8,16.8,0,0,1-9.937,3.229H70.73a.752.752,0,0,0-.752.752v9a25.619,25.619,0,0,0,5.108,15.426,26.106,26.106,0,0,0,12.049,8.919.752.752,0,0,0,.506,0,25.608,25.608,0,0,0,3.5-1.561A11.029,11.029,0,0,1,87.855,92.473Z" transform="translate(-65.465 -58.426)" fill="#fff"/>
          <g id="Grupo_1242165" data-name="Grupo 1242165" transform="translate(18.682 8.76)">
            <path id="Trazado_1295708" data-name="Trazado 1295708" d="M396.584,113.888a26.09,26.09,0,0,0,.5-5.093v-9a.752.752,0,0,0-.752-.752h-2.6v8.416a26.081,26.081,0,0,1-.527,5.232A11.094,11.094,0,0,1,396.584,113.888Z" transform="translate(-376.432 -99.039)" fill="#f3f0f3"/>
            <path id="Trazado_1295709" data-name="Trazado 1295709" d="M223.142,415.842A25.754,25.754,0,0,1,218,418.326a25.522,25.522,0,0,0,2.987,1.291.752.752,0,0,0,.506,0A25.578,25.578,0,0,0,224.9,418.1,11.25,11.25,0,0,1,223.142,415.842Z" transform="translate(-217.996 -385.515)" fill="#f3f0f3"/>
          </g>
          <path id="Trazado_1295710" data-name="Trazado 1295710" d="M266.844,239.735l-.183,0c0,.124.007.248.007.373a11.43,11.43,0,0,1-.274,2.484l-.027.122.125-.005c.128-.005.243-.008.353-.008a8.213,8.213,0,1,1-8.211,8.4l0-.125-.12.035a11.366,11.366,0,0,1-2.834.453,11.181,11.181,0,1,0,11.167-11.726Z" transform="translate(-233.388 -217.506)" fill="#bd80e1"/>
          <g id="Grupo_1242166" data-name="Grupo 1242166" transform="translate(10.469 11.15)">
            <path id="Trazado_1295711" data-name="Trazado 1295711" d="M146.971,146.265a8.223,8.223,0,0,1,7.835-8.2,11.445,11.445,0,1,0-7.831,8.36C146.974,146.37,146.971,146.318,146.971,146.265Z" transform="translate(-132.196 -124.006)" fill="#ffe177"/>
            <path id="Trazado_1295712" data-name="Trazado 1295712" d="M177.574,153.747a8.223,8.223,0,0,1,7.835-8.2,11.471,11.471,0,0,0-6.963-13.264,11.456,11.456,0,0,1-12.407,18.643,11.465,11.465,0,0,0,11.539,2.981C177.577,153.851,177.574,153.8,177.574,153.747Z" transform="translate(-162.799 -131.487)" fill="#ffd15b"/>
          </g>
          <g id="Grupo_1242169" data-name="Grupo 1242169" transform="translate(25.147 25.101)">
            <circle id="Elipse_11561" data-name="Elipse 11561" cx="8.309" cy="8.309" r="8.309" fill="#05e39c"/>
            <path id="Trazado_1295713" data-name="Trazado 1295713" d="M319.773,273.652a8.312,8.312,0,0,1-8.3,13.858,8.309,8.309,0,1,0,8.3-13.858Z" transform="translate(-308.989 -273.277)" fill="#0ed290"/>
            <g id="Grupo_1242167" data-name="Grupo 1242167" transform="translate(3.173 4.957)">
              <path id="Trazado_1295714" data-name="Trazado 1295714" d="M323.2,328.909a1.337,1.337,0,0,1-.921-.366l-3.451-3.255a.479.479,0,0,1-.02-.678l1.184-1.255a.479.479,0,0,1,.678-.02l2.14,2.018a.479.479,0,0,0,.674-.016l3.539-3.675a.479.479,0,0,1,.678-.013l1.243,1.2a.479.479,0,0,1,.013.678l-4.789,4.973A1.339,1.339,0,0,1,323.2,328.909Z" transform="translate(-318.678 -321.516)" fill="#fff"/>
            </g>
            <g id="Grupo_1242168" data-name="Grupo 1242168" transform="translate(6.687 4.957)">
              <path id="Trazado_1295715" data-name="Trazado 1295715" d="M362.142,322.847l-1.243-1.2a.479.479,0,0,0-.678.013l-.635.659.545.525a.479.479,0,0,1,.013.678l-4.754,4.936.087.082a1.342,1.342,0,0,0,1.888-.045l4.789-4.973A.479.479,0,0,0,362.142,322.847Z" transform="translate(-355.391 -321.516)" fill="#f3f0f3"/>
            </g>
          </g>
        </g>
      </g>
      <g id="Grupo_1242172" data-name="Grupo 1242172" transform="translate(15.372 0.001)">
        <path id="Trazado_1295716" data-name="Trazado 1295716" d="M59.5,27.626a31.126,31.126,0,0,0,1.147-8.389V14.8a.718.718,0,1,0-1.436,0v4.441a29.738,29.738,0,0,1-.82,6.948,11.987,11.987,0,0,0-2.674-2.222,26.942,26.942,0,0,0,.418-4.726v-9a1.472,1.472,0,0,0-1.47-1.47h-6.28a16.052,16.052,0,0,1-9.514-3.091,1.461,1.461,0,0,0-1.727,0,16.052,16.052,0,0,1-9.514,3.091h-6.28a1.472,1.472,0,0,0-1.47,1.47v9a26.359,26.359,0,0,0,4.881,15.346.718.718,0,0,0,1.171-.831,24.931,24.931,0,0,1-4.616-14.515v-9a.034.034,0,0,1,.034-.034h6.28a17.479,17.479,0,0,0,10.36-3.366.03.03,0,0,1,.036,0A17.479,17.479,0,0,0,48.386,10.2h6.28a.034.034,0,0,1,.034.034v9a25.542,25.542,0,0,1-.32,4.023,11.815,11.815,0,0,0-4.248-1.014,12.174,12.174,0,0,0-18.455-9.318.718.718,0,0,0,.748,1.226,10.738,10.738,0,0,1,16.163,11,9.04,9.04,0,0,0-8.064,8.608,10.735,10.735,0,0,1-10.514-17.6.718.718,0,0,0-1.069-.958,12.171,12.171,0,0,0,8.782,20.286A11.837,11.837,0,0,0,40.5,41.863a24.791,24.791,0,0,1-2.481,1.044.035.035,0,0,1-.022,0,25.383,25.383,0,0,1-10-6.614.718.718,0,1,0-1.052.977,26.822,26.822,0,0,0,10.568,6.989,1.471,1.471,0,0,0,.99,0,26.316,26.316,0,0,0,3.048-1.315,11.937,11.937,0,0,0,2.885,1.934A29.459,29.459,0,0,1,38.5,47.5a1.641,1.641,0,0,1-.991,0,29.485,29.485,0,0,1-8.3-4.15,29.757,29.757,0,0,1-6.556-6.432,29.385,29.385,0,0,1-5.851-17.681V7.368A1.68,1.68,0,0,1,18.486,5.69h9.147a13.084,13.084,0,0,0,9.192-3.763,1.682,1.682,0,0,1,2.367,0A13.083,13.083,0,0,0,48.385,5.69h9.147A1.68,1.68,0,0,1,59.21,7.368v4.081a.718.718,0,1,0,1.436,0V7.368a3.118,3.118,0,0,0-3.114-3.114H48.385A11.655,11.655,0,0,1,40.2.9a3.109,3.109,0,0,0-4.375,0,11.655,11.655,0,0,1-8.188,3.353H18.486a3.118,3.118,0,0,0-3.114,3.114V19.239a30.808,30.808,0,0,0,6.136,18.539,31.187,31.187,0,0,0,6.872,6.742,30.922,30.922,0,0,0,8.7,4.351,3.068,3.068,0,0,0,1.855,0,30.926,30.926,0,0,0,7.192-3.339A11.9,11.9,0,0,0,59.5,27.626ZM49.543,26.54a7.591,7.591,0,1,1-7.591,7.591A7.6,7.6,0,0,1,49.543,26.54Zm0,18.054a10.467,10.467,0,0,1-10.38-9.153,12.151,12.151,0,0,0,1.42-.218,9.027,9.027,0,1,0,9.465-10.1,12.274,12.274,0,0,0,.127-1.431,10.463,10.463,0,0,1-.632,20.906Z" transform="translate(-15.372 -0.001)"/>
        <path id="Trazado_1295717" data-name="Trazado 1295717" d="M208.3,194.735a.718.718,0,0,0-.718.718v1.083a.718.718,0,0,0,1.436,0v-1.083A.718.718,0,0,0,208.3,194.735Z" transform="translate(-189.182 -176.093)"/>
        <path id="Trazado_1295718" data-name="Trazado 1295718" d="M282.539,196.536v-1.083a.718.718,0,1,0-1.436,0v1.083a.718.718,0,0,0,1.436,0Z" transform="translate(-255.665 -176.093)"/>
        <path id="Trazado_1295719" data-name="Trazado 1295719" d="M216.716,255.758a2.569,2.569,0,0,1-5.113,0,.718.718,0,0,0-1.429.14,4.005,4.005,0,0,0,7.971,0,.718.718,0,1,0-1.429-.14Z" transform="translate(-191.522 -230.688)"/>
        <path id="Trazado_1295720" data-name="Trazado 1295720" d="M316.424,322.85a2.044,2.044,0,0,0,1.484-.631l4.789-4.973a1.2,1.2,0,0,0-.032-1.693l-1.243-1.2a1.2,1.2,0,0,0-1.693.032l-3.375,3.5-1.968-1.856a1.2,1.2,0,0,0-1.692.05l-1.184,1.255a1.2,1.2,0,0,0,.05,1.693l3.451,3.255A2.052,2.052,0,0,0,316.424,322.85Zm-2.849-5.605,1.966,1.854a1.2,1.2,0,0,0,1.684-.041l3.373-3.5.9.866-4.624,4.8a.624.624,0,0,1-.878.021l-3.278-3.091Z" transform="translate(-282.867 -283.961)"/>
      </g>
    </g>
  </g>
</svg>
