<svg xmlns="http://www.w3.org/2000/svg" xmlns:xlink="http://www.w3.org/1999/xlink" width="113" height="113" viewBox="0 0 113 113">
  <defs>
    <filter id="Trazado_982547" x="0" y="0" width="113" height="113" filterUnits="userSpaceOnUse">
      <feOffset dy="3" input="SourceAlpha"/>
      <feGaussianBlur stdDeviation="3" result="blur"/>
      <feFlood flood-opacity="0.161"/>
      <feComposite operator="in" in2="blur"/>
      <feComposite in="SourceGraphic"/>
    </filter>
  </defs>
  <g id="Grupo_1241532" data-name="Grupo 1241532" transform="translate(-900.5 -1736.813)">
    <g id="Grupo_1241080" data-name="Grupo 1241080" transform="translate(545.156 -10946.354)">
      <g id="Grupo_1240425" data-name="Grupo 1240425" transform="translate(364.344 12689.168)">
        <g id="Grupo_1239772" data-name="Grupo 1239772" transform="translate(0 0)">
          <g id="Grupo_1236602" data-name="Grupo 1236602">
            <g id="Grupo_1236144" data-name="Grupo 1236144">
              <g id="Grupo_1235105" data-name="Grupo 1235105">
                <g id="Grupo_1223793" data-name="Grupo 1223793">
                  <g id="Grupo_1208028" data-name="Grupo 1208028">
                    <g id="Grupo_1177675" data-name="Grupo 1177675">
                      <g id="Grupo_1176928" data-name="Grupo 1176928" transform="translate(0)">
                        <g id="Grupo_1172322" data-name="Grupo 1172322">
                          <g id="Grupo_1164700" data-name="Grupo 1164700">
                            <g id="Grupo_1160931" data-name="Grupo 1160931">
                              <g id="Grupo_1160749" data-name="Grupo 1160749">
                                <g id="Grupo_1158891" data-name="Grupo 1158891">
                                  <g id="Grupo_1157406" data-name="Grupo 1157406">
                                    <g id="Grupo_1155793" data-name="Grupo 1155793">
                                      <g id="Grupo_1154704" data-name="Grupo 1154704">
                                        <g id="Grupo_1150790" data-name="Grupo 1150790">
                                          <g id="Grupo_1154214" data-name="Grupo 1154214" transform="translate(0)">
                                            <g id="Grupo_1152583" data-name="Grupo 1152583">
                                              <g id="Grupo_1146973" data-name="Grupo 1146973">
                                                <g id="Grupo_1146954" data-name="Grupo 1146954">
                                                  <g transform="matrix(1, 0, 0, 1, -9, -6)" filter="url(#Trazado_982547)">
                                                    <g id="Trazado_982547-2" data-name="Trazado 982547" transform="translate(9 6)" fill="#c4e3df">
                                                      <path d="M 47.50000762939453 93.49986267089844 C 41.28937911987305 93.49986267089844 35.26534271240234 92.28383636474609 29.59519386291504 89.88558197021484 C 24.11772727966309 87.56880950927734 19.19814109802246 84.25183868408203 14.97310066223145 80.02679443359375 C 10.74804782867432 75.8017578125 7.431074142456055 70.88218688964844 5.114300727844238 65.40471649169922 C 2.716034412384033 59.73458480834961 1.500007629394531 53.71054458618164 1.500007629394531 47.49993133544922 C 1.500007629394531 41.2893180847168 2.716034412384033 35.26527786254883 5.114300727844238 29.59514427185059 C 7.431074142456055 24.11767768859863 10.74804782867432 19.19810485839844 14.97310066223145 14.97306442260742 C 19.19814109802246 10.74802494049072 24.11772727966309 7.431051254272461 29.59519386291504 5.114277839660645 C 35.26534271240234 2.71602463722229 41.28937911987305 1.499997973442078 47.50000762939453 1.499997973442078 C 53.71063613891602 1.499997973442078 59.73467254638672 2.71602463722229 65.40482330322266 5.114277839660645 C 70.88228607177734 7.431051254272461 75.80187225341797 10.74802494049072 80.02691650390625 14.97306442260742 C 84.25196838378906 19.19810485839844 87.56893920898438 24.11767768859863 89.88571166992188 29.59514427185059 C 92.28398132324219 35.26527786254883 93.50000762939453 41.2893180847168 93.50000762939453 47.49993133544922 C 93.50000762939453 53.71054458618164 92.28398132324219 59.73458480834961 89.88571166992188 65.40471649169922 C 87.56893920898438 70.88218688964844 84.25196838378906 75.8017578125 80.02691650390625 80.02679443359375 C 75.80187225341797 84.25183868408203 70.88228607177734 87.56880950927734 65.40482330322266 89.88558197021484 C 59.73467254638672 92.28383636474609 53.71063613891602 93.49986267089844 47.50000762939453 93.49986267089844 Z" stroke="none"/>
                                                      <path d="M 47.50000762939453 2.999992370605469 C 41.4912223815918 2.999992370605469 35.66377639770508 4.1761474609375 30.17951202392578 6.495796203613281 C 24.88085174560547 8.736930847167969 20.12152862548828 11.94596099853516 16.03376007080078 16.03372955322266 C 11.94597625732422 20.12148284912109 8.736961364746094 24.88080596923828 6.495803833007812 30.17946624755859 C 4.176162719726562 35.66371536254883 3.000007629394531 41.49116134643555 3.000007629394531 47.49993133544922 C 3.000007629394531 53.50870132446289 4.176162719726562 59.33614730834961 6.495803833007812 64.82038879394531 C 8.736961364746094 70.11905670166016 11.94597625732422 74.87836456298828 16.03376007080078 78.96613311767578 C 20.12152862548828 83.05390167236328 24.88085174560547 86.26291656494141 30.17951202392578 88.50406646728516 C 35.66377639770508 90.82369995117188 41.4912223815918 91.99985504150391 47.50000762939453 91.99985504150391 C 53.50879287719727 91.99985504150391 59.33623886108398 90.82369995117188 64.82049560546875 88.50406646728516 C 70.11916351318359 86.26291656494141 74.87848663330078 83.05390167236328 78.96625518798828 78.96613311767578 C 83.05403900146484 74.87836456298828 86.26305389404297 70.11905670166016 88.50421142578125 64.82038879394531 C 90.8238525390625 59.33614730834961 92.00000762939453 53.50870132446289 92.00000762939453 47.49993133544922 C 92.00000762939453 41.49116134643555 90.8238525390625 35.66371536254883 88.50421142578125 30.17946624755859 C 86.26305389404297 24.88080596923828 83.05403900146484 20.12148284912109 78.96625518798828 16.03372955322266 C 74.87848663330078 11.94596099853516 70.11916351318359 8.736930847167969 64.82049560546875 6.495796203613281 C 59.33623886108398 4.1761474609375 53.50879287719727 2.999992370605469 47.50000762939453 2.999992370605469 M 47.50000762939453 -7.62939453125e-06 C 73.73352813720703 -7.62939453125e-06 95.00000762939453 21.26644134521484 95.00000762939453 47.49993133544922 C 95.00000762939453 73.73342132568359 73.73352813720703 94.99985504150391 47.50000762939453 94.99985504150391 C 21.26648712158203 94.99985504150391 7.62939453125e-06 73.73342132568359 7.62939453125e-06 47.49993133544922 C 7.62939453125e-06 21.26644134521484 21.26648712158203 -7.62939453125e-06 47.50000762939453 -7.62939453125e-06 Z" stroke="none" fill="#41a599"/>
                                                    </g>
                                                  </g>
                                                </g>
                                              </g>
                                            </g>
                                          </g>
                                        </g>
                                      </g>
                                    </g>
                                  </g>
                                </g>
                              </g>
                            </g>
                          </g>
                        </g>
                      </g>
                    </g>
                  </g>
                </g>
              </g>
            </g>
          </g>
        </g>
      </g>
    </g>
    <g id="Filled_outline" data-name="Filled outline" transform="translate(859.442 1739.234)">
      <path id="Trazado_1295855" data-name="Trazado 1295855" d="M82.266,240v2.266l-1.5,2.257A4.532,4.532,0,0,0,80,247.038v11.092h0a4.532,4.532,0,0,0,4.532-4.532V240Z" transform="translate(-6.869 -192.273)" fill="#91563a"/>
      <path id="Trazado_1295856" data-name="Trazado 1295856" d="M95.863,174.8v5.665H85.182A5.153,5.153,0,0,1,80,175.5a5.1,5.1,0,0,1,5.1-5.237h.567L87.931,168l1.133,2.266h1.7a1.7,1.7,0,0,1,1.7,1.7V174.8Z" transform="translate(-6.869 -130.471)" fill="#fdc8a2"/>
      <path id="Trazado_1295857" data-name="Trazado 1295857" d="M87.925,195.545H85.092a5.1,5.1,0,0,1-1.49-9.975C85.419,187.678,86.792,191.013,87.925,195.545Z" transform="translate(-6.862 -145.553)" fill="#91563a"/>
      <path id="Trazado_1295858" data-name="Trazado 1295858" d="M151.418,280a6.554,6.554,0,0,0-6.544,6.917l1,18.011h5.665v-17H169.67a5.665,5.665,0,0,0,5.665-5.665V280Z" transform="translate(-62.547 -226.608)" fill="#91563a"/>
      <path id="Trazado_1295859" data-name="Trazado 1295859" d="M131.4,456l-2.742,1.828a1.476,1.476,0,0,0-.657,1.228h0a1.476,1.476,0,0,0,1.476,1.476h7.589V456Z" transform="translate(-48.071 -377.68)" fill="#fdc8a2"/>
      <path id="Trazado_1295860" data-name="Trazado 1295860" d="M190.73,60.259l1.133-2.266-1.491.746a14.411,14.411,0,0,1-6.44,1.52V85.187a2.266,2.266,0,0,1-2.266,2.266h-1.133a2.266,2.266,0,0,1-2.266-2.266V82.921H176V81.788l2.266-2.266V31.932L176,29.665V28.532h2.266V26.266A2.266,2.266,0,0,1,180.532,24h1.133a2.266,2.266,0,0,1,2.266,2.266V48.928h6.8a11.331,11.331,0,0,1,11.331,11.331Z" transform="translate(-89.272 -6.867)" fill="#fdc8a2"/>
      <path id="Trazado_1295861" data-name="Trazado 1295861" d="M212.476,175.851a11.3,11.3,0,0,0-8.012-3.319h-6.8V168H192v20.4h5.665v-4.532a14.409,14.409,0,0,0,6.439-1.519l1.493-.747,9.255-2.266A11.363,11.363,0,0,0,212.476,175.851Z" transform="translate(-103.006 -130.471)" fill="#7eb357"/>
      <path id="Trazado_1295862" data-name="Trazado 1295862" d="M266.266,387.331l6.8-2.266V376H277.6v9.065l6.8,2.266a2.266,2.266,0,1,1-2.266,2.266h-13.6a2.266,2.266,0,1,1-2.266-2.266Z" transform="translate(-164.808 -309.011)" fill="#dfdfdd"/>
      <path id="Trazado_1295863" data-name="Trazado 1295863" d="M254.662,219.263v-16.43A2.833,2.833,0,0,1,257.495,200h0a2.833,2.833,0,0,1,2.833,2.833V222.1a2.833,2.833,0,0,1-2.833,2.833H234.833A2.833,2.833,0,0,1,232,222.1h0a2.833,2.833,0,0,1,2.833-2.833Z" transform="translate(-137.34 -157.939)" fill="#34507b"/>
      <rect id="Rectángulo_424282" data-name="Rectángulo 424282" width="4.132" height="3.099" transform="translate(108.153 66.618)" fill="#d8d8d6"/>
      <path id="Trazado_1295864" data-name="Trazado 1295864" d="M124.12,48.86V44.894a3.966,3.966,0,1,0-7.932,0v15.3h-4a6.77,6.77,0,0,0,1.737-4.532c0-4.2-.541-7.968-3.651-11.08a12.388,12.388,0,0,0-8.813-3.65H95.793V19.4a3.4,3.4,0,0,0-3.4-3.4H91.26a3.4,3.4,0,0,0-3.4,3.4v1.133H86.728a1.133,1.133,0,0,0-1.133,1.133V22.8a1.133,1.133,0,0,0,.332.8l1.934,1.934v17.66H86.728v-1.7A2.836,2.836,0,0,0,83.9,38.662h-1l-.82-1.64a1.133,1.133,0,0,0-1.815-.294l-1.934,1.934h-.1a6.234,6.234,0,0,0-4.406,1.824l1.6,1.6a4,4,0,0,1,.955-.7,23.59,23.59,0,0,1,3.213,7.473H78.313A4.034,4.034,0,0,1,74.265,45a3.977,3.977,0,0,1,.439-1.927l-2.013-1.041a6.169,6.169,0,0,0,1.57,7.618l-1.313,1.969A5.646,5.646,0,0,0,72,54.764V65.856a1.133,1.133,0,0,0,1.133,1.133A5.672,5.672,0,0,0,78.8,61.324V52.4H76.53v8.923a3.405,3.405,0,0,1-2.266,3.205V54.764a3.389,3.389,0,0,1,.57-1.885l1.4-2.106a6.286,6.286,0,0,0,2.075.353h9.548v1.2A7.68,7.68,0,0,0,81.2,60.373l.964,17.365-2.2,1.469a2.609,2.609,0,0,0,1.447,4.779h7.589V81.719H81.405a.346.346,0,0,1-.19-.628l2.457-1.638h1.923V77.187H84.4l-.94-16.941a5.415,5.415,0,0,1,4.4-5.623V72.186L85.927,74.12a1.133,1.133,0,0,0-.332.8v1.133a1.133,1.133,0,0,0,1.133,1.133h1.133V78.32a3.4,3.4,0,0,0,3.4,3.4h1.133a3.4,3.4,0,0,0,3.4-3.4V67.739a3.943,3.943,0,0,0,1.7.383h9.631v7.115l-5.867,1.956a3.4,3.4,0,1,0,3.407,4.526h11.719a3.4,3.4,0,1,0,3.407-4.526l-5.867-1.956V70.105h-2.266v5.949a1.133,1.133,0,0,0,.775,1.075l6.8,2.266a1.137,1.137,0,0,0,.358.058,1.133,1.133,0,1,1-1.133,1.133,1.133,1.133,0,0,0-1.133-1.133h-13.6a1.133,1.133,0,0,0-1.133,1.133,1.133,1.133,0,1,1-1.133-1.133,1.137,1.137,0,0,0,.358-.058l6.8-2.266a1.133,1.133,0,0,0,.775-1.075V68.122h10.764a3.97,3.97,0,0,0,3.966-3.966V50.984h-2.266V64.156a1.7,1.7,0,0,1-1.7,1.7H97.492a1.7,1.7,0,1,1,0-3.4h19.829a1.133,1.133,0,0,0,1.133-1.133V44.894a1.7,1.7,0,0,1,3.4,0V48.86Zm-36.259,0h-5.92A29.174,29.174,0,0,0,78.8,40.928,1.133,1.133,0,0,0,79.6,40.6l1.155-1.155.43.86a1.133,1.133,0,0,0,1.013.626h1.7a.567.567,0,0,1,.567.567v2.833a1.133,1.133,0,0,0,1.133,1.133h2.266ZM111.147,50.2a10.136,10.136,0,0,1,.447,2.062h-8.3l.079-.157ZM88.994,22.8a1.133,1.133,0,0,0,1.133-1.133V19.4a1.134,1.134,0,0,1,1.133-1.133h1.133A1.134,1.134,0,0,1,93.526,19.4v17h-3.4V25.065a1.133,1.133,0,0,0-.332-.8L88.33,22.8ZM93.526,78.32a1.134,1.134,0,0,1-1.133,1.133H91.26a1.134,1.134,0,0,1-1.133-1.133V76.054a1.133,1.133,0,0,0-1.133-1.133H88.33L89.8,73.456a1.133,1.133,0,0,0,.332-.8v-13.6h3.4ZM94.66,52.259a1.133,1.133,0,0,0-1.133,1.133v3.4h-3.4V38.662h3.4v3.4a1.133,1.133,0,0,0,1.133,1.133h6.8a10.136,10.136,0,0,1,7.211,2.986,10.273,10.273,0,0,1,1.509,1.921c-3.3.807-6.514,1.221-9.585,2.757A13.282,13.282,0,0,1,94.66,52.259Zm1.133,7.932V54.525h15.863v1.133a4.537,4.537,0,0,1-4.532,4.532Z" transform="translate(0)"/>
    </g>
  </g>
</svg>
