<svg xmlns="http://www.w3.org/2000/svg" xmlns:xlink="http://www.w3.org/1999/xlink" width="93" height="93" viewBox="0 0 93 93">
  <defs>
    <filter id="Trazado_982547" x="0" y="0" width="93" height="93" filterUnits="userSpaceOnUse">
      <feOffset dy="3" input="SourceAlpha"/>
      <feGaussianBlur stdDeviation="3" result="blur"/>
      <feFlood flood-opacity="0.161"/>
      <feComposite operator="in" in2="blur"/>
      <feComposite in="SourceGraphic"/>
    </filter>
  </defs>
  <g id="Grupo_1241750" data-name="Grupo 1241750" transform="translate(-825 -1875)">
    <g id="Grupo_1241144" data-name="Grupo 1241144" transform="translate(834 1881)">
      <g id="Grupo_1233829" data-name="Grupo 1233829" transform="translate(0 0)">
        <g id="Grupo_1209736" data-name="Grupo 1209736">
          <g id="Grupo_1209036" data-name="Grupo 1209036" transform="translate(0 0)">
            <g id="Grupo_1208891" data-name="Grupo 1208891" transform="translate(0)">
              <g id="Grupo_1177675" data-name="Grupo 1177675" transform="translate(0 0)">
                <g id="Grupo_1176928" data-name="Grupo 1176928" transform="translate(0 0)">
                  <g id="Grupo_1172322" data-name="Grupo 1172322">
                    <g id="Grupo_1164700" data-name="Grupo 1164700">
                      <g id="Grupo_1160931" data-name="Grupo 1160931">
                        <g id="Grupo_1160749" data-name="Grupo 1160749">
                          <g id="Grupo_1158891" data-name="Grupo 1158891">
                            <g id="Grupo_1157406" data-name="Grupo 1157406">
                              <g id="Grupo_1155793" data-name="Grupo 1155793">
                                <g id="Grupo_1154704" data-name="Grupo 1154704">
                                  <g id="Grupo_1150790" data-name="Grupo 1150790">
                                    <g id="Grupo_1154214" data-name="Grupo 1154214">
                                      <g id="Grupo_1152583" data-name="Grupo 1152583">
                                        <g id="Grupo_1146973" data-name="Grupo 1146973">
                                          <g id="Grupo_1146954" data-name="Grupo 1146954">
                                            <g transform="matrix(1, 0, 0, 1, -9, -6)" filter="url(#Trazado_982547)">
                                              <g id="Trazado_982547-2" data-name="Trazado 982547" transform="translate(9 6)" fill="#fef7ea">
                                                <path d="M 37.49999237060547 73.49986267089844 C 32.63936996459961 73.49986267089844 27.92492485046387 72.54824066162109 23.48763656616211 70.67143249511719 C 19.20095825195312 68.85832214355469 15.35081481933594 66.26239013671875 12.04415893554688 62.95573043823242 C 8.737492561340332 59.64907455444336 6.14155912399292 55.79894256591797 4.328447818756104 51.51226425170898 C 2.45162558555603 47.07498550415039 1.500003457069397 42.36055374145508 1.500003457069397 37.49993133544922 C 1.500003457069397 32.63930892944336 2.45162558555603 27.92487525939941 4.328447818756104 23.48759841918945 C 6.14155912399292 19.20092010498047 8.737492561340332 15.35078716278076 12.04415893554688 12.0441312789917 C 15.35081481933594 8.737475395202637 19.20095825195312 6.141542434692383 23.48763656616211 4.328431129455566 C 27.92492485046387 2.45162034034729 32.63936996459961 1.499997973442078 37.49999237060547 1.499997973442078 C 42.36061477661133 1.499997973442078 47.07505798339844 2.45162034034729 51.51234817504883 4.328431129455566 C 55.79902648925781 6.141542434692383 59.649169921875 8.737475395202637 62.95582580566406 12.0441312789917 C 66.26248931884766 15.35078716278076 68.85842895507812 19.20092010498047 70.67153930664062 23.48759841918945 C 72.54836273193359 27.92487525939941 73.49998474121094 32.63930892944336 73.49998474121094 37.49993133544922 C 73.49998474121094 42.36055374145508 72.54836273193359 47.07498550415039 70.67153930664062 51.51226425170898 C 68.85842895507812 55.79894256591797 66.26248931884766 59.64907455444336 62.95582580566406 62.95573043823242 C 59.649169921875 66.26239013671875 55.79902648925781 68.85832214355469 51.51234817504883 70.67143249511719 C 47.07505798339844 72.54824066162109 42.36061477661133 73.49986267089844 37.49999237060547 73.49986267089844 Z" stroke="none"/>
                                                <path d="M 37.49999237060547 2.999992370605469 C 32.84120559692383 2.999992370605469 28.32336807250977 3.911758422851562 24.07196807861328 5.709945678710938 C 19.96409225463867 7.447418212890625 16.27420425415039 9.935409545898438 13.10481643676758 13.10479354858398 C 9.935432434082031 16.2741813659668 7.447441101074219 19.96405792236328 5.709953308105469 24.07191848754883 C 3.911766052246094 28.32331848144531 3.000007629394531 32.84114456176758 3.000007629394531 37.49993133544922 C 3.000007629394531 42.15870666503906 3.911766052246094 46.67654418945312 5.709953308105469 50.92793273925781 C 7.447441101074219 55.03580474853516 9.935432434082031 58.72568130493164 13.10481643676758 61.89505767822266 C 16.27420425415039 65.06444549560547 19.96409225463867 67.55242919921875 24.07196807861328 69.28990936279297 C 28.32336807250977 71.08809661865234 32.84120559692383 71.99985504150391 37.49999237060547 71.99985504150391 C 42.15877914428711 71.99985504150391 46.67661666870117 71.08809661865234 50.92801666259766 69.28990936279297 C 55.03589248657227 67.55242919921875 58.72578048706055 65.06444549560547 61.89516830444336 61.89505767822266 C 65.06455230712891 58.72568130493164 67.55254364013672 55.03580474853516 69.29003143310547 50.92793273925781 C 71.08821868896484 46.67654418945312 71.99997711181641 42.15870666503906 71.99997711181641 37.49993133544922 C 71.99997711181641 32.84114456176758 71.08821868896484 28.32331848144531 69.29003143310547 24.07191848754883 C 67.55254364013672 19.96405792236328 65.06455230712891 16.2741813659668 61.89516830444336 13.10479354858398 C 58.72578048706055 9.935409545898438 55.03589248657227 7.447418212890625 50.92801666259766 5.709945678710938 C 46.67661666870117 3.911758422851562 42.15877914428711 2.999992370605469 37.49999237060547 2.999992370605469 M 37.49999237060547 -7.62939453125e-06 C 58.21065521240234 -7.62939453125e-06 74.99997711181641 16.7892951965332 74.99997711181641 37.49993133544922 C 74.99997711181641 58.2105712890625 58.21065521240234 74.99985504150391 37.49999237060547 74.99985504150391 C 16.78932952880859 74.99985504150391 7.62939453125e-06 58.2105712890625 7.62939453125e-06 37.49993133544922 C 7.62939453125e-06 16.7892951965332 16.78932952880859 -7.62939453125e-06 37.49999237060547 -7.62939453125e-06 Z" stroke="none" fill="#896521"/>
                                              </g>
                                            </g>
                                          </g>
                                        </g>
                                      </g>
                                    </g>
                                  </g>
                                </g>
                              </g>
                            </g>
                          </g>
                        </g>
                      </g>
                    </g>
                  </g>
                </g>
              </g>
            </g>
          </g>
        </g>
      </g>
    </g>
    <g id="cronograma-del-proyecto" transform="translate(827.505 1878.491)">
      <g id="Grupo_1241749" data-name="Grupo 1241749" transform="translate(20.43 16.004)">
        <path id="Trazado_1297062" data-name="Trazado 1297062" d="M52.935,33.1c.3,0,.539-.042.744.166l1.077,1.077a.548.548,0,0,1,.161.388v2A12.08,12.08,0,0,1,58.465,38.2l1.413-1.412a.545.545,0,0,1,.389-.161H61.8a.543.543,0,0,1,.393.166l1.679,1.678a.548.548,0,0,1,.161.388v1.53a.547.547,0,0,1-.166.393l-1.408,1.408a12.059,12.059,0,0,1,1.471,3.548h2a.543.543,0,0,1,.393.166L67.4,46.975a.549.549,0,0,1,.161.389v2.381a.551.551,0,0,1-.166.394l-1.08,1.072a.551.551,0,0,1-.389.161h-2a12.059,12.059,0,0,1-1.471,3.548l1.413,1.413a.548.548,0,0,1,.161.388v1.529a.55.55,0,0,1-.166.394L62.18,60.323a.545.545,0,0,1-.435.159H60.267a.546.546,0,0,1-.388-.16l-1.414-1.409a12.091,12.091,0,0,1-3.547,1.471v2a.549.549,0,0,1-.166.393l-1.077,1.075a.547.547,0,0,1-.388.16H50.9a.547.547,0,0,1-.393-.166L49.435,62.77a.548.548,0,0,1-.161-.388v-2a12.086,12.086,0,0,1-3.548-1.468l-1.412,1.412a.545.545,0,0,1-.389.161H42.392A.547.547,0,0,1,42,60.32L40.44,58.762H22.672A2.248,2.248,0,0,1,20.43,56.52V21.285a2.248,2.248,0,0,1,2.243-2.243h7.563a1.369,1.369,0,0,1,1.246-.808h1.9a.243.243,0,0,0,.238-.163,3.3,3.3,0,0,1,6.119,0,.243.243,0,0,0,.238.163h1.9a1.368,1.368,0,0,1,1.245.808h7.571a2.248,2.248,0,0,1,2.242,2.243Z" transform="translate(-20.43 -16.004)" fill-rule="evenodd"/>
        <path id="Trazado_1297063" data-name="Trazado 1297063" d="M138.929,29.222h-1.9a1.336,1.336,0,0,1-1.264-.881,2.206,2.206,0,0,0-4.067,0,1.334,1.334,0,0,1-1.263.881h-1.9a.268.268,0,0,0-.274.27v2.543a.268.268,0,0,0,.266.265h10.4a.267.267,0,0,0,.265-.265V29.492a.267.267,0,0,0-.264-.27Z" transform="translate(-117.474 -25.891)" fill="#ffb432" fill-rule="evenodd"/>
        <path id="Trazado_1297064" data-name="Trazado 1297064" d="M203.541,202.006a11.083,11.083,0,0,0-1.874,1,.549.549,0,0,1-.728-.044l-1.563-1.563H198.3l-1.361,1.361v1.074L198.5,205.4a.547.547,0,0,1,.067.686,11.044,11.044,0,0,0-1.02,1.909,10.917,10.917,0,0,0-.621,2.041.55.55,0,0,1-.544.468h-2.215l-.759.759v1.926l.759.759h2.21a.549.549,0,0,1,.539.444,11.018,11.018,0,0,0,1.623,3.94.549.549,0,0,1-.043.728l-1.564,1.564V221.7l1.361,1.361h1.075l1.563-1.563a.547.547,0,0,1,.692-.068,11.02,11.02,0,0,0,3.951,1.641.55.55,0,0,1,.468.544v2.21l.76.759h1.925l.759-.759v-2.211a.549.549,0,0,1,.444-.539,11,11,0,0,0,3.939-1.623.551.551,0,0,1,.729.044l1.571,1.57h1.07l1.363-1.363v-1.074l-1.563-1.564a.547.547,0,0,1-.067-.692,11.112,11.112,0,0,0,1.02-1.909,10.992,10.992,0,0,0,.621-2.041.549.549,0,0,1,.543-.468h2.214l.76-.759v-1.927l-.76-.759h-2.211a.549.549,0,0,1-.539-.443,10.993,10.993,0,0,0-1.622-3.94.549.549,0,0,1,.043-.728l1.563-1.564v-1.075l-1.361-1.361h-1.074l-1.563,1.563a.549.549,0,0,1-.693.068,11,11,0,0,0-3.954-1.643.55.55,0,0,1-.468-.544v-2.211l-.759-.759h-1.925l-.76.759v2.211a.549.549,0,0,1-.444.539,10.921,10.921,0,0,0-2.065.626Zm4.231,1.478a8.748,8.748,0,1,1-8.747,8.748,8.748,8.748,0,0,1,8.747-8.748Z" transform="translate(-176.108 -179.679)" fill="#1e99ec" fill-rule="evenodd"/>
        <path id="Trazado_1297065" data-name="Trazado 1297065" d="M50.052,94.894v-.939c0-.256.142-.37.3-.524H33.433a.55.55,0,0,1-.55-.55v-33.5a.549.549,0,0,1,.55-.549h6.573V57.37H32.563a1.148,1.148,0,0,0-1.143,1.143V93.75a1.149,1.149,0,0,0,1.143,1.143Z" transform="translate(-30.321 -53.232)" fill="#434b62" fill-rule="evenodd"/>
        <path id="Trazado_1297066" data-name="Trazado 1297066" d="M255.694,70.629c.162-.162.275-.305.532-.305h.931V58.513a1.147,1.147,0,0,0-1.142-1.143H248.57v1.463h6.575a.549.549,0,0,1,.549.549Z" transform="translate(-225.751 -53.232)" fill="#434b62" fill-rule="evenodd"/>
        <path id="Trazado_1297067" data-name="Trazado 1297067" d="M78.638,98.49a12.086,12.086,0,0,1,3.548-1.471V83H76.042a1.368,1.368,0,0,1-1.245.808h-10.4A1.369,1.369,0,0,1,63.147,83H57v32.4H74.47l.178-.178a12.088,12.088,0,0,1-1.472-3.548h-2a.547.547,0,0,1-.394-.166l-1.076-1.076a.546.546,0,0,1-.161-.389V107.66a.546.546,0,0,1,.166-.394l1.076-1.076a.545.545,0,0,1,.389-.161h2a12.088,12.088,0,0,1,1.472-3.548l-1.413-1.413a.548.548,0,0,1-.161-.388v-1.53a.549.549,0,0,1,.166-.393l1.678-1.678a.546.546,0,0,1,.389-.161h1.529a.547.547,0,0,1,.394.166ZM59.418,87.481h4.531a.55.55,0,0,1,.55.55v4.531a.55.55,0,0,1-.55.55H59.418a.549.549,0,0,1-.549-.55V88.031A.55.55,0,0,1,59.418,87.481Zm0,9.3h4.531a.549.549,0,0,1,.55.549v4.531a.55.55,0,0,1-.55.55H59.418a.549.549,0,0,1-.549-.55V97.332A.549.549,0,0,1,59.418,96.783Zm0,9.3h4.531a.549.549,0,0,1,.55.549v4.531a.55.55,0,0,1-.55.55H59.418a.549.549,0,0,1-.549-.55v-4.531a.549.549,0,0,1,.549-.549ZM66.852,98.3a.55.55,0,1,1,0-1.1h4.672a.55.55,0,1,1,0,1.1Zm0,3.687a.55.55,0,1,1,0-1.1h4.672a.55.55,0,0,1,0,1.1Zm0-12.992a.55.55,0,0,1,0-1.1h12.98a.55.55,0,0,1,0,1.1Zm0,3.686a.55.55,0,0,1,0-1.1h12.98a.55.55,0,0,1,0,1.1Z" transform="translate(-53.342 -76.299)" fill="#efeff0" fill-rule="evenodd"/>
        <path id="Trazado_1297068" data-name="Trazado 1297068" d="M273.593,267.211a7.649,7.649,0,1,0,0,10.816A7.649,7.649,0,0,0,273.593,267.211Zm-5.957-1a.55.55,0,0,1,1.1,0v.363a.55.55,0,1,1-1.1,0v-.364Zm-4.371,2.264a.55.55,0,0,1,.777-.777l.257.257a.55.55,0,0,1-.777.778Zm-1.489,4.694a.55.55,0,1,1,0-1.1h.364a.55.55,0,0,1,0,1.1Zm2.267,4.371a.55.55,0,1,1-.777-.777l.257-.258a.55.55,0,0,1,.777.778Zm4.693,1.488a.55.55,0,1,1-1.1,0v-.364a.55.55,0,0,1,1.1,0Zm4.371-2.266a.55.55,0,1,1-.777.777l-.257-.257a.55.55,0,0,1,.777-.778Zm-.777-9.065a.55.55,0,0,1,.777.777l-.257.258a.55.55,0,0,1-.777-.778Zm-4.693,1.342a.55.55,0,0,1,1.1,0v3.351l2.892,2.893a.55.55,0,1,1-.777.777l-3.048-3.049a.543.543,0,0,1-.166-.393V269.04Zm6.96,3.029a.55.55,0,0,1,0,1.1h-.364a.55.55,0,0,1,0-1.1Z" transform="translate(-236.519 -240.068)" fill="#1cd9ed" fill-rule="evenodd"/>
      </g>
      <path id="Trazado_1297069" data-name="Trazado 1297069" d="M86.67,138.8H90.1v3.432H86.67Z" transform="translate(-59.615 -110.514)" fill="#24809d"/>
      <path id="Trazado_1297070" data-name="Trazado 1297070" d="M86.67,231.83H90.1v3.432H86.67Z" transform="translate(-59.615 -194.239)" fill="#ffa71b"/>
      <path id="Trazado_1297071" data-name="Trazado 1297071" d="M86.67,324.86H90.1v3.432H86.67Z" transform="translate(-59.615 -277.964)" fill="#f3585c"/>
    </g>
  </g>
</svg>
