<svg xmlns="http://www.w3.org/2000/svg" xmlns:xlink="http://www.w3.org/1999/xlink" width="113" height="113" viewBox="0 0 113 113">
  <defs>
    <filter id="Trazado_982547" x="0" y="0" width="113" height="113" filterUnits="userSpaceOnUse">
      <feOffset dy="3" input="SourceAlpha"/>
      <feGaussianBlur stdDeviation="3" result="blur"/>
      <feFlood flood-opacity="0.161"/>
      <feComposite operator="in" in2="blur"/>
      <feComposite in="SourceGraphic"/>
    </filter>
  </defs>
  <g id="Grupo_1241534" data-name="Grupo 1241534" transform="translate(-1215.5 -1736.813)">
    <g id="Grupo_1241081" data-name="Grupo 1241081" transform="translate(545.01 -10946.354)">
      <g id="Grupo_1240427" data-name="Grupo 1240427" transform="translate(679.49 12689.167)">
        <g id="Grupo_1239780" data-name="Grupo 1239780" transform="translate(0 0)">
          <g id="Grupo_1236603" data-name="Grupo 1236603">
            <g id="Grupo_1236145" data-name="Grupo 1236145">
              <g id="Grupo_1235107" data-name="Grupo 1235107">
                <g id="Grupo_1223796" data-name="Grupo 1223796">
                  <g id="Grupo_1208038" data-name="Grupo 1208038">
                    <g id="Grupo_1202104" data-name="Grupo 1202104">
                      <g id="Grupo_1201923" data-name="Grupo 1201923">
                        <g id="Grupo_1176928" data-name="Grupo 1176928" transform="translate(0)">
                          <g id="Grupo_1172322" data-name="Grupo 1172322">
                            <g id="Grupo_1164700" data-name="Grupo 1164700">
                              <g id="Grupo_1160931" data-name="Grupo 1160931">
                                <g id="Grupo_1160749" data-name="Grupo 1160749">
                                  <g id="Grupo_1158891" data-name="Grupo 1158891">
                                    <g id="Grupo_1157406" data-name="Grupo 1157406">
                                      <g id="Grupo_1155793" data-name="Grupo 1155793">
                                        <g id="Grupo_1154704" data-name="Grupo 1154704">
                                          <g id="Grupo_1150790" data-name="Grupo 1150790">
                                            <g id="Grupo_1154214" data-name="Grupo 1154214" transform="translate(0)">
                                              <g id="Grupo_1152583" data-name="Grupo 1152583">
                                                <g id="Grupo_1146973" data-name="Grupo 1146973">
                                                  <g id="Grupo_1146954" data-name="Grupo 1146954">
                                                    <g transform="matrix(1, 0, 0, 1, -9, -6)" filter="url(#Trazado_982547)">
                                                      <g id="Trazado_982547-2" data-name="Trazado 982547" transform="translate(9 6)" fill="#c4e3df">
                                                        <path d="M 47.50000762939453 93.49986267089844 C 41.28937911987305 93.49986267089844 35.26534271240234 92.28383636474609 29.59519386291504 89.88558197021484 C 24.11772727966309 87.56880950927734 19.19814109802246 84.25183868408203 14.97310066223145 80.02679443359375 C 10.74804782867432 75.8017578125 7.431074142456055 70.88218688964844 5.114300727844238 65.40471649169922 C 2.716034412384033 59.73458480834961 1.500007629394531 53.71054458618164 1.500007629394531 47.49993133544922 C 1.500007629394531 41.2893180847168 2.716034412384033 35.26527786254883 5.114300727844238 29.59514427185059 C 7.431074142456055 24.11767768859863 10.74804782867432 19.19810485839844 14.97310066223145 14.97306442260742 C 19.19814109802246 10.74802494049072 24.11772727966309 7.431051254272461 29.59519386291504 5.114277839660645 C 35.26534271240234 2.71602463722229 41.28937911987305 1.499997973442078 47.50000762939453 1.499997973442078 C 53.71063613891602 1.499997973442078 59.73467254638672 2.71602463722229 65.40482330322266 5.114277839660645 C 70.88228607177734 7.431051254272461 75.80187225341797 10.74802494049072 80.02691650390625 14.97306442260742 C 84.25196838378906 19.19810485839844 87.56893920898438 24.11767768859863 89.88571166992188 29.59514427185059 C 92.28398132324219 35.26527786254883 93.50000762939453 41.2893180847168 93.50000762939453 47.49993133544922 C 93.50000762939453 53.71054458618164 92.28398132324219 59.73458480834961 89.88571166992188 65.40471649169922 C 87.56893920898438 70.88218688964844 84.25196838378906 75.8017578125 80.02691650390625 80.02679443359375 C 75.80187225341797 84.25183868408203 70.88228607177734 87.56880950927734 65.40482330322266 89.88558197021484 C 59.73467254638672 92.28383636474609 53.71063613891602 93.49986267089844 47.50000762939453 93.49986267089844 Z" stroke="none"/>
                                                        <path d="M 47.50000762939453 2.999992370605469 C 41.4912223815918 2.999992370605469 35.66377639770508 4.1761474609375 30.17951202392578 6.495796203613281 C 24.88085174560547 8.736930847167969 20.12152862548828 11.94596099853516 16.03376007080078 16.03372955322266 C 11.94597625732422 20.12148284912109 8.736961364746094 24.88080596923828 6.495803833007812 30.17946624755859 C 4.176162719726562 35.66371536254883 3.000007629394531 41.49116134643555 3.000007629394531 47.49993133544922 C 3.000007629394531 53.50870132446289 4.176162719726562 59.33614730834961 6.495803833007812 64.82038879394531 C 8.736961364746094 70.11905670166016 11.94597625732422 74.87836456298828 16.03376007080078 78.96613311767578 C 20.12152862548828 83.05390167236328 24.88085174560547 86.26291656494141 30.17951202392578 88.50406646728516 C 35.66377639770508 90.82369995117188 41.4912223815918 91.99985504150391 47.50000762939453 91.99985504150391 C 53.50879287719727 91.99985504150391 59.33623886108398 90.82369995117188 64.82049560546875 88.50406646728516 C 70.11916351318359 86.26291656494141 74.87848663330078 83.05390167236328 78.96625518798828 78.96613311767578 C 83.05403900146484 74.87836456298828 86.26305389404297 70.11905670166016 88.50421142578125 64.82038879394531 C 90.8238525390625 59.33614730834961 92.00000762939453 53.50870132446289 92.00000762939453 47.49993133544922 C 92.00000762939453 41.49116134643555 90.8238525390625 35.66371536254883 88.50421142578125 30.17946624755859 C 86.26305389404297 24.88080596923828 83.05403900146484 20.12148284912109 78.96625518798828 16.03372955322266 C 74.87848663330078 11.94596099853516 70.11916351318359 8.736930847167969 64.82049560546875 6.495796203613281 C 59.33623886108398 4.1761474609375 53.50879287719727 2.999992370605469 47.50000762939453 2.999992370605469 M 47.50000762939453 -7.62939453125e-06 C 73.73352813720703 -7.62939453125e-06 95.00000762939453 21.26644134521484 95.00000762939453 47.49993133544922 C 95.00000762939453 73.73342132568359 73.73352813720703 94.99985504150391 47.50000762939453 94.99985504150391 C 21.26648712158203 94.99985504150391 7.62939453125e-06 73.73342132568359 7.62939453125e-06 47.49993133544922 C 7.62939453125e-06 21.26644134521484 21.26648712158203 -7.62939453125e-06 47.50000762939453 -7.62939453125e-06 Z" stroke="none" fill="#41a599"/>
                                                      </g>
                                                    </g>
                                                  </g>
                                                </g>
                                              </g>
                                            </g>
                                          </g>
                                        </g>
                                      </g>
                                    </g>
                                  </g>
                                </g>
                              </g>
                            </g>
                          </g>
                        </g>
                      </g>
                    </g>
                  </g>
                </g>
              </g>
            </g>
          </g>
        </g>
      </g>
    </g>
    <g id="assessment_16853487" transform="translate(1215.148 1736.076)">
      <g id="Grupo_1241533" data-name="Grupo 1241533" transform="translate(24.859 24.61)">
        <path id="Trazado_1295865" data-name="Trazado 1295865" d="M118.755,30.6h32.377a3.856,3.856,0,0,1,3.845,3.845V78.52a3.856,3.856,0,0,1-3.845,3.845H118.755a3.856,3.856,0,0,1-3.845-3.845V34.445A3.856,3.856,0,0,1,118.755,30.6Z" transform="translate(-102.729 -30.6)" fill="#60c5b9" fill-rule="evenodd"/>
        <path id="Trazado_1295866" data-name="Trazado 1295866" d="M118.755,30.6h32.377a3.7,3.7,0,0,1,3.845,3.522V64.834c-.745-.078-1.5-.172-2.249-.283-19.428-2.871-35.457-15.9-37.818-30.032v-.4a3.7,3.7,0,0,1,3.845-3.522Z" transform="translate(-102.729 -30.6)" fill="#5bc0aa" fill-rule="evenodd"/>
        <path id="Trazado_1295867" data-name="Trazado 1295867" d="M228.38,70.23H235.7v7.317H228.38Z" transform="translate(-199.826 -64.512)" fill="#823d97" fill-rule="evenodd"/>
        <path id="Trazado_1295868" data-name="Trazado 1295868" d="M248.42,90.24h4.425v4.43H248.42Z" transform="translate(-216.975 -81.635)" fill="#9a61a8" fill-rule="evenodd"/>
        <path id="Trazado_1295869" data-name="Trazado 1295869" d="M228.38,184.61H235.7v7.317H228.38Z" transform="translate(-199.826 -162.388)" fill="#823d97" fill-rule="evenodd"/>
        <path id="Trazado_1295870" data-name="Trazado 1295870" d="M247.06,205.81h4.622v4.258H247.06Z" transform="translate(-215.811 -180.529)" fill="#9a61a8" fill-rule="evenodd"/>
        <path id="Trazado_1295871" data-name="Trazado 1295871" d="M228.38,299.01H235.7v7.317H228.38Z" transform="translate(-199.826 -260.282)" fill="#823d97" fill-rule="evenodd"/>
        <path id="Trazado_1295872" data-name="Trazado 1295872" d="M246.16,319.45h4.753v4.368H246.16Z" transform="translate(-215.041 -277.772)" fill="#9a61a8" fill-rule="evenodd"/>
        <path id="Trazado_1295873" data-name="Trazado 1295873" d="M36.656,209.067c-1.3,1.534-7.914,8.761-5.73,10.7,1.844,1.632,4.974,3.645,7.063,5.174a1.638,1.638,0,0,0,.359.2v3.5L36.84,243.268a2.045,2.045,0,1,0,3.955,1.043c1.329-5.059,2.421-11.439,2.8-12.23.519-1.088,1.273,5.157,3.1,12.094a2.042,2.042,0,0,0,3.951-1.039l-1.574-14.5v-3.5a57.216,57.216,0,0,0,7.424-5.375c2.249-1.988-4.343-9.232-5.727-10.7A29.22,29.22,0,0,0,36.656,209.067Zm12.888,4.508-.475,7.538,3.9-2.851Zm-11.669,0,.475,7.538-3.9-2.851Z" transform="translate(-30.487 -182.576)" fill="#0582c0" fill-rule="evenodd"/>
        <path id="Trazado_1295874" data-name="Trazado 1295874" d="M36.656,210.093c-1.3,1.534-7.914,8.761-5.73,10.7,1.844,1.632,4.974,3.645,7.063,5.174a1.638,1.638,0,0,0,.359.2v3.5L36.84,244.293a2.045,2.045,0,0,0,3.955,1.043c1.329-5.059,2.421-11.439,2.8-12.23.069-.147.147-.16.225-.058.087-.932.147-1.877.188-2.834.352-8.273-.981-15.706-3.382-20.815A31.475,31.475,0,0,0,36.656,210.093Zm1.219,4.508.475,7.538-3.9-2.851Z" transform="translate(-30.487 -183.601)" fill="#87c3eb" fill-rule="evenodd"/>
        <path id="Trazado_1295875" data-name="Trazado 1295875" d="M89.666,141.86a5.114,5.114,0,1,0,5.112,5.112A5.114,5.114,0,0,0,89.666,141.86Z" transform="translate(-76.749 -125.807)" fill="#f9afa0" fill-rule="evenodd"/>
        <path id="Trazado_1295876" data-name="Trazado 1295876" d="M104.613,151.926a5.115,5.115,0,0,0-1.153-10.066,5.413,5.413,0,0,0,1.153,10.066Z" transform="translate(-90.415 -125.806)" fill="#fccec1" fill-rule="evenodd"/>
        <path id="Trazado_1295877" data-name="Trazado 1295877" d="M366.161,96.415l2.765,2.773a1.2,1.2,0,0,1,0,1.69l-13.956,13.889a10.677,10.677,0,0,0-4.446-4.466l13.956-13.889A1.193,1.193,0,0,1,366.161,96.415Z" transform="translate(-304.343 -86.619)" fill="#6f3e98" fill-rule="evenodd"/>
        <path id="Trazado_1295878" data-name="Trazado 1295878" d="M347.694,199.187l-.172.172-4.037.932a1.19,1.19,0,0,1-1.424-1.46l1.014-3.939.172-.172a10.684,10.684,0,0,1,4.447,4.467Z" transform="translate(-297.07 -171.039)" fill="#fbcccc" fill-rule="evenodd"/>
        <path id="Trazado_1295879" data-name="Trazado 1295879" d="M345.3,213.916l-1.812.417a1.19,1.19,0,0,1-1.424-1.46l.45-1.743a10.643,10.643,0,0,1,1.538,1.28,11.4,11.4,0,0,1,1.248,1.506Z" transform="translate(-297.07 -185.082)" fill="#362063" fill-rule="evenodd"/>
        <path id="Trazado_1295880" data-name="Trazado 1295880" d="M415.817,123.307l.45.455a.451.451,0,0,1,0,.638l-2.847,2.827a.446.446,0,0,1-.633,0l-.454-.454a.451.451,0,0,1,0-.638l2.842-2.827A.451.451,0,0,1,415.817,123.307Zm-5.431,5.324.528.535a.4.4,0,0,0,.56,0l.4-.392a.4.4,0,0,0,0-.56l-.532-.532a.39.39,0,0,0-.557,0l-.4.392A.391.391,0,0,0,410.386,128.631Z" transform="translate(-355.471 -109.818)" fill="#fff" fill-rule="evenodd"/>
      </g>
      <path id="Trazado_1295881" data-name="Trazado 1295881" d="M76.1,53.567a1.047,1.047,0,0,1-.56.343l-4.037.932a2.166,2.166,0,0,1-1.112-.029,2.195,2.195,0,0,1-1.509-2.662l1.014-3.939a1.054,1.054,0,0,1,.265-.466L76.1,41.832V28.455a2.843,2.843,0,0,0-2.834-2.834H40.885a2.843,2.843,0,0,0-2.834,2.834V39.662a6.13,6.13,0,0,1,4.539,9.9q1.418.214,2.793.557v0a.97.97,0,0,1,.486.286,42.724,42.724,0,0,1,5.063,6.414c1.349,2.229,2,4.405.655,5.676a60.163,60.163,0,0,1-7.136,5.248v2.892l.515,4.724H73.262A2.843,2.843,0,0,0,76.1,72.531Zm-5.047-.687,2.925-.675a9.832,9.832,0,0,0-2.41-2.417l-.74,2.863a.2.2,0,0,0,.131.234A.236.236,0,0,0,71.049,52.88ZM87.392,33.694l2.765,2.778a2.209,2.209,0,0,1-.009,3.112L78.114,51.556V72.53a4.869,4.869,0,0,1-4.855,4.855H45.181L46.01,85a3.051,3.051,0,0,1-5.922,1.473c-.773-2.925-1.353-5.747-1.812-7.947-.053-.265-.1-.519-.143-.76-.568,2.715-1.206,5.857-2,8.843a3.051,3.051,0,0,1-5.922-1.473L31.71,70.65v-2.9c-2.18-1.587-5.166-3.5-7.08-5.194-2.753-2.434,3.13-9.214,5.21-11.615.31-.359.528-.716.952-.818.729-.172,1.476-.323,2.249-.455a6.128,6.128,0,0,1,2.985-9.755V28.455A4.869,4.869,0,0,1,40.882,23.6H73.259a4.869,4.869,0,0,1,4.855,4.855v11.37l6.164-6.135a2.207,2.207,0,0,1,3.114,0Zm1.335,4.2-2.76-2.773a.178.178,0,0,0-.261,0L72.662,48.1a11.73,11.73,0,0,1,3.023,3.039L88.728,38.151A.181.181,0,0,0,88.727,37.89ZM65.279,68.738a1.01,1.01,0,0,1,0-2.02h5.669a1.01,1.01,0,0,1,0,2.02ZM65.2,65.392a1.01,1.01,0,0,1,0-2.02h7.379a1.01,1.01,0,0,1,0,2.02Zm-21.212-1.4L42.644,65c-.618.532.025,1.534.658,1.068l.013.016A60.075,60.075,0,0,0,50.2,61.044c.016-.016-.016.012.009-.013.442-.417-.123-1.71-1-3.166a36.775,36.775,0,0,0-3.759-4.933c-.319-.359-.613-.68-.843-.925q-1.074-.258-2.118-.426c-.7-.111-1.411-.2-2.131-.254a6.114,6.114,0,0,1-5.04.058q-.933.093-1.89.254-.9.147-1.853.368l-.212.241c-1.739,2.008-6.655,7.68-5.4,8.794,1.788,1.579,4.835,3.529,7,5.116.622.457,1.284-.524.646-1.076l-1.4-1.043.016-.02-4-2.912a1.006,1.006,0,0,1-.176-1.46l3.382-4.63a1.006,1.006,0,0,1,1.817.528l.45,7.092,1.1.83v0a2.7,2.7,0,0,1-1.076,4.793l-.013,2.593-1.5,14.487c-.02.323-.18.577.078,1.014a1.037,1.037,0,0,0,1.893-.261c.7-2.671,1.342-5.722,1.837-8.11a39.759,39.759,0,0,1,1.026-4.294,1,1,0,0,1,1.5-.593c.442.209.76.99,1.072,2.2.127.368.486,2.156.626,2.831.446,2.156,1.019,4.925,1.783,7.832a1.035,1.035,0,0,0,1.893.261,1.175,1.175,0,0,0,.082-.941l-1.579-14.6h0V68.149a2.7,2.7,0,0,1-.977-4.773l1.01-.756.446-7.072h0a1.006,1.006,0,0,1,1.817-.528L48.154,59.7a1.009,1.009,0,0,1-.216,1.407l-3.877,2.834ZM37.776,41.674a4.1,4.1,0,1,0,4.1,4.1A4.11,4.11,0,0,0,37.776,41.674Zm6.971,16.778-.163,2.613,1.349-.99ZM31.58,61.064l-.163-2.613-1.186,1.623Zm17.367-26.25a1.01,1.01,0,0,1,0,2.02h-4.1a1.01,1.01,0,1,1,0-2.02ZM65.2,32.68a1.01,1.01,0,0,1,0-2.02h7.379a1.01,1.01,0,0,1,0,2.02Zm0,2.613a1.01,1.01,0,0,1,0-2.02h5.669a1.01,1.01,0,0,1,0,2.02Zm0,2.613a1.01,1.01,0,0,1,0-2.02h4.1a1.01,1.01,0,1,1,0,2.02ZM48.947,31.363a1.01,1.01,0,0,1,0,2.02H41.563a1.01,1.01,0,1,1,0-2.02Zm4.47,30.966h7.317a1.009,1.009,0,0,1,1.01,1.01v7.317a1.012,1.012,0,0,1-1.01,1.01H53.417a1.01,1.01,0,0,1-1.01-1.01V63.338a1.007,1.007,0,0,1,1.01-1.01Zm6.307,2.02h-5.3v5.3h5.3ZM53.417,45.82h7.317a1.012,1.012,0,0,1,1.01,1.01v7.317a1.01,1.01,0,0,1-1.01,1.01H53.417a1.007,1.007,0,0,1-1.01-1.01V46.83A1.01,1.01,0,0,1,53.417,45.82Zm6.307,2.021h-5.3v5.3h5.3ZM53.417,29.318h7.317a1.012,1.012,0,0,1,1.01,1.01v7.317a1.01,1.01,0,0,1-1.01,1.01H53.417a1.007,1.007,0,0,1-1.01-1.01V30.328A1.009,1.009,0,0,1,53.417,29.318Zm6.307,2.02h-5.3v5.3h5.3Z"/>
    </g>
  </g>
</svg>
