<svg xmlns="http://www.w3.org/2000/svg" xmlns:xlink="http://www.w3.org/1999/xlink" width="93" height="93" viewBox="0 0 93 93">
  <defs>
    <filter id="Trazado_982547" x="0" y="0" width="93" height="93" filterUnits="userSpaceOnUse">
      <feOffset dy="3" input="SourceAlpha"/>
      <feGaussianBlur stdDeviation="3" result="blur"/>
      <feFlood flood-opacity="0.161"/>
      <feComposite operator="in" in2="blur"/>
      <feComposite in="SourceGraphic"/>
    </filter>
  </defs>
  <g id="Grupo_1242210" data-name="Grupo 1242210" transform="translate(-1035 -1924.649)">
    <g id="Grupo_1241814" data-name="Grupo 1241814" transform="translate(0 1156.649)">
      <g id="Grupo_1233877" data-name="Grupo 1233877" transform="translate(0 -540.49)">
        <g id="Grupo_1209734" data-name="Grupo 1209734" transform="translate(0 -1430.391)">
          <g id="Grupo_1209038" data-name="Grupo 1209038" transform="translate(241.51 -604.119)">
            <g id="Grupo_1208891" data-name="Grupo 1208891" transform="translate(802.49 3349)">
              <g id="Grupo_1177675" data-name="Grupo 1177675" transform="translate(0 0)">
                <g id="Grupo_1176928" data-name="Grupo 1176928" transform="translate(0 0)">
                  <g id="Grupo_1172322" data-name="Grupo 1172322" transform="translate(0 0)">
                    <g id="Grupo_1164700" data-name="Grupo 1164700">
                      <g id="Grupo_1160931" data-name="Grupo 1160931">
                        <g id="Grupo_1160749" data-name="Grupo 1160749">
                          <g id="Grupo_1158891" data-name="Grupo 1158891">
                            <g id="Grupo_1157406" data-name="Grupo 1157406">
                              <g id="Grupo_1155793" data-name="Grupo 1155793">
                                <g id="Grupo_1154704" data-name="Grupo 1154704">
                                  <g id="Grupo_1150790" data-name="Grupo 1150790">
                                    <g id="Grupo_1154214" data-name="Grupo 1154214">
                                      <g id="Grupo_1152583" data-name="Grupo 1152583">
                                        <g id="Grupo_1146973" data-name="Grupo 1146973">
                                          <g id="Grupo_1146954" data-name="Grupo 1146954">
                                            <g transform="matrix(1, 0, 0, 1, -9, -6)" filter="url(#Trazado_982547)">
                                              <g id="Trazado_982547-2" data-name="Trazado 982547" transform="translate(9 6)" fill="#fef7ea">
                                                <path d="M 37.49999237060547 73.49986267089844 C 32.63936996459961 73.49986267089844 27.92492485046387 72.54824066162109 23.48763656616211 70.67143249511719 C 19.20095825195312 68.85832214355469 15.35081481933594 66.26239013671875 12.04415893554688 62.95573043823242 C 8.737492561340332 59.64907455444336 6.14155912399292 55.79894256591797 4.328447818756104 51.51226425170898 C 2.45162558555603 47.07498550415039 1.500003457069397 42.36055374145508 1.500003457069397 37.49993133544922 C 1.500003457069397 32.63930892944336 2.45162558555603 27.92487525939941 4.328447818756104 23.48759841918945 C 6.14155912399292 19.20092010498047 8.737492561340332 15.35078716278076 12.04415893554688 12.0441312789917 C 15.35081481933594 8.737475395202637 19.20095825195312 6.141542434692383 23.48763656616211 4.328431129455566 C 27.92492485046387 2.45162034034729 32.63936996459961 1.499997973442078 37.49999237060547 1.499997973442078 C 42.36061477661133 1.499997973442078 47.07505798339844 2.45162034034729 51.51234817504883 4.328431129455566 C 55.79902648925781 6.141542434692383 59.649169921875 8.737475395202637 62.95582580566406 12.0441312789917 C 66.26248931884766 15.35078716278076 68.85842895507812 19.20092010498047 70.67153930664062 23.48759841918945 C 72.54836273193359 27.92487525939941 73.49998474121094 32.63930892944336 73.49998474121094 37.49993133544922 C 73.49998474121094 42.36055374145508 72.54836273193359 47.07498550415039 70.67153930664062 51.51226425170898 C 68.85842895507812 55.79894256591797 66.26248931884766 59.64907455444336 62.95582580566406 62.95573043823242 C 59.649169921875 66.26239013671875 55.79902648925781 68.85832214355469 51.51234817504883 70.67143249511719 C 47.07505798339844 72.54824066162109 42.36061477661133 73.49986267089844 37.49999237060547 73.49986267089844 Z" stroke="none"/>
                                                <path d="M 37.49999237060547 2.999992370605469 C 32.84120559692383 2.999992370605469 28.32336807250977 3.911758422851562 24.07196807861328 5.709945678710938 C 19.96409225463867 7.447418212890625 16.27420425415039 9.935409545898438 13.10481643676758 13.10479354858398 C 9.935432434082031 16.2741813659668 7.447441101074219 19.96405792236328 5.709953308105469 24.07191848754883 C 3.911766052246094 28.32331848144531 3.000007629394531 32.84114456176758 3.000007629394531 37.49993133544922 C 3.000007629394531 42.15870666503906 3.911766052246094 46.67654418945312 5.709953308105469 50.92793273925781 C 7.447441101074219 55.03580474853516 9.935432434082031 58.72568130493164 13.10481643676758 61.89505767822266 C 16.27420425415039 65.06444549560547 19.96409225463867 67.55242919921875 24.07196807861328 69.28990936279297 C 28.32336807250977 71.08809661865234 32.84120559692383 71.99985504150391 37.49999237060547 71.99985504150391 C 42.15877914428711 71.99985504150391 46.67661666870117 71.08809661865234 50.92801666259766 69.28990936279297 C 55.03589248657227 67.55242919921875 58.72578048706055 65.06444549560547 61.89516830444336 61.89505767822266 C 65.06455230712891 58.72568130493164 67.55254364013672 55.03580474853516 69.29003143310547 50.92793273925781 C 71.08821868896484 46.67654418945312 71.99997711181641 42.15870666503906 71.99997711181641 37.49993133544922 C 71.99997711181641 32.84114456176758 71.08821868896484 28.32331848144531 69.29003143310547 24.07191848754883 C 67.55254364013672 19.96405792236328 65.06455230712891 16.2741813659668 61.89516830444336 13.10479354858398 C 58.72578048706055 9.935409545898438 55.03589248657227 7.447418212890625 50.92801666259766 5.709945678710938 C 46.67661666870117 3.911758422851562 42.15877914428711 2.999992370605469 37.49999237060547 2.999992370605469 M 37.49999237060547 -7.62939453125e-06 C 58.21065521240234 -7.62939453125e-06 74.99997711181641 16.7892951965332 74.99997711181641 37.49993133544922 C 74.99997711181641 58.2105712890625 58.21065521240234 74.99985504150391 37.49999237060547 74.99985504150391 C 16.78932952880859 74.99985504150391 7.62939453125e-06 58.2105712890625 7.62939453125e-06 37.49993133544922 C 7.62939453125e-06 16.7892951965332 16.78932952880859 -7.62939453125e-06 37.49999237060547 -7.62939453125e-06 Z" stroke="none" fill="#896521"/>
                                              </g>
                                            </g>
                                          </g>
                                        </g>
                                      </g>
                                    </g>
                                  </g>
                                </g>
                              </g>
                            </g>
                          </g>
                        </g>
                      </g>
                    </g>
                  </g>
                </g>
              </g>
            </g>
          </g>
        </g>
      </g>
    </g>
    <g id="ergonomia_1_" data-name="ergonomia (1)" transform="translate(1016.226 1923.083)">
      <g id="Grupo_1242209" data-name="Grupo 1242209" transform="translate(47.4 21.578)">
        <path id="Trazado_1295744" data-name="Trazado 1295744" d="M108.587,28.867a4.956,4.956,0,0,1,3.5,6.052l-.415,1.552a4.944,4.944,0,0,1-9.551-2.558l.418-1.552a4.954,4.954,0,0,1,6.052-3.493Z" transform="translate(-100.478 -28.698)" fill="#f8be9b" fill-rule="evenodd"/>
        <path id="Trazado_1295745" data-name="Trazado 1295745" d="M135.73,317.566l.908,2.823a4.046,4.046,0,0,0,3.965,2.964h6.482a3.26,3.26,0,0,1,2.553,1.17l6.92,8.024c2.492,2.973,6.761-.064,3.98-3.7l-7.837-10.05a3.8,3.8,0,0,0-3.159-1.512Z" transform="translate(-130.676 -286.675)" fill="#378f8d" fill-rule="evenodd"/>
        <path id="Trazado_1295746" data-name="Trazado 1295746" d="M93.127,144.45l9.049-.19-2.291-13.907q-.266-3.5-6.527-6.512c-2.94-.788-5.511.61-5.27,3.936Z" transform="translate(-88.072 -113.559)" fill="#378f8d" fill-rule="evenodd"/>
        <path id="Trazado_1295747" data-name="Trazado 1295747" d="M137.881,171.709h9.56a2.037,2.037,0,1,1,0,4.074h-9.56a5.515,5.515,0,0,1-1.924-.27l-8.277-4.78a2.037,2.037,0,1,1,2.035-3.53Z" transform="translate(-122.569 -152.279)" fill="#f8be9b" fill-rule="evenodd"/>
      </g>
      <path id="Trazado_1295748" data-name="Trazado 1295748" d="M63.386,40.161h9.347a2.886,2.886,0,0,1,0,5.772h-9.56a10.193,10.193,0,0,1-1.416-.1l.923,5.591,4.028-.084a4.647,4.647,0,0,1,3.842,1.84l7.81,10.014.033.042a4.139,4.139,0,0,1,.782,4.281c-1,2.227-4.11,2.832-6.084.478L66.181,59.98a2.408,2.408,0,0,0-1.915-.875H57.785v0a4.888,4.888,0,0,1-4.774-3.562l-.883-2.751c-.012-.024-.018-.048-.028-.072L47.062,36.042h0a1,1,0,0,1-.036-.187,4.414,4.414,0,0,1,2.411-4.609,5.788,5.788,0,0,1-.76-4.672l.418-1.552a5.79,5.79,0,0,1,11.2,2.946l-.43,1.6a5.755,5.755,0,0,1-2.835,3.584,11.4,11.4,0,0,1,2.05,1.879,5.784,5.784,0,0,1,1.431,3.253l.054.318Zm-3.479,4.854-7.362-4.251-.046-.028h0a2.888,2.888,0,0,1-1-3.911l0,0,.027-.046.006-.012a2.875,2.875,0,0,1,1.707-1.275,2.935,2.935,0,0,1,2.183.27l3.213,1.771a4.778,4.778,0,0,0-.845-1.422,11.353,11.353,0,0,0-2.805-2.294A5.79,5.79,0,0,1,50.667,32.6a2.5,2.5,0,0,0-1.431.914,3.2,3.2,0,0,0-.526,2.122l4.828,15.97,7.428-.154Zm12.825-3.159h-9.56a.841.841,0,0,1-.409-.1L54.6,37.245a1.221,1.221,0,0,0-1.621.391.944.944,0,0,1-.048.084h0a1.214,1.214,0,0,0,.411,1.552.474.474,0,0,1,.1.057l8.234,4.753a6.8,6.8,0,0,0,1.5.156h9.56a1.191,1.191,0,0,0,0-2.382ZM54.973,32.108a3.983,3.983,0,0,0,1.344-.493,4.075,4.075,0,0,0,1.912-2.481l.415-1.552a4.1,4.1,0,1,0-7.913-2.122l-.415,1.552A4.1,4.1,0,0,0,54.973,32.108Zm7.044,21.019h-.078l-7.877.162.572,1.78a3.207,3.207,0,0,0,3.151,2.342v0h6.481a4.13,4.13,0,0,1,3.192,1.464l6.93,8.033c1.783,2.125,4.8.147,2.637-2.673L69.217,54.217a2.959,2.959,0,0,0-2.477-1.191Zm14.915-8.18a.849.849,0,0,1,0-1.7h5.155l4.248-10.8a.848.848,0,0,1,1.579.616l-4.444,11.3a.851.851,0,0,1-.809.59H76.932ZM64.146,48.879a.847.847,0,1,1,0-1.695H82.34a.847.847,0,1,1,0,1.695Zm-1.3-12.755a.847.847,0,1,1,0-1.695h1.93a.847.847,0,1,1,0,1.695ZM78.91,34.615a.847.847,0,0,1,1.214-1.034l1.617.932a.849.849,0,0,1-.372,1.611H79.442A.849.849,0,0,1,78.91,34.615ZM75.681,32.97a.846.846,0,0,1,.847-1.464l1.671.962a.847.847,0,1,1-.847,1.467Zm-.39,3.154a.847.847,0,0,1,0-1.695h1.93a.847.847,0,1,1,0,1.695Zm-3.2-5.229a.844.844,0,0,1,.842-1.464l1.671.962a.846.846,0,1,1-.842,1.468Zm-.95,5.229a.847.847,0,0,1,0-1.695h1.93a.847.847,0,0,1,0,1.695Zm-2.643-7.3a.844.844,0,1,1,.841-1.464l1.671.962a.846.846,0,0,1-.842,1.468Zm-1.506,7.3a.847.847,0,0,1,0-1.695h1.93a.847.847,0,0,1,0,1.695ZM64.9,26.746a.847.847,0,1,1,.847-1.467l1.671.965a.848.848,0,0,1-.851,1.467ZM58.6,61.983V69.3a.847.847,0,0,1-1.695,0v-7.32H50.765v-.006a.841.841,0,0,1-.806-.59L42.615,38.4a.844.844,0,1,1,1.609-.511l7.158,22.394H63.818a.849.849,0,0,1,0,1.7H58.6Z" transform="translate(0 0)"/>
    </g>
  </g>
</svg>
