<svg xmlns="http://www.w3.org/2000/svg" xmlns:xlink="http://www.w3.org/1999/xlink" width="113" height="113" viewBox="0 0 113 113">
  <defs>
    <filter id="Trazado_982547" x="0" y="0" width="113" height="113" filterUnits="userSpaceOnUse">
      <feOffset dy="3" input="SourceAlpha"/>
      <feGaussianBlur stdDeviation="3" result="blur"/>
      <feFlood flood-opacity="0.161"/>
      <feComposite operator="in" in2="blur"/>
      <feComposite in="SourceGraphic"/>
    </filter>
  </defs>
  <g id="Grupo_1241348" data-name="Grupo 1241348" transform="translate(-670 -1572.167)">
    <g id="Grupo_1241017" data-name="Grupo 1241017" transform="translate(-0.49 -11111)">
      <g id="Grupo_1240427" data-name="Grupo 1240427" transform="translate(679.49 12689.167)">
        <g id="Grupo_1239780" data-name="Grupo 1239780" transform="translate(0 0)">
          <g id="Grupo_1236603" data-name="Grupo 1236603">
            <g id="Grupo_1236145" data-name="Grupo 1236145">
              <g id="Grupo_1235107" data-name="Grupo 1235107">
                <g id="Grupo_1223796" data-name="Grupo 1223796">
                  <g id="Grupo_1208038" data-name="Grupo 1208038">
                    <g id="Grupo_1202104" data-name="Grupo 1202104">
                      <g id="Grupo_1201923" data-name="Grupo 1201923">
                        <g id="Grupo_1176928" data-name="Grupo 1176928" transform="translate(0)">
                          <g id="Grupo_1172322" data-name="Grupo 1172322">
                            <g id="Grupo_1164700" data-name="Grupo 1164700">
                              <g id="Grupo_1160931" data-name="Grupo 1160931">
                                <g id="Grupo_1160749" data-name="Grupo 1160749">
                                  <g id="Grupo_1158891" data-name="Grupo 1158891">
                                    <g id="Grupo_1157406" data-name="Grupo 1157406">
                                      <g id="Grupo_1155793" data-name="Grupo 1155793">
                                        <g id="Grupo_1154704" data-name="Grupo 1154704">
                                          <g id="Grupo_1150790" data-name="Grupo 1150790">
                                            <g id="Grupo_1154214" data-name="Grupo 1154214" transform="translate(0)">
                                              <g id="Grupo_1152583" data-name="Grupo 1152583">
                                                <g id="Grupo_1146973" data-name="Grupo 1146973">
                                                  <g id="Grupo_1146954" data-name="Grupo 1146954">
                                                    <g transform="matrix(1, 0, 0, 1, -9, -6)" filter="url(#Trazado_982547)">
                                                      <g id="Trazado_982547-2" data-name="Trazado 982547" transform="translate(9 6)" fill="#c4e3df">
                                                        <path d="M 47.50000762939453 93.49986267089844 C 41.28937911987305 93.49986267089844 35.26534271240234 92.28383636474609 29.59519386291504 89.88558197021484 C 24.11772727966309 87.56880950927734 19.19814109802246 84.25183868408203 14.97310066223145 80.02679443359375 C 10.74804782867432 75.8017578125 7.431074142456055 70.88218688964844 5.114300727844238 65.40471649169922 C 2.716034412384033 59.73458480834961 1.500007629394531 53.71054458618164 1.500007629394531 47.49993133544922 C 1.500007629394531 41.2893180847168 2.716034412384033 35.26527786254883 5.114300727844238 29.59514427185059 C 7.431074142456055 24.11767768859863 10.74804782867432 19.19810485839844 14.97310066223145 14.97306442260742 C 19.19814109802246 10.74802494049072 24.11772727966309 7.431051254272461 29.59519386291504 5.114277839660645 C 35.26534271240234 2.71602463722229 41.28937911987305 1.499997973442078 47.50000762939453 1.499997973442078 C 53.71063613891602 1.499997973442078 59.73467254638672 2.71602463722229 65.40482330322266 5.114277839660645 C 70.88228607177734 7.431051254272461 75.80187225341797 10.74802494049072 80.02691650390625 14.97306442260742 C 84.25196838378906 19.19810485839844 87.56893920898438 24.11767768859863 89.88571166992188 29.59514427185059 C 92.28398132324219 35.26527786254883 93.50000762939453 41.2893180847168 93.50000762939453 47.49993133544922 C 93.50000762939453 53.71054458618164 92.28398132324219 59.73458480834961 89.88571166992188 65.40471649169922 C 87.56893920898438 70.88218688964844 84.25196838378906 75.8017578125 80.02691650390625 80.02679443359375 C 75.80187225341797 84.25183868408203 70.88228607177734 87.56880950927734 65.40482330322266 89.88558197021484 C 59.73467254638672 92.28383636474609 53.71063613891602 93.49986267089844 47.50000762939453 93.49986267089844 Z" stroke="none"/>
                                                        <path d="M 47.50000762939453 2.999992370605469 C 41.4912223815918 2.999992370605469 35.66377639770508 4.1761474609375 30.17951202392578 6.495796203613281 C 24.88085174560547 8.736930847167969 20.12152862548828 11.94596099853516 16.03376007080078 16.03372955322266 C 11.94597625732422 20.12148284912109 8.736961364746094 24.88080596923828 6.495803833007812 30.17946624755859 C 4.176162719726562 35.66371536254883 3.000007629394531 41.49116134643555 3.000007629394531 47.49993133544922 C 3.000007629394531 53.50870132446289 4.176162719726562 59.33614730834961 6.495803833007812 64.82038879394531 C 8.736961364746094 70.11905670166016 11.94597625732422 74.87836456298828 16.03376007080078 78.96613311767578 C 20.12152862548828 83.05390167236328 24.88085174560547 86.26291656494141 30.17951202392578 88.50406646728516 C 35.66377639770508 90.82369995117188 41.4912223815918 91.99985504150391 47.50000762939453 91.99985504150391 C 53.50879287719727 91.99985504150391 59.33623886108398 90.82369995117188 64.82049560546875 88.50406646728516 C 70.11916351318359 86.26291656494141 74.87848663330078 83.05390167236328 78.96625518798828 78.96613311767578 C 83.05403900146484 74.87836456298828 86.26305389404297 70.11905670166016 88.50421142578125 64.82038879394531 C 90.8238525390625 59.33614730834961 92.00000762939453 53.50870132446289 92.00000762939453 47.49993133544922 C 92.00000762939453 41.49116134643555 90.8238525390625 35.66371536254883 88.50421142578125 30.17946624755859 C 86.26305389404297 24.88080596923828 83.05403900146484 20.12148284912109 78.96625518798828 16.03372955322266 C 74.87848663330078 11.94596099853516 70.11916351318359 8.736930847167969 64.82049560546875 6.495796203613281 C 59.33623886108398 4.1761474609375 53.50879287719727 2.999992370605469 47.50000762939453 2.999992370605469 M 47.50000762939453 -7.62939453125e-06 C 73.73352813720703 -7.62939453125e-06 95.00000762939453 21.26644134521484 95.00000762939453 47.49993133544922 C 95.00000762939453 73.73342132568359 73.73352813720703 94.99985504150391 47.50000762939453 94.99985504150391 C 21.26648712158203 94.99985504150391 7.62939453125e-06 73.73342132568359 7.62939453125e-06 47.49993133544922 C 7.62939453125e-06 21.26644134521484 21.26648712158203 -7.62939453125e-06 47.50000762939453 -7.62939453125e-06 Z" stroke="none" fill="#41a599"/>
                                                      </g>
                                                    </g>
                                                  </g>
                                                </g>
                                              </g>
                                            </g>
                                          </g>
                                        </g>
                                      </g>
                                    </g>
                                  </g>
                                </g>
                              </g>
                            </g>
                          </g>
                        </g>
                      </g>
                    </g>
                  </g>
                </g>
              </g>
            </g>
          </g>
        </g>
      </g>
    </g>
    <g id="cuidado-de-la-salud_3_" data-name="cuidado-de-la-salud (3)" transform="translate(668.143 1594.036)">
      <path id="Trazado_1295235" data-name="Trazado 1295235" d="M147.181,42.087l-.005,0A27.763,27.763,0,0,1,131.8,17.236V11.342L139.484,7.5h15.378l7.689,3.845v5.9A27.763,27.763,0,0,1,147.181,42.087Z" transform="translate(-88.309 -6.569)" fill="#f27a55"/>
      <path id="Trazado_1295236" data-name="Trazado 1295236" d="M135.508,17.235V11.341L143.2,7.5h-3.713L131.8,11.341v5.894a27.763,27.763,0,0,0,15.381,24.849l.005,0q.952-.475,1.855-1.015a27.764,27.764,0,0,1-13.528-23.836Z" transform="translate(-88.309 -6.568)" fill="#ea5e42"/>
      <path id="Trazado_1295237" data-name="Trazado 1295237" d="M203.464,59.353h-5.791V53.562h-5.719v5.791h-5.791v5.719h5.791v5.791h5.719V65.072h5.791Z" transform="translate(-135.949 -46.934)" fill="#f1f6f7"/>
      <path id="Trazado_1295238" data-name="Trazado 1295238" d="M172.937,315.84,157.29,328.07a6.152,6.152,0,0,1-3.792,1.307H131.864V316.968a15.258,15.258,0,0,1,3.7-1.849,19.311,19.311,0,0,1,6.34-1.019,11.53,11.53,0,0,1,4.156.776l2.949,1.14h5.837a2.47,2.47,0,0,1,2.472,2.47,5.806,5.806,0,0,1-.079.61,0,0,0,0,0,0,0,.98.98,0,0,1-.027.111h0l4.691-2.708,8.56-4.943a2.469,2.469,0,0,1,2.957.369c.016.015.03.03.043.043a2.45,2.45,0,0,1,.375.494A2.619,2.619,0,0,1,172.937,315.84Z" transform="translate(-88.369 -272.714)" fill="#ffcebf"/>
      <path id="Trazado_1295239" data-name="Trazado 1295239" d="M336.345,311.972l-14.331,8.312a5,5,0,0,1-2.509.675h-1.759a20.151,20.151,0,0,1,2.347-1.748h0l13.251-7.652a2.469,2.469,0,0,1,2.957.369c.016.015.03.03.043.043Z" transform="translate(-251.248 -272.715)" fill="#ffb09e"/>
      <path id="Trazado_1295240" data-name="Trazado 1295240" d="M100.657,333.624h3.862v19.223h-3.862Z" transform="translate(-61.024 -292.338)" fill="#f1f6f7"/>
      <path id="Trazado_1295241" data-name="Trazado 1295241" d="M100.657,333.624h1.857v19.223h-1.857Z" transform="translate(-61.024 -292.338)" fill="#d2e4e7"/>
      <path id="Trazado_1295242" data-name="Trazado 1295242" d="M38.52,318.09h7.689v23.068H38.52Z" transform="translate(-6.576 -278.727)" fill="#7398d4"/>
      <path id="Trazado_1295243" data-name="Trazado 1295243" d="M38.52,318.09H41v23.068H38.52Z" transform="translate(-6.576 -278.727)" fill="#4377c4"/>
      <path id="Trazado_1295244" data-name="Trazado 1295244" d="M143.475,338.548a11.535,11.535,0,0,0-1.568-.107,17.459,17.459,0,0,0-10.042,2.868v12.41h3.713V342.754a2.578,2.578,0,0,1,1.36-2.274A17.554,17.554,0,0,1,143.475,338.548Z" transform="translate(-88.37 -296.559)" fill="#ffb09e"/>
      <path id="Trazado_1295245" data-name="Trazado 1295245" d="M63.392,359.047a.928.928,0,1,1,.928-.928A.928.928,0,0,1,63.392,359.047Z" transform="translate(-27.557 -312.989)"/>
      <g id="Grupo_1241347" data-name="Grupo 1241347" transform="translate(31.015 0)">
        <path id="Trazado_1295246" data-name="Trazado 1295246" d="M86.276,305.558a3.463,3.463,0,0,0-4.643-1.246l-11.867,6.852a3.406,3.406,0,0,0-3.285-2.52H60.816c-5.374-2.282-11.095-2.6-16.393.23v-1.319a.928.928,0,0,0-.928-.928H40.561v-.995a.928.928,0,0,0-.928-.928h-7.69a.928.928,0,0,0-.928.928v9.512a.928.928,0,1,0,1.856,0v-8.583H38.7v21.212H32.871v-8.583a.928.928,0,1,0-1.856,0V328.7a.928.928,0,0,0,.928.928h7.69a.928.928,0,0,0,.928-.928v-.994H43.5a.928.928,0,0,0,.928-.928v-2.917h8.843a.928.928,0,0,0,0-1.857H44.423V311.022a16.528,16.528,0,0,1,11.057-2.258c1.682.288,4.355,1.737,5.163,1.737H66.48a1.545,1.545,0,0,1,1.543,1.509c-.067.789-.254,1.576-1.525,1.576H55.29a.928.928,0,0,0,0,1.857H66.5a3.379,3.379,0,0,0,3.122-2.052l12.94-7.472a1.543,1.543,0,0,1,2.108.567A1.738,1.738,0,0,1,84,308.665L68.349,320.9a5.247,5.247,0,0,1-3.22,1.11H57.313a.928.928,0,1,0,0,1.856h7.816a7.111,7.111,0,0,0,4.364-1.5l15.6-12.193a3.546,3.546,0,0,0,1.183-4.607ZM40.561,325.85V308.484h2.005V325.85H40.561Z" transform="translate(-31.015 -266.27)"/>
        <path id="Trazado_1295247" data-name="Trazado 1295247" d="M140.192,36.349a.928.928,0,0,0,.829,0,28.523,28.523,0,0,0,12.59-12.327.928.928,0,1,0-1.643-.864,26.671,26.671,0,0,1-11.361,11.318,26.681,26.681,0,0,1-14.457-23.81V5.346l6.981-3.49h14.939l6.981,3.49v5.328a26.727,26.727,0,0,1-1.511,8.876.928.928,0,1,0,1.752.615,28.577,28.577,0,0,0,1.616-9.491v-5.9a.929.929,0,0,0-.513-.83L148.7.1a.928.928,0,0,0-.415-.1H132.911a.928.928,0,0,0-.415.1l-7.69,3.844a.928.928,0,0,0-.513.83v5.894a28.971,28.971,0,0,0,15.9,25.682Z" transform="translate(-112.75 0)"/>
        <path id="Trazado_1295248" data-name="Trazado 1295248" d="M185.381,65.218H191.1a.928.928,0,0,0,.928-.928V59.427h4.863a.928.928,0,0,0,.928-.928V52.78a.928.928,0,0,0-.928-.928h-4.863V46.989a.928.928,0,0,0-.928-.928h-5.719a.928.928,0,0,0-.928.928v4.862H179.59a.928.928,0,0,0-.928.928V58.5a.928.928,0,0,0,.928.928h4.863V64.29a.928.928,0,0,0,.928.928Zm-4.863-7.647V53.708h4.863a.928.928,0,0,0,.928-.928V47.917h3.862V52.78a.928.928,0,0,0,.928.928h4.863v3.863H191.1a.928.928,0,0,0-.928.928v4.862h-3.862V58.5a.928.928,0,0,0-.928-.928h-4.863Z" transform="translate(-160.391 -40.361)"/>
      </g>
    </g>
  </g>
</svg>
