<svg xmlns="http://www.w3.org/2000/svg" xmlns:xlink="http://www.w3.org/1999/xlink" width="113" height="113" viewBox="0 0 113 113">
  <defs>
    <filter id="Trazado_982547" x="0" y="0" width="113" height="113" filterUnits="userSpaceOnUse">
      <feOffset dy="3" input="SourceAlpha"/>
      <feGaussianBlur stdDeviation="3" result="blur"/>
      <feFlood flood-opacity="0.161"/>
      <feComposite operator="in" in2="blur"/>
      <feComposite in="SourceGraphic"/>
    </filter>
  </defs>
  <g id="Grupo_1241353" data-name="Grupo 1241353" transform="translate(1061 -1553.168)">
    <g id="Grupo_1241033" data-name="Grupo 1241033" transform="translate(-1416.344 -11130)">
      <g id="Grupo_1240425" data-name="Grupo 1240425" transform="translate(364.344 12689.168)">
        <g id="Grupo_1239772" data-name="Grupo 1239772" transform="translate(0 0)">
          <g id="Grupo_1236602" data-name="Grupo 1236602">
            <g id="Grupo_1236144" data-name="Grupo 1236144">
              <g id="Grupo_1235105" data-name="Grupo 1235105">
                <g id="Grupo_1223793" data-name="Grupo 1223793">
                  <g id="Grupo_1208028" data-name="Grupo 1208028">
                    <g id="Grupo_1177675" data-name="Grupo 1177675">
                      <g id="Grupo_1176928" data-name="Grupo 1176928" transform="translate(0)">
                        <g id="Grupo_1172322" data-name="Grupo 1172322">
                          <g id="Grupo_1164700" data-name="Grupo 1164700">
                            <g id="Grupo_1160931" data-name="Grupo 1160931">
                              <g id="Grupo_1160749" data-name="Grupo 1160749">
                                <g id="Grupo_1158891" data-name="Grupo 1158891">
                                  <g id="Grupo_1157406" data-name="Grupo 1157406">
                                    <g id="Grupo_1155793" data-name="Grupo 1155793">
                                      <g id="Grupo_1154704" data-name="Grupo 1154704">
                                        <g id="Grupo_1150790" data-name="Grupo 1150790">
                                          <g id="Grupo_1154214" data-name="Grupo 1154214" transform="translate(0)">
                                            <g id="Grupo_1152583" data-name="Grupo 1152583">
                                              <g id="Grupo_1146973" data-name="Grupo 1146973">
                                                <g id="Grupo_1146954" data-name="Grupo 1146954">
                                                  <g transform="matrix(1, 0, 0, 1, -9, -6)" filter="url(#Trazado_982547)">
                                                    <g id="Trazado_982547-2" data-name="Trazado 982547" transform="translate(9 6)" fill="#c4e3df">
                                                      <path d="M 47.50000762939453 93.49986267089844 C 41.28937911987305 93.49986267089844 35.26534271240234 92.28383636474609 29.59519386291504 89.88558197021484 C 24.11772727966309 87.56880950927734 19.19814109802246 84.25183868408203 14.97310066223145 80.02679443359375 C 10.74804782867432 75.8017578125 7.431074142456055 70.88218688964844 5.114300727844238 65.40471649169922 C 2.716034412384033 59.73458480834961 1.500007629394531 53.71054458618164 1.500007629394531 47.49993133544922 C 1.500007629394531 41.2893180847168 2.716034412384033 35.26527786254883 5.114300727844238 29.59514427185059 C 7.431074142456055 24.11767768859863 10.74804782867432 19.19810485839844 14.97310066223145 14.97306442260742 C 19.19814109802246 10.74802494049072 24.11772727966309 7.431051254272461 29.59519386291504 5.114277839660645 C 35.26534271240234 2.71602463722229 41.28937911987305 1.499997973442078 47.50000762939453 1.499997973442078 C 53.71063613891602 1.499997973442078 59.73467254638672 2.71602463722229 65.40482330322266 5.114277839660645 C 70.88228607177734 7.431051254272461 75.80187225341797 10.74802494049072 80.02691650390625 14.97306442260742 C 84.25196838378906 19.19810485839844 87.56893920898438 24.11767768859863 89.88571166992188 29.59514427185059 C 92.28398132324219 35.26527786254883 93.50000762939453 41.2893180847168 93.50000762939453 47.49993133544922 C 93.50000762939453 53.71054458618164 92.28398132324219 59.73458480834961 89.88571166992188 65.40471649169922 C 87.56893920898438 70.88218688964844 84.25196838378906 75.8017578125 80.02691650390625 80.02679443359375 C 75.80187225341797 84.25183868408203 70.88228607177734 87.56880950927734 65.40482330322266 89.88558197021484 C 59.73467254638672 92.28383636474609 53.71063613891602 93.49986267089844 47.50000762939453 93.49986267089844 Z" stroke="none"/>
                                                      <path d="M 47.50000762939453 2.999992370605469 C 41.4912223815918 2.999992370605469 35.66377639770508 4.1761474609375 30.17951202392578 6.495796203613281 C 24.88085174560547 8.736930847167969 20.12152862548828 11.94596099853516 16.03376007080078 16.03372955322266 C 11.94597625732422 20.12148284912109 8.736961364746094 24.88080596923828 6.495803833007812 30.17946624755859 C 4.176162719726562 35.66371536254883 3.000007629394531 41.49116134643555 3.000007629394531 47.49993133544922 C 3.000007629394531 53.50870132446289 4.176162719726562 59.33614730834961 6.495803833007812 64.82038879394531 C 8.736961364746094 70.11905670166016 11.94597625732422 74.87836456298828 16.03376007080078 78.96613311767578 C 20.12152862548828 83.05390167236328 24.88085174560547 86.26291656494141 30.17951202392578 88.50406646728516 C 35.66377639770508 90.82369995117188 41.4912223815918 91.99985504150391 47.50000762939453 91.99985504150391 C 53.50879287719727 91.99985504150391 59.33623886108398 90.82369995117188 64.82049560546875 88.50406646728516 C 70.11916351318359 86.26291656494141 74.87848663330078 83.05390167236328 78.96625518798828 78.96613311767578 C 83.05403900146484 74.87836456298828 86.26305389404297 70.11905670166016 88.50421142578125 64.82038879394531 C 90.8238525390625 59.33614730834961 92.00000762939453 53.50870132446289 92.00000762939453 47.49993133544922 C 92.00000762939453 41.49116134643555 90.8238525390625 35.66371536254883 88.50421142578125 30.17946624755859 C 86.26305389404297 24.88080596923828 83.05403900146484 20.12148284912109 78.96625518798828 16.03372955322266 C 74.87848663330078 11.94596099853516 70.11916351318359 8.736930847167969 64.82049560546875 6.495796203613281 C 59.33623886108398 4.1761474609375 53.50879287719727 2.999992370605469 47.50000762939453 2.999992370605469 M 47.50000762939453 -7.62939453125e-06 C 73.73352813720703 -7.62939453125e-06 95.00000762939453 21.26644134521484 95.00000762939453 47.49993133544922 C 95.00000762939453 73.73342132568359 73.73352813720703 94.99985504150391 47.50000762939453 94.99985504150391 C 21.26648712158203 94.99985504150391 7.62939453125e-06 73.73342132568359 7.62939453125e-06 47.49993133544922 C 7.62939453125e-06 21.26644134521484 21.26648712158203 -7.62939453125e-06 47.50000762939453 -7.62939453125e-06 Z" stroke="none" fill="#41a599"/>
                                                    </g>
                                                  </g>
                                                </g>
                                              </g>
                                            </g>
                                          </g>
                                        </g>
                                      </g>
                                    </g>
                                  </g>
                                </g>
                              </g>
                            </g>
                          </g>
                        </g>
                      </g>
                    </g>
                  </g>
                </g>
              </g>
            </g>
          </g>
        </g>
      </g>
    </g>
    <g id="seguridad-en-el-trabajo_2_" data-name="seguridad-en-el-trabajo (2)" transform="translate(-1071.898 1574.615)">
      <g id="Grupo_1241351" data-name="Grupo 1241351" transform="translate(39.496 0.997)">
        <g id="Grupo_1241349" data-name="Grupo 1241349" transform="translate(0)">
          <path id="Trazado_1295249" data-name="Trazado 1295249" d="M80.982,50.205A4.983,4.983,0,0,1,76,55.188V70.662A19.094,19.094,0,0,0,82.6,85.6c.84-1.774,3-2.669,5.082-3.742l3.326-1.714L95.175,78l.464-4.631a9.108,9.108,0,0,1-4.807-8.007V62.046H88.456V58.061h1.993v-1a9.469,9.469,0,0,1,7.474-9.256,1.993,1.993,0,1,1,3.986,0,9.469,9.469,0,0,1,7.474,9.256v1h1.993v3.986H109v3.313a9.107,9.107,0,0,1-4.807,8.007L104.656,78l4.163,2.145,3.326,1.714c2.084,1.073,4.242,1.968,5.082,3.742a19.093,19.093,0,0,0,6.6-14.936V55.188a4.984,4.984,0,0,1-4.627-6.833A17.19,17.19,0,0,1,111.125,37.5H88.705a17.19,17.19,0,0,1-8.078,10.855,4.966,4.966,0,0,1,.356,1.851Z" transform="translate(-72.014 -33.514)" fill="#83f2f8" fill-rule="evenodd"/>
          <path id="Trazado_1295250" data-name="Trazado 1295250" d="M49.986,29.174a4.984,4.984,0,0,0,4.627-6.833,17.189,17.189,0,0,0,8.078-10.855h22.42a17.19,17.19,0,0,0,8.078,10.855,4.984,4.984,0,0,0,4.627,6.833V44.649a19.093,19.093,0,0,1-6.6,14.936c-3.938,3.56-8.144,5.245-12.891,7.422a4.983,4.983,0,0,0-8.841,0c-4.748-2.177-8.953-3.862-12.891-7.422a19.094,19.094,0,0,1-6.6-14.936Zm51.816-8.5A13.171,13.171,0,0,1,88.631,7.5H59.171A13.171,13.171,0,0,1,46,20.672V44.649C46,66.183,69.726,70,72.9,73.533H74.9c3.179-3.529,26.9-7.35,26.9-28.885Z" transform="translate(-46 -7.501)" fill="#fe8" fill-rule="evenodd"/>
          <path id="Trazado_1295251" data-name="Trazado 1295251" d="M48.989,104.066v24.318c0,8.412,4.012,14.238,10.893,18.683a63.243,63.243,0,0,0,8.695,4.5c4.209,1.877,5.721,2.9,7.543,4.792a5.216,5.216,0,0,0-1.222.912H72.9c-3.179-3.529-26.9-7.35-26.9-28.885V104.407a13.215,13.215,0,0,0,2.989-.341Z" transform="translate(-46 -91.236)" fill="#ffe000" fill-rule="evenodd"/>
          <path id="Trazado_1295252" data-name="Trazado 1295252" d="M78.989,163.126a4.959,4.959,0,0,1-2.989,1V179.6a19.094,19.094,0,0,0,6.6,14.936,5.368,5.368,0,0,1,2.089-2.143l-.084-.075A16.119,16.119,0,0,1,78.989,179.6Z" transform="translate(-72.014 -142.449)" fill="#00eaee" fill-rule="evenodd"/>
          <path id="Trazado_1295253" data-name="Trazado 1295253" d="M241,102.08v10.252h3.986V102.08a1.993,1.993,0,1,0-3.986,0Z" transform="translate(-215.092 -87.786)" fill="#ffc45c" fill-rule="evenodd"/>
          <path id="Trazado_1295254" data-name="Trazado 1295254" d="M196.209,115.087v10.252h7.474v-1A9.469,9.469,0,0,0,196.209,115.087Zm-3.986,0a9.469,9.469,0,0,0-7.473,9.256v1h7.473Z" transform="translate(-166.315 -100.793)" fill="#fe8" fill-rule="evenodd"/>
          <path id="Trazado_1295255" data-name="Trazado 1295255" d="M169.75,192.25h22.919v3.986H169.75Z" transform="translate(-153.308 -167.704)" fill="#ffc45c" fill-rule="evenodd"/>
          <path id="Trazado_1295256" data-name="Trazado 1295256" d="M192.223,115.087a9.469,9.469,0,0,0-7.473,9.256v1h2.989v-1a9.459,9.459,0,0,1,4.484-8.05Z" transform="translate(-166.315 -100.793)" fill="#ffe000" fill-rule="evenodd"/>
          <path id="Trazado_1295257" data-name="Trazado 1295257" d="M169.75,192.25h2.989v3.986H169.75Z" transform="translate(-153.308 -167.704)" fill="#ff8e45" fill-rule="evenodd"/>
          <path id="Trazado_1295258" data-name="Trazado 1295258" d="M187.63,222.251v3.313a9.108,9.108,0,0,0,4.807,8.007,9.032,9.032,0,0,0,8.553,0,9.108,9.108,0,0,0,4.807-8.007v-3.313Z" transform="translate(-168.813 -193.719)" fill="#ffd9ab" fill-rule="evenodd"/>
          <path id="Trazado_1295259" data-name="Trazado 1295259" d="M225.061,308.524a9,9,0,0,1-4.277-1.077l-.464,4.632,4.74,3.258,4.74-3.258-.464-4.631A9,9,0,0,1,225.061,308.524Z" transform="translate(-197.16 -267.595)" fill="#ffaf7c" fill-rule="evenodd"/>
          <path id="Trazado_1295260" data-name="Trazado 1295260" d="M197.891,345.566l-4.74-3.258-4.163,2.145L193.15,349Z" transform="translate(-169.989 -297.825)" fill="#83f2f8" fill-rule="evenodd"/>
          <path id="Trazado_1295261" data-name="Trazado 1295261" d="M256,345.566,260.74,349l4.163-4.547-4.163-2.145Z" transform="translate(-228.099 -297.825)" fill="#83f2f8" fill-rule="evenodd"/>
          <path id="Trazado_1295262" data-name="Trazado 1295262" d="M190.619,222.251H187.63v3.313a9.084,9.084,0,0,0,10.579,8.96,9.119,9.119,0,0,1-7.589-8.96v-3.313Z" transform="translate(-168.813 -193.719)" fill="#ffaf7c" fill-rule="evenodd"/>
          <path id="Trazado_1295263" data-name="Trazado 1295263" d="M134.108,358.451l-3.326,1.714c-2.084,1.073-4.242,1.968-5.082,3.742a29.877,29.877,0,0,0,3.834,2.91,69.122,69.122,0,0,0,9.057,4.512,4.983,4.983,0,0,1,8.841,0,69.122,69.122,0,0,0,9.057-4.512,29.864,29.864,0,0,0,3.834-2.91c-.84-1.774-3-2.669-5.082-3.742l-3.326-1.714L147.751,363l-4.74-3.434L138.271,363Z" transform="translate(-115.11 -311.823)" fill="#fff" fill-rule="evenodd"/>
          <path id="Trazado_1295264" data-name="Trazado 1295264" d="M127.789,383.387a5.367,5.367,0,0,0-2.089,2.143,29.877,29.877,0,0,0,3.834,2.91,69.114,69.114,0,0,0,9.057,4.512,5,5,0,0,1,2.419-2.264C136.787,388.956,131.109,386.347,127.789,383.387Z" transform="translate(-115.111 -333.446)" fill="#83f2f8" fill-rule="evenodd"/>
        </g>
        <g id="Grupo_1241350" data-name="Grupo 1241350" transform="translate(24.912 6.975)">
          <path id="Trazado_1295265" data-name="Trazado 1295265" d="M239.479,61.993h-1.993V60h1.993Zm-3.986,0H233.5V60h1.993Z" transform="translate(-233.5 -60)" fill="#fff"/>
        </g>
      </g>
      <g id="Grupo_1241352" data-name="Grupo 1241352" transform="translate(38.5)">
        <path id="Trazado_1295266" data-name="Trazado 1295266" d="M73.169,131.536a23.674,23.674,0,0,0-5.177,2.726H66.8a23.672,23.672,0,0,0-5.177-2.725c-7.9-3.52-21.133-9.412-21.133-25.163V83.357a14.2,14.2,0,0,0,7.925-3.127l-1.256-1.547A12.2,12.2,0,0,1,39.5,81.4h-1v24.973a24.17,24.17,0,0,0,8.2,18.593c4.553,4.132,10.079,6.593,14.114,8.39,2.269,1.011,4.229,1.884,4.846,2.568l.3.329h2.88l.3-.329c.617-.685,2.577-1.558,4.846-2.569,3.694-1.646,8.754-3.9,13.094-7.506L85.8,124.318c-4.128,3.431-9.043,5.62-12.631,7.218Z" transform="translate(-38.5 -68.229)"/>
        <path id="Trazado_1295267" data-name="Trazado 1295267" d="M160.84,13.171A12.188,12.188,0,0,1,148.666,1V0H117.213V1a12.148,12.148,0,0,1-3.129,8.147l1.48,1.334a14.135,14.135,0,0,0,3.606-8.485h27.537a14.191,14.191,0,0,0,13.136,13.136V38.144a21.9,21.9,0,0,1-7.018,16.62L154.2,56.2a24.1,24.1,0,0,0,7.633-18.06V13.171Z" transform="translate(-104.042)"/>
        <path id="Trazado_1295268" data-name="Trazado 1295268" d="M113.945,41.423l-.744-.433a16.239,16.239,0,0,1-7.61-10.224L105.409,30H81.415l-.182.766a16.239,16.239,0,0,1-7.61,10.224l-.744.433.32.8a3.988,3.988,0,0,1-3.7,5.466h-1V64.159A20.243,20.243,0,0,0,71.391,75.03a24.82,24.82,0,0,0,8,7.812A52.808,52.808,0,0,0,86.738,86.6c.605.27,1.232.549,1.838.827l.861.395.438-.84a3.987,3.987,0,0,1,7.074,0l.438.84.861-.395c.606-.278,1.232-.557,1.838-.827a52.822,52.822,0,0,0,7.345-3.754,24.819,24.819,0,0,0,8-7.812,20.243,20.243,0,0,0,2.891-10.871V47.688h-1a3.988,3.988,0,0,1-3.7-5.466Zm-7.6,39.745a51.277,51.277,0,0,1-7.075,3.608l-1.062.475a5.981,5.981,0,0,0-9.6,0l-1.062-.475a51.277,51.277,0,0,1-7.075-3.608A29.771,29.771,0,0,1,77.4,78.9a10.884,10.884,0,0,1,3.459-2.271c.259-.13.519-.261.779-.395l2.649-1.365,4.249,4.641,4.875-3.532,4.875,3.531,4.249-4.641,2.649,1.365c.259.134.52.265.779.395a10.886,10.886,0,0,1,3.459,2.271,29.77,29.77,0,0,1-3.074,2.264ZM96.4,42.636a8.519,8.519,0,0,1,5.481,7.924H96.4ZM94.408,50.56H92.415V41.3a1,1,0,1,1,1.993,0Zm-3.986,0H84.942a8.519,8.519,0,0,1,5.481-7.924Zm13.452,1.993v1.993H82.949V52.553Zm-18.55,3.986H101.5v2.316a8.087,8.087,0,1,1-16.175,0ZM100.7,73.927l-2.683,2.93L95.14,74.774l3.086-2.121Zm-7.288-4.991a10.034,10.034,0,0,0,3.423-.6l.267,2.67-3.69,2.536-3.69-2.536.267-2.67a10.031,10.031,0,0,0,3.423.6ZM88.6,72.653l3.086,2.121-2.877,2.084-2.683-2.93ZM116.33,49.6V64.159a18,18,0,0,1-5.439,13.4,12.676,12.676,0,0,0-4.033-2.7c-.253-.127-.508-.255-.761-.385L99.09,70.856,98.744,67.4a10.081,10.081,0,0,0,4.748-8.549V56.539h2.375V50.56h-1.993A10.517,10.517,0,0,0,96.291,40.5a2.989,2.989,0,0,0-5.758,0A10.518,10.518,0,0,0,82.949,50.56H80.956v5.979h2.376v2.316A10.081,10.081,0,0,0,88.079,67.4l-.346,3.452-7.008,3.611c-.253.13-.508.258-.761.385a12.678,12.678,0,0,0-4.033,2.7,18,18,0,0,1-5.439-13.4V49.6a5.985,5.985,0,0,0,4.815-7.3,18.258,18.258,0,0,0,7.662-10.3h20.882a18.258,18.258,0,0,0,7.662,10.3,5.985,5.985,0,0,0,4.815,7.3Z" transform="translate(-64.514 -26.014)"/>
        <path id="Trazado_1295269" data-name="Trazado 1295269" d="M68.5,125.627h1.993v1.993H68.5Z" transform="translate(-64.514 -108.936)"/>
        <path id="Trazado_1295270" data-name="Trazado 1295270" d="M428.5,125.627h1.993v1.993H428.5Z" transform="translate(-376.684 -108.936)"/>
        <path id="Trazado_1295271" data-name="Trazado 1295271" d="M248.5,462.9h1.993v1.993H248.5Z" transform="translate(-220.599 -401.4)"/>
      </g>
    </g>
  </g>
</svg>
