<svg xmlns="http://www.w3.org/2000/svg" xmlns:xlink="http://www.w3.org/1999/xlink" width="93" height="93" viewBox="0 0 93 93">
  <defs>
    <filter id="Trazado_982547" x="0" y="0" width="93" height="93" filterUnits="userSpaceOnUse">
      <feOffset dy="3" input="SourceAlpha"/>
      <feGaussianBlur stdDeviation="3" result="blur"/>
      <feFlood flood-opacity="0.161"/>
      <feComposite operator="in" in2="blur"/>
      <feComposite in="SourceGraphic"/>
    </filter>
  </defs>
  <g id="Grupo_1241540" data-name="Grupo 1241540" transform="translate(-195 -3091.139)">
    <g id="Grupo_1241106" data-name="Grupo 1241106" transform="translate(0.5 -1720.174)">
      <g id="Grupo_1233824" data-name="Grupo 1233824" transform="translate(-0.5 3502.823)">
        <g id="Grupo_1209736" data-name="Grupo 1209736" transform="translate(0 -1430.391)">
          <g id="Grupo_1209036" data-name="Grupo 1209036" transform="translate(-598.49 -604.119)">
            <g id="Grupo_1208891" data-name="Grupo 1208891" transform="translate(802.49 3349)">
              <g id="Grupo_1177675" data-name="Grupo 1177675" transform="translate(0 0)">
                <g id="Grupo_1176928" data-name="Grupo 1176928" transform="translate(0 0)">
                  <g id="Grupo_1172322" data-name="Grupo 1172322" transform="translate(0 0)">
                    <g id="Grupo_1164700" data-name="Grupo 1164700">
                      <g id="Grupo_1160931" data-name="Grupo 1160931">
                        <g id="Grupo_1160749" data-name="Grupo 1160749">
                          <g id="Grupo_1158891" data-name="Grupo 1158891">
                            <g id="Grupo_1157406" data-name="Grupo 1157406">
                              <g id="Grupo_1155793" data-name="Grupo 1155793">
                                <g id="Grupo_1154704" data-name="Grupo 1154704">
                                  <g id="Grupo_1150790" data-name="Grupo 1150790">
                                    <g id="Grupo_1154214" data-name="Grupo 1154214">
                                      <g id="Grupo_1152583" data-name="Grupo 1152583">
                                        <g id="Grupo_1146973" data-name="Grupo 1146973">
                                          <g id="Grupo_1146954" data-name="Grupo 1146954">
                                            <g transform="matrix(1, 0, 0, 1, -9, -6)" filter="url(#Trazado_982547)">
                                              <g id="Trazado_982547-2" data-name="Trazado 982547" transform="translate(9 6)" fill="#fef7ea">
                                                <path d="M 37.49999237060547 73.49986267089844 C 32.63936996459961 73.49986267089844 27.92492485046387 72.54824066162109 23.48763656616211 70.67143249511719 C 19.20095825195312 68.85832214355469 15.35081481933594 66.26239013671875 12.04415893554688 62.95573043823242 C 8.737492561340332 59.64907455444336 6.14155912399292 55.79894256591797 4.328447818756104 51.51226425170898 C 2.45162558555603 47.07498550415039 1.500003457069397 42.36055374145508 1.500003457069397 37.49993133544922 C 1.500003457069397 32.63930892944336 2.45162558555603 27.92487525939941 4.328447818756104 23.48759841918945 C 6.14155912399292 19.20092010498047 8.737492561340332 15.35078716278076 12.04415893554688 12.0441312789917 C 15.35081481933594 8.737475395202637 19.20095825195312 6.141542434692383 23.48763656616211 4.328431129455566 C 27.92492485046387 2.45162034034729 32.63936996459961 1.499997973442078 37.49999237060547 1.499997973442078 C 42.36061477661133 1.499997973442078 47.07505798339844 2.45162034034729 51.51234817504883 4.328431129455566 C 55.79902648925781 6.141542434692383 59.649169921875 8.737475395202637 62.95582580566406 12.0441312789917 C 66.26248931884766 15.35078716278076 68.85842895507812 19.20092010498047 70.67153930664062 23.48759841918945 C 72.54836273193359 27.92487525939941 73.49998474121094 32.63930892944336 73.49998474121094 37.49993133544922 C 73.49998474121094 42.36055374145508 72.54836273193359 47.07498550415039 70.67153930664062 51.51226425170898 C 68.85842895507812 55.79894256591797 66.26248931884766 59.64907455444336 62.95582580566406 62.95573043823242 C 59.649169921875 66.26239013671875 55.79902648925781 68.85832214355469 51.51234817504883 70.67143249511719 C 47.07505798339844 72.54824066162109 42.36061477661133 73.49986267089844 37.49999237060547 73.49986267089844 Z" stroke="none"/>
                                                <path d="M 37.49999237060547 2.999992370605469 C 32.84120559692383 2.999992370605469 28.32336807250977 3.911758422851562 24.07196807861328 5.709945678710938 C 19.96409225463867 7.447418212890625 16.27420425415039 9.935409545898438 13.10481643676758 13.10479354858398 C 9.935432434082031 16.2741813659668 7.447441101074219 19.96405792236328 5.709953308105469 24.07191848754883 C 3.911766052246094 28.32331848144531 3.000007629394531 32.84114456176758 3.000007629394531 37.49993133544922 C 3.000007629394531 42.15870666503906 3.911766052246094 46.67654418945312 5.709953308105469 50.92793273925781 C 7.447441101074219 55.03580474853516 9.935432434082031 58.72568130493164 13.10481643676758 61.89505767822266 C 16.27420425415039 65.06444549560547 19.96409225463867 67.55242919921875 24.07196807861328 69.28990936279297 C 28.32336807250977 71.08809661865234 32.84120559692383 71.99985504150391 37.49999237060547 71.99985504150391 C 42.15877914428711 71.99985504150391 46.67661666870117 71.08809661865234 50.92801666259766 69.28990936279297 C 55.03589248657227 67.55242919921875 58.72578048706055 65.06444549560547 61.89516830444336 61.89505767822266 C 65.06455230712891 58.72568130493164 67.55254364013672 55.03580474853516 69.29003143310547 50.92793273925781 C 71.08821868896484 46.67654418945312 71.99997711181641 42.15870666503906 71.99997711181641 37.49993133544922 C 71.99997711181641 32.84114456176758 71.08821868896484 28.32331848144531 69.29003143310547 24.07191848754883 C 67.55254364013672 19.96405792236328 65.06455230712891 16.2741813659668 61.89516830444336 13.10479354858398 C 58.72578048706055 9.935409545898438 55.03589248657227 7.447418212890625 50.92801666259766 5.709945678710938 C 46.67661666870117 3.911758422851562 42.15877914428711 2.999992370605469 37.49999237060547 2.999992370605469 M 37.49999237060547 -7.62939453125e-06 C 58.21065521240234 -7.62939453125e-06 74.99997711181641 16.7892951965332 74.99997711181641 37.49993133544922 C 74.99997711181641 58.2105712890625 58.21065521240234 74.99985504150391 37.49999237060547 74.99985504150391 C 16.78932952880859 74.99985504150391 7.62939453125e-06 58.2105712890625 7.62939453125e-06 37.49993133544922 C 7.62939453125e-06 16.7892951965332 16.78932952880859 -7.62939453125e-06 37.49999237060547 -7.62939453125e-06 Z" stroke="none" fill="#896521"/>
                                              </g>
                                            </g>
                                          </g>
                                        </g>
                                      </g>
                                    </g>
                                  </g>
                                </g>
                              </g>
                            </g>
                          </g>
                        </g>
                      </g>
                    </g>
                  </g>
                </g>
              </g>
            </g>
          </g>
        </g>
      </g>
    </g>
    <g id="triangulo_2_" data-name="triangulo (2)" transform="translate(194.555 3111.938)">
      <path id="Trazado_1295882" data-name="Trazado 1295882" d="M52.6,14.2a17.151,17.151,0,0,0-6.612-6.55,1.268,1.268,0,0,0-1.843.932,2.913,2.913,0,0,0-.053.86c-2.69-.726-5.273.839-7.88,1.761a.853.853,0,0,0-.52.52c-.922,2.607-2.486,5.19-1.761,7.88a2.91,2.91,0,0,0-.86.053,1.268,1.268,0,0,0-.932,1.843,17.152,17.152,0,0,0,6.55,6.612Z" transform="translate(-6.835 -6.833)" fill="#4b5165"/>
      <path id="Trazado_1295883" data-name="Trazado 1295883" d="M257.776,260.174a137.706,137.706,0,0,0-5.308-14.447,5.391,5.391,0,0,0-1.391-4.593c-2.338-2.338-6.683-1.784-9.7,1.238s-3.576,7.367-1.238,9.7c.038.038.077.073.116.109-1.652,3.032-3.5,6.8-3.788,7.378a2.5,2.5,0,0,0,4.495,2.2c.843-1.721,2.931-5.882,4.361-8.4a9.014,9.014,0,0,0,4.054-2.093c1.46,3.754,3.308,8.984,3.5,9.881a2.5,2.5,0,1,0,4.908-.982Z" transform="translate(-192.941 -218.433)" fill="#ffd3bd"/>
      <path id="Trazado_1295884" data-name="Trazado 1295884" d="M269.074,258.389c-1.118-3.452-3.662-10.3-4.789-12.662a5.391,5.391,0,0,0-1.391-4.593c-2.338-2.338-6.683-1.784-9.7,1.238s-3.576,7.367-1.238,9.7c.038.038.077.073.116.109-1.03,1.89-2.137,4.065-2.894,5.576a11.332,11.332,0,0,1,4.456,2.281c1.009-2.012,2.44-4.8,3.506-6.676a9.014,9.014,0,0,0,4.054-2.093c1.094,2.812,2.4,6.452,3.073,8.479A6.542,6.542,0,0,1,269.074,258.389Z" transform="translate(-204.758 -218.433)" fill="#4b5165"/>
      <path id="Trazado_1295885" data-name="Trazado 1295885" d="M151.1,257.641a2.536,2.536,0,1,1-4.3-2.693c.832-1.328,4.348-10.212,4.522-11.67a2.536,2.536,0,0,1,5.038.578C156.074,246.331,152.185,255.9,151.1,257.641Z" transform="translate(-111.108 -219.658)" fill="#ffd3bd"/>
      <path id="Trazado_1295886" data-name="Trazado 1295886" d="M278.472,63.2a2.536,2.536,0,0,1-3.5-3.665,97.567,97.567,0,0,0,7.477-10.342,2.535,2.535,0,0,1,4.36,2.589C285.421,54.111,280.208,61.536,278.472,63.2Z" transform="translate(-227.55 -43.698)" fill="#ffbe9d"/>
      <path id="Trazado_1295887" data-name="Trazado 1295887" d="M226.515,202.02c1.35-1.35,5.666-6.259,3.318-8.177-3.906-3.19-12.311-6.647-15.227-3.732s.541,11.32,3.732,15.227C220.255,207.686,225.165,203.37,226.515,202.02Z" transform="translate(-172.254 -172.252)" fill="#8eafe2"/>
      <path id="Trazado_1295888" data-name="Trazado 1295888" d="M219.519,195.023a13.608,13.608,0,0,0,3.215-5.045c-3.261-1.146-6.523-1.469-8.126.134s-1.279,4.865-.134,8.126a13.607,13.607,0,0,0,5.045-3.215Z" transform="translate(-172.256 -172.252)" fill="#7c93dd"/>
      <circle id="Elipse_12509" data-name="Elipse 12509" cx="3.2" cy="3.2" r="3.2" transform="translate(28.81 18.407)" fill="#ffd3bd"/>
      <circle id="Elipse_12510" data-name="Elipse 12510" cx="3.2" cy="3.2" r="3.2" transform="translate(42.9 4.317)" fill="#ffbe9d"/>
      <ellipse id="Elipse_12511" data-name="Elipse 12511" cx="10.05" cy="8.747" rx="10.05" ry="8.747" transform="translate(26.079 15.8) rotate(-45)" fill="#ffd3bd"/>
      <path id="Trazado_1295889" data-name="Trazado 1295889" d="M103.8,148.585c-9.709,7.583-16.329-1.361-17.111-5.386a8.684,8.684,0,0,0,1.671,9.286c3.416,3.416,9.366,3,13.291-.921a11.352,11.352,0,0,0,2.149-2.979Z" transform="translate(-56.092 -130.501)" fill="#ffbe9d"/>
      <g id="Grupo_1241539" data-name="Grupo 1241539" transform="translate(33.008 7.564)">
        <g id="Grupo_1241538" data-name="Grupo 1241538" transform="translate(0 0)">
          <g id="Grupo_1241537" data-name="Grupo 1241537">
            <g id="Grupo_1241535" data-name="Grupo 1241535" transform="translate(0 10.928)">
              <path id="Trazado_1295890" data-name="Trazado 1295890" d="M124.715,209.049a2.671,2.671,0,1,1-3.306.375A2.384,2.384,0,0,1,124.715,209.049Z" transform="translate(-120.521 -208.536)" fill="#eda1ab"/>
            </g>
            <g id="Grupo_1241536" data-name="Grupo 1241536" transform="translate(9.02)">
              <ellipse id="Elipse_12512" data-name="Elipse 12512" cx="2.603" cy="2.073" rx="2.603" ry="2.073" transform="translate(0 3.68) rotate(-45)" fill="#eda1ab"/>
            </g>
          </g>
        </g>
      </g>
      <path id="Trazado_1295891" data-name="Trazado 1295891" d="M42.572,9.307a.665.665,0,0,0-.941.941l.752.752a.665.665,0,0,0,.941-.941Zm-7.831,7.831a.665.665,0,0,0-.941.941l.752.752a.665.665,0,0,0,.941-.941ZM65.487,41.61c-.071-.355-.263-1.008-.536-1.852C63.828,36.29,61.332,29.6,60.209,27.182a6.058,6.058,0,0,0-1.336-4.656A2.474,2.474,0,0,0,58,21.076a23.889,23.889,0,0,0-4.951-3.021c2.317-2.927,5.723-7.855,6.778-9.633a3.2,3.2,0,0,0-2.215-4.79.665.665,0,1,0-.223,1.311,1.874,1.874,0,0,1,1.295,2.8c-1.072,1.806-4.62,6.929-6.9,9.764a23.084,23.084,0,0,0-2.778-.928,10.738,10.738,0,0,0,.4-2.1c1.8-2.322,4.54-6.165,5.876-8.346a.665.665,0,1,0-1.134-.695c-1.082,1.766-3.108,4.648-4.78,6.891a9.068,9.068,0,0,0-.525-2.093A3.865,3.865,0,0,0,44.281,4.1,18.505,18.505,0,0,0,39.468.227a1.934,1.934,0,0,0-2.813,1.417c-.009.056-.017.11-.024.16C34,1.464,31.54,2.9,29.157,3.739a1.511,1.511,0,0,0-.926.926C27.389,7.05,25.957,9.5,26.3,12.138l-.16.024a1.934,1.934,0,0,0-1.417,2.813A18.5,18.5,0,0,0,28.6,19.79a3.864,3.864,0,0,0,6.123,4.569,9.449,9.449,0,0,0,4.455.544,89.886,89.886,0,0,1-4.049,10.034,3.205,3.205,0,0,0,2.425,4.887.665.665,0,1,0,.118-1.325,1.874,1.874,0,0,1-1.416-2.857,88.77,88.77,0,0,0,4.4-11.007q.212-.054.422-.116A25.221,25.221,0,0,0,42.959,29.4a82.038,82.038,0,0,1-3.343,7.891.665.665,0,1,0,1.172.629c.692-1.288,1.933-4.178,3.012-6.983a20.928,20.928,0,0,0,1.769,2.566,2.49,2.49,0,0,0,.774.635c-1.137,2.122-2.528,4.876-3.418,6.7a3.167,3.167,0,1,0,5.689,2.787c1.107-2.259,2.944-5.875,4.2-8.108a9.515,9.515,0,0,0,3.327-1.586c1.44,3.767,2.984,8.2,3.136,8.922a3.168,3.168,0,1,0,6.212-1.243ZM47.892,5.725a2.539,2.539,0,0,1,.317,3.2A8.316,8.316,0,0,0,46.948,7.3h0a8.4,8.4,0,0,0-2.486-1.719A2.532,2.532,0,0,1,47.892,5.725Zm-22,8.625a.6.6,0,0,1,.446-.873,3.324,3.324,0,0,1,.616-.06.665.665,0,0,0,.784-.823c-.658-2.44.822-4.873,1.746-7.485a.187.187,0,0,1,.115-.115c2.6-.921,5.044-2.4,7.485-1.746a.665.665,0,0,0,.823-.784,3.29,3.29,0,0,1,.06-.616.6.6,0,0,1,.873-.447,17.074,17.074,0,0,1,4.39,3.526c-.05.055-.1.112-.144.17-6.323-1.663-13.3,3.558-13.778,10.387a9.6,9.6,0,0,0,.28,3.111q-.087.07-.17.144a17.07,17.07,0,0,1-3.526-4.39Zm4.324,9.05a2.538,2.538,0,0,1-.141-3.43,8.419,8.419,0,0,0,3.336,3.749A2.539,2.539,0,0,1,30.217,23.4Zm2.518-1.885c-3.151-3.151-2.738-8.691.921-12.35,3.552-3.552,9.113-4.159,12.35-.921,3.151,3.151,2.738,8.691-.921,12.35C41.505,24.174,35.956,24.735,32.736,21.514Zm9.594,2.548a12.1,12.1,0,0,0,6.221-6.227,24.428,24.428,0,0,1,8.608,4.271c1.676,1.369-1.826,5.65-3.368,7.191s-5.823,5.044-7.191,3.368a24.427,24.427,0,0,1-4.269-8.6Zm5.09,18.977a1.837,1.837,0,1,1-3.3-1.617c.067-.136.3-.614.643-1.3a11.372,11.372,0,0,1,3.288,1.642C47.805,42.255,47.591,42.689,47.419,43.039Zm12.424-2.8c-.744-2.18-1.9-5.337-2.791-7.638a.665.665,0,0,0-1.059-.258,8.324,8.324,0,0,1-3.752,1.941.665.665,0,0,0-.441.322c-.939,1.652-2.162,4.013-3.142,5.95a12.84,12.84,0,0,0-3.293-1.633c.668-1.325,1.517-2.978,2.331-4.486,2.839-.083,6.6-3.766,7.036-4.2a18.571,18.571,0,0,0,3.888-5.558,5.348,5.348,0,0,1,.249,2.529.665.665,0,0,0,.06.371c.877,1.836,3.2,7.938,4.453,11.647A8.065,8.065,0,0,0,59.843,40.237Zm2.9,3.8a1.836,1.836,0,0,1-2.163-1.447c-.041-.2-.149-.564-.3-1.05a6.637,6.637,0,0,1,3.544-.973c.181.578.309,1.031.365,1.309A1.836,1.836,0,0,1,62.741,44.033ZM39.9,12.727a.665.665,0,0,0-.618.709,1.27,1.27,0,0,1-1.355,1.355.665.665,0,0,0-.091,1.327,2.6,2.6,0,0,0,2.774-2.774.665.665,0,0,0-.709-.618Z" transform="translate(0 0)"/>
    </g>
  </g>
</svg>
